<svg width="277" height="210" viewBox="0 0 277 210" fill="none" xmlns="http://www.w3.org/2000/svg">
<path d="M145.935 121.182L124.877 109.149V133.215L145.935 145.248L166.992 133.215V109.149L145.935 121.182Z" fill="#42E8E0"/>
<path d="M145.935 145.248L124.877 133.215V109.149L145.935 121.182V145.248Z" fill="#42E8E0"/>
<path d="M166.993 133.215L145.936 145.248V121.182L166.993 109.149V133.215Z" fill="#2FD3C7"/>
<path d="M145.935 121.182L124.877 109.149L145.934 97.1162L166.992 109.149L145.935 121.182Z" fill="#42E8E0"/>
<path d="M145.935 121.182L125.79 109.671L124.877 110.193L145.935 122.226L166.992 110.193L166.079 109.671L145.935 121.182Z" fill="white"/>
<path d="M173.288 136.63L152.23 124.596V148.662L173.288 160.695L194.346 148.662V124.596L173.288 136.63Z" fill="#42E8E0"/>
<path d="M173.288 160.695L152.23 148.662V124.596L173.288 136.629V160.695Z" fill="#42E8E0"/>
<path d="M194.347 148.662L173.289 160.695V136.629L194.347 124.596V148.662Z" fill="#2FD3C7"/>
<path d="M173.288 136.63L152.23 124.596L173.288 112.563L194.345 124.597L173.288 136.63Z" fill="#42E8E0"/>
<path d="M173.288 136.63L153.144 125.118L152.23 125.64L173.288 137.673L194.345 125.64L193.432 125.119L173.288 136.63Z" fill="white"/>
<path d="M200.64 152.076L179.582 140.043V164.109L200.64 176.142L221.698 164.109V140.043L200.64 152.076Z" fill="#42E8E0"/>
<path d="M200.64 176.142L179.582 164.109V140.043L200.64 152.076V176.142Z" fill="#42E8E0"/>
<path d="M221.698 164.109L200.641 176.142V152.076L221.698 140.043V164.109Z" fill="#2FD3C7"/>
<path d="M200.64 152.076L179.582 140.043L200.639 128.01L221.697 140.044L200.64 152.076Z" fill="#42E8E0"/>
<path d="M200.64 152.076L180.495 140.565L179.582 141.087L200.64 153.12L221.697 141.087L221.698 140.043L200.64 152.076Z" fill="white"/>
<path d="M118.581 137.673L97.5234 125.64V149.706L118.581 161.739L139.639 149.706V125.64L118.581 137.673Z" fill="#42E8E0"/>
<path d="M118.581 161.739L97.5234 149.706V125.64L118.581 137.673V161.739Z" fill="#42E8E0"/>
<path d="M139.64 149.706L118.582 161.739V137.673L139.64 125.64V149.706Z" fill="#2FD3C7"/>
<path d="M118.581 137.674L97.5234 125.64L118.581 113.607L139.638 125.641L118.581 137.674Z" fill="#42E8E0"/>
<path d="M118.581 137.674L98.4368 126.162L97.5234 126.684L118.581 138.717L139.638 126.684L138.725 126.163L118.581 137.674Z" fill="white"/>
<path d="M145.935 153.121L124.877 141.087V165.153L145.935 177.186L166.992 165.153V141.087L145.935 153.121Z" fill="#42E8E0"/>
<path d="M145.935 177.186L124.877 165.153V141.087L145.935 153.121V177.186Z" fill="#42E8E0"/>
<path d="M166.993 165.153L145.936 177.186V153.121L166.993 141.087V165.153Z" fill="#2FD3C7"/>
<path d="M145.935 153.121L124.877 141.088L145.934 129.055L166.992 141.088L145.935 153.121Z" fill="#42E8E0"/>
<path d="M145.935 153.121L125.79 141.609L124.877 142.131L145.935 154.165L166.992 142.132L166.079 141.61L145.935 153.121Z" fill="white"/>
<path d="M173.288 168.567L152.23 156.534V180.6L173.288 192.633L194.346 180.6V156.534L173.288 168.567Z" fill="#42E8E0"/>
<path d="M173.288 192.633L152.23 180.6V156.534L173.288 168.567V192.633Z" fill="#42E8E0"/>
<path d="M194.347 180.6L173.289 192.633V168.567L194.347 156.534V180.6Z" fill="#2FD3C7"/>
<path d="M173.288 168.568L152.23 156.534L173.288 144.501L194.345 156.535L173.288 168.568Z" fill="#42E8E0"/>
<path d="M173.288 168.567L153.144 157.056L152.23 157.578L173.288 169.611L194.345 157.578L194.346 156.534L173.288 168.567Z" fill="white"/>
<path d="M91.2296 154.165L70.1719 142.131V166.197L91.2296 178.23L112.287 166.197V142.131L91.2296 154.165Z" fill="#42E8E0"/>
<path d="M91.2296 178.23L70.1719 166.197V142.131L91.2296 154.165V178.23Z" fill="#42E8E0"/>
<path d="M112.288 166.197L91.2305 178.23V154.165L112.288 142.131V166.197Z" fill="#2FD3C7"/>
<path d="M91.2296 154.165L70.1719 142.132L91.2291 130.099L112.287 142.132L91.2296 154.165Z" fill="#42E8E0"/>
<path d="M91.2296 154.165L70.1719 142.131V143.175L91.2296 155.209L112.287 143.176L111.374 142.654L91.2296 154.165Z" fill="white"/>
<path d="M118.581 169.611L97.5234 157.578V181.643L118.581 193.677L139.639 181.643V157.578L118.581 169.611Z" fill="#42E8E0"/>
<path d="M118.581 193.677L97.5234 181.643V157.578L118.581 169.611V193.677Z" fill="#42E8E0"/>
<path d="M139.64 181.643L118.582 193.677V169.611L139.64 157.578V181.643Z" fill="#2FD3C7"/>
<path d="M118.581 169.611L97.5234 157.578L118.581 145.545L139.638 157.578L118.581 169.611Z" fill="#42E8E0"/>
<path d="M118.581 169.611L97.5234 157.578L97.5235 158.622L118.581 170.655L139.638 158.622L138.725 158.1L118.581 169.611Z" fill="white"/>
<path d="M145.935 185.058L124.877 173.025V197.091L145.935 209.124L166.992 197.091V173.025L145.935 185.058Z" fill="#42E8E0"/>
<path d="M145.935 209.124L124.877 197.091V173.025L145.935 185.058V209.124Z" fill="#42E8E0"/>
<path d="M166.993 197.091L145.936 209.124V185.058L166.993 173.025V197.091Z" fill="#2FD3C7"/>
<path d="M145.935 185.058L124.877 173.025L145.934 160.992L166.992 173.025L145.935 185.058Z" fill="#42E8E0"/>
<path d="M145.935 185.058L124.877 173.025V174.069L145.935 186.102L166.992 174.069L166.992 173.025L145.935 185.058Z" fill="white"/>
<path d="M145.935 89.2453L124.877 77.2119V101.278L145.935 113.311L166.992 101.278V77.2119L145.935 89.2453Z" fill="#42E8E0"/>
<path d="M145.935 113.311L124.877 101.278V77.2119L145.935 89.2451V113.311Z" fill="#42E8E0"/>
<path d="M166.993 101.278L145.936 113.311V89.2451L166.993 77.2119V101.278Z" fill="#2FD3C7"/>
<path d="M145.935 89.2453L124.877 77.2121L145.934 65.1792L166.992 77.2124L145.935 89.2453Z" fill="#42E8E0"/>
<path d="M145.935 89.2454L125.79 77.7339L124.877 78.2558L145.935 90.2891L166.992 78.2561L166.079 77.7343L145.935 89.2454Z" fill="white"/>
<path opacity="0.7" d="M145.935 181.139L131.57 172.93L145.935 164.722L160.299 172.93L145.935 181.139Z" fill="#18B2A3"/>
<path opacity="0.7" d="M118.584 165.692L104.219 157.483L118.583 149.275L132.948 157.483L118.584 165.692Z" fill="#18B2A3"/>
<path opacity="0.7" d="M173.289 164.648L158.924 156.439L173.288 148.231L187.653 156.44L173.289 164.648Z" fill="#18B2A3"/>
<path opacity="0.7" d="M200.693 148.346L186.328 140.138L200.692 131.929L215.057 140.138L200.693 148.346Z" fill="#18B2A3"/>
<path opacity="0.7" d="M91.23 150.245L76.8652 142.037L91.2296 133.828L105.594 142.037L91.23 150.245Z" fill="#18B2A3"/>
<path d="M173.288 104.692L152.23 92.6587V116.724L173.288 128.758L194.346 116.724V92.6587L173.288 104.692Z" fill="#42E8E0"/>
<path d="M173.288 128.758L152.23 116.724V92.6587L173.288 104.692V128.758Z" fill="#42E8E0"/>
<path d="M194.347 116.724L173.289 128.758V104.692L194.347 92.6587V116.724Z" fill="#2FD3C7"/>
<path d="M173.288 104.692L152.23 92.6589L173.288 80.626L194.345 92.6593L173.288 104.692Z" fill="#42E8E0"/>
<path d="M173.288 104.692L153.144 93.1807L152.23 93.7025L173.288 105.736L194.345 93.7029L193.432 93.181L173.288 104.692Z" fill="white"/>
<path d="M200.64 120.139L179.582 108.105V132.171L200.64 144.204L221.698 132.171V108.105L200.64 120.139Z" fill="#42E8E0"/>
<path d="M200.64 144.204L179.582 132.171V108.105L200.64 120.139V144.204Z" fill="#42E8E0"/>
<path d="M221.698 132.171L200.641 144.204V120.139L221.698 108.105V132.171Z" fill="#2FD3C7"/>
<path d="M200.64 120.139L179.582 108.106L200.639 96.0728L221.697 108.106L200.64 120.139Z" fill="#42E8E0"/>
<path d="M200.64 120.139L180.495 108.627L179.582 109.149L200.64 121.182L221.697 109.15L221.698 108.105L200.64 120.139Z" fill="white"/>
<path d="M118.581 105.736L97.5234 93.7021V117.768L118.581 129.801L139.639 117.768V93.7021L118.581 105.736Z" fill="#42E8E0"/>
<path d="M118.581 129.801L97.5234 117.768V93.7021L118.581 105.735V129.801Z" fill="#42E8E0"/>
<path d="M139.64 117.768L118.582 129.801V105.735L139.64 93.7021V117.768Z" fill="#2FD3C7"/>
<path d="M118.581 105.736L97.5234 93.7023L118.581 81.6694L139.638 93.7026L118.581 105.736Z" fill="#42E8E0"/>
<path d="M118.581 105.736L98.4368 94.2241L97.5234 94.746L118.581 106.779L139.638 94.7463L138.725 94.2244L118.581 105.736Z" fill="white"/>
<path d="M145.935 121.183L124.877 109.149V133.215L145.935 145.248L166.992 133.215V109.149L145.935 121.183Z" fill="#42E8E0"/>
<path d="M145.935 145.248L124.877 133.215V109.149L145.935 121.183V145.248Z" fill="#42E8E0"/>
<path d="M166.993 133.215L145.936 145.248V121.183L166.993 109.149V133.215Z" fill="#2FD3C7"/>
<path d="M145.935 121.183L124.877 109.15L145.934 97.1167L166.992 109.15L145.935 121.183Z" fill="#42E8E0"/>
<path d="M145.935 121.183L125.79 109.671L124.877 110.193L145.935 122.227L166.992 110.194L166.079 109.672L145.935 121.183Z" fill="white"/>
<path d="M173.288 136.629L152.23 124.596V148.662L173.288 160.695L194.346 148.662V124.596L173.288 136.629Z" fill="#42E8E0"/>
<path d="M173.288 160.695L152.23 148.662V124.596L173.288 136.629V160.695Z" fill="#42E8E0"/>
<path d="M194.347 148.662L173.289 160.695V136.629L194.347 124.596V148.662Z" fill="#2FD3C7"/>
<path d="M173.288 136.63L152.23 124.596L173.288 112.563L194.345 124.597L173.288 136.63Z" fill="#42E8E0"/>
<path d="M173.288 136.629L153.144 125.118L152.23 125.64L173.288 137.673L194.345 125.64L194.346 124.596L173.288 136.629Z" fill="white"/>
<path d="M91.2296 122.227L70.1719 110.193V134.259L91.2296 146.292L112.287 134.259V110.193L91.2296 122.227Z" fill="#42E8E0"/>
<path d="M91.2296 146.292L70.1719 134.259V110.193L91.2296 122.227V146.292Z" fill="#42E8E0"/>
<path d="M112.288 134.259L91.2305 146.292V122.227L112.288 110.193V134.259Z" fill="#2FD3C7"/>
<path d="M91.2296 122.227L70.1719 110.194L91.2291 98.1606L112.287 110.194L91.2296 122.227Z" fill="#42E8E0"/>
<path d="M91.2296 122.227L71.0851 110.715L70.1719 111.237L91.2296 123.271L112.287 111.238L111.374 110.716L91.2296 122.227Z" fill="white"/>
<path d="M118.581 137.674L97.5234 125.641V149.706L118.581 161.74L139.639 149.706V125.641L118.581 137.674Z" fill="#42E8E0"/>
<path d="M118.581 161.74L97.5234 149.706V125.641L118.581 137.674V161.74Z" fill="#42E8E0"/>
<path d="M139.64 149.706L118.582 161.74V137.674L139.64 125.641V149.706Z" fill="#2FD3C7"/>
<path d="M118.581 137.674L97.5234 125.641L118.581 113.608L139.638 125.641L118.581 137.674Z" fill="#42E8E0"/>
<path d="M118.581 137.674L97.5234 125.641L97.5235 126.684L118.581 138.718L139.638 126.685L138.725 126.163L118.581 137.674Z" fill="white"/>
<path d="M145.935 153.121L124.877 141.087V165.153L145.935 177.186L166.992 165.153V141.087L145.935 153.121Z" fill="#42E8E0"/>
<path d="M145.935 177.186L124.877 165.153V141.087L145.935 153.121V177.186Z" fill="#42E8E0"/>
<path d="M166.993 165.153L145.936 177.186V153.121L166.993 141.087V165.153Z" fill="#2FD3C7"/>
<path d="M145.935 153.121L124.877 141.088L145.934 129.055L166.992 141.088L145.935 153.121Z" fill="#42E8E0"/>
<path d="M145.935 153.121L124.877 141.087V142.131L145.935 154.165L166.992 142.132L166.992 141.088L145.935 153.121Z" fill="white"/>
<path opacity="0.7" d="M200.693 116.55L186.328 108.341L200.692 100.133L215.057 108.341L200.693 116.55Z" fill="#18B2A3"/>
<path opacity="0.7" d="M91.23 118.449L76.8652 110.24L91.2296 102.032L105.594 110.24L91.23 118.449Z" fill="#18B2A3"/>
<path d="M145.935 57.3073L124.877 45.2739V69.3397L145.935 81.3728L166.992 69.3397V45.2739L145.935 57.3073Z" fill="#42E8E0"/>
<path d="M145.935 81.3729L124.877 69.3397V45.2739L145.935 57.3071V81.3729Z" fill="#42E8E0"/>
<path d="M166.993 69.3397L145.936 81.3729V57.3071L166.993 45.2739V69.3397Z" fill="#2FD3C7"/>
<path d="M145.935 57.3073L124.877 45.2741L145.934 33.2412L166.992 45.2744L145.935 57.3073Z" fill="#42E8E0"/>
<path d="M145.935 57.3073L124.877 45.2739V46.3176L145.935 58.351L166.992 46.3181L166.992 45.2739L145.935 57.3073Z" fill="white"/>
<path d="M173.288 72.754L152.23 60.7207V84.7865L173.288 96.8196L194.346 84.7865V60.7207L173.288 72.754Z" fill="#42E8E0"/>
<path d="M173.288 96.8197L152.23 84.7865V60.7207L173.288 72.7539V96.8197Z" fill="#42E8E0"/>
<path d="M194.347 84.7865L173.289 96.8197V72.7539L194.347 60.7207V84.7865Z" fill="#2FD3C7"/>
<path d="M173.288 72.7541L152.23 60.7209L173.288 48.688L194.345 60.7212L173.288 72.7541Z" fill="#42E8E0"/>
<path d="M173.288 72.7542L152.23 60.7207V61.7646L173.288 73.798L194.345 61.765L194.346 60.7209L173.288 72.7542Z" fill="white"/>
<path d="M200.64 88.2013L179.582 76.168V100.234L200.64 112.267L221.698 100.234V76.168L200.64 88.2013Z" fill="#42E8E0"/>
<path d="M200.64 112.267L179.582 100.234V76.168L200.64 88.2012V112.267Z" fill="#42E8E0"/>
<path d="M221.698 100.234L200.641 112.267V88.2012L221.698 76.168V100.234Z" fill="#2FD3C7"/>
<path d="M200.64 88.2013L179.582 76.1681L200.639 64.1353L221.697 76.1685L200.64 88.2013Z" fill="#42E8E0"/>
<path d="M200.64 88.2015L179.582 76.168V77.2119L200.64 89.2452L221.697 77.2123L221.698 76.1681L200.64 88.2015Z" fill="white"/>
<path d="M118.581 73.7985L97.5234 61.7651V85.8309L118.581 97.864L139.639 85.8309V61.7651L118.581 73.7985Z" fill="#42E8E0"/>
<path d="M118.581 97.8642L97.5234 85.8309V61.7651L118.581 73.7984V97.8642Z" fill="#42E8E0"/>
<path d="M139.64 85.8309L118.582 97.8642V73.7984L139.64 61.7651V85.8309Z" fill="#2FD3C7"/>
<path d="M118.581 73.7986L97.5234 61.7653L118.581 49.7324L139.638 61.7657L118.581 73.7986Z" fill="#42E8E0"/>
<path d="M118.581 73.7985L97.5234 61.7651V62.8088L118.581 74.8422L139.638 62.8093L139.639 61.7651L118.581 73.7985Z" fill="white"/>
<path d="M91.2296 90.2892L70.1719 78.2559V102.322L91.2296 114.355L112.287 102.322V78.2559L91.2296 90.2892Z" fill="#42E8E0"/>
<path d="M91.2296 114.355L70.1719 102.322V78.2559L91.2296 90.2891V114.355Z" fill="#42E8E0"/>
<path d="M112.288 102.322L91.2305 114.355V90.2891L112.288 78.2559V102.322Z" fill="#2FD3C7"/>
<path d="M91.2296 90.2892L70.1719 78.256L91.2291 66.2231L112.287 78.2564L91.2296 90.2892Z" fill="#42E8E0"/>
<path d="M91.2296 90.2892L70.1719 78.2559V79.2996L91.2296 91.333L112.287 79.3L112.287 78.2559L91.2296 90.2892Z" fill="white"/>
<path d="M98.2323 58.2422C94.6722 55.9287 89.1687 49.0847 91.0369 46.2683C92.9053 43.4518 101.438 45.7294 104.998 48.0429C108.558 50.3564 109.93 54.5151 108.061 57.3315C106.193 60.148 101.792 60.5557 98.2323 58.2422Z" fill="url(#paint0_radial_602_535)"/>
<path d="M98.2323 58.2422C94.6722 55.9287 89.1687 49.0847 91.0369 46.2683C92.9053 43.4518 101.438 45.7294 104.998 48.0429C108.558 50.3564 109.93 54.5151 108.061 57.3315C106.193 60.148 101.792 60.5557 98.2323 58.2422Z" fill="url(#paint1_linear_602_535)"/>
<path d="M121.963 64.7213C121.759 64.7213 121.551 64.6834 121.349 64.6044L106.661 58.8419C105.805 58.5058 105.386 57.5466 105.725 56.6986C106.065 55.8523 107.032 55.4371 107.891 55.7725L122.579 61.5349C123.435 61.871 123.854 62.8303 123.515 63.6782C123.255 64.3255 122.628 64.7213 121.963 64.7213Z" fill="#2FD3C7"/>
<path d="M182.609 102.746C181.949 102.746 181.325 102.356 181.063 101.714L171.89 79.2822C171.544 78.4375 171.956 77.475 172.81 77.1332C173.665 76.7899 174.637 77.1994 174.982 78.0441L184.154 100.476C184.5 101.32 184.088 102.283 183.234 102.625C183.029 102.707 182.817 102.746 182.609 102.746Z" fill="#2FD3C7"/>
<path d="M125.888 73.5247C130.803 73.5247 134.787 69.5812 134.787 64.7165C134.787 59.8518 130.803 55.9082 125.888 55.9082C120.973 55.9082 116.988 59.8518 116.988 64.7165C116.988 69.5812 120.973 73.5247 125.888 73.5247Z" fill="url(#paint2_radial_602_535)"/>
<path d="M130.668 57.2869C134.813 59.9005 136.033 65.3453 133.393 69.4482C130.752 73.5513 125.251 74.7588 121.106 72.1452C116.96 69.5317 115.74 64.0869 118.381 59.9839C121.021 55.881 126.522 54.6735 130.668 57.2869Z" fill="url(#paint3_linear_602_535)"/>
<path d="M170.267 80.7113C170.267 97.8096 159.98 111.67 147.29 111.67C134.6 111.67 124.312 97.8096 124.312 80.7113C124.312 63.613 134.6 58.4893 147.29 58.4893C159.98 58.4893 170.267 63.613 170.267 80.7113Z" fill="url(#paint4_radial_602_535)"/>
<path d="M170.267 80.7113C170.267 97.8096 159.98 111.67 147.29 111.67C134.6 111.67 124.312 97.8096 124.312 80.7113C124.312 63.613 134.6 58.4893 147.29 58.4893C159.98 58.4893 170.267 63.613 170.267 80.7113Z" fill="url(#paint5_linear_602_535)"/>
<path d="M158.378 74.0184C152.254 77.5179 142.325 77.5179 136.201 74.0183C130.076 70.5187 130.076 64.8448 136.2 61.3453C142.324 57.8458 152.253 57.8459 158.378 61.3455C164.502 64.8451 164.502 70.519 158.378 74.0184Z" fill="#393091"/>
<path d="M136.201 63.7324C142.325 60.2329 152.255 60.233 158.379 63.7326C160.908 65.178 162.39 66.9947 162.83 68.8756C163.455 66.2027 161.973 63.3996 158.379 61.3455C152.255 57.8459 142.325 57.8458 136.201 61.3453C132.607 63.3993 131.125 66.2023 131.75 68.8751C132.19 66.9943 133.672 65.1777 136.201 63.7324Z" fill="#42E8E0"/>
<path d="M140.449 34.5729C140.449 38.7476 137.488 43.8241 133.835 45.9115C130.182 47.9989 127.221 46.3069 127.221 42.1322C127.221 37.9574 130.182 32.881 133.835 30.7935C137.488 28.7061 140.449 30.3982 140.449 34.5729Z" fill="#BCBEFF"/>
<path d="M148.202 69.4878C161.145 69.4878 171.637 59.1031 171.637 46.293C171.637 33.4828 161.145 23.0981 148.202 23.0981C135.26 23.0981 124.768 33.4828 124.768 46.293C124.768 59.1031 135.26 69.4878 148.202 69.4878Z" fill="url(#paint6_radial_602_535)"/>
<path d="M148.202 69.4878C161.145 69.4878 171.637 59.1031 171.637 46.293C171.637 33.4828 161.145 23.0981 148.202 23.0981C135.26 23.0981 124.768 33.4828 124.768 46.293C124.768 59.1031 135.26 69.4878 148.202 69.4878Z" fill="url(#paint7_linear_602_535)"/>
<path d="M140.889 57.279C140.291 61.8404 136.813 63.2731 133.121 60.4792C129.429 57.6853 126.921 51.7228 127.52 47.1615C128.119 42.6001 131.597 41.1673 135.289 43.9612C138.981 46.7551 141.488 52.7177 140.889 57.279Z" fill="#393091"/>
<path d="M137.84 53.3296C137.623 54.9873 136.359 55.508 135.017 54.4926C133.675 53.4772 132.764 51.3103 132.981 49.6526C133.199 47.9949 134.463 47.4741 135.805 48.4895C137.146 49.5049 138.058 51.6718 137.84 53.3296Z" fill="#42E8E0"/>
<path d="M134.893 59.8144C131.201 57.0205 128.694 51.058 129.293 46.4966C129.537 44.6371 130.26 43.2979 131.28 42.5527C129.35 42.7323 127.889 44.3526 127.52 47.1615C126.921 51.7228 129.429 57.6854 133.121 60.4793C135.308 62.1342 137.419 62.3057 138.902 61.223C137.698 61.3351 136.312 60.8878 134.893 59.8144Z" fill="#453C9E"/>
<path d="M133.439 60.3306C129.747 57.5368 127.239 51.5742 127.838 47.0128C128.115 44.9012 129.01 43.4618 130.257 42.8008C128.845 43.3758 127.82 44.8743 127.52 47.1614C126.921 51.7227 129.429 57.6852 133.121 60.4792C135.103 61.9791 137.021 62.2567 138.468 61.49C137.064 62.0616 135.279 61.7232 133.439 60.3306Z" fill="#42E8E0"/>
<path d="M173.435 87.4715C178.35 87.4715 182.334 83.5279 182.334 78.6633C182.334 73.7986 178.35 69.855 173.435 69.855C168.52 69.855 164.535 73.7986 164.535 78.6633C164.535 83.5279 168.52 87.4715 173.435 87.4715Z" fill="url(#paint8_radial_602_535)"/>
<path d="M173.435 87.4715C178.35 87.4715 182.334 83.5279 182.334 78.6633C182.334 73.7986 178.35 69.855 173.435 69.855C168.52 69.855 164.535 73.7986 164.535 78.6633C164.535 83.5279 168.52 87.4715 173.435 87.4715Z" fill="url(#paint9_linear_602_535)"/>
<path d="M187.627 107.847C187.123 112.033 183.388 119.96 180.008 119.561C176.627 119.162 174.882 110.587 175.387 106.401C175.891 102.216 179.04 99.1465 182.42 99.5457C185.801 99.9449 188.132 103.662 187.627 107.847Z" fill="url(#paint10_radial_602_535)"/>
<path d="M187.627 107.847C187.123 112.033 183.388 119.96 180.008 119.561C176.627 119.162 174.882 110.587 175.387 106.401C175.891 102.216 179.04 99.1465 182.42 99.5457C185.801 99.9449 188.132 103.662 187.627 107.847Z" fill="url(#paint11_linear_602_535)"/>
<path d="M91.2296 33.2414L70.1719 21.208V45.2738L91.2296 57.3069L112.287 45.2738V21.208L91.2296 33.2414Z" fill="#42E8E0"/>
<path d="M91.2296 57.3071L70.1719 45.2738V21.208L91.2296 33.2413V57.3071Z" fill="#42E8E0"/>
<path d="M112.286 45.2738L91.2285 57.3071V33.2413L112.286 21.208V45.2738Z" fill="#2FD3C7"/>
<path d="M91.2296 33.2414L70.1719 21.2081L91.2291 9.17529L112.287 21.2085L91.2296 33.2414Z" fill="#42E8E0"/>
<path d="M91.2296 41.7419C91.1759 41.7419 91.1214 41.7282 91.0733 41.7007L89.6294 40.8754C89.4795 40.7892 89.4282 40.6005 89.5146 40.4523C89.6025 40.3031 89.7955 40.2563 89.9421 40.3386L91.2296 41.0753L92.5181 40.3386C92.6662 40.2563 92.8585 40.3047 92.9456 40.4523C93.0319 40.6005 92.9806 40.7899 92.8308 40.8754L91.386 41.7007C91.338 41.7282 91.2834 41.7419 91.2296 41.7419Z" fill="white"/>
<path d="M86.8288 39.2284C86.7751 39.2284 86.7213 39.2147 86.6725 39.1873L83.7179 37.4986C83.5681 37.4124 83.5168 37.2238 83.6031 37.0754C83.6911 36.9264 83.884 36.8788 84.0307 36.9618L86.9852 38.6505C87.1351 38.7367 87.1864 38.9253 87.1 39.0736C87.0414 39.1728 86.9364 39.2284 86.8288 39.2284ZM80.9188 35.851C80.8651 35.851 80.8113 35.8373 80.7625 35.8099L77.8079 34.1213C77.6581 34.035 77.6067 33.8464 77.6931 33.6981C77.781 33.549 77.974 33.5022 78.1206 33.5844L81.0752 35.2731C81.225 35.3593 81.2763 35.548 81.19 35.6963C81.1314 35.7955 81.0263 35.851 80.9188 35.851ZM75.0096 32.4745C74.9558 32.4745 74.9021 32.4608 74.8533 32.4334L71.8978 30.7447C71.748 30.6593 71.6967 30.4699 71.783 30.3215C71.8709 30.1725 72.064 30.1248 72.2105 30.2079L75.166 31.8966C75.3158 31.982 75.3671 32.1714 75.2808 32.3197C75.2222 32.4189 75.1171 32.4745 75.0096 32.4745ZM69.0996 29.0971C69.0458 29.0971 68.9921 29.0834 68.9432 29.056L65.9886 27.3674C65.8388 27.2811 65.7875 27.0925 65.8738 26.9442C65.9609 26.7951 66.154 26.7483 66.3013 26.8305L69.256 28.5192C69.4058 28.6055 69.4571 28.7941 69.3708 28.9424C69.3122 29.0415 69.2071 29.0971 69.0996 29.0971ZM63.1903 25.7198C63.1366 25.7198 63.0829 25.7061 63.034 25.6787L60.0786 23.99C59.9287 23.9046 59.8775 23.7151 59.9638 23.5668C60.0509 23.4178 60.2439 23.3701 60.3913 23.4532L63.3467 25.1418C63.4966 25.2273 63.5479 25.4167 63.4616 25.565C63.4029 25.6642 63.2978 25.7198 63.1903 25.7198Z" fill="white"/>
<path d="M57.2809 22.3423C57.2272 22.3423 57.1734 22.3286 57.1245 22.3012L55.6798 21.4758C55.5829 21.4202 55.5234 21.3178 55.5234 21.2074C55.5234 21.097 55.5829 20.9946 55.6798 20.939L57.1245 20.1136C57.2735 20.0314 57.4649 20.0797 57.5521 20.2272C57.6384 20.3756 57.5871 20.565 57.4372 20.6504L56.4616 21.2074L57.4372 21.7644C57.5871 21.8498 57.6384 22.0392 57.5521 22.1876C57.4934 22.2867 57.3884 22.3423 57.2809 22.3423Z" fill="white"/>
<path d="M60.235 19.003C60.1275 19.003 60.0224 18.9474 59.9638 18.8482C59.8775 18.6999 59.9287 18.5113 60.0786 18.425L63.0332 16.7364C63.179 16.6533 63.372 16.7009 63.4608 16.85C63.5471 16.9983 63.4958 17.1869 63.346 17.2732L60.3913 18.9619C60.3425 18.9893 60.2888 19.003 60.235 19.003ZM66.1442 15.6264C66.0367 15.6264 65.9317 15.5708 65.8729 15.4717C65.7866 15.3234 65.8379 15.1339 65.9878 15.0485L68.9432 13.3598C69.089 13.2768 69.282 13.3243 69.3708 13.4735C69.4571 13.6218 69.4058 13.8112 69.256 13.8967L66.3005 15.5853C66.2516 15.6127 66.1979 15.6264 66.1442 15.6264ZM72.0542 12.2491C71.9467 12.2491 71.8417 12.1935 71.783 12.0943C71.6967 11.946 71.748 11.7574 71.8978 11.6711L74.8524 9.98247C74.9982 9.89943 75.1913 9.94697 75.28 10.0961C75.3663 10.2444 75.315 10.4331 75.1652 10.5193L72.2105 12.208C72.1617 12.2354 72.108 12.2491 72.0542 12.2491ZM77.9634 8.87255C77.8559 8.87255 77.7509 8.81693 77.6922 8.71779C77.6059 8.56947 77.6572 8.38004 77.8071 8.29461L80.7625 6.60593C80.9082 6.5229 81.1013 6.57044 81.19 6.71959C81.2763 6.86791 81.225 7.05734 81.0752 7.14277L78.1198 8.83145C78.0709 8.85886 78.0171 8.87255 77.9634 8.87255ZM83.8734 5.4952C83.7659 5.4952 83.6609 5.43957 83.6023 5.34043C83.5159 5.19211 83.5672 5.00351 83.7171 4.91725L86.6717 3.22858C86.8183 3.14554 87.0113 3.19308 87.0993 3.34223C87.1856 3.49055 87.1343 3.67916 86.9844 3.76541L84.0298 5.45409C83.9809 5.4815 83.9272 5.4952 83.8734 5.4952Z" fill="white"/>
<path d="M92.6733 2.11876C92.6195 2.11876 92.5658 2.10506 92.5169 2.07766L91.2286 1.34091L89.9401 2.07766C89.7936 2.16069 89.6006 2.11232 89.5126 1.964C89.4263 1.81567 89.4776 1.62625 89.6274 1.54082L91.0722 0.71542C91.1683 0.660615 91.2888 0.660615 91.3849 0.71542L92.8296 1.54082C92.9795 1.62625 93.0308 1.81567 92.9445 1.964C92.8859 2.06313 92.7808 2.11876 92.6733 2.11876Z" fill="white"/>
<path d="M122.221 19.0044C122.168 19.0044 122.114 18.9907 122.065 18.9633L119.11 17.2746C118.96 17.1892 118.908 16.9998 118.995 16.8514C119.082 16.7023 119.275 16.6548 119.422 16.7378L122.378 18.4265C122.528 18.5119 122.579 18.7013 122.493 18.8497C122.434 18.9488 122.329 19.0044 122.221 19.0044ZM116.311 15.6271C116.258 15.6271 116.204 15.6134 116.155 15.5859L113.2 13.8973C113.051 13.811 112.999 13.6224 113.086 13.4741C113.174 13.3249 113.367 13.2774 113.513 13.3604L116.468 15.0491C116.618 15.1354 116.669 15.324 116.583 15.4723C116.524 15.5714 116.419 15.6271 116.311 15.6271ZM110.402 12.2497C110.348 12.2497 110.295 12.236 110.246 12.2086L107.29 10.5199C107.141 10.4345 107.089 10.2451 107.176 10.0967C107.264 9.94758 107.457 9.90087 107.603 9.98307L110.559 11.6718C110.708 11.7572 110.76 11.9466 110.673 12.0949C110.615 12.1941 110.51 12.2497 110.402 12.2497ZM104.492 8.87316C104.438 8.87316 104.385 8.85946 104.336 8.83206L101.381 7.14338C101.231 7.05713 101.18 6.86852 101.266 6.7202C101.354 6.57105 101.547 6.52351 101.694 6.60654L104.649 8.29522C104.798 8.38148 104.85 8.57008 104.763 8.7184C104.705 8.81753 104.6 8.87316 104.492 8.87316ZM98.5821 5.4958C98.5284 5.4958 98.4746 5.48211 98.4258 5.4547L95.4712 3.76602C95.3214 3.67977 95.27 3.49116 95.3564 3.34284C95.4435 3.19369 95.6365 3.14697 95.7839 3.22918L98.7385 4.91786C98.8884 5.00412 98.9397 5.19272 98.8533 5.34104C98.7947 5.44017 98.6896 5.4958 98.5821 5.4958Z" fill="white"/>
<path d="M125.174 22.343C125.067 22.343 124.962 22.2874 124.903 22.1883C124.817 22.04 124.868 21.8505 125.018 21.7651L125.994 21.2081L125.018 20.6512C124.868 20.5657 124.817 20.3763 124.903 20.228C124.99 20.0788 125.183 20.0313 125.331 20.1143L126.775 20.9397C126.872 20.9953 126.932 21.0977 126.932 21.2081C126.932 21.3186 126.872 21.4209 126.775 21.4766L125.331 22.3019C125.282 22.3294 125.227 22.343 125.174 22.343Z" fill="white"/>
<path d="M95.6275 39.2286C95.52 39.2286 95.415 39.1729 95.3564 39.0738C95.27 38.9255 95.3213 38.7369 95.4712 38.6506L98.4258 36.9619C98.5724 36.879 98.7654 36.9265 98.8534 37.0756C98.9397 37.2239 98.8884 37.4125 98.7385 37.4988L95.7839 39.1875C95.735 39.2149 95.6813 39.2286 95.6275 39.2286ZM101.537 35.8512C101.429 35.8512 101.324 35.7957 101.266 35.6964C101.179 35.5481 101.231 35.3588 101.38 35.2733L104.336 33.5846C104.484 33.5016 104.676 33.5507 104.763 33.6982C104.85 33.8466 104.798 34.036 104.649 34.1214L101.693 35.8101C101.644 35.8375 101.59 35.8512 101.537 35.8512ZM107.447 32.4747C107.339 32.4747 107.234 32.419 107.176 32.3199C107.089 32.1716 107.141 31.983 107.29 31.8967L110.245 30.2081C110.391 30.125 110.584 30.1726 110.673 30.3217C110.759 30.47 110.708 30.6586 110.558 30.7449L107.603 32.4336C107.554 32.461 107.501 32.4747 107.447 32.4747ZM113.356 29.0973C113.248 29.0973 113.143 29.0417 113.085 28.9426C112.999 28.7942 113.05 28.6048 113.2 28.5194L116.155 26.8307C116.303 26.7485 116.495 26.7969 116.583 26.9444C116.669 27.0927 116.618 27.2821 116.468 27.3675L113.512 29.0562C113.463 29.0836 113.41 29.0973 113.356 29.0973ZM119.266 25.7208C119.159 25.7208 119.053 25.6652 118.995 25.566C118.909 25.4177 118.96 25.2291 119.11 25.1428L122.064 23.4542C122.21 23.3711 122.403 23.4187 122.492 23.5678C122.578 23.7161 122.527 23.9047 122.377 23.991L119.422 25.6797C119.374 25.7071 119.32 25.7208 119.266 25.7208Z" fill="white"/>
<path d="M91.2296 33.2414L70.1719 21.208V22.2517L91.2296 34.2851L112.287 22.2521L112.287 21.208L91.2296 33.2414Z" fill="white"/>
<path d="M55.8362 114.304C55.6635 114.304 55.5234 114.165 55.5234 113.994V113.49C55.5234 113.319 55.6635 113.181 55.8362 113.181C56.0088 113.181 56.1489 113.319 56.1489 113.49V113.994C56.1489 114.165 56.0088 114.304 55.8362 114.304ZM55.8362 110.498C55.6635 110.498 55.5234 110.36 55.5234 110.189V106.887C55.5234 106.716 55.6635 106.577 55.8362 106.577C56.0088 106.577 56.1489 106.716 56.1489 106.887V110.189C56.1489 110.36 56.0088 110.498 55.8362 110.498ZM55.8362 103.895C55.6635 103.895 55.5234 103.756 55.5234 103.585V100.284C55.5234 100.113 55.6635 99.9743 55.8362 99.9743C56.0088 99.9743 56.1489 100.113 56.1489 100.284V103.585C56.1489 103.756 56.0088 103.895 55.8362 103.895ZM55.8362 97.2917C55.6635 97.2917 55.5234 97.1532 55.5234 96.9822V93.6806C55.5234 93.5098 55.6635 93.3711 55.8362 93.3711C56.0088 93.3711 56.1489 93.5098 56.1489 93.6806V96.9822C56.1489 97.1532 56.0088 97.2917 55.8362 97.2917ZM55.8362 90.6886C55.6635 90.6886 55.5234 90.55 55.5234 90.3791V87.0775C55.5234 86.9066 55.6635 86.7679 55.8362 86.7679C56.0088 86.7679 56.1489 86.9066 56.1489 87.0775V90.3791C56.1489 90.55 56.0088 90.6886 55.8362 90.6886ZM55.8362 84.0854C55.6635 84.0854 55.5234 83.9468 55.5234 83.7759V80.4743C55.5234 80.3034 55.6635 80.1648 55.8362 80.1648C56.0088 80.1648 56.1489 80.3034 56.1489 80.4743V83.7759C56.1489 83.9468 56.0088 84.0854 55.8362 84.0854ZM55.8362 77.4822C55.6635 77.4822 55.5234 77.3436 55.5234 77.1727V73.8711C55.5234 73.7003 55.6635 73.5616 55.8362 73.5616C56.0088 73.5616 56.1489 73.7003 56.1489 73.8711V77.1727C56.1489 77.3436 56.0088 77.4822 55.8362 77.4822ZM55.8362 70.8791C55.6635 70.8791 55.5234 70.7405 55.5234 70.5695V67.2679C55.5234 67.0971 55.6635 66.9584 55.8362 66.9584C56.0088 66.9584 56.1489 67.0971 56.1489 67.2679V70.5695C56.1489 70.7405 56.0088 70.8791 55.8362 70.8791ZM55.8362 64.2759C55.6635 64.2759 55.5234 64.1373 55.5234 63.9664V60.6648C55.5234 60.4939 55.6635 60.3552 55.8362 60.3552C56.0088 60.3552 56.1489 60.4939 56.1489 60.6648V63.9664C56.1489 64.1373 56.0088 64.2759 55.8362 64.2759ZM55.8362 57.6727C55.6635 57.6727 55.5234 57.5341 55.5234 57.3632V54.0616C55.5234 53.8907 55.6635 53.7521 55.8362 53.7521C56.0088 53.7521 56.1489 53.8907 56.1489 54.0616V57.3632C56.1489 57.5341 56.0088 57.6727 55.8362 57.6727ZM55.8362 51.0695C55.6635 51.0695 55.5234 50.9309 55.5234 50.76V47.4584C55.5234 47.2876 55.6635 47.1489 55.8362 47.1489C56.0088 47.1489 56.1489 47.2876 56.1489 47.4584V50.76C56.1489 50.9309 56.0088 51.0695 55.8362 51.0695ZM55.8362 44.4664C55.6635 44.4664 55.5234 44.3278 55.5234 44.1568V41.8266C55.5234 41.7146 55.5845 41.6114 55.6839 41.5565L56.5398 41.0826C56.688 41.0003 56.8802 41.0511 56.9649 41.2019C57.0496 41.351 56.9958 41.5396 56.8444 41.6226L56.1489 42.0079V44.1568C56.1489 44.3278 56.0088 44.4664 55.8362 44.4664ZM59.6035 40.0492C59.4944 40.0492 59.3877 39.992 59.3307 39.8913C59.246 39.7413 59.2997 39.5527 59.4504 39.4696L62.361 37.8576C62.5117 37.7745 62.7031 37.8269 62.787 37.9761C62.8717 38.126 62.818 38.3146 62.6672 38.3976L59.7566 40.0097C59.7078 40.0363 59.6557 40.0492 59.6035 40.0492ZM65.4248 36.8242C65.3157 36.8242 65.209 36.767 65.152 36.6662C65.0672 36.5163 65.121 36.3277 65.2717 36.2447L68.1823 34.6326C68.333 34.5504 68.5236 34.6019 68.6082 34.751C68.6929 34.901 68.6391 35.0896 68.4885 35.1726L65.5778 36.7847C65.5291 36.8113 65.4769 36.8242 65.4248 36.8242ZM71.2469 33.5992C71.1377 33.5992 71.031 33.542 70.9741 33.4412C70.8893 33.2913 70.943 33.1027 71.0938 33.0197L74.0043 31.4075C74.1542 31.3245 74.3456 31.3769 74.4303 31.526C74.515 31.6759 74.4613 31.8646 74.3106 31.9476L71.4 33.5597C71.3511 33.5863 71.299 33.5992 71.2469 33.5992Z" fill="white"/>
<defs>
<radialGradient id="paint0_radial_602_535" cx="0" cy="0" r="1" gradientUnits="userSpaceOnUse" gradientTransform="translate(112.716 62.9539) rotate(123.559) scale(15.6706 25.9204)">
<stop stop-color="#C0BFF6"/>
<stop offset="1" stop-color="#393091"/>
</radialGradient>
<linearGradient id="paint1_linear_602_535" x1="103.898" y1="59.3721" x2="100.659" y2="45.8288" gradientUnits="userSpaceOnUse">
<stop stop-color="#42E8E0"/>
<stop offset="0.0046746" stop-color="#42E6DF"/>
<stop offset="0.135768" stop-color="#40B6CB"/>
<stop offset="0.270665" stop-color="#3E8DB9"/>
<stop offset="0.407448" stop-color="#3C6BAA"/>
<stop offset="0.546675" stop-color="#3B519F"/>
<stop offset="0.68935" stop-color="#3A3F97"/>
<stop offset="0.8375" stop-color="#393493"/>
<stop offset="1" stop-color="#393091"/>
</linearGradient>
<radialGradient id="paint2_radial_602_535" cx="0" cy="0" r="1" gradientUnits="userSpaceOnUse" gradientTransform="translate(168.453 36.5751) rotate(11.0858) scale(51.3519 50.8652)">
<stop stop-color="#C0BFF6"/>
<stop offset="1" stop-color="#393091"/>
</radialGradient>
<linearGradient id="paint3_linear_602_535" x1="121.106" y1="72.1453" x2="130.528" y2="57.199" gradientUnits="userSpaceOnUse">
<stop stop-color="#42E8E0"/>
<stop offset="0.0046746" stop-color="#42E6DF"/>
<stop offset="0.135768" stop-color="#40B6CB"/>
<stop offset="0.270665" stop-color="#3E8DB9"/>
<stop offset="0.407448" stop-color="#3C6BAA"/>
<stop offset="0.546675" stop-color="#3B519F"/>
<stop offset="0.68935" stop-color="#3A3F97"/>
<stop offset="0.8375" stop-color="#393493"/>
<stop offset="1" stop-color="#393091"/>
</linearGradient>
<radialGradient id="paint4_radial_602_535" cx="0" cy="0" r="1" gradientUnits="userSpaceOnUse" gradientTransform="translate(160.847 76.0719) scale(39.488 53.2033)">
<stop stop-color="#C0BFF6"/>
<stop offset="1" stop-color="#393091"/>
</radialGradient>
<linearGradient id="paint5_linear_602_535" x1="147.29" y1="111.67" x2="147.29" y2="58.4893" gradientUnits="userSpaceOnUse">
<stop stop-color="#42E8E0"/>
<stop offset="0.0046746" stop-color="#42E6DF"/>
<stop offset="0.135768" stop-color="#40B6CB"/>
<stop offset="0.270665" stop-color="#3E8DB9"/>
<stop offset="0.407448" stop-color="#3C6BAA"/>
<stop offset="0.546675" stop-color="#3B519F"/>
<stop offset="0.68935" stop-color="#3A3F97"/>
<stop offset="0.8375" stop-color="#393493"/>
<stop offset="1" stop-color="#393091"/>
</linearGradient>
<radialGradient id="paint6_radial_602_535" cx="0" cy="0" r="1" gradientUnits="userSpaceOnUse" gradientTransform="translate(162.827 42.8567) scale(39.6091 39.2036)">
<stop stop-color="#C0BFF6"/>
<stop offset="1" stop-color="#393091"/>
</radialGradient>
<linearGradient id="paint7_linear_602_535" x1="144.94" y1="69.2649" x2="151.334" y2="23.3029" gradientUnits="userSpaceOnUse">
<stop stop-color="#42E8E0"/>
<stop offset="0.0046746" stop-color="#42E6DF"/>
<stop offset="0.135768" stop-color="#40B6CB"/>
<stop offset="0.270665" stop-color="#3E8DB9"/>
<stop offset="0.407448" stop-color="#3C6BAA"/>
<stop offset="0.546675" stop-color="#3B519F"/>
<stop offset="0.68935" stop-color="#3A3F97"/>
<stop offset="0.8375" stop-color="#393493"/>
<stop offset="1" stop-color="#393091"/>
</linearGradient>
<radialGradient id="paint8_radial_602_535" cx="0" cy="0" r="1" gradientUnits="userSpaceOnUse" gradientTransform="translate(178.708 72.9146) rotate(11.0858) scale(18.5597 18.3838)">
<stop stop-color="#C0BFF6"/>
<stop offset="1" stop-color="#393091"/>
</radialGradient>
<linearGradient id="paint9_linear_602_535" x1="166.235" y1="83.8409" x2="180.531" y2="73.3457" gradientUnits="userSpaceOnUse">
<stop stop-color="#42E8E0"/>
<stop offset="0.0046746" stop-color="#42E6DF"/>
<stop offset="0.135768" stop-color="#40B6CB"/>
<stop offset="0.270665" stop-color="#3E8DB9"/>
<stop offset="0.407448" stop-color="#3C6BAA"/>
<stop offset="0.546675" stop-color="#3B519F"/>
<stop offset="0.68935" stop-color="#3A3F97"/>
<stop offset="0.8375" stop-color="#393493"/>
<stop offset="1" stop-color="#393091"/>
</linearGradient>
<radialGradient id="paint10_radial_602_535" cx="0" cy="0" r="1" gradientUnits="userSpaceOnUse" gradientTransform="translate(189.939 100.853) rotate(6.73539) scale(15.7811 25.739)">
<stop stop-color="#C0BFF6"/>
<stop offset="1" stop-color="#393091"/>
</radialGradient>
<linearGradient id="paint11_linear_602_535" x1="175.094" y1="108.831" x2="187.331" y2="110.306" gradientUnits="userSpaceOnUse">
<stop stop-color="#42E8E0"/>
<stop offset="0.0046746" stop-color="#42E6DF"/>
<stop offset="0.135768" stop-color="#40B6CB"/>
<stop offset="0.270665" stop-color="#3E8DB9"/>
<stop offset="0.407448" stop-color="#3C6BAA"/>
<stop offset="0.546675" stop-color="#3B519F"/>
<stop offset="0.68935" stop-color="#3A3F97"/>
<stop offset="0.8375" stop-color="#393493"/>
<stop offset="1" stop-color="#393091"/>
</linearGradient>
</defs>
</svg>
