<?xml version="1.0" encoding="utf-8"?>
<!-- Generator: Adobe Illustrator 25.4.1, SVG Export Plug-In . SVG Version: 6.00 Build 0)  -->
<svg version="1.1" id="Слой_1" xmlns="http://www.w3.org/2000/svg" xmlns:xlink="http://www.w3.org/1999/xlink" x="0px" y="0px"
	 viewBox="0 0 772 534" style="enable-background:new 0 0 772 534;" xml:space="preserve">
<style type="text/css">
	.st0{opacity:0.1;fill:#42E8E0;enable-background:new    ;}
	.st1{fill:#42E8E0;}
	.st2{fill:url(#SVGID_1_);}
	.st3{fill:#24126A;}
	.st4{fill:#FFFFFF;}
	.st5{opacity:0.51;fill:#453C9E;enable-background:new    ;}
	.st6{fill:#D9D9D9;filter:url(#Adobe_OpacityMaskFilter);}
	.st7{mask:url(#mask0_467_6707_00000178910450171669498670000008183528086451218066_);}
	.st8{opacity:0.3;}
	.st9{opacity:0.5;fill:url(#SVGID_00000113334012623736994090000004635589072319217311_);enable-background:new    ;}
	.st10{fill:#5351AF;}
	.st11{fill:url(#SVGID_00000098197505881935764080000002440506191657563788_);}
	.st12{opacity:0.3;fill:#0F054C;enable-background:new    ;}
	.st13{opacity:0.5;fill:url(#SVGID_00000068666936245272125500000000189463539850067099_);enable-background:new    ;}
	.st14{fill:url(#SVGID_00000008134639810494853970000018036322845200252598_);}
	.st15{opacity:0.4;fill:#42E8E0;enable-background:new    ;}
	.st16{fill:url(#SVGID_00000090294470670433721270000008588567754881587846_);}
	.st17{opacity:0.5;fill:url(#SVGID_00000120554161489686136340000012228121511568207258_);enable-background:new    ;}
	.st18{fill:url(#SVGID_00000138557859094113293560000015485209213232350107_);}
	.st19{fill:url(#SVGID_00000147219931233412955350000013613830737017821589_);}
	.st20{opacity:0.5;fill:url(#SVGID_00000063611059362893822650000000003977228240442501_);enable-background:new    ;}
	.st21{fill:url(#SVGID_00000057107803544295996890000011111568517145905568_);}
	.st22{fill:url(#SVGID_00000080903107988808971070000001870049578058656394_);}
	.st23{fill:url(#SVGID_00000137094488270147463580000000145696331883074203_);}
	.st24{opacity:0.5;fill:url(#SVGID_00000140736264536341241690000016801580513911059335_);enable-background:new    ;}
	.st25{fill:url(#SVGID_00000119797923491519137240000001933158344823521156_);}
	.st26{fill:url(#SVGID_00000059306193268559158740000008022770419016473776_);}
	.st27{opacity:0.5;fill:url(#SVGID_00000134950367082141615820000014731888683815407015_);enable-background:new    ;}
	.st28{fill:url(#SVGID_00000036237364941227287140000014316841741787739800_);}
	.st29{fill:url(#SVGID_00000110457210269178457240000008246350386878185349_);}
	.st30{opacity:0.5;fill:url(#SVGID_00000116926274397190741510000009260269301904480660_);enable-background:new    ;}
	.st31{fill:url(#SVGID_00000073693011728653709240000013146438104415982475_);}
	.st32{fill:url(#SVGID_00000077325794692957286760000015783484477629050548_);}
	.st33{opacity:0.5;fill:url(#SVGID_00000011744439893117031280000002805183485898591368_);enable-background:new    ;}
	.st34{fill:url(#SVGID_00000091698473017253601740000011116230475141627826_);}
	.st35{fill:url(#SVGID_00000150824306440249537130000003774618108175459994_);}
	.st36{fill:url(#SVGID_00000003103103776863212210000000842877137171968174_);}
	.st37{opacity:0.5;fill:url(#SVGID_00000042733800817833282110000003363926149658138255_);enable-background:new    ;}
	.st38{fill:url(#SVGID_00000137116523980312956070000002608743093768225420_);}
	.st39{opacity:0.5;fill:url(#SVGID_00000072279294247320823380000013529241091189370008_);enable-background:new    ;}
	.st40{opacity:0.8;fill:url(#SVGID_00000168095520342314018690000010379973024361783955_);enable-background:new    ;}
	.st41{opacity:0.8;fill:#42E8E0;enable-background:new    ;}
	.st42{opacity:0.5;fill:url(#SVGID_00000116927239325552007520000008486307939886581890_);enable-background:new    ;}
	.st43{opacity:0.5;fill:#42E8E0;enable-background:new    ;}
</style>
<path class="st0" d="M517.7,241.4l-75.8-43.8l102.5-59.2l75.8,43.8L517.7,241.4z"/>
<path class="st1" d="M297.7,335.9c-20.7,0-41.4-4.5-57.2-13.7c-15.3-8.9-23.8-20.6-23.8-33.2c0-12.5,8.4-24.3,23.8-33.2
	c31.5-18.2,82.8-18.2,114.4,0c15.3,8.9,23.8,20.6,23.8,33.2c0,12.5-8.4,24.3-23.8,33.2C339.1,331.4,318.4,335.9,297.7,335.9z
	 M297.7,242.8c-20.6,0-41.2,4.5-56.9,13.6c-15.1,8.7-23.5,20.4-23.5,32.7c0,12.3,8.3,24,23.5,32.7c31.4,18.1,82.4,18.1,113.8,0
	l0.1,0.2l-0.1-0.2c15.1-8.7,23.5-20.4,23.5-32.7s-8.3-24-23.5-32.7C338.9,247.3,318.3,242.8,297.7,242.8z"/>
<linearGradient id="SVGID_1_" gradientUnits="userSpaceOnUse" x1="239.715" y1="177.1055" x2="645.721" y2="177.1055" gradientTransform="matrix(1 0 0 -1 0 534.972)">
	<stop  offset="0" style="stop-color:#BCBEFF"/>
	<stop  offset="0.151" style="stop-color:#A3A7F5"/>
	<stop  offset="0.3866" style="stop-color:#8289E8"/>
	<stop  offset="0.6124" style="stop-color:#6A73DF"/>
	<stop  offset="0.8221" style="stop-color:#5C66D9"/>
	<stop  offset="1" style="stop-color:#5761D7"/>
</linearGradient>
<path class="st2" d="M645.7,308.5l-18.5,3.2l-114.1-65.9c-5.7-3.3-15.7-2.9-22.3,0.9L272.4,372.8l-32.7,5.6l0,11.6l0,0
	c0,2.1,1.2,4.1,3.8,5.6L372.3,470c5.7,3.3,15.7,2.9,22.3-0.9l245.6-141.8c3.6-2.1,5.4-4.7,5.5-7.2l0,0V308.5z"/>
<path class="st3" d="M372.3,458.3l-128.8-74.3c-5.7-3.3-5-9.1,1.6-12.9l245.6-141.8c6.6-3.8,16.6-4.2,22.3-0.9l128.8,74.3
	c5.7,3.3,5,9.1-1.6,12.9L394.7,457.4C388.1,461.2,378.1,461.6,372.3,458.3z"/>
<path class="st4" d="M640.3,315.6L394.7,457.4c-6.6,3.8-16.6,4.2-22.3,0.9l-128.8-74.3c-2.3-1.3-3.5-3-3.8-4.9
	c-0.4,2.4,0.9,4.7,3.8,6.4l128.8,74.3c5.7,3.3,15.7,2.9,22.3-0.9l245.6-141.8c4-2.3,5.8-5.3,5.4-8
	C645.3,311.4,643.5,313.7,640.3,315.6z"/>
<path class="st5" d="M372.6,455.4l-124.2-71.7c-5.5-3.2-4.8-8.8,1.6-12.5l241-139.1c6.4-3.7,16.1-4.1,21.6-0.9l124.2,71.7
	c5.5,3.2,4.8,8.8-1.6,12.5l-241,139.1C387.8,458.2,378.1,458.6,372.6,455.4z"/>
<defs>
	<filter id="Adobe_OpacityMaskFilter" filterUnits="userSpaceOnUse" x="217.6" y="229" width="423" height="233.6">
		<feColorMatrix  type="matrix" values="1 0 0 0 0  0 1 0 0 0  0 0 1 0 0  0 0 0 1 0"/>
	</filter>
</defs>
<mask maskUnits="userSpaceOnUse" x="217.6" y="229" width="423" height="233.6" id="mask0_467_6707_00000178910450171669498670000008183528086451218066_">
	<path class="st6" d="M365,447.6l-111.2-64l-5.6-3.2l-3.2-3.2v-2.4l0.8-3.2l3.2-3.2l3.2-1.6l127.2-73.6l13.6-24l67.2-12L537,447.6
		v92.8c30.1,8.4-239.4-39.4-261.8-43c-0.8-0.1-1.4-0.1-1.5-0.2c-0.1,0,0.5,0,1.5,0.2c8.1,0.8,46.5,2.3,66.6,3L365,447.6z"/>
</mask>
<g class="st7">
	<g class="st8">
		
			<radialGradient id="SVGID_00000088111245012922358710000017182865160934506150_" cx="-570.3179" cy="806.2921" r="1" gradientTransform="matrix(260.614 0 0 -260.614 149000.2031 210408.6875)" gradientUnits="userSpaceOnUse">
			<stop  offset="0" style="stop-color:#42E8E0"/>
			<stop  offset="0.1055" style="stop-color:#37B6BF"/>
			<stop  offset="0.2197" style="stop-color:#2C87A1"/>
			<stop  offset="0.338" style="stop-color:#235F87"/>
			<stop  offset="0.4587" style="stop-color:#1C3F72"/>
			<stop  offset="0.5824" style="stop-color:#162561"/>
			<stop  offset="0.7105" style="stop-color:#121355"/>
			<stop  offset="0.8458" style="stop-color:#10084E"/>
			<stop  offset="1" style="stop-color:#0F054C"/>
		</radialGradient>
		<path style="opacity:0.5;fill:url(#SVGID_00000088111245012922358710000017182865160934506150_);enable-background:new    ;" d="
			M372.6,455.4l-124.2-71.7c-5.5-3.2-4.8-8.8,1.6-12.5l241-139.1c6.4-3.7,16.1-4.1,21.6-0.9l124.2,71.7c5.5,3.2,4.8,8.8-1.6,12.5
			l-241,139.1C387.8,458.2,378.1,458.6,372.6,455.4z"/>
		<path class="st10" d="M265.7,399.7c17.7-10.2,46.3-10.2,64,0c2.9,1.7,5.3,3.5,7.2,5.4c10-10,7.6-23-7.2-31.6
			c-17.7-10.2-46.3-10.2-64,0c-14.8,8.6-17.2,21.6-7.2,31.6C260.4,403.1,262.8,401.3,265.7,399.7z"/>
		
			<linearGradient id="SVGID_00000006690088274618736810000016137037342254467519_" gradientUnits="userSpaceOnUse" x1="217.5508" y1="116.5429" x2="377.814" y2="116.5429" gradientTransform="matrix(1 0 0 -1 0 534.972)">
			<stop  offset="0" style="stop-color:#BCBEFF"/>
			<stop  offset="0.151" style="stop-color:#A3A7F5"/>
			<stop  offset="0.3866" style="stop-color:#8289E8"/>
			<stop  offset="0.6124" style="stop-color:#6A73DF"/>
			<stop  offset="0.8221" style="stop-color:#5C66D9"/>
			<stop  offset="1" style="stop-color:#5761D7"/>
		</linearGradient>
		<path style="fill:url(#SVGID_00000006690088274618736810000016137037342254467519_);" d="M365.9,392.1c-3.2-3-7.1-5.9-11.6-8.5
			c-7.1-4.1-15.1-7.2-23.7-9.5c16.5,10.5,16,26.6-1.5,36.7c-18,10.4-47.2,10.4-65.2,0c-16.9-9.8-17.9-25.2-3.1-35.7
			c-7.1,2.1-13.8,4.9-19.8,8.4c-4.5,2.6-8.4,5.5-11.6,8.5h-11.9v24.3c0,11.8,7.8,23.7,23.5,32.7c31.3,18.1,82,18.1,113.3,0
			c15.6-9,23.5-20.9,23.5-32.7v-24.3H365.9z"/>
		<path class="st12" d="M354.3,383.7c-7-4.1-15.1-7.2-23.7-9.5c16.5,10.5,16,26.6-1.5,36.7c-8.7,5-20.1,7.6-31.5,7.8v43.9
			c20.5,0,41-4.5,56.7-13.5c15.6-9,23.5-20.9,23.5-32.7v-24.3h-11.9C362.7,389.1,358.9,386.3,354.3,383.7z"/>
		
			<radialGradient id="SVGID_00000170279873588164347840000001918028030807716480_" cx="-565.4947" cy="804.145" r="1" gradientTransform="matrix(93.134 0 0 -93.134 53040.5547 75336.1406)" gradientUnits="userSpaceOnUse">
			<stop  offset="0" style="stop-color:#42E8E0"/>
			<stop  offset="3.469290e-02" style="stop-color:#3FDCD8"/>
			<stop  offset="0.2363" style="stop-color:#319CAE"/>
			<stop  offset="0.4286" style="stop-color:#25668B"/>
			<stop  offset="0.6062" style="stop-color:#1B3C70"/>
			<stop  offset="0.7662" style="stop-color:#151E5C"/>
			<stop  offset="0.9028" style="stop-color:#100C50"/>
			<stop  offset="1" style="stop-color:#0F054C"/>
		</radialGradient>
		<path style="opacity:0.5;fill:url(#SVGID_00000170279873588164347840000001918028030807716480_);enable-background:new    ;" d="
			M354.3,383.7c-7-4.1-15.1-7.2-23.7-9.5c16.5,10.5,16,26.6-1.5,36.7c-8.7,5-20.1,7.6-31.5,7.8v43.9c20.5,0,41-4.5,56.7-13.5
			c15.6-9,23.5-20.9,23.5-32.7v-24.3h-11.9C362.7,389.1,358.9,386.3,354.3,383.7z"/>
		<path class="st10" d="M354.3,361.4c-31.3-18.1-82-18.1-113.3,0c-31.3,18.1-31.3,47.4,0,65.4c31.3,18.1,82,18.1,113.3,0
			C385.6,408.8,385.6,379.5,354.3,361.4z M329.7,413c-18,10.4-47.2,10.4-65.2,0c-18-10.4-18-27.3,0-37.7s47.2-10.4,65.2,0
			C347.7,385.7,347.7,402.6,329.7,413z"/>
		<path class="st4" d="M354.3,424.3c-31.3,18.1-82,18.1-113.3,0c-15.1-8.7-22.9-20-23.4-31.5c-0.6,12.3,7.2,24.6,23.4,34
			c31.3,18.1,82,18.1,113.3,0c16.2-9.4,24-21.7,23.4-34C377.3,404.3,369.4,415.6,354.3,424.3z"/>
		<path class="st4" d="M329.7,372.8c-18-10.4-47.2-10.4-65.2,0c-9.6,5.5-14,12.9-13.5,20.1c0.5-6.4,5-12.7,13.5-17.6
			c18-10.4,47.2-10.4,65.2,0c8.5,4.9,12.9,11.2,13.5,17.6C343.8,385.7,339.3,378.3,329.7,372.8z"/>
		
			<linearGradient id="SVGID_00000057148880051171219470000015077159413225159849_" gradientUnits="userSpaceOnUse" x1="223.375" y1="143.1282" x2="372.5627" y2="143.1282" gradientTransform="matrix(1 0 0 -1 0 534.972)">
			<stop  offset="0" style="stop-color:#C0BFF6"/>
			<stop  offset="0.2938" style="stop-color:#C5C4F7"/>
			<stop  offset="0.6399" style="stop-color:#D3D2F9"/>
			<stop  offset="1" style="stop-color:#E9E9FD"/>
		</linearGradient>
		<path style="fill:url(#SVGID_00000057148880051171219470000015077159413225159849_);" d="M350.7,361.4
			c-29.1-16.8-76.4-16.8-105.5,0c-29.1,16.8-29.1,44.1,0,60.9c29.1,16.8,76.4,16.8,105.5,0C379.8,405.5,379.8,378.2,350.7,361.4z
			 M329.5,410c-17.4,10-45.6,10-63,0c-17.4-10-17.4-26.3,0-36.4c17.4-10,45.6-10,63,0C346.9,383.7,346.9,400,329.5,410z"/>
		<path class="st15" d="M365.9,369.9c-3.2-3-7.1-5.9-11.6-8.5c-7.1-4.1-15.1-7.2-23.7-9.5c16.5,10.5,16,26.6-1.5,36.7
			c-18,10.4-47.2,10.4-65.2,0c-16.9-9.8-17.9-25.2-3.1-35.7c-7.1,2.1-13.8,4.9-19.8,8.4c-4.5,2.6-8.4,5.5-11.6,8.5h-11.9v24.3
			c0,11.8,7.8,23.7,23.5,32.7c31.3,18.1,82,18.1,113.3,0c15.6-9,23.5-20.9,23.5-32.7v-24.3H365.9z"/>
		<path class="st10" d="M265.7,363.3c17.7-10.2,46.3-10.2,64,0c2.9,1.7,5.3,3.5,7.2,5.4c10-10,7.6-23-7.2-31.6
			c-17.7-10.2-46.3-10.2-64,0c-14.8,8.6-17.2,21.6-7.2,31.6C260.4,366.8,262.8,364.9,265.7,363.3z"/>
		
			<linearGradient id="SVGID_00000062911734239219134750000003698546491854089377_" gradientUnits="userSpaceOnUse" x1="217.5508" y1="152.9266" x2="377.814" y2="152.9266" gradientTransform="matrix(1 0 0 -1 0 534.972)">
			<stop  offset="0" style="stop-color:#BCBEFF"/>
			<stop  offset="0.151" style="stop-color:#A3A7F5"/>
			<stop  offset="0.3866" style="stop-color:#8289E8"/>
			<stop  offset="0.6124" style="stop-color:#6A73DF"/>
			<stop  offset="0.8221" style="stop-color:#5C66D9"/>
			<stop  offset="1" style="stop-color:#5761D7"/>
		</linearGradient>
		<path style="fill:url(#SVGID_00000062911734239219134750000003698546491854089377_);" d="M365.9,355.7c-3.2-3-7.1-5.9-11.6-8.5
			c-7.1-4.1-15.1-7.2-23.7-9.5c16.5,10.5,16,26.6-1.5,36.7c-18,10.4-47.2,10.4-65.2,0c-16.9-9.8-17.9-25.2-3.1-35.7
			c-7.1,2.1-13.8,4.9-19.8,8.4c-4.5,2.6-8.4,5.5-11.6,8.5h-11.9V380c0,11.8,7.8,23.7,23.5,32.7c31.3,18.1,82,18.1,113.3,0
			c15.6-9,23.5-20.9,23.5-32.7v-24.3H365.9z"/>
		<path class="st12" d="M354.3,347.3c-7-4.1-15.1-7.2-23.7-9.5c16.5,10.5,16,26.6-1.5,36.7c-8.7,5-20.1,7.6-31.5,7.8v43.9
			c20.5,0,41-4.5,56.7-13.5c15.6-9,23.5-20.9,23.5-32.7v-24.3h-11.9C362.7,352.7,358.9,349.9,354.3,347.3z"/>
		
			<radialGradient id="SVGID_00000181049398396087717330000017085515446836805294_" cx="-565.4947" cy="804.145" r="1" gradientTransform="matrix(93.1339 0 0 -93.1338 53040.4961 75299.5859)" gradientUnits="userSpaceOnUse">
			<stop  offset="0" style="stop-color:#42E8E0"/>
			<stop  offset="3.469290e-02" style="stop-color:#3FDCD8"/>
			<stop  offset="0.2363" style="stop-color:#319CAE"/>
			<stop  offset="0.4286" style="stop-color:#25668B"/>
			<stop  offset="0.6062" style="stop-color:#1B3C70"/>
			<stop  offset="0.7662" style="stop-color:#151E5C"/>
			<stop  offset="0.9028" style="stop-color:#100C50"/>
			<stop  offset="1" style="stop-color:#0F054C"/>
		</radialGradient>
		<path style="opacity:0.5;fill:url(#SVGID_00000181049398396087717330000017085515446836805294_);enable-background:new    ;" d="
			M354.3,347.3c-7-4.1-15.1-7.2-23.7-9.5c16.5,10.5,16,26.6-1.5,36.7c-8.7,5-20.1,7.6-31.5,7.8v43.9c20.5,0,41-4.5,56.7-13.5
			c15.6-9,23.5-20.9,23.5-32.7v-24.3h-11.9C362.7,352.7,358.9,349.9,354.3,347.3z"/>
		<path class="st10" d="M354.3,325C323,307,272.3,307,241,325c-31.3,18.1-31.3,47.4,0,65.4c31.3,18.1,82,18.1,113.3,0
			C385.6,372.4,385.6,343.1,354.3,325z M329.7,376.6c-18,10.4-47.2,10.4-65.2,0c-18-10.4-18-27.3,0-37.7s47.2-10.4,65.2,0
			C347.7,349.3,347.7,366.2,329.7,376.6z"/>
		<path class="st4" d="M354.3,388c-31.3,18.1-82,18.1-113.3,0c-15.1-8.7-22.9-20-23.4-31.5c-0.6,12.3,7.2,24.6,23.4,34
			c31.3,18.1,82,18.1,113.3,0c16.2-9.4,24-21.7,23.4-34C377.3,367.9,369.4,379.2,354.3,388z"/>
		<path class="st4" d="M329.7,336.4c-18-10.4-47.2-10.4-65.2,0c-9.6,5.5-14,12.9-13.5,20.1c0.5-6.4,5-12.7,13.5-17.6
			c18-10.4,47.2-10.4,65.2,0c8.5,4.9,12.9,11.2,13.5,17.6C343.8,349.3,339.3,341.9,329.7,336.4z"/>
		
			<linearGradient id="SVGID_00000158725481719494999160000016546696875960102295_" gradientUnits="userSpaceOnUse" x1="223.375" y1="179.5118" x2="372.5627" y2="179.5118" gradientTransform="matrix(1 0 0 -1 0 534.972)">
			<stop  offset="0" style="stop-color:#C0BFF6"/>
			<stop  offset="0.2938" style="stop-color:#C5C4F7"/>
			<stop  offset="0.6399" style="stop-color:#D3D2F9"/>
			<stop  offset="1" style="stop-color:#E9E9FD"/>
		</linearGradient>
		<path style="fill:url(#SVGID_00000158725481719494999160000016546696875960102295_);" d="M350.7,325c-29.1-16.8-76.4-16.8-105.5,0
			c-29.1,16.8-29.1,44.1,0,60.9c29.1,16.8,76.4,16.8,105.5,0C379.8,369.1,379.8,341.8,350.7,325z M329.5,373.6
			c-17.4,10-45.6,10-63,0c-17.4-10-17.4-26.3,0-36.4c17.4-10,45.6-10,63,0C346.9,347.3,346.9,363.6,329.5,373.6z"/>
		<path class="st15" d="M365.9,333.5c-3.2-3-7.1-5.9-11.6-8.5c-7.1-4.1-15.1-7.2-23.7-9.5c16.5,10.5,16,26.6-1.5,36.7
			c-18,10.4-47.2,10.4-65.2,0c-16.9-9.8-17.9-25.2-3.1-35.7c-7.1,2.1-13.8,4.9-19.8,8.4c-4.5,2.6-8.4,5.5-11.6,8.5h-11.9v24.3
			c0,11.8,7.8,23.7,23.5,32.7c31.3,18.1,82,18.1,113.3,0c15.6-9,23.5-20.9,23.5-32.7v-24.3H365.9z"/>
		<path class="st10" d="M265.7,326.9c17.7-10.2,46.3-10.2,64,0c2.9,1.7,5.3,3.5,7.2,5.4c10-10,7.6-23-7.2-31.6
			c-17.7-10.2-46.3-10.2-64,0c-14.8,8.6-17.2,21.6-7.2,31.6C260.4,330.4,262.8,328.5,265.7,326.9z"/>
		
			<linearGradient id="SVGID_00000126313032418453324210000015886653845328379777_" gradientUnits="userSpaceOnUse" x1="217.5508" y1="189.3089" x2="377.814" y2="189.3089" gradientTransform="matrix(1 0 0 -1 0 534.972)">
			<stop  offset="0" style="stop-color:#BCBEFF"/>
			<stop  offset="0.151" style="stop-color:#A3A7F5"/>
			<stop  offset="0.3866" style="stop-color:#8289E8"/>
			<stop  offset="0.6124" style="stop-color:#6A73DF"/>
			<stop  offset="0.8221" style="stop-color:#5C66D9"/>
			<stop  offset="1" style="stop-color:#5761D7"/>
		</linearGradient>
		<path style="fill:url(#SVGID_00000126313032418453324210000015886653845328379777_);" d="M365.9,319.4c-3.2-3-7.1-5.9-11.6-8.5
			c-7.1-4.1-15.1-7.2-23.7-9.5c16.5,10.5,16,26.6-1.5,36.7c-18,10.4-47.2,10.4-65.2,0c-16.9-9.8-17.9-25.2-3.1-35.7
			c-7.1,2.1-13.8,4.9-19.8,8.4c-4.5,2.6-8.4,5.5-11.6,8.5h-11.9v24.3c0,11.8,7.8,23.7,23.5,32.7c31.3,18.1,82,18.1,113.3,0
			c15.6-9,23.5-20.9,23.5-32.7v-24.3H365.9z"/>
		<path class="st12" d="M354.3,310.9c-7-4.1-15.1-7.2-23.7-9.5c16.5,10.5,16,26.6-1.5,36.7c-8.7,5-20.1,7.6-31.5,7.8v43.9
			c20.5,0,41-4.5,56.7-13.5c15.6-9,23.5-20.9,23.5-32.7v-24.3h-11.9C362.7,316.4,358.9,313.5,354.3,310.9z"/>
		
			<radialGradient id="SVGID_00000165920124980127913120000006172969277926666404_" cx="-565.4947" cy="804.145" r="1" gradientTransform="matrix(93.1339 0 0 -93.1338 53040.4961 75263.2031)" gradientUnits="userSpaceOnUse">
			<stop  offset="0" style="stop-color:#42E8E0"/>
			<stop  offset="3.469290e-02" style="stop-color:#3FDCD8"/>
			<stop  offset="0.2363" style="stop-color:#319CAE"/>
			<stop  offset="0.4286" style="stop-color:#25668B"/>
			<stop  offset="0.6062" style="stop-color:#1B3C70"/>
			<stop  offset="0.7662" style="stop-color:#151E5C"/>
			<stop  offset="0.9028" style="stop-color:#100C50"/>
			<stop  offset="1" style="stop-color:#0F054C"/>
		</radialGradient>
		<path style="opacity:0.5;fill:url(#SVGID_00000165920124980127913120000006172969277926666404_);enable-background:new    ;" d="
			M354.3,310.9c-7-4.1-15.1-7.2-23.7-9.5c16.5,10.5,16,26.6-1.5,36.7c-8.7,5-20.1,7.6-31.5,7.8v43.9c20.5,0,41-4.5,56.7-13.5
			c15.6-9,23.5-20.9,23.5-32.7v-24.3h-11.9C362.7,316.4,358.9,313.5,354.3,310.9z"/>
		<path class="st10" d="M354.3,288.6c-31.3-18.1-82-18.1-113.3,0c-31.3,18.1-31.3,47.4,0,65.4c31.3,18.1,82,18.1,113.3,0
			C385.6,336,385.6,306.7,354.3,288.6z M329.7,340.2c-18,10.4-47.2,10.4-65.2,0c-18-10.4-18-27.3,0-37.7s47.2-10.4,65.2,0
			C347.7,312.9,347.7,329.8,329.7,340.2z"/>
		<path class="st4" d="M354.3,351.6c-31.3,18.1-82,18.1-113.3,0c-15.1-8.7-22.9-20-23.4-31.5c-0.6,12.3,7.2,24.6,23.4,34
			c31.3,18.1,82,18.1,113.3,0c16.2-9.4,24-21.7,23.4-34C377.3,331.5,369.4,342.9,354.3,351.6z"/>
		<path class="st4" d="M329.7,300c-18-10.4-47.2-10.4-65.2,0c-9.6,5.5-14,12.9-13.5,20.1c0.5-6.4,5-12.7,13.5-17.6
			c18-10.4,47.2-10.4,65.2,0c8.5,4.9,12.9,11.2,13.5,17.6C343.8,312.9,339.3,305.5,329.7,300z"/>
		
			<linearGradient id="SVGID_00000052074702315527590750000003624280131977748406_" gradientUnits="userSpaceOnUse" x1="223.375" y1="215.8953" x2="372.5627" y2="215.8953" gradientTransform="matrix(1 0 0 -1 0 534.972)">
			<stop  offset="0" style="stop-color:#C0BFF6"/>
			<stop  offset="0.2938" style="stop-color:#C5C4F7"/>
			<stop  offset="0.6399" style="stop-color:#D3D2F9"/>
			<stop  offset="1" style="stop-color:#E9E9FD"/>
		</linearGradient>
		<path style="fill:url(#SVGID_00000052074702315527590750000003624280131977748406_);" d="M350.7,288.6
			c-29.1-16.8-76.4-16.8-105.5,0c-29.1,16.8-29.1,44.1,0,60.9c29.1,16.8,76.4,16.8,105.5,0C379.8,332.7,379.8,305.4,350.7,288.6z
			 M329.5,337.3c-17.4,10-45.6,10-63,0c-17.4-10-17.4-26.3,0-36.4c17.4-10,45.6-10,63,0C346.9,310.9,346.9,327.2,329.5,337.3z"/>
		<path class="st15" d="M365.9,297.1c-3.2-3-7.1-5.9-11.6-8.5c-7.1-4.1-15.1-7.2-23.7-9.5c16.5,10.5,16,26.6-1.5,36.7
			c-18,10.4-47.2,10.4-65.2,0c-16.9-9.8-17.9-25.2-3.1-35.7c-7.1,2.1-13.8,4.9-19.8,8.4c-4.5,2.6-8.4,5.5-11.6,8.5h-11.9v24.3
			c0,11.8,7.8,23.7,23.5,32.7c31.3,18.1,82,18.1,113.3,0c15.6-9,23.5-20.9,23.5-32.7v-24.3H365.9z"/>
		<path class="st10" d="M265.7,290.5c17.7-10.2,46.3-10.2,64,0c2.9,1.7,5.3,3.5,7.2,5.4c10-10,7.6-23-7.2-31.6
			c-17.7-10.2-46.3-10.2-64,0c-14.8,8.6-17.2,21.6-7.2,31.6C260.4,294,262.8,292.2,265.7,290.5z"/>
		
			<linearGradient id="SVGID_00000086675949154268301570000015384878726690556814_" gradientUnits="userSpaceOnUse" x1="217.5508" y1="225.6926" x2="377.814" y2="225.6926" gradientTransform="matrix(1 0 0 -1 0 534.972)">
			<stop  offset="0" style="stop-color:#BCBEFF"/>
			<stop  offset="0.151" style="stop-color:#A3A7F5"/>
			<stop  offset="0.3866" style="stop-color:#8289E8"/>
			<stop  offset="0.6124" style="stop-color:#6A73DF"/>
			<stop  offset="0.8221" style="stop-color:#5C66D9"/>
			<stop  offset="1" style="stop-color:#5761D7"/>
		</linearGradient>
		<path style="fill:url(#SVGID_00000086675949154268301570000015384878726690556814_);" d="M365.9,283c-3.2-3-7.1-5.9-11.6-8.5
			c-7.1-4.1-15.1-7.2-23.7-9.5c16.5,10.5,16,26.6-1.5,36.7c-18,10.4-47.2,10.4-65.2,0c-16.9-9.8-17.9-25.2-3.1-35.7
			c-7.1,2.1-13.8,4.9-19.8,8.4c-4.5,2.6-8.4,5.5-11.6,8.5h-11.9v24.3c0,11.8,7.8,23.7,23.5,32.7c31.3,18.1,82,18.1,113.3,0
			c15.6-9,23.5-20.9,23.5-32.7V283H365.9z"/>
		
			<linearGradient id="SVGID_00000011729109540651919320000011994851418696649150_" gradientUnits="userSpaceOnUse" x1="217.5508" y1="225.6926" x2="377.814" y2="225.6926" gradientTransform="matrix(1 0 0 -1 0 534.972)">
			<stop  offset="0" style="stop-color:#BCBEFF"/>
			<stop  offset="0.151" style="stop-color:#A3A7F5"/>
			<stop  offset="0.3866" style="stop-color:#8289E8"/>
			<stop  offset="0.6124" style="stop-color:#6A73DF"/>
			<stop  offset="0.8221" style="stop-color:#5C66D9"/>
			<stop  offset="1" style="stop-color:#5761D7"/>
		</linearGradient>
		<path style="fill:url(#SVGID_00000011729109540651919320000011994851418696649150_);" d="M365.9,283c-3.2-3-7.1-5.9-11.6-8.5
			c-7.1-4.1-15.1-7.2-23.7-9.5c16.5,10.5,16,26.6-1.5,36.7c-18,10.4-47.2,10.4-65.2,0c-16.9-9.8-17.9-25.2-3.1-35.7
			c-7.1,2.1-13.8,4.9-19.8,8.4c-4.5,2.6-8.4,5.5-11.6,8.5h-11.9v24.3c0,11.8,7.8,23.7,23.5,32.7c31.3,18.1,82,18.1,113.3,0
			c15.6-9,23.5-20.9,23.5-32.7V283H365.9z"/>
		<path class="st12" d="M354.3,274.5c-7-4.1-15.1-7.2-23.7-9.5c16.5,10.5,16,26.6-1.5,36.7c-8.7,5-20.1,7.6-31.5,7.8v43.9
			c20.5,0,41-4.5,56.7-13.5c15.6-9,23.5-20.9,23.5-32.7V283h-11.9C362.7,280,358.9,277.1,354.3,274.5z"/>
		
			<radialGradient id="SVGID_00000111883467339440799790000006374077413343587509_" cx="-565.4947" cy="804.145" r="1" gradientTransform="matrix(93.134 0 0 -93.134 53040.5547 75226.9922)" gradientUnits="userSpaceOnUse">
			<stop  offset="0" style="stop-color:#42E8E0"/>
			<stop  offset="3.469290e-02" style="stop-color:#3FDCD8"/>
			<stop  offset="0.2363" style="stop-color:#319CAE"/>
			<stop  offset="0.4286" style="stop-color:#25668B"/>
			<stop  offset="0.6062" style="stop-color:#1B3C70"/>
			<stop  offset="0.7662" style="stop-color:#151E5C"/>
			<stop  offset="0.9028" style="stop-color:#100C50"/>
			<stop  offset="1" style="stop-color:#0F054C"/>
		</radialGradient>
		<path style="opacity:0.5;fill:url(#SVGID_00000111883467339440799790000006374077413343587509_);enable-background:new    ;" d="
			M354.3,274.5c-7-4.1-15.1-7.2-23.7-9.5c16.5,10.5,16,26.6-1.5,36.7c-8.7,5-20.1,7.6-31.5,7.8v43.9c20.5,0,41-4.5,56.7-13.5
			c15.6-9,23.5-20.9,23.5-32.7V283h-11.9C362.7,280,358.9,277.1,354.3,274.5z"/>
		<path class="st10" d="M354.3,252.3c-31.3-18.1-82-18.1-113.3,0s-31.3,47.4,0,65.4c31.3,18.1,82,18.1,113.3,0
			C385.6,299.6,385.6,270.3,354.3,252.3z M329.7,303.8c-18,10.4-47.2,10.4-65.2,0c-18-10.4-18-27.3,0-37.7c18-10.4,47.2-10.4,65.2,0
			C347.7,276.5,347.7,293.4,329.7,303.8z"/>
		<path class="st4" d="M354.3,315.2c-31.3,18.1-82,18.1-113.3,0c-15.1-8.7-22.9-20-23.4-31.5c-0.6,12.3,7.2,24.6,23.4,34
			c31.3,18.1,82,18.1,113.3,0c16.2-9.4,24-21.7,23.4-34C377.3,295.1,369.4,306.5,354.3,315.2z"/>
		<path class="st4" d="M329.7,263.6c-18-10.4-47.2-10.4-65.2,0c-9.6,5.5-14,12.9-13.5,20.1c0.5-6.4,5-12.7,13.5-17.6
			c18-10.4,47.2-10.4,65.2,0c8.5,4.9,12.9,11.2,13.5,17.6C343.8,276.5,339.3,269.2,329.7,263.6z"/>
		
			<linearGradient id="SVGID_00000124883393250273188160000012018692528121386881_" gradientUnits="userSpaceOnUse" x1="223.375" y1="252.2788" x2="372.5627" y2="252.2788" gradientTransform="matrix(1 0 0 -1 0 534.972)">
			<stop  offset="0" style="stop-color:#C0BFF6"/>
			<stop  offset="0.2938" style="stop-color:#C5C4F7"/>
			<stop  offset="0.6399" style="stop-color:#D3D2F9"/>
			<stop  offset="1" style="stop-color:#E9E9FD"/>
		</linearGradient>
		<path style="fill:url(#SVGID_00000124883393250273188160000012018692528121386881_);" d="M350.7,252.2
			c-29.1-16.8-76.4-16.8-105.5,0c-29.1,16.8-29.1,44.1,0,60.9c29.1,16.8,76.4,16.8,105.5,0C379.8,296.3,379.8,269.1,350.7,252.2z
			 M329.5,300.9c-17.4,10-45.6,10-63,0c-17.4-10-17.4-26.3,0-36.4c17.4-10,45.6-10,63,0C346.9,274.5,346.9,290.8,329.5,300.9z"/>
	</g>
</g>
<path class="st1" d="M483.7,198.4l-136.5,73l0.3,0.5l136.5-73L483.7,198.4z"/>
<path class="st10" d="M265.7,252.9c17.7-10.2,46.3-10.2,64,0c2.9,1.7,5.3,3.5,7.2,5.4c10-10,7.6-23-7.2-31.6
	c-17.7-10.2-46.3-10.2-64,0c-14.8,8.6-17.2,21.6-7.2,31.6C260.4,256.4,262.8,254.6,265.7,252.9z"/>
<linearGradient id="SVGID_00000136375286682871602430000012285915806697853331_" gradientUnits="userSpaceOnUse" x1="217.5527" y1="263.3026" x2="377.816" y2="263.3026" gradientTransform="matrix(1 0 0 -1 0 534.972)">
	<stop  offset="0" style="stop-color:#BCBEFF"/>
	<stop  offset="0.151" style="stop-color:#A3A7F5"/>
	<stop  offset="0.3866" style="stop-color:#8289E8"/>
	<stop  offset="0.6124" style="stop-color:#6A73DF"/>
	<stop  offset="0.8221" style="stop-color:#5C66D9"/>
	<stop  offset="1" style="stop-color:#5761D7"/>
</linearGradient>
<path style="fill:url(#SVGID_00000136375286682871602430000012285915806697853331_);" d="M365.9,245.4c-3.2-3-7.1-5.9-11.6-8.5
	c-7.1-4.1-15.1-7.2-23.7-9.5c16.5,10.5,16,26.6-1.5,36.7c-18,10.4-47.2,10.4-65.2,0c-16.9-9.8-17.9-25.2-3.1-35.7
	c-7.1,2.1-13.8,4.9-19.8,8.4c-4.5,2.6-8.4,5.5-11.6,8.5h-11.9v24.3c0,11.8,7.8,23.7,23.5,32.7c31.3,18.1,82,18.1,113.3,0
	c15.6-9,23.5-20.9,23.5-32.7v-24.3H365.9z"/>
<path class="st12" d="M354.3,236.9c-7-4.1-15.1-7.2-23.7-9.5c16.5,10.5,16,26.6-1.5,36.7c-8.7,5-20.1,7.6-31.5,7.8v43.9
	c20.5,0,41-4.5,56.7-13.5c15.6-9,23.5-20.9,23.5-32.7v-24.3h-11.9C362.7,242.4,358.9,239.5,354.3,236.9z"/>
<radialGradient id="SVGID_00000167353911433728496730000012892256001498101910_" cx="-565.4947" cy="804.145" r="1" gradientTransform="matrix(93.134 0 0 -93.134 53040.5547 75189.3828)" gradientUnits="userSpaceOnUse">
	<stop  offset="0" style="stop-color:#42E8E0"/>
	<stop  offset="3.469290e-02" style="stop-color:#3FDCD8"/>
	<stop  offset="0.2363" style="stop-color:#319CAE"/>
	<stop  offset="0.4286" style="stop-color:#25668B"/>
	<stop  offset="0.6062" style="stop-color:#1B3C70"/>
	<stop  offset="0.7662" style="stop-color:#151E5C"/>
	<stop  offset="0.9028" style="stop-color:#100C50"/>
	<stop  offset="1" style="stop-color:#0F054C"/>
</radialGradient>
<path style="opacity:0.5;fill:url(#SVGID_00000167353911433728496730000012892256001498101910_);enable-background:new    ;" d="
	M354.3,236.9c-7-4.1-15.1-7.2-23.7-9.5c16.5,10.5,16,26.6-1.5,36.7c-8.7,5-20.1,7.6-31.5,7.8v43.9c20.5,0,41-4.5,56.7-13.5
	c15.6-9,23.5-20.9,23.5-32.7v-24.3h-11.9C362.7,242.4,358.9,239.5,354.3,236.9z"/>
<path class="st10" d="M354.3,214.7c-31.3-18.1-82-18.1-113.3,0s-31.3,47.4,0,65.4c31.3,18.1,82,18.1,113.3,0
	C385.6,262,385.6,232.7,354.3,214.7z M329.7,266.2c-18,10.4-47.2,10.4-65.2,0c-18-10.4-18-27.3,0-37.7c18-10.4,47.2-10.4,65.2,0
	C347.7,238.9,347.7,255.8,329.7,266.2z"/>
<path class="st4" d="M354.3,277.6c-31.3,18.1-82,18.1-113.3,0c-15.1-8.7-22.9-20-23.4-31.5c-0.6,12.3,7.2,24.6,23.4,34
	c31.3,18.1,82,18.1,113.3,0c16.2-9.3,24-21.7,23.4-34C377.3,257.5,369.4,268.9,354.3,277.6z"/>
<path class="st4" d="M329.7,226c-18-10.4-47.2-10.4-65.2,0c-9.6,5.5-14,12.9-13.5,20.1c0.5-6.4,5-12.7,13.5-17.6
	c18-10.4,47.2-10.4,65.2,0c8.5,4.9,12.9,11.2,13.5,17.6C343.8,238.9,339.3,231.6,329.7,226z"/>
<linearGradient id="SVGID_00000146468152983157822510000016729244593376316055_" gradientUnits="userSpaceOnUse" x1="223.375" y1="289.8885" x2="372.5627" y2="289.8885" gradientTransform="matrix(1 0 0 -1 0 534.972)">
	<stop  offset="0" style="stop-color:#C0BFF6"/>
	<stop  offset="0.2938" style="stop-color:#C5C4F7"/>
	<stop  offset="0.6399" style="stop-color:#D3D2F9"/>
	<stop  offset="1" style="stop-color:#E9E9FD"/>
</linearGradient>
<path style="fill:url(#SVGID_00000146468152983157822510000016729244593376316055_);" d="M350.7,214.6c-29.1-16.8-76.4-16.8-105.5,0
	c-29.1,16.8-29.1,44.1,0,60.9c29.1,16.8,76.4,16.8,105.5,0C379.8,258.7,379.8,231.4,350.7,214.6z M329.5,263.3
	c-17.4,10-45.6,10-63,0c-17.4-10-17.4-26.3,0-36.4c17.4-10,45.6-10,63,0C346.9,236.9,346.9,253.2,329.5,263.3z"/>
<path class="st15" d="M365.9,223.1c-3.2-3-7.1-5.9-11.6-8.5c-7.1-4.1-15.1-7.2-23.7-9.5c16.5,10.5,16,26.6-1.5,36.7
	c-18,10.4-47.2,10.4-65.2,0c-16.9-9.8-17.9-25.2-3.1-35.7c-7.1,2.1-13.8,4.9-19.8,8.4c-4.5,2.6-8.4,5.5-11.6,8.5h-11.9v24.3
	c0,11.8,7.8,23.7,23.5,32.7c31.3,18.1,82,18.1,113.3,0c15.6-9,23.5-20.9,23.5-32.7v-24.3H365.9z"/>
<path class="st10" d="M265.7,216.5c17.7-10.2,46.3-10.2,64,0c2.9,1.7,5.3,3.5,7.2,5.4c10-10,7.6-23-7.2-31.6
	c-17.7-10.2-46.3-10.2-64,0c-14.8,8.6-17.2,21.6-7.2,31.6C260.4,220,262.8,218.2,265.7,216.5z"/>
<linearGradient id="SVGID_00000109025702701939217750000017492209408268014252_" gradientUnits="userSpaceOnUse" x1="217.5527" y1="299.6854" x2="377.816" y2="299.6854" gradientTransform="matrix(1 0 0 -1 0 534.972)">
	<stop  offset="0" style="stop-color:#BCBEFF"/>
	<stop  offset="0.151" style="stop-color:#A3A7F5"/>
	<stop  offset="0.3866" style="stop-color:#8289E8"/>
	<stop  offset="0.6124" style="stop-color:#6A73DF"/>
	<stop  offset="0.8221" style="stop-color:#5C66D9"/>
	<stop  offset="1" style="stop-color:#5761D7"/>
</linearGradient>
<path style="fill:url(#SVGID_00000109025702701939217750000017492209408268014252_);" d="M365.9,209c-3.2-3-7.1-5.9-11.6-8.5
	c-7.1-4.1-15.1-7.2-23.7-9.5c16.5,10.5,16,26.6-1.5,36.7c-18,10.4-47.2,10.4-65.2,0c-16.9-9.8-17.9-25.2-3.1-35.7
	c-7.1,2.1-13.8,4.9-19.8,8.4c-4.5,2.6-8.4,5.5-11.6,8.5h-11.9v24.3c0,11.8,7.8,23.7,23.5,32.7c31.3,18.1,82,18.1,113.3,0
	c15.6-9,23.5-20.9,23.5-32.7V209H365.9z"/>
<path class="st12" d="M354.3,200.5c-7-4.1-15.1-7.2-23.7-9.5c16.5,10.5,16,26.6-1.5,36.7c-8.7,5-20.1,7.6-31.5,7.8v43.9
	c20.5,0,41-4.5,56.7-13.5c15.6-9,23.5-20.9,23.5-32.7V209h-11.9C362.7,206,358.9,203.1,354.3,200.5z"/>
<radialGradient id="SVGID_00000054266407307796480210000009342528221888797867_" cx="-565.4947" cy="804.145" r="1" gradientTransform="matrix(93.134 0 0 -93.134 53040.5547 75153)" gradientUnits="userSpaceOnUse">
	<stop  offset="0" style="stop-color:#42E8E0"/>
	<stop  offset="3.469290e-02" style="stop-color:#3FDCD8"/>
	<stop  offset="0.2363" style="stop-color:#319CAE"/>
	<stop  offset="0.4286" style="stop-color:#25668B"/>
	<stop  offset="0.6062" style="stop-color:#1B3C70"/>
	<stop  offset="0.7662" style="stop-color:#151E5C"/>
	<stop  offset="0.9028" style="stop-color:#100C50"/>
	<stop  offset="1" style="stop-color:#0F054C"/>
</radialGradient>
<path style="opacity:0.5;fill:url(#SVGID_00000054266407307796480210000009342528221888797867_);enable-background:new    ;" d="
	M354.3,200.5c-7-4.1-15.1-7.2-23.7-9.5c16.5,10.5,16,26.6-1.5,36.7c-8.7,5-20.1,7.6-31.5,7.8v43.9c20.5,0,41-4.5,56.7-13.5
	c15.6-9,23.5-20.9,23.5-32.7V209h-11.9C362.7,206,358.9,203.1,354.3,200.5z"/>
<path class="st10" d="M354.3,178.3c-31.3-18.1-82-18.1-113.3,0c-31.3,18.1-31.3,47.4,0,65.4c31.3,18.1,82,18.1,113.3,0
	C385.6,225.6,385.6,196.3,354.3,178.3z M329.7,229.8c-18,10.4-47.2,10.4-65.2,0c-18-10.4-18-27.3,0-37.7c18-10.4,47.2-10.4,65.2,0
	C347.7,202.6,347.7,219.4,329.7,229.8z"/>
<path class="st4" d="M354.3,241.2c-31.3,18.1-82,18.1-113.3,0c-15.1-8.7-22.9-20-23.4-31.5c-0.6,12.3,7.2,24.6,23.4,34
	c31.3,18.1,82,18.1,113.3,0c16.2-9.4,24-21.7,23.4-34C377.3,221.2,369.4,232.5,354.3,241.2z"/>
<path class="st4" d="M329.7,189.7c-18-10.4-47.2-10.4-65.2,0c-9.6,5.5-14,12.9-13.5,20.1c0.5-6.4,5-12.7,13.5-17.6
	c18-10.4,47.2-10.4,65.2,0c8.5,4.9,12.9,11.2,13.5,17.6C343.8,202.5,339.3,195.2,329.7,189.7z"/>
<linearGradient id="SVGID_00000122707866065278146130000016704058538964228995_" gradientUnits="userSpaceOnUse" x1="223.375" y1="326.2722" x2="372.5627" y2="326.2722" gradientTransform="matrix(1 0 0 -1 0 534.972)">
	<stop  offset="0" style="stop-color:#C0BFF6"/>
	<stop  offset="0.2938" style="stop-color:#C5C4F7"/>
	<stop  offset="0.6399" style="stop-color:#D3D2F9"/>
	<stop  offset="1" style="stop-color:#E9E9FD"/>
</linearGradient>
<path style="fill:url(#SVGID_00000122707866065278146130000016704058538964228995_);" d="M350.7,178.2c-29.1-16.8-76.4-16.8-105.5,0
	c-29.1,16.8-29.1,44.1,0,60.9c29.1,16.8,76.4,16.8,105.5,0C379.8,222.3,379.8,195.1,350.7,178.2z M329.5,226.9
	c-17.4,10-45.6,10-63,0c-17.4-10-17.4-26.3,0-36.4c17.4-10,45.6-10,63,0C346.9,200.6,346.9,216.8,329.5,226.9z"/>
<path class="st15" d="M365.9,186.7c-3.2-3-7.1-5.9-11.6-8.5c-7.1-4.1-15.1-7.2-23.7-9.5c16.5,10.5,16,26.6-1.5,36.7
	c-18,10.4-47.2,10.4-65.2,0c-16.9-9.8-17.9-25.2-3.1-35.7c-7.1,2.1-13.8,4.9-19.8,8.4c-4.5,2.6-8.4,5.5-11.6,8.5h-11.9V211
	c0,11.8,7.8,23.7,23.5,32.7c31.3,18.1,82,18.1,113.3,0c15.6-9,23.5-20.9,23.5-32.7v-24.3H365.9z"/>
<path class="st10" d="M265.7,180.1c17.7-10.2,46.3-10.2,64,0c2.9,1.7,5.3,3.5,7.2,5.4c10-10,7.6-23-7.2-31.6
	c-17.7-10.2-46.3-10.2-64,0c-14.8,8.6-17.2,21.6-7.2,31.6C260.4,183.6,262.8,181.8,265.7,180.1z"/>
<linearGradient id="SVGID_00000167384938115468512210000004689041710323909770_" gradientUnits="userSpaceOnUse" x1="217.5527" y1="336.0706" x2="377.816" y2="336.0706" gradientTransform="matrix(1 0 0 -1 0 534.972)">
	<stop  offset="0" style="stop-color:#BCBEFF"/>
	<stop  offset="0.151" style="stop-color:#A3A7F5"/>
	<stop  offset="0.3866" style="stop-color:#8289E8"/>
	<stop  offset="0.6124" style="stop-color:#6A73DF"/>
	<stop  offset="0.8221" style="stop-color:#5C66D9"/>
	<stop  offset="1" style="stop-color:#5761D7"/>
</linearGradient>
<path style="fill:url(#SVGID_00000167384938115468512210000004689041710323909770_);" d="M365.9,172.6c-3.2-3-7.1-5.9-11.6-8.5
	c-7.1-4.1-15.1-7.2-23.7-9.5c16.5,10.5,16,26.6-1.5,36.7c-18,10.4-47.2,10.4-65.2,0c-16.9-9.8-17.9-25.2-3.1-35.7
	c-7.1,2.1-13.8,4.9-19.8,8.4c-4.5,2.6-8.4,5.5-11.6,8.5h-11.9v24.3c0,11.8,7.8,23.7,23.5,32.7c31.3,18.1,82,18.1,113.3,0
	c15.6-9,23.5-20.9,23.5-32.7v-24.3H365.9z"/>
<path class="st12" d="M354.3,164.1c-7-4.1-15.1-7.2-23.7-9.5c16.5,10.5,16,26.6-1.5,36.7c-8.7,5-20.1,7.6-31.5,7.8v43.9
	c20.5,0,41-4.5,56.7-13.5c15.6-9,23.5-20.9,23.5-32.7v-24.3h-11.9C362.7,169.6,358.9,166.7,354.3,164.1z"/>
<radialGradient id="SVGID_00000155862084100997755030000018342174377316402079_" cx="-565.4947" cy="804.145" r="1" gradientTransform="matrix(93.1339 0 0 -93.1338 53040.4961 75116.4453)" gradientUnits="userSpaceOnUse">
	<stop  offset="0" style="stop-color:#42E8E0"/>
	<stop  offset="3.469290e-02" style="stop-color:#3FDCD8"/>
	<stop  offset="0.2363" style="stop-color:#319CAE"/>
	<stop  offset="0.4286" style="stop-color:#25668B"/>
	<stop  offset="0.6062" style="stop-color:#1B3C70"/>
	<stop  offset="0.7662" style="stop-color:#151E5C"/>
	<stop  offset="0.9028" style="stop-color:#100C50"/>
	<stop  offset="1" style="stop-color:#0F054C"/>
</radialGradient>
<path style="opacity:0.5;fill:url(#SVGID_00000155862084100997755030000018342174377316402079_);enable-background:new    ;" d="
	M354.3,164.1c-7-4.1-15.1-7.2-23.7-9.5c16.5,10.5,16,26.6-1.5,36.7c-8.7,5-20.1,7.6-31.5,7.8v43.9c20.5,0,41-4.5,56.7-13.5
	c15.6-9,23.5-20.9,23.5-32.7v-24.3h-11.9C362.7,169.6,358.9,166.7,354.3,164.1z"/>
<path class="st10" d="M354.3,141.9c-31.3-18.1-82-18.1-113.3,0c-31.3,18.1-31.3,47.4,0,65.4c31.3,18.1,82,18.1,113.3,0
	C385.6,189.2,385.6,160,354.3,141.9z M329.7,193.4c-18,10.4-47.2,10.4-65.2,0c-18-10.4-18-27.3,0-37.7c18-10.4,47.2-10.4,65.2,0
	C347.7,166.2,347.7,183,329.7,193.4z"/>
<path class="st4" d="M354.3,204.8c-31.3,18.1-82,18.1-113.3,0c-15.1-8.7-22.9-20-23.4-31.5c-0.6,12.3,7.2,24.6,23.4,34
	c31.3,18.1,82,18.1,113.3,0c16.2-9.4,24-21.7,23.4-34C377.3,184.8,369.4,196.1,354.3,204.8z"/>
<path class="st4" d="M329.7,153.3c-18-10.4-47.2-10.4-65.2,0c-9.6,5.5-14,12.9-13.5,20.1c0.5-6.4,5-12.7,13.5-17.6
	c18-10.4,47.2-10.4,65.2,0c8.5,4.9,12.9,11.2,13.5,17.6C343.8,166.1,339.3,158.8,329.7,153.3z"/>
<linearGradient id="SVGID_00000042707113649831597860000007152588059785196191_" gradientUnits="userSpaceOnUse" x1="223.375" y1="362.6568" x2="372.5627" y2="362.6568" gradientTransform="matrix(1 0 0 -1 0 534.972)">
	<stop  offset="0" style="stop-color:#C0BFF6"/>
	<stop  offset="0.2938" style="stop-color:#C5C4F7"/>
	<stop  offset="0.6399" style="stop-color:#D3D2F9"/>
	<stop  offset="1" style="stop-color:#E9E9FD"/>
</linearGradient>
<path style="fill:url(#SVGID_00000042707113649831597860000007152588059785196191_);" d="M350.7,141.9c-29.1-16.8-76.4-16.8-105.5,0
	c-29.1,16.8-29.1,44.1,0,60.9c29.1,16.8,76.4,16.8,105.5,0C379.8,185.9,379.8,158.7,350.7,141.9z M329.5,190.5
	c-17.4,10-45.6,10-63,0c-17.4-10-17.4-26.3,0-36.4c17.4-10,45.6-10,63,0C346.9,164.2,346.9,180.5,329.5,190.5z"/>
<path class="st15" d="M365.9,150.3c-3.2-3-7.1-5.9-11.6-8.5c-7.1-4.1-15.1-7.2-23.7-9.5c16.5,10.5,16,26.6-1.5,36.7
	c-18,10.4-47.2,10.4-65.2,0c-16.9-9.8-17.9-25.2-3.1-35.7c-7.1,2.1-13.8,4.9-19.8,8.4c-4.5,2.6-8.4,5.5-11.6,8.5h-11.9v24.3
	c0,11.8,7.8,23.7,23.5,32.7c31.3,18.1,82,18.1,113.3,0c15.6-9,23.5-20.9,23.5-32.7v-24.3H365.9z"/>
<path class="st10" d="M265.7,143.7c17.7-10.2,46.3-10.2,64,0c2.9,1.7,5.3,3.5,7.2,5.4c10-10,7.6-23-7.2-31.6
	c-17.7-10.2-46.3-10.2-64,0c-14.8,8.6-17.2,21.6-7.2,31.6C260.4,147.2,262.8,145.4,265.7,143.7z"/>
<linearGradient id="SVGID_00000030484478733765266530000003192008591875232149_" gradientUnits="userSpaceOnUse" x1="217.5527" y1="372.454" x2="377.816" y2="372.454" gradientTransform="matrix(1 0 0 -1 0 534.972)">
	<stop  offset="0" style="stop-color:#BCBEFF"/>
	<stop  offset="0.151" style="stop-color:#A3A7F5"/>
	<stop  offset="0.3866" style="stop-color:#8289E8"/>
	<stop  offset="0.6124" style="stop-color:#6A73DF"/>
	<stop  offset="0.8221" style="stop-color:#5C66D9"/>
	<stop  offset="1" style="stop-color:#5761D7"/>
</linearGradient>
<path style="fill:url(#SVGID_00000030484478733765266530000003192008591875232149_);" d="M365.9,136.2c-3.2-3-7.1-5.9-11.6-8.5
	c-7.1-4.1-15.1-7.2-23.7-9.5c16.5,10.5,16,26.6-1.5,36.7c-18,10.4-47.2,10.4-65.2,0c-16.9-9.8-17.9-25.2-3.1-35.7
	c-7.1,2.1-13.8,4.9-19.8,8.4c-4.5,2.6-8.4,5.5-11.6,8.5h-11.9v24.3c0,11.8,7.8,23.7,23.5,32.7c31.3,18.1,82,18.1,113.3,0
	c15.6-9,23.5-20.9,23.5-32.7v-24.3H365.9z"/>
<linearGradient id="SVGID_00000165192204937408892480000002810285854120837297_" gradientUnits="userSpaceOnUse" x1="217.5527" y1="372.454" x2="377.816" y2="372.454" gradientTransform="matrix(1 0 0 -1 0 534.972)">
	<stop  offset="0" style="stop-color:#BCBEFF"/>
	<stop  offset="0.151" style="stop-color:#A3A7F5"/>
	<stop  offset="0.3866" style="stop-color:#8289E8"/>
	<stop  offset="0.6124" style="stop-color:#6A73DF"/>
	<stop  offset="0.8221" style="stop-color:#5C66D9"/>
	<stop  offset="1" style="stop-color:#5761D7"/>
</linearGradient>
<path style="fill:url(#SVGID_00000165192204937408892480000002810285854120837297_);" d="M365.9,136.2c-3.2-3-7.1-5.9-11.6-8.5
	c-7.1-4.1-15.1-7.2-23.7-9.5c16.5,10.5,16,26.6-1.5,36.7c-18,10.4-47.2,10.4-65.2,0c-16.9-9.8-17.9-25.2-3.1-35.7
	c-7.1,2.1-13.8,4.9-19.8,8.4c-4.5,2.6-8.4,5.5-11.6,8.5h-11.9v24.3c0,11.8,7.8,23.7,23.5,32.7c31.3,18.1,82,18.1,113.3,0
	c15.6-9,23.5-20.9,23.5-32.7v-24.3H365.9z"/>
<path class="st12" d="M354.3,127.8c-7-4.1-15.1-7.2-23.7-9.5c16.5,10.5,16,26.6-1.5,36.7c-8.7,5-20.1,7.6-31.5,7.8v43.9
	c20.5,0,41-4.5,56.7-13.5c15.6-9,23.5-20.9,23.5-32.7v-24.3h-11.9C362.7,133.2,358.9,130.4,354.3,127.8z"/>
<radialGradient id="SVGID_00000090995067105004969320000003912629428936939142_" cx="-565.4947" cy="804.145" r="1" gradientTransform="matrix(93.1339 0 0 -93.1338 53040.4961 75080.0625)" gradientUnits="userSpaceOnUse">
	<stop  offset="0" style="stop-color:#42E8E0"/>
	<stop  offset="3.469290e-02" style="stop-color:#3FDCD8"/>
	<stop  offset="0.2363" style="stop-color:#319CAE"/>
	<stop  offset="0.4286" style="stop-color:#25668B"/>
	<stop  offset="0.6062" style="stop-color:#1B3C70"/>
	<stop  offset="0.7662" style="stop-color:#151E5C"/>
	<stop  offset="0.9028" style="stop-color:#100C50"/>
	<stop  offset="1" style="stop-color:#0F054C"/>
</radialGradient>
<path style="opacity:0.5;fill:url(#SVGID_00000090995067105004969320000003912629428936939142_);enable-background:new    ;" d="
	M354.3,127.8c-7-4.1-15.1-7.2-23.7-9.5c16.5,10.5,16,26.6-1.5,36.7c-8.7,5-20.1,7.6-31.5,7.8v43.9c20.5,0,41-4.5,56.7-13.5
	c15.6-9,23.5-20.9,23.5-32.7v-24.3h-11.9C362.7,133.2,358.9,130.4,354.3,127.8z"/>
<linearGradient id="SVGID_00000063595143622035996900000011375996073596576689_" gradientUnits="userSpaceOnUse" x1="217.5528" y1="396.7572" x2="377.8161" y2="396.7572" gradientTransform="matrix(1 0 0 -1 0 534.972)">
	<stop  offset="0" style="stop-color:#C0BFF6"/>
	<stop  offset="0.2938" style="stop-color:#C5C4F7"/>
	<stop  offset="0.6399" style="stop-color:#D3D2F9"/>
	<stop  offset="1" style="stop-color:#E9E9FD"/>
</linearGradient>
<path style="fill:url(#SVGID_00000063595143622035996900000011375996073596576689_);" d="M354.3,105.5c-31.3-18.1-82-18.1-113.3,0
	c-31.3,18.1-31.3,47.4,0,65.4c31.3,18.1,82,18.1,113.3,0C385.6,152.9,385.6,123.6,354.3,105.5z M329.7,157
	c-18,10.4-47.2,10.4-65.2,0c-18-10.4-18-27.3,0-37.7c18-10.4,47.2-10.4,65.2,0C347.7,129.8,347.7,146.6,329.7,157z"/>
<path class="st4" d="M354.3,168.4c-31.3,18.1-82,18.1-113.3,0c-15.1-8.7-22.9-20-23.4-31.5c-0.6,12.3,7.2,24.6,23.4,34
	c31.3,18.1,82,18.1,113.3,0c16.2-9.4,24-21.7,23.4-34C377.3,148.4,369.4,159.7,354.3,168.4z"/>
<path class="st3" d="M350.7,107.2c-29.1-16.8-76.4-16.8-105.5,0c-29.1,16.8-29.1,44.1,0,60.9c29.1,16.8,76.4,16.8,105.5,0
	C379.8,151.3,379.8,124,350.7,107.2z M329.5,155.8c-17.4,10-45.6,10-63,0c-17.4-10-17.4-26.3,0-36.4c17.4-10,45.6-10,63,0
	C346.9,129.5,346.9,145.8,329.5,155.8z"/>
<path class="st1" d="M382,495.3c-3.7,0-7.2-0.7-9.8-2.3l-128.8-74.3c-2.6-1.5-4-3.6-4-5.8c0-2.7,2-5.5,5.6-7.5l245.6-141.8
	c6.7-3.9,16.8-4.3,22.6-0.9L642,337c2.6,1.5,4,3.6,4,5.8c0,2.7-2,5.5-5.6,7.5L394.8,492.1C391.2,494.2,386.5,495.3,382,495.3z
	 M503.4,260.9c-4.3,0-8.9,1.1-12.5,3.1L245.3,405.8c-3.4,2-5.3,4.5-5.3,7.1c0,2.1,1.3,4,3.7,5.4l128.8,74.3
	c5.6,3.3,15.5,2.8,22.1-0.9l245.6-141.8c3.4-2,5.3-4.5,5.3-7.1c0-2.1-1.3-4-3.7-5.4L513,263.1C510.4,261.6,507,260.9,503.4,260.9z"
	/>
<radialGradient id="SVGID_00000085956540162747766650000009592311389764598155_" cx="-570.3179" cy="806.2921" r="1" gradientTransform="matrix(260.614 0 0 -260.614 149000.2031 210405.4844)" gradientUnits="userSpaceOnUse">
	<stop  offset="0" style="stop-color:#42E8E0"/>
	<stop  offset="0.1055" style="stop-color:#37B6BF"/>
	<stop  offset="0.2197" style="stop-color:#2C87A1"/>
	<stop  offset="0.338" style="stop-color:#235F87"/>
	<stop  offset="0.4587" style="stop-color:#1C3F72"/>
	<stop  offset="0.5824" style="stop-color:#162561"/>
	<stop  offset="0.7105" style="stop-color:#121355"/>
	<stop  offset="0.8458" style="stop-color:#10084E"/>
	<stop  offset="1" style="stop-color:#0F054C"/>
</radialGradient>
<path style="opacity:0.5;fill:url(#SVGID_00000085956540162747766650000009592311389764598155_);enable-background:new    ;" d="
	M372.6,452.2l-124.2-71.7c-5.5-3.2-4.8-8.8,1.6-12.5l241-139.1c6.4-3.7,16.1-4.1,21.6-0.9l124.2,71.7c5.5,3.2,4.8,8.8-1.6,12.5
	l-241,139.1C387.8,455,378.1,455.4,372.6,452.2z"/>
<linearGradient id="SVGID_00000140002052075823585490000007551081638590863004_" gradientUnits="userSpaceOnUse" x1="499.2686" y1="119.6661" x2="385.9355" y2="270.0643" gradientTransform="matrix(1 0 0 -1 0 534.972)">
	<stop  offset="0" style="stop-color:#42E8E0"/>
	<stop  offset="0.1055" style="stop-color:#37B6BF"/>
	<stop  offset="0.2197" style="stop-color:#2C87A1"/>
	<stop  offset="0.338" style="stop-color:#235F87"/>
	<stop  offset="0.4587" style="stop-color:#1C3F72"/>
	<stop  offset="0.5824" style="stop-color:#162561"/>
	<stop  offset="0.7105" style="stop-color:#121355"/>
	<stop  offset="0.8458" style="stop-color:#10084E"/>
	<stop  offset="1" style="stop-color:#0F054C"/>
</linearGradient>
<path style="opacity:0.8;fill:url(#SVGID_00000140002052075823585490000007551081638590863004_);enable-background:new    ;" d="
	M382,454.8c-3.6,0-7-0.7-9.6-2.2l-124.2-71.7c-2.5-1.5-3.9-3.5-3.9-5.8c0-2.7,2-5.4,5.5-7.4l241-139.1c6.5-3.7,16.4-4.1,22-0.9
	L637,299.4c2.5,1.5,3.9,3.5,3.9,5.8c0,2.7-2,5.4-5.5,7.4l-241,139.1C390.9,453.7,386.3,454.8,382,454.8z M372.8,451.9
	c5.4,3.1,14.9,2.7,21.2-0.9l241-139.1c3.2-1.9,5.1-4.3,5.1-6.7c0-2-1.3-3.8-3.5-5.1l-124.2-71.7c-5.4-3.1-14.9-2.7-21.2,0.9
	l-241,139.1c-3.2,1.9-5.1,4.3-5.1,6.7c0,2,1.3,3.8,3.5,5.1L372.8,451.9z"/>
<path class="st1" d="M489.1,374.5c-3.8,0-7.4-0.8-10.1-2.3l-86-49.6c-2.6-1.5-4.1-3.6-4.1-6c0-2.8,2.1-5.6,5.7-7.7
	c6.8-3.9,17.2-4.4,23.1-0.9l86,49.6c2.6,1.5,4.1,3.6,4.1,6c0,2.8-2.1,5.6-5.7,7.7C498.4,373.4,493.7,374.5,489.1,374.5z
	 M407.8,306.2c-4.4,0-9.1,1.1-12.8,3.2c-3.5,2-5.5,4.6-5.5,7.2c0,2.1,1.4,4.1,3.8,5.5l86,49.6c5.8,3.3,15.9,2.9,22.6-0.9
	c3.5-2,5.5-4.6,5.5-7.2c0-2.1-1.4-4.1-3.8-5.5l-86-49.6C414.9,306.9,411.4,306.2,407.8,306.2z"/>
<path class="st15" d="M348.2,108.6c-27.8-16-72.8-16-100.5,0c-27.8,16-27.8,42,0,58c27.8,16,72.8,16,100.5,0
	C376,150.6,376,124.6,348.2,108.6z"/>
<path class="st15" d="M298,163.3c24.6,0,44.5-11.5,44.5-25.7c0-14.2-19.9-25.7-44.5-25.7c-24.6,0-44.5,11.5-44.5,25.7
	C253.5,151.8,273.4,163.3,298,163.3z"/>
<path class="st1" d="M268.9,479.9c-2.4,0-4.9-0.6-7.1-1.9l-132.9-76.6c-1.8-1-2.9-2.9-2.9-5c0-2.1,1.1-3.9,2.9-5l116.3-67.1l0.3,0.5
	l-116.3,67.1c-1.6,0.9-2.6,2.6-2.6,4.5c0,1.9,1,3.6,2.6,4.5l132.9,76.6c4.2,2.4,9.4,2.4,13.6,0l35.1-20.4l0.3,0.5L276,478
	C273.8,479.2,271.3,479.9,268.9,479.9z"/>
<path class="st15" d="M318.8,123.3c0,1-0.8,1.8-1.8,1.8c-1,0-1.8-0.8-1.8-1.8c0-1,0.8-1.8,1.8-1.8
	C318,121.5,318.8,122.3,318.8,123.3z"/>
<path class="st15" d="M287.1,40.5c0,1-0.8,1.8-1.8,1.8c-1,0-1.8-0.8-1.8-1.8c0-1,0.8-1.8,1.8-1.8C286.3,38.6,287.1,39.5,287.1,40.5z
	"/>
<path class="st15" d="M290.7,102.4c0,1.5-1.2,2.7-2.7,2.7c-1.5,0-2.7-1.2-2.7-2.7c0-1.5,1.2-2.7,2.7-2.7
	C289.5,99.7,290.7,100.9,290.7,102.4z"/>
<path class="st41" d="M285.8,148c0,1-0.8,1.9-1.9,1.9c-1,0-1.9-0.8-1.9-1.9c0-1,0.8-1.9,1.9-1.9C285,146.1,285.8,147,285.8,148z"/>
<path class="st41" d="M312.7,71.6c0,1.6-1.3,2.9-2.9,2.9c-1.6,0-2.9-1.3-2.9-2.9c0-1.6,1.3-2.9,2.9-2.9
	C311.4,68.7,312.7,70,312.7,71.6z"/>
<path class="st41" d="M308.5,83c1.1,0,2-0.9,2-2s-0.9-2-2-2s-2,0.9-2,2S307.4,83,308.5,83z"/>
<radialGradient id="SVGID_00000085936909968252017720000012047314157190487680_" cx="-570.7743" cy="806.4952" r="1" gradientTransform="matrix(314.06 0 0 -314.06 179718.25 253501.4688)" gradientUnits="userSpaceOnUse">
	<stop  offset="0" style="stop-color:#42E8E0"/>
	<stop  offset="0.1055" style="stop-color:#37B6BF"/>
	<stop  offset="0.2197" style="stop-color:#2C87A1"/>
	<stop  offset="0.338" style="stop-color:#235F87"/>
	<stop  offset="0.4587" style="stop-color:#1C3F72"/>
	<stop  offset="0.5824" style="stop-color:#162561"/>
	<stop  offset="0.7105" style="stop-color:#121355"/>
	<stop  offset="0.8458" style="stop-color:#10084E"/>
	<stop  offset="1" style="stop-color:#0F054C"/>
</radialGradient>
<path style="opacity:0.5;fill:url(#SVGID_00000085936909968252017720000012047314157190487680_);enable-background:new    ;" d="
	M517.7,224.8L441.9,181l102.5-59.2l75.8,43.8L517.7,224.8z"/>
<path class="st1" d="M517.6,217.1c-1.6,0-3.3-0.4-4.8-1.3l-56-32.3c-0.9-0.5-1.4-1.4-1.4-2.4c0-1,0.5-1.9,1.4-2.4l82.9-47.9
	c2.9-1.7,6.6-1.7,9.5,0l56,32.3c0.9,0.5,1.4,1.4,1.4,2.4c0,1-0.5,1.9-1.4,2.4l-82.9,47.9C520.9,216.6,519.2,217.1,517.6,217.1z
	 M544.5,130.1c-1.5,0-3.1,0.4-4.5,1.2l-82.9,47.9c-0.7,0.4-1.1,1.1-1.1,1.9c0,0.8,0.4,1.5,1.1,1.9l56,32.3c2.8,1.6,6.2,1.6,9,0
	l82.9-47.9c0.7-0.4,1.1-1.1,1.1-1.9c0-0.8-0.4-1.5-1.1-1.9l-56-32.3C547.6,130.5,546,130.1,544.5,130.1z"/>
<path class="st1" d="M531,162.7l-8.8-5.1l2.2-1.3l8.8,5.1L531,162.7z"/>
<path class="st43" d="M538.5,167l-4.4-2.5l2.2-1.3l4.4,2.5L538.5,167z"/>
<path class="st43" d="M525.9,165.6l-8.8-5.1l2.2-1.3l8.8,5.1L525.9,165.6z"/>
<path class="st43" d="M533.4,170l-4.4-2.5l2.2-1.3l4.4,2.5L533.4,170z"/>
<path class="st1" d="M520.8,168.6l-8.8-5.1l2.2-1.3l8.8,5.1L520.8,168.6z"/>
<path class="st1" d="M528.3,172.9l-4.4-2.5l2.2-1.3l4.4,2.5L528.3,172.9z"/>
<path class="st1" d="M515.7,171.6l-8.8-5.1l2.2-1.3l8.8,5.1L515.7,171.6z"/>
<path class="st1" d="M523.2,175.9l-4.4-2.5l2.2-1.3l4.4,2.5L523.2,175.9z"/>
<path class="st1" d="M510.6,174.5l-8.8-5.1l2.2-1.3l8.8,5.1L510.6,174.5z"/>
<path class="st1" d="M518.1,178.8l-4.4-2.5l2.2-1.3l4.4,2.5L518.1,178.8z"/>
<path class="st1" d="M505.4,177.5l-8.8-5.1l2.2-1.3l8.8,5.1L505.4,177.5z"/>
<path class="st1" d="M512.9,181.8l-4.4-2.5l2.2-1.3l4.4,2.5L512.9,181.8z"/>
<path class="st1" d="M500.3,180.4l-8.8-5.1l2.2-1.3l8.8,5.1L500.3,180.4z"/>
<path class="st43" d="M507.8,184.8l-4.4-2.5l2.2-1.3l4.4,2.5L507.8,184.8z"/>
<path class="st1" d="M495.2,183.4l-8.8-5.1l2.2-1.3l8.8,5.1L495.2,183.4z"/>
<path class="st43" d="M502.7,187.7l-4.4-2.5l2.2-1.3l4.4,2.5L502.7,187.7z"/>
<path class="st1" d="M550.6,174.1l-8.8-5.1l2.2-1.3l8.8,5.1L550.6,174.1z"/>
<path class="st1" d="M558.1,178.4l-4.4-2.5l2.2-1.3l4.4,2.5L558.1,178.4z"/>
<path class="st1" d="M545.5,177l-8.8-5.1l2.2-1.3l8.8,5.1L545.5,177z"/>
<path class="st1" d="M553,181.4l-4.4-2.5l2.2-1.3l4.4,2.5L553,181.4z"/>
<path class="st1" d="M540.3,180l-8.8-5.1l2.2-1.3l8.8,5.1L540.3,180z"/>
<path class="st1" d="M547.8,184.3l-4.4-2.5l2.2-1.3l4.4,2.5L547.8,184.3z"/>
<path class="st1" d="M546.3,153.9l-8.8-5.1l2.2-1.3l8.8,5.1L546.3,153.9z"/>
<path class="st1" d="M553.8,158.2l-4.4-2.5l2.2-1.3l4.4,2.5L553.8,158.2z"/>
<path class="st1" d="M541.2,156.8l-8.8-5.1l2.2-1.3l8.8,5.1L541.2,156.8z"/>
<path class="st1" d="M548.7,161.2l-4.4-2.5l2.2-1.3l4.4,2.5L548.7,161.2z"/>
<path class="st1" d="M536.1,159.8l-8.8-5.1l2.2-1.3l8.8,5.1L536.1,159.8z"/>
<path class="st1" d="M543.6,164.1l-4.4-2.5l2.2-1.3l4.4,2.5L543.6,164.1z"/>
<path class="st1" d="M565.9,165.2l-8.8-5.1l2.2-1.3l8.8,5.1L565.9,165.2z"/>
<path class="st1" d="M573.4,169.6L569,167l2.2-1.3l4.4,2.5L573.4,169.6z"/>
<path class="st43" d="M560.7,168.2l-8.8-5.1l2.2-1.3l8.8,5.1L560.7,168.2z"/>
<path class="st1" d="M568.2,172.5l-4.4-2.5l2.2-1.3l4.4,2.5L568.2,172.5z"/>
<path class="st1" d="M555.6,171.2l-8.8-5.1l2.2-1.3l8.8,5.1L555.6,171.2z"/>
<path class="st1" d="M563.1,175.5l-4.4-2.5l2.2-1.3l4.4,2.5L563.1,175.5z"/>
<path class="st1" d="M535.2,182.9l-8.8-5.1l2.2-1.3l8.8,5.1L535.2,182.9z"/>
<path class="st1" d="M542.7,187.3l-4.4-2.5l2.2-1.3l4.4,2.5L542.7,187.3z"/>
<path class="st43" d="M530.1,185.9l-8.8-5.1l2.2-1.3l8.8,5.1L530.1,185.9z"/>
<path class="st1" d="M537.6,190.2l-4.4-2.5l2.2-1.3l4.4,2.5L537.6,190.2z"/>
<path class="st1" d="M525,188.9l-8.8-5.1l2.2-1.3l8.8,5.1L525,188.9z"/>
<path class="st1" d="M532.5,193.2l-4.4-2.5l2.2-1.3l4.4,2.5L532.5,193.2z"/>
<path class="st1" d="M519.8,191.8l-8.8-5.1l2.2-1.3l8.8,5.1L519.8,191.8z"/>
<path class="st1" d="M527.3,196.1l-4.4-2.5l2.2-1.3l4.4,2.5L527.3,196.1z"/>
<path class="st1" d="M514.8,194.7l-8.8-5.1l2.2-1.3l8.8,5.1L514.8,194.7z"/>
<path class="st1" d="M522.3,199.1l-4.4-2.5l2.2-1.3l4.4,2.5L522.3,199.1z"/>
<path class="st3" d="M311.7,431.5l-6.8-3.9c-0.6-0.4-1.2-1.4-1.2-2.2c0-0.9,0.5-1.2,1.2-0.9l6.8,4c0.6,0.4,1.2,1.4,1.2,2.2
	C312.9,431.5,312.3,431.9,311.7,431.5z"/>
</svg>
