<svg width="808" height="753" viewBox="0 0 808 753" fill="none" xmlns="http://www.w3.org/2000/svg">
<g style="mix-blend-mode:screen" clip-path="url(#clip0_234_70229)">
<path opacity="0.5" d="M911.111 344.789L877.071 325.125L530.89 524.97L413.458 457.132L837.669 212.076L803.629 192.412L379.418 437.468L266.085 371.998L339.632 329.511L367.339 313.506L690.296 126.942L656.256 107.278L333.299 293.842L-64.7365 63.9062L-98.7754 83.5694L299.26 313.505L-43.1001 512.485L-9.06026 532.149L232.046 391.662L348.138 458.725L379.419 476.796L797.256 719.375L831.295 699.711L564.93 544.634L911.111 344.789Z" fill="url(#paint0_radial_234_70229)"/>
<path d="M379.583 401.786L292.242 351.332L379.58 300.879L466.921 351.333L379.583 401.786Z" fill="#312A91"/>
<path d="M379.583 387.273L292.242 336.818L379.58 286.365L466.921 336.82L379.583 387.273Z" fill="#312A91"/>
<path opacity="0.7" d="M379.582 375.773L312.148 336.818L379.58 297.864L447.014 336.819L379.582 375.773Z" fill="url(#paint1_linear_234_70229)"/>
<path d="M466.92 336.82V351.334L379.582 401.787V387.273L466.92 336.82Z" fill="url(#paint2_linear_234_70229)"/>
<path d="M292.242 336.818V351.332L379.583 401.787V387.273L292.242 336.818Z" fill="#312A91"/>
<path opacity="0.7" d="M292.242 336.818V351.332L379.583 401.787V387.273L292.242 336.818Z" fill="url(#paint3_linear_234_70229)"/>
<path d="M379.583 371.298L292.242 320.843L379.58 270.391L466.921 320.845L379.583 371.298Z" fill="#312A91"/>
<path d="M379.583 356.784L292.242 306.33L379.58 255.877L466.921 306.331L379.583 356.784Z" fill="#312A91"/>
<path opacity="0.7" d="M379.583 356.784L292.242 306.33L379.58 255.877L466.921 306.331L379.583 356.784Z" fill="url(#paint4_linear_234_70229)"/>
<path opacity="0.3" d="M379.582 325.011L347.244 306.33L379.581 287.65L411.918 306.331L379.582 325.011Z" fill="#42E8E0"/>
<path opacity="0.3" d="M379.581 300.33L400.944 312.671L411.918 306.331L379.581 287.65L347.244 306.33L358.219 312.67L379.581 300.33Z" fill="#42E8E0"/>
<path d="M379.581 300.33L400.944 312.671L411.918 306.331L379.581 287.65L347.244 306.33L358.219 312.67L379.581 300.33Z" fill="#42E8E0"/>
<path d="M466.92 306.332V320.846L379.582 371.299V356.785L466.92 306.332Z" fill="url(#paint5_linear_234_70229)"/>
<path d="M292.242 306.33V320.844L379.583 371.298V356.785L292.242 306.33Z" fill="#312A91"/>
<path opacity="0.7" d="M292.242 306.33V320.844L379.583 371.298V356.785L292.242 306.33Z" fill="url(#paint6_linear_234_70229)"/>
<path opacity="0.3" d="M379.583 371.298V387.273L292.242 336.818V320.844L379.583 371.298Z" fill="#42E8E0"/>
<path opacity="0.3" d="M312.148 332.344V336.819L379.582 375.774L447.014 336.82V332.345L379.582 371.299L312.148 332.344Z" fill="#42E8E0"/>
<path opacity="0.3" d="M379.582 371.299V375.774L312.148 336.819V332.344L379.582 371.299Z" fill="#42E8E0"/>
<path opacity="0.5" d="M292.242 320.844V336.818L379.583 387.273L466.921 336.82V320.845L379.583 371.298L292.242 320.844Z" fill="#5CFFF3"/>
<path d="M294.305 306.33L380.612 256.473L379.58 255.877L292.242 306.33L379.583 356.784L380.614 356.189L294.305 306.33Z" fill="url(#paint7_linear_234_70229)"/>
<path opacity="0.5" d="M292.242 320.844V336.818L293.443 337.512V321.538L292.242 320.844Z" fill="#42E8E0"/>
<path opacity="0.5" d="M466.92 320.844V336.818L465.719 337.512V321.538L466.92 320.844Z" fill="#42E8E0"/>
<path opacity="0.5" d="M379.584 371.298H379.583L377.521 370.107V386.097L379.583 387.273V387.273L379.583 387.273L379.584 387.273V387.273L381.645 386.097V370.107L379.584 371.298Z" fill="#42E8E0"/>
<path d="M379.583 344.35L292.242 293.895L379.58 243.442L466.921 293.897L379.583 344.35Z" fill="#312A91"/>
<path d="M379.583 329.836L292.242 279.382L379.58 228.929L466.921 279.383L379.583 329.836Z" fill="#312A91"/>
<path opacity="0.7" d="M379.582 318.336L312.148 279.381L379.58 240.428L447.014 279.383L379.582 318.336Z" fill="url(#paint8_linear_234_70229)"/>
<path d="M466.92 279.383V293.896L379.582 344.349V329.836L466.92 279.383Z" fill="url(#paint9_linear_234_70229)"/>
<path d="M292.242 279.382V293.896L379.583 344.35V329.836L292.242 279.382Z" fill="#312A91"/>
<path opacity="0.7" d="M292.242 279.382V293.896L379.583 344.35V329.836L292.242 279.382Z" fill="url(#paint10_linear_234_70229)"/>
<path d="M379.583 313.861L292.242 263.407L379.58 212.954L466.921 263.408L379.583 313.861Z" fill="#312A91"/>
<path d="M379.583 299.348L292.242 248.893L379.58 198.44L466.921 248.895L379.583 299.348Z" fill="#312A91"/>
<path opacity="0.7" d="M379.583 299.348L292.242 248.893L379.58 198.44L466.921 248.895L379.583 299.348Z" fill="url(#paint11_linear_234_70229)"/>
<path opacity="0.3" d="M379.582 267.575L347.244 248.894L379.581 230.214L411.918 248.894L379.582 267.575Z" fill="#42E8E0"/>
<path opacity="0.3" d="M379.581 242.893L400.944 255.234L411.918 248.894L379.581 230.214L347.244 248.894L358.219 255.234L379.581 242.893Z" fill="#42E8E0"/>
<path d="M379.581 242.893L400.944 255.234L411.918 248.894L379.581 230.214L347.244 248.894L358.219 255.234L379.581 242.893Z" fill="#42E8E0"/>
<path d="M466.92 248.895V263.408L379.582 313.861V299.348L466.92 248.895Z" fill="url(#paint12_linear_234_70229)"/>
<path d="M292.242 248.894V263.407L379.583 313.862V299.348L292.242 248.894Z" fill="#312A91"/>
<path opacity="0.7" d="M292.242 248.894V263.407L379.583 313.862V299.348L292.242 248.894Z" fill="url(#paint13_linear_234_70229)"/>
<path opacity="0.3" d="M379.583 313.862V329.836L292.242 279.382V263.407L379.583 313.862Z" fill="#42E8E0"/>
<path opacity="0.3" d="M312.148 274.906V279.381L379.582 318.336L447.014 279.382V274.907L379.582 313.861L312.148 274.906Z" fill="#42E8E0"/>
<path opacity="0.3" d="M379.582 313.861V318.336L312.148 279.381V274.906L379.582 313.861Z" fill="#42E8E0"/>
<path opacity="0.5" d="M292.242 263.407V279.382L379.583 329.836L466.921 279.383V263.409L379.583 313.862L292.242 263.407Z" fill="#5CFFF3"/>
<path d="M294.305 248.893L380.612 199.036L379.58 198.44L292.242 248.893L379.583 299.348L380.614 298.752L294.305 248.893Z" fill="url(#paint14_linear_234_70229)"/>
<path opacity="0.5" d="M292.242 263.407V279.382L293.443 280.075V264.101L292.242 263.407Z" fill="#42E8E0"/>
<path opacity="0.5" d="M466.92 263.407V279.382L465.719 280.075V264.101L466.92 263.407Z" fill="#42E8E0"/>
<path opacity="0.5" d="M379.584 313.862H379.583L377.521 312.671V328.661L379.583 329.836V329.836L379.583 329.836L379.584 329.836V329.836L381.645 328.661V312.671L379.584 313.862Z" fill="#42E8E0"/>
<path d="M379.583 286.912L292.242 236.458L379.58 186.005L466.921 236.459L379.583 286.912Z" fill="#312A91"/>
<path d="M379.583 272.399L292.242 221.944L379.58 171.491L466.921 221.946L379.583 272.399Z" fill="#312A91"/>
<path opacity="0.7" d="M379.582 260.899L312.148 221.944L379.58 182.99L447.014 221.945L379.582 260.899Z" fill="url(#paint15_linear_234_70229)"/>
<path d="M466.92 221.945V236.459L379.582 286.912V272.398L466.92 221.945Z" fill="url(#paint16_linear_234_70229)"/>
<path d="M292.242 221.944V236.458L379.583 286.913V272.399L292.242 221.944Z" fill="#312A91"/>
<path opacity="0.7" d="M292.242 221.944V236.458L379.583 286.913V272.399L292.242 221.944Z" fill="url(#paint17_linear_234_70229)"/>
<path d="M379.583 256.424L292.242 205.97L379.58 155.517L466.921 205.971L379.583 256.424Z" fill="#312A91"/>
<path d="M379.583 241.91L292.242 191.456L379.58 141.003L466.921 191.457L379.583 241.91Z" fill="#312A91"/>
<path opacity="0.7" d="M379.583 241.91L292.242 191.456L379.58 141.003L466.921 191.457L379.583 241.91Z" fill="url(#paint18_linear_234_70229)"/>
<path opacity="0.3" d="M379.582 210.137L347.244 191.456L379.581 172.776L411.918 191.457L379.582 210.137Z" fill="#42E8E0"/>
<path opacity="0.3" d="M379.581 185.456L400.944 197.797L411.918 191.457L379.581 172.776L347.244 191.456L358.219 197.796L379.581 185.456Z" fill="#42E8E0"/>
<path d="M379.581 185.456L400.944 197.797L411.918 191.457L379.581 172.776L347.244 191.456L358.219 197.796L379.581 185.456Z" fill="#42E8E0"/>
<path d="M466.92 191.457V205.971L379.582 256.424V241.91L466.92 191.457Z" fill="url(#paint19_linear_234_70229)"/>
<path d="M292.242 191.456V205.97L379.583 256.424V241.911L292.242 191.456Z" fill="#312A91"/>
<path opacity="0.7" d="M292.242 191.456V205.97L379.583 256.424V241.911L292.242 191.456Z" fill="url(#paint20_linear_234_70229)"/>
<path opacity="0.3" d="M379.583 256.424V272.399L292.242 221.944V205.97L379.583 256.424Z" fill="#42E8E0"/>
<path opacity="0.3" d="M312.148 217.469V221.944L379.582 260.899L447.014 221.945V217.47L379.582 256.424L312.148 217.469Z" fill="#42E8E0"/>
<path opacity="0.3" d="M379.582 256.424V260.899L312.148 221.944V217.469L379.582 256.424Z" fill="#42E8E0"/>
<path opacity="0.5" d="M292.242 205.97V221.944L379.583 272.399L466.921 221.946V205.971L379.583 256.424L292.242 205.97Z" fill="#5CFFF3"/>
<path d="M294.305 191.456L380.612 141.599L379.58 141.003L292.242 191.456L379.583 241.91L380.614 241.315L294.305 191.456Z" fill="url(#paint21_linear_234_70229)"/>
<path opacity="0.5" d="M292.242 205.97V221.944L293.443 222.638V206.663L292.242 205.97Z" fill="#42E8E0"/>
<path opacity="0.5" d="M466.92 205.97V221.944L465.719 222.638V206.663L466.92 205.97Z" fill="#42E8E0"/>
<path opacity="0.5" d="M379.584 256.424H379.583L377.521 255.233V271.223L379.583 272.399V272.399L379.583 272.399L379.584 272.399V272.399L381.645 271.223V255.233L379.584 256.424Z" fill="#42E8E0"/>
<path d="M379.583 229.476L292.242 179.021L379.58 128.568L466.921 179.023L379.583 229.476Z" fill="#312A91"/>
<path d="M379.583 214.962L292.242 164.508L379.58 114.055L466.921 164.509L379.583 214.962Z" fill="#312A91"/>
<path opacity="0.7" d="M379.582 203.462L312.148 164.507L379.58 125.554L447.014 164.509L379.582 203.462Z" fill="url(#paint22_linear_234_70229)"/>
<path d="M466.922 164.51V179.024L379.584 229.476V214.963L466.922 164.51Z" fill="url(#paint23_linear_234_70229)"/>
<path d="M292.242 164.508V179.022L379.583 229.476V214.962L292.242 164.508Z" fill="#312A91"/>
<path opacity="0.7" d="M292.242 164.508V179.022L379.583 229.476V214.962L292.242 164.508Z" fill="url(#paint24_linear_234_70229)"/>
<path d="M379.583 198.987L292.242 148.533L379.58 98.0801L466.921 148.535L379.583 198.987Z" fill="#312A91"/>
<path d="M379.583 184.474L292.242 134.019L379.58 83.5664L466.921 134.021L379.583 184.474Z" fill="#312A91"/>
<path opacity="0.7" d="M379.583 184.474L292.242 134.019L379.58 83.5664L466.921 134.021L379.583 184.474Z" fill="url(#paint25_linear_234_70229)"/>
<path d="M466.922 134.021V148.535L379.584 198.988V184.474L466.922 134.021Z" fill="url(#paint26_linear_234_70229)"/>
<path d="M292.242 134.02V148.533L379.583 198.988V184.474L292.242 134.02Z" fill="#312A91"/>
<path opacity="0.7" d="M292.242 134.02V148.533L379.583 198.988V184.474L292.242 134.02Z" fill="url(#paint27_linear_234_70229)"/>
<path opacity="0.3" d="M379.583 198.988V214.962L292.242 164.508V148.533L379.583 198.988Z" fill="#42E8E0"/>
<path opacity="0.3" d="M312.148 160.033V164.508L379.582 203.463L447.014 164.509V160.034L379.582 198.988L312.148 160.033Z" fill="#42E8E0"/>
<path opacity="0.3" d="M379.582 198.988V203.463L312.148 164.508V160.033L379.582 198.988Z" fill="#42E8E0"/>
<path opacity="0.5" d="M292.242 148.533V164.508L379.583 214.962L466.921 164.509V148.535L379.583 198.988L292.242 148.533Z" fill="#5CFFF3"/>
<path d="M294.305 134.019L380.612 84.1623L379.58 83.5664L292.242 134.019L379.583 184.474L380.614 183.878L294.305 134.019Z" fill="url(#paint28_linear_234_70229)"/>
<path opacity="0.5" d="M292.242 148.533V164.508L293.443 165.201V149.227L292.242 148.533Z" fill="#42E8E0"/>
<path opacity="0.5" d="M466.92 148.533V164.508L465.719 165.201V149.227L466.92 148.533Z" fill="#42E8E0"/>
<path opacity="0.5" d="M379.584 198.988H379.583L377.521 197.797V213.787L379.583 214.962V214.962L379.583 214.962L379.584 214.962V214.962L381.645 213.787V197.797L379.584 198.988Z" fill="#42E8E0"/>
<path d="M676.848 574.646L589.508 524.191L676.846 473.738L764.186 524.193L676.848 574.646Z" fill="#312A91"/>
<path d="M676.848 560.132L589.508 509.678L676.846 459.225L764.186 509.679L676.848 560.132Z" fill="#312A91"/>
<path opacity="0.7" d="M676.848 548.632L609.414 509.677L676.846 470.724L744.28 509.678L676.848 548.632Z" fill="url(#paint29_linear_234_70229)"/>
<path d="M764.186 509.679V524.192L676.848 574.645V560.132L764.186 509.679Z" fill="url(#paint30_linear_234_70229)"/>
<path d="M589.508 509.678V524.192L676.848 574.646V560.132L589.508 509.678Z" fill="#312A91"/>
<path opacity="0.7" d="M589.508 509.678V524.192L676.848 574.646V560.132L589.508 509.678Z" fill="url(#paint31_linear_234_70229)"/>
<path d="M676.848 544.157L589.508 493.703L676.846 443.25L764.186 493.704L676.848 544.157Z" fill="#312A91"/>
<path d="M676.848 529.644L589.508 479.189L676.846 428.736L764.186 479.191L676.848 529.644Z" fill="#312A91"/>
<path opacity="0.7" d="M676.848 529.644L589.508 479.189L676.846 428.736L764.186 479.191L676.848 529.644Z" fill="url(#paint32_linear_234_70229)"/>
<path opacity="0.3" d="M676.847 497.87L644.51 479.19L676.846 460.51L709.184 479.19L676.847 497.87Z" fill="#42E8E0"/>
<path opacity="0.3" d="M676.846 473.189L698.209 485.53L709.184 479.19L676.846 460.51L644.51 479.19L655.484 485.529L676.846 473.189Z" fill="#42E8E0"/>
<path d="M676.846 473.189L698.209 485.53L709.184 479.19L676.846 460.51L644.51 479.19L655.484 485.529L676.846 473.189Z" fill="#42E8E0"/>
<path d="M764.186 479.19V493.704L676.848 544.157V529.643L764.186 479.19Z" fill="url(#paint33_linear_234_70229)"/>
<path d="M589.508 479.189V493.703L676.848 544.158V529.644L589.508 479.189Z" fill="#312A91"/>
<path opacity="0.7" d="M589.508 479.189V493.703L676.848 544.158V529.644L589.508 479.189Z" fill="url(#paint34_linear_234_70229)"/>
<path opacity="0.3" d="M676.848 544.158V560.132L589.508 509.678V493.703L676.848 544.158Z" fill="#42E8E0"/>
<path opacity="0.3" d="M609.414 505.202V509.677L676.848 548.632L744.28 509.678V505.203L676.848 544.157L609.414 505.202Z" fill="#42E8E0"/>
<path opacity="0.3" d="M676.848 544.157V548.632L609.414 509.677V505.202L676.848 544.157Z" fill="#42E8E0"/>
<path opacity="0.5" d="M589.508 493.703V509.678L676.848 560.132L764.186 509.679V493.705L676.848 544.158L589.508 493.703Z" fill="#5CFFF3"/>
<path d="M591.571 479.189L677.877 429.332L676.846 428.736L589.508 479.189L676.848 529.644L677.88 529.048L591.571 479.189Z" fill="url(#paint35_linear_234_70229)"/>
<path opacity="0.5" d="M589.508 493.703V509.678L590.709 510.372V494.397L589.508 493.703Z" fill="#42E8E0"/>
<path opacity="0.5" d="M764.185 493.703V509.678L762.984 510.372V494.397L764.185 493.703Z" fill="#42E8E0"/>
<path opacity="0.5" d="M676.849 544.158H676.849L674.787 542.967V558.957L676.849 560.132V560.132L676.849 560.132V560.132V560.132L678.911 558.957V542.967L676.849 544.158Z" fill="#42E8E0"/>
<path d="M676.848 517.209L589.508 466.755L676.846 416.302L764.186 466.756L676.848 517.209Z" fill="#312A91"/>
<path d="M676.848 502.696L589.508 452.241L676.846 401.788L764.186 452.243L676.848 502.696Z" fill="#312A91"/>
<path opacity="0.7" d="M676.848 491.196L609.414 452.241L676.846 413.287L744.28 452.242L676.848 491.196Z" fill="url(#paint36_linear_234_70229)"/>
<path d="M764.186 452.242V466.756L676.848 517.209V502.695L764.186 452.242Z" fill="url(#paint37_linear_234_70229)"/>
<path d="M589.508 452.241V466.755L676.848 517.209V502.696L589.508 452.241Z" fill="#312A91"/>
<path opacity="0.7" d="M589.508 452.241V466.755L676.848 517.209V502.696L589.508 452.241Z" fill="url(#paint38_linear_234_70229)"/>
<path d="M676.848 486.721L589.508 436.266L676.846 385.813L764.186 436.268L676.848 486.721Z" fill="#312A91"/>
<path d="M676.848 472.207L589.508 421.753L676.846 371.3L764.186 421.754L676.848 472.207Z" fill="#312A91"/>
<path opacity="0.7" d="M676.848 472.207L589.508 421.753L676.846 371.3L764.186 421.754L676.848 472.207Z" fill="url(#paint39_linear_234_70229)"/>
<path opacity="0.3" d="M676.847 440.434L644.51 421.753L676.846 403.073L709.184 421.754L676.847 440.434Z" fill="#42E8E0"/>
<path opacity="0.3" d="M676.846 415.753L698.209 428.093L709.184 421.754L676.846 403.073L644.51 421.753L655.484 428.093L676.846 415.753Z" fill="#42E8E0"/>
<path d="M676.846 415.753L698.209 428.093L709.184 421.754L676.846 403.073L644.51 421.753L655.484 428.093L676.846 415.753Z" fill="#42E8E0"/>
<path d="M764.186 421.754V436.268L676.848 486.721V472.207L764.186 421.754Z" fill="url(#paint40_linear_234_70229)"/>
<path d="M589.508 421.753V436.267L676.848 486.721V472.207L589.508 421.753Z" fill="#312A91"/>
<path opacity="0.7" d="M589.508 421.753V436.267L676.848 486.721V472.207L589.508 421.753Z" fill="url(#paint41_linear_234_70229)"/>
<path opacity="0.3" d="M676.848 486.721V502.695L589.508 452.241V436.267L676.848 486.721Z" fill="#42E8E0"/>
<path opacity="0.3" d="M609.414 447.766V452.241L676.848 491.195L744.28 452.242V447.767L676.848 486.72L609.414 447.766Z" fill="#42E8E0"/>
<path opacity="0.3" d="M676.848 486.72V491.195L609.414 452.241V447.766L676.848 486.72Z" fill="#42E8E0"/>
<path opacity="0.5" d="M589.508 436.267V452.241L676.848 502.695L764.186 452.242V436.268L676.848 486.721L589.508 436.267Z" fill="#5CFFF3"/>
<path d="M591.571 421.753L677.877 371.896L676.846 371.3L589.508 421.753L676.848 472.207L677.88 471.611L591.571 421.753Z" fill="url(#paint42_linear_234_70229)"/>
<path opacity="0.5" d="M589.508 436.267V452.241L590.709 452.935V436.96L589.508 436.267Z" fill="#42E8E0"/>
<path opacity="0.5" d="M764.185 436.267V452.241L762.984 452.935V436.96L764.185 436.267Z" fill="#42E8E0"/>
<path opacity="0.5" d="M676.849 486.72H676.849L674.787 485.529V501.519L676.849 502.695V502.695L676.849 502.695V502.695V502.695L678.911 501.519V485.529L676.849 486.72Z" fill="#42E8E0"/>
<path d="M676.848 459.772L589.508 409.317L676.846 358.864L764.186 409.319L676.848 459.772Z" fill="#312A91"/>
<path d="M676.848 445.258L589.508 394.804L676.846 344.351L764.186 394.805L676.848 445.258Z" fill="#312A91"/>
<path opacity="0.7" d="M676.848 433.758L609.414 394.803L676.846 355.85L744.28 394.804L676.848 433.758Z" fill="url(#paint43_linear_234_70229)"/>
<path d="M764.186 394.805V409.319L676.848 459.771V445.258L764.186 394.805Z" fill="url(#paint44_linear_234_70229)"/>
<path d="M589.508 394.804V409.318L676.848 459.772V445.258L589.508 394.804Z" fill="#312A91"/>
<path opacity="0.7" d="M589.508 394.804V409.318L676.848 459.772V445.258L589.508 394.804Z" fill="url(#paint45_linear_234_70229)"/>
<path d="M676.848 429.283L589.508 378.829L676.846 328.376L764.186 378.83L676.848 429.283Z" fill="#312A91"/>
<path d="M676.848 414.77L589.508 364.315L676.846 313.862L764.186 364.317L676.848 414.77Z" fill="#312A91"/>
<path opacity="0.7" d="M676.848 414.77L589.508 364.315L676.846 313.862L764.186 364.317L676.848 414.77Z" fill="url(#paint46_linear_234_70229)"/>
<path opacity="0.3" d="M676.847 382.996L644.51 364.316L676.846 345.636L709.184 364.316L676.847 382.996Z" fill="#42E8E0"/>
<path opacity="0.3" d="M676.846 358.315L698.209 370.656L709.184 364.316L676.846 345.636L644.51 364.316L655.484 370.655L676.846 358.315Z" fill="#42E8E0"/>
<path d="M676.846 358.315L698.209 370.656L709.184 364.316L676.846 345.636L644.51 364.316L655.484 370.655L676.846 358.315Z" fill="#42E8E0"/>
<path d="M764.186 364.316V378.83L676.848 429.283V414.769L764.186 364.316Z" fill="url(#paint47_linear_234_70229)"/>
<path d="M589.508 364.315V378.829L676.848 429.284V414.77L589.508 364.315Z" fill="#312A91"/>
<path opacity="0.7" d="M589.508 364.315V378.829L676.848 429.284V414.77L589.508 364.315Z" fill="url(#paint48_linear_234_70229)"/>
<path opacity="0.3" d="M676.848 429.283V445.258L589.508 394.803V378.829L676.848 429.283Z" fill="#42E8E0"/>
<path opacity="0.3" d="M609.414 390.328V394.803L676.848 433.758L744.28 394.804V390.329L676.848 429.283L609.414 390.328Z" fill="#42E8E0"/>
<path opacity="0.3" d="M676.848 429.283V433.758L609.414 394.803V390.328L676.848 429.283Z" fill="#42E8E0"/>
<path opacity="0.5" d="M589.508 378.829V394.803L676.848 445.258L764.186 394.805V378.83L676.848 429.283L589.508 378.829Z" fill="#5CFFF3"/>
<path d="M591.571 364.315L677.877 314.458L676.846 313.862L589.508 364.315L676.848 414.77L677.88 414.174L591.571 364.315Z" fill="url(#paint49_linear_234_70229)"/>
<path opacity="0.5" d="M589.508 378.829V394.803L590.709 395.497V379.523L589.508 378.829Z" fill="#42E8E0"/>
<path opacity="0.5" d="M764.185 378.829V394.803L762.984 395.497V379.523L764.185 378.829Z" fill="#42E8E0"/>
<path opacity="0.5" d="M676.849 429.284H676.849L674.787 428.093V444.083L676.849 445.258V445.258L676.849 445.258V445.258V445.258L678.911 444.083V428.093L676.849 429.284Z" fill="#42E8E0"/>
<path d="M676.848 402.335L589.508 351.881L676.846 301.428L764.186 351.882L676.848 402.335Z" fill="#312A91"/>
<path d="M676.848 387.822L589.508 337.367L676.846 286.914L764.186 337.369L676.848 387.822Z" fill="#312A91"/>
<path opacity="0.7" d="M676.848 376.322L609.414 337.367L676.846 298.413L744.28 337.368L676.848 376.322Z" fill="url(#paint50_linear_234_70229)"/>
<path d="M764.186 337.369V351.883L676.848 402.336V387.822L764.186 337.369Z" fill="url(#paint51_linear_234_70229)"/>
<path d="M589.508 337.367V351.881L676.848 402.335V387.822L589.508 337.367Z" fill="#312A91"/>
<path opacity="0.7" d="M589.508 337.367V351.881L676.848 402.335V387.822L589.508 337.367Z" fill="url(#paint52_linear_234_70229)"/>
<path d="M676.848 371.847L589.508 321.392L676.846 270.939L764.186 321.394L676.848 371.847Z" fill="#312A91"/>
<path d="M676.848 357.333L589.508 306.879L676.846 256.426L764.186 306.88L676.848 357.333Z" fill="#312A91"/>
<path opacity="0.7" d="M676.848 357.333L589.508 306.879L676.846 256.426L764.186 306.88L676.848 357.333Z" fill="url(#paint53_linear_234_70229)"/>
<path d="M764.186 306.881V321.395L676.848 371.848V357.334L764.186 306.881Z" fill="url(#paint54_linear_234_70229)"/>
<path d="M589.508 306.879V321.393L676.848 371.847V357.333L589.508 306.879Z" fill="#312A91"/>
<path opacity="0.7" d="M589.508 306.879V321.393L676.848 371.847V357.333L589.508 306.879Z" fill="url(#paint55_linear_234_70229)"/>
<path opacity="0.3" d="M676.848 371.847V387.821L589.508 337.367V321.393L676.848 371.847Z" fill="#42E8E0"/>
<path opacity="0.3" d="M609.414 332.893V337.368L676.848 376.322L744.28 337.369V332.894L676.848 371.847L609.414 332.893Z" fill="#42E8E0"/>
<path opacity="0.3" d="M676.848 371.847V376.322L609.414 337.368V332.893L676.848 371.847Z" fill="#42E8E0"/>
<path opacity="0.5" d="M589.508 321.393V337.367L676.848 387.821L764.186 337.368V321.394L676.848 371.847L589.508 321.393Z" fill="#5CFFF3"/>
<path d="M591.571 306.879L677.877 257.022L676.846 256.426L589.508 306.879L676.848 357.333L677.88 356.737L591.571 306.879Z" fill="url(#paint56_linear_234_70229)"/>
<path opacity="0.5" d="M589.508 321.393V337.367L590.709 338.061V322.086L589.508 321.393Z" fill="#42E8E0"/>
<path opacity="0.5" d="M764.185 321.393V337.367L762.984 338.061V322.086L764.185 321.393Z" fill="#42E8E0"/>
<path opacity="0.5" d="M676.849 371.847H676.849L674.787 370.656V386.646L676.849 387.821V387.822L676.849 387.821V387.822V387.821L678.911 386.646V370.656L676.849 371.847Z" fill="#42E8E0"/>
<path d="M448.968 542.2V528.701H414.166L373.018 504.932C367.527 501.759 357.935 502.157 351.594 505.82L311.985 528.701H277.156V542.964H277.185C277.028 545.111 278.225 547.183 280.864 548.708L353.135 590.457C358.626 593.629 368.218 593.231 374.559 589.568L443.751 549.598C447.409 547.485 449.174 544.748 448.968 542.2Z" fill="#312A91"/>
<path opacity="0.5" d="M448.968 542.2V528.701H414.166L373.018 504.932C367.527 501.759 357.935 502.157 351.594 505.82L311.985 528.701H277.156V542.964H277.185C277.028 545.111 278.225 547.183 280.864 548.708L353.135 590.457C358.626 593.629 368.218 593.231 374.559 589.568L443.751 549.598C447.409 547.485 449.174 544.748 448.968 542.2Z" fill="url(#paint57_linear_234_70229)"/>
<path d="M373.018 504.931C370.378 503.406 366.789 502.714 363.07 502.806V592.582C367.091 592.485 371.263 591.472 374.559 589.568L443.751 549.597C447.409 547.484 449.174 544.747 448.968 542.199V528.701H414.166L373.018 504.931Z" fill="url(#paint58_linear_234_70229)"/>
<path d="M353.135 576.194L280.864 534.445C275.372 531.272 276.061 525.731 282.402 522.068L351.594 482.098C357.935 478.435 367.527 478.037 373.019 481.209L445.289 522.958C450.781 526.131 450.092 531.672 443.751 535.335L374.559 575.305C368.218 578.968 358.626 579.366 353.135 576.194Z" fill="#312A91"/>
<path opacity="0.5" d="M353.135 576.194L280.864 534.445C275.372 531.272 276.061 525.731 282.402 522.068L351.594 482.098C357.935 478.435 367.527 478.037 373.019 481.209L445.289 522.958C450.781 526.131 450.092 531.672 443.751 535.335L374.559 575.305C368.218 578.968 358.626 579.366 353.135 576.194Z" fill="url(#paint59_linear_234_70229)"/>
<path d="M355.066 566.967L296.837 533.33C292.412 530.774 292.967 526.309 298.076 523.358L353.824 491.153C358.933 488.202 366.662 487.881 371.086 490.438L429.315 524.075C433.74 526.631 433.185 531.095 428.076 534.047L372.328 566.251C367.219 569.202 359.49 569.523 355.066 566.967Z" fill="#5CFFF3"/>
<path d="M298.076 527.72L353.824 495.516C358.933 492.564 366.661 492.244 371.086 494.8L429.315 528.437C430.407 529.068 431.194 529.816 431.686 530.629C432.969 528.268 432.229 525.757 429.315 524.074L371.086 490.436C366.661 487.881 358.933 488.201 353.824 491.152L298.076 523.357C294.228 525.579 292.966 528.66 294.466 531.137C295.132 529.913 296.331 528.728 298.076 527.72Z" fill="#42E8E0"/>
<path opacity="0.5" d="M355.561 576.194L283.29 534.445C277.799 531.272 276.486 526.613 284.828 522.068L354.02 482.097C357.139 480.296 361.043 479.289 364.86 479.103C360.321 478.898 355.379 479.911 351.594 482.097L282.402 522.068C276.061 525.731 275.372 531.272 280.864 534.445L353.135 576.194C355.926 577.806 359.776 578.491 363.72 578.299C360.656 578.161 357.774 577.472 355.561 576.194Z" fill="url(#paint60_linear_234_70229)"/>
<path opacity="0.5" d="M443.751 541.363L374.559 581.334C368.218 584.997 358.626 585.395 353.135 582.223L280.864 540.473C278.225 538.949 277.028 536.877 277.185 534.73H277.156V537.686H277.185C277.028 539.833 278.225 541.905 280.864 543.429L353.135 585.178C358.626 588.351 368.218 587.953 374.559 584.29L443.751 544.319C447.409 542.206 449.174 539.469 448.968 536.922V533.966C449.174 536.514 447.409 539.25 443.751 541.363Z" fill="url(#paint61_linear_234_70229)"/>
<path d="M431.204 537.427C431.992 537.882 431.992 538.621 431.204 539.077C430.415 539.532 429.136 539.532 428.347 539.077C427.559 538.621 427.559 537.882 428.347 537.427C429.136 536.971 430.415 536.971 431.204 537.427Z" fill="#FCCC6B"/>
<path d="M435.651 534.858C436.44 535.314 436.44 536.053 435.651 536.508C434.862 536.964 433.583 536.964 432.795 536.508C432.006 536.053 432.006 535.314 432.795 534.858C433.583 534.403 434.862 534.403 435.651 534.858Z" fill="#FCCC6B"/>
<path d="M440.1 532.288C440.889 532.744 440.889 533.482 440.1 533.938C439.311 534.394 438.033 534.394 437.244 533.938C436.455 533.482 436.455 532.744 437.244 532.288C438.033 531.832 439.311 531.833 440.1 532.288Z" fill="#FCCC6B"/>
<path opacity="0.5" d="M356.793 558.819L311.117 532.433C307.646 530.429 308.081 526.926 312.089 524.611L355.819 499.35C359.826 497.035 365.889 496.783 369.359 498.788L415.035 525.174C418.506 527.179 418.071 530.681 414.063 532.996L370.333 558.258C366.326 560.573 360.263 560.824 356.793 558.819Z" fill="#0B0244"/>
<path opacity="0.5" d="M336.646 490.732L277.156 490.996V528.701H277.185C277.028 530.847 278.225 532.92 280.864 534.444L353.135 576.193C355.771 577.716 359.357 578.394 363.07 578.306V483.545H349.087L336.646 490.732Z" fill="#5CFFF3"/>
<path opacity="0.5" d="M448.968 528.701C448.987 528.445 448.989 528.19 448.968 527.937V490.233L389.1 490.499L373.019 481.209C367.527 478.037 357.935 478.435 351.594 482.098L336.646 490.732L277.156 490.997V528.701H277.185C277.028 530.848 278.225 532.92 280.864 534.445L353.135 576.194C358.626 579.366 368.218 578.968 374.559 575.305L443.751 535.335C447.046 533.432 448.799 531.023 448.968 528.701V528.701Z" fill="#5CFFF3"/>
<path d="M448.968 490.232V476.734H414.166L373.018 452.964C367.527 449.792 357.935 450.189 351.594 453.852L311.985 476.734H277.156V490.997H277.185C277.028 493.144 278.225 495.216 280.864 496.74L353.135 538.489C358.626 541.661 368.218 541.264 374.559 537.601L443.751 497.63C447.409 495.517 449.174 492.78 448.968 490.232Z" fill="#312A91"/>
<path opacity="0.5" d="M448.968 490.232V476.734H414.166L373.018 452.964C367.527 449.792 357.935 450.189 351.594 453.852L311.985 476.734H277.156V490.997H277.185C277.028 493.144 278.225 495.216 280.864 496.74L353.135 538.489C358.626 541.661 368.218 541.264 374.559 537.601L443.751 497.63C447.409 495.517 449.174 492.78 448.968 490.232Z" fill="url(#paint62_linear_234_70229)"/>
<path d="M373.018 452.963C370.378 451.438 366.789 450.747 363.07 450.838V540.614C367.091 540.517 371.263 539.504 374.559 537.6L443.751 497.629C447.409 495.516 449.174 492.78 448.968 490.232V476.733H414.166L373.018 452.963Z" fill="url(#paint63_linear_234_70229)"/>
<path d="M353.135 524.226L280.864 482.477C275.372 479.304 276.061 473.763 282.402 470.1L351.594 430.13C357.935 426.467 367.527 426.069 373.019 429.241L445.289 470.99C450.781 474.163 450.092 479.704 443.751 483.367L374.559 523.337C368.218 527 358.626 527.398 353.135 524.226Z" fill="#312A91"/>
<path opacity="0.5" d="M353.135 524.226L280.864 482.477C275.372 479.304 276.061 473.763 282.402 470.1L351.594 430.13C357.935 426.467 367.527 426.069 373.019 429.241L445.289 470.99C450.781 474.163 450.092 479.704 443.751 483.367L374.559 523.337C368.218 527 358.626 527.398 353.135 524.226Z" fill="url(#paint64_linear_234_70229)"/>
<path opacity="0.5" d="M355.561 524.226L283.29 482.477C277.799 479.304 276.486 474.646 284.828 470.1L354.02 430.13C357.139 428.328 361.043 427.321 364.86 427.135C360.321 426.93 355.379 427.943 351.594 430.13L282.402 470.1C276.061 473.763 275.372 479.304 280.864 482.477L353.135 524.226C355.926 525.838 359.776 526.524 363.72 526.332C360.656 526.193 357.774 525.504 355.561 524.226Z" fill="url(#paint65_linear_234_70229)"/>
<path opacity="0.5" d="M443.751 489.396L374.559 529.366C368.218 533.029 358.626 533.427 353.135 530.255L280.864 488.506C278.225 486.981 277.028 484.909 277.185 482.762H277.156V485.718H277.185C277.028 487.865 278.225 489.937 280.864 491.461L353.135 533.211C358.626 536.383 368.218 535.985 374.559 532.322L443.751 492.352C447.409 490.239 449.174 487.502 448.968 484.954V481.998C449.174 484.546 447.409 487.283 443.751 489.396Z" fill="url(#paint66_linear_234_70229)"/>
<path opacity="0.2" d="M357.33 479.755C358.831 480.622 358.831 482.028 357.33 482.895C355.83 483.762 353.396 483.762 351.895 482.894C350.394 482.028 350.394 480.622 351.895 479.755C353.396 478.888 355.829 478.888 357.33 479.755Z" fill="#5CFFF3"/>
<path opacity="0.6" d="M365.795 474.865C367.296 475.732 367.296 477.138 365.795 478.005C364.294 478.872 361.861 478.872 360.36 478.005C358.859 477.138 358.859 475.732 360.36 474.865C361.861 473.998 364.294 473.998 365.795 474.865Z" fill="#5CFFF3"/>
<path d="M374.26 469.975C375.761 470.843 375.761 472.248 374.26 473.115C372.759 473.982 370.326 473.982 368.825 473.115C367.324 472.248 367.324 470.843 368.825 469.975C370.326 469.108 372.759 469.108 374.26 469.975Z" fill="#5CFFF3"/>
<path opacity="0.5" d="M362.604 513.966C359.924 513.966 357.363 513.425 355.453 512.322L302.015 481.452C300.072 480.329 299.002 478.751 299.002 477.006C299.002 474.94 300.514 472.881 303.153 471.356L354.313 441.802C359.143 439.011 366.495 438.717 370.7 441.145L424.137 472.015C426.081 473.138 427.151 474.716 427.151 476.461C427.151 478.529 425.638 480.588 423.001 482.111L371.839 511.665C369.204 513.187 365.818 513.966 362.604 513.966ZM355.998 511.378C359.901 513.634 366.765 513.339 371.294 510.721L422.455 481.166C424.747 479.842 426.061 478.128 426.061 476.461C426.061 475.123 425.184 473.879 423.592 472.959L370.155 442.09C366.25 439.833 359.388 440.129 354.859 442.746L303.698 472.301C301.406 473.625 300.091 475.34 300.092 477.006C300.092 478.344 300.968 479.588 302.561 480.508L355.998 511.378Z" fill="#0B0244"/>
<path d="M276.05 275.772V262.274H241.248L200.1 238.504C194.609 235.332 185.017 235.729 178.676 239.392L139.067 262.274H104.238V276.537H104.267C104.11 278.684 105.307 280.756 107.946 282.28L180.217 324.029C185.708 327.201 195.3 326.804 201.641 323.141L270.833 283.17C274.491 281.057 276.256 278.32 276.05 275.772Z" fill="#312A91"/>
<path opacity="0.5" d="M276.05 275.772V262.274H241.248L200.1 238.504C194.609 235.332 185.017 235.729 178.676 239.392L139.067 262.274H104.238V276.537H104.267C104.11 278.684 105.307 280.756 107.946 282.28L180.217 324.029C185.708 327.201 195.3 326.804 201.641 323.141L270.833 283.17C274.491 281.057 276.256 278.32 276.05 275.772Z" fill="url(#paint67_linear_234_70229)"/>
<path d="M200.1 238.504C197.46 236.979 193.871 236.288 190.152 236.379V326.155C194.173 326.058 198.345 325.045 201.641 323.141L270.833 283.17C274.491 281.057 276.256 278.321 276.05 275.773V262.274H241.248L200.1 238.504Z" fill="url(#paint68_linear_234_70229)"/>
<path d="M180.217 309.766L107.946 268.017C102.454 264.845 103.143 259.303 109.484 255.64L178.676 215.67C185.017 212.007 194.609 211.609 200.101 214.781L272.372 256.53C277.863 259.703 277.174 265.244 270.833 268.907L201.641 308.877C195.3 312.54 185.708 312.938 180.217 309.766Z" fill="#312A91"/>
<path opacity="0.5" d="M180.217 309.766L107.946 268.017C102.454 264.845 103.143 259.303 109.484 255.64L178.676 215.67C185.017 212.007 194.609 211.609 200.101 214.781L272.372 256.53C277.863 259.703 277.174 265.244 270.833 268.907L201.641 308.877C195.3 312.54 185.708 312.938 180.217 309.766Z" fill="url(#paint69_linear_234_70229)"/>
<path d="M182.148 300.538L123.919 266.901C119.494 264.345 120.049 259.88 125.158 256.929L180.906 224.725C186.015 221.773 193.744 221.453 198.168 224.009L256.397 257.646C260.822 260.202 260.267 264.667 255.158 267.618L199.41 299.822C194.301 302.774 186.572 303.094 182.148 300.538Z" fill="#5CFFF3"/>
<path d="M125.158 261.292L180.906 229.088C186.015 226.137 193.743 225.816 198.168 228.372L256.397 262.01C257.49 262.641 258.276 263.389 258.767 264.201C260.052 261.84 259.311 259.33 256.397 257.646L198.168 224.009C193.743 221.453 186.015 221.773 180.906 224.725L125.158 256.929C121.31 259.152 120.048 262.232 121.548 264.71C122.214 263.485 123.413 262.3 125.158 261.292Z" fill="#42E8E0"/>
<path opacity="0.5" d="M182.643 309.766L110.372 268.017C104.881 264.844 103.568 260.185 111.911 255.64L181.102 215.67C184.221 213.868 188.125 212.861 191.942 212.676C187.403 212.47 182.461 213.483 178.676 215.67L109.484 255.64C103.143 259.303 102.454 264.844 107.946 268.017L180.217 309.766C183.007 311.378 186.858 312.064 190.802 311.872C187.738 311.733 184.856 311.044 182.643 309.766Z" fill="url(#paint70_linear_234_70229)"/>
<path opacity="0.5" d="M270.833 274.936L201.641 314.906C195.3 318.569 185.708 318.967 180.217 315.795L107.946 274.046C105.307 272.521 104.11 270.449 104.267 268.302H104.238V271.258H104.267C104.11 273.405 105.307 275.477 107.946 277.001L180.217 318.75C185.708 321.923 195.3 321.525 201.641 317.862L270.833 277.892C274.491 275.778 276.256 273.042 276.05 270.494V267.538C276.256 270.086 274.491 272.823 270.833 274.936Z" fill="url(#paint71_linear_234_70229)"/>
<path d="M258.286 270.998C259.074 271.454 259.074 272.192 258.286 272.648C257.497 273.104 256.218 273.104 255.429 272.648C254.641 272.192 254.641 271.454 255.429 270.998C256.218 270.542 257.497 270.542 258.286 270.998Z" fill="#FCCC6B"/>
<path d="M262.733 268.43C263.522 268.885 263.522 269.624 262.733 270.08C261.944 270.535 260.666 270.535 259.877 270.08C259.088 269.624 259.088 268.885 259.877 268.43C260.665 267.974 261.944 267.974 262.733 268.43Z" fill="#FCCC6B"/>
<path d="M267.182 265.859C267.971 266.315 267.971 267.054 267.182 267.509C266.393 267.965 265.115 267.965 264.326 267.509C263.537 267.054 263.537 266.315 264.326 265.859C265.115 265.404 266.393 265.404 267.182 265.859Z" fill="#FCCC6B"/>
<path opacity="0.5" d="M183.874 292.392L138.199 266.006C134.728 264.001 135.163 260.499 139.171 258.184L182.901 232.922C186.908 230.607 192.971 230.355 196.441 232.36L242.117 258.746C245.588 260.751 245.153 264.253 241.145 266.568L197.415 291.83C193.408 294.145 187.345 294.397 183.874 292.392Z" fill="#0B0244"/>
<path opacity="0.5" d="M190.152 212.668C186.134 212.767 181.969 213.767 178.676 215.67L163.728 224.304L104.238 224.569V262.273H104.267C104.11 264.42 105.307 266.492 107.945 268.017L180.217 309.766C182.853 311.289 186.439 311.967 190.152 311.878V212.668Z" fill="#5CFFF3"/>
<path opacity="0.5" d="M276.05 262.274C276.069 262.017 276.071 261.763 276.05 261.509V223.805L216.182 224.071L200.101 214.781C194.609 211.609 185.017 212.007 178.676 215.67L163.728 224.304L104.238 224.569V262.274H104.267C104.11 264.421 105.307 266.493 107.946 268.017L180.217 309.766C185.708 312.938 195.3 312.541 201.641 308.877L270.833 268.907C274.128 267.004 275.881 264.595 276.05 262.274V262.274Z" fill="#5CFFF3"/>
<path d="M276.05 223.805V210.306H241.248L200.1 186.536C194.609 183.364 185.017 183.762 178.676 187.425L139.067 210.306H104.238V224.569H104.267C104.11 226.716 105.307 228.788 107.946 230.312L180.217 272.061C185.708 275.234 195.3 274.836 201.641 271.173L270.833 231.202C274.491 229.089 276.256 226.352 276.05 223.805Z" fill="#312A91"/>
<path opacity="0.5" d="M276.05 223.805V210.306H241.248L200.1 186.536C194.609 183.364 185.017 183.762 178.676 187.425L139.067 210.306H104.238V224.569H104.267C104.11 226.716 105.307 228.788 107.946 230.312L180.217 272.061C185.708 275.234 195.3 274.836 201.641 271.173L270.833 231.202C274.491 229.089 276.256 226.352 276.05 223.805Z" fill="url(#paint72_linear_234_70229)"/>
<path d="M200.1 186.535C197.46 185.01 193.871 184.319 190.152 184.41V274.186C194.173 274.089 198.345 273.076 201.641 271.172L270.833 231.202C274.491 229.089 276.256 226.352 276.05 223.804V210.305H241.248L200.1 186.535Z" fill="url(#paint73_linear_234_70229)"/>
<path d="M180.217 257.798L107.946 216.049C102.454 212.877 103.143 207.336 109.484 203.672L178.676 163.702C185.017 160.039 194.609 159.641 200.101 162.813L272.372 204.563C277.863 207.735 277.174 213.276 270.833 216.939L201.641 256.91C195.3 260.573 185.708 260.971 180.217 257.798Z" fill="#312A91"/>
<path opacity="0.5" d="M180.217 257.798L107.946 216.049C102.454 212.877 103.143 207.336 109.484 203.672L178.676 163.702C185.017 160.039 194.609 159.641 200.101 162.813L272.372 204.563C277.863 207.735 277.174 213.276 270.833 216.939L201.641 256.91C195.3 260.573 185.708 260.971 180.217 257.798Z" fill="url(#paint74_linear_234_70229)"/>
<path opacity="0.5" d="M182.643 257.798L110.372 216.049C104.881 212.877 103.568 208.218 111.911 203.672L181.102 163.702C184.221 161.901 188.125 160.893 191.942 160.708C187.403 160.502 182.461 161.515 178.676 163.702L109.484 203.672C103.143 207.335 102.454 212.877 107.946 216.049L180.217 257.798C183.007 259.41 186.858 260.096 190.802 259.904C187.738 259.765 184.856 259.076 182.643 257.798Z" fill="url(#paint75_linear_234_70229)"/>
<path opacity="0.5" d="M270.833 222.968L201.641 262.939C195.3 266.602 185.708 266.999 180.217 263.827L107.946 222.078C105.307 220.554 104.11 218.482 104.267 216.335H104.238V219.29H104.267C104.11 221.437 105.307 223.509 107.946 225.034L180.217 266.783C185.708 269.955 195.3 269.557 201.641 265.894L270.833 225.924C274.491 223.811 276.256 221.074 276.05 218.526V215.57C276.256 218.118 274.491 220.855 270.833 222.968Z" fill="url(#paint76_linear_234_70229)"/>
<path opacity="0.2" d="M184.412 213.327C185.913 214.194 185.913 215.6 184.412 216.467C182.912 217.334 180.478 217.334 178.977 216.467C177.476 215.6 177.476 214.194 178.977 213.327C180.478 212.46 182.911 212.46 184.412 213.327Z" fill="#5CFFF3"/>
<path opacity="0.6" d="M192.877 208.437C194.378 209.304 194.378 210.71 192.877 211.577C191.376 212.444 188.943 212.444 187.442 211.577C185.941 210.71 185.941 209.304 187.442 208.437C188.943 207.57 191.376 207.57 192.877 208.437Z" fill="#5CFFF3"/>
<path d="M201.342 203.548C202.843 204.415 202.843 205.821 201.342 206.688C199.841 207.554 197.408 207.554 195.907 206.688C194.406 205.82 194.406 204.415 195.907 203.548C197.408 202.681 199.841 202.681 201.342 203.548Z" fill="#5CFFF3"/>
<path opacity="0.5" d="M189.686 247.539C187.007 247.539 184.445 246.998 182.535 245.894L129.098 215.025C127.154 213.903 126.084 212.323 126.084 210.577C126.084 208.512 127.597 206.453 130.235 204.928L181.396 175.375C186.228 172.582 193.578 172.287 197.783 174.718L251.22 205.587C253.164 206.709 254.234 208.289 254.234 210.035C254.233 212.1 252.72 214.159 250.083 215.682L198.922 245.237C196.286 246.76 192.901 247.539 189.686 247.539ZM190.631 174.146C187.615 174.146 184.427 174.883 181.941 176.32L130.78 205.873C128.488 207.196 127.174 208.912 127.174 210.577C127.174 211.917 128.051 213.161 129.644 214.081L183.08 244.949C186.984 247.204 193.848 246.908 198.377 244.292L249.537 214.738C251.829 213.414 253.143 211.7 253.143 210.035C253.143 208.695 252.267 207.451 250.675 206.531L197.237 175.663C195.476 174.645 193.111 174.146 190.631 174.146Z" fill="#0B0244"/>
<path opacity="0.5" d="M589.508 306.879V524.191L676.848 574.646V357.333L589.508 306.879Z" fill="#5CFFF3"/>
<path d="M675.576 347.166C672.375 347.166 669.318 346.523 667.038 345.205L568.011 288C565.759 286.698 564.519 284.885 564.518 282.893C564.518 280.508 566.296 278.112 569.397 276.319L665.648 220.719C671.438 217.374 680.238 217.016 685.263 219.916L784.292 277.123C786.544 278.426 787.785 280.239 787.785 282.232C787.783 284.616 786.006 287.011 782.905 288.802L686.654 344.405C683.491 346.232 679.429 347.166 675.576 347.166ZM667.339 344.683C672.199 347.488 680.728 347.13 686.354 343.882L782.605 288.279C785.513 286.599 787.182 284.395 787.182 282.232C787.182 280.463 786.049 278.834 783.991 277.646L684.962 220.439C680.102 217.63 671.573 217.991 665.949 221.241L569.698 276.842C566.789 278.522 565.12 280.728 565.12 282.893C565.12 284.66 566.254 286.289 568.311 287.477L667.339 344.683Z" fill="#6EE8FC"/>
<path d="M654.984 229.133C654.984 230.981 653.486 232.48 651.638 232.48C649.791 232.48 648.293 230.981 648.293 229.133C648.293 227.284 649.791 225.785 651.638 225.785C653.486 225.785 654.984 227.284 654.984 229.133Z" fill="#6EE8FC"/>
<path d="M579.622 272.753C579.622 274.602 578.125 276.101 576.277 276.101C574.429 276.101 572.932 274.602 572.932 272.753C572.932 270.905 574.429 269.406 576.277 269.406C578.125 269.406 579.622 270.905 579.622 272.753Z" fill="#6EE8FC"/>
<path d="M735.302 317.945C735.302 319.794 733.804 321.292 731.957 321.292C730.109 321.292 728.611 319.794 728.611 317.945C728.611 316.096 730.109 314.598 731.957 314.598C733.804 314.598 735.302 316.096 735.302 317.945Z" fill="#6EE8FC"/>
<path d="M757.056 305.119C757.056 306.967 755.558 308.466 753.711 308.466C751.863 308.466 750.365 306.967 750.365 305.119C750.365 303.27 751.863 301.771 753.711 301.771C755.558 301.771 757.056 303.27 757.056 305.119Z" fill="#6EE8FC"/>
<path d="M778.808 292.488C778.808 294.336 777.31 295.835 775.462 295.835C773.615 295.835 772.117 294.336 772.117 292.488C772.117 290.639 773.615 289.141 775.462 289.141C777.31 289.141 778.808 290.639 778.808 292.488Z" fill="#6EE8FC"/>
<path d="M190.713 254.252C187.512 254.252 184.456 253.607 182.176 252.289L83.1487 195.084C80.8967 193.782 79.6562 191.97 79.6562 189.977C79.6562 187.592 81.4347 185.196 84.5353 183.403L180.786 127.803C186.575 124.459 195.376 124.1 200.401 127.002L299.429 184.207C301.681 185.51 302.921 187.322 302.921 189.314C302.921 191.7 301.143 194.095 298.042 195.888L201.791 251.489C198.628 253.316 194.566 254.252 190.713 254.252ZM191.863 125.633C188.12 125.633 184.168 126.544 181.087 128.326L84.8358 183.926C81.9264 185.606 80.258 187.812 80.258 189.977C80.258 191.744 81.3915 193.373 83.4492 194.561L182.476 251.767C187.336 254.577 195.865 254.216 201.491 250.966L297.742 195.365C300.651 193.685 302.32 191.479 302.32 189.314C302.32 187.548 301.186 185.918 299.128 184.73L200.1 127.525C197.902 126.255 194.954 125.633 191.863 125.633Z" fill="#6EE8FC"/>
<path d="M170.12 136.216C170.12 138.065 168.623 139.564 166.775 139.564C164.927 139.564 163.43 138.065 163.43 136.216C163.43 134.368 164.927 132.869 166.775 132.869C168.623 132.869 170.12 134.368 170.12 136.216Z" fill="#6EE8FC"/>
<path d="M94.7611 179.837C94.7611 181.686 93.2633 183.185 91.4158 183.185C89.5681 183.185 88.0703 181.686 88.0703 179.837C88.0703 177.989 89.5681 176.49 91.4158 176.49C93.2633 176.49 94.7611 177.989 94.7611 179.837Z" fill="#6EE8FC"/>
<path d="M250.439 225.03C250.439 226.878 248.941 228.377 247.093 228.377C245.246 228.377 243.748 226.878 243.748 225.03C243.748 223.181 245.246 221.683 247.093 221.683C248.941 221.683 250.439 223.181 250.439 225.03Z" fill="#6EE8FC"/>
<path opacity="0.5" d="M292.242 134.02V351.332L379.583 401.786L379.583 184.474L292.242 134.02Z" fill="#5CFFF3"/>
</g>
<defs>
<radialGradient id="paint0_radial_234_70229" cx="0" cy="0" r="1" gradientUnits="userSpaceOnUse" gradientTransform="translate(406.168 391.641) scale(413.239 277.629)">
<stop stop-color="#42E8E0"/>
<stop offset="1" stop-color="#3CC8CC" stop-opacity="0"/>
</radialGradient>
<linearGradient id="paint1_linear_234_70229" x1="495.195" y1="400.258" x2="315.621" y2="301.833" gradientUnits="userSpaceOnUse">
<stop stop-color="#180D5B"/>
<stop offset="0.0949797" stop-color="#1A1660"/>
<stop offset="0.246615" stop-color="#1E2D6E"/>
<stop offset="0.435958" stop-color="#255385"/>
<stop offset="0.655545" stop-color="#2F87A5"/>
<stop offset="0.897808" stop-color="#3CCACE"/>
<stop offset="1" stop-color="#42E8E0"/>
</linearGradient>
<linearGradient id="paint2_linear_234_70229" x1="350.549" y1="369.304" x2="475.406" y2="369.304" gradientUnits="userSpaceOnUse">
<stop stop-color="#2B237C"/>
<stop offset="1" stop-color="#180D5B"/>
</linearGradient>
<linearGradient id="paint3_linear_234_70229" x1="388.719" y1="399.338" x2="274.972" y2="334.713" gradientUnits="userSpaceOnUse">
<stop stop-color="#180D5B"/>
<stop offset="0.0951337" stop-color="#1A1560"/>
<stop offset="0.246466" stop-color="#1E2D6E"/>
<stop offset="0.281939" stop-color="#1F3372"/>
<stop offset="0.377856" stop-color="#22447C"/>
<stop offset="0.5681" stop-color="#2B7097"/>
<stop offset="0.831953" stop-color="#39B7C2"/>
<stop offset="1" stop-color="#42E8E0"/>
</linearGradient>
<linearGradient id="paint4_linear_234_70229" x1="437.816" y1="344.176" x2="291.276" y2="249.051" gradientUnits="userSpaceOnUse">
<stop stop-color="#180D5B"/>
<stop offset="0.0949797" stop-color="#1A1660"/>
<stop offset="0.246615" stop-color="#1E2D6E"/>
<stop offset="0.435958" stop-color="#255385"/>
<stop offset="0.655545" stop-color="#2F87A5"/>
<stop offset="0.897808" stop-color="#3CCACE"/>
<stop offset="1" stop-color="#42E8E0"/>
</linearGradient>
<linearGradient id="paint5_linear_234_70229" x1="350.549" y1="338.815" x2="475.406" y2="338.815" gradientUnits="userSpaceOnUse">
<stop stop-color="#2B237C"/>
<stop offset="1" stop-color="#180D5B"/>
</linearGradient>
<linearGradient id="paint6_linear_234_70229" x1="374.171" y1="360.396" x2="271.804" y2="302.715" gradientUnits="userSpaceOnUse">
<stop stop-color="#180D5B"/>
<stop offset="0.0951337" stop-color="#1A1560"/>
<stop offset="0.246466" stop-color="#1E2D6E"/>
<stop offset="0.281939" stop-color="#1F3372"/>
<stop offset="0.377856" stop-color="#22447C"/>
<stop offset="0.5681" stop-color="#2B7097"/>
<stop offset="0.831953" stop-color="#39B7C2"/>
<stop offset="1" stop-color="#42E8E0"/>
</linearGradient>
<linearGradient id="paint7_linear_234_70229" x1="408.69" y1="312.908" x2="290.913" y2="286.326" gradientUnits="userSpaceOnUse">
<stop stop-color="#180D5B"/>
<stop offset="0.0949797" stop-color="#1A1660"/>
<stop offset="0.246615" stop-color="#1E2D6E"/>
<stop offset="0.435958" stop-color="#255385"/>
<stop offset="0.655545" stop-color="#2F87A5"/>
<stop offset="0.897808" stop-color="#3CCACE"/>
<stop offset="1" stop-color="#42E8E0"/>
</linearGradient>
<linearGradient id="paint8_linear_234_70229" x1="495.195" y1="342.822" x2="315.621" y2="244.396" gradientUnits="userSpaceOnUse">
<stop stop-color="#180D5B"/>
<stop offset="0.0949797" stop-color="#1A1660"/>
<stop offset="0.246615" stop-color="#1E2D6E"/>
<stop offset="0.435958" stop-color="#255385"/>
<stop offset="0.655545" stop-color="#2F87A5"/>
<stop offset="0.897808" stop-color="#3CCACE"/>
<stop offset="1" stop-color="#42E8E0"/>
</linearGradient>
<linearGradient id="paint9_linear_234_70229" x1="350.549" y1="311.866" x2="475.406" y2="311.866" gradientUnits="userSpaceOnUse">
<stop stop-color="#2B237C"/>
<stop offset="1" stop-color="#180D5B"/>
</linearGradient>
<linearGradient id="paint10_linear_234_70229" x1="388.719" y1="341.902" x2="274.972" y2="277.276" gradientUnits="userSpaceOnUse">
<stop stop-color="#180D5B"/>
<stop offset="0.0951337" stop-color="#1A1560"/>
<stop offset="0.246466" stop-color="#1E2D6E"/>
<stop offset="0.281939" stop-color="#1F3372"/>
<stop offset="0.377856" stop-color="#22447C"/>
<stop offset="0.5681" stop-color="#2B7097"/>
<stop offset="0.831953" stop-color="#39B7C2"/>
<stop offset="1" stop-color="#42E8E0"/>
</linearGradient>
<linearGradient id="paint11_linear_234_70229" x1="437.816" y1="286.739" x2="291.276" y2="191.614" gradientUnits="userSpaceOnUse">
<stop stop-color="#180D5B"/>
<stop offset="0.0949797" stop-color="#1A1660"/>
<stop offset="0.246615" stop-color="#1E2D6E"/>
<stop offset="0.435958" stop-color="#255385"/>
<stop offset="0.655545" stop-color="#2F87A5"/>
<stop offset="0.897808" stop-color="#3CCACE"/>
<stop offset="1" stop-color="#42E8E0"/>
</linearGradient>
<linearGradient id="paint12_linear_234_70229" x1="350.549" y1="281.378" x2="475.406" y2="281.378" gradientUnits="userSpaceOnUse">
<stop stop-color="#2B237C"/>
<stop offset="1" stop-color="#180D5B"/>
</linearGradient>
<linearGradient id="paint13_linear_234_70229" x1="374.171" y1="302.96" x2="271.804" y2="245.278" gradientUnits="userSpaceOnUse">
<stop stop-color="#180D5B"/>
<stop offset="0.0951337" stop-color="#1A1560"/>
<stop offset="0.246466" stop-color="#1E2D6E"/>
<stop offset="0.281939" stop-color="#1F3372"/>
<stop offset="0.377856" stop-color="#22447C"/>
<stop offset="0.5681" stop-color="#2B7097"/>
<stop offset="0.831953" stop-color="#39B7C2"/>
<stop offset="1" stop-color="#42E8E0"/>
</linearGradient>
<linearGradient id="paint14_linear_234_70229" x1="408.69" y1="255.471" x2="290.913" y2="228.89" gradientUnits="userSpaceOnUse">
<stop stop-color="#180D5B"/>
<stop offset="0.0949797" stop-color="#1A1660"/>
<stop offset="0.246615" stop-color="#1E2D6E"/>
<stop offset="0.435958" stop-color="#255385"/>
<stop offset="0.655545" stop-color="#2F87A5"/>
<stop offset="0.897808" stop-color="#3CCACE"/>
<stop offset="1" stop-color="#42E8E0"/>
</linearGradient>
<linearGradient id="paint15_linear_234_70229" x1="495.195" y1="285.384" x2="315.621" y2="186.959" gradientUnits="userSpaceOnUse">
<stop stop-color="#180D5B"/>
<stop offset="0.0949797" stop-color="#1A1660"/>
<stop offset="0.246615" stop-color="#1E2D6E"/>
<stop offset="0.435958" stop-color="#255385"/>
<stop offset="0.655545" stop-color="#2F87A5"/>
<stop offset="0.897808" stop-color="#3CCACE"/>
<stop offset="1" stop-color="#42E8E0"/>
</linearGradient>
<linearGradient id="paint16_linear_234_70229" x1="350.549" y1="254.429" x2="475.406" y2="254.429" gradientUnits="userSpaceOnUse">
<stop stop-color="#2B237C"/>
<stop offset="1" stop-color="#180D5B"/>
</linearGradient>
<linearGradient id="paint17_linear_234_70229" x1="388.719" y1="284.464" x2="274.972" y2="219.839" gradientUnits="userSpaceOnUse">
<stop stop-color="#180D5B"/>
<stop offset="0.0951337" stop-color="#1A1560"/>
<stop offset="0.246466" stop-color="#1E2D6E"/>
<stop offset="0.281939" stop-color="#1F3372"/>
<stop offset="0.377856" stop-color="#22447C"/>
<stop offset="0.5681" stop-color="#2B7097"/>
<stop offset="0.831953" stop-color="#39B7C2"/>
<stop offset="1" stop-color="#42E8E0"/>
</linearGradient>
<linearGradient id="paint18_linear_234_70229" x1="437.816" y1="229.302" x2="291.276" y2="134.177" gradientUnits="userSpaceOnUse">
<stop stop-color="#180D5B"/>
<stop offset="0.0949797" stop-color="#1A1660"/>
<stop offset="0.246615" stop-color="#1E2D6E"/>
<stop offset="0.435958" stop-color="#255385"/>
<stop offset="0.655545" stop-color="#2F87A5"/>
<stop offset="0.897808" stop-color="#3CCACE"/>
<stop offset="1" stop-color="#42E8E0"/>
</linearGradient>
<linearGradient id="paint19_linear_234_70229" x1="350.549" y1="223.94" x2="475.406" y2="223.94" gradientUnits="userSpaceOnUse">
<stop stop-color="#2B237C"/>
<stop offset="1" stop-color="#180D5B"/>
</linearGradient>
<linearGradient id="paint20_linear_234_70229" x1="374.171" y1="245.522" x2="271.804" y2="187.841" gradientUnits="userSpaceOnUse">
<stop stop-color="#180D5B"/>
<stop offset="0.0951337" stop-color="#1A1560"/>
<stop offset="0.246466" stop-color="#1E2D6E"/>
<stop offset="0.281939" stop-color="#1F3372"/>
<stop offset="0.377856" stop-color="#22447C"/>
<stop offset="0.5681" stop-color="#2B7097"/>
<stop offset="0.831953" stop-color="#39B7C2"/>
<stop offset="1" stop-color="#42E8E0"/>
</linearGradient>
<linearGradient id="paint21_linear_234_70229" x1="408.69" y1="198.034" x2="290.913" y2="171.452" gradientUnits="userSpaceOnUse">
<stop stop-color="#180D5B"/>
<stop offset="0.0949797" stop-color="#1A1660"/>
<stop offset="0.246615" stop-color="#1E2D6E"/>
<stop offset="0.435958" stop-color="#255385"/>
<stop offset="0.655545" stop-color="#2F87A5"/>
<stop offset="0.897808" stop-color="#3CCACE"/>
<stop offset="1" stop-color="#42E8E0"/>
</linearGradient>
<linearGradient id="paint22_linear_234_70229" x1="495.195" y1="227.948" x2="315.621" y2="129.522" gradientUnits="userSpaceOnUse">
<stop stop-color="#180D5B"/>
<stop offset="0.0949797" stop-color="#1A1660"/>
<stop offset="0.246615" stop-color="#1E2D6E"/>
<stop offset="0.435958" stop-color="#255385"/>
<stop offset="0.655545" stop-color="#2F87A5"/>
<stop offset="0.897808" stop-color="#3CCACE"/>
<stop offset="1" stop-color="#42E8E0"/>
</linearGradient>
<linearGradient id="paint23_linear_234_70229" x1="350.551" y1="196.993" x2="475.408" y2="196.993" gradientUnits="userSpaceOnUse">
<stop stop-color="#2B237C"/>
<stop offset="1" stop-color="#180D5B"/>
</linearGradient>
<linearGradient id="paint24_linear_234_70229" x1="388.719" y1="227.028" x2="274.972" y2="162.402" gradientUnits="userSpaceOnUse">
<stop stop-color="#180D5B"/>
<stop offset="0.0951337" stop-color="#1A1560"/>
<stop offset="0.246466" stop-color="#1E2D6E"/>
<stop offset="0.281939" stop-color="#1F3372"/>
<stop offset="0.377856" stop-color="#22447C"/>
<stop offset="0.5681" stop-color="#2B7097"/>
<stop offset="0.831953" stop-color="#39B7C2"/>
<stop offset="1" stop-color="#42E8E0"/>
</linearGradient>
<linearGradient id="paint25_linear_234_70229" x1="437.816" y1="171.865" x2="291.276" y2="76.74" gradientUnits="userSpaceOnUse">
<stop stop-color="#180D5B"/>
<stop offset="0.0949797" stop-color="#1A1660"/>
<stop offset="0.246615" stop-color="#1E2D6E"/>
<stop offset="0.435958" stop-color="#255385"/>
<stop offset="0.655545" stop-color="#2F87A5"/>
<stop offset="0.897808" stop-color="#3CCACE"/>
<stop offset="1" stop-color="#42E8E0"/>
</linearGradient>
<linearGradient id="paint26_linear_234_70229" x1="350.551" y1="166.505" x2="475.408" y2="166.505" gradientUnits="userSpaceOnUse">
<stop stop-color="#2B237C"/>
<stop offset="1" stop-color="#180D5B"/>
</linearGradient>
<linearGradient id="paint27_linear_234_70229" x1="374.171" y1="188.086" x2="271.804" y2="130.404" gradientUnits="userSpaceOnUse">
<stop stop-color="#180D5B"/>
<stop offset="0.0951337" stop-color="#1A1560"/>
<stop offset="0.246466" stop-color="#1E2D6E"/>
<stop offset="0.281939" stop-color="#1F3372"/>
<stop offset="0.377856" stop-color="#22447C"/>
<stop offset="0.5681" stop-color="#2B7097"/>
<stop offset="0.831953" stop-color="#39B7C2"/>
<stop offset="1" stop-color="#42E8E0"/>
</linearGradient>
<linearGradient id="paint28_linear_234_70229" x1="408.69" y1="140.597" x2="290.913" y2="114.016" gradientUnits="userSpaceOnUse">
<stop stop-color="#180D5B"/>
<stop offset="0.0949797" stop-color="#1A1660"/>
<stop offset="0.246615" stop-color="#1E2D6E"/>
<stop offset="0.435958" stop-color="#255385"/>
<stop offset="0.655545" stop-color="#2F87A5"/>
<stop offset="0.897808" stop-color="#3CCACE"/>
<stop offset="1" stop-color="#42E8E0"/>
</linearGradient>
<linearGradient id="paint29_linear_234_70229" x1="792.46" y1="573.118" x2="612.887" y2="474.692" gradientUnits="userSpaceOnUse">
<stop stop-color="#180D5B"/>
<stop offset="0.0949797" stop-color="#1A1660"/>
<stop offset="0.246615" stop-color="#1E2D6E"/>
<stop offset="0.435958" stop-color="#255385"/>
<stop offset="0.655545" stop-color="#2F87A5"/>
<stop offset="0.897808" stop-color="#3CCACE"/>
<stop offset="1" stop-color="#42E8E0"/>
</linearGradient>
<linearGradient id="paint30_linear_234_70229" x1="647.815" y1="542.162" x2="772.672" y2="542.162" gradientUnits="userSpaceOnUse">
<stop stop-color="#2B237C"/>
<stop offset="1" stop-color="#180D5B"/>
</linearGradient>
<linearGradient id="paint31_linear_234_70229" x1="685.985" y1="572.198" x2="572.237" y2="507.572" gradientUnits="userSpaceOnUse">
<stop stop-color="#180D5B"/>
<stop offset="0.0951337" stop-color="#1A1560"/>
<stop offset="0.246466" stop-color="#1E2D6E"/>
<stop offset="0.281939" stop-color="#1F3372"/>
<stop offset="0.377856" stop-color="#22447C"/>
<stop offset="0.5681" stop-color="#2B7097"/>
<stop offset="0.831953" stop-color="#39B7C2"/>
<stop offset="1" stop-color="#42E8E0"/>
</linearGradient>
<linearGradient id="paint32_linear_234_70229" x1="735.082" y1="517.035" x2="588.542" y2="421.91" gradientUnits="userSpaceOnUse">
<stop stop-color="#180D5B"/>
<stop offset="0.0949797" stop-color="#1A1660"/>
<stop offset="0.246615" stop-color="#1E2D6E"/>
<stop offset="0.435958" stop-color="#255385"/>
<stop offset="0.655545" stop-color="#2F87A5"/>
<stop offset="0.897808" stop-color="#3CCACE"/>
<stop offset="1" stop-color="#42E8E0"/>
</linearGradient>
<linearGradient id="paint33_linear_234_70229" x1="647.815" y1="511.674" x2="772.672" y2="511.674" gradientUnits="userSpaceOnUse">
<stop stop-color="#2B237C"/>
<stop offset="1" stop-color="#180D5B"/>
</linearGradient>
<linearGradient id="paint34_linear_234_70229" x1="671.436" y1="533.256" x2="569.07" y2="475.574" gradientUnits="userSpaceOnUse">
<stop stop-color="#180D5B"/>
<stop offset="0.0951337" stop-color="#1A1560"/>
<stop offset="0.246466" stop-color="#1E2D6E"/>
<stop offset="0.281939" stop-color="#1F3372"/>
<stop offset="0.377856" stop-color="#22447C"/>
<stop offset="0.5681" stop-color="#2B7097"/>
<stop offset="0.831953" stop-color="#39B7C2"/>
<stop offset="1" stop-color="#42E8E0"/>
</linearGradient>
<linearGradient id="paint35_linear_234_70229" x1="705.956" y1="485.767" x2="588.179" y2="459.186" gradientUnits="userSpaceOnUse">
<stop stop-color="#180D5B"/>
<stop offset="0.0949797" stop-color="#1A1660"/>
<stop offset="0.246615" stop-color="#1E2D6E"/>
<stop offset="0.435958" stop-color="#255385"/>
<stop offset="0.655545" stop-color="#2F87A5"/>
<stop offset="0.897808" stop-color="#3CCACE"/>
<stop offset="1" stop-color="#42E8E0"/>
</linearGradient>
<linearGradient id="paint36_linear_234_70229" x1="792.46" y1="515.681" x2="612.887" y2="417.256" gradientUnits="userSpaceOnUse">
<stop stop-color="#180D5B"/>
<stop offset="0.0949797" stop-color="#1A1660"/>
<stop offset="0.246615" stop-color="#1E2D6E"/>
<stop offset="0.435958" stop-color="#255385"/>
<stop offset="0.655545" stop-color="#2F87A5"/>
<stop offset="0.897808" stop-color="#3CCACE"/>
<stop offset="1" stop-color="#42E8E0"/>
</linearGradient>
<linearGradient id="paint37_linear_234_70229" x1="647.815" y1="484.726" x2="772.672" y2="484.726" gradientUnits="userSpaceOnUse">
<stop stop-color="#2B237C"/>
<stop offset="1" stop-color="#180D5B"/>
</linearGradient>
<linearGradient id="paint38_linear_234_70229" x1="685.985" y1="514.761" x2="572.237" y2="450.135" gradientUnits="userSpaceOnUse">
<stop stop-color="#180D5B"/>
<stop offset="0.0951337" stop-color="#1A1560"/>
<stop offset="0.246466" stop-color="#1E2D6E"/>
<stop offset="0.281939" stop-color="#1F3372"/>
<stop offset="0.377856" stop-color="#22447C"/>
<stop offset="0.5681" stop-color="#2B7097"/>
<stop offset="0.831953" stop-color="#39B7C2"/>
<stop offset="1" stop-color="#42E8E0"/>
</linearGradient>
<linearGradient id="paint39_linear_234_70229" x1="735.082" y1="459.599" x2="588.542" y2="364.473" gradientUnits="userSpaceOnUse">
<stop stop-color="#180D5B"/>
<stop offset="0.0949797" stop-color="#1A1660"/>
<stop offset="0.246615" stop-color="#1E2D6E"/>
<stop offset="0.435958" stop-color="#255385"/>
<stop offset="0.655545" stop-color="#2F87A5"/>
<stop offset="0.897808" stop-color="#3CCACE"/>
<stop offset="1" stop-color="#42E8E0"/>
</linearGradient>
<linearGradient id="paint40_linear_234_70229" x1="647.815" y1="454.237" x2="772.672" y2="454.237" gradientUnits="userSpaceOnUse">
<stop stop-color="#2B237C"/>
<stop offset="1" stop-color="#180D5B"/>
</linearGradient>
<linearGradient id="paint41_linear_234_70229" x1="671.436" y1="475.819" x2="569.07" y2="418.137" gradientUnits="userSpaceOnUse">
<stop stop-color="#180D5B"/>
<stop offset="0.0951337" stop-color="#1A1560"/>
<stop offset="0.246466" stop-color="#1E2D6E"/>
<stop offset="0.281939" stop-color="#1F3372"/>
<stop offset="0.377856" stop-color="#22447C"/>
<stop offset="0.5681" stop-color="#2B7097"/>
<stop offset="0.831953" stop-color="#39B7C2"/>
<stop offset="1" stop-color="#42E8E0"/>
</linearGradient>
<linearGradient id="paint42_linear_234_70229" x1="705.956" y1="428.331" x2="588.179" y2="401.749" gradientUnits="userSpaceOnUse">
<stop stop-color="#180D5B"/>
<stop offset="0.0949797" stop-color="#1A1660"/>
<stop offset="0.246615" stop-color="#1E2D6E"/>
<stop offset="0.435958" stop-color="#255385"/>
<stop offset="0.655545" stop-color="#2F87A5"/>
<stop offset="0.897808" stop-color="#3CCACE"/>
<stop offset="1" stop-color="#42E8E0"/>
</linearGradient>
<linearGradient id="paint43_linear_234_70229" x1="792.46" y1="458.244" x2="612.887" y2="359.818" gradientUnits="userSpaceOnUse">
<stop stop-color="#180D5B"/>
<stop offset="0.0949797" stop-color="#1A1660"/>
<stop offset="0.246615" stop-color="#1E2D6E"/>
<stop offset="0.435958" stop-color="#255385"/>
<stop offset="0.655545" stop-color="#2F87A5"/>
<stop offset="0.897808" stop-color="#3CCACE"/>
<stop offset="1" stop-color="#42E8E0"/>
</linearGradient>
<linearGradient id="paint44_linear_234_70229" x1="647.815" y1="427.288" x2="772.672" y2="427.288" gradientUnits="userSpaceOnUse">
<stop stop-color="#2B237C"/>
<stop offset="1" stop-color="#180D5B"/>
</linearGradient>
<linearGradient id="paint45_linear_234_70229" x1="685.985" y1="457.324" x2="572.237" y2="392.698" gradientUnits="userSpaceOnUse">
<stop stop-color="#180D5B"/>
<stop offset="0.0951337" stop-color="#1A1560"/>
<stop offset="0.246466" stop-color="#1E2D6E"/>
<stop offset="0.281939" stop-color="#1F3372"/>
<stop offset="0.377856" stop-color="#22447C"/>
<stop offset="0.5681" stop-color="#2B7097"/>
<stop offset="0.831953" stop-color="#39B7C2"/>
<stop offset="1" stop-color="#42E8E0"/>
</linearGradient>
<linearGradient id="paint46_linear_234_70229" x1="735.082" y1="402.161" x2="588.542" y2="307.036" gradientUnits="userSpaceOnUse">
<stop stop-color="#180D5B"/>
<stop offset="0.0949797" stop-color="#1A1660"/>
<stop offset="0.246615" stop-color="#1E2D6E"/>
<stop offset="0.435958" stop-color="#255385"/>
<stop offset="0.655545" stop-color="#2F87A5"/>
<stop offset="0.897808" stop-color="#3CCACE"/>
<stop offset="1" stop-color="#42E8E0"/>
</linearGradient>
<linearGradient id="paint47_linear_234_70229" x1="647.815" y1="396.8" x2="772.672" y2="396.8" gradientUnits="userSpaceOnUse">
<stop stop-color="#2B237C"/>
<stop offset="1" stop-color="#180D5B"/>
</linearGradient>
<linearGradient id="paint48_linear_234_70229" x1="671.436" y1="418.382" x2="569.07" y2="360.7" gradientUnits="userSpaceOnUse">
<stop stop-color="#180D5B"/>
<stop offset="0.0951337" stop-color="#1A1560"/>
<stop offset="0.246466" stop-color="#1E2D6E"/>
<stop offset="0.281939" stop-color="#1F3372"/>
<stop offset="0.377856" stop-color="#22447C"/>
<stop offset="0.5681" stop-color="#2B7097"/>
<stop offset="0.831953" stop-color="#39B7C2"/>
<stop offset="1" stop-color="#42E8E0"/>
</linearGradient>
<linearGradient id="paint49_linear_234_70229" x1="705.956" y1="370.893" x2="588.179" y2="344.312" gradientUnits="userSpaceOnUse">
<stop stop-color="#180D5B"/>
<stop offset="0.0949797" stop-color="#1A1660"/>
<stop offset="0.246615" stop-color="#1E2D6E"/>
<stop offset="0.435958" stop-color="#255385"/>
<stop offset="0.655545" stop-color="#2F87A5"/>
<stop offset="0.897808" stop-color="#3CCACE"/>
<stop offset="1" stop-color="#42E8E0"/>
</linearGradient>
<linearGradient id="paint50_linear_234_70229" x1="792.46" y1="400.807" x2="612.887" y2="302.382" gradientUnits="userSpaceOnUse">
<stop stop-color="#180D5B"/>
<stop offset="0.0949797" stop-color="#1A1660"/>
<stop offset="0.246615" stop-color="#1E2D6E"/>
<stop offset="0.435958" stop-color="#255385"/>
<stop offset="0.655545" stop-color="#2F87A5"/>
<stop offset="0.897808" stop-color="#3CCACE"/>
<stop offset="1" stop-color="#42E8E0"/>
</linearGradient>
<linearGradient id="paint51_linear_234_70229" x1="647.815" y1="369.852" x2="772.672" y2="369.852" gradientUnits="userSpaceOnUse">
<stop stop-color="#2B237C"/>
<stop offset="1" stop-color="#180D5B"/>
</linearGradient>
<linearGradient id="paint52_linear_234_70229" x1="685.985" y1="399.887" x2="572.237" y2="335.261" gradientUnits="userSpaceOnUse">
<stop stop-color="#180D5B"/>
<stop offset="0.0951337" stop-color="#1A1560"/>
<stop offset="0.246466" stop-color="#1E2D6E"/>
<stop offset="0.281939" stop-color="#1F3372"/>
<stop offset="0.377856" stop-color="#22447C"/>
<stop offset="0.5681" stop-color="#2B7097"/>
<stop offset="0.831953" stop-color="#39B7C2"/>
<stop offset="1" stop-color="#42E8E0"/>
</linearGradient>
<linearGradient id="paint53_linear_234_70229" x1="735.082" y1="344.725" x2="588.542" y2="249.599" gradientUnits="userSpaceOnUse">
<stop stop-color="#180D5B"/>
<stop offset="0.0949797" stop-color="#1A1660"/>
<stop offset="0.246615" stop-color="#1E2D6E"/>
<stop offset="0.435958" stop-color="#255385"/>
<stop offset="0.655545" stop-color="#2F87A5"/>
<stop offset="0.897808" stop-color="#3CCACE"/>
<stop offset="1" stop-color="#42E8E0"/>
</linearGradient>
<linearGradient id="paint54_linear_234_70229" x1="647.815" y1="339.364" x2="772.672" y2="339.364" gradientUnits="userSpaceOnUse">
<stop stop-color="#2B237C"/>
<stop offset="1" stop-color="#180D5B"/>
</linearGradient>
<linearGradient id="paint55_linear_234_70229" x1="671.436" y1="360.945" x2="569.07" y2="303.263" gradientUnits="userSpaceOnUse">
<stop stop-color="#180D5B"/>
<stop offset="0.0951337" stop-color="#1A1560"/>
<stop offset="0.246466" stop-color="#1E2D6E"/>
<stop offset="0.281939" stop-color="#1F3372"/>
<stop offset="0.377856" stop-color="#22447C"/>
<stop offset="0.5681" stop-color="#2B7097"/>
<stop offset="0.831953" stop-color="#39B7C2"/>
<stop offset="1" stop-color="#42E8E0"/>
</linearGradient>
<linearGradient id="paint56_linear_234_70229" x1="705.956" y1="313.457" x2="588.179" y2="286.875" gradientUnits="userSpaceOnUse">
<stop stop-color="#180D5B"/>
<stop offset="0.0949797" stop-color="#1A1660"/>
<stop offset="0.246615" stop-color="#1E2D6E"/>
<stop offset="0.435958" stop-color="#255385"/>
<stop offset="0.655545" stop-color="#2F87A5"/>
<stop offset="0.897808" stop-color="#3CCACE"/>
<stop offset="1" stop-color="#42E8E0"/>
</linearGradient>
<linearGradient id="paint57_linear_234_70229" x1="239.175" y1="547.694" x2="411.003" y2="547.694" gradientUnits="userSpaceOnUse">
<stop stop-color="#42E8E0"/>
<stop offset="0.102192" stop-color="#3CCACE"/>
<stop offset="0.344456" stop-color="#2F87A5"/>
<stop offset="0.564042" stop-color="#255385"/>
<stop offset="0.753385" stop-color="#1E2D6E"/>
<stop offset="0.90502" stop-color="#1A1660"/>
<stop offset="1" stop-color="#180D5B"/>
</linearGradient>
<linearGradient id="paint58_linear_234_70229" x1="363.07" y1="547.69" x2="448.984" y2="547.69" gradientUnits="userSpaceOnUse">
<stop stop-color="#2B237C"/>
<stop offset="1" stop-color="#180D5B"/>
</linearGradient>
<linearGradient id="paint59_linear_234_70229" x1="277.156" y1="528.701" x2="448.997" y2="528.701" gradientUnits="userSpaceOnUse">
<stop stop-color="#42E8E0"/>
<stop offset="0.102192" stop-color="#3CCACE"/>
<stop offset="0.344456" stop-color="#2F87A5"/>
<stop offset="0.564042" stop-color="#255385"/>
<stop offset="0.753385" stop-color="#1E2D6E"/>
<stop offset="0.90502" stop-color="#1A1660"/>
<stop offset="1" stop-color="#180D5B"/>
</linearGradient>
<linearGradient id="paint60_linear_234_70229" x1="277.156" y1="528.704" x2="364.86" y2="528.704" gradientUnits="userSpaceOnUse">
<stop stop-color="#42E8E0"/>
<stop offset="0.102192" stop-color="#3CCACE"/>
<stop offset="0.344456" stop-color="#2F87A5"/>
<stop offset="0.564042" stop-color="#255385"/>
<stop offset="0.753385" stop-color="#1E2D6E"/>
<stop offset="0.90502" stop-color="#1A1660"/>
<stop offset="1" stop-color="#180D5B"/>
</linearGradient>
<linearGradient id="paint61_linear_234_70229" x1="300.528" y1="578.731" x2="444.407" y2="484.742" gradientUnits="userSpaceOnUse">
<stop stop-color="#42E8E0"/>
<stop offset="0.102192" stop-color="#3CCACE"/>
<stop offset="0.344456" stop-color="#2F87A5"/>
<stop offset="0.564042" stop-color="#255385"/>
<stop offset="0.753385" stop-color="#1E2D6E"/>
<stop offset="0.90502" stop-color="#1A1660"/>
<stop offset="1" stop-color="#180D5B"/>
</linearGradient>
<linearGradient id="paint62_linear_234_70229" x1="239.175" y1="495.726" x2="411.003" y2="495.726" gradientUnits="userSpaceOnUse">
<stop stop-color="#42E8E0"/>
<stop offset="0.102192" stop-color="#3CCACE"/>
<stop offset="0.344456" stop-color="#2F87A5"/>
<stop offset="0.564042" stop-color="#255385"/>
<stop offset="0.753385" stop-color="#1E2D6E"/>
<stop offset="0.90502" stop-color="#1A1660"/>
<stop offset="1" stop-color="#180D5B"/>
</linearGradient>
<linearGradient id="paint63_linear_234_70229" x1="363.07" y1="495.722" x2="448.984" y2="495.722" gradientUnits="userSpaceOnUse">
<stop stop-color="#2B237C"/>
<stop offset="1" stop-color="#180D5B"/>
</linearGradient>
<linearGradient id="paint64_linear_234_70229" x1="277.156" y1="476.734" x2="448.997" y2="476.734" gradientUnits="userSpaceOnUse">
<stop stop-color="#42E8E0"/>
<stop offset="0.102192" stop-color="#3CCACE"/>
<stop offset="0.344456" stop-color="#2F87A5"/>
<stop offset="0.564042" stop-color="#255385"/>
<stop offset="0.753385" stop-color="#1E2D6E"/>
<stop offset="0.90502" stop-color="#1A1660"/>
<stop offset="1" stop-color="#180D5B"/>
</linearGradient>
<linearGradient id="paint65_linear_234_70229" x1="277.156" y1="476.736" x2="364.86" y2="476.736" gradientUnits="userSpaceOnUse">
<stop stop-color="#42E8E0"/>
<stop offset="0.102192" stop-color="#3CCACE"/>
<stop offset="0.344456" stop-color="#2F87A5"/>
<stop offset="0.564042" stop-color="#255385"/>
<stop offset="0.753385" stop-color="#1E2D6E"/>
<stop offset="0.90502" stop-color="#1A1660"/>
<stop offset="1" stop-color="#180D5B"/>
</linearGradient>
<linearGradient id="paint66_linear_234_70229" x1="300.528" y1="526.764" x2="444.407" y2="432.774" gradientUnits="userSpaceOnUse">
<stop stop-color="#42E8E0"/>
<stop offset="0.102192" stop-color="#3CCACE"/>
<stop offset="0.344456" stop-color="#2F87A5"/>
<stop offset="0.564042" stop-color="#255385"/>
<stop offset="0.753385" stop-color="#1E2D6E"/>
<stop offset="0.90502" stop-color="#1A1660"/>
<stop offset="1" stop-color="#180D5B"/>
</linearGradient>
<linearGradient id="paint67_linear_234_70229" x1="66.2567" y1="281.267" x2="238.085" y2="281.267" gradientUnits="userSpaceOnUse">
<stop stop-color="#42E8E0"/>
<stop offset="0.102192" stop-color="#3CCACE"/>
<stop offset="0.344456" stop-color="#2F87A5"/>
<stop offset="0.564042" stop-color="#255385"/>
<stop offset="0.753385" stop-color="#1E2D6E"/>
<stop offset="0.90502" stop-color="#1A1660"/>
<stop offset="1" stop-color="#180D5B"/>
</linearGradient>
<linearGradient id="paint68_linear_234_70229" x1="190.152" y1="281.263" x2="276.066" y2="281.263" gradientUnits="userSpaceOnUse">
<stop stop-color="#2B237C"/>
<stop offset="1" stop-color="#180D5B"/>
</linearGradient>
<linearGradient id="paint69_linear_234_70229" x1="104.238" y1="262.274" x2="276.079" y2="262.274" gradientUnits="userSpaceOnUse">
<stop stop-color="#42E8E0"/>
<stop offset="0.102192" stop-color="#3CCACE"/>
<stop offset="0.344456" stop-color="#2F87A5"/>
<stop offset="0.564042" stop-color="#255385"/>
<stop offset="0.753385" stop-color="#1E2D6E"/>
<stop offset="0.90502" stop-color="#1A1660"/>
<stop offset="1" stop-color="#180D5B"/>
</linearGradient>
<linearGradient id="paint70_linear_234_70229" x1="104.238" y1="262.276" x2="191.942" y2="262.276" gradientUnits="userSpaceOnUse">
<stop stop-color="#42E8E0"/>
<stop offset="0.102192" stop-color="#3CCACE"/>
<stop offset="0.344456" stop-color="#2F87A5"/>
<stop offset="0.564042" stop-color="#255385"/>
<stop offset="0.753385" stop-color="#1E2D6E"/>
<stop offset="0.90502" stop-color="#1A1660"/>
<stop offset="1" stop-color="#180D5B"/>
</linearGradient>
<linearGradient id="paint71_linear_234_70229" x1="127.61" y1="312.304" x2="271.489" y2="218.314" gradientUnits="userSpaceOnUse">
<stop stop-color="#42E8E0"/>
<stop offset="0.102192" stop-color="#3CCACE"/>
<stop offset="0.344456" stop-color="#2F87A5"/>
<stop offset="0.564042" stop-color="#255385"/>
<stop offset="0.753385" stop-color="#1E2D6E"/>
<stop offset="0.90502" stop-color="#1A1660"/>
<stop offset="1" stop-color="#180D5B"/>
</linearGradient>
<linearGradient id="paint72_linear_234_70229" x1="66.2567" y1="229.299" x2="238.085" y2="229.299" gradientUnits="userSpaceOnUse">
<stop stop-color="#42E8E0"/>
<stop offset="0.102192" stop-color="#3CCACE"/>
<stop offset="0.344456" stop-color="#2F87A5"/>
<stop offset="0.564042" stop-color="#255385"/>
<stop offset="0.753385" stop-color="#1E2D6E"/>
<stop offset="0.90502" stop-color="#1A1660"/>
<stop offset="1" stop-color="#180D5B"/>
</linearGradient>
<linearGradient id="paint73_linear_234_70229" x1="190.152" y1="229.294" x2="276.066" y2="229.294" gradientUnits="userSpaceOnUse">
<stop stop-color="#2B237C"/>
<stop offset="1" stop-color="#180D5B"/>
</linearGradient>
<linearGradient id="paint74_linear_234_70229" x1="104.238" y1="210.306" x2="276.079" y2="210.306" gradientUnits="userSpaceOnUse">
<stop stop-color="#42E8E0"/>
<stop offset="0.102192" stop-color="#3CCACE"/>
<stop offset="0.344456" stop-color="#2F87A5"/>
<stop offset="0.564042" stop-color="#255385"/>
<stop offset="0.753385" stop-color="#1E2D6E"/>
<stop offset="0.90502" stop-color="#1A1660"/>
<stop offset="1" stop-color="#180D5B"/>
</linearGradient>
<linearGradient id="paint75_linear_234_70229" x1="104.238" y1="210.308" x2="191.942" y2="210.308" gradientUnits="userSpaceOnUse">
<stop stop-color="#42E8E0"/>
<stop offset="0.102192" stop-color="#3CCACE"/>
<stop offset="0.344456" stop-color="#2F87A5"/>
<stop offset="0.564042" stop-color="#255385"/>
<stop offset="0.753385" stop-color="#1E2D6E"/>
<stop offset="0.90502" stop-color="#1A1660"/>
<stop offset="1" stop-color="#180D5B"/>
</linearGradient>
<linearGradient id="paint76_linear_234_70229" x1="127.61" y1="260.336" x2="271.489" y2="166.346" gradientUnits="userSpaceOnUse">
<stop stop-color="#42E8E0"/>
<stop offset="0.102192" stop-color="#3CCACE"/>
<stop offset="0.344456" stop-color="#2F87A5"/>
<stop offset="0.564042" stop-color="#255385"/>
<stop offset="0.753385" stop-color="#1E2D6E"/>
<stop offset="0.90502" stop-color="#1A1660"/>
<stop offset="1" stop-color="#180D5B"/>
</linearGradient>
<clipPath id="clip0_234_70229">
<rect width="936" height="753" fill="white" transform="translate(-128)"/>
</clipPath>
</defs>
</svg>
