<svg width="154" height="134" viewBox="0 0 154 134" fill="none" xmlns="http://www.w3.org/2000/svg">
<path d="M153.558 91.7424L107.46 65.1277C107.439 65.1156 107.421 65.1149 107.401 65.1073L107.403 65.095L102.658 60.0569L82.4503 0.548717C82.3617 0.287898 82.1426 0.0741908 81.9609 0.0716957L80.9971 0.0580033C80.9561 0.0574379 80.9213 0.0689548 80.8918 0.0882028L80.8912 0.0867524L13.1504 39.2185L34.6679 99.6633L38.6802 104.567L48.3698 110.426L78.2205 127.413L86.0753 132.982L153.817 93.8513L153.818 93.8508L153.818 93.8507C153.883 93.8123 153.924 93.7306 153.924 93.6143V92.3762C153.924 92.1429 153.76 91.8591 153.558 91.7424Z" fill="url(#paint0_linear_602_5642)"/>
<path d="M39.7099 104.265L107.4 65.1072L102.658 60.0568L34.9082 99.1938L39.7099 104.265Z" fill="#5351AF"/>
<path opacity="0.3" d="M84.9241 132.166L153.918 92.333C153.903 92.1559 153.806 91.9635 153.671 91.8341L84.4258 131.813L84.9241 132.166Z" fill="white"/>
<path opacity="0.3" d="M82.0008 0.0780029L13.3633 39.7059L13.8616 40.0592L82.4198 0.477135C82.3269 0.26859 82.1558 0.10524 82.0008 0.0780029Z" fill="white"/>
<path opacity="0.48" d="M35.6943 99.2565L32.2656 44.9139L100.015 5.77686L103.444 60.1194L35.6943 99.2565Z" fill="url(#paint1_linear_602_5642)"/>
<path opacity="0.48" d="M36.291 99.3801L42.1299 50.6732L109.879 11.5361L104.041 60.2429L36.291 99.3801Z" fill="url(#paint2_linear_602_5642)"/>
<path opacity="0.48" d="M36.9121 99.6635L51.7757 58.6163L119.525 19.4792L104.662 60.5264L36.9121 99.6635Z" fill="url(#paint3_linear_602_5642)"/>
<path opacity="0.48" d="M37.5352 100.094L60.8059 68.4119L128.555 29.2749L105.285 60.9567L37.5352 100.094Z" fill="url(#paint4_linear_602_5642)"/>
<path opacity="0.48" d="M38.1328 100.654L68.8438 79.6542L136.593 40.5171L105.882 61.5171L38.1328 100.654Z" fill="url(#paint5_linear_602_5642)"/>
<path opacity="0.48" d="M106.429 62.1833L143.304 52.7379L75.5547 91.875L38.6797 101.32L106.429 62.1833Z" fill="url(#paint6_linear_602_5642)"/>
<path opacity="0.48" d="M106.902 62.9283L148.408 65.43L80.659 104.567L39.1523 102.065L106.902 62.9283Z" fill="url(#paint7_linear_602_5642)"/>
<path opacity="0.48" d="M107.285 63.7213L151.698 78.066L83.9487 117.203L39.5352 102.858L107.285 63.7213Z" fill="url(#paint8_linear_602_5642)"/>
<path opacity="0.48" d="M107.556 64.5283L153.031 90.1201L85.2815 129.257L39.8066 103.665L107.556 64.5283Z" fill="url(#paint9_linear_602_5642)"/>
<path opacity="0.48" d="M102.901 60.1601L35.1513 99.2972L22.5977 41.5771L90.3472 2.43994L102.901 60.1601Z" fill="url(#paint10_linear_602_5642)"/>
<path d="M85.8077 130.88L39.7096 104.265C39.6886 104.253 39.6704 104.252 39.6504 104.244L39.653 104.232L34.9079 99.194L14.6997 39.6859C14.6112 39.425 14.392 39.2114 14.2104 39.2088L13.2466 39.1951C13.065 39.1926 12.9895 39.402 13.0781 39.6629L33.2863 99.171C33.3748 99.4319 33.5939 99.6455 33.7756 99.6481L34.0075 99.9008C33.9981 100.091 34.0916 100.337 34.2565 100.517L38.6217 105.275C38.7876 105.456 38.9744 105.514 39.094 105.442L39.3436 105.714C39.3436 105.948 39.5075 106.231 39.7096 106.348L85.8077 132.963C86.0098 133.079 86.1736 132.985 86.1736 132.752V131.513C86.1736 131.28 86.0098 130.996 85.8077 130.88Z" fill="url(#paint11_linear_602_5642)"/>
<path d="M28.1948 81.3004C29.716 80.4222 29.7159 78.9982 28.1947 78.1199C26.6734 77.2416 24.207 77.2416 22.6858 78.1199C21.1646 78.9981 21.1646 80.4221 22.6859 81.3004C24.2071 82.1787 26.6735 82.1787 28.1948 81.3004Z" fill="url(#paint12_linear_602_5642)"/>
<path d="M28.1943 81.1097C26.6731 81.9879 24.2067 81.9879 22.6855 81.1097C21.9669 80.6948 21.5922 80.158 21.5524 79.6146C21.5079 80.2216 21.8828 80.8369 22.6855 81.3004C24.2067 82.1787 26.6731 82.1787 28.1943 81.3005C28.997 80.8371 29.3718 80.2218 29.3273 79.6149C29.2875 80.1582 28.9128 80.6949 28.1943 81.1097Z" fill="white"/>
<path d="M28.1948 88.8656C29.716 87.9874 29.7159 86.5634 28.1947 85.6851C26.6734 84.8068 24.207 84.8068 22.6858 85.685C21.1646 86.5634 21.1646 87.9873 22.6859 88.8656C24.2071 89.7439 26.6735 89.744 28.1948 88.8656Z" fill="url(#paint13_linear_602_5642)"/>
<path d="M28.1948 96.5637C29.716 95.6853 29.7159 94.2614 28.1947 93.3831C26.6734 92.5048 24.207 92.5048 22.6858 93.3831C21.1646 94.2613 21.1646 95.6853 22.6859 96.5636C24.2071 97.4419 26.6735 97.4419 28.1948 96.5637Z" fill="url(#paint14_linear_602_5642)"/>
<path d="M21.5451 79.7097V75.7752C21.5455 76.3505 21.9258 76.9258 22.6861 77.3647C24.2072 78.243 26.6737 78.2431 28.1949 77.3647C28.9323 76.939 29.309 76.385 29.3314 75.8271V59.1763H21.5449V108.216C21.5449 110.367 23.2882 112.11 25.4382 112.11C27.5884 112.11 29.3314 110.367 29.3314 108.216V94.9212C29.3551 95.5141 28.9785 96.1112 28.1949 96.5636C26.6737 97.4418 24.2072 97.4418 22.6861 96.5635C21.9273 96.1255 21.5473 95.5518 21.5453 94.9777H21.5451V94.9736V94.9728V91.0384C21.5455 91.6137 21.9258 92.1889 22.6861 92.6279C24.2072 93.5062 26.6737 93.5062 28.1949 92.6279C28.9323 92.2022 29.309 91.6481 29.3314 91.0902V87.2233C29.3551 87.8161 28.9785 88.4133 28.1949 88.8657C26.6737 89.7439 24.2072 89.7439 22.6861 88.8656C21.9273 88.4275 21.5473 87.8538 21.5453 87.2798H21.5451V87.2756V87.2749V83.3405C21.5455 83.9157 21.9258 84.491 22.6861 84.9299C24.2072 85.8082 26.6737 85.8082 28.1949 84.93C28.9323 84.5043 29.309 83.9502 29.3314 83.3923V79.6581C29.3551 80.2509 28.9785 80.848 28.1949 81.3004C26.6737 82.1787 24.2072 82.1787 22.6861 81.3003C21.9273 80.8624 21.5473 80.2886 21.5453 79.7145H21.5451V79.7105C21.5451 79.7105 21.5451 79.71 21.5451 79.7097Z" fill="url(#paint15_linear_602_5642)"/>
<path d="M28.1943 88.6747C26.6731 89.553 24.2067 89.553 22.6855 88.6746C21.9669 88.2598 21.5922 87.7231 21.5524 87.1797C21.5079 87.7866 21.8828 88.402 22.6855 88.8655C24.2067 89.7438 26.6731 89.7438 28.1943 88.8655C28.997 88.402 29.3718 87.7869 29.3273 87.1799C29.2875 87.7233 28.9128 88.2599 28.1943 88.6747Z" fill="white"/>
<path d="M28.1943 96.3728C26.6731 97.2511 24.2067 97.2511 22.6855 96.3728C21.9669 95.9579 21.5922 95.4212 21.5524 94.8778C21.5079 95.4848 21.8828 96.1001 22.6855 96.5636C24.2067 97.4419 26.6731 97.4419 28.1943 96.5637C28.997 96.1003 29.3718 95.485 29.3273 94.8781C29.2875 95.4214 28.9128 95.958 28.1943 96.3728Z" fill="white"/>
<path opacity="0.48" d="M28.1967 77.365C26.6756 78.2433 24.2091 78.2433 22.6879 77.365C21.9276 76.926 21.5473 76.3507 21.5469 75.7755V79.7099C21.5469 79.7102 21.5469 79.7104 21.5469 79.7104L21.5469 79.7147H21.5473C21.5492 80.2888 21.9292 80.8626 22.6879 81.3005C24.2091 82.1789 26.6756 82.1789 28.1967 81.3006C28.9803 80.8483 29.357 80.2511 29.3333 79.6583V75.8273C29.3109 76.3852 28.9343 76.9392 28.1967 77.365Z" fill="url(#paint16_linear_602_5642)"/>
<path opacity="0.48" d="M28.1967 84.9301C26.6756 85.8084 24.2091 85.8084 22.6879 84.9301C21.9276 84.4911 21.5473 83.9159 21.5469 83.3406V87.275L21.5469 87.2755L21.5469 87.2799H21.5473C21.5492 87.8539 21.9292 88.4276 22.6879 88.8657C24.2091 89.744 26.6756 89.744 28.1967 88.8658C28.9803 88.4134 29.357 87.8163 29.3333 87.2234V83.3924C29.3109 83.9503 28.9343 84.5044 28.1967 84.9301Z" fill="url(#paint17_linear_602_5642)"/>
<path opacity="0.48" d="M28.1966 92.6277C26.6755 93.5061 24.209 93.506 22.6879 92.6277C21.9276 92.1888 21.5473 91.6135 21.5469 91.0382V94.9727V94.9734V94.9775H21.5472C21.5491 95.5516 21.9292 96.1254 22.6879 96.5633C24.209 97.4416 26.6755 97.4416 28.1966 96.5634C28.9802 96.111 29.3569 95.5139 29.3332 94.921V91.0901C29.3108 91.648 28.9342 92.202 28.1966 92.6277Z" fill="url(#paint18_linear_602_5642)"/>
<path d="M11.3644 53.122C11.185 53.0227 11.0073 52.9204 10.8352 52.8081L8.93089 42.0256L11.3199 27.7133L17.956 20.4799L24.7913 13.8437L35.6745 9.33115L35.9605 9.21926C36.4768 9.47808 36.9605 9.79464 37.4168 10.1549C40.1375 9.81478 42.8584 9.47469 45.5792 9.1346C45.1218 8.01341 44.5794 6.98975 43.9397 6.09402L45.2427 5.58365L40.3695 2.77634C40.3116 2.74227 40.2535 2.70892 40.195 2.6759L40.0124 2.57061L40.0023 2.57489C35.8106 0.314525 30.1059 0.723084 23.8143 4.35556C10.949 11.7834 0.519531 29.8474 0.519531 44.7026C0.519531 52.0725 3.08874 57.2645 7.24665 59.7222L7.24697 59.7244L7.2791 59.7427C7.32679 59.7707 7.37473 59.7978 7.42298 59.825L12.5974 62.7853L12.332 61.2826C12.9777 61.3332 13.6428 61.3376 14.3248 61.2961C12.8896 58.7677 10.9509 55.9639 11.3644 53.122Z" fill="url(#paint19_linear_602_5642)"/>
<path d="M47.0951 18.4053C47.0987 18.205 47.108 18.0031 47.108 17.8038C47.108 14.4361 46.5584 11.5382 45.578 9.1344C42.8573 9.47448 40.1364 9.81458 37.4156 10.1547C40.0323 12.2215 41.6153 15.9254 41.6153 20.975C41.6153 32.3275 33.6451 46.1321 23.8132 51.8086C18.9644 54.608 14.5735 54.8993 11.3633 53.1219C10.9497 55.9637 12.8884 58.7675 14.3236 61.2959C16.4839 61.1647 18.8175 60.5647 21.2656 59.4605L20.4968 60.3256C20.4968 60.3256 30.1856 56.964 30.3846 56.748C30.5838 56.532 41.8652 45.1426 41.8652 45.1426L49.2313 29.2535L47.0951 18.4053Z" fill="url(#paint20_linear_602_5642)"/>
<path opacity="0.5" d="M44.7918 23.3354C44.7918 11.983 36.8215 7.38161 26.9897 13.058C17.1578 18.7344 9.1875 32.5391 9.1875 43.8915C9.1875 55.2441 17.1578 59.8454 26.9897 54.169C36.8215 48.4926 44.7918 34.6879 44.7918 23.3354Z" fill="url(#paint21_linear_602_5642)"/>
<path opacity="0.48" d="M43.2429 22.495C43.2429 11.1425 35.2726 6.5411 25.4407 12.2176C15.6089 17.894 7.63867 31.6987 7.63867 43.0511C7.63867 54.4036 15.6089 59.005 25.4407 53.3286C35.2726 47.6521 43.2429 33.8475 43.2429 22.495Z" fill="url(#paint22_linear_602_5642)"/>
<path d="M28.9354 7.30869C16.07 14.7365 5.64062 32.8004 5.64062 47.6557C5.64062 62.5108 16.07 68.5319 28.9354 61.1041C41.8008 53.6763 52.2303 35.6123 52.2303 20.7571C52.2303 5.90193 41.8008 -0.119128 28.9354 7.30869ZM28.9354 54.7619C19.1036 60.4383 11.1333 55.837 11.1333 44.4845C11.1333 33.132 19.1036 19.3273 28.9354 13.6509C38.7673 7.97445 46.7376 12.5759 46.7376 23.9283C46.7376 35.2809 38.7673 49.0855 28.9354 54.7619Z" fill="#BCBEFF"/>
<path d="M28.9354 7.30869C16.07 14.7365 5.64062 32.8004 5.64062 47.6557C5.64062 62.5108 16.07 68.5319 28.9354 61.1041C41.8008 53.6763 52.2303 35.6123 52.2303 20.7571C52.2303 5.90193 41.8008 -0.119128 28.9354 7.30869ZM28.9354 54.7619C19.1036 60.4383 11.1333 55.837 11.1333 44.4845C11.1333 33.132 19.1036 19.3273 28.9354 13.6509C38.7673 7.97445 46.7376 12.5759 46.7376 23.9283C46.7376 35.2809 38.7673 49.0855 28.9354 54.7619Z" fill="#BCBEFF"/>
<path d="M5.99456 48.0539C5.99456 33.1987 16.4241 15.1347 29.2895 7.70693C37.2083 3.13497 44.1997 3.66493 48.4088 8.20731C44.2448 3.3001 37.0804 2.60631 28.9356 7.30875C16.0701 14.7366 5.64062 32.8005 5.64062 47.6558C5.64062 53.3673 7.18688 57.7664 9.81617 60.6038C7.40284 57.7597 5.99456 53.5044 5.99456 48.0539Z" fill="white"/>
<path d="M29.2897 55.1598C39.1215 49.4833 47.0919 35.6787 47.0919 24.3262C47.0919 19.9281 45.8917 16.549 43.8545 14.3826C45.6758 16.5558 46.7379 19.7911 46.7379 23.928C46.7379 35.2806 38.7677 49.0852 28.9359 54.7616C22.9129 58.239 17.5926 57.8537 14.3711 54.4279C17.5476 58.2184 23.0408 58.7676 29.2897 55.1598Z" fill="white"/>
<defs>
<linearGradient id="paint0_linear_602_5642" x1="36.7112" y1="18.6809" x2="116.17" y2="125.241" gradientUnits="userSpaceOnUse">
<stop stop-color="#BCBEFF"/>
<stop offset="0.483871" stop-color="#5761D7"/>
<stop offset="0.575687" stop-color="#5C66D9"/>
<stop offset="0.683922" stop-color="#6A73DF"/>
<stop offset="0.800465" stop-color="#8289E8"/>
<stop offset="0.922044" stop-color="#A3A7F5"/>
<stop offset="1" stop-color="#BCBEFF"/>
</linearGradient>
<linearGradient id="paint1_linear_602_5642" x1="32.2656" y1="52.5167" x2="103.444" y2="52.5167" gradientUnits="userSpaceOnUse">
<stop stop-color="#42E8E0"/>
<stop offset="0.150735" stop-color="#43E3E0"/>
<stop offset="0.328491" stop-color="#45D5DF"/>
<stop offset="0.519898" stop-color="#49BDDD"/>
<stop offset="0.720931" stop-color="#4E9CDB"/>
<stop offset="0.927424" stop-color="#5472D8"/>
<stop offset="1" stop-color="#5761D7"/>
</linearGradient>
<linearGradient id="paint2_linear_602_5642" x1="36.291" y1="55.4581" x2="109.879" y2="55.4581" gradientUnits="userSpaceOnUse">
<stop stop-color="#42E8E0"/>
<stop offset="0.150735" stop-color="#43E3E0"/>
<stop offset="0.328491" stop-color="#45D5DF"/>
<stop offset="0.519898" stop-color="#49BDDD"/>
<stop offset="0.720931" stop-color="#4E9CDB"/>
<stop offset="0.927424" stop-color="#5472D8"/>
<stop offset="1" stop-color="#5761D7"/>
</linearGradient>
<linearGradient id="paint3_linear_602_5642" x1="36.9121" y1="59.5714" x2="119.525" y2="59.5714" gradientUnits="userSpaceOnUse">
<stop stop-color="#42E8E0"/>
<stop offset="0.150735" stop-color="#43E3E0"/>
<stop offset="0.328491" stop-color="#45D5DF"/>
<stop offset="0.519898" stop-color="#49BDDD"/>
<stop offset="0.720931" stop-color="#4E9CDB"/>
<stop offset="0.927424" stop-color="#5472D8"/>
<stop offset="1" stop-color="#5761D7"/>
</linearGradient>
<linearGradient id="paint4_linear_602_5642" x1="37.5352" y1="64.6843" x2="128.555" y2="64.6843" gradientUnits="userSpaceOnUse">
<stop stop-color="#42E8E0"/>
<stop offset="0.150735" stop-color="#43E3E0"/>
<stop offset="0.328491" stop-color="#45D5DF"/>
<stop offset="0.519898" stop-color="#49BDDD"/>
<stop offset="0.720931" stop-color="#4E9CDB"/>
<stop offset="0.927424" stop-color="#5472D8"/>
<stop offset="1" stop-color="#5761D7"/>
</linearGradient>
<linearGradient id="paint5_linear_602_5642" x1="38.1328" y1="70.5856" x2="136.593" y2="70.5856" gradientUnits="userSpaceOnUse">
<stop stop-color="#42E8E0"/>
<stop offset="0.150735" stop-color="#43E3E0"/>
<stop offset="0.328491" stop-color="#45D5DF"/>
<stop offset="0.519898" stop-color="#49BDDD"/>
<stop offset="0.720931" stop-color="#4E9CDB"/>
<stop offset="0.927424" stop-color="#5472D8"/>
<stop offset="1" stop-color="#5761D7"/>
</linearGradient>
<linearGradient id="paint6_linear_602_5642" x1="38.6797" y1="77.0291" x2="143.304" y2="77.0291" gradientUnits="userSpaceOnUse">
<stop stop-color="#42E8E0"/>
<stop offset="0.150735" stop-color="#43E3E0"/>
<stop offset="0.328491" stop-color="#45D5DF"/>
<stop offset="0.519898" stop-color="#49BDDD"/>
<stop offset="0.720931" stop-color="#4E9CDB"/>
<stop offset="0.927424" stop-color="#5472D8"/>
<stop offset="1" stop-color="#5761D7"/>
</linearGradient>
<linearGradient id="paint7_linear_602_5642" x1="39.1523" y1="83.7477" x2="148.408" y2="83.7477" gradientUnits="userSpaceOnUse">
<stop stop-color="#42E8E0"/>
<stop offset="0.150735" stop-color="#43E3E0"/>
<stop offset="0.328491" stop-color="#45D5DF"/>
<stop offset="0.519898" stop-color="#49BDDD"/>
<stop offset="0.720931" stop-color="#4E9CDB"/>
<stop offset="0.927424" stop-color="#5472D8"/>
<stop offset="1" stop-color="#5761D7"/>
</linearGradient>
<linearGradient id="paint8_linear_602_5642" x1="39.5352" y1="90.4622" x2="151.698" y2="90.4622" gradientUnits="userSpaceOnUse">
<stop stop-color="#42E8E0"/>
<stop offset="0.150735" stop-color="#43E3E0"/>
<stop offset="0.328491" stop-color="#45D5DF"/>
<stop offset="0.519898" stop-color="#49BDDD"/>
<stop offset="0.720931" stop-color="#4E9CDB"/>
<stop offset="0.927424" stop-color="#5472D8"/>
<stop offset="1" stop-color="#5761D7"/>
</linearGradient>
<linearGradient id="paint9_linear_602_5642" x1="39.8066" y1="96.8927" x2="153.031" y2="96.8927" gradientUnits="userSpaceOnUse">
<stop stop-color="#42E8E0"/>
<stop offset="0.150735" stop-color="#43E3E0"/>
<stop offset="0.328491" stop-color="#45D5DF"/>
<stop offset="0.519898" stop-color="#49BDDD"/>
<stop offset="0.720931" stop-color="#4E9CDB"/>
<stop offset="0.927424" stop-color="#5472D8"/>
<stop offset="1" stop-color="#5761D7"/>
</linearGradient>
<linearGradient id="paint10_linear_602_5642" x1="22.5977" y1="50.8686" x2="102.901" y2="50.8686" gradientUnits="userSpaceOnUse">
<stop stop-color="#42E8E0"/>
<stop offset="0.150735" stop-color="#43E3E0"/>
<stop offset="0.328491" stop-color="#45D5DF"/>
<stop offset="0.519898" stop-color="#49BDDD"/>
<stop offset="0.720931" stop-color="#4E9CDB"/>
<stop offset="0.927424" stop-color="#5472D8"/>
<stop offset="1" stop-color="#5761D7"/>
</linearGradient>
<linearGradient id="paint11_linear_602_5642" x1="8.70768" y1="42.7215" x2="96.4653" y2="100.153" gradientUnits="userSpaceOnUse">
<stop stop-color="#5761D7"/>
<stop offset="1" stop-color="#5761D7"/>
</linearGradient>
<linearGradient id="paint12_linear_602_5642" x1="22.6859" y1="78.1199" x2="25.4406" y2="82.8907" gradientUnits="userSpaceOnUse">
<stop stop-color="#5761D7"/>
<stop offset="0.164464" stop-color="#5E67DA"/>
<stop offset="0.405065" stop-color="#727AE2"/>
<stop offset="0.692353" stop-color="#9297EE"/>
<stop offset="1" stop-color="#BCBEFF"/>
</linearGradient>
<linearGradient id="paint13_linear_602_5642" x1="22.6858" y1="85.6851" x2="25.4405" y2="90.4559" gradientUnits="userSpaceOnUse">
<stop stop-color="#5761D7"/>
<stop offset="0.164464" stop-color="#5E67DA"/>
<stop offset="0.405065" stop-color="#727AE2"/>
<stop offset="0.692353" stop-color="#9297EE"/>
<stop offset="1" stop-color="#BCBEFF"/>
</linearGradient>
<linearGradient id="paint14_linear_602_5642" x1="22.6859" y1="93.383" x2="25.4406" y2="98.1539" gradientUnits="userSpaceOnUse">
<stop stop-color="#5761D7"/>
<stop offset="0.164464" stop-color="#5E67DA"/>
<stop offset="0.405065" stop-color="#727AE2"/>
<stop offset="0.692353" stop-color="#9297EE"/>
<stop offset="1" stop-color="#BCBEFF"/>
</linearGradient>
<linearGradient id="paint15_linear_602_5642" x1="11.1025" y1="85.643" x2="32.3925" y2="85.643" gradientUnits="userSpaceOnUse">
<stop stop-color="#5761D7"/>
<stop offset="0.164464" stop-color="#5E67DA"/>
<stop offset="0.405065" stop-color="#727AE2"/>
<stop offset="0.692353" stop-color="#9297EE"/>
<stop offset="1" stop-color="#BCBEFF"/>
</linearGradient>
<linearGradient id="paint16_linear_602_5642" x1="21.5469" y1="78.8674" x2="29.3343" y2="78.8674" gradientUnits="userSpaceOnUse">
<stop stop-color="#42E8E0"/>
<stop offset="0.150735" stop-color="#43E3E0"/>
<stop offset="0.328491" stop-color="#45D5DF"/>
<stop offset="0.519898" stop-color="#49BDDD"/>
<stop offset="0.720931" stop-color="#4E9CDB"/>
<stop offset="0.927424" stop-color="#5472D8"/>
<stop offset="1" stop-color="#5761D7"/>
</linearGradient>
<linearGradient id="paint17_linear_602_5642" x1="21.5469" y1="86.4325" x2="29.3343" y2="86.4325" gradientUnits="userSpaceOnUse">
<stop stop-color="#42E8E0"/>
<stop offset="0.150735" stop-color="#43E3E0"/>
<stop offset="0.328491" stop-color="#45D5DF"/>
<stop offset="0.519898" stop-color="#49BDDD"/>
<stop offset="0.720931" stop-color="#4E9CDB"/>
<stop offset="0.927424" stop-color="#5472D8"/>
<stop offset="1" stop-color="#5761D7"/>
</linearGradient>
<linearGradient id="paint18_linear_602_5642" x1="21.5469" y1="94.1301" x2="29.3343" y2="94.1301" gradientUnits="userSpaceOnUse">
<stop stop-color="#42E8E0"/>
<stop offset="0.150735" stop-color="#43E3E0"/>
<stop offset="0.328491" stop-color="#45D5DF"/>
<stop offset="0.519898" stop-color="#49BDDD"/>
<stop offset="0.720931" stop-color="#4E9CDB"/>
<stop offset="0.927424" stop-color="#5472D8"/>
<stop offset="1" stop-color="#5761D7"/>
</linearGradient>
<linearGradient id="paint19_linear_602_5642" x1="-2.51899" y1="45.585" x2="47.8083" y2="16.4093" gradientUnits="userSpaceOnUse">
<stop stop-color="#5761D7"/>
<stop offset="0.164464" stop-color="#5E67DA"/>
<stop offset="0.405065" stop-color="#727AE2"/>
<stop offset="0.692353" stop-color="#9297EE"/>
<stop offset="1" stop-color="#BCBEFF"/>
</linearGradient>
<linearGradient id="paint20_linear_602_5642" x1="52.6653" y1="19.7128" x2="7.35458" y2="52.8873" gradientUnits="userSpaceOnUse">
<stop stop-color="#5761D7"/>
<stop offset="0.164464" stop-color="#5E67DA"/>
<stop offset="0.405065" stop-color="#727AE2"/>
<stop offset="0.692353" stop-color="#9297EE"/>
<stop offset="1" stop-color="#BCBEFF"/>
</linearGradient>
<linearGradient id="paint21_linear_602_5642" x1="9.18751" y1="33.6135" x2="44.7918" y2="33.6135" gradientUnits="userSpaceOnUse">
<stop stop-color="#42E8E0"/>
<stop offset="0.150735" stop-color="#43E3E0"/>
<stop offset="0.328491" stop-color="#45D5DF"/>
<stop offset="0.519898" stop-color="#49BDDD"/>
<stop offset="0.720931" stop-color="#4E9CDB"/>
<stop offset="0.927424" stop-color="#5472D8"/>
<stop offset="1" stop-color="#5761D7"/>
</linearGradient>
<linearGradient id="paint22_linear_602_5642" x1="7.63867" y1="32.7731" x2="43.2429" y2="32.7731" gradientUnits="userSpaceOnUse">
<stop stop-color="#42E8E0"/>
<stop offset="0.150735" stop-color="#43E3E0"/>
<stop offset="0.328491" stop-color="#45D5DF"/>
<stop offset="0.519898" stop-color="#49BDDD"/>
<stop offset="0.720931" stop-color="#4E9CDB"/>
<stop offset="0.927424" stop-color="#5472D8"/>
<stop offset="1" stop-color="#5761D7"/>
</linearGradient>
</defs>
</svg>
