<svg width="200" height="186" viewBox="0 0 200 186" fill="none" xmlns="http://www.w3.org/2000/svg">
<path opacity="0.5" d="M50.5391 47.4029L59.3145 52.5062C61.9506 54.0393 64.2982 53.4653 65.1664 51.0754L82.519 3.31419C84.5008 -2.14067 92.5999 2.79091 94.3125 10.4953L104.997 58.5632C105.778 62.0763 108.195 65.5797 110.938 67.1753L113.49 68.6592C115.97 70.1014 118.211 69.6854 119.188 67.6018L122.723 60.0565C124.914 55.3795 132.217 59.791 134.208 66.9948C135.126 70.3176 137.428 73.4974 139.996 74.9906L142.225 76.2868C144.928 77.8588 147.319 77.212 148.134 74.6884L151.355 64.7163C153.173 59.0877 161.296 63.7747 163.159 71.5271L173.852 116.025C174.692 119.522 177.121 122.954 179.84 124.488L192.186 131.45L50.5391 47.4029Z" fill="#71FFF8"/>
<path d="M192.114 131.58L179.768 124.617C176.998 123.055 174.562 119.616 173.708 116.06L163.015 71.5617C161.751 66.3013 157.551 62.5061 154.572 62.3905C154.523 62.3887 154.474 62.3874 154.426 62.3874C153.008 62.3874 151.997 63.2057 151.494 64.7619L148.273 74.734C147.901 75.8881 147.199 76.6934 146.242 77.0627C145.089 77.5093 143.635 77.2792 142.15 76.4158L139.921 75.1194C137.34 73.6183 134.987 70.3693 134.065 67.0343C132.658 61.9421 128.746 58.5298 125.93 58.2892C124.537 58.1618 123.472 58.8019 122.855 60.1194L119.32 67.6651C118.887 68.5911 118.194 69.2256 117.318 69.5015C116.2 69.8547 114.813 69.5998 113.416 68.7877L110.864 67.3039C108.064 65.6748 105.648 62.1753 104.853 58.5953L94.168 10.5275C92.9957 5.25478 88.8092 1.35821 85.7851 1.15903C84.2972 1.05946 83.2165 1.82328 82.6566 3.3646L65.3038 51.1263C64.9101 52.2099 64.2102 52.962 63.2787 53.3028C62.1328 53.7215 60.6997 53.4834 59.2401 52.6348L50.4648 47.5315L50.6122 47.2742L59.3874 52.3775C60.7703 53.1822 62.1163 53.4117 63.1779 53.0239C64.0253 52.714 64.6645 52.0225 65.0275 51.0248L82.3802 3.2632C82.9808 1.60927 84.2119 0.756973 85.8041 0.863376C88.9326 1.06934 93.2549 5.06242 94.4553 10.4632L105.14 58.531C105.907 61.9798 108.321 65.4818 111.012 67.0466L113.563 68.5304C114.889 69.3023 116.193 69.5454 117.23 69.2188C118.026 68.9683 118.657 68.3869 119.054 67.5389L122.589 59.9932C123.254 58.5743 124.46 57.8667 125.954 57.9935C128.87 58.2428 132.908 61.7398 134.349 66.9551C135.252 70.2195 137.55 73.3974 140.069 74.862L142.298 76.1584C143.704 76.9767 145.068 77.2 146.137 76.7856C147.007 76.4492 147.649 75.7082 147.993 74.6425L151.214 64.6703C151.771 62.9459 152.951 62.0373 154.584 62.0936C157.733 62.2161 161.987 66.0217 163.301 71.4924L173.994 115.99C174.831 119.471 177.209 122.834 179.911 124.359L192.258 131.321L192.114 131.58Z" fill="#42E8E0"/>
<path d="M180.039 135.478L170.398 130.041C167.629 128.48 165.193 125.04 164.339 121.483L153.646 76.9854C152.382 71.725 148.183 67.9298 145.204 67.8142C143.725 67.7634 142.645 68.5762 142.125 70.1861L138.904 80.1583C138.532 81.3124 137.829 82.1177 136.873 82.487C135.719 82.9329 134.265 82.7028 132.781 81.8394L130.552 80.5431C127.971 79.0419 125.618 75.7929 124.696 72.4585C123.289 67.3664 119.377 63.9541 116.561 63.7128C115.164 63.5966 114.103 64.2262 113.486 65.5436L109.951 73.0888C109.518 74.0147 108.825 74.6493 107.949 74.9257C106.829 75.2771 105.443 75.0235 104.047 74.212L101.495 72.7276C98.6952 71.099 96.2789 67.5995 95.4837 64.019L84.7988 15.9512C83.6266 10.6784 79.4401 6.78246 76.416 6.58333C74.9312 6.48744 73.8474 7.24822 73.2874 8.78891L55.9346 56.5499C55.541 57.6329 54.841 58.3857 53.9095 58.7265C52.7668 59.1446 51.3318 58.9077 49.871 58.0591L41.0957 52.9558L41.2431 52.6985L50.0183 57.8018C51.4017 58.6058 52.7478 58.8341 53.8088 58.4475C54.6562 58.1377 55.2954 57.4462 55.6583 56.4485L73.0111 8.68744C73.6122 7.03357 74.8268 6.18501 76.435 6.28705C79.5635 6.49301 83.8857 10.4861 85.0862 15.8869L95.7711 63.9547C96.5374 67.4041 98.9518 70.9061 101.643 72.4703L104.194 73.9547C105.52 74.726 106.822 74.9703 107.862 74.6424C108.657 74.392 109.287 73.8106 109.685 72.9626L113.22 65.4174C113.885 63.998 115.087 63.2886 116.585 63.4172C119.5 63.6665 123.539 67.1641 124.98 72.3794C125.882 75.6438 128.181 78.8211 130.7 80.2857L132.928 81.5821C134.334 82.4004 135.699 82.6255 136.768 82.2099C137.638 81.8734 138.28 81.1324 138.624 80.0668L141.845 70.0946C142.384 68.4259 143.523 67.5148 145.06 67.5148C145.112 67.5148 145.163 67.5154 145.215 67.5179C148.364 67.6397 152.618 71.4454 153.932 76.9161L164.625 121.414C165.462 124.895 167.84 128.258 170.542 129.782L180.183 135.219L180.039 135.478Z" fill="#42E8E0"/>
<path d="M74.6591 6.97604L74.5117 6.71871L83.9575 1.24866L84.1048 1.50599L74.6591 6.97604Z" fill="#42E8E0"/>
<path d="M123.918 58.4336L114.361 63.9846L114.509 64.2419L124.065 58.6909L123.918 58.4336Z" fill="#42E8E0"/>
<path d="M143.318 68.3641L143.172 68.1068L153.133 62.3491L153.28 62.6064L143.318 68.3641Z" fill="#42E8E0"/>
<path d="M199.672 135.836L179.768 124.617C176.998 123.055 174.562 119.616 173.708 116.06L163.015 71.5617C161.751 66.3013 157.551 62.5061 154.572 62.3905C154.523 62.3887 154.474 62.3874 154.426 62.3874C153.008 62.3874 151.997 63.2057 151.494 64.7619L148.274 74.734C147.901 75.8881 147.199 76.6934 146.242 77.0627C145.089 77.5093 143.635 77.2792 142.15 76.4158L139.921 75.1194C137.341 73.6183 134.987 70.3693 134.065 67.0343C132.658 61.9421 128.746 58.5298 125.93 58.2892C124.537 58.1618 123.472 58.8026 122.855 60.1194L119.32 67.6651C118.887 68.5911 118.194 69.2256 117.318 69.5015C116.2 69.8547 114.813 69.5998 113.416 68.7877L110.864 67.3039C108.064 65.6748 105.648 62.1753 104.853 58.5953L94.168 10.5275C92.9957 5.25478 88.8092 1.35821 85.7851 1.15903C84.3016 1.05946 83.2165 1.82392 82.6566 3.3646L65.3038 51.1263C64.9101 52.2099 64.2102 52.962 63.2787 53.3028C62.1328 53.7215 60.6997 53.4834 59.2401 52.6348L50.4648 47.5315L50.6122 47.2742L59.3874 52.3775C60.7703 53.1822 62.1163 53.4117 63.1779 53.0239C64.0253 52.714 64.6645 52.0225 65.0275 51.0248L82.3802 3.2632C82.9808 1.60927 84.2119 0.756973 85.8041 0.863376C88.9326 1.06934 93.2549 5.06242 94.4553 10.4632L105.14 58.531C105.907 61.9798 108.321 65.4818 111.012 67.0466L113.563 68.5304C114.889 69.3023 116.193 69.5454 117.23 69.2188C118.026 68.9683 118.657 68.3869 119.054 67.5389L122.589 59.9932C123.254 58.5743 124.46 57.8667 125.954 57.9935C128.87 58.2428 132.908 61.7398 134.349 66.9551C135.252 70.2195 137.55 73.3974 140.069 74.862L142.298 76.1584C143.704 76.9767 145.068 77.2 146.137 76.7856C147.007 76.4492 147.649 75.7082 147.994 74.6425L151.214 64.6703C151.771 62.9459 152.951 62.0373 154.584 62.0936C157.733 62.2161 161.987 66.0217 163.301 71.4924L173.994 115.99C174.831 119.471 177.209 122.834 179.911 124.359L199.816 135.577L199.672 135.836Z" fill="#42E8E0"/>
<path d="M73.195 185.327C72.0689 185.327 70.9428 185.033 69.9388 184.445L13.016 151.08C12.4125 150.726 12.0514 150.094 12.0508 149.39C12.0508 148.686 12.4106 148.054 13.0142 147.7L32.2723 136.38L32.421 136.636L13.1628 147.956C12.6507 148.256 12.3455 148.793 12.3455 149.39C12.3461 149.987 12.6519 150.523 13.1647 150.824L70.0874 184.189C71.9983 185.308 74.374 185.311 76.2874 184.197L151.375 140.576C153.254 139.486 155.593 139.476 157.479 140.55L164.044 144.29C165.845 145.317 168.075 145.304 169.865 144.259L180.244 138.204C180.715 137.929 180.995 137.437 180.991 136.888C180.987 136.338 180.701 135.85 180.225 135.581L170.399 130.041C167.63 128.48 165.194 125.04 164.339 121.483L153.647 76.9854C152.383 71.725 148.184 67.9298 145.205 67.8142C143.726 67.7634 142.646 68.5762 142.126 70.1861L138.905 80.1583C138.533 81.3124 137.83 82.1177 136.874 82.487C135.72 82.9329 134.266 82.7028 132.782 81.8394L130.553 80.5431C127.972 79.0419 125.619 75.7929 124.697 72.4585C123.29 67.3664 119.378 63.9541 116.562 63.7128C115.165 63.5966 114.104 64.2262 113.487 65.5436L109.952 73.0888C109.519 74.0147 108.826 74.6493 107.95 74.9257C106.83 75.2771 105.444 75.0235 104.047 74.212L101.496 72.7276C98.6962 71.099 96.2799 67.5995 95.4847 64.019L84.7998 15.9512C83.6276 10.6784 79.4411 6.78246 76.417 6.58333C74.9322 6.48744 73.8484 7.24822 73.2884 8.78891L55.9356 56.5499C55.542 57.6329 54.842 58.3857 53.9105 58.7265C52.7678 59.1446 51.3328 58.9077 49.872 58.0591L41.0967 52.9558L41.2441 52.6985L50.0193 57.8018C51.4027 58.6058 52.7488 58.8341 53.8098 58.4475C54.6572 58.1377 55.2964 57.4462 55.6593 56.4485L73.0121 8.68744C73.6132 7.03357 74.8278 6.18501 76.436 6.28705C79.5645 6.49301 83.8867 10.4861 85.0872 15.8869L95.7721 63.9547C96.5384 67.4041 98.9528 70.9061 101.644 72.4703L104.195 73.9547C105.521 74.726 106.823 74.9703 107.863 74.6424C108.658 74.392 109.288 73.8106 109.686 72.9626L113.221 65.4174C113.886 63.998 115.088 63.2886 116.586 63.4172C119.501 63.6665 123.54 67.1641 124.981 72.3794C125.883 75.6438 128.182 78.8211 130.701 80.2857L132.929 81.5821C134.335 82.4004 135.7 82.6255 136.769 82.2099C137.639 81.8734 138.281 81.1324 138.625 80.0668L141.846 70.0946C142.385 68.4259 143.524 67.5148 145.061 67.5148C145.113 67.5148 145.164 67.5154 145.216 67.5179C148.365 67.6397 152.619 71.4454 153.933 76.9161L164.626 121.414C165.463 124.895 167.841 128.258 170.543 129.782L180.368 135.323C180.938 135.644 181.281 136.228 181.285 136.885C181.29 137.543 180.956 138.131 180.391 138.461L170.013 144.516C168.134 145.614 165.79 145.626 163.899 144.548L157.335 140.809C155.538 139.785 153.311 139.795 151.523 140.834L76.4348 184.455C75.4351 185.036 74.3151 185.327 73.195 185.327Z" fill="#42E8E0"/>
<path opacity="0.5" d="M41.1719 52.6896L49.9473 57.793C52.5834 59.326 54.931 58.752 55.7993 56.3621L73.1519 8.60093C75.1337 3.14607 83.2328 8.07765 84.9453 15.782L95.6298 63.85C96.4107 67.363 98.8278 70.8665 101.571 72.462L104.123 73.946C106.603 75.3882 108.844 74.9722 109.82 72.8885L113.356 65.3432C115.547 60.6662 122.85 65.0778 124.841 72.2816C125.759 75.6043 128.061 78.7841 130.629 80.2773L132.858 81.5736C135.561 83.1456 137.952 82.4988 138.767 79.9752L141.988 70.0031C143.805 64.3744 151.929 69.0615 153.792 76.8138L164.484 121.312C165.325 124.809 167.753 128.241 170.473 129.775L182.819 136.737L41.1719 52.6896Z" fill="#42E8E0"/>
<path d="M64.0623 154.693C63.4937 154.693 62.9503 154.577 62.545 154.341V154.341L1.15881 118.436C0.740031 118.193 0.509766 117.85 0.509766 117.468C0.509766 117.02 0.833326 116.575 1.39765 116.246L42.6421 92.2606C43.6657 91.6663 45.2236 91.6038 46.1139 92.1215L107.5 128.027C107.919 128.27 108.149 128.614 108.149 128.995C108.149 129.443 107.826 129.889 107.261 130.217L66.0168 154.203C65.4593 154.527 64.7426 154.693 64.0623 154.693ZM62.6924 154.085C63.5023 154.555 64.9281 154.494 65.8694 153.946L107.114 129.96C107.585 129.686 107.854 129.335 107.854 128.995C107.854 128.724 107.676 128.472 107.353 128.284L45.9665 92.3782C45.1572 91.9075 43.7314 91.9694 42.7895 92.518L1.54498 116.504C1.07403 116.777 0.804467 117.129 0.804467 117.468C0.804467 117.739 0.982538 117.992 1.30618 118.18L62.6924 154.085Z" fill="#42E8E0"/>
<path d="M62.4981 144.98L2.65815 109.974C1.83081 109.493 1.93456 108.653 2.88993 108.097L42.9317 84.8106C43.8871 84.2551 45.3323 84.1948 46.1596 84.6759L106 119.681C106.827 120.162 106.723 121.003 105.768 121.559L65.726 144.845C64.7706 145.4 63.3254 145.461 62.4981 144.98Z" fill="url(#paint0_linear_602_5755)"/>
<path opacity="0.4" d="M108.001 117.516L93.9379 116.593L46.0415 88.5331C45.1893 88.0375 43.7007 88.0996 42.7167 88.6719L11.7529 106.679L0.658203 105.951V113.748L0.668316 113.749C0.667625 114.064 0.846771 114.366 1.23352 114.591L62.6196 150.496C63.4717 150.991 64.9603 150.929 65.9443 150.357L107.189 126.371C107.711 126.068 107.978 125.682 107.994 125.312L108.001 125.313V117.516V117.516Z" fill="#42E8E0"/>
<path d="M108.001 112.251L93.9379 111.328L46.0415 83.2684C45.1893 82.7728 43.7007 82.835 42.7167 83.4073L11.7529 101.414L0.658203 100.686V108.483L0.668316 108.484C0.667625 108.8 0.846771 109.102 1.23352 109.326L62.6196 145.231C63.4717 145.727 64.9603 145.665 65.9443 145.092L107.189 121.107C107.711 120.803 107.978 120.417 107.994 120.047L108.001 120.048V112.251V112.251Z" fill="url(#paint1_linear_602_5755)"/>
<path d="M62.6196 137.372L1.23352 101.467C0.381346 100.972 0.48817 100.106 1.47227 99.5337L42.7167 75.548C43.7007 74.9757 45.1894 74.9136 46.0415 75.4092L107.428 111.314C108.28 111.809 108.173 112.675 107.189 113.247L65.9444 137.233C64.9603 137.805 63.4717 137.867 62.6196 137.372Z" fill="url(#paint2_linear_602_5755)"/>
<path d="M107.188 112.539L65.9432 136.525C64.9592 137.097 63.4706 137.159 62.6184 136.664L1.23238 100.759C0.988929 100.618 0.832674 100.444 0.743831 100.258C0.541101 100.697 0.696166 101.155 1.23238 101.467L62.6184 137.372C63.4706 137.867 64.9592 137.805 65.9432 137.233L107.188 113.247C107.891 112.839 108.137 112.282 107.915 111.815C107.795 112.074 107.553 112.327 107.188 112.539Z" fill="white"/>
<path opacity="0.2" d="M45.2446 102.02C53.6543 102.02 60.4716 98.0557 60.4716 93.1651C60.4716 88.2744 53.6543 84.3098 45.2446 84.3098C36.835 84.3098 30.0176 88.2744 30.0176 93.1651C30.0176 98.0557 36.835 102.02 45.2446 102.02Z" fill="#160A5B"/>
<path d="M53.5393 92.1962L53.5929 92.453L53.6605 92.2817C53.6605 92.2817 54.0298 93.6159 53.7385 94.2837C53.4467 94.9525 53.0125 95.7816 52.3876 96.7215C51.7613 97.6636 50.7608 99.6303 50.4953 100.01C50.2296 100.389 48.6779 101.866 46.7218 102.094C44.7646 102.323 44.2622 101.058 44.4223 100.374C44.5822 99.6909 45.6253 97.89 46.7593 96.428C47.8893 94.9712 48.7447 93.1017 48.7447 93.1017L53.5393 92.1962Z" fill="#160A5B"/>
<path d="M47.6895 86.3762C47.6895 86.3762 47.7581 87.7432 47.6324 88.3068C47.5066 88.8711 44.6778 89.0484 43.6716 89.1924C42.665 89.3366 40.9092 90.1356 40.3596 90.4357C39.8096 90.736 36.1215 91.1701 35.6847 89.6583C35.2496 88.152 37.5467 86.8938 39.0986 86.4973C40.649 86.1012 43.1798 85.2443 43.1798 85.2443L47.6895 86.3762Z" fill="#160A5B"/>
<path d="M56.9791 60.2319C56.9791 60.2319 57.1433 63.8318 56.1115 68.8526C55.0661 73.9389 55.2613 77.5388 55.2613 77.5388C55.2613 77.5388 56.5571 83.4304 55.5683 87.5004C54.5694 91.6122 53.6791 92.7735 53.6791 92.7735C53.6791 92.7735 51.5793 95.9468 48.7432 93.1017C48.7432 93.1017 50.2637 87.4415 50.4051 82.9936C50.4051 82.9936 49.007 79.7565 48.5124 76.8907C48.5124 76.8907 48.1525 81.4544 47.9283 83.3139C47.9283 83.3139 48.1853 86.061 47.5306 87.1767C46.874 88.2958 43.8748 88.6203 42.9177 86.6772C41.9652 84.7435 43.7109 85.6886 43.174 76.8907C43.174 76.8907 40.4619 73.193 40.0918 66.4806C39.7279 59.8819 39.7754 57.2982 40.1238 56.0333C40.4711 54.7723 46.3111 50.2646 46.3111 50.2646L49.6401 54.7317L56.9791 60.2319Z" fill="#24126A"/>
<path d="M43.8515 67.6123C42.881 66.355 42.3379 62.4415 42.3379 62.4415C42.3379 62.4415 43.8482 65.7279 44.9347 66.6899C46.024 67.6543 46.9661 69.5902 47.1682 70.858C47.3708 72.1298 48.5127 76.8906 48.5127 76.8906C48.5127 76.8906 48.1528 81.4543 47.9287 83.3138C47.9287 83.3138 48.1857 86.0607 47.531 87.1766C47.3987 87.4022 47.1682 87.5932 46.8812 87.7421C46.8824 87.6888 47.0144 81.617 46.8334 79.0701C46.6528 76.5283 44.825 68.8736 43.8515 67.6123Z" fill="#160A5B"/>
<path d="M65.0764 34.6932C65.0764 34.6932 67.7053 39.7112 67.9679 40.1017C68.2308 40.4926 73.1252 46.7229 73.7277 50.3717C73.7277 50.3717 74.1406 51.7927 72.5688 53.0572C70.9918 54.3259 62.9288 59.9094 62.4189 59.9918C61.9088 60.0741 58.8791 58.5127 58.6777 55.0296C58.6777 55.0296 65.0212 51.8464 66.3652 50.2647C66.3652 50.2647 63.751 45.8624 62.5039 44.5754C62.1929 44.2543 61.9994 43.6668 61.8841 42.9671C61.4162 40.125 62.4055 37.2941 64.3663 35.3847L65.0764 34.6932Z" fill="#4846A5"/>
<path d="M46.6099 23.196C46.6099 23.196 42.8609 24.6174 41.5786 24.1305C40.298 23.6442 37.153 23.2333 35.0071 22.0034C32.8683 20.7774 23.5369 18.3193 22.1524 18.2334C22.1524 18.2334 22.1266 18.2886 22.354 18.3869C22.5816 18.4852 23.5425 18.5712 23.7747 19.6788C24.0077 20.7897 23.3956 22.1274 23.2349 22.2205C23.0741 22.3135 22.9933 21.9165 22.1042 21.4951C21.2162 21.0742 20.6622 21.0989 20.6622 21.0989L20.3085 21.5384L20.0918 21.8607C20.0918 21.8607 20.4956 23.2147 21.7002 23.3081C22.9051 23.4013 30.6094 26.7221 31.0972 26.8729C31.5852 27.0237 38.1136 29.9297 39.3422 30.3849C40.5724 30.8407 41.5327 31.4255 41.5327 31.4255C41.5327 31.4255 45.3695 28.7882 45.4924 28.7882C45.6152 28.7882 46.6099 23.196 46.6099 23.196Z" fill="#24126A"/>
<path d="M12.969 16.6469C13.1246 16.6836 15.0457 17.3444 15.0457 17.3444C15.0457 17.3444 14.2558 17.7487 14.1694 18.1044C14.0829 18.4604 14.2357 20.4684 14.3038 20.5919C14.372 20.7154 14.7628 20.9875 14.8816 21.0617C15.0004 21.136 15.2787 21.8296 15.5618 21.7428C15.8449 21.6561 15.943 21.2969 15.943 21.2969C15.943 21.2969 16.1659 21.1855 16.2344 21.1422C16.3028 21.0989 17.6967 21.2288 18.1489 21.5322C18.6012 21.8358 19.6552 21.9969 20.0916 21.8606C20.5277 21.7242 21.1767 21.4017 21.3182 21.3216C21.3182 21.3216 21.7966 21.396 22.0602 21.5383C22.324 21.6809 23.1604 22.2638 23.287 22.3134C23.4136 22.3631 25.2434 18.8845 22.1521 18.2333C22.1521 18.2333 20.8656 18.1167 20.3168 17.8468C19.7683 17.577 18.2359 16.3537 17.6569 16.3292C17.0779 16.3048 16.479 16.5002 16.479 16.5002C16.479 16.5002 13.0159 15.4875 12.7134 15.8045C12.4105 16.1217 12.8134 16.6102 12.969 16.6469ZM15.4178 19.0137C15.8312 19.026 16.1427 18.5819 16.1427 18.5819C16.4089 18.7615 16.685 18.5404 16.685 18.5404C16.6826 18.6048 17.1611 18.6971 17.1611 18.6971C17.1611 18.6971 17.3729 18.8815 17.6388 19.0845C17.9048 19.2876 17.5205 19.8883 17.5205 19.8883C17.2556 19.9114 16.9508 19.7773 16.6957 19.6525C16.4408 19.5277 16.2082 19.5416 16.0333 19.4723C15.8584 19.403 15.4178 19.0137 15.4178 19.0137Z" fill="#FCD1C5"/>
<path d="M40.1239 56.0333C40.4712 54.7723 46.3113 50.2646 46.3113 50.2646L47.9599 52.477L49.4182 58.3215L56.9889 60.8332V60.8335C56.9883 60.8406 56.6622 64.9068 50.4777 64.4351C44.2953 63.9635 43.5673 58.8409 43.5673 58.8409C43.5673 58.8409 42.887 60.5161 39.8571 60.9547C39.797 58.2529 39.8959 56.8611 40.1239 56.0333Z" fill="#160A5B"/>
<path d="M57.6751 26.2197L58.7243 28.8388C58.7243 28.8388 63.6423 33.1305 65.0737 34.6931C65.0737 34.6931 62.8149 39.4705 62.5012 44.5753C62.5012 44.5753 60.3065 46.4975 59.6473 47.386C58.9864 48.2765 57.3459 52.4243 56.82 53.799C56.2924 55.1786 57.9222 59.3679 57.9222 59.3679C57.9222 59.3679 55.8714 63.5893 52.4349 63.4509C48.9998 63.3124 46.6473 61.0632 46.1922 57.0938C45.7417 53.1649 45.8661 52.5992 45.8661 52.5992C45.8661 52.5992 44.3561 57.4208 42.0335 57.4208C39.7109 57.4208 36.0579 53.2323 36.0579 53.2323C36.0579 53.2323 33.6107 50.8536 33.8505 49.7833C34.0897 48.7159 39.6877 39.607 39.9917 38.1273C40.2946 36.6533 41.5305 31.4254 41.5305 31.4254L46.6077 23.1959L49.6993 23.3453L57.6751 26.2197Z" fill="#453C9E"/>
<path d="M52.2815 62.4384C48.9995 62.3063 46.7264 60.2282 46.1367 56.5818C46.1551 56.7481 46.1733 56.9137 46.1939 57.094C46.6491 61.0634 49.0016 63.3126 52.4368 63.451C55.873 63.5894 57.924 59.368 57.924 59.368C57.924 59.368 57.8049 59.0599 57.643 58.5905C57.1664 59.4509 55.2378 62.5573 52.2815 62.4384Z" fill="url(#paint3_linear_602_5755)"/>
<path d="M57.6769 26.2197C57.6769 26.2197 57.7335 27.7788 57.163 29.3319C56.5902 30.8914 54.7642 39.8022 50.2698 42.8988L48.5324 44.0616L48.4863 38.3022C48.4863 38.3022 48.4893 34.7998 49.2373 32.5979C49.9809 30.4089 49.9296 27.7536 49.9296 27.7536C49.9296 27.7536 51.1735 27.401 51.1755 27.4262C51.1774 27.4513 57.6769 26.2197 57.6769 26.2197Z" fill="#F0F6FF"/>
<path d="M52.255 30.2821C52.255 30.2821 51.4649 30.6153 51.1169 30.0823C50.7694 29.5503 50.4075 28.4789 50.4942 27.9869C50.4942 27.9869 48.3871 28.094 47.9613 26.9608C47.5368 25.8311 47.9875 25.5367 48.0521 25.1862C48.1167 24.8361 48.1706 23.9185 48.446 23.252L48.4742 22.9659C48.4742 22.9659 48.0447 22.5929 48.2365 22.2018C48.4282 21.8111 49.5585 20.5981 49.673 20.3944C49.7874 20.1906 49.6271 18.694 50.0617 17.9512C50.4955 17.2097 51.3356 16.1828 51.3356 16.1828C51.3356 16.1828 55.6929 12.714 59.2346 16.1828C62.8102 19.685 57.6777 26.2198 57.6777 26.2198C57.6777 26.2198 57.295 28.3558 56.2793 29.2086C55.2614 30.0634 52.255 30.2821 52.255 30.2821Z" fill="#FCD1C5"/>
<path d="M55.3956 21.5661C55.3907 21.4357 55.4046 21.305 55.4444 21.182C55.569 20.7956 55.7717 19.7527 54.6905 18.9646C53.3423 17.9817 50.9831 17.0995 51.0441 16.1218C51.1051 15.1466 54.7549 12.7442 57.4982 14.0284C60.2512 15.317 62.9002 18.5957 61.1232 22.1025C59.3289 25.6432 57.6768 26.2198 57.6768 26.2198C57.6768 26.2198 57.1113 26.1006 57.6041 25.5085C58.0961 24.9172 58.9795 23.4294 58.2102 22.9627C57.4419 22.4966 56.1448 23.504 55.9751 23.7283C55.9095 23.8149 55.843 23.924 55.7859 24.0252C55.6912 24.1934 55.4876 24.2601 55.3126 24.1774L55.2471 24.1464C55.0714 24.0633 54.985 23.8578 55.0482 23.6736L55.3619 22.759C55.4087 22.6225 55.4299 22.4779 55.4244 22.3327L55.3956 21.5661Z" fill="#AA8383"/>
<path d="M52.381 31.2982C52.381 31.2982 53.3965 32.0367 54.0108 33.4541C54.0108 33.4541 52.919 32.3044 52.305 32.075C52.305 32.075 51.1268 32.649 51.1313 33.0321C51.1357 33.4158 51.0509 35.7241 50.7856 36.9722C50.5196 38.2245 50.6 42.6561 50.6 42.6561L49.8451 43.1827L49.4648 41.2297L49.5641 37.0989L50.2265 33.3774C50.2265 33.3774 50.3417 31.9794 50.3963 31.9029C50.451 31.8265 52.381 31.2982 52.381 31.2982Z" fill="#C4CCD6"/>
<path d="M52.3823 31.2983C52.3823 31.2983 51.2208 30.0412 50.6422 30.0158C50.0634 29.9905 49.7562 30.3123 49.7455 30.3849C49.7349 30.4576 49.2086 32.4289 49.2086 32.4289C49.2086 32.4289 48.1514 35.8929 48.2946 39.9714C48.4393 44.0947 48.5331 44.0617 48.5331 44.0617L49.9696 43.1003C49.9696 43.1003 49.5498 40.1537 50.3004 36.7697C51.0443 33.4158 50.3528 32.9173 50.7196 32.5725C51.0862 32.228 52.5665 31.7055 52.3823 31.2983Z" fill="#24126A"/>
<path d="M59.6495 47.3861C58.9887 48.2767 57.3843 52.4183 56.8586 53.793C56.7734 54.0157 56.7087 54.318 56.7199 54.6572C56.5829 54.7534 56.4979 54.813 56.4979 54.813L55.7422 54.0422C55.7422 54.0422 56.3614 51.4973 57.3639 48.3699C58.3583 45.2679 62.5035 44.5754 62.5035 44.5754C62.5035 44.5754 60.3088 46.4977 59.6495 47.3861Z" fill="#24126A"/>
<path d="M58.678 55.1378C58.678 55.1378 57.4329 53.2727 57.0475 53.0302C57.0475 53.0302 57.1464 53.556 56.4667 53.8799C55.7863 54.2041 52.2151 55.6869 52.0931 55.86C51.9711 56.0331 52.1075 56.2471 52.3375 56.298C52.3375 56.298 51.5952 56.5699 51.2892 56.563C50.9832 56.5563 50.5797 56.9713 50.7876 57.3253C50.9957 57.6798 51.1677 57.6525 51.1677 57.6525C51.1677 57.6525 51.0828 58.0482 51.3072 58.1369C51.5318 58.2257 52.0686 58.2394 52.0686 58.2394C52.0686 58.2394 51.9648 58.6357 52.2673 58.7929C52.5697 58.9502 54.0364 59.1213 54.0364 59.1213C54.0364 59.1213 55.1789 58.9913 55.5049 58.9845C55.8309 58.9776 57.328 59.3678 57.9594 59.2719C58.5906 59.1761 60.6632 58.3829 60.8708 58.2496C61.0785 58.1165 58.678 55.1378 58.678 55.1378Z" fill="#FCD1C5"/>
<path d="M58.971 29.6926L58.8754 32.0558L57.6434 32.4575L58.492 33.1664C58.492 33.1664 55.2599 41.1709 50.9414 43.7393C50.9414 43.7393 55.077 42.191 58.8087 33.2367C58.8087 33.2367 58.3902 32.7383 58.2637 32.5979L59.1193 32.2024L58.971 29.6926Z" fill="#24126A"/>
<path d="M48.0287 29.4457C48.0287 29.4457 46.555 37.5318 47.9075 43.7393C47.9075 43.7393 46.307 40.7402 47.6556 29.4457H48.0287Z" fill="#24126A"/>
<path d="M14.2559 17.9378C14.4826 17.6334 15.0459 17.3444 15.0459 17.3444C15.0459 17.3444 16.6134 18.0001 16.8813 18.129C16.8813 18.129 15.254 17.9554 14.2559 17.9378Z" fill="#E2B1A6"/>
<path d="M23.286 22.3135C23.2212 22.2881 22.9697 22.1225 22.7045 21.948V21.9479C23.8042 20.4936 22.6955 18.4019 22.6914 18.3944C25.012 19.32 23.4043 22.3599 23.286 22.3135Z" fill="#E2B1A6"/>
<path d="M60.8714 58.2498C60.7173 58.3486 59.5373 58.8103 58.6801 59.0815C58.6798 59.0803 58.0753 56.7504 58.1852 55.9729C58.2949 55.1971 58.5945 55.0139 58.5945 55.0139C58.6462 55.0897 58.6785 55.138 58.6785 55.138C58.6785 55.138 61.0789 58.1167 60.8714 58.2498Z" fill="#E2B1A6"/>
<path d="M58.6764 55.0295C58.6764 55.0295 58.3319 56.3694 59.2052 57.4107C60.0809 58.4546 60.1792 58.5885 60.1792 58.5885H61.1575C61.1575 58.5885 61.6245 56.9407 61.547 56.8999C61.4695 56.859 58.6764 55.0295 58.6764 55.0295Z" fill="#4846A5"/>
<path d="M49.3786 31.7902C49.3786 31.7902 48.5167 37.3509 48.7389 39.412C48.9624 41.4846 48.9066 43.7394 48.9066 43.7394L48.6174 44.0053L48.5331 44.0617C48.5331 44.0617 48.4393 44.0946 48.2946 39.9714C48.1514 35.8929 49.2086 32.4289 49.2086 32.4289C49.2086 32.4289 49.2842 32.1456 49.3786 31.7902Z" fill="#24126A"/>
<path d="M49.6324 93.818C49.3455 93.6401 49.0494 93.4074 48.7445 93.1016C48.7445 93.1016 50.265 87.4415 50.4064 82.9936C50.4064 82.9936 49.0084 79.7564 48.5137 76.8906C48.6487 77.4576 50.2636 80.5423 51.0166 83.7218C51.7757 86.9268 49.6324 93.8179 49.6324 93.818Z" fill="#160A5B"/>
<path d="M55.5898 25.3441C55.5908 25.3388 55.5923 25.3301 55.5923 25.3301C55.5923 25.3301 55.5914 25.3356 55.5898 25.3441Z" fill="#E2B1A6"/>
<path d="M55.5896 25.3429C55.5658 25.4786 55.2147 27.4153 54.4664 28.3271C53.6889 29.2745 53.0904 30.1906 53.0904 30.1906C52.5973 30.2567 52.2542 30.2818 52.2542 30.2818C52.2542 30.2818 51.4642 30.615 51.1162 30.082C50.7687 29.55 50.4067 28.4786 50.4935 27.9866C50.4935 27.9866 53.3334 27.6842 54.4067 26.9102C55.4013 26.1932 55.5705 25.446 55.5896 25.3429Z" fill="#E2B1A6"/>
<path d="M57.1441 53.05C57.1441 53.05 56.9932 53.4042 56.9651 53.4321C56.9369 53.4601 56.8906 53.1606 56.8906 53.1606C56.8906 53.1606 57.0166 52.8715 57.0237 52.8715L57.1441 53.05Z" fill="#1B2B3A"/>
<path d="M48.5317 44.0616C48.5317 44.0616 46.5405 50.9192 45.8672 52.5992L45.9153 54.2745C45.9153 54.2745 48.4632 45.7037 48.5317 44.0616Z" fill="#24126A"/>
<path d="M46.5869 46.4923C46.4738 46.8915 46.6679 47.3068 47.0206 47.4196C47.3735 47.5325 47.7509 47.2999 47.8634 46.9003C47.9758 46.5013 47.7813 46.0867 47.429 45.9743C47.0769 45.8618 46.7 46.0936 46.5869 46.4923Z" fill="#24126A"/>
<path d="M45.5678 49.4541C45.4537 49.8563 45.648 50.2749 46.002 50.3887C46.356 50.5025 46.7352 50.268 46.8488 49.8653C46.9622 49.463 46.7674 49.0454 46.4139 48.932C46.0606 48.8187 45.6818 49.0523 45.5678 49.4541Z" fill="#24126A"/>
<path d="M55.3617 22.7592C55.4085 22.6227 55.4297 22.4781 55.4242 22.3328L55.3954 21.5661C55.3905 21.4358 55.4044 21.3052 55.4442 21.1821C55.48 21.0711 55.5213 20.9048 55.5377 20.707C55.5377 20.707 58.6473 22.9797 60.5946 23.07C59.0163 25.7512 57.6766 26.22 57.6766 26.22C57.6766 26.22 57.111 26.1007 57.6039 25.5086C58.0959 24.9174 58.9793 23.4295 58.21 22.9628C57.4416 22.4968 56.1446 23.5042 55.9749 23.7284C55.9093 23.8151 55.8427 23.9241 55.7857 24.0253C55.691 24.1935 55.4873 24.2603 55.3124 24.1776L55.2469 24.1465C55.0712 24.0634 54.9848 23.8579 55.048 23.6737L55.3617 22.7592Z" fill="#936D6D"/>
<path opacity="0.2" d="M62.8735 128.37C71.2831 128.37 78.1004 124.405 78.1004 119.514C78.1004 114.624 71.2831 110.659 62.8735 110.659C54.4638 110.659 47.6465 114.624 47.6465 119.514C47.6465 124.405 54.4638 128.37 62.8735 128.37Z" fill="#160A5B"/>
<path d="M62.6078 119.195C62.6078 119.195 61.1085 119.41 59.6813 119.315C58.2546 119.221 54.3309 119.603 54.3088 121.092C54.2868 122.59 56.136 124.945 58.6435 125.536C61.1573 126.128 64.4829 125.731 66.1408 125.957C67.8003 126.183 69.0704 124.567 68.5463 122.833C68.026 121.112 62.6078 119.195 62.6078 119.195Z" fill="#160A5B"/>
<path d="M71.4721 116.122C71.4721 116.122 71.9483 117.076 71.6403 117.597C71.3315 118.119 70.5152 119.412 68.2917 117.84C66.083 116.279 61.7754 113.928 61.7754 113.928C61.7754 113.928 59.3366 112.272 59.6045 110.65C59.8706 109.04 62.1947 109.527 62.1947 109.527L71.4721 116.122Z" fill="#160A5B"/>
<path d="M58.2637 91.4233C58.2637 91.4233 58.406 102.076 60.1719 106.306C61.9714 110.616 61.9709 118.189 62.3028 119.674C62.6366 121.168 63.8534 123.396 65.9945 124.072C68.1417 124.75 68.6139 123.269 68.5759 122.345C68.538 121.425 68.0464 119.892 68.1139 118.906C68.1811 117.925 68.4392 117.49 68.5071 117.043C68.5071 117.043 70.9432 118.059 71.4726 116.122C71.4726 116.122 71.3141 115.526 71.3033 115.229C71.2924 114.932 72.0802 107.825 72.2063 106.969C72.332 106.116 72.2301 101.423 71.7136 99.0656C71.2025 96.7331 71.7962 91.9483 71.7962 91.9483L64.8226 90.2422L58.2637 91.4233Z" fill="#24126A"/>
<path d="M71.7136 99.0657C71.2025 96.7332 71.7962 91.9484 71.7962 91.9484L71.1859 91.7991C71.1076 92.4614 70.6388 96.6669 71.1055 98.8087C71.6186 101.163 71.7139 105.851 71.5872 106.703C71.4601 107.558 70.6629 114.656 70.6734 114.953C70.684 115.25 70.8414 115.845 70.8414 115.845C70.3097 117.779 67.8765 116.765 67.8765 116.765C67.808 117.211 67.5496 117.646 67.481 118.626C67.4123 119.61 67.9016 121.142 67.938 122.061C67.9748 122.984 67.5008 124.463 65.3558 123.786C65.2891 123.765 65.2311 123.729 65.166 123.705C65.4261 123.852 65.6997 123.979 65.9945 124.072C68.1417 124.75 68.6137 123.269 68.5759 122.345C68.538 121.425 68.0463 119.892 68.1138 118.906C68.181 117.925 68.4475 117.4 68.5153 116.953C68.5153 116.953 70.9432 118.059 71.4725 116.122C71.4725 116.122 71.3141 115.526 71.3033 115.229C71.2923 114.932 72.0801 107.825 72.2063 106.969C72.3319 106.116 72.23 101.423 71.7136 99.0657Z" fill="url(#paint4_linear_602_5755)"/>
<path d="M69.6455 92.5042C69.6455 92.5042 69.4898 94.1497 68.7078 95.4689C68.7078 95.4689 68.2889 101.095 67.502 103.89C67.502 103.89 67.976 109.726 68.4145 111.598C68.8565 113.486 68.5059 117.043 68.5059 117.043C68.5059 117.043 68.7811 117.18 69.1867 117.239C69.5923 117.297 70.1597 110.242 69.6311 108.934C69.1057 107.634 69.0558 102.107 69.4174 100.464C69.7763 98.8327 70.059 94.0943 70.4298 93.2912C70.7992 92.4912 70.1423 91.9807 70.1423 91.9807L69.6455 92.5042Z" fill="#160A5B"/>
<path d="M66.6569 54.1899C66.6569 54.1899 64.5127 55.4852 64.4141 58.0557L65.9479 57.8672C65.9479 57.8672 65.7212 54.9906 66.6569 54.1899Z" fill="#160A5B"/>
<path d="M64.3313 94.2861C68.9943 94.9037 71.6816 93.0483 71.6816 93.0483C71.7426 92.3815 71.7962 91.9483 71.7962 91.9483L64.8226 90.2422L58.2637 91.4233C58.2637 91.4233 58.2921 93.5195 58.4782 96.2223C59.6115 96.4644 60.9596 93.7136 60.9596 93.7136L64.1434 94.2431C64.1434 94.2431 59.6813 93.6702 64.3313 94.2861Z" fill="#160A5B"/>
<path d="M59.1483 91.6699C59.1483 91.6699 68.9696 96.9167 74.5028 89.3948C74.6601 89.181 74.7464 88.9086 74.7582 88.6269L74.8369 86.7555C74.8469 86.5178 74.8981 86.2863 74.9877 86.0744C75.1812 85.6164 75.2554 85.106 75.2016 84.5964C74.9782 82.4786 74.3763 76.7326 74.2539 75.1449C74.1047 73.2111 75.6805 65.6925 77.6105 62.5601C79.5116 59.4747 75.8123 51.8171 75.8123 51.8171C75.8123 51.8171 74.9015 50.0304 72.8221 50.4256C72.8221 50.4256 74.6588 51.9694 73.4852 53.3173C72.3036 54.6743 69.026 55.5431 69.026 55.5431C69.026 55.5431 62.8988 58.0848 60.5897 61.6535C60.5897 61.6535 59.7429 63.5434 59.4852 66.0129C59.2244 68.5121 59.0195 74.5632 58.8498 75.3915C58.6796 76.2231 57.9083 81.9514 57.9201 82.2241C57.9317 82.4971 59.1483 91.6699 59.1483 91.6699Z" fill="#453C9E"/>
<path d="M73.6931 51.5578C73.8853 51.1619 73.8671 50.7637 73.7449 50.4046C73.4655 50.3694 73.1666 50.3607 72.8242 50.4258C72.8242 50.4258 73.3907 50.9031 73.6931 51.5578Z" fill="url(#paint5_linear_602_5755)"/>
<path d="M62.1528 92.8402C62.1528 92.8402 69.3947 77.0465 69.5678 71.097C69.7361 65.3117 59.9622 81.9552 59.9622 81.9552L59.1504 91.6701C59.1504 91.6701 61.0057 92.5809 62.1528 92.8402Z" fill="#24126A"/>
<path d="M74.9446 84.4515C74.8553 84.662 74.8042 84.8917 74.7943 85.1276L74.7156 86.985C74.7038 87.2646 74.618 87.5349 74.4611 87.7471C68.9485 95.212 59.1645 90.0051 59.1645 90.0051C59.1645 90.0051 58.2887 83.4272 58.0208 81.3033C57.9586 81.8089 57.9195 82.1625 57.922 82.2242C57.9337 82.4972 59.1502 91.6701 59.1502 91.6701C59.1502 91.6701 68.9717 96.9168 74.5047 89.395C74.6622 89.1811 74.7483 88.9087 74.7601 88.6271L74.8389 86.7557C74.8489 86.5179 74.9001 86.2864 74.9897 86.0745C75.1832 85.6166 75.2573 85.1062 75.2035 84.5965C75.1803 84.3761 75.1522 84.108 75.1214 83.8165C75.0837 84.0345 75.0303 84.2496 74.9446 84.4515Z" fill="url(#paint6_linear_602_5755)"/>
<path d="M77.5608 61.108C75.6373 64.2182 74.0665 71.683 74.2148 73.6028C74.2286 73.7797 74.2487 74.0138 74.2732 74.2823C74.4728 71.55 75.9003 65.3396 77.6128 62.5602C78.1462 61.6945 78.2278 60.4572 78.0824 59.1345C78.0442 59.888 77.8924 60.572 77.5608 61.108Z" fill="url(#paint7_linear_602_5755)"/>
<path d="M60.46 73.2031C60.7799 71.8964 61.0105 70.5763 61.1303 69.2481C61.3385 66.9402 62.2811 63.1733 66.3534 64.2256C72.1251 65.7169 68.982 73.7781 68.2278 75.1683C67.4686 76.5677 64.3936 82.9154 64.2294 83.2773C64.0749 83.6174 59.377 91.4727 57.774 93.3109C57.6272 93.4791 57.3928 93.4831 57.2413 93.3254C56.6958 92.7574 55.4765 91.4124 55.3659 90.6286C55.2238 89.6215 56.3523 86.1359 56.3523 86.1359C56.3523 86.1359 59.334 77.4622 59.5583 77.0673C59.726 76.7717 59.9411 75.323 60.46 73.2031Z" fill="#4846A5"/>
<path d="M66.7407 54.3849C66.7407 54.3849 66.3612 53.2807 65.3018 53.0733C64.2435 52.8659 63.662 52.5115 63.586 52.103C63.5103 51.6952 63.543 51.2129 63.3316 50.5962C63.1209 49.9813 63.0176 48.5088 63.0242 48.4741C63.0309 48.4393 62.2416 48.1207 62.2306 47.7579C62.2196 47.3957 62.74 46.1521 62.702 46.0492C62.6641 45.9462 62.2923 45.1224 62.3992 44.5171C62.5057 43.9138 62.6539 43.0392 63.0356 42.3209C63.4158 41.6053 66.0253 37.2781 71.7167 40.1288C77.4929 43.0219 72.5729 47.6463 72.912 50.9657C72.912 50.9657 73.3897 51.7023 72.3275 52.784C71.2595 53.8717 68.4176 53.8679 66.7407 54.3849Z" fill="#FCD1C5"/>
<path d="M72.3296 52.7839C73.3918 51.7021 72.9141 50.9656 72.9141 50.9656C72.8669 50.504 72.9239 50.0159 73.0378 49.5113L70.6699 49.7483C70.6699 49.7483 67.4697 46.355 67.5849 48.0264C67.7012 49.7122 66.844 49.9231 66.844 49.9231L67.4786 50.8928C67.6416 51.142 67.513 51.4057 67.3454 51.6483C66.2309 53.2625 63.8882 52.5323 63.8828 52.5324C64.1644 52.7553 64.6403 52.9431 65.3039 53.0731C66.3633 53.2806 66.7427 54.3848 66.7427 54.3848C68.4197 53.8678 71.2616 53.8716 72.3296 52.7839Z" fill="#E2B1A6"/>
<path d="M62.9204 40.5769C62.9204 40.5769 62.4146 41.7519 63.0372 42.3209C63.6616 42.8915 64.2257 43.4277 64.2257 43.4277L64.1015 44.9666C64.0835 45.1886 64.1297 45.4116 64.2346 45.6079L64.9696 46.9844C65.1117 47.2504 65.1758 47.5532 65.1539 47.8561L65.1084 48.4872C65.095 48.6726 65.2182 48.8399 65.3951 48.8762L65.6133 48.921C65.8059 48.9606 65.9917 48.8314 66.0284 48.6328L66.1885 47.7647C66.1885 47.7647 66.683 47.1002 67.5845 48.0265L68.4247 48.4641C68.6593 48.5864 68.8346 48.8035 68.9063 49.0648C69.0974 49.762 69.5152 51.1434 69.8876 51.4004C70.3916 51.7482 72.5134 50.8711 72.8223 50.4256C73.1304 49.9811 74.0581 46.9121 74.5987 45.4591C75.1354 44.0167 75.1659 40.3358 70.8533 39.0157C66.5698 37.7046 63.6245 39.3114 62.9204 40.5769Z" fill="#AA8383"/>
<path d="M72.8223 50.4256C73.1305 49.9811 74.0582 46.9121 74.5987 45.4591C74.5987 45.4591 72.8126 46.4451 70.5841 46.5853C68.3538 46.7258 64.1926 43.8384 64.1926 43.8384L64.1014 44.9666C64.0835 45.1886 64.1298 45.4116 64.2346 45.6079L64.9696 46.9844C65.1117 47.2504 65.1758 47.5532 65.1539 47.8561L65.1084 48.4872C65.095 48.6726 65.2183 48.8399 65.3951 48.8762L65.6133 48.921C65.8059 48.9606 65.9918 48.8314 66.0284 48.6328L66.1886 47.7647C66.1886 47.7647 66.683 47.1002 67.5845 48.0265L68.8 48.6597C68.8 48.6597 69.3845 51.0533 69.8876 51.4004C70.3916 51.7482 72.5134 50.8711 72.8223 50.4256Z" fill="#936D6D"/>
<path d="M72.8969 50.582C72.8969 50.582 74.5255 51.7982 73.5578 53.2262C72.5831 54.6645 66.1819 56.7878 65.8449 57.1583C65.8449 57.1583 65.7777 54.8772 66.6563 54.19C66.6563 54.19 71.4678 53.6929 72.2985 52.5391C73.1245 51.3918 72.8969 50.582 72.8969 50.582Z" fill="#F0F6FF"/>
<path d="M72.8988 50.582C72.8988 50.582 73.1264 51.3918 72.3004 52.5391C71.6721 53.4118 68.765 53.9089 67.3867 54.0992C67.3867 54.0992 67.8674 54.4332 68.5969 55.9579C70.579 55.136 72.9911 54.0652 73.5597 53.2262C74.5274 51.7982 72.8988 50.582 72.8988 50.582Z" fill="#C4CCD6"/>
<path d="M73.6865 55.5063C73.6865 55.5063 70.8013 56.8489 69.4006 57.4459C67.9959 58.0446 66.4511 58.8698 66.4511 58.8698L65.9758 58.3019L65.2495 59.6193C65.2495 59.6193 63.0331 60.7077 61.959 61.6865C60.8798 62.67 60.0192 64.0057 59.8867 64.3162C59.8867 64.3162 62.8042 61.0573 64.9674 60.2102L65.5499 59.9763L65.952 58.9167L66.4207 59.5111C66.4207 59.5111 72.7716 56.3795 73.6865 55.5063Z" fill="#24126A"/>
<path d="M62.8489 102.54L62.8493 102.538L62.8484 102.538C62.7809 102.274 62.6684 102.037 62.5243 101.889L51.9026 90.9611C51.6245 90.675 51.3195 90.8415 51.221 91.3336L48.9729 102.559C48.8691 103.078 49.0151 103.745 49.2998 104.048L58.2063 113.543L57.6117 116.825L60.5954 115.773L60.5965 115.767C60.7323 115.697 60.8425 115.516 60.8907 115.231L62.8954 103.374C62.9399 103.111 62.9183 102.811 62.8489 102.54Z" fill="url(#paint8_linear_602_5755)"/>
<path d="M48.7227 91.7678L51.5011 90.8533L51.5902 90.8239C51.6903 90.8097 51.7992 90.853 51.9043 90.9611L62.526 101.889C62.6701 102.037 62.7834 102.274 62.8509 102.538L62.426 102.698L60.0073 103.608L50.7167 93.86L48.7227 91.7678Z" fill="#453C9E"/>
<path d="M46.3968 105.035L57.2262 116.684C57.5247 117.005 57.8453 116.818 57.9417 116.268L60.0264 104.358C60.1177 103.836 59.9553 103.169 59.664 102.867L49.0894 91.8915C48.8125 91.6042 48.5059 91.7714 48.4039 92.2656L46.0788 103.539C45.9714 104.06 46.1135 104.73 46.3968 105.035Z" fill="#24126A"/>
<path d="M59.4524 115.716L61.4961 103.835C61.5856 103.314 61.421 102.648 61.1292 102.347L50.5308 91.3965C50.4448 91.3075 50.356 91.2625 50.2715 91.2569C50.3829 91.2221 50.5077 91.2611 50.6274 91.3847L61.2279 102.334C61.5199 102.636 61.6845 103.302 61.5951 103.822L59.5542 115.703C59.489 116.082 59.3252 116.304 59.1262 116.291C59.2805 116.239 59.3988 116.029 59.4524 115.716Z" fill="#160A5B"/>
<path d="M56.6612 97.6516L57.2812 97.4085C57.4215 97.3534 57.5514 97.3431 57.658 97.3785L57.7051 97.3942C57.7634 97.4135 57.789 97.4822 57.7722 97.5741L57.7522 97.6836L56.0059 98.3692L56.0264 98.2593C56.0435 98.1671 56.1006 98.0659 56.176 97.994L56.2367 97.9361C56.3744 97.8048 56.5207 97.7067 56.6612 97.6516Z" fill="#160A5B"/>
<path d="M56.7559 99.1466L56.0059 98.3692L57.7576 97.4375L58.4982 98.1972L56.7559 99.1466Z" fill="#160A5B"/>
<path d="M57.4113 98.4265L58.0318 98.1826C58.1723 98.1273 58.3024 98.117 58.4093 98.1525L58.4564 98.1682C58.5148 98.1877 58.5407 98.2566 58.5239 98.3488L58.5041 98.4587L56.7559 99.1466L56.7762 99.0364C56.7933 98.9439 56.8503 98.8423 56.9256 98.7702L56.9864 98.712C57.1241 98.5802 57.2705 98.4818 57.4113 98.4265Z" fill="url(#paint9_linear_602_5755)"/>
<path d="M57.7444 98.7572L57.8352 98.2594L57.7823 98.2802L57.6914 98.778L57.7444 98.7572Z" fill="#722318"/>
<path d="M57.8347 98.2598L57.0607 97.4946L57.0156 97.5124L57.7817 98.2806L57.8347 98.2598Z" fill="#722318"/>
<path d="M53.2923 94.178L53.9092 93.9387C54.049 93.8845 54.1779 93.8743 54.2834 93.9093L54.33 93.9246C54.3877 93.9437 54.4126 94.0113 54.3953 94.1018L54.3745 94.2096L52.6367 94.8845L52.6578 94.7763C52.6756 94.6856 52.733 94.586 52.8083 94.5152L52.869 94.4581C53.0066 94.3289 53.1525 94.2323 53.2923 94.178Z" fill="#160A5B"/>
<path d="M53.375 95.65L52.6367 94.8846L54.3817 93.9674L55.1109 94.7153L53.375 95.65Z" fill="#160A5B"/>
<path d="M54.0306 94.9409L54.6481 94.7007C54.788 94.6464 54.9171 94.6361 55.0229 94.6711L55.0696 94.6867C55.1274 94.7058 55.1525 94.7736 55.1352 94.8644L55.1147 94.9726L53.375 95.6499L53.396 95.5413C53.4136 95.4502 53.4709 95.3502 53.5463 95.2792L53.6069 95.222C53.7446 95.0922 53.8906 94.9953 54.0306 94.9409Z" fill="url(#paint10_linear_602_5755)"/>
<path d="M54.3594 95.2665L54.4532 94.7764L54.4006 94.7969L54.3066 95.287L54.3594 95.2665Z" fill="#722318"/>
<path d="M54.4535 94.7767L53.6913 94.0236L53.6465 94.041L54.401 94.7973L54.4535 94.7767Z" fill="#722318"/>
<path d="M58.3448 95.9089L57.9622 98.0096L57.4595 97.4916L57.8338 95.4518C57.8883 95.1547 57.7747 94.7525 57.5801 94.5533L55.4194 92.3415C55.2269 92.1445 55.0256 92.2224 54.9695 92.5156L54.5846 94.5284L54.0898 94.0183L54.4872 91.9551C54.6115 91.3096 55.0552 91.1384 55.4793 91.5717L57.783 93.9255C58.2125 94.3643 58.4645 95.2519 58.3448 95.9089Z" fill="#453C9E"/>
<path d="M54.6172 92.1173L55.5792 92.1146L58.1319 95.0215L58.1225 96.6575L57.9596 98.0096L57.3154 98.2626L57.4307 96.5682L57.4893 95.4087L56.9827 94.5149C56.9827 94.5149 56.0153 93.5563 56.0066 93.5312C55.998 93.506 54.6172 92.1173 54.6172 92.1173Z" fill="#453C9E"/>
<path d="M53.9434 94.7775L54.5843 94.5284L54.868 93.0452L54.2762 93.033L54.0997 93.0466L53.9434 94.7775Z" fill="#453C9E"/>
<path d="M54.2168 91.6112L54.9053 91.3467C54.9053 91.3467 54.7016 91.6976 54.6988 91.6949C54.6959 91.6922 54.4745 91.7509 54.4709 91.7501L54.2168 91.6112Z" fill="#453C9E"/>
<path d="M57.7019 96.1597L57.316 98.2627L56.8138 97.744L57.1913 95.702C57.2463 95.4045 57.1331 95.0019 56.9387 94.8025L54.78 92.5883C54.5877 92.391 54.3862 92.469 54.3296 92.7626L53.9416 94.7775L53.4473 94.2669L53.8478 92.2013C53.9731 91.5552 54.4172 91.3838 54.841 91.8176L57.1426 94.174C57.5718 94.6133 57.8226 95.5019 57.7019 96.1597Z" fill="#160A5B"/>
<path d="M55.5374 90.5588C55.5374 90.5588 54.9796 92.5883 55.0489 93.1191C55.1184 93.6512 56.0089 94.7522 56.5793 94.9953C57.1502 95.2388 56.9679 94.5023 57.1352 94.0679C57.3022 93.6344 57.3566 92.659 57.3566 92.659L55.5374 90.5588Z" fill="#FCD1C5"/>
<path d="M57.3585 92.659L55.5393 90.5588C55.5393 90.5588 55.4252 90.9748 55.3066 91.4788C55.3078 91.4818 55.9161 93.093 57.2055 93.8365C57.3191 93.3587 57.3585 92.659 57.3585 92.659Z" fill="#E2B1A6"/>
<path d="M55.3789 90.6986C55.3789 90.6986 55.8993 92.9972 57.6342 93.3857L57.2333 90.8844C57.2333 90.8844 55.7884 90.3104 55.7437 90.3002C55.699 90.29 55.3789 90.6986 55.3789 90.6986Z" fill="#4846A5"/>
<path d="M68.8149 65.7671C70.0514 70.9223 65.3799 78.325 64.6172 80.5466C63.8462 82.7927 56.8186 92.864 56.8172 92.8663C56.8193 92.8687 56.8208 92.8702 56.8229 92.8725C56.7826 92.9327 56.7559 92.9724 56.7559 92.9724C56.8783 93.087 57.0235 93.215 57.1378 93.2936C57.2969 93.3743 57.2247 93.3616 57.4072 93.4266C57.5364 93.4668 57.6738 93.4275 57.7754 93.3109C59.3784 91.4727 64.0764 83.6174 64.2308 83.2773C64.3951 82.9154 67.47 76.5677 68.2294 75.1684C68.8344 74.0529 70.9846 68.6158 68.8149 65.7671Z" fill="url(#paint11_linear_602_5755)"/>
<defs>
<linearGradient id="paint0_linear_602_5755" x1="22.8225" y1="96.5048" x2="54.6738" y2="151.273" gradientUnits="userSpaceOnUse">
<stop stop-color="#C0BFF6"/>
<stop offset="0.293761" stop-color="#C5C4F7"/>
<stop offset="0.639919" stop-color="#D3D2F9"/>
<stop offset="1" stop-color="#E9E9FD"/>
</linearGradient>
<linearGradient id="paint1_linear_602_5755" x1="11.5898" y1="114.25" x2="67.0789" y2="114.25" gradientUnits="userSpaceOnUse">
<stop offset="0.354839" stop-color="#BCBEFF"/>
<stop offset="0.443576" stop-color="#B5B8FC"/>
<stop offset="0.569481" stop-color="#A3A7F5"/>
<stop offset="0.717533" stop-color="#848BE9"/>
<stop offset="0.881356" stop-color="#5A64D8"/>
<stop offset="0.892473" stop-color="#5761D7"/>
</linearGradient>
<linearGradient id="paint2_linear_602_5755" x1="22.0063" y1="87.5918" x2="54.6846" y2="143.782" gradientUnits="userSpaceOnUse">
<stop stop-color="#E9E9FD"/>
<stop offset="0.360081" stop-color="#D3D2F9"/>
<stop offset="0.706239" stop-color="#C5C4F7"/>
<stop offset="1" stop-color="#C0BFF6"/>
</linearGradient>
<linearGradient id="paint3_linear_602_5755" x1="46.1367" y1="60.018" x2="57.924" y2="60.018" gradientUnits="userSpaceOnUse">
<stop stop-color="#5761D7"/>
<stop offset="0.0725775" stop-color="#5472D8"/>
<stop offset="0.27907" stop-color="#4E9CDB"/>
<stop offset="0.480102" stop-color="#49BDDD"/>
<stop offset="0.671509" stop-color="#45D5DF"/>
<stop offset="0.849265" stop-color="#43E3E0"/>
<stop offset="1" stop-color="#42E8E0"/>
</linearGradient>
<linearGradient id="paint4_linear_602_5755" x1="65.166" y1="108.022" x2="72.2549" y2="108.022" gradientUnits="userSpaceOnUse">
<stop stop-color="#5761D7"/>
<stop offset="0.0725775" stop-color="#5472D8"/>
<stop offset="0.27907" stop-color="#4E9CDB"/>
<stop offset="0.480102" stop-color="#49BDDD"/>
<stop offset="0.671509" stop-color="#45D5DF"/>
<stop offset="0.849265" stop-color="#43E3E0"/>
<stop offset="1" stop-color="#42E8E0"/>
</linearGradient>
<linearGradient id="paint5_linear_602_5755" x1="72.8242" y1="50.9676" x2="73.8373" y2="50.9676" gradientUnits="userSpaceOnUse">
<stop stop-color="#5761D7"/>
<stop offset="0.0725775" stop-color="#5472D8"/>
<stop offset="0.27907" stop-color="#4E9CDB"/>
<stop offset="0.480102" stop-color="#49BDDD"/>
<stop offset="0.671509" stop-color="#45D5DF"/>
<stop offset="0.849265" stop-color="#43E3E0"/>
<stop offset="1" stop-color="#42E8E0"/>
</linearGradient>
<linearGradient id="paint6_linear_602_5755" x1="57.9219" y1="87.3768" x2="75.2206" y2="87.3768" gradientUnits="userSpaceOnUse">
<stop stop-color="#5761D7"/>
<stop offset="0.0725775" stop-color="#5472D8"/>
<stop offset="0.27907" stop-color="#4E9CDB"/>
<stop offset="0.480102" stop-color="#49BDDD"/>
<stop offset="0.671509" stop-color="#45D5DF"/>
<stop offset="0.849265" stop-color="#43E3E0"/>
<stop offset="1" stop-color="#42E8E0"/>
</linearGradient>
<linearGradient id="paint7_linear_602_5755" x1="74.2051" y1="66.7084" x2="78.1462" y2="66.7084" gradientUnits="userSpaceOnUse">
<stop stop-color="#5761D7"/>
<stop offset="0.0725775" stop-color="#5472D8"/>
<stop offset="0.27907" stop-color="#4E9CDB"/>
<stop offset="0.480102" stop-color="#49BDDD"/>
<stop offset="0.671509" stop-color="#45D5DF"/>
<stop offset="0.849265" stop-color="#43E3E0"/>
<stop offset="1" stop-color="#42E8E0"/>
</linearGradient>
<linearGradient id="paint8_linear_602_5755" x1="48.9395" y1="103.823" x2="62.9186" y2="103.823" gradientUnits="userSpaceOnUse">
<stop stop-color="#5761D7"/>
<stop offset="0.0725775" stop-color="#5472D8"/>
<stop offset="0.27907" stop-color="#4E9CDB"/>
<stop offset="0.480102" stop-color="#49BDDD"/>
<stop offset="0.671509" stop-color="#45D5DF"/>
<stop offset="0.849265" stop-color="#43E3E0"/>
<stop offset="1" stop-color="#42E8E0"/>
</linearGradient>
<linearGradient id="paint9_linear_602_5755" x1="56.7559" y1="98.6392" x2="58.5289" y2="98.6392" gradientUnits="userSpaceOnUse">
<stop stop-color="#5761D7"/>
<stop offset="0.0725775" stop-color="#5472D8"/>
<stop offset="0.27907" stop-color="#4E9CDB"/>
<stop offset="0.480102" stop-color="#49BDDD"/>
<stop offset="0.671509" stop-color="#45D5DF"/>
<stop offset="0.849265" stop-color="#43E3E0"/>
<stop offset="1" stop-color="#42E8E0"/>
</linearGradient>
<linearGradient id="paint10_linear_602_5755" x1="53.375" y1="95.1503" x2="55.1406" y2="95.1503" gradientUnits="userSpaceOnUse">
<stop stop-color="#5761D7"/>
<stop offset="0.0725775" stop-color="#5472D8"/>
<stop offset="0.27907" stop-color="#4E9CDB"/>
<stop offset="0.480102" stop-color="#49BDDD"/>
<stop offset="0.671509" stop-color="#45D5DF"/>
<stop offset="0.849265" stop-color="#43E3E0"/>
<stop offset="1" stop-color="#42E8E0"/>
</linearGradient>
<linearGradient id="paint11_linear_602_5755" x1="56.7559" y1="79.6045" x2="69.7629" y2="79.6045" gradientUnits="userSpaceOnUse">
<stop stop-color="#5761D7"/>
<stop offset="0.0725775" stop-color="#5472D8"/>
<stop offset="0.27907" stop-color="#4E9CDB"/>
<stop offset="0.480102" stop-color="#49BDDD"/>
<stop offset="0.671509" stop-color="#45D5DF"/>
<stop offset="0.849265" stop-color="#43E3E0"/>
<stop offset="1" stop-color="#42E8E0"/>
</linearGradient>
</defs>
</svg>
