<svg width="143" height="166" viewBox="0 0 143 166" fill="none" xmlns="http://www.w3.org/2000/svg">
<path opacity="0.5" d="M85.3999 165.472C117.049 165.472 142.706 150.659 142.706 132.387C142.706 114.114 117.049 99.3009 85.3999 99.3009C53.7506 99.3009 28.0938 114.114 28.0938 132.387C28.0938 150.659 53.7506 165.472 85.3999 165.472Z" fill="url(#paint0_radial_602_5684)"/>
<path d="M84.3852 144.654C99.2043 144.654 111.218 137.718 111.218 129.162C111.218 120.607 99.2043 113.671 84.3852 113.671C69.566 113.671 57.5527 120.607 57.5527 129.162C57.5527 137.718 69.566 144.654 84.3852 144.654Z" fill="url(#paint1_radial_602_5684)"/>
<path d="M65.4125 121.493C75.891 115.443 92.8804 115.443 103.359 121.493C107.874 124.1 110.439 127.405 111.063 130.805C111.888 126.313 109.324 121.652 103.359 118.208C92.8804 112.158 75.891 112.158 65.4125 118.208C59.4485 121.651 56.8842 126.312 57.7092 130.805C58.3337 127.404 60.898 124.099 65.4125 121.493Z" fill="#42E8E0"/>
<path d="M33.1932 68.2019C29.2337 65.6022 23.1126 57.9117 25.1906 54.7468C27.2686 51.582 36.7586 54.1412 40.7181 56.7409C44.6776 59.3406 46.2029 64.0137 44.1249 67.1785C42.0469 70.3434 37.1526 70.8016 33.1932 68.2019Z" fill="url(#paint2_radial_602_5684)"/>
<path d="M33.1932 68.2019C29.2337 65.6022 23.1126 57.9117 25.1906 54.7468C27.2686 51.582 36.7586 54.1412 40.7181 56.7409C44.6776 59.3406 46.2029 64.0137 44.1249 67.1785C42.0469 70.3434 37.1526 70.8016 33.1932 68.2019Z" fill="url(#paint3_linear_602_5684)"/>
<path d="M56.2183 77.4896C55.8598 77.4896 55.4978 77.3865 55.1794 77.1706L41.104 67.6346C40.2555 67.06 40.034 65.9062 40.6084 65.0583C41.1836 64.2097 42.3382 63.9896 43.1847 64.5627L57.2601 74.0988C58.1087 74.6732 58.3302 75.8271 57.7556 76.675C57.3971 77.2045 56.8129 77.4896 56.2183 77.4896Z" fill="#2FD3C7"/>
<path d="M123.668 120.219C122.934 120.219 122.24 119.781 121.948 119.059L111.746 93.8525C111.361 92.9035 111.82 91.8217 112.769 91.4375C113.718 91.0506 114.799 91.5109 115.184 92.4612L125.387 117.668C125.772 118.617 125.313 119.699 124.363 120.083C124.135 120.175 123.9 120.219 123.668 120.219Z" fill="#2FD3C7"/>
<path d="M60.5795 87.3829C66.0459 87.3829 70.4773 82.9515 70.4773 77.4851C70.4773 72.0187 66.0459 67.5873 60.5795 67.5873C55.1131 67.5873 50.6816 72.0187 50.6816 77.4851C50.6816 82.9515 55.1131 87.3829 60.5795 87.3829Z" fill="url(#paint4_radial_602_5684)"/>
<path d="M60.5795 87.3829C66.0459 87.3829 70.4773 82.9515 70.4773 77.4851C70.4773 72.0187 66.0459 67.5873 60.5795 67.5873C55.113 67.5873 50.6816 72.0187 50.6816 77.4851C50.6816 82.9515 55.113 87.3829 60.5795 87.3829Z" fill="url(#paint5_linear_602_5684)"/>
<path d="M109.941 95.4582C109.941 114.672 98.4994 130.247 84.3855 130.247C70.2716 130.247 58.8301 114.672 58.8301 95.4582C58.8301 76.2448 70.2716 70.4873 84.3855 70.4873C98.4994 70.4873 109.941 76.2448 109.941 95.4582Z" fill="url(#paint6_radial_602_5684)"/>
<path d="M109.941 95.4582C109.941 114.672 98.4994 130.247 84.3855 130.247C70.2716 130.247 58.8301 114.672 58.8301 95.4582C58.8301 76.2448 70.2716 70.4873 84.3855 70.4873C98.4994 70.4873 109.941 76.2448 109.941 95.4582Z" fill="url(#paint7_linear_602_5684)"/>
<path d="M84.3864 90.887C94.0189 90.887 101.828 86.3786 101.828 80.8173C101.828 75.256 94.0189 70.7477 84.3864 70.7477C74.754 70.7477 66.9453 75.256 66.9453 80.8173C66.9453 86.3786 74.754 90.887 84.3864 90.887Z" fill="#393091"/>
<path d="M72.0523 76.3793C78.8633 72.4469 89.9065 72.447 96.7178 76.3795C99.5312 78.0038 101.179 80.0452 101.668 82.1588C102.364 79.1552 100.716 76.0054 96.7178 73.6971C89.9065 69.7646 78.8633 69.7645 72.0523 73.6969C68.0545 76.0049 66.4067 79.1546 67.102 82.1582C67.5913 80.0447 69.2391 78.0034 72.0523 76.3793Z" fill="#42E8E0"/>
<path d="M76.777 43.6125C76.777 48.3036 73.4835 54.008 69.4208 56.3537C65.358 58.6993 62.0645 56.7979 62.0645 52.1067C62.0645 47.4157 65.358 41.7112 69.4208 39.3656C73.4835 37.0199 76.777 38.9213 76.777 43.6125Z" fill="#BCBEFF"/>
<path d="M85.3999 82.8467C99.7946 82.8467 111.464 71.1775 111.464 56.7827C111.464 42.388 99.7946 30.7188 85.3999 30.7188C71.0052 30.7188 59.3359 42.388 59.3359 56.7827C59.3359 71.1775 71.0052 82.8467 85.3999 82.8467Z" fill="url(#paint8_radial_602_5684)"/>
<path d="M85.3999 82.8467C99.7946 82.8467 111.464 71.1775 111.464 56.7827C111.464 42.388 99.7946 30.7188 85.3999 30.7188C71.0052 30.7188 59.3359 42.388 59.3359 56.7827C59.3359 71.1775 71.0052 82.8467 85.3999 82.8467Z" fill="url(#paint9_linear_602_5684)"/>
<path d="M77.2685 69.1277C76.6026 74.2533 72.7342 75.8633 68.6282 72.7238C64.522 69.5843 61.7332 62.8841 62.399 57.7586C63.0649 52.633 66.9333 51.023 71.0394 54.1625C75.1454 57.302 77.9343 64.0022 77.2685 69.1277Z" fill="#393091"/>
<path d="M73.8772 64.6899C73.6352 66.5527 72.2293 67.1378 70.7371 65.9968C69.2448 64.8558 68.2312 62.4208 68.4732 60.558C68.7152 58.6953 70.1211 58.1101 71.6134 59.2511C73.1056 60.3921 74.1191 62.8271 73.8772 64.6899Z" fill="#42E8E0"/>
<path d="M70.5997 71.9766C66.4936 68.8371 63.7048 62.1369 64.3706 57.0113C64.642 54.9218 65.4459 53.417 66.581 52.5796C64.4344 52.7814 62.8091 54.6021 62.399 57.7585C61.7332 62.884 64.5221 69.5842 68.6282 72.7237C71.0603 74.5833 73.4088 74.776 75.058 73.5593C73.7187 73.6852 72.1772 73.1827 70.5997 71.9766Z" fill="#453C9E"/>
<path d="M68.9816 72.5568C64.8755 69.4173 62.0867 62.7172 62.7525 57.5916C63.0607 55.2188 64.056 53.6013 65.443 52.8585C63.8725 53.5047 62.7329 55.1887 62.399 57.7585C61.7332 62.8841 64.5221 69.5843 68.6282 72.7238C70.8326 74.4092 72.9664 74.7211 74.575 73.8597C73.0137 74.5019 71.0281 74.1216 68.9816 72.5568Z" fill="#42E8E0"/>
<path d="M113.464 103.055C118.931 103.055 123.362 98.6232 123.362 93.1567C123.362 87.6903 118.931 83.2589 113.464 83.2589C107.998 83.2589 103.566 87.6903 103.566 93.1567C103.566 98.6232 107.998 103.055 113.464 103.055Z" fill="url(#paint10_radial_602_5684)"/>
<path d="M113.464 103.055C118.931 103.055 123.362 98.6232 123.362 93.1567C123.362 87.6903 118.931 83.2589 113.464 83.2589C107.998 83.2589 103.566 87.6903 103.566 93.1567C103.566 98.6232 107.998 103.055 113.464 103.055Z" fill="url(#paint11_linear_602_5684)"/>
<path d="M129.25 125.951C128.689 130.654 124.535 139.562 120.776 139.114C117.016 138.665 115.075 129.03 115.636 124.326C116.198 119.623 119.7 116.174 123.46 116.623C127.219 117.071 129.812 121.248 129.25 125.951Z" fill="url(#paint12_radial_602_5684)"/>
<path d="M129.25 125.951C128.689 130.654 124.535 139.562 120.776 139.114C117.016 138.665 115.075 129.03 115.636 124.326C116.198 119.623 119.7 116.174 123.46 116.623C127.219 117.071 129.812 121.248 129.25 125.951Z" fill="url(#paint13_linear_602_5684)"/>
<path d="M23.6879 40.9549L0.267578 27.433V54.4757L23.6879 67.9973L47.1082 54.4757V27.433L23.6879 40.9549Z" fill="#42E8E0"/>
<path d="M23.688 67.9975L0.267578 54.4758V27.4331L23.688 40.9549V67.9975Z" fill="#42E8E0"/>
<path d="M47.1078 54.4758L23.6875 67.9975V40.9549L47.1078 27.4331V54.4758Z" fill="#2FD3C7"/>
<path d="M23.688 40.9548L0.267578 27.4331L23.6873 13.9117L47.1076 27.4334L23.688 40.9548Z" fill="#42E8E0"/>
<path d="M23.6879 40.9549L0.267578 27.433V28.6059L23.6879 42.1277L47.1076 28.6063L47.1082 27.433L23.6879 40.9549Z" fill="white"/>
<path opacity="0.5" d="M127.154 0.82605H45.4531L57.5575 128.92H57.5626C57.4538 132.965 60.0658 137.03 65.4119 140.117C75.8908 146.167 92.8802 146.167 103.359 140.117C108.598 137.092 111.218 133.127 111.217 129.162L127.154 0.82605Z" fill="url(#paint14_linear_602_5684)"/>
<path d="M107.398 66.317L97.957 71.7679V60.8664L107.398 55.4154V66.317Z" fill="#251C72"/>
<path opacity="0.8" d="M105.995 56.2253V65.5565L97.957 70.1975V71.7679L107.398 66.317V55.4154L105.995 56.2253Z" fill="url(#paint15_radial_602_5684)"/>
<path d="M99.7579 63.845L98.9121 64.3333V63.3567L99.7579 62.8684V63.845Z" fill="#42E8E0"/>
<path d="M101.553 62.8087L100.707 63.297V62.3204L101.553 61.832V62.8087Z" fill="#42E8E0"/>
<path d="M103.348 61.7723L102.502 62.2606V61.284L103.348 60.7957V61.7723Z" fill="#42E8E0"/>
<path d="M103.348 64.3332L102.502 64.8215V63.8449L103.348 63.3566V64.3332Z" fill="#42E8E0"/>
<path d="M102.268 66.3027L101.422 66.791V65.8144L102.268 65.326V66.3027Z" fill="#42E8E0"/>
<path d="M105.199 63.2644L104.354 63.7528V62.7761L105.199 62.2878V63.2644Z" fill="#42E8E0"/>
<path d="M115.006 63.4428L116.04 61.6519L115.006 61.0571L105.564 66.5081V77.4096L106.598 78.0044L107.631 76.2167L115.006 71.9587V63.4428Z" fill="url(#paint16_linear_602_5684)"/>
<path d="M116.039 72.5534L106.598 78.0044V67.1028L116.039 61.6519V72.5534Z" fill="url(#paint17_linear_602_5684)"/>
<path d="M116.041 72.5536L106.6 78.0045V67.103L116.041 61.652V72.5536Z" fill="url(#paint18_linear_602_5684)"/>
<defs>
<radialGradient id="paint0_radial_602_5684" cx="0" cy="0" r="1" gradientUnits="userSpaceOnUse" gradientTransform="translate(85.3999 132.387) scale(64.4424 32.8097)">
<stop stop-color="#42E8E0"/>
<stop offset="1" stop-color="#37B6BF" stop-opacity="0"/>
</radialGradient>
<radialGradient id="paint1_radial_602_5684" cx="0" cy="0" r="1" gradientUnits="userSpaceOnUse" gradientTransform="translate(84.467 143.053) scale(33.5736 33.5736)">
<stop stop-color="#42E8E0"/>
<stop offset="0.105539" stop-color="#37B6BF"/>
<stop offset="0.219661" stop-color="#2C87A1"/>
<stop offset="0.337969" stop-color="#235F87"/>
<stop offset="0.458668" stop-color="#1C3F72"/>
<stop offset="0.582439" stop-color="#162561"/>
<stop offset="0.710541" stop-color="#121355"/>
<stop offset="0.845774" stop-color="#10084E"/>
<stop offset="1" stop-color="#0F054C"/>
</radialGradient>
<radialGradient id="paint2_radial_602_5684" cx="0" cy="0" r="1" gradientUnits="userSpaceOnUse" gradientTransform="translate(49.303 73.4964) rotate(123.285) scale(17.5539 28.9186)">
<stop stop-color="#C0BFF6"/>
<stop offset="1" stop-color="#393091"/>
</radialGradient>
<linearGradient id="paint3_linear_602_5684" x1="39.4947" y1="69.4715" x2="35.8215" y2="54.2702" gradientUnits="userSpaceOnUse">
<stop stop-color="#42E8E0"/>
<stop offset="0.0046746" stop-color="#42E6DF"/>
<stop offset="0.135768" stop-color="#40B6CB"/>
<stop offset="0.270665" stop-color="#3E8DB9"/>
<stop offset="0.407448" stop-color="#3C6BAA"/>
<stop offset="0.546675" stop-color="#3B519F"/>
<stop offset="0.68935" stop-color="#3A3F97"/>
<stop offset="0.8375" stop-color="#393493"/>
<stop offset="1" stop-color="#393091"/>
</linearGradient>
<radialGradient id="paint4_radial_602_5684" cx="0" cy="0" r="1" gradientUnits="userSpaceOnUse" gradientTransform="translate(107.921 45.8626) rotate(11.1976) scale(57.1352 57.1352)">
<stop stop-color="#C0BFF6"/>
<stop offset="1" stop-color="#393091"/>
</radialGradient>
<linearGradient id="paint5_linear_602_5684" x1="55.2621" y1="85.8333" x2="65.8968" y2="69.1369" gradientUnits="userSpaceOnUse">
<stop stop-color="#42E8E0"/>
<stop offset="0.0046746" stop-color="#42E6DF"/>
<stop offset="0.135768" stop-color="#40B6CB"/>
<stop offset="0.270665" stop-color="#3E8DB9"/>
<stop offset="0.407448" stop-color="#3C6BAA"/>
<stop offset="0.546675" stop-color="#3B519F"/>
<stop offset="0.68935" stop-color="#3A3F97"/>
<stop offset="0.8375" stop-color="#393493"/>
<stop offset="1" stop-color="#393091"/>
</linearGradient>
<radialGradient id="paint6_radial_602_5684" cx="0" cy="0" r="1" gradientUnits="userSpaceOnUse" gradientTransform="translate(99.4638 90.2449) scale(43.9184 59.7846)">
<stop stop-color="#C0BFF6"/>
<stop offset="1" stop-color="#393091"/>
</radialGradient>
<linearGradient id="paint7_linear_602_5684" x1="84.3855" y1="130.247" x2="84.3855" y2="70.4873" gradientUnits="userSpaceOnUse">
<stop stop-color="#42E8E0"/>
<stop offset="0.0046746" stop-color="#42E6DF"/>
<stop offset="0.135768" stop-color="#40B6CB"/>
<stop offset="0.270665" stop-color="#3E8DB9"/>
<stop offset="0.407448" stop-color="#3C6BAA"/>
<stop offset="0.546675" stop-color="#3B519F"/>
<stop offset="0.68935" stop-color="#3A3F97"/>
<stop offset="0.8375" stop-color="#393493"/>
<stop offset="1" stop-color="#393091"/>
</linearGradient>
<radialGradient id="paint8_radial_602_5684" cx="0" cy="0" r="1" gradientUnits="userSpaceOnUse" gradientTransform="translate(101.666 52.9214) scale(44.053 44.053)">
<stop stop-color="#C0BFF6"/>
<stop offset="1" stop-color="#393091"/>
</radialGradient>
<linearGradient id="paint9_linear_602_5684" x1="81.772" y1="82.5963" x2="89.0278" y2="30.9692" gradientUnits="userSpaceOnUse">
<stop stop-color="#42E8E0"/>
<stop offset="0.0046746" stop-color="#42E6DF"/>
<stop offset="0.135768" stop-color="#40B6CB"/>
<stop offset="0.270665" stop-color="#3E8DB9"/>
<stop offset="0.407448" stop-color="#3C6BAA"/>
<stop offset="0.546675" stop-color="#3B519F"/>
<stop offset="0.68935" stop-color="#3A3F97"/>
<stop offset="0.8375" stop-color="#393493"/>
<stop offset="1" stop-color="#393091"/>
</linearGradient>
<radialGradient id="paint10_radial_602_5684" cx="0" cy="0" r="1" gradientUnits="userSpaceOnUse" gradientTransform="translate(119.329 86.697) rotate(11.1976) scale(20.6499)">
<stop stop-color="#C0BFF6"/>
<stop offset="1" stop-color="#393091"/>
</radialGradient>
<linearGradient id="paint11_linear_602_5684" x1="105.457" y1="98.9748" x2="121.472" y2="87.3387" gradientUnits="userSpaceOnUse">
<stop stop-color="#42E8E0"/>
<stop offset="0.0046746" stop-color="#42E6DF"/>
<stop offset="0.135768" stop-color="#40B6CB"/>
<stop offset="0.270665" stop-color="#3E8DB9"/>
<stop offset="0.407448" stop-color="#3C6BAA"/>
<stop offset="0.546675" stop-color="#3B519F"/>
<stop offset="0.68935" stop-color="#3A3F97"/>
<stop offset="0.8375" stop-color="#393493"/>
<stop offset="1" stop-color="#393091"/>
</linearGradient>
<radialGradient id="paint12_radial_602_5684" cx="0" cy="0" r="1" gradientUnits="userSpaceOnUse" gradientTransform="translate(131.822 118.092) rotate(6.80284) scale(17.5554 28.9187)">
<stop stop-color="#C0BFF6"/>
<stop offset="1" stop-color="#393091"/>
</radialGradient>
<linearGradient id="paint13_linear_602_5684" x1="115.311" y1="127.056" x2="128.925" y2="128.68" gradientUnits="userSpaceOnUse">
<stop stop-color="#42E8E0"/>
<stop offset="0.0046746" stop-color="#42E6DF"/>
<stop offset="0.135768" stop-color="#40B6CB"/>
<stop offset="0.270665" stop-color="#3E8DB9"/>
<stop offset="0.407448" stop-color="#3C6BAA"/>
<stop offset="0.546675" stop-color="#3B519F"/>
<stop offset="0.68935" stop-color="#3A3F97"/>
<stop offset="0.8375" stop-color="#393493"/>
<stop offset="1" stop-color="#393091"/>
</linearGradient>
<linearGradient id="paint14_linear_602_5684" x1="86.3035" y1="144.654" x2="86.3035" y2="0.82605" gradientUnits="userSpaceOnUse">
<stop stop-color="#42E8E0"/>
<stop offset="1" stop-color="#37B6BF" stop-opacity="0"/>
</linearGradient>
<radialGradient id="paint15_radial_602_5684" cx="0" cy="0" r="1" gradientUnits="userSpaceOnUse" gradientTransform="translate(100.915 44.9877) scale(17.3828 22.3316)">
<stop stop-color="#2B237C"/>
<stop offset="0.310001" stop-color="#251C72"/>
<stop offset="1" stop-color="#0F054C"/>
</radialGradient>
<linearGradient id="paint16_linear_602_5684" x1="114.585" y1="68.3806" x2="89.8683" y2="75.8966" gradientUnits="userSpaceOnUse">
<stop stop-color="#BCBEFF"/>
<stop offset="0.151041" stop-color="#A3A7F5"/>
<stop offset="0.386601" stop-color="#8289E8"/>
<stop offset="0.612402" stop-color="#6A73DF"/>
<stop offset="0.822106" stop-color="#5C66D9"/>
<stop offset="1" stop-color="#5761D7"/>
</linearGradient>
<linearGradient id="paint17_linear_602_5684" x1="110.306" y1="69.9488" x2="76.4373" y2="73.9837" gradientUnits="userSpaceOnUse">
<stop stop-color="#BCBEFF"/>
<stop offset="0.151041" stop-color="#A3A7F5"/>
<stop offset="0.386601" stop-color="#8289E8"/>
<stop offset="0.612402" stop-color="#6A73DF"/>
<stop offset="0.822106" stop-color="#5C66D9"/>
<stop offset="1" stop-color="#5761D7"/>
</linearGradient>
<linearGradient id="paint18_linear_602_5684" x1="105.228" y1="79.9056" x2="122.874" y2="50.7177" gradientUnits="userSpaceOnUse">
<stop stop-color="#42E8E0"/>
<stop offset="0.118765" stop-color="#42E2DE"/>
<stop offset="0.269933" stop-color="#41D3D7"/>
<stop offset="0.438614" stop-color="#40B9CC"/>
<stop offset="0.620054" stop-color="#3E94BC"/>
<stop offset="0.810074" stop-color="#3C66A8"/>
<stop offset="1" stop-color="#393091"/>
</linearGradient>
</defs>
</svg>
