<svg width="910" height="540" viewBox="0 0 910 540" fill="none" xmlns="http://www.w3.org/2000/svg">
<path opacity="0.1" d="M928.645 68.8768L902.917 83.7166L902.916 131.53L674.377 263.349L657.011 253.333L774.9 185.333L774.9 173.177L795.8 161.122L795.801 133.162L836.333 109.784C838.032 110.493 840.414 110.414 841.944 109.531C843.642 108.552 843.642 106.965 841.944 105.986C840.247 105.007 837.495 105.007 835.797 105.986C834.267 106.869 834.13 108.243 835.36 109.222L794.828 132.602L794.827 160.561L774.9 172.054L774.901 127.283L774.658 127.142L763.138 120.499L832.246 80.6371L832.247 35.8101L881.341 7.49351C883.039 8.20295 885.421 8.12418 886.952 7.24107C888.649 6.26218 888.649 4.67448 886.952 3.69525C885.255 2.71636 882.503 2.71636 880.805 3.6956C879.274 4.57836 879.137 5.95213 880.367 6.93189L831.273 35.2492L831.272 80.0764L762.165 119.937L649.812 55.1314L649.813 4.98713C650.757 4.92605 651.675 4.6979 652.4 4.27977C654.097 3.30088 654.097 1.71371 652.4 0.734294C650.702 -0.24494 647.95 -0.244589 646.253 0.734294C644.555 1.71371 644.555 3.30088 646.253 4.27977C646.977 4.6979 647.895 4.92605 648.839 4.98713L648.838 55.6923L649.082 55.8329L716.661 94.8128L667.412 94.8136L627.589 71.8435C628.818 70.8633 628.682 69.4901 627.151 68.607C625.453 67.6281 622.701 67.6281 621.004 68.607C619.306 69.5862 619.306 71.1739 621.004 72.1528C622.535 73.0359 624.916 73.1147 626.615 72.4052L667.15 95.7861L718.324 95.7854V95.7722L773.927 127.844L773.927 184.773L656.037 252.77L640.229 243.653L723.655 195.532C725.354 196.241 727.736 196.162 729.266 195.279C730.964 194.3 730.964 192.713 729.267 191.733C727.569 190.755 724.817 190.755 723.12 191.734C721.589 192.617 721.452 193.99 722.682 194.97L639.254 243.091L623.992 234.288L723.787 176.726L750.909 176.726C751.07 177.197 751.465 177.647 752.099 178.013C753.796 178.992 756.548 178.992 758.246 178.013C759.943 177.033 759.943 175.446 758.246 174.467C756.549 173.488 753.796 173.488 752.099 174.467C751.466 174.832 751.07 175.282 750.909 175.753L723.526 175.754L723.413 175.819L623.017 233.725L616.857 230.172L616.613 230.311L612.115 232.906L588.205 219.115L588.206 199.923L607.961 188.529V188.58L638.958 188.579L673.084 168.895C674.783 169.605 677.165 169.526 678.695 168.643C680.393 167.664 680.393 166.076 678.696 165.097C676.998 164.118 674.246 164.118 672.549 165.097C671.018 165.98 670.881 167.354 672.111 168.333L638.697 187.606L609.558 187.607L667.629 154.112C669.334 154.879 671.793 154.821 673.361 153.916C675.059 152.936 675.059 151.349 673.361 150.37C671.664 149.391 668.912 149.391 667.214 150.37C665.721 151.232 665.544 152.563 666.678 153.537L594.243 195.317V186.082L637.339 161.224V143.674L672.427 123.436C674.126 124.145 676.507 124.066 678.038 123.183C679.736 122.204 679.736 120.617 678.038 119.638C676.341 118.658 673.589 118.658 671.891 119.638C670.36 120.52 670.223 121.894 671.454 122.874L636.365 143.113V160.663L593.269 185.521V195.879L587.233 199.361L587.232 219.678L611.14 233.468L595.43 242.53L546.23 214.151L546.231 181.891L579.638 162.621C581.344 163.388 583.802 163.331 585.371 162.426C587.068 161.447 587.068 159.86 585.371 158.88C583.673 157.901 580.921 157.901 579.224 158.88C577.731 159.742 577.554 161.073 578.687 162.047L546.231 180.768L546.231 154.707L571.874 139.917L571.875 90.8925C572.819 90.8311 573.737 90.6028 574.462 90.1852C576.159 89.2058 576.159 87.6182 574.462 86.6394C572.764 85.6605 570.012 85.6605 568.315 86.6394C566.617 87.6186 566.617 89.2058 568.314 90.1852C569.039 90.6028 569.957 90.8311 570.901 90.8925L570.9 139.356L546.231 153.585L546.233 67.1392H545.26L545.257 214.713L594.455 243.092L576.813 253.268L512.509 216.177L512.511 127.843L481.601 110.013L481.602 76.7868L454.309 61.0438C455.539 60.0637 455.402 58.6904 453.871 57.8073C452.174 56.8282 449.422 56.8282 447.724 57.8073C446.027 58.7865 446.027 60.3741 447.724 61.3531C449.255 62.2362 451.637 62.315 453.336 61.605L480.628 77.3476L480.628 110.574L511.537 128.404L511.536 216.74L575.838 253.83L562.762 261.372L475.978 211.315L475.98 135.947L475.736 135.806L398.918 91.4987C400.149 90.519 400.012 89.1449 398.481 88.2616C396.784 87.2827 394.031 87.2827 392.334 88.2616C390.637 89.241 390.636 90.8282 392.334 91.8074C393.865 92.6902 396.246 92.7689 397.945 92.0598L475.006 136.508L475.005 211.877L475.248 212.018L561.787 261.934L540.596 274.158L396.206 190.875V153.372L395.962 153.231L275.081 83.5073C276.312 82.5272 276.175 81.1535 274.644 80.2707C272.947 79.2915 270.194 79.2915 268.497 80.2707C266.799 81.2496 266.799 82.8373 268.497 83.8162C270.028 84.6993 272.409 84.7781 274.108 84.0686L395.232 153.932V191.436L395.477 191.576L476.446 238.28L412.219 238.281L337.866 195.395C339.096 194.415 338.959 193.042 337.429 192.158C335.731 191.179 332.979 191.179 331.282 192.159C329.584 193.138 329.584 194.725 331.282 195.704C332.812 196.587 335.194 196.666 336.893 195.956L411.958 239.254L478.132 239.252L539.621 274.72L514.99 288.927L462.136 258.441H377.269L280.743 202.765L227.195 202.767L205.363 190.174C206.593 189.194 206.456 187.82 204.926 186.937C203.228 185.958 200.476 185.958 198.779 186.937C197.081 187.917 197.081 189.504 198.778 190.483C200.309 191.366 202.69 191.445 204.39 190.736L226.933 203.739L280.482 203.737L353.42 245.808H290.42L260.08 228.308C261.31 227.328 261.173 225.955 259.643 225.072C257.945 224.093 255.193 224.093 253.496 225.072C251.798 226.051 251.798 227.638 253.496 228.618C255.026 229.5 257.407 229.579 259.106 228.87L290.159 246.78H355.106L377.008 259.413H461.875L476.664 267.944H440.585L440.472 268.009L422.375 278.447L346.972 278.449L325.701 266.18H283.048C282.887 265.709 282.492 265.259 281.859 264.894C280.161 263.915 277.409 263.915 275.712 264.894C274.014 265.873 274.014 267.461 275.712 268.44C277.409 269.419 280.161 269.419 281.859 268.44C282.492 268.075 282.888 267.624 283.048 267.153H325.44L346.711 279.422L420.689 279.42L400.314 291.173C398.615 290.463 396.233 290.542 394.702 291.425C393.005 292.404 393.005 293.991 394.702 294.97C396.4 295.95 399.152 295.95 400.849 294.97C402.379 294.087 402.517 292.715 401.288 291.735L440.846 268.917H478.35L514.015 289.489L500.837 297.09L501.567 297.512L509.316 301.982L484.665 301.983L452.438 283.394C453.668 282.414 453.531 281.041 452 280.158C450.303 279.179 447.551 279.179 445.853 280.158C444.156 281.137 444.156 282.725 445.853 283.704C447.383 284.586 449.764 284.666 451.463 283.957L484.404 302.956L511.002 302.954L529.04 313.359L517.947 319.757H498.273L498.16 319.821L480.975 329.733H468.067L438.916 312.919C440.223 311.936 440.115 310.528 438.555 309.628C436.858 308.649 434.106 308.649 432.408 309.628C430.711 310.607 430.711 312.194 432.408 313.173C433.909 314.039 436.232 314.136 437.924 313.471L467.806 330.706H481.236L481.349 330.641L498.534 320.73H516.261L480.802 341.182H461.657L421.745 318.163H301.388L226.735 275.104C228.027 274.121 227.914 272.719 226.36 271.823C224.662 270.844 221.91 270.844 220.213 271.823C218.515 272.802 218.515 274.389 220.213 275.368C221.719 276.238 224.053 276.331 225.747 275.657L301.127 319.135H421.483L461.395 342.155H481.064L481.176 342.09L530.015 313.921L542.827 321.31L487.642 353.142H448.72L416.607 334.62L334.193 334.621C334.033 334.15 333.637 333.7 333.003 333.335C331.306 332.356 328.554 332.356 326.856 333.335C325.159 334.314 325.159 335.901 326.856 336.88C328.554 337.859 331.306 337.859 333.003 336.88C333.636 336.515 334.032 336.065 334.193 335.594L416.346 335.592L446.771 353.142H330.638L330.526 353.207L219.854 417.043C218.154 416.334 215.773 416.413 214.242 417.296C212.545 418.275 212.545 419.862 214.242 420.841C215.94 421.821 218.692 421.821 220.389 420.841C221.92 419.959 222.057 418.586 220.828 417.606L330.899 354.115H487.903L488.016 354.05L543.801 321.873L558.358 330.269L481.404 374.657H345.902L345.79 374.721L227.134 443.162L88.8804 443.164L8.2539 396.657C9.48225 395.677 9.3447 394.304 7.8147 393.422C6.11728 392.443 3.36519 392.443 1.66759 393.422C-0.0298232 394.401 -0.0298232 395.988 1.66759 396.968C3.19812 397.85 5.57909 397.929 7.27842 397.22L88.6192 444.137L227.395 444.135L227.508 444.07L346.163 375.629H444.866L299.935 459.225L299.933 481.231L242.119 514.576C240.421 513.867 238.04 513.947 236.509 514.829C234.812 515.809 234.812 517.396 236.509 518.375C238.207 519.354 240.959 519.354 242.656 518.375C244.187 517.492 244.324 516.118 243.094 515.138L300.906 481.793L300.908 459.787L446.816 375.629H480.693L407.733 417.713V426.988L372.821 447.126C371.122 446.417 368.741 446.496 367.21 447.379C365.512 448.358 365.512 449.945 367.21 450.924C368.907 451.903 371.659 451.903 373.357 450.924C374.887 450.041 375.025 448.668 373.795 447.688L392.804 436.724V462.141L282.984 525.484C281.285 524.775 278.904 524.854 277.373 525.737C275.676 526.716 275.676 528.303 277.373 529.282C279.071 530.261 281.823 530.261 283.52 529.282C285.051 528.399 285.188 527.026 283.958 526.046L393.777 462.703V436.162L408.707 427.551V418.276L482.267 375.846L482.023 375.424L559.333 330.831L573.386 338.936L493.968 384.745L493.966 460.114L347.898 544.365H349.846L470.783 474.611L470.781 542.776L468.025 544.365H469.974L471.754 543.338L471.756 474.049L494.94 460.677L494.942 385.307L574.36 339.499L586.734 346.635L525.494 381.958L525.493 423.276L525.736 423.417L595.366 463.577L595.365 477.588L555.986 500.3C554.287 499.591 551.907 499.671 550.376 500.553C548.679 501.532 548.679 503.119 550.376 504.099C552.074 505.078 554.826 505.078 556.523 504.099C558.054 503.216 558.191 501.842 556.961 500.862L596.338 478.15L596.339 463.015L596.096 462.874L526.466 422.713L526.467 382.52L572.739 355.832L572.738 373.044L551.525 385.279C549.826 384.57 547.445 384.649 545.914 385.532C544.217 386.511 544.217 388.099 545.914 389.078C547.612 390.057 550.364 390.057 552.061 389.077C553.592 388.195 553.729 386.822 552.5 385.842L573.711 373.606L573.712 355.27L587.709 347.198L604.257 356.742L604.256 386.719L573.041 404.723V425.448L573.284 425.589L638.995 463.49C637.765 464.47 637.902 465.843 639.433 466.726C641.13 467.705 643.882 467.705 645.58 466.726C647.277 465.747 647.277 464.16 645.58 463.181C644.049 462.298 641.669 462.218 639.97 462.928L574.014 424.886V405.285L604.255 387.843L604.255 408.505L644.701 431.834C643.472 432.815 643.609 434.188 645.14 435.07C646.837 436.049 649.589 436.049 651.287 435.07C652.984 434.091 652.984 432.504 651.287 431.525C649.756 430.642 647.375 430.563 645.675 431.272L605.228 407.942L605.23 357.304L616.853 364.008L617.097 363.869L636.006 352.962L653.352 362.968L653.351 387.281L699.453 413.872L699.453 436.791C698.508 436.853 697.591 437.081 696.866 437.499C695.169 438.478 695.169 440.065 696.866 441.044C698.564 442.023 701.316 442.023 703.013 441.044C704.711 440.065 704.711 438.478 703.013 437.499C702.289 437.081 701.371 436.853 700.426 436.791L700.427 413.31L654.325 386.719L654.326 363.529L728.96 406.578L728.958 452.21L688.48 475.558H651.335L651.222 475.622L587.482 512.388C585.784 511.679 583.402 511.758 581.871 512.641C580.174 513.62 580.174 515.207 581.871 516.186C583.568 517.165 586.321 517.165 588.018 516.186C589.548 515.304 589.686 513.93 588.457 512.951L651.596 476.531H686.794L569.699 544.071C568 543.361 565.619 543.44 564.088 544.323C564.065 544.336 564.051 544.352 564.029 544.365H571.139L729.932 452.773L729.933 406.016L729.69 405.875L636.981 352.4L655.638 341.639L813.926 432.939L813.925 487.417L867.997 518.607C866.768 519.587 866.905 520.959 868.435 521.842C870.133 522.821 872.885 522.821 874.582 521.842C876.28 520.863 876.28 519.276 874.582 518.296C873.052 517.414 870.671 517.335 868.972 518.044L814.899 486.854L814.899 432.376L814.656 432.236L656.613 341.076L674.376 330.83L830.913 421.119H924.264L928.645 423.646V422.523L924.525 420.146H831.174L699.034 343.928H725.61L770.71 369.942L805.45 369.94L805.562 369.876L853.743 342.086C855.442 342.795 857.823 342.716 859.353 341.833C861.051 340.854 861.051 339.267 859.354 338.288C857.656 337.309 854.904 337.309 853.207 338.288C851.676 339.17 851.539 340.544 852.768 341.524L805.188 368.967L770.971 368.969L725.872 342.956H697.348L675.351 330.268L722.767 302.918L736.251 310.695L736.25 331.109L770.501 350.865C769.272 351.845 769.41 353.218 770.94 354.101C772.638 355.08 775.39 355.08 777.087 354.101C778.785 353.122 778.785 351.535 777.087 350.555C775.557 349.673 773.175 349.594 771.476 350.303L737.224 330.547L737.224 311.257L773.752 332.326H791.049L791.162 332.261L811.785 320.367C813.484 321.076 815.865 320.996 817.395 320.114C819.092 319.135 819.092 317.547 817.395 316.568C815.697 315.589 812.945 315.589 811.248 316.568C809.717 317.451 809.58 318.825 810.81 319.805L790.788 331.353H774.013L723.742 302.356L732.874 297.089L732.144 296.667L703.728 280.278L717.376 272.405H738.013L752.78 280.924C751.604 281.902 751.763 283.251 753.273 284.122C754.97 285.102 757.722 285.102 759.42 284.122C761.117 283.143 761.117 281.556 759.42 280.577C757.869 279.682 755.446 279.615 753.743 280.355L738.274 271.433H719.062L753.863 251.36L835.75 298.591H894.671L894.784 298.527L927.959 279.392C928.17 279.48 928.416 279.519 928.645 279.583V275.108C928.205 275.228 927.787 275.384 927.423 275.593C925.893 276.476 925.755 277.849 926.984 278.829L894.41 297.619H836.011L772.858 261.192L799.888 261.191L826.31 276.432C825.081 277.413 825.218 278.786 826.748 279.669C828.446 280.648 831.198 280.648 832.895 279.669C834.593 278.69 834.593 277.102 832.895 276.123C831.365 275.24 828.984 275.161 827.285 275.87L800.149 260.218L771.173 260.22L754.838 250.798L796.41 226.819L928.645 226.818V225.845L798.096 225.847L814.586 216.335L912.939 216.333L913.052 216.269L928.645 207.274V206.151L912.678 215.361L814.325 215.362L814.213 215.427L702.754 279.715L690.381 272.579L807.562 204.989L893.261 204.988L893.373 204.924L928.645 184.579V183.455L892.999 204.015L807.301 204.017L807.188 204.081L689.406 272.017L675.352 263.911L903.889 132.091L903.891 84.2773L928.645 69.9991V68.8768ZM730.927 297.089L616.853 362.886L502.784 297.09L616.857 231.294L730.927 297.089Z" fill="#42E8E0"/>
<path d="M718.457 375.072L710.264 370.349L712.05 369.319L720.244 374.042L718.457 375.072Z" fill="#42E8E0"/>
<path d="M725.45 379.102L721.354 376.741L723.14 375.711L727.237 378.073L725.45 379.102Z" fill="#42E8E0"/>
<path d="M716.686 378.88L713.195 376.868L714.982 375.838L718.473 377.85L716.686 378.88Z" fill="#42E8E0"/>
<path d="M722.534 382.251L718.438 379.89L720.224 378.86L724.321 381.221L722.534 382.251Z" fill="#42E8E0"/>
<path d="M725.108 388.562L709.008 379.282L710.794 378.252L726.894 387.533L725.108 388.562Z" fill="#42E8E0"/>
<path d="M679.162 406.928L663.062 397.648L664.849 396.618L680.949 405.898L679.162 406.928Z" fill="#42E8E0"/>
<path d="M685.355 410.497L681.258 408.135L683.044 407.105L687.141 409.467L685.355 410.497Z" fill="#42E8E0"/>
<path d="M708.309 383.709L704.818 381.697L706.605 380.667L710.096 382.679L708.309 383.709Z" fill="#42E8E0"/>
<path d="M714.155 387.08L710.059 384.718L711.845 383.688L715.942 386.05L714.155 387.08Z" fill="#42E8E0"/>
<path d="M709.478 389.213L700.627 384.111L702.413 383.082L711.264 388.183L709.478 389.213Z" fill="#42E8E0"/>
<path d="M715.403 392.629L711.307 390.267L713.093 389.237L717.19 391.599L715.403 392.629Z" fill="#42E8E0"/>
<path d="M721.359 396.061L717.262 393.7L719.048 392.67L723.145 395.032L721.359 396.061Z" fill="#42E8E0"/>
<path d="M730.969 401.6L723.217 397.132L725.003 396.102L732.755 400.57L730.969 401.6Z" fill="#42E8E0"/>
<path d="M717.945 403.751L713.848 401.39L715.634 400.36L719.731 402.721L717.945 403.751Z" fill="#42E8E0"/>
<path d="M727.553 409.293L719.801 404.824L721.587 403.794L729.34 408.263L727.553 409.293Z" fill="#42E8E0"/>
<path d="M696.347 391.302L692.25 388.941L694.037 387.911L698.133 390.273L696.347 391.302Z" fill="#42E8E0"/>
<path d="M702.302 394.735L698.205 392.374L699.992 391.344L704.089 393.706L702.302 394.735Z" fill="#42E8E0"/>
<path d="M711.912 400.276L704.16 395.807L705.947 394.777L713.699 399.246L711.912 400.276Z" fill="#42E8E0"/>
<path d="M727.95 404.69L723.854 402.328L725.64 401.298L729.737 403.66L727.95 404.69Z" fill="#42E8E0"/>
<path d="M733.907 408.123L729.811 405.761L731.597 404.731L735.694 407.093L733.907 408.123Z" fill="#42E8E0"/>
<path d="M691.763 414.192L687.666 411.831L689.453 410.801L693.55 413.162L691.763 414.192Z" fill="#42E8E0"/>
<path d="M701.375 419.732L693.623 415.264L695.41 414.234L703.162 418.702L701.375 419.732Z" fill="#42E8E0"/>
<path d="M687.968 396.133L683.871 393.771L685.658 392.741L689.754 395.103L687.968 396.133Z" fill="#42E8E0"/>
<path d="M697.58 401.672L689.828 397.204L691.615 396.174L699.367 400.642L697.58 401.672Z" fill="#42E8E0"/>
<path d="M692.782 419.608L688.686 417.246L690.472 416.217L694.569 418.578L692.782 419.608Z" fill="#42E8E0"/>
<path d="M702.391 425.148L694.639 420.679L696.425 419.649L704.177 424.118L702.391 425.148Z" fill="#42E8E0"/>
<path d="M737.355 395.621L733.258 393.26L735.044 392.23L739.141 394.591L737.355 395.621Z" fill="#42E8E0"/>
<path d="M731.159 392.051L727.062 389.69L728.849 388.66L732.946 391.022L731.159 392.051Z" fill="#42E8E0"/>
<path d="M746.963 401.162L739.211 396.693L740.997 395.664L748.75 400.132L746.963 401.162Z" fill="#42E8E0"/>
<path d="M700.136 388.657L696.439 386.526L698.226 385.497L701.922 387.627L700.136 388.657Z" fill="#42E8E0"/>
<path d="M711.098 394.976L702.113 389.797L703.9 388.768L712.884 393.946L711.098 394.976Z" fill="#42E8E0"/>
<path d="M722.054 401.293L713.07 396.114L714.857 395.084L723.841 400.263L722.054 401.293Z" fill="#42E8E0"/>
<path d="M697.125 396.58L688.141 391.401L689.927 390.371L698.911 395.55L697.125 396.58Z" fill="#42E8E0"/>
<path d="M701.861 399.31L699.102 397.72L700.888 396.69L703.648 398.281L701.861 399.31Z" fill="#42E8E0"/>
<path d="M706.605 402.047L703.846 400.456L705.632 399.426L708.392 401.017L706.605 402.047Z" fill="#42E8E0"/>
<path d="M715.382 407.104L708.594 403.191L710.38 402.161L717.169 406.074L715.382 407.104Z" fill="#42E8E0"/>
<path d="M717.226 408.167L710.438 404.254L712.224 403.225L719.012 407.137L717.226 408.167Z" fill="#42E8E0"/>
<path d="M735.551 404.242L732.791 402.651L734.578 401.621L737.337 403.212L735.551 404.242Z" fill="#42E8E0"/>
<path d="M670.654 411.684L661.803 406.582L663.589 405.552L672.44 410.654L670.654 411.684Z" fill="#42E8E0"/>
<path d="M676.579 415.1L672.482 412.738L674.269 411.708L678.366 414.07L676.579 415.1Z" fill="#42E8E0"/>
<path d="M682.536 418.531L678.439 416.17L680.226 415.14L684.323 417.502L682.536 418.531Z" fill="#42E8E0"/>
<path d="M692.145 424.071L684.393 419.603L686.179 418.573L693.931 423.042L692.145 424.071Z" fill="#42E8E0"/>
<path d="M678.921 426.107L674.824 423.746L676.611 422.716L680.708 425.077L678.921 426.107Z" fill="#42E8E0"/>
<path d="M688.531 431.647L680.779 427.178L682.566 426.148L690.318 430.617L688.531 431.647Z" fill="#42E8E0"/>
<path d="M657.523 413.773L653.426 411.411L655.212 410.381L659.309 412.743L657.523 413.773Z" fill="#42E8E0"/>
<path d="M663.478 417.205L659.381 414.844L661.167 413.814L665.264 416.175L663.478 417.205Z" fill="#42E8E0"/>
<path d="M673.09 422.745L665.338 418.277L667.124 417.247L674.877 421.715L673.09 422.745Z" fill="#42E8E0"/>
<path d="M661.312 411.127L657.615 408.997L659.402 407.967L663.098 410.097L661.312 411.127Z" fill="#42E8E0"/>
<path d="M672.271 417.446L663.287 412.267L665.074 411.237L674.058 416.416L672.271 417.446Z" fill="#42E8E0"/>
<path d="M683.232 423.764L674.248 418.586L676.035 417.556L685.019 422.734L683.232 423.764Z" fill="#42E8E0"/>
<path d="M651.054 414.873L642.07 409.694L643.857 408.665L652.841 413.843L651.054 414.873Z" fill="#42E8E0"/>
<path d="M655.789 417.604L653.029 416.013L654.816 414.983L657.575 416.574L655.789 417.604Z" fill="#42E8E0"/>
<path d="M660.537 420.339L657.777 418.748L659.564 417.718L662.323 419.309L660.537 420.339Z" fill="#42E8E0"/>
<path d="M669.312 425.398L662.523 421.485L664.31 420.455L671.098 424.368L669.312 425.398Z" fill="#42E8E0"/>
<path d="M671.157 426.46L664.369 422.547L666.156 421.518L672.944 425.43L671.157 426.46Z" fill="#42E8E0"/>
<path d="M668.877 405.831L666.117 404.24L667.904 403.21L670.663 404.801L668.877 405.831Z" fill="#42E8E0"/>
<path d="M677.653 410.888L670.865 406.976L672.652 405.946L679.44 409.859L677.653 410.888Z" fill="#42E8E0"/>
<path d="M686.618 416.057L679.83 412.144L681.617 411.114L688.405 415.027L686.618 416.057Z" fill="#42E8E0"/>
<path d="M675.4 393.717L672.641 392.127L674.427 391.097L677.187 392.687L675.4 393.717Z" fill="#42E8E0"/>
<path d="M684.175 398.775L677.387 394.862L679.173 393.833L685.962 397.745L684.175 398.775Z" fill="#42E8E0"/>
<path d="M693.14 403.942L686.352 400.029L688.138 399L694.926 402.912L693.14 403.942Z" fill="#42E8E0"/>
<path opacity="0.1" d="M687.091 193.772L615.648 152.592L712.23 96.9209L783.672 138.101L687.091 193.772Z" fill="#42E8E0"/>
<path d="M479.78 282.652C460.264 282.652 440.746 278.371 425.889 269.807C411.443 261.479 403.488 250.394 403.488 238.59C403.489 226.788 411.443 215.703 425.887 207.376C455.6 190.246 503.95 190.248 533.671 207.376C548.114 215.704 556.07 226.789 556.07 238.593C556.07 250.396 548.116 261.481 533.672 269.807C518.814 278.371 499.297 282.652 479.78 282.652ZM479.777 195.044C460.355 195.044 440.933 199.306 426.148 207.829C411.873 216.057 404.012 226.982 404.011 238.59C404.011 250.199 411.874 261.125 426.149 269.354C455.722 286.4 503.84 286.4 533.41 269.354L533.541 269.58L533.41 269.354C547.686 261.126 555.547 250.201 555.547 238.593C555.547 226.983 547.684 216.059 533.409 207.829C518.622 199.306 499.199 195.044 479.777 195.044Z" fill="#42E8E0"/>
<path d="M807.737 256.853L790.308 259.85L682.762 197.858C677.367 194.748 667.943 195.138 661.713 198.729L455.966 317.325L425.157 322.622L425.154 333.527L425.169 333.525C425.154 335.513 426.337 337.414 428.797 338.832L550.129 408.77C555.524 411.88 564.948 411.49 571.178 407.898L802.583 274.513C805.937 272.58 807.666 270.114 807.72 267.763L807.737 267.76V256.853V256.853Z" fill="url(#paint0_linear_293_7207)"/>
<path d="M550.129 397.79L428.797 327.852C423.401 324.742 424.078 319.31 430.308 315.719L661.713 182.333C667.943 178.742 677.367 178.352 682.762 181.462L804.095 251.4C809.49 254.51 808.813 259.942 802.583 263.533L571.178 396.919C564.948 400.51 555.524 400.9 550.129 397.79Z" fill="#24126A"/>
<path d="M802.583 263.533L571.178 396.918C564.948 400.509 555.524 400.899 550.129 397.789L428.796 327.851C426.633 326.604 425.462 324.982 425.218 323.256C424.884 325.495 426.048 327.682 428.796 329.266L550.129 399.205C555.524 402.314 564.948 401.924 571.178 398.333L802.583 264.948C806.314 262.797 808.037 259.987 807.672 257.41C807.35 259.566 805.639 261.771 802.583 263.533Z" fill="white"/>
<path opacity="0.51" d="M550.369 395.079L433.36 327.615C428.14 324.606 428.794 319.349 434.823 315.874L661.935 184.998C667.964 181.523 677.083 181.146 682.304 184.155L799.312 251.62C804.532 254.629 803.878 259.885 797.849 263.36L570.737 394.237C564.709 397.711 555.589 398.089 550.369 395.079Z" fill="#453C9E"/>
<mask id="mask0_293_7207" style="mask-type:alpha" maskUnits="userSpaceOnUse" x="430" y="208" width="278" height="268">
<path d="M543.183 387.727L438.358 327.494L433.079 324.482L430.062 321.471V319.212L430.817 316.2L433.833 313.189L436.85 311.683L556.757 242.414L569.578 219.827L632.925 208.533L705.322 387.727V475.066C733.693 482.987 479.727 438.013 458.6 434.606C457.806 434.532 457.326 434.465 457.211 434.408C457.159 434.382 457.638 434.451 458.6 434.606C466.19 435.316 502.425 436.738 521.313 437.42L543.183 387.727Z" fill="#D9D9D9"/>
</mask>
<g mask="url(#mask0_293_7207)">
<g opacity="0.3">
<path opacity="0.5" d="M550.369 395.08L433.36 327.615C428.14 324.606 428.794 319.35 434.823 315.875L661.935 184.999C667.964 181.524 677.083 181.146 682.304 184.156L799.312 251.62C804.532 254.629 803.878 259.886 797.849 263.361L570.737 394.237C564.709 397.712 555.589 398.089 550.369 395.08Z" fill="url(#paint1_radial_293_7207)"/>
<path d="M449.609 342.634C466.268 333.031 493.279 333.032 509.94 342.635C512.641 344.192 514.897 345.908 516.723 347.728C526.155 338.324 523.899 326.091 509.94 318.045C493.279 308.442 466.268 308.441 449.609 318.044C435.651 326.09 433.395 338.322 442.827 347.727C444.652 345.907 446.908 344.191 449.609 342.634Z" fill="#5351AF"/>
<path d="M544.094 335.548C541.066 332.716 537.426 330.04 533.168 327.586C526.525 323.757 518.947 320.798 510.863 318.694C526.396 328.528 525.924 343.763 509.439 353.266C492.463 363.051 464.94 363.05 447.964 353.265C432.042 344.088 431.053 329.563 444.996 319.721C438.296 321.726 432.005 324.345 426.383 327.585C422.124 330.04 418.484 332.716 415.456 335.548H404.268V358.363C404.269 369.501 411.641 380.64 426.384 389.138C455.873 406.135 503.682 406.136 533.17 389.139C547.913 380.641 555.285 369.502 555.285 358.363V335.548H544.094Z" fill="url(#paint2_linear_293_7207)"/>
<path opacity="0.3" d="M533.169 327.586C526.526 323.757 518.948 320.798 510.864 318.694C526.398 328.528 525.925 343.763 509.44 353.266C501.226 358.001 490.541 360.437 479.777 360.589V401.886C499.102 401.887 518.427 397.638 533.171 389.139C547.914 380.641 555.286 369.502 555.286 358.363V335.548H544.095C541.067 332.716 537.428 330.04 533.169 327.586Z" fill="#0F054C"/>
<path opacity="0.5" d="M533.169 327.586C526.526 323.757 518.948 320.798 510.864 318.694C526.398 328.528 525.925 343.763 509.44 353.266C501.226 358.001 490.541 360.437 479.777 360.589V401.886C499.102 401.887 518.427 397.638 533.171 389.139C547.914 380.641 555.286 369.502 555.286 358.363V335.548H544.095C541.067 332.716 537.428 330.04 533.169 327.586Z" fill="url(#paint3_radial_293_7207)"/>
<path d="M533.168 306.651C503.68 289.653 455.87 289.653 426.383 306.65C396.895 323.647 396.896 351.205 426.384 368.203C455.873 385.2 503.682 385.201 533.17 368.204C562.657 351.207 562.657 323.648 533.168 306.651ZM509.977 355.145C493.001 364.93 465.478 364.929 448.502 355.144C431.525 345.359 431.525 329.494 448.501 319.709C465.476 309.924 493 309.924 509.976 319.709C526.952 329.495 526.952 345.36 509.977 355.145Z" fill="#5351AF"/>
<path d="M533.169 365.856C503.682 382.853 455.872 382.853 426.384 365.855C412.158 357.655 404.797 346.997 404.297 336.252C403.76 347.78 411.121 359.406 426.384 368.204C455.872 385.201 503.682 385.202 533.169 368.205C548.431 359.408 555.791 347.781 555.255 336.255C554.755 346.999 547.395 357.656 533.169 365.856Z" fill="white"/>
<path d="M509.977 317.361C493.001 307.576 465.477 307.576 448.502 317.361C439.496 322.552 435.269 329.454 435.819 336.252C436.306 330.236 440.532 324.303 448.502 319.709C465.477 309.924 493.001 309.924 509.977 319.71C517.947 324.304 522.174 330.238 522.661 336.254C523.211 329.456 518.984 322.553 509.977 317.361Z" fill="white"/>
<path d="M529.748 306.63C502.298 290.807 457.792 290.807 430.343 306.629C402.893 322.452 402.894 348.105 430.344 363.928C457.795 379.751 502.3 379.751 529.749 363.929C557.199 348.106 557.198 322.453 529.748 306.63ZM509.733 352.391C493.338 361.842 466.755 361.842 450.36 352.391C433.964 342.94 433.963 327.617 450.359 318.167C466.754 308.716 493.337 308.716 509.732 318.167C526.128 327.618 526.129 342.941 509.733 352.391Z" fill="url(#paint4_linear_293_7207)"/>
<path opacity="0.4" d="M544.094 314.613C541.066 311.782 537.426 309.106 533.168 306.651C526.525 302.822 518.947 299.864 510.863 297.76C526.396 307.594 525.924 322.829 509.439 332.331C492.463 342.116 464.94 342.116 447.964 332.331C432.042 323.153 431.053 308.628 444.996 298.787C438.296 300.792 432.005 303.41 426.383 306.651C422.124 309.105 418.484 311.781 415.456 314.613H404.268V337.429C404.269 348.567 411.641 359.705 426.384 368.203C455.873 385.201 503.682 385.201 533.17 368.204C547.913 359.706 555.285 348.567 555.285 337.429V314.613H544.094V314.613Z" fill="#42E8E0"/>
<path d="M449.609 308.405C466.268 298.802 493.279 298.802 509.94 308.405C512.641 309.963 514.897 311.679 516.723 313.499C526.155 304.094 523.899 291.862 509.94 283.815C493.279 274.212 466.268 274.212 449.609 283.815C435.651 291.861 433.395 304.093 442.827 313.497C444.652 311.678 446.908 309.962 449.609 308.405Z" fill="#5351AF"/>
<path d="M544.094 301.319C541.066 298.487 537.426 295.811 533.168 293.357C526.525 289.528 518.947 286.569 510.863 284.465C526.396 294.299 525.924 309.534 509.439 319.037C492.463 328.822 464.94 328.821 447.964 319.036C432.042 309.859 431.053 295.334 444.996 285.492C438.296 287.497 432.005 290.115 426.383 293.356C422.124 295.811 418.484 298.487 415.456 301.319H404.268V324.134C404.269 335.272 411.641 346.411 426.384 354.909C455.873 371.906 503.682 371.907 533.17 354.91C547.913 346.411 555.285 335.273 555.285 324.134V301.319H544.094Z" fill="url(#paint5_linear_293_7207)"/>
<path opacity="0.3" d="M533.169 293.357C526.526 289.528 518.948 286.569 510.864 284.465C526.398 294.299 525.925 309.534 509.44 319.037C501.226 323.771 490.541 326.208 479.777 326.36V367.657C499.102 367.658 518.427 363.409 533.171 354.91C547.914 346.411 555.286 335.273 555.286 324.134V301.319H544.095C541.067 298.487 537.428 295.811 533.169 293.357Z" fill="#0F054C"/>
<path opacity="0.5" d="M533.169 293.357C526.526 289.528 518.948 286.569 510.864 284.465C526.398 294.299 525.925 309.534 509.44 319.037C501.226 323.771 490.541 326.208 479.777 326.36V367.657C499.102 367.658 518.427 363.409 533.171 354.91C547.914 346.411 555.286 335.273 555.286 324.134V301.319H544.095C541.067 298.487 537.428 295.811 533.169 293.357Z" fill="url(#paint6_radial_293_7207)"/>
<path d="M533.168 272.422C503.68 255.424 455.87 255.424 426.383 272.421C396.895 289.418 396.896 316.976 426.384 333.974C455.873 350.971 503.682 350.972 533.17 333.975C562.657 316.978 562.657 289.419 533.168 272.422ZM509.977 320.916C493.001 330.701 465.478 330.701 448.502 320.915C431.525 311.13 431.525 295.265 448.501 285.48C465.476 275.695 493 275.695 509.976 285.48C526.952 295.266 526.952 311.131 509.977 320.916Z" fill="#5351AF"/>
<path d="M533.169 331.627C503.682 348.624 455.872 348.623 426.384 331.626C412.158 323.426 404.797 312.768 404.297 302.023C403.76 313.55 411.121 325.177 426.384 333.974C455.872 350.972 503.682 350.972 533.169 333.975C548.431 325.178 555.791 313.552 555.255 302.025C554.755 312.769 547.395 323.427 533.169 331.627Z" fill="white"/>
<path d="M509.977 283.132C493.001 273.346 465.477 273.346 448.502 283.131C439.496 288.322 435.269 295.225 435.819 302.022C436.306 296.007 440.532 290.073 448.502 285.48C465.477 275.695 493.001 275.695 509.977 285.48C517.947 290.074 522.174 296.009 522.661 302.024C523.211 295.226 518.984 288.323 509.977 283.132Z" fill="white"/>
<path d="M529.748 272.401C502.298 256.578 457.792 256.578 430.343 272.4C402.893 288.223 402.894 313.876 430.344 329.699C457.795 345.522 502.3 345.522 529.749 329.7C557.199 313.878 557.198 288.224 529.748 272.401ZM509.733 318.162C493.338 327.613 466.755 327.613 450.36 318.162C433.964 308.711 433.963 293.388 450.359 283.938C466.754 274.487 493.337 274.487 509.732 283.938C526.128 293.389 526.129 308.712 509.733 318.162Z" fill="url(#paint7_linear_293_7207)"/>
<path opacity="0.4" d="M544.094 280.384C541.066 277.553 537.426 274.877 533.168 272.422C526.525 268.593 518.947 265.635 510.863 263.531C526.396 273.365 525.924 288.6 509.439 298.102C492.463 307.887 464.94 307.887 447.964 298.102C432.042 288.924 431.053 274.399 444.996 264.558C438.296 266.563 432.005 269.181 426.383 272.421C422.124 274.876 418.484 277.552 415.456 280.384H404.268V303.2C404.269 314.338 411.641 325.476 426.384 333.974C455.873 350.972 503.682 350.972 533.17 333.975C547.913 325.477 555.285 314.338 555.285 303.2V280.384H544.094V280.384Z" fill="#42E8E0"/>
<path d="M449.609 274.176C466.268 264.573 493.279 264.573 509.94 274.176C512.641 275.734 514.897 277.45 516.723 279.27C526.155 269.865 523.899 257.633 509.94 249.586C493.279 239.983 466.268 239.983 449.609 249.586C435.651 257.632 433.395 269.864 442.827 279.268C444.652 277.449 446.908 275.733 449.609 274.176Z" fill="#5351AF"/>
<path d="M544.094 267.09C541.066 264.259 537.426 261.583 533.168 259.128C526.525 255.299 518.947 252.341 510.863 250.237C526.396 260.071 525.924 275.306 509.439 284.808C492.463 294.593 464.94 294.593 447.964 284.808C432.042 275.63 431.053 261.105 444.996 251.264C438.296 253.269 432.005 255.887 426.383 259.128C422.124 261.582 418.484 264.258 415.456 267.09H404.268V289.906C404.269 301.044 411.641 312.182 426.384 320.68C455.873 337.678 503.682 337.678 533.17 320.681C547.913 312.183 555.285 301.044 555.285 289.906V267.09H544.094V267.09Z" fill="url(#paint8_linear_293_7207)"/>
<path opacity="0.3" d="M533.169 259.128C526.526 255.299 518.948 252.341 510.864 250.237C526.398 260.071 525.925 275.306 509.44 284.808C501.226 289.543 490.541 291.98 479.777 292.132V333.429C499.102 333.429 518.427 329.18 533.171 320.681C547.914 312.183 555.286 301.044 555.286 289.906V267.09H544.095C541.067 264.259 537.428 261.583 533.169 259.128Z" fill="#0F054C"/>
<path opacity="0.5" d="M533.169 259.128C526.526 255.299 518.948 252.341 510.864 250.237C526.398 260.071 525.925 275.306 509.44 284.808C501.226 289.543 490.541 291.98 479.777 292.132V333.429C499.102 333.429 518.427 329.18 533.171 320.681C547.914 312.183 555.286 301.044 555.286 289.906V267.09H544.095C541.067 264.259 537.428 261.583 533.169 259.128Z" fill="url(#paint9_radial_293_7207)"/>
<path d="M533.168 238.193C503.68 221.195 455.87 221.195 426.383 238.192C396.895 255.189 396.896 282.747 426.384 299.745C455.873 316.742 503.682 316.743 533.17 299.746C562.657 282.748 562.657 255.19 533.168 238.193ZM509.977 286.687C493.001 296.472 465.478 296.471 448.502 286.686C431.525 276.901 431.525 261.036 448.501 251.251C465.476 241.466 493 241.466 509.976 251.251C526.952 261.037 526.952 276.902 509.977 286.687Z" fill="#5351AF"/>
<path d="M533.169 297.396C503.682 314.393 455.872 314.393 426.384 297.395C412.158 289.195 404.797 278.537 404.297 267.792C403.76 279.32 411.121 290.946 426.384 299.744C455.872 316.742 503.682 316.742 533.169 299.745C548.431 290.948 555.791 279.322 555.255 267.795C554.755 278.539 547.395 289.197 533.169 297.396Z" fill="white"/>
<path d="M509.977 248.903C493.001 239.117 465.477 239.117 448.502 248.902C439.496 254.093 435.269 260.996 435.819 267.793C436.306 261.778 440.532 255.844 448.502 251.251C465.477 241.466 493.001 241.466 509.977 251.251C517.947 255.845 522.174 261.779 522.661 267.795C523.211 260.997 518.984 254.094 509.977 248.903Z" fill="white"/>
<path d="M529.748 238.172C502.298 222.349 457.792 222.349 430.343 238.171C402.893 253.994 402.894 279.647 430.344 295.47C457.795 311.293 502.3 311.293 529.749 295.471C557.199 279.649 557.198 253.995 529.748 238.172ZM509.733 283.933C493.338 293.384 466.755 293.384 450.36 283.933C433.964 274.482 433.963 259.159 450.359 249.709C466.754 240.258 493.337 240.259 509.732 249.709C526.128 259.16 526.129 274.483 509.733 283.933Z" fill="url(#paint10_linear_293_7207)"/>
<path opacity="0.4" d="M544.094 246.154C541.066 243.323 537.426 240.647 533.168 238.192C526.525 234.363 518.947 231.405 510.863 229.301C526.396 239.135 525.924 254.37 509.439 263.872C492.463 273.657 464.94 273.657 447.964 263.872C432.042 254.694 431.053 240.169 444.996 230.328C438.296 232.333 432.005 234.951 426.383 238.192C422.124 240.646 418.484 243.322 415.456 246.154H404.268V268.97C404.269 280.108 411.641 291.246 426.384 299.744C455.873 316.742 503.682 316.742 533.17 299.745C547.913 291.247 555.285 280.108 555.285 268.97V246.154H544.094Z" fill="#42E8E0"/>
<path d="M449.609 239.947C466.268 230.344 493.279 230.344 509.94 239.948C512.641 241.505 514.897 243.221 516.723 245.041C526.155 235.637 523.899 223.404 509.94 215.357C493.279 205.754 466.268 205.754 449.609 215.357C435.651 223.403 433.395 235.635 442.827 245.039C444.652 243.22 446.908 241.504 449.609 239.947Z" fill="#5351AF"/>
<path d="M544.094 232.861C541.066 230.03 537.426 227.354 533.168 224.899C526.525 221.07 518.947 218.112 510.863 216.008C526.396 225.842 525.924 241.077 509.439 250.579C492.463 260.364 464.94 260.364 447.964 250.579C432.042 241.401 431.053 226.876 444.996 217.035C438.296 219.04 432.005 221.658 426.383 224.899C422.124 227.353 418.484 230.03 415.456 232.861H404.268V255.677C404.269 266.815 411.641 277.953 426.384 286.451C455.873 303.449 503.682 303.45 533.17 286.452C547.913 277.954 555.285 266.815 555.285 255.677V232.861H544.094Z" fill="url(#paint11_linear_293_7207)"/>
<path d="M544.094 232.861C541.066 230.03 537.426 227.354 533.168 224.899C526.525 221.07 518.947 218.112 510.863 216.008C526.396 225.842 525.924 241.077 509.439 250.579C492.463 260.364 464.94 260.364 447.964 250.579C432.042 241.401 431.053 226.876 444.996 217.035C438.296 219.04 432.005 221.658 426.383 224.899C422.124 227.353 418.484 230.03 415.456 232.861H404.268V255.677C404.269 266.815 411.641 277.953 426.384 286.451C455.873 303.449 503.682 303.45 533.17 286.452C547.913 277.954 555.285 266.815 555.285 255.677V232.861H544.094Z" fill="url(#paint12_linear_293_7207)"/>
<path opacity="0.3" d="M533.169 224.899C526.526 221.07 518.948 218.112 510.864 216.008C526.398 225.842 525.925 241.077 509.44 250.579C501.226 255.314 490.541 257.751 479.777 257.903V299.2C499.102 299.2 518.427 294.951 533.171 286.452C547.914 277.954 555.286 266.815 555.286 255.677V232.861H544.095C541.067 230.03 537.428 227.354 533.169 224.899Z" fill="#0F054C"/>
<path opacity="0.5" d="M533.169 224.899C526.526 221.07 518.948 218.112 510.864 216.008C526.398 225.842 525.925 241.077 509.44 250.579C501.226 255.314 490.541 257.751 479.777 257.903V299.2C499.102 299.2 518.427 294.951 533.171 286.452C547.914 277.954 555.286 266.816 555.286 255.677V232.861H544.095C541.067 230.03 537.428 227.354 533.169 224.899Z" fill="url(#paint13_radial_293_7207)"/>
<path d="M533.168 203.964C503.68 186.966 455.87 186.966 426.383 203.963C396.895 220.96 396.896 248.518 426.384 265.516C455.873 282.513 503.682 282.514 533.17 265.517C562.657 248.52 562.657 220.961 533.168 203.964ZM509.977 252.458C493.001 262.243 465.478 262.243 448.502 252.457C431.525 242.672 431.525 226.807 448.501 217.022C465.476 207.237 493 207.237 509.976 217.022C526.952 226.808 526.952 242.673 509.977 252.458Z" fill="#5351AF"/>
<path d="M533.169 263.167C503.682 280.164 455.872 280.164 426.384 263.166C412.158 254.966 404.797 244.307 404.297 233.563C403.76 245.09 411.121 256.717 426.384 265.514C455.872 282.512 503.682 282.512 533.169 265.515C548.431 256.718 555.791 245.092 555.255 233.565C554.755 244.309 547.395 254.967 533.169 263.167Z" fill="white"/>
<path d="M509.977 214.673C493.001 204.888 465.477 204.888 448.502 214.673C439.496 219.864 435.269 226.766 435.819 233.564C436.306 227.548 440.532 221.615 448.502 217.021C465.477 207.236 493.001 207.236 509.977 217.022C517.947 221.616 522.174 227.55 522.661 233.566C523.211 226.768 518.984 219.865 509.977 214.673Z" fill="white"/>
<path d="M529.748 203.943C502.298 188.12 457.792 188.12 430.343 203.942C402.893 219.765 402.894 245.418 430.344 261.241C457.795 277.064 502.3 277.064 529.749 261.242C557.199 245.42 557.198 219.766 529.748 203.943ZM509.733 249.704C493.338 259.155 466.755 259.155 450.36 249.704C433.964 240.253 433.963 224.93 450.359 215.48C466.754 206.029 493.337 206.03 509.732 215.48C526.128 224.931 526.129 240.254 509.733 249.704Z" fill="url(#paint14_linear_293_7207)"/>
</g>
</g>
<path d="M655.05 153.333L526.406 222.011L526.654 222.473L655.297 153.795L655.05 153.333Z" fill="#42E8E0"/>
<path d="M449.611 204.565C466.27 194.962 493.281 194.962 509.942 204.566C512.643 206.123 514.899 207.839 516.725 209.659C526.157 200.255 523.9 188.022 509.942 179.975C493.281 170.372 466.27 170.372 449.611 179.975C435.653 188.021 433.397 200.253 442.829 209.658C444.654 207.838 446.91 206.122 449.611 204.565Z" fill="#5351AF"/>
<path d="M544.096 197.479C541.068 194.648 537.428 191.972 533.17 189.518C526.527 185.688 518.949 182.73 510.865 180.626C526.398 190.46 525.926 205.695 509.441 215.197C492.465 224.982 464.942 224.982 447.966 215.197C432.044 206.019 431.055 191.495 444.998 181.653C438.298 183.658 432.007 186.276 426.385 189.517C422.126 191.972 418.486 194.648 415.458 197.479H404.27V220.295C404.271 231.433 411.643 242.571 426.386 251.07C455.875 268.067 503.684 268.068 533.172 251.07C547.915 242.572 555.287 231.434 555.287 220.295V197.479H544.096V197.479Z" fill="url(#paint15_linear_293_7207)"/>
<path opacity="0.3" d="M533.169 189.518C526.526 185.688 518.948 182.73 510.864 180.626C526.398 190.46 525.925 205.695 509.44 215.197C501.226 219.932 490.541 222.369 479.777 222.521V263.818C499.102 263.818 518.427 259.569 533.171 251.07C547.914 242.572 555.286 231.434 555.286 220.295V197.479H544.095C541.067 194.648 537.428 191.972 533.169 189.518Z" fill="#0F054C"/>
<path opacity="0.5" d="M533.169 189.518C526.526 185.688 518.948 182.73 510.864 180.626C526.398 190.46 525.925 205.695 509.44 215.197C501.226 219.932 490.541 222.369 479.777 222.521V263.818C499.102 263.818 518.427 259.569 533.171 251.07C547.914 242.572 555.286 231.434 555.286 220.295V197.479H544.095C541.067 194.648 537.428 191.972 533.169 189.518Z" fill="url(#paint16_radial_293_7207)"/>
<path d="M533.17 168.582C503.682 151.584 455.872 151.584 426.385 168.581C396.897 185.578 396.898 213.136 426.386 230.134C455.875 247.132 503.684 247.132 533.172 230.135C562.659 213.138 562.659 185.58 533.17 168.582ZM509.979 217.076C493.003 226.861 465.479 226.861 448.503 217.075C431.527 207.29 431.527 191.425 448.503 181.64C465.478 171.855 493.002 171.855 509.978 181.641C526.954 191.426 526.954 207.291 509.979 217.076Z" fill="#5351AF"/>
<path d="M533.171 227.785C503.684 244.782 455.874 244.782 426.386 227.785C412.16 219.584 404.799 208.926 404.299 198.182C403.762 209.709 411.123 221.335 426.386 230.133C455.874 247.131 503.684 247.131 533.171 230.134C548.433 221.337 555.793 209.711 555.257 198.184C554.757 208.928 547.397 219.586 533.171 227.785Z" fill="white"/>
<path d="M509.979 179.292C493.003 169.506 465.479 169.506 448.504 179.291C439.498 184.483 435.271 191.385 435.821 198.183C436.307 192.167 440.534 186.233 448.504 181.64C465.479 171.855 493.003 171.855 509.979 181.64C517.949 186.234 522.176 192.169 522.663 198.185C523.213 191.386 518.986 184.483 509.979 179.292Z" fill="white"/>
<path d="M529.748 168.561C502.298 152.738 457.792 152.738 430.343 168.56C402.893 184.383 402.894 210.036 430.344 225.859C457.795 241.682 502.3 241.683 529.749 225.86C557.199 210.038 557.198 184.384 529.748 168.561ZM509.733 214.323C493.338 223.773 466.755 223.773 450.36 214.322C433.964 204.871 433.963 189.549 450.359 180.098C466.754 170.647 493.337 170.648 509.732 180.099C526.128 189.549 526.129 204.872 509.733 214.323Z" fill="url(#paint17_linear_293_7207)"/>
<path opacity="0.4" d="M544.096 176.544C541.068 173.712 537.428 171.037 533.17 168.582C526.527 164.753 518.949 161.795 510.865 159.69C526.398 169.524 525.926 184.759 509.441 194.262C492.465 204.047 464.942 204.047 447.966 194.261C432.044 185.084 431.055 170.559 444.998 160.717C438.298 162.722 432.007 165.341 426.385 168.581C422.126 171.036 418.486 173.712 415.458 176.544H404.27V199.359C404.271 210.498 411.643 221.636 426.386 230.134C455.875 247.132 503.684 247.132 533.172 230.135C547.915 221.637 555.287 210.498 555.287 199.359V176.544H544.096V176.544Z" fill="#42E8E0"/>
<path d="M449.611 170.336C466.27 160.733 493.281 160.733 509.942 170.336C512.643 171.893 514.899 173.609 516.725 175.429C526.157 166.025 523.9 153.792 509.942 145.746C493.281 136.143 466.27 136.143 449.611 145.746C435.653 153.791 433.397 166.024 442.829 175.428C444.654 173.608 446.91 171.893 449.611 170.336Z" fill="#5351AF"/>
<path d="M544.096 163.251C541.068 160.419 537.428 157.744 533.17 155.289C526.527 151.46 518.949 148.501 510.865 146.397C526.398 156.231 525.926 171.466 509.441 180.969C492.465 190.754 464.942 190.754 447.966 180.968C432.044 171.791 431.055 157.266 444.998 147.424C438.298 149.429 432.007 152.048 426.385 155.288C422.126 157.743 418.486 160.419 415.458 163.251H404.27V186.066C404.271 197.205 411.643 208.343 426.386 216.841C455.875 233.839 503.684 233.839 533.172 216.842C547.915 208.344 555.287 197.205 555.287 186.066V163.251H544.096V163.251Z" fill="url(#paint18_linear_293_7207)"/>
<path opacity="0.3" d="M533.169 155.289C526.526 151.46 518.948 148.501 510.864 146.397C526.398 156.231 525.925 171.466 509.44 180.969C501.226 185.704 490.541 188.14 479.777 188.293V229.59C499.102 229.59 518.427 225.341 533.171 216.842C547.914 208.344 555.286 197.205 555.286 186.066V163.251H544.095C541.067 160.419 537.428 157.744 533.169 155.289Z" fill="#0F054C"/>
<path opacity="0.5" d="M533.169 155.289C526.526 151.46 518.948 148.501 510.864 146.397C526.398 156.231 525.925 171.466 509.44 180.969C501.226 185.704 490.541 188.14 479.777 188.293V229.59C499.102 229.59 518.427 225.341 533.171 216.842C547.914 208.344 555.286 197.205 555.286 186.066V163.251H544.095C541.067 160.419 537.428 157.744 533.169 155.289Z" fill="url(#paint19_radial_293_7207)"/>
<path d="M533.17 134.352C503.682 117.355 455.872 117.354 426.385 134.352C396.897 151.349 396.898 178.907 426.386 195.904C455.875 212.902 503.684 212.902 533.172 195.905C562.659 178.908 562.659 151.35 533.17 134.352ZM509.979 182.846C493.003 192.631 465.479 192.631 448.503 182.846C431.527 173.06 431.527 157.196 448.503 147.411C465.478 137.626 493.002 137.626 509.978 147.411C526.954 157.196 526.954 173.061 509.979 182.846Z" fill="#5351AF"/>
<path d="M533.171 193.556C503.684 210.553 455.874 210.553 426.386 193.555C412.16 185.355 404.799 174.697 404.299 163.953C403.762 175.48 411.123 187.106 426.386 195.904C455.874 212.902 503.684 212.902 533.171 195.905C548.433 187.108 555.793 175.482 555.257 163.955C554.757 174.699 547.397 185.357 533.171 193.556Z" fill="white"/>
<path d="M509.979 145.062C493.003 135.276 465.479 135.276 448.504 145.061C439.498 150.252 435.271 157.155 435.821 163.953C436.307 157.937 440.534 152.004 448.504 147.41C465.479 137.625 493.003 137.625 509.979 147.41C517.949 152.004 522.176 157.939 522.663 163.955C523.213 157.156 518.986 150.253 509.979 145.062Z" fill="white"/>
<path d="M529.748 134.332C502.298 118.509 457.792 118.509 430.343 134.331C402.893 150.153 402.894 175.807 430.344 191.63C457.795 207.453 502.3 207.453 529.749 191.631C557.199 175.808 557.198 150.155 529.748 134.332ZM509.733 180.093C493.338 189.544 466.755 189.543 450.36 180.093C433.964 170.642 433.963 155.319 450.359 145.869C466.754 136.418 493.337 136.418 509.732 145.869C526.128 155.32 526.129 170.642 509.733 180.093Z" fill="url(#paint20_linear_293_7207)"/>
<path opacity="0.4" d="M544.096 142.315C541.068 139.483 537.428 136.808 533.17 134.353C526.527 130.524 518.949 127.565 510.865 125.461C526.398 135.295 525.926 150.53 509.441 160.033C492.465 169.818 464.942 169.818 447.966 160.032C432.044 150.855 431.055 136.33 444.998 126.488C438.298 128.493 432.007 131.112 426.385 134.352C422.126 136.807 418.486 139.483 415.458 142.315H404.27V165.13C404.271 176.269 411.643 187.407 426.386 195.905C455.875 212.903 503.684 212.903 533.172 195.906C547.915 187.408 555.287 176.269 555.287 165.13V142.315H544.096V142.315Z" fill="#42E8E0"/>
<path d="M449.611 136.106C466.27 126.503 493.281 126.504 509.942 136.107C512.643 137.664 514.899 139.38 516.725 141.2C526.157 131.796 523.9 119.563 509.942 111.517C493.281 101.913 466.27 101.913 449.611 111.516C435.653 119.562 433.397 131.794 442.829 141.199C444.654 139.379 446.91 137.663 449.611 136.106Z" fill="#5351AF"/>
<path d="M544.096 129.02C541.068 126.189 537.428 123.513 533.17 121.059C526.527 117.229 518.949 114.271 510.865 112.167C526.398 122.001 525.926 137.236 509.441 146.738C492.465 156.523 464.942 156.523 447.966 146.738C432.044 137.56 431.055 123.036 444.998 113.194C438.298 115.199 432.007 117.817 426.385 121.058C422.126 123.513 418.486 126.189 415.458 129.02H404.27V151.836C404.271 162.974 411.643 174.112 426.386 182.611C455.875 199.608 503.684 199.609 533.172 182.611C547.915 174.113 555.287 162.975 555.287 151.836V129.02H544.096V129.02Z" fill="url(#paint21_linear_293_7207)"/>
<path opacity="0.3" d="M533.169 121.059C526.526 117.229 518.948 114.271 510.864 112.167C526.398 122.001 525.925 137.236 509.44 146.738C501.226 151.473 490.541 153.91 479.777 154.062V195.359C499.102 195.359 518.427 191.11 533.171 182.611C547.914 174.113 555.286 162.975 555.286 151.836V129.02H544.095C541.067 126.189 537.428 123.513 533.169 121.059Z" fill="#0F054C"/>
<path opacity="0.5" d="M533.169 121.059C526.526 117.229 518.948 114.271 510.864 112.167C526.398 122.001 525.925 137.236 509.44 146.738C501.226 151.473 490.541 153.91 479.777 154.062V195.359C499.102 195.359 518.427 191.11 533.171 182.611C547.914 174.113 555.286 162.975 555.286 151.836V129.02H544.095C541.067 126.189 537.428 123.513 533.169 121.059Z" fill="url(#paint22_radial_293_7207)"/>
<path d="M533.17 100.123C503.682 83.1254 455.872 83.125 426.385 100.122C396.897 117.119 396.898 144.677 426.386 161.675C455.875 178.672 503.684 178.673 533.172 161.676C562.659 144.679 562.659 117.12 533.17 100.123ZM509.979 148.617C493.003 158.402 465.479 158.402 448.503 148.616C431.527 138.831 431.527 122.966 448.503 113.181C465.478 103.396 493.002 103.396 509.978 113.182C526.954 122.967 526.954 138.832 509.979 148.617Z" fill="#5351AF"/>
<path d="M533.171 159.327C503.684 176.324 455.874 176.324 426.386 159.326C412.16 151.126 404.799 140.468 404.299 129.723C403.762 141.25 411.123 152.877 426.386 161.675C455.874 178.672 503.684 178.673 533.171 161.676C548.433 152.878 555.793 141.252 555.257 129.725C554.757 140.47 547.397 151.127 533.171 159.327Z" fill="white"/>
<path d="M509.979 110.833C493.003 101.048 465.479 101.048 448.504 110.833C439.498 116.024 435.271 122.926 435.821 129.724C436.307 123.709 440.534 117.775 448.504 113.181C465.479 103.396 493.003 103.396 509.979 113.182C517.949 117.776 522.176 123.71 522.663 129.726C523.213 122.928 518.986 116.025 509.979 110.833Z" fill="white"/>
<path d="M529.748 100.102C502.298 84.2794 457.792 84.2791 430.343 100.101C402.893 115.924 402.894 141.577 430.344 157.4C457.795 173.223 502.3 173.224 529.749 157.401C557.199 141.579 557.198 115.925 529.748 100.102ZM509.733 145.864C493.338 155.314 466.755 155.314 450.36 145.863C433.964 136.412 433.963 121.09 450.359 111.639C466.754 102.189 493.337 102.189 509.732 111.64C526.128 121.09 526.129 136.413 509.733 145.864Z" fill="url(#paint23_linear_293_7207)"/>
<path opacity="0.4" d="M544.096 108.085C541.068 105.253 537.428 102.578 533.17 100.123C526.527 96.2938 518.949 93.3354 510.865 91.2314C526.398 101.065 525.926 116.3 509.441 125.803C492.465 135.588 464.942 135.588 447.966 125.802C432.044 116.625 431.055 102.1 444.998 92.2584C438.298 94.2633 432.007 96.8816 426.385 100.122C422.126 102.577 418.486 105.253 415.458 108.085H404.27V130.9C404.271 142.039 411.643 153.177 426.386 161.675C455.875 178.673 503.684 178.673 533.172 161.676C547.915 153.177 555.287 142.039 555.287 130.9V108.085H544.096Z" fill="#42E8E0"/>
<path d="M449.611 101.877C466.27 92.2742 493.281 92.2745 509.942 101.878C512.643 103.435 514.899 105.151 516.725 106.971C526.157 97.5666 523.9 85.3337 509.942 77.2876C493.281 67.6843 466.27 67.6841 449.611 77.287C435.653 85.3328 433.397 97.5653 442.829 106.969C444.654 105.15 446.91 103.434 449.611 101.877Z" fill="#5351AF"/>
<path d="M544.096 94.7913C541.068 91.9598 537.428 89.2841 533.17 86.8296C526.527 83.0003 518.949 80.0419 510.865 77.938C526.398 87.7718 525.926 103.007 509.441 112.509C492.465 122.294 464.942 122.294 447.966 112.509C432.044 103.331 431.055 88.8065 444.998 78.965C438.298 80.9698 432.007 83.588 426.385 86.8287C422.126 89.2835 418.486 91.9595 415.458 94.7913H404.27V117.607C404.271 128.745 411.643 139.883 426.386 148.382C455.875 165.379 503.684 165.38 533.172 148.382C547.915 139.884 555.287 128.746 555.287 117.607V94.7913H544.096Z" fill="url(#paint24_linear_293_7207)"/>
<path d="M544.096 94.7913C541.068 91.9598 537.428 89.2841 533.17 86.8296C526.527 83.0003 518.949 80.0419 510.865 77.938C526.398 87.7718 525.926 103.007 509.441 112.509C492.465 122.294 464.942 122.294 447.966 112.509C432.044 103.331 431.055 88.8065 444.998 78.965C438.298 80.9698 432.007 83.588 426.385 86.8287C422.126 89.2835 418.486 91.9595 415.458 94.7913H404.27V117.607C404.271 128.745 411.643 139.883 426.386 148.382C455.875 165.379 503.684 165.38 533.172 148.382C547.915 139.884 555.287 128.746 555.287 117.607V94.7913H544.096Z" fill="url(#paint25_linear_293_7207)"/>
<path opacity="0.3" d="M533.169 86.8296C526.526 83.0003 518.948 80.0419 510.864 77.938C526.398 87.7718 525.925 103.007 509.44 112.509C501.226 117.244 490.541 119.681 479.777 119.833V161.13C499.102 161.13 518.427 156.881 533.171 148.382C547.914 139.884 555.286 128.746 555.286 117.607V94.7913H544.095C541.067 91.9598 537.428 89.2841 533.169 86.8296Z" fill="#0F054C"/>
<path opacity="0.5" d="M533.169 86.8296C526.526 83.0003 518.948 80.0419 510.864 77.938C526.398 87.7718 525.925 103.007 509.44 112.509C501.226 117.244 490.541 119.681 479.777 119.833V161.13C499.102 161.13 518.427 156.881 533.171 148.382C547.914 139.884 555.286 128.746 555.286 117.607V94.7913H544.095C541.067 91.9598 537.428 89.2841 533.169 86.8296Z" fill="url(#paint26_radial_293_7207)"/>
<path d="M533.17 65.894C503.682 48.8963 455.872 48.896 426.385 65.8931C396.897 82.8902 396.898 110.448 426.386 127.446C455.875 144.443 503.684 144.444 533.172 127.447C562.659 110.45 562.659 82.8915 533.17 65.894ZM509.979 114.388C493.003 124.173 465.479 124.173 448.503 114.387C431.527 104.602 431.527 88.737 448.503 78.952C465.478 69.1669 493.002 69.1672 509.978 78.9526C526.954 88.7379 526.954 104.603 509.979 114.388Z" fill="url(#paint27_linear_293_7207)"/>
<path d="M533.171 125.098C503.684 142.095 455.874 142.095 426.386 125.097C412.16 116.897 404.799 106.239 404.299 95.4941C403.762 107.021 411.123 118.648 426.386 127.446C455.874 144.443 503.684 144.444 533.171 127.447C548.433 118.649 555.793 107.023 555.257 95.4964C554.757 106.241 547.397 116.898 533.171 125.098Z" fill="white"/>
<path d="M529.748 67.4724C502.298 51.6495 457.792 51.6491 430.343 67.4716C402.893 83.294 402.894 108.948 430.344 124.77C457.795 140.593 502.3 140.594 529.749 124.771C557.199 108.949 557.198 83.2952 529.748 67.4724ZM509.733 113.234C493.338 122.684 466.755 122.684 450.36 113.233C433.964 103.782 433.963 88.4598 450.359 79.0091C466.754 69.5587 493.337 69.5588 509.732 79.0097C526.128 88.4605 526.129 103.783 509.733 113.234Z" fill="#24126A"/>
<path d="M559.27 432.631C555.793 432.631 552.475 431.931 549.997 430.505L428.666 360.567C426.233 359.165 424.893 357.213 424.893 355.07C424.893 352.502 426.819 349.918 430.177 347.981L661.581 214.596C667.875 210.971 677.433 210.58 682.893 213.725L804.225 283.663C806.658 285.066 807.999 287.018 807.999 289.159C807.997 291.729 806.072 294.312 802.714 296.249L571.309 429.634C567.871 431.615 563.457 432.631 559.27 432.631ZM673.621 212.112C669.529 212.112 665.211 213.108 661.844 215.049L430.438 348.434C427.246 350.274 425.415 352.693 425.415 355.07C425.415 357.018 426.663 358.81 428.927 360.114L550.26 430.052C555.572 433.116 564.9 432.725 571.047 429.181L802.452 295.796C805.644 293.956 807.476 291.537 807.476 289.159C807.476 287.212 806.228 285.42 803.963 284.116L682.631 214.178C680.227 212.791 677.002 212.112 673.621 212.112Z" fill="#42E8E0"/>
<path opacity="0.5" d="M550.369 392.068L433.36 324.604C428.14 321.595 428.794 316.338 434.823 312.863L661.935 181.987C667.964 178.512 677.083 178.135 682.304 181.144L799.312 248.608C804.532 251.618 803.878 256.874 797.849 260.349L570.737 391.225C564.709 394.7 555.589 395.078 550.369 392.068Z" fill="url(#paint28_radial_293_7207)"/>
<path opacity="0.8" d="M559.211 394.468C555.826 394.468 552.593 393.785 550.181 392.396L433.172 324.93C430.778 323.549 429.459 321.623 429.459 319.505C429.459 316.973 431.346 314.434 434.635 312.536L661.747 181.66C667.87 178.134 677.176 177.757 682.493 180.817L799.501 248.283C801.895 249.664 803.214 251.589 803.214 253.708C803.214 256.238 801.327 258.778 798.038 260.675L570.925 391.552C567.58 393.479 563.287 394.468 559.211 394.468ZM550.558 391.743C555.67 394.688 564.636 394.309 570.548 390.899L797.661 260.022C800.711 258.265 802.46 255.963 802.46 253.708C802.46 251.869 801.275 250.175 799.124 248.936L682.116 181.47C677.006 178.526 668.038 178.904 662.124 182.313L435.012 313.189C431.962 314.947 430.213 317.25 430.213 319.505C430.213 321.344 431.398 323.038 433.549 324.277L550.558 391.743Z" fill="url(#paint29_linear_293_7207)"/>
<path d="M660.161 319.01C656.607 319.01 653.215 318.295 650.683 316.836L569.653 270.13C567.167 268.696 565.797 266.701 565.797 264.513C565.798 261.886 567.768 259.245 571.2 257.267C577.635 253.56 587.409 253.16 592.991 256.376L674.02 303.082C676.506 304.516 677.876 306.51 677.876 308.7C677.876 311.326 675.907 313.966 672.475 315.945C668.959 317.971 664.443 319.01 660.161 319.01ZM583.512 254.716C579.324 254.716 574.905 255.734 571.462 257.72C568.195 259.603 566.321 262.078 566.32 264.513C566.32 266.507 567.597 268.342 569.915 269.677L650.945 316.383C656.382 319.518 665.923 319.118 672.213 315.492C675.479 313.61 677.353 311.133 677.353 308.7C677.353 306.706 676.076 304.87 673.758 303.535L592.729 256.829C590.27 255.412 586.97 254.716 583.512 254.716Z" fill="#42E8E0"/>
<path opacity="0.4" d="M527.408 68.8228C501.251 53.7455 458.843 53.7453 432.687 68.8219C406.531 83.8988 406.531 108.343 432.688 123.421C458.845 138.498 501.253 138.498 527.409 123.421C553.566 108.345 553.565 83.9 527.408 68.8228Z" fill="#42E8E0"/>
<path opacity="0.4" d="M480.047 120.276C503.19 120.276 521.95 109.463 521.95 96.1228C521.95 82.7832 503.19 71.9692 480.047 71.9692C456.905 71.9692 438.145 82.7832 438.145 96.1228C438.145 109.463 456.905 120.276 480.047 120.276Z" fill="#42E8E0"/>
<path d="M452.636 418.096C450.338 418.096 448.042 417.506 445.99 416.324L320.712 344.25C319.013 343.27 318 341.518 318 339.559C318 337.601 319.013 335.849 320.712 334.869L430.297 271.702L430.558 272.155L320.973 335.322C319.439 336.206 318.522 337.79 318.522 339.559C318.522 341.329 319.439 342.913 320.973 343.797L446.252 415.871C450.203 418.152 455.108 418.14 459.055 415.853L492.113 396.67L492.376 397.12L459.317 416.303C457.258 417.499 454.947 418.096 452.636 418.096Z" fill="#42E8E0"/>
<path opacity="0.4" d="M499.662 82.6509C499.662 83.5921 498.898 84.3551 497.955 84.3551C497.012 84.3551 496.248 83.5921 496.248 82.6509C496.248 81.7098 497.012 80.9468 497.955 80.9468C498.898 80.9468 499.662 81.7098 499.662 82.6509Z" fill="#42E8E0"/>
<path opacity="0.4" d="M469.838 4.7043C469.838 5.64545 469.074 6.40845 468.131 6.40845C467.188 6.40845 466.424 5.64545 466.424 4.7043C466.424 3.763 467.188 3 468.131 3C469.074 3 469.838 3.763 469.838 4.7043Z" fill="#42E8E0"/>
<path opacity="0.4" d="M473.167 62.9557C473.167 64.344 472.039 65.4694 470.649 65.4694C469.258 65.4694 468.131 64.344 468.131 62.9557C468.131 61.5674 469.258 60.4419 470.649 60.4419C472.039 60.4419 473.167 61.5674 473.167 62.9557Z" fill="#42E8E0"/>
<path opacity="0.8" d="M468.588 105.871C468.588 106.853 467.791 107.649 466.808 107.649C465.824 107.649 465.027 106.853 465.027 105.871C465.027 104.89 465.824 104.094 466.808 104.094C467.791 104.094 468.588 104.89 468.588 105.871Z" fill="#42E8E0"/>
<path opacity="0.8" d="M493.933 34.0335C493.933 35.5364 492.713 36.7547 491.208 36.7547C489.703 36.7547 488.482 35.5364 488.482 34.0335C488.482 32.5307 489.703 31.3125 491.208 31.3125C492.713 31.3125 493.933 32.5307 493.933 34.0335Z" fill="#42E8E0"/>
<path opacity="0.8" d="M489.962 44.6853C490.98 44.6853 491.805 43.8615 491.805 42.8453C491.805 41.8292 490.98 41.0054 489.962 41.0054C488.944 41.0054 488.119 41.8292 488.119 42.8453C488.119 43.8615 488.944 44.6853 489.962 44.6853Z" fill="#42E8E0"/>
<path opacity="0.5" d="M687.091 178.097L615.648 136.917L712.23 81.2456L783.672 122.426L687.091 178.097Z" fill="url(#paint30_radial_293_7207)"/>
<path d="M687.007 170.84C685.456 170.84 683.905 170.441 682.522 169.644L629.723 139.212C628.91 138.743 628.426 137.903 628.426 136.966C628.426 136.028 628.91 135.188 629.723 134.719L707.826 89.7C710.593 88.1059 714.03 88.1059 716.797 89.7L769.594 120.133C770.407 120.602 770.891 121.442 770.891 122.378C770.891 123.316 770.407 124.156 769.594 124.625L691.492 169.644C690.109 170.441 688.556 170.84 687.007 170.84ZM712.311 89.0264C710.852 89.0264 709.391 89.4015 708.089 90.1529L629.986 135.172C629.336 135.545 628.949 136.216 628.949 136.966C628.949 137.714 629.336 138.385 629.986 138.759L682.784 169.192C685.387 170.694 688.624 170.696 691.23 169.192L769.331 124.172C769.981 123.799 770.368 123.128 770.368 122.378C770.368 121.63 769.981 120.959 769.331 120.586L716.534 90.1529C715.232 89.4015 713.771 89.0264 712.311 89.0264Z" fill="#42E8E0"/>
<path d="M699.679 119.693L691.395 114.917L693.453 113.73L701.738 118.506L699.679 119.693Z" fill="#42E8E0"/>
<path opacity="0.5" d="M706.748 123.767L702.605 121.379L704.664 120.193L708.807 122.581L706.748 123.767Z" fill="#42E8E0"/>
<path opacity="0.5" d="M694.849 122.474L686.564 117.699L688.623 116.512L696.908 121.288L694.849 122.474Z" fill="#42E8E0"/>
<path opacity="0.5" d="M701.92 126.55L697.777 124.163L699.836 122.976L703.978 125.364L701.92 126.55Z" fill="#42E8E0"/>
<path d="M690.021 125.258L681.736 120.482L683.795 119.295L692.08 124.071L690.021 125.258Z" fill="#42E8E0"/>
<path d="M697.093 129.333L692.951 126.946L695.01 125.759L699.152 128.147L697.093 129.333Z" fill="#42E8E0"/>
<path d="M685.195 128.04L676.91 123.265L678.969 122.078L687.254 126.854L685.195 128.04Z" fill="#42E8E0"/>
<path d="M692.265 132.115L688.123 129.728L690.182 128.541L694.324 130.929L692.265 132.115Z" fill="#42E8E0"/>
<path d="M680.369 130.823L672.084 126.047L674.143 124.861L682.428 129.636L680.369 130.823Z" fill="#42E8E0"/>
<path d="M687.439 134.898L683.297 132.51L685.356 131.324L689.498 133.712L687.439 134.898Z" fill="#42E8E0"/>
<path d="M675.539 133.605L667.254 128.83L669.313 127.643L677.598 132.419L675.539 133.605Z" fill="#42E8E0"/>
<path d="M682.609 137.68L678.467 135.292L680.525 134.105L684.668 136.493L682.609 137.68Z" fill="#42E8E0"/>
<path d="M670.713 136.387L662.428 131.612L664.486 130.425L672.771 135.2L670.713 136.387Z" fill="#42E8E0"/>
<path opacity="0.5" d="M677.783 140.463L673.641 138.075L675.699 136.889L679.842 139.276L677.783 140.463Z" fill="#42E8E0"/>
<path d="M665.886 139.17L657.602 134.395L659.66 133.208L667.945 137.984L665.886 139.17Z" fill="#42E8E0"/>
<path opacity="0.5" d="M672.957 143.245L668.814 140.857L670.873 139.67L675.015 142.058L672.957 143.245Z" fill="#42E8E0"/>
<path d="M718.082 130.403L709.797 125.628L711.856 124.441L720.14 129.216L718.082 130.403Z" fill="#42E8E0"/>
<path d="M725.148 134.478L721.006 132.091L723.064 130.904L727.207 133.292L725.148 134.478Z" fill="#42E8E0"/>
<path d="M713.254 133.185L704.969 128.409L707.027 127.223L715.312 131.998L713.254 133.185Z" fill="#42E8E0"/>
<path d="M720.322 137.261L716.18 134.873L718.238 133.687L722.381 136.074L720.322 137.261Z" fill="#42E8E0"/>
<path d="M708.424 135.968L700.139 131.193L702.197 130.006L710.482 134.781L708.424 135.968Z" fill="#42E8E0"/>
<path d="M715.494 140.043L711.352 137.655L713.41 136.468L717.553 138.856L715.494 140.043Z" fill="#42E8E0"/>
<path d="M714.08 111.391L705.795 106.615L707.854 105.429L716.139 110.204L714.08 111.391Z" fill="#42E8E0"/>
<path d="M721.148 115.467L717.006 113.079L719.064 111.893L723.207 114.28L721.148 115.467Z" fill="#42E8E0"/>
<path d="M709.252 114.173L700.967 109.397L703.026 108.21L711.31 112.986L709.252 114.173Z" fill="#42E8E0"/>
<path d="M716.322 118.249L712.18 115.861L714.238 114.674L718.381 117.062L716.322 118.249Z" fill="#42E8E0"/>
<path d="M704.424 116.956L696.139 112.18L698.197 110.994L706.482 115.769L704.424 116.956Z" fill="#42E8E0"/>
<path d="M711.496 121.032L707.354 118.645L709.412 117.458L713.555 119.846L711.496 121.032Z" fill="#42E8E0"/>
<path d="M732.48 122.101L724.195 117.325L726.254 116.139L734.539 120.914L732.48 122.101Z" fill="#42E8E0"/>
<path d="M739.551 126.177L735.408 123.789L737.467 122.603L741.609 124.99L739.551 126.177Z" fill="#42E8E0"/>
<path opacity="0.5" d="M727.654 124.884L719.369 120.108L721.428 118.922L729.713 123.697L727.654 124.884Z" fill="#42E8E0"/>
<path d="M734.722 128.96L730.58 126.572L732.639 125.386L736.781 127.774L734.722 128.96Z" fill="#42E8E0"/>
<path d="M722.826 127.666L714.541 122.89L716.6 121.704L724.885 126.479L722.826 127.666Z" fill="#42E8E0"/>
<path d="M729.896 131.742L725.754 129.354L727.813 128.167L731.955 130.555L729.896 131.742Z" fill="#42E8E0"/>
<path d="M703.599 138.75L695.314 133.974L697.373 132.788L705.658 137.563L703.599 138.75Z" fill="#42E8E0"/>
<path d="M710.668 142.826L706.525 140.438L708.584 139.251L712.726 141.639L710.668 142.826Z" fill="#42E8E0"/>
<path opacity="0.5" d="M698.771 141.533L690.486 136.758L692.545 135.571L700.83 140.346L698.771 141.533Z" fill="#42E8E0"/>
<path d="M705.84 145.608L701.697 143.22L703.756 142.033L707.898 144.421L705.84 145.608Z" fill="#42E8E0"/>
<path d="M693.943 144.315L685.658 139.539L687.717 138.353L696.002 143.128L693.943 144.315Z" fill="#42E8E0"/>
<path d="M701.013 148.391L696.871 146.003L698.93 144.816L703.072 147.204L701.013 148.391Z" fill="#42E8E0"/>
<path d="M689.115 147.097L680.83 142.322L682.889 141.135L691.174 145.911L689.115 147.097Z" fill="#42E8E0"/>
<path d="M696.187 151.173L692.045 148.785L694.104 147.598L698.246 149.986L696.187 151.173Z" fill="#42E8E0"/>
<path d="M684.379 149.828L676.094 145.052L678.152 143.866L686.437 148.641L684.379 149.828Z" fill="#42E8E0"/>
<path d="M691.449 153.903L687.307 151.516L689.365 150.329L693.508 152.717L691.449 153.903Z" fill="#42E8E0"/>
<path d="M492.983 372.609L486.535 368.892C485.93 368.544 485.439 367.608 485.439 366.802C485.439 365.997 485.93 365.626 486.535 365.975L492.983 369.692C493.588 370.04 494.079 370.976 494.079 371.782C494.079 372.588 493.588 372.958 492.983 372.609Z" fill="#24126A"/>
<path opacity="0.1" d="M687.558 468.007L616.115 426.827L712.696 371.156L784.139 412.336L687.558 468.007Z" fill="#42E8E0"/>
<path opacity="0.5" d="M687.558 452.333L616.115 411.152L712.696 355.481L784.139 396.662L687.558 452.333Z" fill="url(#paint31_radial_293_7207)"/>
<path d="M687.476 445.075C685.925 445.075 684.374 444.677 682.991 443.88L630.194 413.447C629.381 412.976 628.896 412.137 628.896 411.198C628.896 410.262 629.382 409.424 630.194 408.954L708.297 363.934C711.062 362.34 714.497 362.34 717.267 363.934L770.064 394.368C770.876 394.837 771.362 395.675 771.362 396.612C771.362 397.55 770.877 398.39 770.064 398.861L691.961 443.88C690.578 444.677 689.027 445.075 687.476 445.075ZM712.782 363.26C711.321 363.26 709.861 363.635 708.559 364.387L630.456 409.407C629.807 409.781 629.419 410.451 629.419 411.2C629.419 411.948 629.807 412.619 630.456 412.994L683.253 443.427C685.857 444.93 689.095 444.93 691.699 443.427L769.802 398.408C770.452 398.033 770.839 397.362 770.839 396.614C770.839 395.865 770.452 395.195 769.802 394.821L717.005 364.387C715.703 363.635 714.242 363.26 712.782 363.26Z" fill="#42E8E0"/>
<path d="M665.283 382.963L657.944 378.786C654.082 376.588 651.684 372.466 651.684 368.028V352.977C651.684 348.737 649.393 344.793 645.709 342.685L617.859 326.753L618.119 326.3L645.969 342.232C649.816 344.433 652.205 348.551 652.205 352.977V368.028C652.205 372.279 654.504 376.228 658.203 378.333L665.542 382.51L665.283 382.963Z" fill="#42E8E0"/>
<path d="M576.44 291.392L576.178 290.942L686.236 226.825C687.41 226.139 688.819 226.134 689.999 226.81C691.181 227.488 691.886 228.704 691.886 230.064H691.365C691.365 228.894 690.756 227.847 689.739 227.263C688.724 226.678 687.512 226.683 686.5 227.275L576.44 291.392Z" fill="#42E8E0"/>
<path d="M695.821 233.201L695.556 232.751L741.131 205.849C742.702 204.921 743.632 203.278 743.616 201.455C743.598 199.63 742.639 198.005 741.05 197.105L674.004 159.179L674.26 158.726L741.308 196.652C743.062 197.643 744.119 199.437 744.139 201.451C744.156 203.462 743.131 205.276 741.396 206.299L695.821 233.201Z" fill="#42E8E0"/>
<path d="M538.916 285.904L536.785 284.676L538.916 283.448L541.047 284.676L538.916 285.904Z" fill="#42E8E0"/>
<path d="M544.707 286.092L542.576 284.864L544.707 283.635L546.838 284.864L544.707 286.092Z" fill="#42E8E0"/>
<path d="M541.906 291.444L539.775 290.216L541.906 288.988L544.037 290.216L541.906 291.444Z" fill="#42E8E0"/>
<path d="M532.672 281.706L530.541 280.478L532.672 279.25L534.803 280.478L532.672 281.706Z" fill="#42E8E0"/>
<path d="M549.293 290.658L547.162 289.429L549.293 288.201L551.424 289.429L549.293 290.658Z" fill="#42E8E0"/>
<path d="M554.164 289.611L552.033 288.382L554.164 287.154L556.295 288.383L554.164 289.611Z" fill="#42E8E0"/>
<path d="M549.211 293.695L547.08 292.467L549.211 291.239L551.342 292.467L549.211 293.695Z" fill="#42E8E0"/>
<path d="M557.687 297.353L555.557 296.125L557.687 294.897L559.818 296.125L557.687 297.353Z" fill="#42E8E0"/>
<path d="M564.254 298.588L562.123 297.36L564.254 296.131L566.385 297.36L564.254 298.588Z" fill="#42E8E0"/>
<path d="M564.256 303.928L562.125 302.7L564.256 301.471L566.387 302.7L564.256 303.928Z" fill="#42E8E0"/>
<path d="M568.107 302.133L565.977 300.905L568.107 299.677L570.238 300.905L568.107 302.133Z" fill="#42E8E0"/>
<path d="M576.494 304.938L574.363 303.709L576.494 302.481L578.625 303.709L576.494 304.938Z" fill="#42E8E0"/>
<path d="M583.897 306.971L581.766 305.743L583.896 304.515L586.027 305.743L583.897 306.971Z" fill="#42E8E0"/>
<path d="M577.004 309.716L574.873 308.488L577.004 307.26L579.135 308.488L577.004 309.716Z" fill="#42E8E0"/>
<path d="M587.371 313.834L585.24 312.606L587.371 311.377L589.502 312.606L587.371 313.834Z" fill="#42E8E0"/>
<path d="M593.686 314.324L591.555 313.095L593.686 311.867L595.816 313.095L593.686 314.324Z" fill="#42E8E0"/>
<path d="M586.811 310.883L584.68 309.654L586.811 308.426L588.941 309.654L586.811 310.883Z" fill="#42E8E0"/>
<path d="M599.106 320.599L596.975 319.37L599.105 318.142L601.236 319.37L599.106 320.599Z" fill="#42E8E0"/>
<defs>
<linearGradient id="paint0_linear_293_7207" x1="425.154" y1="303.314" x2="807.737" y2="303.314" gradientUnits="userSpaceOnUse">
<stop stop-color="#BCBEFF"/>
<stop offset="0.151041" stop-color="#A3A7F5"/>
<stop offset="0.386601" stop-color="#8289E8"/>
<stop offset="0.612402" stop-color="#6A73DF"/>
<stop offset="0.822106" stop-color="#5C66D9"/>
<stop offset="1" stop-color="#5761D7"/>
</linearGradient>
<radialGradient id="paint1_radial_293_7207" cx="0" cy="0" r="1" gradientUnits="userSpaceOnUse" gradientTransform="translate(545.447 227.879) scale(245.578 245.181)">
<stop stop-color="#42E8E0"/>
<stop offset="0.105539" stop-color="#37B6BF"/>
<stop offset="0.219661" stop-color="#2C87A1"/>
<stop offset="0.337969" stop-color="#235F87"/>
<stop offset="0.458668" stop-color="#1C3F72"/>
<stop offset="0.582439" stop-color="#162561"/>
<stop offset="0.710541" stop-color="#121355"/>
<stop offset="0.845774" stop-color="#10084E"/>
<stop offset="1" stop-color="#0F054C"/>
</radialGradient>
<linearGradient id="paint2_linear_293_7207" x1="404.268" y1="360.29" x2="555.285" y2="360.29" gradientUnits="userSpaceOnUse">
<stop stop-color="#BCBEFF"/>
<stop offset="0.151041" stop-color="#A3A7F5"/>
<stop offset="0.386601" stop-color="#8289E8"/>
<stop offset="0.612402" stop-color="#6A73DF"/>
<stop offset="0.822106" stop-color="#5C66D9"/>
<stop offset="1" stop-color="#5761D7"/>
</linearGradient>
<radialGradient id="paint3_radial_293_7207" cx="0" cy="0" r="1" gradientUnits="userSpaceOnUse" gradientTransform="translate(551.474 383.312) scale(87.7608 87.6188)">
<stop stop-color="#42E8E0"/>
<stop offset="0.0346929" stop-color="#3FDCD8"/>
<stop offset="0.236345" stop-color="#319CAE"/>
<stop offset="0.42861" stop-color="#25668B"/>
<stop offset="0.606245" stop-color="#1B3C70"/>
<stop offset="0.766196" stop-color="#151E5C"/>
<stop offset="0.902801" stop-color="#100C50"/>
<stop offset="1" stop-color="#0F054C"/>
</radialGradient>
<linearGradient id="paint4_linear_293_7207" x1="409.756" y1="335.279" x2="550.336" y2="335.279" gradientUnits="userSpaceOnUse">
<stop stop-color="#C0BFF6"/>
<stop offset="0.293761" stop-color="#C5C4F7"/>
<stop offset="0.639919" stop-color="#D3D2F9"/>
<stop offset="1" stop-color="#E9E9FD"/>
</linearGradient>
<linearGradient id="paint5_linear_293_7207" x1="404.268" y1="326.061" x2="555.285" y2="326.061" gradientUnits="userSpaceOnUse">
<stop stop-color="#BCBEFF"/>
<stop offset="0.151041" stop-color="#A3A7F5"/>
<stop offset="0.386601" stop-color="#8289E8"/>
<stop offset="0.612402" stop-color="#6A73DF"/>
<stop offset="0.822106" stop-color="#5C66D9"/>
<stop offset="1" stop-color="#5761D7"/>
</linearGradient>
<radialGradient id="paint6_radial_293_7207" cx="0" cy="0" r="1" gradientUnits="userSpaceOnUse" gradientTransform="translate(551.474 349.082) scale(87.7607 87.6187)">
<stop stop-color="#42E8E0"/>
<stop offset="0.0346929" stop-color="#3FDCD8"/>
<stop offset="0.236345" stop-color="#319CAE"/>
<stop offset="0.42861" stop-color="#25668B"/>
<stop offset="0.606245" stop-color="#1B3C70"/>
<stop offset="0.766196" stop-color="#151E5C"/>
<stop offset="0.902801" stop-color="#100C50"/>
<stop offset="1" stop-color="#0F054C"/>
</radialGradient>
<linearGradient id="paint7_linear_293_7207" x1="409.756" y1="301.05" x2="550.336" y2="301.05" gradientUnits="userSpaceOnUse">
<stop stop-color="#C0BFF6"/>
<stop offset="0.293761" stop-color="#C5C4F7"/>
<stop offset="0.639919" stop-color="#D3D2F9"/>
<stop offset="1" stop-color="#E9E9FD"/>
</linearGradient>
<linearGradient id="paint8_linear_293_7207" x1="404.268" y1="291.833" x2="555.285" y2="291.833" gradientUnits="userSpaceOnUse">
<stop stop-color="#BCBEFF"/>
<stop offset="0.151041" stop-color="#A3A7F5"/>
<stop offset="0.386601" stop-color="#8289E8"/>
<stop offset="0.612402" stop-color="#6A73DF"/>
<stop offset="0.822106" stop-color="#5C66D9"/>
<stop offset="1" stop-color="#5761D7"/>
</linearGradient>
<radialGradient id="paint9_radial_293_7207" cx="0" cy="0" r="1" gradientUnits="userSpaceOnUse" gradientTransform="translate(551.474 314.854) scale(87.7607 87.6187)">
<stop stop-color="#42E8E0"/>
<stop offset="0.0346929" stop-color="#3FDCD8"/>
<stop offset="0.236345" stop-color="#319CAE"/>
<stop offset="0.42861" stop-color="#25668B"/>
<stop offset="0.606245" stop-color="#1B3C70"/>
<stop offset="0.766196" stop-color="#151E5C"/>
<stop offset="0.902801" stop-color="#100C50"/>
<stop offset="1" stop-color="#0F054C"/>
</radialGradient>
<linearGradient id="paint10_linear_293_7207" x1="409.756" y1="266.821" x2="550.336" y2="266.821" gradientUnits="userSpaceOnUse">
<stop stop-color="#C0BFF6"/>
<stop offset="0.293761" stop-color="#C5C4F7"/>
<stop offset="0.639919" stop-color="#D3D2F9"/>
<stop offset="1" stop-color="#E9E9FD"/>
</linearGradient>
<linearGradient id="paint11_linear_293_7207" x1="404.268" y1="257.604" x2="555.285" y2="257.604" gradientUnits="userSpaceOnUse">
<stop stop-color="#BCBEFF"/>
<stop offset="0.151041" stop-color="#A3A7F5"/>
<stop offset="0.386601" stop-color="#8289E8"/>
<stop offset="0.612402" stop-color="#6A73DF"/>
<stop offset="0.822106" stop-color="#5C66D9"/>
<stop offset="1" stop-color="#5761D7"/>
</linearGradient>
<linearGradient id="paint12_linear_293_7207" x1="404.268" y1="257.604" x2="555.285" y2="257.604" gradientUnits="userSpaceOnUse">
<stop stop-color="#BCBEFF"/>
<stop offset="0.151041" stop-color="#A3A7F5"/>
<stop offset="0.386601" stop-color="#8289E8"/>
<stop offset="0.612402" stop-color="#6A73DF"/>
<stop offset="0.822106" stop-color="#5C66D9"/>
<stop offset="1" stop-color="#5761D7"/>
</linearGradient>
<radialGradient id="paint13_radial_293_7207" cx="0" cy="0" r="1" gradientUnits="userSpaceOnUse" gradientTransform="translate(551.474 280.625) scale(87.7608 87.6188)">
<stop stop-color="#42E8E0"/>
<stop offset="0.0346929" stop-color="#3FDCD8"/>
<stop offset="0.236345" stop-color="#319CAE"/>
<stop offset="0.42861" stop-color="#25668B"/>
<stop offset="0.606245" stop-color="#1B3C70"/>
<stop offset="0.766196" stop-color="#151E5C"/>
<stop offset="0.902801" stop-color="#100C50"/>
<stop offset="1" stop-color="#0F054C"/>
</radialGradient>
<linearGradient id="paint14_linear_293_7207" x1="409.756" y1="232.592" x2="550.336" y2="232.592" gradientUnits="userSpaceOnUse">
<stop stop-color="#C0BFF6"/>
<stop offset="0.293761" stop-color="#C5C4F7"/>
<stop offset="0.639919" stop-color="#D3D2F9"/>
<stop offset="1" stop-color="#E9E9FD"/>
</linearGradient>
<linearGradient id="paint15_linear_293_7207" x1="404.27" y1="222.222" x2="555.287" y2="222.222" gradientUnits="userSpaceOnUse">
<stop stop-color="#BCBEFF"/>
<stop offset="0.151041" stop-color="#A3A7F5"/>
<stop offset="0.386601" stop-color="#8289E8"/>
<stop offset="0.612402" stop-color="#6A73DF"/>
<stop offset="0.822106" stop-color="#5C66D9"/>
<stop offset="1" stop-color="#5761D7"/>
</linearGradient>
<radialGradient id="paint16_radial_293_7207" cx="0" cy="0" r="1" gradientUnits="userSpaceOnUse" gradientTransform="translate(551.474 245.243) scale(87.7608 87.6188)">
<stop stop-color="#42E8E0"/>
<stop offset="0.0346929" stop-color="#3FDCD8"/>
<stop offset="0.236345" stop-color="#319CAE"/>
<stop offset="0.42861" stop-color="#25668B"/>
<stop offset="0.606245" stop-color="#1B3C70"/>
<stop offset="0.766196" stop-color="#151E5C"/>
<stop offset="0.902801" stop-color="#100C50"/>
<stop offset="1" stop-color="#0F054C"/>
</radialGradient>
<linearGradient id="paint17_linear_293_7207" x1="409.756" y1="197.21" x2="550.336" y2="197.21" gradientUnits="userSpaceOnUse">
<stop stop-color="#C0BFF6"/>
<stop offset="0.293761" stop-color="#C5C4F7"/>
<stop offset="0.639919" stop-color="#D3D2F9"/>
<stop offset="1" stop-color="#E9E9FD"/>
</linearGradient>
<linearGradient id="paint18_linear_293_7207" x1="404.27" y1="187.993" x2="555.287" y2="187.993" gradientUnits="userSpaceOnUse">
<stop stop-color="#BCBEFF"/>
<stop offset="0.151041" stop-color="#A3A7F5"/>
<stop offset="0.386601" stop-color="#8289E8"/>
<stop offset="0.612402" stop-color="#6A73DF"/>
<stop offset="0.822106" stop-color="#5C66D9"/>
<stop offset="1" stop-color="#5761D7"/>
</linearGradient>
<radialGradient id="paint19_radial_293_7207" cx="0" cy="0" r="1" gradientUnits="userSpaceOnUse" gradientTransform="translate(551.474 211.015) scale(87.7608 87.6188)">
<stop stop-color="#42E8E0"/>
<stop offset="0.0346929" stop-color="#3FDCD8"/>
<stop offset="0.236345" stop-color="#319CAE"/>
<stop offset="0.42861" stop-color="#25668B"/>
<stop offset="0.606245" stop-color="#1B3C70"/>
<stop offset="0.766196" stop-color="#151E5C"/>
<stop offset="0.902801" stop-color="#100C50"/>
<stop offset="1" stop-color="#0F054C"/>
</radialGradient>
<linearGradient id="paint20_linear_293_7207" x1="409.756" y1="162.981" x2="550.336" y2="162.981" gradientUnits="userSpaceOnUse">
<stop stop-color="#C0BFF6"/>
<stop offset="0.293761" stop-color="#C5C4F7"/>
<stop offset="0.639919" stop-color="#D3D2F9"/>
<stop offset="1" stop-color="#E9E9FD"/>
</linearGradient>
<linearGradient id="paint21_linear_293_7207" x1="404.27" y1="153.763" x2="555.287" y2="153.763" gradientUnits="userSpaceOnUse">
<stop stop-color="#BCBEFF"/>
<stop offset="0.151041" stop-color="#A3A7F5"/>
<stop offset="0.386601" stop-color="#8289E8"/>
<stop offset="0.612402" stop-color="#6A73DF"/>
<stop offset="0.822106" stop-color="#5C66D9"/>
<stop offset="1" stop-color="#5761D7"/>
</linearGradient>
<radialGradient id="paint22_radial_293_7207" cx="0" cy="0" r="1" gradientUnits="userSpaceOnUse" gradientTransform="translate(551.474 176.784) scale(87.7607 87.6187)">
<stop stop-color="#42E8E0"/>
<stop offset="0.0346929" stop-color="#3FDCD8"/>
<stop offset="0.236345" stop-color="#319CAE"/>
<stop offset="0.42861" stop-color="#25668B"/>
<stop offset="0.606245" stop-color="#1B3C70"/>
<stop offset="0.766196" stop-color="#151E5C"/>
<stop offset="0.902801" stop-color="#100C50"/>
<stop offset="1" stop-color="#0F054C"/>
</radialGradient>
<linearGradient id="paint23_linear_293_7207" x1="409.756" y1="128.751" x2="550.336" y2="128.751" gradientUnits="userSpaceOnUse">
<stop stop-color="#C0BFF6"/>
<stop offset="0.293761" stop-color="#C5C4F7"/>
<stop offset="0.639919" stop-color="#D3D2F9"/>
<stop offset="1" stop-color="#E9E9FD"/>
</linearGradient>
<linearGradient id="paint24_linear_293_7207" x1="404.27" y1="119.534" x2="555.287" y2="119.534" gradientUnits="userSpaceOnUse">
<stop stop-color="#BCBEFF"/>
<stop offset="0.151041" stop-color="#A3A7F5"/>
<stop offset="0.386601" stop-color="#8289E8"/>
<stop offset="0.612402" stop-color="#6A73DF"/>
<stop offset="0.822106" stop-color="#5C66D9"/>
<stop offset="1" stop-color="#5761D7"/>
</linearGradient>
<linearGradient id="paint25_linear_293_7207" x1="404.27" y1="119.534" x2="555.287" y2="119.534" gradientUnits="userSpaceOnUse">
<stop stop-color="#BCBEFF"/>
<stop offset="0.151041" stop-color="#A3A7F5"/>
<stop offset="0.386601" stop-color="#8289E8"/>
<stop offset="0.612402" stop-color="#6A73DF"/>
<stop offset="0.822106" stop-color="#5C66D9"/>
<stop offset="1" stop-color="#5761D7"/>
</linearGradient>
<radialGradient id="paint26_radial_293_7207" cx="0" cy="0" r="1" gradientUnits="userSpaceOnUse" gradientTransform="translate(551.474 142.555) scale(87.7607 87.6187)">
<stop stop-color="#42E8E0"/>
<stop offset="0.0346929" stop-color="#3FDCD8"/>
<stop offset="0.236345" stop-color="#319CAE"/>
<stop offset="0.42861" stop-color="#25668B"/>
<stop offset="0.606245" stop-color="#1B3C70"/>
<stop offset="0.766196" stop-color="#151E5C"/>
<stop offset="0.902801" stop-color="#100C50"/>
<stop offset="1" stop-color="#0F054C"/>
</radialGradient>
<linearGradient id="paint27_linear_293_7207" x1="404.27" y1="96.6699" x2="555.287" y2="96.6699" gradientUnits="userSpaceOnUse">
<stop stop-color="#C0BFF6"/>
<stop offset="0.293761" stop-color="#C5C4F7"/>
<stop offset="0.639919" stop-color="#D3D2F9"/>
<stop offset="1" stop-color="#E9E9FD"/>
</linearGradient>
<radialGradient id="paint28_radial_293_7207" cx="0" cy="0" r="1" gradientUnits="userSpaceOnUse" gradientTransform="translate(545.447 224.867) scale(245.578 245.181)">
<stop stop-color="#42E8E0"/>
<stop offset="0.105539" stop-color="#37B6BF"/>
<stop offset="0.219661" stop-color="#2C87A1"/>
<stop offset="0.337969" stop-color="#235F87"/>
<stop offset="0.458668" stop-color="#1C3F72"/>
<stop offset="0.582439" stop-color="#162561"/>
<stop offset="0.710541" stop-color="#121355"/>
<stop offset="0.845774" stop-color="#10084E"/>
<stop offset="1" stop-color="#0F054C"/>
</radialGradient>
<linearGradient id="paint29_linear_293_7207" x1="669.733" y1="357.352" x2="563.16" y2="215.694" gradientUnits="userSpaceOnUse">
<stop stop-color="#42E8E0"/>
<stop offset="0.105539" stop-color="#37B6BF"/>
<stop offset="0.219661" stop-color="#2C87A1"/>
<stop offset="0.337969" stop-color="#235F87"/>
<stop offset="0.458668" stop-color="#1C3F72"/>
<stop offset="0.582439" stop-color="#162561"/>
<stop offset="0.710541" stop-color="#121355"/>
<stop offset="0.845774" stop-color="#10084E"/>
<stop offset="1" stop-color="#0F054C"/>
</linearGradient>
<radialGradient id="paint30_radial_293_7207" cx="0" cy="0" r="1" gradientUnits="userSpaceOnUse" gradientTransform="translate(633.548 167.568) scale(295.94 295.462)">
<stop stop-color="#42E8E0"/>
<stop offset="0.105539" stop-color="#37B6BF"/>
<stop offset="0.219661" stop-color="#2C87A1"/>
<stop offset="0.337969" stop-color="#235F87"/>
<stop offset="0.458668" stop-color="#1C3F72"/>
<stop offset="0.582439" stop-color="#162561"/>
<stop offset="0.710541" stop-color="#121355"/>
<stop offset="0.845774" stop-color="#10084E"/>
<stop offset="1" stop-color="#0F054C"/>
</radialGradient>
<radialGradient id="paint31_radial_293_7207" cx="0" cy="0" r="1" gradientUnits="userSpaceOnUse" gradientTransform="translate(634.014 441.804) scale(295.94 295.462)">
<stop stop-color="#42E8E0"/>
<stop offset="0.105539" stop-color="#37B6BF"/>
<stop offset="0.219661" stop-color="#2C87A1"/>
<stop offset="0.337969" stop-color="#235F87"/>
<stop offset="0.458668" stop-color="#1C3F72"/>
<stop offset="0.582439" stop-color="#162561"/>
<stop offset="0.710541" stop-color="#121355"/>
<stop offset="0.845774" stop-color="#10084E"/>
<stop offset="1" stop-color="#0F054C"/>
</radialGradient>
</defs>
</svg>
