<svg width="185" height="167" viewBox="0 0 185 167" fill="none" xmlns="http://www.w3.org/2000/svg">
<g opacity="0.3">
<path d="M144.67 75.3922C145.227 78.5424 147.562 86.4608 157.199 91.9381C170.917 98.2758 180.42 106.607 183.603 115.909C183.828 116.52 184.14 117.331 184.431 117.913C184.773 117.349 184.773 117.349 184.775 115.985V100.367C184.769 91.1973 184.254 89.1757 183.603 86.6161C180.42 77.3141 170.917 68.9827 157.199 62.645C146.255 59.1109 143.606 69.3759 144.67 75.3922Z" fill="#42E8E0"/>
<path d="M44.0741 56.6531C58.5979 52.4379 75.7798 50.0649 94.118 50.2152C96.5378 50.2351 98.9342 50.2985 101.304 50.4039C117.407 51.8753 123.134 68.8886 113.425 76.3321C108.969 79.7485 103.598 79.7124 101.304 79.6971C98.9342 79.5917 96.5378 79.5282 94.118 79.5084C75.7798 79.3581 58.5979 81.7311 44.0741 85.9463C29.4094 89.5202 28.543 74.6107 33.6715 65.4906C35.3964 62.4233 38.6012 58.4002 44.0741 56.6531Z" fill="#42E8E0"/>
<path d="M0.240234 122.853C0.640144 118.21 0.955963 114.542 5.68102 108.142C15.642 93.4368 13.6305 76.3463 8.1281 77.1356C7.24115 77.2629 6.31904 78.2193 5.68102 78.8487C2.33688 83.2085 0.436342 87.8966 0.254552 92.7882C0.24499 93.0458 0.240234 93.303 0.240234 93.5596V122.853Z" fill="#42E8E0"/>
</g>
<g opacity="0.11">
<path d="M89.1164 113.363C90.4907 112.569 92.1835 112.568 93.5585 113.361L120.033 128.617C120.45 128.858 120.45 129.46 120.033 129.701L93.338 145.12C92.1251 145.821 90.6308 145.821 89.4179 145.12L62.6817 129.715C62.265 129.474 62.265 128.873 62.6817 128.632L89.1164 113.363Z" fill="url(#paint0_linear_602_5872)"/>
</g>
<g opacity="0.11">
<path d="M89.1164 108.901C90.4907 108.107 92.1835 108.106 93.5585 108.899L120.033 124.155C120.45 124.396 120.45 124.998 120.033 125.239L93.338 140.658C92.1251 141.358 90.6308 141.358 89.4179 140.658L62.6817 125.253C62.265 125.012 62.265 124.41 62.6817 124.17L89.1164 108.901Z" fill="url(#paint1_linear_602_5872)"/>
</g>
<g opacity="0.11">
<path d="M89.1164 104.439C90.4907 103.645 92.1835 103.644 93.5585 104.437L120.033 119.693C120.45 119.934 120.45 120.536 120.033 120.777L93.338 136.196C92.1251 136.897 90.6308 136.897 89.4179 136.196L62.6817 120.791C62.265 120.551 62.265 119.949 62.6817 119.708L89.1164 104.439Z" fill="url(#paint2_linear_602_5872)"/>
</g>
<g opacity="0.11">
<path d="M89.1164 99.9769C90.4907 99.1831 92.1835 99.1823 93.5585 99.9747L120.033 115.231C120.45 115.472 120.45 116.074 120.033 116.315L93.338 131.734C92.1251 132.434 90.6308 132.434 89.4179 131.734L62.6817 116.329C62.265 116.088 62.265 115.487 62.6817 115.246L89.1164 99.9769Z" fill="url(#paint3_linear_602_5872)"/>
</g>
<path opacity="0.11" d="M62.6817 115.246L89.1164 99.9771C90.4906 99.1834 92.1835 99.1825 93.5585 99.9749L120.033 115.232C120.241 115.352 120.346 115.563 120.346 115.773V129.159C120.346 129.37 120.241 129.58 120.033 129.701L93.338 145.12C92.1251 145.82 90.6308 145.82 89.4179 145.12L62.6817 129.715C62.4733 129.595 62.3691 129.384 62.3691 129.173V115.788C62.3691 115.577 62.4733 115.366 62.6817 115.246Z" fill="url(#paint4_linear_602_5872)"/>
<g opacity="0.11">
<path d="M88.6416 89.0363C90.3079 88.0738 92.3606 88.0728 94.0278 89.0336L126.13 107.533C126.635 107.825 126.635 108.555 126.13 108.847L93.7604 127.543C92.2898 128.393 90.4778 128.393 89.0072 127.543L56.588 108.864C56.0826 108.572 56.0826 107.843 56.588 107.551L88.6416 89.0363Z" fill="url(#paint5_linear_602_5872)"/>
</g>
<g opacity="0.11">
<path d="M88.6416 83.6261C90.3079 82.6637 92.3606 82.6626 94.0278 83.6235L126.13 102.123C126.635 102.415 126.635 103.145 126.13 103.437L93.7604 122.133C92.2898 122.983 90.4778 122.983 89.0072 122.133L56.588 103.454C56.0826 103.162 56.0826 102.432 56.588 102.141L88.6416 83.6261Z" fill="url(#paint6_linear_602_5872)"/>
</g>
<g opacity="0.11">
<path d="M88.6416 78.2156C90.3079 77.2531 92.3606 77.2521 94.0278 78.2129L126.13 96.7124C126.635 97.0043 126.635 97.7341 126.13 98.026L93.7604 116.723C92.2898 117.572 90.4778 117.572 89.0072 116.723L56.588 98.0436C56.0826 97.7517 56.0826 97.0219 56.588 96.73L88.6416 78.2156Z" fill="url(#paint7_linear_602_5872)"/>
</g>
<g opacity="0.11">
<path d="M88.6416 72.8053C90.3079 71.8429 92.3606 71.8419 94.0278 72.8026L126.13 91.3021C126.635 91.5941 126.635 92.3238 126.13 92.6157L93.7604 111.312C92.2898 112.162 90.4778 112.162 89.0072 111.312L56.588 92.6333C56.0826 92.3414 56.0826 91.6116 56.588 91.3197L88.6416 72.8053Z" fill="url(#paint8_linear_602_5872)"/>
</g>
<path opacity="0.5" d="M56.588 91.32L88.6416 72.8056C90.3078 71.8431 92.3606 71.8421 94.0278 72.8029L126.13 91.3024C126.382 91.4483 126.509 91.7038 126.509 91.9592V108.19C126.509 108.446 126.382 108.701 126.13 108.847L93.7603 127.544C92.2897 128.393 90.4778 128.393 89.0072 127.544L56.588 108.864C56.3353 108.719 56.209 108.463 56.209 108.208V91.9767C56.2089 91.7214 56.3353 91.4659 56.588 91.32Z" fill="url(#paint9_linear_602_5872)"/>
<g opacity="0.11">
<path d="M88.6416 72.8053C90.3079 71.8429 92.3606 71.8419 94.0278 72.8026L126.13 91.3021C126.635 91.5941 126.635 92.3238 126.13 92.6157L93.7604 111.312C92.2898 112.162 90.4778 112.162 89.0072 111.312L56.588 92.6333C56.0826 92.3414 56.0826 91.6116 56.588 91.3197L88.6416 72.8053Z" fill="url(#paint10_linear_602_5872)"/>
</g>
<path d="M56.5876 91.8859L89.0067 110.565C90.4774 111.415 92.2893 111.415 93.7599 110.565L126.129 91.8684C126.254 91.7963 126.347 91.6974 126.41 91.5852C126.603 91.9277 126.51 92.3958 126.129 92.6156L93.7599 111.312C92.2893 112.162 90.4774 112.162 89.0067 111.312L56.5876 92.6332C56.2069 92.4133 56.1136 91.9453 56.3064 91.6028C56.3696 91.715 56.4629 91.814 56.5876 91.8859Z" fill="url(#paint11_linear_602_5872)"/>
<path opacity="0.2" d="M91.3594 102.225C101.12 102.225 109.033 97.6541 109.033 92.0161C109.033 86.378 101.12 81.8075 91.3594 81.8075C81.5984 81.8075 73.6855 86.378 73.6855 92.0161C73.6855 97.6541 81.5984 102.225 91.3594 102.225Z" fill="#180D5B"/>
<path d="M140.301 110.094C140.301 110.094 139.871 110.542 139.426 111.07C138.98 111.598 137.726 112.333 137.2 112.66C136.674 112.987 134.261 114.816 133.757 116.618C133.253 118.419 134.977 118.657 136.74 118.344C138.503 118.031 140.151 116.404 140.631 115.816C141.111 115.229 142.779 113.895 144.943 112.774C147.107 111.654 145.799 110.147 145.799 110.147L140.301 110.094Z" fill="#160A5B"/>
<path d="M156.369 115.445C156.369 115.445 156.725 116.255 156.826 117.297C156.928 118.338 157.073 120.597 157.127 121.257C157.181 121.918 157.203 123.535 156.041 125.083C154.879 126.63 154.278 127.242 152.733 126.633C151.189 126.024 151.224 123.43 151.497 122.096C151.77 120.762 152.024 117.777 151.996 117.464C151.968 117.151 152.085 116.95 152.085 116.95L156.369 115.445Z" fill="#160A5B"/>
<path d="M134.971 79.4913C134.971 79.4913 135.296 91.3861 138.067 97.7001C138.067 97.7001 140.051 103.261 140.314 109.876C140.314 109.876 139.856 111.014 140.505 111.94C141.155 112.866 145.223 113.714 145.895 110.672C146.567 107.631 146.309 101.939 145.57 99.566C144.831 97.1926 145.833 90.6512 145.833 90.6512C145.833 90.6512 146.945 91.3619 148.403 96.0614C149.86 100.761 150.933 102.554 151.434 103.852C151.935 105.15 152.396 113.115 152.079 117.004C152.079 117.004 155.373 117.472 156.325 115.896C157.278 114.321 157.596 106.171 157.355 103.572C157.113 100.974 156.027 92.6501 156.177 90.0744C156.326 87.4987 156.862 85.4069 156.273 82.8345C155.684 80.262 138.302 74.5465 138.302 74.5465L134.971 79.4913Z" fill="#24126A"/>
<path d="M134.971 79.4913C134.971 79.4913 135.296 91.3861 138.067 97.7001C138.067 97.7001 140.051 103.261 140.314 109.876C140.314 109.876 139.856 111.014 140.505 111.94C141.155 112.866 145.223 113.714 145.895 110.672C146.567 107.631 146.309 101.939 145.57 99.566C144.831 97.1926 145.833 90.6512 145.833 90.6512C145.833 90.6512 146.945 91.3619 148.403 96.0614C149.86 100.761 150.933 102.554 151.434 103.852C151.935 105.15 152.396 113.115 152.079 117.004C152.079 117.004 155.373 117.472 156.325 115.896C157.278 114.321 157.596 106.171 157.355 103.572C157.113 100.974 156.027 92.6501 156.177 90.0744C156.326 87.4987 156.862 85.4069 156.273 82.8345C155.684 80.262 138.302 74.5465 138.302 74.5465L134.971 79.4913Z" fill="url(#paint12_linear_602_5872)"/>
<path d="M156.177 90.0744C156.326 87.4986 156.862 85.4068 156.273 82.8344C156.052 81.8674 153.457 80.4562 150.305 79.0715C144.985 78.5857 138.238 78.0216 137.773 78.0923C137.353 78.1564 136.253 78.5742 135.342 78.94L134.971 79.4912C134.971 79.4912 134.991 80.2146 135.062 81.3958C136.303 81.7671 138.69 81.3837 138.69 81.3837C139.026 82.2185 141.099 85.1847 143.677 86.4649C146.255 87.7451 153.8 87.3059 154.233 87.7925C154.666 88.2792 154.75 94.7911 154.702 95.6191C154.654 96.447 155.413 101.66 156.114 106.269C156.805 110.804 155.754 116.316 155.72 116.493C155.963 116.336 156.175 116.144 156.325 115.896C157.278 114.321 157.596 106.171 157.355 103.572C157.113 100.974 156.027 92.65 156.177 90.0744Z" fill="#160A5B"/>
<path d="M140.789 40.586C140.789 40.586 136.932 41.466 135.635 41.7707C135.42 41.8212 135.246 41.9726 135.165 42.1783C134.791 43.1269 133.851 46.0743 134.559 50.3776C135.429 55.666 135.153 59.2267 135.153 59.2267L133.369 68.5147C133.369 68.5147 131.127 77.3608 131.32 77.6028C131.514 77.8447 136.484 81.6289 138.037 81.096C139.591 80.5631 139.08 79.6836 139.08 79.6836C139.08 79.6836 140.339 86.0944 145.908 86.0329C151.478 85.9714 156.029 85.9893 156.974 83.7366C157.92 81.484 156.716 72.0149 155.733 68.266C154.751 64.517 152.417 57.0438 152.417 57.0438L160.575 48.0101L153.603 42.683C153.603 42.683 151.937 39.5867 151.252 39.1932C150.568 38.7997 150.21 39.1327 150.21 39.1327L140.789 40.586Z" fill="url(#paint13_linear_602_5872)"/>
<path d="M138.133 79.054C138.138 79.3757 137.951 79.8549 136.949 80.1985C135.868 80.5695 133.218 78.958 131.48 77.7448C132.348 78.4662 136.617 81.5835 138.038 81.096C138.346 80.9902 138.571 80.8705 138.737 80.7469C138.418 80.0339 138.23 79.4172 138.133 79.054Z" fill="url(#paint14_linear_602_5872)"/>
<path d="M151.103 39.1158C151.103 39.1158 152.527 40.8398 150.478 43.1669C149.217 44.5993 147.047 47.6882 145.197 50.8959C144.042 52.8993 142.975 53.9676 142.369 55.689C142.369 55.689 142.285 53.6439 142.204 50.4861C142.127 47.506 142.087 44.4092 142.22 43.6294C142.495 42.0231 149.529 38.3346 151.103 39.1158Z" fill="#F0F6FF"/>
<path d="M145.776 44.3019C145.776 44.3019 145.046 44.7556 144.794 44.7179C144.543 44.6803 143.735 43.8951 143.735 43.8951C143.735 43.8951 141.713 43.8585 141.492 42.9919C141.271 42.1253 141.126 41.2516 140.921 40.8013C140.717 40.3511 139.845 38.1891 139.838 37.3118C139.831 36.4346 139.864 34.8674 139.486 34.0379C139.107 33.2083 138.596 24.9063 146.609 25.1404C154.622 25.3744 152.133 33.6985 152.133 33.6985C152.133 33.6985 152.718 33.9478 152.364 35.0195C152.01 36.0911 151.93 36.2019 151.75 36.7337C151.569 37.2655 151.48 37.6064 150.971 38.0384L150.838 39.0257C150.838 39.0257 151.218 40.5333 150.222 41.9984C149.226 43.4636 145.776 44.3019 145.776 44.3019Z" fill="#FCD1C5"/>
<path d="M135.416 41.8665C135.416 41.8665 134.562 41.9936 131.79 48.9707C130.243 52.8638 127.855 56.8955 127.349 59.7891C126.843 62.6825 127.125 65.7756 127.697 65.9933C128.247 66.2029 138.208 69.9317 141.325 71.1087C141.498 71.1737 141.685 71.0657 141.717 70.8844L142.577 66.0718L136.396 63.6827C136.396 63.6827 135.218 62.2433 134.112 61.7032C134.112 61.7032 135.351 59.4186 135.272 58.7949C135.193 58.1712 135.382 51.7173 134.658 49.0909C133.934 46.4645 135.416 41.8665 135.416 41.8665Z" fill="#24126A"/>
<path d="M135.416 41.8665C135.416 41.8665 134.562 41.9936 131.79 48.9707C130.243 52.8638 127.855 56.8955 127.349 59.7891C126.843 62.6825 127.125 65.7756 127.697 65.9933C128.247 66.2029 138.208 69.9317 141.325 71.1087C141.498 71.1737 141.685 71.0657 141.717 70.8844L142.577 66.0718L136.396 63.6827C136.396 63.6827 135.218 62.2433 134.112 61.7032C134.112 61.7032 135.351 59.4186 135.272 58.7949C135.193 58.1712 135.382 51.7173 134.658 49.0909C133.934 46.4645 135.416 41.8665 135.416 41.8665Z" fill="url(#paint15_linear_602_5872)"/>
<path d="M139.036 60.3057C139.036 60.3057 138.185 59.7334 137.974 59.6519C137.764 59.5704 136.625 59.1813 136.408 59.0841C136.247 59.012 135.584 59.0673 135.251 59.1007C135.131 59.1128 135.026 59.1823 134.969 59.2889C134.705 59.777 133.973 61.1974 134.055 61.7397C134.055 61.7397 136.113 63.0405 136.343 63.6207L136.671 63.6914C136.671 63.6914 138.05 60.7331 139.036 60.3057Z" fill="#FCD1C5"/>
<path d="M155.735 68.2658C155.499 67.3639 155.184 66.2456 154.843 65.0684L142.324 70.4368C142.324 70.4368 146.071 75.0465 152.639 74.7506C154.435 74.6697 155.744 74.0216 156.706 73.4646C156.417 71.4148 156.064 69.5199 155.735 68.2658Z" fill="#24126A"/>
<path d="M160.577 48.01C160.577 48.01 157.275 48.4646 154.608 52.6941C151.941 56.9237 149.997 61.8181 149.997 61.8181L149.905 62.3685C149.665 63.8068 148.133 64.6314 146.802 64.0368C143.986 62.7787 139.815 60.8764 139.037 60.3056C139.037 60.3056 136.543 61.6849 135.862 64.944C135.319 67.5431 135.457 67.5511 135.457 67.5511C135.457 67.5511 146.573 72.7417 150.866 72.6907C155.159 72.6398 160.606 58.5185 161.206 55.5997C161.805 52.6809 162.466 48.835 160.577 48.01Z" fill="#24126A"/>
<path d="M160.577 48.01C160.577 48.01 157.275 48.4646 154.608 52.6941C151.941 56.9237 149.997 61.8181 149.997 61.8181L149.905 62.3685C149.665 63.8068 148.133 64.6314 146.802 64.0368C143.986 62.7787 139.815 60.8764 139.037 60.3056C139.037 60.3056 136.543 61.6849 135.862 64.944C135.319 67.5431 135.457 67.5511 135.457 67.5511C135.457 67.5511 146.573 72.7417 150.866 72.6907C155.159 72.6398 160.606 58.5185 161.206 55.5997C161.805 52.6809 162.466 48.835 160.577 48.01Z" fill="url(#paint16_linear_602_5872)"/>
<path d="M148.398 64.6945C148.398 64.6945 149.801 66.0064 150.411 65.288C151.022 64.5697 150.842 64.4899 150.842 64.4899C150.842 64.4899 152.103 64.4785 152.257 63.6875C152.41 62.8965 153.032 63.3147 153.068 62.4335C153.103 61.5522 152.046 61.7329 152.046 61.7329L148.398 64.6945Z" fill="#453C9E"/>
<path d="M146.703 63.9932C146.703 63.9932 147.089 63.6342 147.586 63.2131C148.083 62.7919 148.888 61.0503 149.023 60.8967C149.159 60.743 150.837 59.4559 151.645 59.4335C152.454 59.4112 151.854 60.3167 151.668 60.4443C151.481 60.572 150.692 60.9646 150.692 60.9646C150.692 60.9646 149.88 61.6471 149.787 61.7471C149.695 61.847 152.045 61.5854 152.418 61.8147C152.792 62.044 152.705 62.6447 152.442 62.8083C152.178 62.9718 151.977 62.9659 151.977 62.9659C151.977 62.9659 152.242 63.6735 151.536 64.0018C150.831 64.3301 150.669 64.1476 150.669 64.1476C150.669 64.1476 150.608 65.37 149.444 65.1279L146.703 63.9932Z" fill="#FCD1C5"/>
<path d="M139.306 29.7931C139.306 29.7931 138.26 33.1244 141.014 32.1765C143.767 31.2287 146.258 29.6425 147.122 30.2465C147.78 30.7063 147.75 32.1161 147.698 32.7627C147.681 32.9831 147.738 33.2017 147.864 33.3839L148.68 34.5707C148.772 34.7047 148.826 34.8608 148.838 35.0231L148.896 35.8486C148.911 36.0563 149.077 36.2209 149.285 36.2329L149.473 36.2438C149.683 36.256 149.868 36.1089 149.905 35.9018L150.117 34.689C150.117 34.689 150.765 33.0575 152.135 33.6984C152.135 33.6984 153.051 32.4671 152.746 29.8343C152.442 27.2015 151.263 24.464 146.099 24.026C140.935 23.588 139.306 29.7931 139.306 29.7931Z" fill="#AA8383"/>
<path d="M147.197 47.2341L146.425 46.6344C146.425 46.6344 145.71 47.2286 145.431 47.8585C145.153 48.4885 145.432 50.491 145.432 50.491L145.197 50.8962L144.907 50.3664L144.662 47.9985C144.662 47.9985 144.925 46.2485 144.951 46.2039C144.976 46.1592 146.441 46.3595 146.441 46.3595C146.441 46.3595 146.949 46.7467 147.197 47.2341Z" fill="#C4CCD6"/>
<path d="M143.483 44.8774C143.483 44.8774 142.657 44.9324 142.285 45.2415C142.285 45.2415 143.152 45.2841 143.289 45.2998C143.426 45.3154 143.483 44.8774 143.483 44.8774Z" fill="#C4CCD6"/>
<path d="M145.055 45.0637L146.441 46.3593C146.441 46.3593 145.225 46.9194 144.885 48.0073C144.885 48.0073 143.377 48.2891 143.239 47.7427C143.102 47.1963 143.243 45.82 143.063 45.2096C142.883 44.5992 145.055 45.0637 145.055 45.0637Z" fill="#24126A"/>
<path d="M143.294 47.7114C143.294 47.7114 143.037 48.8463 142.755 49.3146C142.474 49.7828 142.186 50.3078 142.186 50.3078L142.22 56.9598C142.22 56.9598 144.665 51.9169 145.196 50.896C145.196 50.896 145.115 48.4669 144.884 48.0074C144.653 47.5479 143.294 47.7114 143.294 47.7114Z" fill="#24126A"/>
<path d="M149.863 37.8816C148.256 42.5188 143.736 43.895 143.736 43.895C143.736 43.895 144.544 44.6802 144.796 44.7178C145.047 44.7555 145.777 44.3018 145.777 44.3018C145.777 44.3018 149.228 43.4635 150.224 41.9983C151.22 40.5332 150.839 39.0256 150.839 39.0256L150.972 38.0383C150.255 38.2736 149.863 37.8816 149.863 37.8816Z" fill="#E2B1A6"/>
<path d="M153.537 43.3097C153.537 43.3097 152.903 45.4982 152.821 45.5807C152.74 45.6632 151.228 45.4883 151.228 45.4883L151.962 46.8795C151.962 46.8795 144.354 55.0419 142.777 59.4324C142.777 59.4324 146.377 53.8672 152.713 47.2212L151.817 45.8635L153.372 46.1672L153.537 43.3097Z" fill="#24126A"/>
<path d="M141.041 41.3773L140.637 41.8385L141.111 42.2814L139.705 43.5535C139.705 43.5535 139.275 52.4816 140.992 58.3961C140.992 58.3961 138.66 52.971 139.189 43.3101L140.712 42.2774L140.214 41.787L141.041 41.3773Z" fill="#24126A"/>
<path d="M145.834 90.6512C145.834 90.6512 145.853 90.6629 145.887 90.6926L143.916 88.5939C144.826 89.8774 143.778 95.7545 143.669 97.0998C143.561 98.4451 144.722 101.224 145.156 104.48C145.59 107.731 144.701 112.372 144.698 112.386C145.262 112.059 145.71 111.516 145.896 110.672C146.569 107.631 146.31 101.939 145.571 99.5659C144.833 97.1925 145.834 90.6512 145.834 90.6512Z" fill="#160A5B"/>
<path d="M149.473 36.2439C149.682 36.2561 149.868 36.109 149.904 35.9019L150.117 34.6891C150.117 34.6891 150.765 33.0576 152.134 33.6985C152.134 33.6985 152.998 32.5289 152.765 30.0409C151.242 32.3279 147.863 33.384 147.863 33.384L148.679 34.5708C148.771 34.7048 148.826 34.8609 148.837 35.0231L148.896 35.8487C148.91 36.0564 149.077 36.221 149.285 36.233L149.473 36.2439Z" fill="#936D6D"/>
<path d="M31.4977 148.743C31.4977 148.743 33.2631 149.178 34.9727 149.245C36.6826 149.312 41.3297 150.245 41.2144 151.98C41.0983 153.725 38.6697 156.228 35.6272 156.598C32.5808 156.969 28.6652 156.092 26.6759 156.146C24.6865 156.2 23.3268 154.171 24.1057 152.227C24.8797 150.296 31.4977 148.743 31.4977 148.743Z" fill="#160A5B"/>
<path d="M21.2406 144.077C21.2406 144.077 20.5895 145.127 20.9081 145.769C21.2276 146.414 22.0795 148.015 24.8623 146.465C27.6311 144.923 32.9792 142.716 32.9792 142.716C32.9792 142.716 36.0444 141.084 35.8767 139.159C35.7102 137.246 32.8891 137.531 32.8891 137.531L21.2406 144.077Z" fill="#160A5B"/>
<path d="M39.3 116.77C39.3 116.77 38.1184 129.274 35.6065 134.014C33.0538 138.83 32.3495 147.653 31.8167 149.337C31.2809 151.031 29.6281 153.465 27.0223 153.981C24.412 154.499 23.9862 152.724 24.1152 151.658C24.2435 150.596 24.9668 148.878 24.9763 147.725C24.9857 146.577 24.7187 146.04 24.6787 145.512C24.6787 145.512 21.6934 146.392 21.2398 144.077C21.2398 144.077 21.4816 143.404 21.5214 143.06C21.5612 142.715 21.2666 134.344 21.194 133.33C21.1214 132.319 21.6672 126.847 22.4964 124.15C23.3182 121.477 23.0451 115.79 23.0451 115.79L31.5438 114.605L39.3 116.77Z" fill="#24126A"/>
<path d="M39.3 116.77C39.3 116.77 38.1184 129.274 35.6065 134.014C33.0538 138.83 32.3495 147.653 31.8167 149.337C31.2809 151.031 29.6281 153.465 27.0223 153.981C24.412 154.499 23.9862 152.724 24.1152 151.658C24.2435 150.596 24.9668 148.878 24.9763 147.725C24.9857 146.577 24.7187 146.04 24.6787 145.512C24.6787 145.512 21.6934 146.392 21.2398 144.077C21.2398 144.077 21.4816 143.404 21.5214 143.06C21.5612 142.715 21.2666 134.344 21.194 133.33C21.1214 132.319 21.6672 126.847 22.4964 124.15C23.3182 121.477 23.0451 115.79 23.0451 115.79L31.5438 114.605L39.3 116.77Z" fill="url(#paint17_linear_602_5872)"/>
<path d="M25.5629 116.697C25.5629 116.697 25.5982 118.648 26.4112 120.29C26.4112 120.29 26.3949 126.935 27.0771 130.301C27.0771 130.301 25.9773 137.059 25.2842 139.188C24.5863 141.332 24.6795 145.512 24.6795 145.512C24.6795 145.512 24.3399 145.638 23.8528 145.656C23.3656 145.673 23.3312 137.395 24.0791 135.934C24.8232 134.481 25.3875 128.028 25.1065 126.061C24.8273 124.108 24.9233 118.516 24.5538 117.529C24.1858 116.545 25.0173 116.023 25.0173 116.023L25.5629 116.697Z" fill="#160A5B"/>
<path d="M32.7168 71.5891C32.7168 71.5891 35.1853 73.3756 35.0607 76.4615L33.2262 76.0664C33.2262 76.0664 33.7717 72.6503 32.7168 71.5891Z" fill="#160A5B"/>
<path d="M31.7549 119.42C26.1215 119.593 23.0817 117.096 23.0817 117.096C23.0696 116.306 23.0449 115.79 23.0449 115.79L31.5436 114.605L39.2998 116.77C39.2998 116.77 39.0662 119.236 38.5864 122.393C37.2046 122.542 35.8479 119.147 35.8479 119.147L31.9838 119.392C31.9838 119.392 37.3851 119.248 31.7549 119.42Z" fill="#160A5B"/>
<path d="M38.2139 116.956C38.2139 116.956 25.9659 121.958 20.045 112.47C19.8766 112.2 19.7982 111.87 19.8095 111.537L19.8847 109.326C19.8943 109.045 19.8539 108.766 19.7662 108.506C19.5764 107.944 19.5339 107.334 19.6442 106.74C20.1028 104.269 21.3443 97.5505 21.6355 95.6858C21.9906 93.4124 20.7857 84.3108 18.7539 80.3696C16.7514 76.4848 21.8945 67.7475 21.8945 67.7475C21.8945 67.7475 23.1557 65.7076 25.6263 66.4069C25.6263 66.4069 23.2698 68.0554 24.5597 69.7962C25.8581 71.5487 29.7295 72.9476 29.7295 72.9476C29.7295 72.9476 36.8888 76.6642 39.3392 81.1863C39.3392 81.1863 40.1816 83.5377 40.256 86.5125C40.3313 89.5197 39.9988 96.7385 40.1242 97.7416C40.2498 98.748 40.6306 105.626 40.5904 105.947C40.5502 106.269 38.2139 116.956 38.2139 116.956Z" fill="#453C9E"/>
<path d="M38.2139 116.956C38.2139 116.956 25.9659 121.958 20.045 112.47C19.8766 112.2 19.7982 111.87 19.8095 111.537L19.8847 109.326C19.8943 109.045 19.8539 108.766 19.7662 108.506C19.5764 107.944 19.5339 107.334 19.6442 106.74C20.1028 104.269 21.3443 97.5505 21.6355 95.6858C21.9906 93.4124 20.7857 84.3108 18.7539 80.3696C16.7514 76.4848 21.8945 67.7475 21.8945 67.7475C21.8945 67.7475 23.1557 65.7076 25.6263 66.4069C25.6263 66.4069 23.2698 68.0554 24.5597 69.7962C25.8581 71.5487 29.7295 72.9476 29.7295 72.9476C29.7295 72.9476 36.8888 76.6642 39.3392 81.1863C39.3392 81.1863 40.1816 83.5377 40.256 86.5125C40.3313 89.5197 39.9988 96.7385 40.1242 97.7416C40.2498 98.748 40.6306 105.626 40.5904 105.947C40.5502 106.269 38.2139 116.956 38.2139 116.956Z" fill="url(#paint18_linear_602_5872)"/>
<path d="M24.473 67.6685C24.2778 67.1736 24.3366 66.6987 24.517 66.2819C24.8572 66.2701 25.2184 66.2921 25.6253 66.4073C25.6253 66.4073 24.8979 66.9175 24.473 67.6685Z" fill="url(#paint19_linear_602_5872)"/>
<path d="M34.5009 117.978C34.5009 117.978 27.2882 98.4933 27.631 91.4206C27.9652 84.5245 38.1599 105.392 38.1599 105.392L38.2128 116.956C38.2128 116.956 35.9006 117.809 34.5009 117.978Z" fill="#24126A"/>
<path d="M38.3939 94.9585C38.1328 93.3692 37.9805 91.7735 37.9625 90.1798C37.9312 87.4083 37.1524 82.8115 32.1402 83.6098C25.0552 84.7385 28.0863 94.6678 28.8631 96.4019C29.6447 98.1471 32.7442 106.012 32.9074 106.459C33.061 106.879 37.9598 116.697 39.7095 119.051C39.8697 119.267 40.1509 119.3 40.3477 119.132C41.0571 118.528 42.6514 117.087 42.8596 116.176C43.1275 115.005 42.1044 110.756 42.1044 110.756C42.1044 110.756 39.3443 100.143 39.112 99.6485C38.938 99.2786 38.8171 97.535 38.3939 94.9585Z" fill="#4846A5"/>
<path d="M32.5941 71.8132C32.5941 71.8132 33.1566 70.5327 34.4568 70.4003C35.7564 70.2679 36.4938 69.9069 36.6246 69.4252C36.7551 68.9446 36.7616 68.3625 37.0762 67.6456C37.3903 66.9308 37.6562 65.1737 37.6514 65.1312C37.6466 65.0888 38.6336 64.7919 38.6817 64.3569C38.7297 63.9229 38.2182 62.3711 38.274 62.2514C38.3299 62.1316 38.8598 61.1809 38.7883 60.4408C38.717 59.7029 38.6212 58.6339 38.227 57.7276C37.8341 56.8245 35.0808 51.3273 27.9158 54.1589C20.6712 57.0218 26.1815 63.102 25.465 67.044C25.465 67.044 24.8208 67.8739 26.0014 69.2847C27.1882 70.7031 30.6176 71.0102 32.5941 71.8132Z" fill="#FCD1C5"/>
<path d="M26.0028 69.2848C24.8222 67.874 25.4664 67.0441 25.4664 67.0441C25.566 66.4962 25.5423 65.9054 25.4518 65.2883L28.2873 65.8296C28.2873 65.8296 32.4739 62.1039 32.1768 64.0988C31.8774 66.1091 32.894 66.4555 32.894 66.4555L32.0354 67.5493C31.8149 67.8302 31.9455 68.1603 32.1252 68.4695C33.3198 70.5255 36.222 69.9075 36.2285 69.9081C35.8666 70.1444 35.2731 70.3173 34.4583 70.4003C33.1581 70.5328 32.5956 71.8133 32.5956 71.8133C30.6191 71.0103 27.1897 70.7031 26.0028 69.2848Z" fill="#E2B1A6"/>
<path d="M38.5363 55.638C38.5363 55.638 39.0374 57.1087 38.227 57.7275C37.4147 58.3477 36.6794 58.9327 36.6794 58.9327L36.6831 60.7981C36.6836 61.0671 36.6062 61.3304 36.4606 61.5552L35.4389 63.1304C35.2416 63.4347 35.1352 63.7915 35.1328 64.1577L35.1281 64.9206C35.1266 65.1447 34.9616 65.3321 34.744 65.3566L34.4757 65.3866C34.2389 65.4132 34.0262 65.2379 34.0007 64.9954L33.8891 63.9358C33.8891 63.9358 33.3535 63.084 32.1753 64.0987L31.1183 64.5327C30.8232 64.6541 30.5908 64.8955 30.4798 65.2012C30.1835 66.0168 29.5495 67.6273 29.0757 67.8945C28.435 68.2561 25.9564 66.9744 25.6251 66.407C25.2946 65.841 24.459 62.0609 23.9408 60.259C23.4262 58.4694 23.7288 54.0411 29.0668 52.9102C34.3816 51.7845 37.8028 54.0365 38.5363 55.638Z" fill="#AA8383"/>
<path d="M25.6257 66.4071C25.2952 65.8411 24.4596 62.061 23.9414 60.2591C23.9414 60.2591 26.0062 61.635 28.685 62.044C31.368 62.4535 36.681 59.4308 36.681 59.4308L36.6837 60.7982C36.6842 61.0672 36.6068 61.3305 36.4612 61.5552L35.4395 63.1304C35.2422 63.4348 35.1358 63.7916 35.1334 64.1577L35.1287 64.9207C35.1272 65.1448 34.9622 65.3322 34.7446 65.3566L34.4763 65.3867C34.2396 65.4132 34.0268 65.2379 34.0013 64.9954L33.8897 63.9358C33.8897 63.9358 33.3541 63.0841 32.176 64.0988L30.6468 64.7268C30.6468 64.7268 29.7163 67.5335 29.0763 67.8946C28.4356 68.2562 25.957 66.9745 25.6257 66.4071Z" fill="#936D6D"/>
<path d="M25.5193 66.5862C25.5193 66.5862 23.4439 67.8651 24.4785 69.6793C25.5201 71.5062 33.0432 74.7499 33.4151 75.2301C33.4151 75.2301 33.7118 72.5085 32.7151 71.5892C32.7151 71.5892 26.9544 70.4664 26.0596 68.9948C25.17 67.5312 25.5193 66.5862 25.5193 66.5862Z" fill="#F0F6FF"/>
<path d="M25.5193 66.5862C25.5193 66.5862 25.17 67.5312 26.0596 68.9948C26.7365 70.108 30.1975 71.0214 31.8437 71.4004C31.8437 71.4004 31.2318 71.7475 30.2084 73.4912C27.8943 72.2903 25.0861 70.7451 24.4785 69.6793C23.4439 67.8651 25.5193 66.5862 25.5193 66.5862Z" fill="#C4CCD6"/>
<path d="M24.1191 72.3915C24.1191 72.3915 27.4707 74.3132 29.1036 75.181C30.7418 76.0518 32.5279 77.2086 32.5279 77.2086L33.1551 76.5827L33.9074 78.2374C33.9074 78.2374 36.4806 79.7841 37.6849 81.0729C38.8949 82.3678 39.807 84.0583 39.9373 84.4438C39.9373 84.4438 36.7239 80.2272 34.1921 78.9745L33.5112 78.6305L33.1259 77.3201L32.5042 77.9781C32.5042 77.9781 25.1403 73.5353 24.1191 72.3915Z" fill="#24126A"/>
<path d="M32.7602 129.282L32.7598 129.28L32.7609 129.28C32.8662 128.979 33.0229 128.715 33.209 128.559L46.9958 116.979C47.3585 116.674 47.7097 116.907 47.7805 117.499L49.3926 130.981C49.4669 131.603 49.2262 132.368 48.8547 132.69L37.276 142.706L37.6768 146.605L34.2156 145.011L34.2149 145.003C34.0595 144.906 33.9448 144.681 33.9141 144.344L32.6268 130.253C32.5981 129.94 32.652 129.591 32.7602 129.282Z" fill="#453C9E"/>
<path d="M50.7504 118.309L47.4915 116.899L47.3871 116.854C47.268 116.826 47.1326 116.864 46.9956 116.979L33.2089 128.559C33.0226 128.715 32.8651 128.979 32.7598 129.28L33.2529 129.518L36.0602 130.875L48.1438 120.539L50.7504 118.309Z" fill="#453C9E"/>
<path d="M52.2488 134.2L38.151 146.488C37.7645 146.825 37.3994 146.568 37.3361 145.915L35.9658 131.752C35.9056 131.13 36.1628 130.368 36.5399 130.049L50.2952 118.411C50.657 118.105 51.0104 118.338 51.0848 118.934L52.7783 132.483C52.8564 133.108 52.6195 133.877 52.2488 134.2Z" fill="#24126A"/>
<path d="M52.2488 134.2L38.151 146.488C37.7645 146.825 37.3994 146.568 37.3361 145.915L35.9658 131.752C35.9056 131.13 36.1628 130.368 36.5399 130.049L50.2952 118.411C50.657 118.105 51.0104 118.338 51.0848 118.934L52.7783 132.483C52.8564 133.108 52.6195 133.877 52.2488 134.2Z" fill="url(#paint20_linear_602_5872)"/>
<path d="M35.584 145.086L34.2563 130.961C34.1981 130.341 34.4571 129.581 34.8345 129.263L48.6054 117.656C48.7178 117.561 48.8292 117.518 48.9315 117.522C48.8007 117.467 48.6464 117.498 48.4902 117.63L34.7176 129.236C34.3401 129.554 34.0809 130.314 34.139 130.935L35.4638 145.058C35.506 145.507 35.6807 145.786 35.9193 145.795C35.7401 145.716 35.6187 145.456 35.584 145.086Z" fill="#160A5B"/>
<path d="M40.6301 124.29L39.9095 123.93C39.7463 123.849 39.5916 123.821 39.4602 123.85L39.4023 123.863C39.3305 123.878 39.2933 123.956 39.3048 124.066L39.3183 124.197L41.348 125.212L41.3339 125.08C41.3222 124.97 41.2632 124.844 41.1797 124.751L41.1124 124.675C40.9596 124.504 40.7935 124.372 40.6301 124.29Z" fill="#160A5B"/>
<path d="M40.374 126.035L41.348 125.212L39.3353 123.907L38.375 124.711L40.374 126.035Z" fill="#160A5B"/>
<path d="M39.6569 125.111L38.936 124.75C38.7727 124.668 38.6178 124.64 38.4862 124.669L38.4282 124.682C38.3564 124.698 38.3188 124.776 38.3301 124.886L38.3435 125.018L40.3743 126.035L40.3604 125.903C40.3488 125.792 40.29 125.666 40.2066 125.573L40.1392 125.497C39.9866 125.326 39.8204 125.193 39.6569 125.111Z" fill="url(#paint21_linear_602_5872)"/>
<path d="M39.2237 125.459L39.1621 124.863L39.2235 124.894L39.2852 125.49L39.2237 125.459Z" fill="#722318"/>
<path d="M39.1641 124.864L40.1652 124.058L40.2175 124.084L39.2255 124.895L39.1641 124.864Z" fill="#722318"/>
<path d="M45.0105 120.606L44.2918 120.251C44.1289 120.17 43.9749 120.143 43.8447 120.172L43.7873 120.184C43.716 120.2 43.6796 120.276 43.6917 120.385L43.7062 120.514L45.7306 121.516L45.7157 121.386C45.7032 121.278 45.6438 121.153 45.56 121.061L45.4926 120.987C45.3395 120.818 45.1733 120.687 45.0105 120.606Z" fill="#160A5B"/>
<path d="M44.7678 122.329L45.7293 121.516L43.7197 120.228L42.7715 121.022L44.7678 122.329Z" fill="#160A5B"/>
<path d="M44.049 121.416L43.3299 121.06C43.1671 120.979 43.0129 120.952 42.8824 120.981L42.8248 120.993C42.7534 121.009 42.7169 121.086 42.7288 121.195L42.7431 121.324L44.7688 122.329L44.754 122.199C44.7415 122.09 44.6823 121.965 44.5986 121.873L44.5312 121.798C44.3782 121.629 44.212 121.497 44.049 121.416Z" fill="url(#paint22_linear_602_5872)"/>
<path d="M43.6222 121.761L43.5566 121.172L43.618 121.203L43.6837 121.791L43.6222 121.761Z" fill="#722318"/>
<path d="M43.5566 121.173L44.5455 120.377L44.5977 120.403L43.6179 121.203L43.5566 121.173Z" fill="#722318"/>
<path d="M38.7764 122.04L39.0359 124.555L39.6879 124.006L39.4329 121.564C39.3958 121.208 39.5705 120.748 39.8229 120.537L42.6299 118.189C42.8802 117.98 43.1147 118.096 43.1541 118.448L43.4231 120.864L44.067 120.323L43.7879 117.844C43.7006 117.069 43.1834 116.814 42.6318 117.275L39.6393 119.774C39.082 120.239 38.6952 121.253 38.7764 122.04Z" fill="#453C9E"/>
<path d="M43.6127 118.02L42.4564 117.903L39.1131 121.022L38.9688 122.947L39.0358 124.555L39.7842 124.93L39.8072 122.924L39.8473 121.554L40.5406 120.563C40.5406 120.563 41.7941 119.549 41.807 119.521C41.8197 119.492 43.6127 118.02 43.6127 118.02Z" fill="#453C9E"/>
<path d="M44.1695 121.234L43.423 120.864L43.2246 119.084L43.9373 119.14L44.1483 119.177L44.1695 121.234Z" fill="#453C9E"/>
<path d="M44.1425 117.471L43.3398 117.077C43.3398 117.077 43.5511 117.515 43.5547 117.512C43.5584 117.51 43.819 117.605 43.8234 117.605C43.8278 117.604 44.1425 117.471 44.1425 117.471Z" fill="#453C9E"/>
<path d="M39.5208 122.412L39.7837 124.93L40.4356 124.38L40.1772 121.935C40.1396 121.578 40.3138 121.118 40.5662 120.906L43.3719 118.556C43.6221 118.346 43.857 118.462 43.8965 118.815L44.1691 121.234L44.8126 120.692L44.5302 118.211C44.4418 117.434 43.9241 117.179 43.3727 117.64L40.3814 120.143C39.8243 120.608 39.4386 121.624 39.5208 122.412Z" fill="#160A5B"/>
<path d="M42.6606 116.074C42.6606 116.074 43.1364 118.533 43.0021 119.15C42.8675 119.768 41.692 120.958 40.9839 121.177C40.2752 121.395 40.5643 120.55 40.4048 120.019C40.2456 119.489 40.2733 118.334 40.2733 118.334L42.6606 116.074Z" fill="#FCD1C5"/>
<path d="M40.2732 118.334L42.6605 116.074C42.6605 116.074 42.7579 116.578 42.8521 117.186C42.8503 117.19 41.9646 119.016 40.3447 119.738C40.2538 119.162 40.2732 118.334 40.2732 118.334Z" fill="#E2B1A6"/>
<path d="M42.8382 116.258C42.8382 116.258 41.9921 118.905 39.8711 119.156L40.5911 116.257C40.5911 116.257 42.383 115.751 42.4377 115.745C42.4924 115.738 42.8382 116.258 42.8382 116.258Z" fill="#4846A5"/>
<path d="M69.3872 76.7065C67.1148 79.0278 61.1315 82.1309 59.2769 80.3137C57.4222 78.4965 60.3985 72.4472 62.6709 70.1258C64.9433 67.8044 68.289 67.3957 70.1436 69.2129C71.9983 71.0301 71.6597 74.3851 69.3872 76.7065Z" fill="url(#paint23_radial_602_5872)"/>
<path d="M69.3872 76.7065C67.1148 79.0278 61.1315 82.1309 59.2769 80.3137C57.4222 78.4965 60.3985 72.4472 62.6709 70.1258C64.9433 67.8044 68.289 67.3957 70.1436 69.2129C71.9983 71.0301 71.6597 74.3851 69.3872 76.7065Z" fill="url(#paint24_linear_602_5872)"/>
<path d="M69.6524 70.4054C69.5118 70.4054 69.3691 70.378 69.2314 70.3204C68.6748 70.0876 68.4127 69.4474 68.6454 68.8908L72.0202 60.8225C72.2526 60.2661 72.8925 60.0034 73.4491 60.2365C74.0057 60.4693 74.2678 61.1095 74.0351 61.6663L70.6604 69.7341C70.4852 70.1531 70.0796 70.4054 69.6524 70.4054Z" fill="#42E8E0"/>
<path d="M112.527 67.4532L110.502 68.2731L117.497 85.5639L119.522 84.744L112.527 67.4532Z" fill="#42E8E0"/>
<path d="M75.2553 63.9023C79.0035 63.9023 82.0419 60.8625 82.0419 57.1127C82.0419 53.3629 79.0035 50.3231 75.2553 50.3231C71.5072 50.3231 68.4688 53.3629 68.4688 57.1127C68.4688 60.8625 71.5072 63.9023 75.2553 63.9023Z" fill="url(#paint25_radial_602_5872)"/>
<path d="M75.2553 63.9024C79.0035 63.9024 82.0419 60.8625 82.0419 57.1127C82.0419 53.3629 79.0035 50.3231 75.2553 50.3231C71.5072 50.3231 68.4688 53.3629 68.4688 57.1127C68.4688 60.8625 71.5072 63.9024 75.2553 63.9024Z" fill="url(#paint26_linear_602_5872)"/>
<path d="M109.099 69.4417C109.099 82.6215 101.254 93.3058 91.5771 93.3058C81.8998 93.3058 74.0547 82.6215 74.0547 69.4417C74.0547 56.262 81.8998 52.3125 91.5771 52.3125C101.254 52.3125 109.099 56.262 109.099 69.4417Z" fill="url(#paint27_radial_602_5872)"/>
<path d="M109.099 69.4417C109.099 82.6215 101.254 93.3058 91.5771 93.3058C81.8998 93.3058 74.0547 82.6215 74.0547 69.4417C74.0547 56.262 81.8998 52.3125 91.5771 52.3125C101.254 52.3125 109.099 56.262 109.099 69.4417Z" fill="url(#paint28_linear_602_5872)"/>
<path d="M91.5779 66.3061C98.1825 66.3061 103.537 63.2135 103.537 59.3987C103.537 55.5838 98.1825 52.4912 91.5779 52.4912C84.9732 52.4912 79.6191 55.5838 79.6191 59.3987C79.6191 63.2135 84.9732 66.3061 91.5779 66.3061Z" fill="#393091"/>
<path d="M83.1194 56.3543C87.7896 53.6568 95.3614 53.6569 100.032 56.3544C101.961 57.4687 103.091 58.869 103.426 60.3188C103.903 58.2585 102.773 56.0978 100.032 54.5144C95.3614 51.8169 87.7896 51.8168 83.1194 54.5143C80.3783 56.0975 79.2485 58.2581 79.7252 60.3185C80.0607 58.8687 81.1905 57.4684 83.1194 56.3543Z" fill="#42E8E0"/>
<path d="M77.7734 42.9842L79.9369 39.2551C81.2094 37.9342 82.2265 36.1806 82.7431 34.4178L84.934 30.6411L81.783 28.8313C81.6822 28.7629 81.5769 28.7019 81.4668 28.6496L81.4649 28.6486V28.6486C80.5689 28.2243 79.3782 28.3378 78.0713 29.0927C75.2856 30.7018 73.0273 34.6148 73.0273 37.8328C73.0273 39.4409 73.5913 40.571 74.5032 41.0986V41.0986L74.5046 41.0995L74.5048 41.0996L77.7734 42.9842Z" fill="url(#paint29_radial_602_5872)"/>
<path d="M84.8813 38.8508C86.8512 35.4376 86.8512 31.7484 84.8815 30.6106C82.9118 29.4728 79.7182 31.3173 77.7483 34.7305C75.7785 38.1436 75.7784 41.8329 77.7481 42.9707C79.7178 44.1085 82.9115 42.2639 84.8813 38.8508Z" fill="#BCBEFF"/>
<path d="M92.2715 60.791C102.141 60.791 110.143 52.7862 110.143 42.9119C110.143 33.0376 102.141 25.0328 92.2715 25.0328C82.4016 25.0328 74.4004 33.0376 74.4004 42.9119C74.4004 52.7862 82.4016 60.791 92.2715 60.791Z" fill="url(#paint30_radial_602_5872)"/>
<path d="M92.2715 60.791C102.141 60.791 110.143 52.7862 110.143 42.9119C110.143 33.0376 102.141 25.0328 92.2715 25.0328C82.4016 25.0328 74.4004 33.0376 74.4004 42.9119C74.4004 52.7862 82.4016 60.791 92.2715 60.791Z" fill="url(#paint31_linear_602_5872)"/>
<path d="M102.273 55.0028L104.437 51.2736C105.709 49.9528 106.727 48.1992 107.243 46.4363L109.434 42.6597L106.283 40.8498C106.182 40.7815 106.077 40.7204 105.967 40.6681L105.965 40.6671V40.6672C105.069 40.2428 103.878 40.3564 102.571 41.1113C99.7855 42.7203 97.5273 46.6334 97.5273 49.8513C97.5273 51.4594 98.0913 52.5896 99.0032 53.1172L99.0031 53.1172L99.0045 53.118C99.0045 53.118 99.0047 53.1181 99.0047 53.1182L102.273 55.0028Z" fill="url(#paint32_radial_602_5872)"/>
<path d="M102.273 55.0028L104.437 51.2736C105.709 49.9528 106.727 48.1992 107.243 46.4363L109.434 42.6597L106.283 40.8498C106.182 40.7815 106.077 40.7204 105.967 40.6681L105.965 40.6671V40.6672C105.069 40.2428 103.878 40.3564 102.571 41.1113C99.7855 42.7203 97.5273 46.6334 97.5273 49.8513C97.5273 51.4594 98.0913 52.5896 99.0032 53.1172L99.0031 53.1172L99.0045 53.118C99.0045 53.118 99.0047 53.1181 99.0047 53.1182L102.273 55.0028Z" fill="url(#paint33_linear_602_5872)"/>
<path d="M110.859 45.8961C110.859 49.1141 108.601 53.0272 105.815 54.6362C103.03 56.2453 100.771 54.9409 100.771 51.7229C100.771 48.505 103.03 44.592 105.815 42.9829C108.601 41.3739 110.859 42.6782 110.859 45.8961Z" fill="#BCBEFF"/>
<path d="M101.003 51.764C101.003 48.546 103.261 44.633 106.047 43.0239C107.012 42.4664 107.914 42.2592 108.68 42.3597C107.867 42.1796 106.88 42.3677 105.815 42.9825C103.03 44.5915 100.771 48.5046 100.771 51.7226C100.771 53.8256 101.736 55.1107 103.182 55.3001C101.866 55.0088 101.003 53.7524 101.003 51.764Z" fill="white"/>
<path d="M108.365 50.2819C109.773 47.8422 109.773 45.2051 108.365 44.3918C106.957 43.5785 104.674 44.897 103.266 47.3368C101.858 49.7765 101.858 52.4136 103.266 53.2269C104.674 54.0401 106.957 52.7216 108.365 50.2819Z" fill="#393091"/>
<path d="M107.889 44.205C108.262 44.6453 108.479 45.3039 108.479 46.1474C108.479 48.4476 106.865 51.2446 104.874 52.3948C104.103 52.8403 103.389 52.9721 102.803 52.8343C103.447 53.5948 104.556 53.7026 105.817 52.9742C107.808 51.8241 109.423 49.027 109.423 46.7268C109.423 45.3174 108.816 44.4229 107.889 44.205Z" fill="#453C9E"/>
<path d="M84.6201 54.7394C86.9337 53.7759 87.457 49.7449 85.7889 45.736C84.1209 41.727 80.8932 39.2581 78.5797 40.2216C76.2661 41.185 75.7428 45.216 77.4108 49.225C79.0789 53.2339 82.3066 55.7028 84.6201 54.7394Z" fill="#393091"/>
<path d="M84.3724 48.3357C84.2064 49.6135 83.2425 50.0149 82.2193 49.2322C81.1961 48.4495 80.5011 46.7792 80.6671 45.5014C80.833 44.2236 81.7969 43.8222 82.8201 44.6049C83.8433 45.3875 84.5383 47.0579 84.3724 48.3357Z" fill="#42E8E0"/>
<path d="M82.1238 53.3339C79.3084 51.1803 77.3962 46.5842 77.8527 43.0682C78.0389 41.6349 78.5901 40.6026 79.3684 40.0282C77.8965 40.1667 76.7821 41.4155 76.501 43.5807C76.0444 47.0967 77.9566 51.6928 80.772 53.8464C82.4397 55.122 84.0499 55.2542 85.1807 54.4196C84.2625 54.506 83.2054 54.1613 82.1238 53.3339Z" fill="#453C9E"/>
<path d="M81.0144 53.7322C78.199 51.5786 76.2868 46.9825 76.7433 43.4665C76.9547 41.8388 77.6371 40.7293 78.5881 40.2197C77.5113 40.663 76.7299 41.8182 76.501 43.5809C76.0444 47.097 77.9566 51.6931 80.772 53.8466C82.2835 55.0029 83.7466 55.2168 84.8495 54.6258C83.779 55.0664 82.4176 54.8056 81.0144 53.7322Z" fill="#42E8E0"/>
<path d="M118.174 69.1818C117.446 72.8602 113.875 75.2517 110.198 74.5234C106.522 73.7951 104.131 70.2228 104.859 66.5444C105.587 62.866 109.158 60.4745 112.834 61.2027C116.511 61.931 118.902 65.5034 118.174 69.1818Z" fill="url(#paint34_radial_602_5872)"/>
<path d="M118.174 69.1818C117.446 72.8602 113.875 75.2517 110.198 74.5234C106.522 73.7951 104.131 70.2228 104.859 66.5444C105.587 62.866 109.158 60.4745 112.834 61.2027C116.511 61.931 118.902 65.5034 118.174 69.1818Z" fill="url(#paint35_linear_602_5872)"/>
<path d="M122.339 90.3587C121.955 93.5849 119.106 99.6957 116.529 99.388C113.951 99.0803 112.62 92.4706 113.005 89.2444C113.39 86.018 115.791 83.6521 118.369 83.9598C120.947 84.2674 122.724 87.1323 122.339 90.3587Z" fill="url(#paint36_radial_602_5872)"/>
<path d="M122.339 90.3587C121.955 93.5849 119.106 99.6957 116.529 99.388C113.951 99.0803 112.62 92.4706 113.005 89.2444C113.39 86.018 115.791 83.6521 118.369 83.9598C120.947 84.2674 122.724 87.1323 122.339 90.3587Z" fill="url(#paint37_linear_602_5872)"/>
<g opacity="0.5">
<path d="M10.9659 131.44C10.2973 136.817 7.51037 140.017 4.5802 136.011C0.823401 130.874 0.458353 125.853 0.240234 122.853V93.5596C0.240234 98.1423 1.76054 102.564 4.5802 106.717C10.7732 116.966 11.5081 127.08 10.9659 131.44Z" fill="#42E8E0"/>
<path d="M97.8931 136.809C95.582 136.871 93.2487 136.893 90.8964 136.874C72.4869 136.723 55.431 134.05 41.1959 129.568C26.9767 125.767 26.1175 140.653 31.0803 149.846C34.614 156.393 39.3958 158.186 41.1959 158.861C55.431 163.343 72.4869 166.016 90.8964 166.167C93.2487 166.186 95.582 166.164 97.8931 166.102C114.6 164.87 118.976 148.816 111.168 141.324C108.988 139.232 104.917 136.752 97.8931 136.809Z" fill="#42E8E0"/>
<path d="M184.76 113.453C184.679 126.12 183.935 128.426 182.994 131.345C179.081 140.583 168.932 148.743 154.725 154.839C142.287 158.51 138.852 145.58 143.91 135.993C147.352 129.471 152.708 126.619 154.725 125.545C168.932 119.45 179.081 111.289 182.994 102.052C183.281 101.439 183.686 100.626 184.069 100.068C184.165 100.056 184.292 100.039 184.388 100.027C184.628 100.704 184.728 100.984 184.76 104.442V113.453V113.453Z" fill="#42E8E0"/>
</g>
<path d="M32.7645 30.0524L6.18262 14.6985C5.69285 14.4156 5.24518 14.3945 4.8987 14.5861L4.8985 14.5843L3.77734 15.2291L4.32221 15.3484C4.2412 15.5906 4.19481 15.8753 4.19481 16.2019V28.6147C4.19481 30.0792 5.08479 31.7804 6.18262 32.4145L16.9541 38.6362L19.0762 44.7647L18.293 46.5873L19.4736 45.9124L21.9931 41.5467L32.7645 47.7684C32.8371 47.8104 32.9087 47.8457 32.9793 47.8764L32.9784 47.8764L32.8122 48.586L33.9855 47.9145L33.9788 47.9143C34.4487 47.7007 34.7524 47.1187 34.7524 46.2649V33.8522C34.7524 32.3878 33.8624 30.6866 32.7645 30.0524Z" fill="#25BFEC"/>
<path d="M31.5834 30.7274L5.00149 15.3736C3.90366 14.7394 3.01367 15.4125 3.01367 16.877V29.2896C3.01367 30.7541 3.90366 32.4554 5.00149 33.0895L15.7729 39.3111L18.2924 46.5874L20.8119 42.2217L31.5834 48.4434C32.6812 49.0775 33.5712 48.4044 33.5712 46.9399V34.5272C33.5712 33.0628 32.6812 31.3616 31.5834 30.7274Z" fill="#05A4C9"/>
<path d="M17.3491 34.1162V32.3171C18.6846 31.7701 19.3524 30.8762 19.3524 29.6357C19.3524 29.5853 19.3504 29.5338 19.3464 29.4811C19.3345 29.1538 19.2553 28.8654 19.1086 28.6159C18.962 28.3664 18.7758 28.1765 18.5499 28.046C18.3279 27.9178 18.1575 27.9041 18.0386 28.0048C17.9356 28.0918 17.8841 28.2474 17.8841 28.4717C17.8841 28.5084 17.8861 28.5461 17.89 28.585C17.89 28.7773 17.9257 29.0222 17.9971 29.3198L16.3267 28.7738C16.2237 28.2565 16.1721 27.888 16.1721 27.6682C16.1602 27.5286 16.1543 27.3948 16.1543 27.2665C16.1582 26.6005 16.3267 26.1438 16.6595 25.8966C17.0559 25.6037 17.6761 25.701 18.5202 26.1885C19.3721 26.6806 20.027 27.313 20.4848 28.0855C20.9424 28.858 21.1713 29.702 21.1713 30.6176C21.1713 31.4371 20.9692 32.1066 20.565 32.6262C20.1608 33.1458 19.6456 33.5108 19.0194 33.7214V35.081L17.3491 34.1162ZM17.2956 37.0449V35.0055L19.0968 36.0458V38.0852L17.2956 37.0449Z" fill="white"/>
<path d="M180.083 16.4033L153.501 1.04939C153.011 0.76648 152.564 0.74527 152.217 0.936912L152.217 0.935089L151.096 1.57992L151.641 1.69923C151.56 1.94139 151.513 2.22612 151.513 2.55281V14.9655C151.513 16.43 152.403 18.1312 153.501 18.7653L164.272 24.987L166.395 31.1156L165.611 32.9381L166.792 32.2632L169.311 27.8976L180.083 34.1192C180.156 34.1612 180.227 34.1966 180.298 34.2272L180.297 34.2272L180.131 34.9369L181.304 34.2654L181.297 34.2651C181.767 34.0515 182.071 33.4695 182.071 32.6158V20.2031C182.071 18.7386 181.181 17.0374 180.083 16.4033Z" fill="#00AFA2"/>
<path d="M178.902 17.0783L152.32 1.72438C151.222 1.09023 150.332 1.76336 150.332 3.2278V15.6405C150.332 17.105 151.222 18.8062 152.32 19.4403L163.091 25.662L165.611 32.9382L168.13 28.5725L178.902 34.7942C180 35.4284 180.89 34.7552 180.89 33.2908V20.8781C180.89 19.4136 180 17.7124 178.902 17.0783Z" fill="#42E8E0"/>
<path d="M165.242 23.2994V21.3704L166.923 22.3415V24.2706L165.242 23.2994ZM165.784 20.9523L165.265 12.4165L167.02 13.4304L166.399 21.3079L165.784 20.9523Z" fill="white"/>
<defs>
<linearGradient id="paint0_linear_602_5872" x1="120.346" y1="129.206" x2="62.3691" y2="129.206" gradientUnits="userSpaceOnUse">
<stop stop-color="#5761D7"/>
<stop offset="0.0725775" stop-color="#5472D8"/>
<stop offset="0.27907" stop-color="#4E9CDB"/>
<stop offset="0.480102" stop-color="#49BDDD"/>
<stop offset="0.671509" stop-color="#45D5DF"/>
<stop offset="0.849265" stop-color="#43E3E0"/>
<stop offset="1" stop-color="#42E8E0"/>
</linearGradient>
<linearGradient id="paint1_linear_602_5872" x1="120.346" y1="124.744" x2="62.3691" y2="124.744" gradientUnits="userSpaceOnUse">
<stop stop-color="#5761D7"/>
<stop offset="0.0725775" stop-color="#5472D8"/>
<stop offset="0.27907" stop-color="#4E9CDB"/>
<stop offset="0.480102" stop-color="#49BDDD"/>
<stop offset="0.671509" stop-color="#45D5DF"/>
<stop offset="0.849265" stop-color="#43E3E0"/>
<stop offset="1" stop-color="#42E8E0"/>
</linearGradient>
<linearGradient id="paint2_linear_602_5872" x1="120.346" y1="120.282" x2="62.3691" y2="120.282" gradientUnits="userSpaceOnUse">
<stop stop-color="#5761D7"/>
<stop offset="0.0725775" stop-color="#5472D8"/>
<stop offset="0.27907" stop-color="#4E9CDB"/>
<stop offset="0.480102" stop-color="#49BDDD"/>
<stop offset="0.671509" stop-color="#45D5DF"/>
<stop offset="0.849265" stop-color="#43E3E0"/>
<stop offset="1" stop-color="#42E8E0"/>
</linearGradient>
<linearGradient id="paint3_linear_602_5872" x1="120.346" y1="115.82" x2="62.3691" y2="115.82" gradientUnits="userSpaceOnUse">
<stop stop-color="#5761D7"/>
<stop offset="0.0725775" stop-color="#5472D8"/>
<stop offset="0.27907" stop-color="#4E9CDB"/>
<stop offset="0.480102" stop-color="#49BDDD"/>
<stop offset="0.671509" stop-color="#45D5DF"/>
<stop offset="0.849265" stop-color="#43E3E0"/>
<stop offset="1" stop-color="#42E8E0"/>
</linearGradient>
<linearGradient id="paint4_linear_602_5872" x1="120.346" y1="122.513" x2="62.3691" y2="122.513" gradientUnits="userSpaceOnUse">
<stop stop-color="#5761D7"/>
<stop offset="0.0725775" stop-color="#5472D8"/>
<stop offset="0.27907" stop-color="#4E9CDB"/>
<stop offset="0.480102" stop-color="#49BDDD"/>
<stop offset="0.671509" stop-color="#45D5DF"/>
<stop offset="0.849265" stop-color="#43E3E0"/>
<stop offset="1" stop-color="#42E8E0"/>
</linearGradient>
<linearGradient id="paint5_linear_602_5872" x1="126.509" y1="108.247" x2="56.209" y2="108.247" gradientUnits="userSpaceOnUse">
<stop stop-color="#5761D7"/>
<stop offset="0.0725775" stop-color="#5472D8"/>
<stop offset="0.27907" stop-color="#4E9CDB"/>
<stop offset="0.480102" stop-color="#49BDDD"/>
<stop offset="0.671509" stop-color="#45D5DF"/>
<stop offset="0.849265" stop-color="#43E3E0"/>
<stop offset="1" stop-color="#42E8E0"/>
</linearGradient>
<linearGradient id="paint6_linear_602_5872" x1="126.509" y1="102.837" x2="56.209" y2="102.837" gradientUnits="userSpaceOnUse">
<stop stop-color="#5761D7"/>
<stop offset="0.0725775" stop-color="#5472D8"/>
<stop offset="0.27907" stop-color="#4E9CDB"/>
<stop offset="0.480102" stop-color="#49BDDD"/>
<stop offset="0.671509" stop-color="#45D5DF"/>
<stop offset="0.849265" stop-color="#43E3E0"/>
<stop offset="1" stop-color="#42E8E0"/>
</linearGradient>
<linearGradient id="paint7_linear_602_5872" x1="126.509" y1="97.4264" x2="56.209" y2="97.4264" gradientUnits="userSpaceOnUse">
<stop stop-color="#5761D7"/>
<stop offset="0.0725775" stop-color="#5472D8"/>
<stop offset="0.27907" stop-color="#4E9CDB"/>
<stop offset="0.480102" stop-color="#49BDDD"/>
<stop offset="0.671509" stop-color="#45D5DF"/>
<stop offset="0.849265" stop-color="#43E3E0"/>
<stop offset="1" stop-color="#42E8E0"/>
</linearGradient>
<linearGradient id="paint8_linear_602_5872" x1="126.509" y1="92.0162" x2="56.209" y2="92.0162" gradientUnits="userSpaceOnUse">
<stop stop-color="#5761D7"/>
<stop offset="0.0725775" stop-color="#5472D8"/>
<stop offset="0.27907" stop-color="#4E9CDB"/>
<stop offset="0.480102" stop-color="#49BDDD"/>
<stop offset="0.671509" stop-color="#45D5DF"/>
<stop offset="0.849265" stop-color="#43E3E0"/>
<stop offset="1" stop-color="#42E8E0"/>
</linearGradient>
<linearGradient id="paint9_linear_602_5872" x1="126.509" y1="100.132" x2="56.209" y2="100.132" gradientUnits="userSpaceOnUse">
<stop stop-color="#5761D7"/>
<stop offset="0.0725775" stop-color="#5472D8"/>
<stop offset="0.27907" stop-color="#4E9CDB"/>
<stop offset="0.480102" stop-color="#49BDDD"/>
<stop offset="0.671509" stop-color="#45D5DF"/>
<stop offset="0.849265" stop-color="#43E3E0"/>
<stop offset="1" stop-color="#42E8E0"/>
</linearGradient>
<linearGradient id="paint10_linear_602_5872" x1="126.509" y1="92.0162" x2="56.209" y2="92.0162" gradientUnits="userSpaceOnUse">
<stop stop-color="#5761D7"/>
<stop offset="0.0725775" stop-color="#5472D8"/>
<stop offset="0.27907" stop-color="#4E9CDB"/>
<stop offset="0.480102" stop-color="#49BDDD"/>
<stop offset="0.671509" stop-color="#45D5DF"/>
<stop offset="0.849265" stop-color="#43E3E0"/>
<stop offset="1" stop-color="#42E8E0"/>
</linearGradient>
<linearGradient id="paint11_linear_602_5872" x1="126.508" y1="101.767" x2="56.209" y2="101.767" gradientUnits="userSpaceOnUse">
<stop stop-color="#5761D7"/>
<stop offset="0.0725775" stop-color="#5472D8"/>
<stop offset="0.27907" stop-color="#4E9CDB"/>
<stop offset="0.480102" stop-color="#49BDDD"/>
<stop offset="0.671509" stop-color="#45D5DF"/>
<stop offset="0.849265" stop-color="#43E3E0"/>
<stop offset="1" stop-color="#42E8E0"/>
</linearGradient>
<linearGradient id="paint12_linear_602_5872" x1="125.227" y1="90.7651" x2="157.457" y2="98.8465" gradientUnits="userSpaceOnUse">
<stop stop-color="#42E8E0"/>
<stop offset="0.0046746" stop-color="#42E6DF"/>
<stop offset="0.135768" stop-color="#40B6CB"/>
<stop offset="0.270665" stop-color="#3E8DB9"/>
<stop offset="0.407448" stop-color="#3C6BAA"/>
<stop offset="0.546675" stop-color="#3B519F"/>
<stop offset="0.68935" stop-color="#3A3F97"/>
<stop offset="0.8375" stop-color="#393493"/>
<stop offset="1" stop-color="#393091"/>
</linearGradient>
<linearGradient id="paint13_linear_602_5872" x1="124.324" y1="66.8409" x2="153.21" y2="62.1364" gradientUnits="userSpaceOnUse">
<stop stop-color="#42E8E0"/>
<stop offset="0.0046746" stop-color="#42E6DF"/>
<stop offset="0.135768" stop-color="#40B6CB"/>
<stop offset="0.270665" stop-color="#3E8DB9"/>
<stop offset="0.407448" stop-color="#3C6BAA"/>
<stop offset="0.546675" stop-color="#3B519F"/>
<stop offset="0.68935" stop-color="#3A3F97"/>
<stop offset="0.8375" stop-color="#393493"/>
<stop offset="1" stop-color="#393091"/>
</linearGradient>
<linearGradient id="paint14_linear_602_5872" x1="131.393" y1="79.2623" x2="138.798" y2="79.6916" gradientUnits="userSpaceOnUse">
<stop stop-color="#5761D7"/>
<stop offset="0.0725775" stop-color="#5472D8"/>
<stop offset="0.27907" stop-color="#4E9CDB"/>
<stop offset="0.480102" stop-color="#49BDDD"/>
<stop offset="0.671509" stop-color="#45D5DF"/>
<stop offset="0.849265" stop-color="#43E3E0"/>
<stop offset="1" stop-color="#42E8E0"/>
</linearGradient>
<linearGradient id="paint15_linear_602_5872" x1="122.677" y1="64.1657" x2="136.613" y2="57.3979" gradientUnits="userSpaceOnUse">
<stop stop-color="#42E8E0"/>
<stop offset="0.0046746" stop-color="#42E6DF"/>
<stop offset="0.135768" stop-color="#40B6CB"/>
<stop offset="0.270665" stop-color="#3E8DB9"/>
<stop offset="0.407448" stop-color="#3C6BAA"/>
<stop offset="0.546675" stop-color="#3B519F"/>
<stop offset="0.68935" stop-color="#3A3F97"/>
<stop offset="0.8375" stop-color="#393493"/>
<stop offset="1" stop-color="#393091"/>
</linearGradient>
<linearGradient id="paint16_linear_602_5872" x1="130.658" y1="70.3081" x2="155.19" y2="60.5953" gradientUnits="userSpaceOnUse">
<stop stop-color="#42E8E0"/>
<stop offset="0.0046746" stop-color="#42E6DF"/>
<stop offset="0.135768" stop-color="#40B6CB"/>
<stop offset="0.270665" stop-color="#3E8DB9"/>
<stop offset="0.407448" stop-color="#3C6BAA"/>
<stop offset="0.546675" stop-color="#3B519F"/>
<stop offset="0.68935" stop-color="#3A3F97"/>
<stop offset="0.8375" stop-color="#393493"/>
<stop offset="1" stop-color="#393091"/>
</linearGradient>
<linearGradient id="paint17_linear_602_5872" x1="48.4895" y1="125.388" x2="21.3768" y2="136.415" gradientUnits="userSpaceOnUse">
<stop stop-color="#42E8E0"/>
<stop offset="0.0046746" stop-color="#42E6DF"/>
<stop offset="0.135768" stop-color="#40B6CB"/>
<stop offset="0.270665" stop-color="#3E8DB9"/>
<stop offset="0.407448" stop-color="#3C6BAA"/>
<stop offset="0.546675" stop-color="#3B519F"/>
<stop offset="0.68935" stop-color="#3A3F97"/>
<stop offset="0.8375" stop-color="#393493"/>
<stop offset="1" stop-color="#393091"/>
</linearGradient>
<linearGradient id="paint18_linear_602_5872" x1="46.4307" y1="88.5327" x2="17.4374" y2="94.6262" gradientUnits="userSpaceOnUse">
<stop stop-color="#42E8E0"/>
<stop offset="0.0046746" stop-color="#42E6DF"/>
<stop offset="0.135768" stop-color="#40B6CB"/>
<stop offset="0.270665" stop-color="#3E8DB9"/>
<stop offset="0.407448" stop-color="#3C6BAA"/>
<stop offset="0.546675" stop-color="#3B519F"/>
<stop offset="0.68935" stop-color="#3A3F97"/>
<stop offset="0.8375" stop-color="#393493"/>
<stop offset="1" stop-color="#393091"/>
</linearGradient>
<linearGradient id="paint19_linear_602_5872" x1="25.5686" y1="67.0535" x2="24.3531" y2="66.947" gradientUnits="userSpaceOnUse">
<stop stop-color="#5761D7"/>
<stop offset="0.0725775" stop-color="#5472D8"/>
<stop offset="0.27907" stop-color="#4E9CDB"/>
<stop offset="0.480102" stop-color="#49BDDD"/>
<stop offset="0.671509" stop-color="#45D5DF"/>
<stop offset="0.849265" stop-color="#43E3E0"/>
<stop offset="1" stop-color="#42E8E0"/>
</linearGradient>
<linearGradient id="paint20_linear_602_5872" x1="67.0445" y1="122.293" x2="39.3481" y2="134.612" gradientUnits="userSpaceOnUse">
<stop stop-color="#42E8E0"/>
<stop offset="0.106681" stop-color="#40C1CF"/>
<stop offset="0.254912" stop-color="#3E91BB"/>
<stop offset="0.396024" stop-color="#3C6CAB"/>
<stop offset="0.526294" stop-color="#3B519F"/>
<stop offset="0.641714" stop-color="#3A4198"/>
<stop offset="0.73036" stop-color="#3A3B96"/>
<stop offset="0.838916" stop-color="#393493"/>
<stop offset="1" stop-color="#393091"/>
</linearGradient>
<linearGradient id="paint21_linear_602_5872" x1="40.4274" y1="125.428" x2="38.2925" y2="125.241" gradientUnits="userSpaceOnUse">
<stop stop-color="#5761D7"/>
<stop offset="0.0725775" stop-color="#5472D8"/>
<stop offset="0.27907" stop-color="#4E9CDB"/>
<stop offset="0.480102" stop-color="#49BDDD"/>
<stop offset="0.671509" stop-color="#45D5DF"/>
<stop offset="0.849265" stop-color="#43E3E0"/>
<stop offset="1" stop-color="#42E8E0"/>
</linearGradient>
<linearGradient id="paint22_linear_602_5872" x1="44.8212" y1="121.731" x2="42.6913" y2="121.544" gradientUnits="userSpaceOnUse">
<stop stop-color="#5761D7"/>
<stop offset="0.0725775" stop-color="#5472D8"/>
<stop offset="0.27907" stop-color="#4E9CDB"/>
<stop offset="0.480102" stop-color="#49BDDD"/>
<stop offset="0.671509" stop-color="#45D5DF"/>
<stop offset="0.849265" stop-color="#43E3E0"/>
<stop offset="1" stop-color="#42E8E0"/>
</linearGradient>
<radialGradient id="paint23_radial_602_5872" cx="0" cy="0" r="1" gradientUnits="userSpaceOnUse" gradientTransform="translate(75.0788 66.5631) rotate(44.4152) scale(12.0389 19.8329)">
<stop stop-color="#C0BFF6"/>
<stop offset="1" stop-color="#393091"/>
</radialGradient>
<linearGradient id="paint24_linear_602_5872" x1="71.0744" y1="72.6327" x2="60.3615" y2="73.094" gradientUnits="userSpaceOnUse">
<stop stop-color="#42E8E0"/>
<stop offset="0.0046746" stop-color="#42E6DF"/>
<stop offset="0.135768" stop-color="#40B6CB"/>
<stop offset="0.270665" stop-color="#3E8DB9"/>
<stop offset="0.407448" stop-color="#3C6BAA"/>
<stop offset="0.546675" stop-color="#3B519F"/>
<stop offset="0.68935" stop-color="#3A3F97"/>
<stop offset="0.8375" stop-color="#393493"/>
<stop offset="1" stop-color="#393091"/>
</linearGradient>
<radialGradient id="paint25_radial_602_5872" cx="0" cy="0" r="1" gradientUnits="userSpaceOnUse" gradientTransform="translate(107.716 35.4208) rotate(11.2024) scale(39.1761 39.1923)">
<stop stop-color="#C0BFF6"/>
<stop offset="1" stop-color="#393091"/>
</radialGradient>
<linearGradient id="paint26_linear_602_5872" x1="71.6094" y1="62.8394" x2="78.9059" y2="51.3891" gradientUnits="userSpaceOnUse">
<stop stop-color="#42E8E0"/>
<stop offset="0.0046746" stop-color="#42E6DF"/>
<stop offset="0.135768" stop-color="#40B6CB"/>
<stop offset="0.270665" stop-color="#3E8DB9"/>
<stop offset="0.407448" stop-color="#3C6BAA"/>
<stop offset="0.546675" stop-color="#3B519F"/>
<stop offset="0.68935" stop-color="#3A3F97"/>
<stop offset="0.8375" stop-color="#393493"/>
<stop offset="1" stop-color="#393091"/>
</linearGradient>
<radialGradient id="paint27_radial_602_5872" cx="0" cy="0" r="1" gradientUnits="userSpaceOnUse" gradientTransform="translate(101.916 65.8656) scale(30.1132 41.0103)">
<stop stop-color="#C0BFF6"/>
<stop offset="1" stop-color="#393091"/>
</radialGradient>
<linearGradient id="paint28_linear_602_5872" x1="91.5771" y1="93.3058" x2="91.5771" y2="52.3125" gradientUnits="userSpaceOnUse">
<stop stop-color="#42E8E0"/>
<stop offset="0.0046746" stop-color="#42E6DF"/>
<stop offset="0.135768" stop-color="#40B6CB"/>
<stop offset="0.270665" stop-color="#3E8DB9"/>
<stop offset="0.407448" stop-color="#3C6BAA"/>
<stop offset="0.546675" stop-color="#3B519F"/>
<stop offset="0.68935" stop-color="#3A3F97"/>
<stop offset="0.8375" stop-color="#393493"/>
<stop offset="1" stop-color="#393091"/>
</linearGradient>
<radialGradient id="paint29_radial_602_5872" cx="0" cy="0" r="1" gradientUnits="userSpaceOnUse" gradientTransform="translate(73.9346 15.1589) scale(21.2059 21.2154)">
<stop stop-color="#C0BFF6"/>
<stop offset="1" stop-color="#393091"/>
</radialGradient>
<radialGradient id="paint30_radial_602_5872" cx="0" cy="0" r="1" gradientUnits="userSpaceOnUse" gradientTransform="translate(103.424 40.2631) scale(30.2055 30.219)">
<stop stop-color="#C0BFF6"/>
<stop offset="1" stop-color="#393091"/>
</radialGradient>
<linearGradient id="paint31_linear_602_5872" x1="89.784" y1="60.6192" x2="94.7633" y2="25.2052" gradientUnits="userSpaceOnUse">
<stop stop-color="#42E8E0"/>
<stop offset="0.0046746" stop-color="#42E6DF"/>
<stop offset="0.135768" stop-color="#40B6CB"/>
<stop offset="0.270665" stop-color="#3E8DB9"/>
<stop offset="0.407448" stop-color="#3C6BAA"/>
<stop offset="0.546675" stop-color="#3B519F"/>
<stop offset="0.68935" stop-color="#3A3F97"/>
<stop offset="0.8375" stop-color="#393493"/>
<stop offset="1" stop-color="#393091"/>
</linearGradient>
<radialGradient id="paint32_radial_602_5872" cx="0" cy="0" r="1" gradientUnits="userSpaceOnUse" gradientTransform="translate(103.184 39.9411) scale(14.3448 14.3512)">
<stop stop-color="#C0BFF6"/>
<stop offset="1" stop-color="#393091"/>
</radialGradient>
<linearGradient id="paint33_linear_602_5872" x1="100.295" y1="54.2826" x2="105.34" y2="40.4285" gradientUnits="userSpaceOnUse">
<stop stop-color="#42E8E0"/>
<stop offset="0.0046746" stop-color="#42E6DF"/>
<stop offset="0.135768" stop-color="#40B6CB"/>
<stop offset="0.270665" stop-color="#3E8DB9"/>
<stop offset="0.407448" stop-color="#3C6BAA"/>
<stop offset="0.546675" stop-color="#3B519F"/>
<stop offset="0.68935" stop-color="#3A3F97"/>
<stop offset="0.8375" stop-color="#393493"/>
<stop offset="1" stop-color="#393091"/>
</linearGradient>
<radialGradient id="paint34_radial_602_5872" cx="0" cy="0" r="1" gradientUnits="userSpaceOnUse" gradientTransform="translate(115.538 63.4319) rotate(11.2024) scale(14.1592 14.165)">
<stop stop-color="#C0BFF6"/>
<stop offset="1" stop-color="#393091"/>
</radialGradient>
<linearGradient id="paint35_linear_602_5872" x1="106.026" y1="71.8541" x2="117.01" y2="63.8767" gradientUnits="userSpaceOnUse">
<stop stop-color="#42E8E0"/>
<stop offset="0.0046746" stop-color="#42E6DF"/>
<stop offset="0.135768" stop-color="#40B6CB"/>
<stop offset="0.270665" stop-color="#3E8DB9"/>
<stop offset="0.407448" stop-color="#3C6BAA"/>
<stop offset="0.546675" stop-color="#3B519F"/>
<stop offset="0.68935" stop-color="#3A3F97"/>
<stop offset="0.8375" stop-color="#393493"/>
<stop offset="1" stop-color="#393091"/>
</linearGradient>
<radialGradient id="paint36_radial_602_5872" cx="0" cy="0" r="1" gradientUnits="userSpaceOnUse" gradientTransform="translate(124.103 84.9676) rotate(6.80743) scale(12.0363 19.8372)">
<stop stop-color="#C0BFF6"/>
<stop offset="1" stop-color="#393091"/>
</radialGradient>
<linearGradient id="paint37_linear_602_5872" x1="112.782" y1="91.1169" x2="122.116" y2="92.2301" gradientUnits="userSpaceOnUse">
<stop stop-color="#42E8E0"/>
<stop offset="0.0046746" stop-color="#42E6DF"/>
<stop offset="0.135768" stop-color="#40B6CB"/>
<stop offset="0.270665" stop-color="#3E8DB9"/>
<stop offset="0.407448" stop-color="#3C6BAA"/>
<stop offset="0.546675" stop-color="#3B519F"/>
<stop offset="0.68935" stop-color="#3A3F97"/>
<stop offset="0.8375" stop-color="#393493"/>
<stop offset="1" stop-color="#393091"/>
</linearGradient>
</defs>
</svg>
