<svg width="277" height="208" viewBox="0 0 277 208" fill="none" xmlns="http://www.w3.org/2000/svg">
<g opacity="0.3">
<path d="M203.796 93.811C204.494 97.7735 207.418 107.734 219.481 114.623C236.653 122.595 248.549 133.075 252.534 144.775C252.815 145.543 253.205 146.564 253.57 147.295C253.998 146.586 253.998 146.586 254 144.871V125.226C253.992 113.691 253.349 111.148 252.534 107.929C248.549 96.2284 236.653 85.7488 219.481 77.777C205.781 73.3316 202.465 86.2434 203.796 93.811Z" fill="#42E8E0"/>
<path d="M77.8714 70.2401C96.0522 64.9381 117.56 61.9532 140.516 62.1423C143.545 62.1672 146.545 62.247 149.511 62.3796C169.669 64.2304 176.838 85.6305 164.685 94.9932C159.107 99.2905 152.383 99.2452 149.511 99.2258C146.545 99.0933 143.545 99.0135 140.516 98.9885C117.56 98.7994 96.0522 101.784 77.8714 107.086C59.514 111.582 58.4295 92.8279 64.8494 81.3563C67.0086 77.4981 71.0204 72.4377 77.8714 70.2401Z" fill="#42E8E0"/>
<path d="M23 153.509C23.5006 147.669 23.8959 143.056 29.8108 135.005C42.2798 116.509 39.7619 95.0115 32.874 96.0043C31.7637 96.1644 30.6094 97.3675 29.8108 98.1591C25.6246 103.643 23.2455 109.54 23.0179 115.693C23.006 116.017 23 116.34 23 116.663V153.509Z" fill="#42E8E0"/>
</g>
<g opacity="0.11">
<path d="M134.258 141.573C135.978 140.574 138.097 140.573 139.818 141.57L172.959 160.76C173.481 161.063 173.481 161.82 172.959 162.123L139.542 181.518C138.024 182.399 136.153 182.399 134.635 181.518L101.167 162.141C100.645 161.839 100.645 161.081 101.167 160.779L134.258 141.573Z" fill="url(#paint0_linear_234_60180)"/>
</g>
<g opacity="0.11">
<path d="M134.258 135.96C135.978 134.962 138.097 134.961 139.818 135.957L172.959 155.148C173.481 155.45 173.481 156.207 172.959 156.51L139.542 175.905C138.024 176.787 136.153 176.787 134.635 175.905L101.167 156.528C100.645 156.226 100.645 155.469 101.167 155.166L134.258 135.96Z" fill="url(#paint1_linear_234_60180)"/>
</g>
<g opacity="0.11">
<path d="M134.258 130.348C135.978 129.349 138.097 129.348 139.818 130.345L172.959 149.535C173.481 149.838 173.481 150.595 172.959 150.898L139.542 170.293C138.024 171.174 136.153 171.174 134.635 170.293L101.167 150.916C100.645 150.613 100.645 149.856 101.167 149.554L134.258 130.348Z" fill="url(#paint2_linear_234_60180)"/>
</g>
<g opacity="0.11">
<path d="M134.258 124.735C135.978 123.737 138.097 123.736 139.818 124.733L172.959 143.923C173.481 144.226 173.481 144.983 172.959 145.286L139.542 164.681C138.024 165.562 136.153 165.562 134.635 164.681L101.167 145.304C100.645 145.001 100.645 144.244 101.167 143.941L134.258 124.735Z" fill="url(#paint3_linear_234_60180)"/>
</g>
<path opacity="0.11" d="M101.167 143.941L134.258 124.735C135.978 123.737 138.097 123.736 139.818 124.733L172.959 143.923C173.22 144.074 173.35 144.339 173.35 144.604V161.442C173.35 161.706 173.22 161.971 172.959 162.123L139.542 181.518C138.024 182.399 136.153 182.399 134.635 181.518L101.167 162.141C100.906 161.99 100.775 161.725 100.775 161.46V144.623C100.775 144.358 100.906 144.093 101.167 143.941Z" fill="url(#paint4_linear_234_60180)"/>
<g opacity="0.11">
<path d="M133.662 110.973C135.747 109.763 138.317 109.761 140.404 110.97L180.589 134.239C181.222 134.607 181.222 135.524 180.589 135.892L140.069 159.409C138.228 160.478 135.96 160.478 134.119 159.409L93.537 135.914C92.9043 135.547 92.9043 134.629 93.537 134.262L133.662 110.973Z" fill="url(#paint5_linear_234_60180)"/>
</g>
<g opacity="0.11">
<path d="M133.662 104.168C135.747 102.958 138.317 102.956 140.404 104.165L180.589 127.434C181.222 127.801 181.222 128.719 180.589 129.087L140.069 152.604C138.228 153.673 135.96 153.673 134.119 152.604L93.537 129.109C92.9043 128.741 92.9043 127.824 93.537 127.456L133.662 104.168Z" fill="url(#paint6_linear_234_60180)"/>
</g>
<g opacity="0.11">
<path d="M133.662 97.3625C135.747 96.1519 138.317 96.1506 140.404 97.3591L180.589 120.629C181.222 120.996 181.222 121.914 180.589 122.281L140.069 145.798C138.228 146.867 135.96 146.867 134.119 145.798L93.537 122.303C92.9043 121.936 92.9043 121.018 93.537 120.651L133.662 97.3625Z" fill="url(#paint7_linear_234_60180)"/>
</g>
<g opacity="0.11">
<path d="M133.662 90.5573C135.747 89.3467 138.317 89.3454 140.404 90.5539L180.589 113.823C181.222 114.191 181.222 115.108 180.589 115.476L140.069 138.993C138.228 140.062 135.96 140.062 134.119 138.993L93.537 115.498C92.9043 115.131 92.9043 114.213 93.537 113.846L133.662 90.5573Z" fill="url(#paint8_linear_234_60180)"/>
</g>
<path opacity="0.5" d="M93.5369 113.846L133.661 90.5573C135.747 89.3467 138.317 89.3454 140.404 90.554L180.589 113.823C180.905 114.007 181.063 114.328 181.063 114.65V135.066C181.063 135.387 180.905 135.708 180.589 135.892L140.069 159.409C138.228 160.478 135.96 160.478 134.119 159.409L93.5369 135.914C93.2206 135.73 93.0625 135.409 93.0625 135.088V114.672C93.0624 114.35 93.2206 114.029 93.5369 113.846Z" fill="url(#paint9_linear_234_60180)"/>
<g opacity="0.11">
<path d="M133.662 90.5573C135.747 89.3467 138.317 89.3454 140.404 90.5539L180.589 113.823C181.222 114.191 181.222 115.108 180.589 115.476L140.069 138.993C138.228 140.062 135.96 140.062 134.119 138.993L93.537 115.498C92.9043 115.131 92.9043 114.213 93.537 113.846L133.662 90.5573Z" fill="url(#paint10_linear_234_60180)"/>
</g>
<path d="M93.5364 114.558L134.119 138.053C135.96 139.122 138.228 139.122 140.069 138.053L180.589 114.536C180.745 114.445 180.861 114.321 180.94 114.18C181.182 114.61 181.065 115.199 180.589 115.476L140.069 138.993C138.228 140.062 135.96 140.062 134.119 138.993L93.5364 115.498C93.0598 115.221 92.943 114.633 93.1845 114.202C93.2635 114.343 93.3804 114.467 93.5364 114.558Z" fill="url(#paint11_linear_234_60180)"/>
<path opacity="0.2" d="M137.063 127.562C149.282 127.562 159.188 121.813 159.188 114.721C159.188 107.629 149.282 101.88 137.063 101.88C124.845 101.88 114.939 107.629 114.939 114.721C114.939 121.813 124.845 127.562 137.063 127.562Z" fill="#180D5B"/>
<path d="M198.327 137.46C198.327 137.46 197.789 138.024 197.231 138.688C196.673 139.352 195.104 140.276 194.445 140.688C193.786 141.099 190.766 143.4 190.135 145.666C189.504 147.932 191.661 148.231 193.869 147.838C196.076 147.444 198.138 145.397 198.739 144.658C199.34 143.919 201.429 142.241 204.138 140.832C206.846 139.422 205.209 137.527 205.209 137.527L198.327 137.46Z" fill="#160A5B"/>
<path d="M218.439 144.19C218.439 144.19 218.885 145.209 219.012 146.52C219.138 147.83 219.321 150.671 219.388 151.502C219.456 152.333 219.483 154.366 218.028 156.313C216.573 158.26 215.822 159.029 213.888 158.263C211.954 157.498 211.998 154.235 212.34 152.557C212.683 150.879 213 147.124 212.965 146.73C212.93 146.336 213.076 146.084 213.076 146.084L218.439 144.19Z" fill="#160A5B"/>
<path d="M191.654 98.9669C191.654 98.9669 192.062 113.929 195.53 121.871C195.53 121.871 198.014 128.865 198.343 137.185C198.343 137.185 197.769 138.618 198.583 139.783C199.396 140.948 204.488 142.013 205.33 138.188C206.171 134.362 205.848 127.203 204.923 124.218C203.998 121.232 205.252 113.004 205.252 113.004C205.252 113.004 206.644 113.898 208.468 119.809C210.293 125.721 211.635 127.976 212.263 129.609C212.891 131.242 213.468 141.26 213.07 146.151C213.07 146.151 217.194 146.74 218.386 144.759C219.578 142.777 219.977 132.525 219.675 129.257C219.372 125.989 218.013 115.519 218.2 112.279C218.387 109.039 219.058 106.408 218.321 103.172C217.583 99.9363 195.824 92.7471 195.824 92.7471L191.654 98.9669Z" fill="#24126A"/>
<path d="M191.654 98.9669C191.654 98.9669 192.062 113.929 195.53 121.871C195.53 121.871 198.014 128.865 198.343 137.185C198.343 137.185 197.769 138.618 198.583 139.783C199.396 140.948 204.488 142.013 205.33 138.188C206.171 134.362 205.848 127.203 204.923 124.218C203.998 121.232 205.252 113.004 205.252 113.004C205.252 113.004 206.644 113.898 208.468 119.809C210.293 125.721 211.635 127.976 212.263 129.609C212.891 131.242 213.468 141.26 213.07 146.151C213.07 146.151 217.194 146.74 218.386 144.759C219.578 142.777 219.977 132.525 219.675 129.257C219.372 125.989 218.013 115.519 218.2 112.279C218.387 109.039 219.058 106.408 218.321 103.172C217.583 99.9363 195.824 92.7471 195.824 92.7471L191.654 98.9669Z" fill="url(#paint12_linear_234_60180)"/>
<path d="M218.2 112.279C218.387 109.039 219.058 106.408 218.321 103.172C218.044 101.956 214.795 100.181 210.849 98.4389C204.19 97.8278 195.744 97.1183 195.163 97.2073C194.637 97.2879 193.26 97.8134 192.119 98.2735L191.654 98.9668C191.654 98.9668 191.679 99.8767 191.768 101.362C193.322 101.83 196.31 101.347 196.31 101.347C196.73 102.397 199.325 106.128 202.553 107.739C205.78 109.349 215.225 108.797 215.767 109.409C216.309 110.021 216.414 118.212 216.354 119.253C216.294 120.295 217.244 126.852 218.122 132.65C218.986 138.354 217.671 145.286 217.628 145.509C217.933 145.312 218.198 145.07 218.386 144.759C219.578 142.777 219.977 132.525 219.675 129.257C219.372 125.989 218.013 115.519 218.2 112.279Z" fill="#160A5B"/>
<path d="M198.938 50.0302C198.938 50.0302 194.11 51.1371 192.486 51.5204C192.217 51.5838 191.999 51.7743 191.898 52.033C191.429 53.2263 190.253 56.9336 191.139 62.3465C192.228 68.9985 191.883 73.4773 191.883 73.4773L189.65 85.1602C189.65 85.1602 186.843 96.2872 187.085 96.5915C187.327 96.8959 193.549 101.656 195.493 100.985C197.438 100.315 196.799 99.2088 196.799 99.2088C196.799 99.2088 198.374 107.273 205.346 107.195C212.319 107.118 218.015 107.14 219.198 104.307C220.382 101.473 218.875 89.5629 217.645 84.8472C216.416 80.1317 213.493 70.7315 213.493 70.7315L223.706 59.3685L214.978 52.6679C214.978 52.6679 212.893 48.7732 212.036 48.2782C211.179 47.7832 210.731 48.2022 210.731 48.2022L198.938 50.0302Z" fill="url(#paint13_linear_234_60180)"/>
<path d="M195.613 98.4169C195.619 98.8215 195.385 99.4242 194.131 99.8564C192.778 100.323 189.46 98.2961 187.285 96.77C188.371 97.6775 193.715 101.599 195.494 100.985C195.88 100.852 196.161 100.702 196.369 100.546C195.97 99.6494 195.734 98.8737 195.613 98.4169Z" fill="url(#paint14_linear_234_60180)"/>
<path d="M211.848 48.1808C211.848 48.1808 213.631 50.3493 211.066 53.2765C209.487 55.0782 206.77 58.9636 204.455 62.9983C203.009 65.5183 201.673 66.8621 200.915 69.0274C200.915 69.0274 200.809 66.4548 200.708 62.4828C200.612 58.7344 200.561 54.8391 200.728 53.8582C201.072 51.8377 209.878 47.1982 211.848 48.1808Z" fill="#F0F6FF"/>
<path d="M205.179 54.704C205.179 54.704 204.266 55.2748 203.951 55.2273C203.636 55.18 202.625 54.1923 202.625 54.1923C202.625 54.1923 200.094 54.1463 199.818 53.0563C199.541 51.9663 199.359 50.8673 199.103 50.3009C198.847 49.7345 197.755 47.0151 197.747 45.9116C197.738 44.8082 197.78 42.8369 197.306 41.7935C196.832 40.75 196.192 30.3074 206.223 30.6018C216.254 30.8962 213.138 41.3666 213.138 41.3666C213.138 41.3666 213.87 41.6802 213.427 43.0282C212.983 44.3762 212.884 44.5155 212.658 45.1844C212.431 45.8533 212.32 46.2822 211.682 46.8256L211.516 48.0674C211.516 48.0674 211.992 49.9637 210.746 51.8067C209.499 53.6497 205.179 54.704 205.179 54.704Z" fill="#FCD1C5"/>
<path d="M192.211 51.6411C192.211 51.6411 191.142 51.8011 187.671 60.5771C185.735 65.4741 182.746 70.5454 182.113 74.185C181.479 77.8245 181.833 81.715 182.548 81.9889C183.237 82.2526 195.706 86.9428 199.608 88.4233C199.824 88.5051 200.058 88.3693 200.099 88.1411L201.175 82.0877L193.437 79.0826C193.437 79.0826 191.963 77.2721 190.578 76.5927C190.578 76.5927 192.129 73.7189 192.03 72.9345C191.932 72.1499 192.169 64.0319 191.262 60.7283C190.355 57.4247 192.211 51.6411 192.211 51.6411Z" fill="#24126A"/>
<path d="M192.211 51.6411C192.211 51.6411 191.142 51.8011 187.671 60.5771C185.735 65.4741 182.746 70.5454 182.113 74.185C181.479 77.8245 181.833 81.715 182.548 81.9889C183.237 82.2526 195.706 86.9428 199.608 88.4233C199.824 88.5051 200.058 88.3693 200.099 88.1411L201.175 82.0877L193.437 79.0826C193.437 79.0826 191.963 77.2721 190.578 76.5927C190.578 76.5927 192.129 73.7189 192.03 72.9345C191.932 72.1499 192.169 64.0319 191.262 60.7283C190.355 57.4247 192.211 51.6411 192.211 51.6411Z" fill="url(#paint15_linear_234_60180)"/>
<path d="M196.743 74.8344C196.743 74.8344 195.677 74.1144 195.414 74.0119C195.15 73.9095 193.725 73.4201 193.453 73.2978C193.251 73.2071 192.421 73.2767 192.005 73.3187C191.855 73.3339 191.723 73.4213 191.651 73.5554C191.322 74.1694 190.405 75.956 190.508 76.6381C190.508 76.6381 193.084 78.2743 193.372 79.0041L193.783 79.093C193.783 79.093 195.509 75.372 196.743 74.8344Z" fill="#FCD1C5"/>
<path d="M217.645 84.8471C217.35 83.7126 216.955 82.306 216.528 80.8252L200.857 87.5779C200.857 87.5779 205.548 93.3762 213.769 93.004C216.018 92.9022 217.657 92.087 218.861 91.3864C218.499 88.808 218.057 86.4245 217.645 84.8471Z" fill="#24126A"/>
<path d="M223.707 59.3682C223.707 59.3682 219.574 59.94 216.235 65.2601C212.897 70.5802 210.463 76.7366 210.463 76.7366L210.348 77.4289C210.047 79.2381 208.13 80.2753 206.464 79.5274C202.938 77.9449 197.717 75.5521 196.743 74.834C196.743 74.834 193.621 76.569 192.769 80.6685C192.089 83.9377 192.262 83.9478 192.262 83.9478C192.262 83.9478 206.177 90.4767 211.551 90.4127C216.925 90.3486 223.743 72.5862 224.494 68.9148C225.245 65.2434 226.072 60.4059 223.707 59.3682Z" fill="#24126A"/>
<path d="M223.707 59.3682C223.707 59.3682 219.574 59.94 216.235 65.2601C212.897 70.5802 210.463 76.7366 210.463 76.7366L210.348 77.4289C210.047 79.2381 208.13 80.2753 206.464 79.5274C202.938 77.9449 197.717 75.5521 196.743 74.834C196.743 74.834 193.621 76.569 192.769 80.6685C192.089 83.9377 192.262 83.9478 192.262 83.9478C192.262 83.9478 206.177 90.4767 211.551 90.4127C216.925 90.3486 223.743 72.5862 224.494 68.9148C225.245 65.2434 226.072 60.4059 223.707 59.3682Z" fill="url(#paint16_linear_234_60180)"/>
<path d="M208.461 80.3548C208.461 80.3548 210.216 82.0049 210.98 81.1013C211.745 80.1977 211.52 80.0975 211.52 80.0975C211.52 80.0975 213.099 80.0831 213.291 79.0882C213.483 78.0931 214.261 78.6192 214.306 77.5107C214.35 76.4022 213.028 76.6296 213.028 76.6296L208.461 80.3548Z" fill="#453C9E"/>
<path d="M206.34 79.4722C206.34 79.4722 206.823 79.0206 207.445 78.491C208.068 77.9612 209.075 75.7705 209.244 75.5773C209.414 75.384 211.514 73.765 212.526 73.7368C213.539 73.7088 212.787 74.8478 212.554 75.0083C212.321 75.1688 211.333 75.6627 211.333 75.6627C211.333 75.6627 210.316 76.5212 210.2 76.647C210.085 76.7727 213.027 76.4435 213.494 76.732C213.961 77.0204 213.853 77.776 213.523 77.9818C213.194 78.1874 212.942 78.1801 212.942 78.1801C212.942 78.1801 213.273 79.0701 212.39 79.483C211.507 79.896 211.304 79.6664 211.304 79.6664C211.304 79.6664 211.228 81.2041 209.77 80.8995L206.34 79.4722Z" fill="#FCD1C5"/>
<path d="M197.08 36.4542C197.08 36.4542 195.77 40.6445 199.217 39.4522C202.664 38.26 205.782 36.2649 206.864 37.0245C207.688 37.6029 207.65 39.3762 207.585 40.1896C207.563 40.4668 207.635 40.7417 207.792 40.9709L208.813 42.4638C208.929 42.6323 208.997 42.8287 209.011 43.0328L209.084 44.0712C209.103 44.3324 209.311 44.5394 209.571 44.5545L209.807 44.5683C210.069 44.5836 210.301 44.3986 210.347 44.138L210.613 42.6126C210.613 42.6126 211.424 40.5604 213.139 41.3666C213.139 41.3666 214.285 39.8177 213.904 36.5061C213.523 33.1944 212.047 29.7512 205.583 29.2002C199.118 28.6493 197.08 36.4542 197.08 36.4542Z" fill="#AA8383"/>
<path d="M206.959 58.3924L205.992 57.638C205.992 57.638 205.097 58.3855 204.748 59.1778C204.399 59.9703 204.749 62.4891 204.749 62.4891L204.454 62.9987L204.092 62.3323L203.785 59.3539C203.785 59.3539 204.114 57.1527 204.146 57.0966C204.178 57.0403 206.012 57.2923 206.012 57.2923C206.012 57.2923 206.648 57.7793 206.959 58.3924Z" fill="#C4CCD6"/>
<path d="M202.307 55.4282C202.307 55.4282 201.274 55.4973 200.809 55.8861C200.809 55.8861 201.893 55.9397 202.065 55.9594C202.237 55.9791 202.307 55.4282 202.307 55.4282Z" fill="#C4CCD6"/>
<path d="M204.276 55.6625L206.011 57.2922C206.011 57.2922 204.488 57.9967 204.063 59.3651C204.063 59.3651 202.175 59.7195 202.003 59.0323C201.831 58.3449 202.008 56.6138 201.783 55.8461C201.558 55.0782 204.276 55.6625 204.276 55.6625Z" fill="#24126A"/>
<path d="M202.073 58.9926C202.073 58.9926 201.751 60.4202 201.399 61.0091C201.046 61.5982 200.686 62.2585 200.686 62.2585L200.728 70.6256C200.728 70.6256 203.79 64.2825 204.454 62.9983C204.454 62.9983 204.352 59.9429 204.063 59.3649C203.774 58.7869 202.073 58.9926 202.073 58.9926Z" fill="#24126A"/>
<path d="M210.294 46.6284C208.283 52.4613 202.625 54.1923 202.625 54.1923C202.625 54.1923 203.636 55.18 203.951 55.2273C204.266 55.2748 205.18 54.704 205.18 54.704C205.18 54.704 209.499 53.6496 210.746 51.8066C211.993 49.9637 211.516 48.0674 211.516 48.0674L211.683 46.8255C210.785 47.1215 210.294 46.6284 210.294 46.6284Z" fill="#E2B1A6"/>
<path d="M214.895 53.4561C214.895 53.4561 214.101 56.2088 213.999 56.3126C213.897 56.4164 212.004 56.1964 212.004 56.1964L212.923 57.9463C212.923 57.9463 203.4 68.2133 201.426 73.736C201.426 73.736 205.932 66.7358 213.863 58.3762L212.741 56.6683L214.688 57.0503L214.895 53.4561Z" fill="#24126A"/>
<path d="M199.251 51.0254L198.746 51.6054L199.34 52.1625L197.579 53.7626C197.579 53.7626 197.04 64.9928 199.191 72.4323C199.191 72.4323 196.271 65.6084 196.934 53.4566L198.839 52.1575L198.216 51.5407L199.251 51.0254Z" fill="#24126A"/>
<path d="M205.252 113.004C205.252 113.004 205.275 113.019 205.318 113.056L202.851 110.417C203.99 112.031 202.678 119.423 202.542 121.116C202.406 122.808 203.86 126.303 204.404 130.399C204.947 134.488 203.834 140.326 203.83 140.343C204.536 139.933 205.097 139.249 205.33 138.188C206.172 134.362 205.848 127.203 204.923 124.218C203.998 121.232 205.252 113.004 205.252 113.004Z" fill="#160A5B"/>
<path d="M209.806 44.5681C210.068 44.5834 210.301 44.3984 210.346 44.1378L210.612 42.6124C210.612 42.6124 211.423 40.5602 213.138 41.3664C213.138 41.3664 214.219 39.8951 213.927 36.7656C212.021 39.6424 207.791 40.9707 207.791 40.9707L208.812 42.4636C208.928 42.6321 208.996 42.8285 209.01 43.0325L209.083 44.071C209.102 44.3322 209.31 44.5392 209.57 44.5543L209.806 44.5681Z" fill="#936D6D"/>
<path d="M62.1299 186.074C62.1299 186.074 64.3398 186.622 66.48 186.707C68.6204 186.791 74.4376 187.964 74.2933 190.146C74.1479 192.341 71.1078 195.489 67.2992 195.955C63.4858 196.422 58.5842 195.319 56.094 195.387C53.6037 195.455 51.9016 192.902 52.8767 190.457C53.8455 188.028 62.1299 186.074 62.1299 186.074Z" fill="#160A5B"/>
<path d="M49.2898 180.206C49.2898 180.206 48.4748 181.526 48.8735 182.334C49.2735 183.145 50.3399 185.159 53.8235 183.209C57.2894 181.269 63.9841 178.494 63.9841 178.494C63.9841 178.494 67.8212 176.441 67.6113 174.019C67.4028 171.613 63.8713 171.972 63.8713 171.972L49.2898 180.206Z" fill="#160A5B"/>
<path d="M71.8977 145.858C71.8977 145.858 70.4187 161.586 67.2742 167.547C64.0787 173.605 63.1972 184.703 62.5302 186.822C61.8595 188.952 59.7905 192.014 56.5285 192.663C53.261 193.314 52.728 191.082 52.8894 189.741C53.0501 188.405 53.9555 186.244 53.9674 184.794C53.9792 183.35 53.6449 182.674 53.5949 182.01C53.5949 182.01 49.8579 183.117 49.2901 180.206C49.2901 180.206 49.5928 179.359 49.6425 178.925C49.6924 178.493 49.3236 167.963 49.2327 166.687C49.1419 165.416 49.8251 158.533 50.8631 155.14C51.8918 151.778 51.55 144.625 51.55 144.625L62.1886 143.134L71.8977 145.858Z" fill="#24126A"/>
<path d="M71.8977 145.858C71.8977 145.858 70.4187 161.586 67.2742 167.547C64.0787 173.605 63.1972 184.703 62.5302 186.822C61.8595 188.952 59.7905 192.014 56.5285 192.663C53.261 193.314 52.728 191.082 52.8894 189.741C53.0501 188.405 53.9555 186.244 53.9674 184.794C53.9792 183.35 53.6449 182.674 53.5949 182.01C53.5949 182.01 49.8579 183.117 49.2901 180.206C49.2901 180.206 49.5928 179.359 49.6425 178.925C49.6924 178.493 49.3236 167.963 49.2327 166.687C49.1419 165.416 49.8251 158.533 50.8631 155.14C51.8918 151.778 51.55 144.625 51.55 144.625L62.1886 143.134L71.8977 145.858Z" fill="url(#paint17_linear_234_60180)"/>
<path d="M54.6995 145.765C54.6995 145.765 54.7437 148.22 55.7614 150.285C55.7614 150.285 55.741 158.644 56.5949 162.877C56.5949 162.877 55.2183 171.377 54.3507 174.055C53.477 176.753 53.5936 182.01 53.5936 182.01C53.5936 182.01 53.1685 182.169 52.5588 182.191C51.949 182.213 51.9059 171.8 52.8421 169.963C53.7736 168.134 54.4799 160.018 54.1282 157.544C53.7787 155.087 53.8989 148.053 53.4364 146.812C52.9757 145.575 54.0165 144.917 54.0165 144.917L54.6995 145.765Z" fill="#160A5B"/>
<path d="M63.6562 89.0269C63.6562 89.0269 66.7463 91.274 66.5903 95.1555L64.294 94.6586C64.294 94.6586 64.9767 90.3617 63.6562 89.0269Z" fill="#160A5B"/>
<path d="M62.452 149.191C55.4 149.408 51.5948 146.267 51.5948 146.267C51.5797 145.273 51.5488 144.625 51.5488 144.625L62.1875 143.134L71.8966 145.858C71.8966 145.858 71.6042 148.959 71.0037 152.93C69.2738 153.118 67.5756 148.848 67.5756 148.848L62.7384 149.156C62.7384 149.156 69.4998 148.974 62.452 149.191Z" fill="#160A5B"/>
<path d="M70.5371 146.091C70.5371 146.091 55.205 152.383 47.7933 140.449C47.5825 140.109 47.4844 139.694 47.4985 139.275L47.5926 136.494C47.6047 136.14 47.5541 135.79 47.4442 135.463C47.2067 134.756 47.1535 133.989 47.2916 133.241C47.8656 130.133 49.4198 121.682 49.7843 119.337C50.2287 116.477 48.7205 105.029 46.1771 100.071C43.6703 95.1848 50.1085 84.1947 50.1085 84.1947C50.1085 84.1947 51.6873 81.6287 54.7799 82.5083C54.7799 82.5083 51.8301 84.5819 53.4448 86.7716C55.0701 88.976 59.9163 90.7356 59.9163 90.7356C59.9163 90.7356 68.8782 95.4105 71.9457 101.099C71.9457 101.099 73.0002 104.056 73.0933 107.798C73.1876 111.581 72.7714 120.661 72.9283 121.923C73.0856 123.188 73.5623 131.84 73.5119 132.244C73.4617 132.649 70.5371 146.091 70.5371 146.091Z" fill="#453C9E"/>
<path d="M70.5371 146.091C70.5371 146.091 55.205 152.383 47.7933 140.449C47.5825 140.109 47.4844 139.694 47.4985 139.275L47.5926 136.494C47.6047 136.14 47.5541 135.79 47.4442 135.463C47.2067 134.756 47.1535 133.989 47.2916 133.241C47.8656 130.133 49.4198 121.682 49.7843 119.337C50.2287 116.477 48.7205 105.029 46.1771 100.071C43.6703 95.1848 50.1085 84.1947 50.1085 84.1947C50.1085 84.1947 51.6873 81.6287 54.7799 82.5083C54.7799 82.5083 51.8301 84.5819 53.4448 86.7716C55.0701 88.976 59.9163 90.7356 59.9163 90.7356C59.9163 90.7356 68.8782 95.4105 71.9457 101.099C71.9457 101.099 73.0002 104.056 73.0933 107.798C73.1876 111.581 72.7714 120.661 72.9283 121.923C73.0856 123.188 73.5623 131.84 73.5119 132.244C73.4617 132.649 70.5371 146.091 70.5371 146.091Z" fill="url(#paint18_linear_234_60180)"/>
<path d="M53.3376 84.0948C53.0932 83.4723 53.1669 82.875 53.3927 82.3507C53.8185 82.3359 54.2706 82.3636 54.78 82.5085C54.78 82.5085 53.8695 83.1502 53.3376 84.0948Z" fill="url(#paint19_linear_234_60180)"/>
<path d="M65.89 147.377C65.89 147.377 56.8612 122.868 57.2902 113.971C57.7085 105.297 70.4703 131.545 70.4703 131.545L70.5365 146.091C70.5365 146.091 67.6421 147.164 65.89 147.377Z" fill="#24126A"/>
<path d="M70.7623 118.422C70.4354 116.423 70.2448 114.416 70.2223 112.411C70.1831 108.925 69.2082 103.143 62.9339 104.147C54.065 105.567 57.8593 118.056 58.8317 120.238C59.8102 122.433 63.69 132.326 63.8944 132.887C64.0866 133.416 70.2189 145.765 72.4092 148.727C72.6098 148.998 72.9617 149.039 73.2082 148.828C74.0962 148.068 76.0919 146.257 76.3525 145.111C76.6878 143.637 75.4071 138.293 75.4071 138.293C75.4071 138.293 71.9521 124.943 71.6612 124.321C71.4434 123.856 71.2921 121.663 70.7623 118.422Z" fill="#4846A5"/>
<path d="M63.5029 89.3086C63.5029 89.3086 64.2071 87.6979 65.8347 87.5314C67.4616 87.3649 68.3846 86.9108 68.5483 86.3049C68.7116 85.7003 68.7198 84.9681 69.1137 84.0665C69.5068 83.1673 69.8396 80.9572 69.8336 80.9037C69.8276 80.8504 71.0632 80.4769 71.1235 79.9298C71.1835 79.3838 70.5432 77.432 70.613 77.2814C70.683 77.1307 71.3464 75.9348 71.2568 75.0039C71.1676 74.0758 71.0476 72.7311 70.5542 71.5911C70.0623 70.4551 66.6158 63.5405 57.6467 67.1023C48.5778 70.7034 55.4757 78.3513 54.5787 83.3097C54.5787 83.3097 53.7723 84.3536 55.2502 86.1282C56.7359 87.9122 61.0288 88.2986 63.5029 89.3086Z" fill="#FCD1C5"/>
<path d="M55.2504 86.1283C53.7726 84.3538 54.579 83.3098 54.579 83.3098C54.7035 82.6207 54.6739 81.8776 54.5606 81.1014L58.1101 81.7822C58.1101 81.7822 63.3509 77.0958 62.9789 79.6052C62.6042 82.1338 63.8767 82.5695 63.8767 82.5695L62.8019 83.9453C62.5259 84.2986 62.6894 84.7138 62.9144 85.1028C64.4098 87.6889 68.0428 86.9116 68.0509 86.9123C67.5979 87.2096 66.855 87.4271 65.8349 87.5315C64.2073 87.698 63.5032 89.3087 63.5032 89.3087C61.029 88.2987 56.7361 87.9124 55.2504 86.1283Z" fill="#E2B1A6"/>
<path d="M70.9415 68.9628C70.9415 68.9628 71.5688 70.8128 70.5544 71.5911C69.5376 72.3712 68.6171 73.107 68.6171 73.107L68.6217 75.4534C68.6223 75.7918 68.5255 76.123 68.3431 76.4057L67.0642 78.387C66.8172 78.7698 66.6841 79.2186 66.6811 79.6792L66.6751 80.6389C66.6733 80.9208 66.4667 81.1565 66.1943 81.1873L65.8585 81.2251C65.5621 81.2584 65.2959 81.0379 65.2639 80.7329L65.1242 79.4001C65.1242 79.4001 64.4538 78.3288 62.9789 79.605L61.6558 80.151C61.2863 80.3036 60.9954 80.6073 60.8565 80.9918C60.4855 82.0177 59.6919 84.0434 59.0988 84.3796C58.2968 84.8345 55.194 83.2222 54.7793 82.5085C54.3656 81.7966 53.3196 77.0419 52.6709 74.7753C52.0267 72.5242 52.4056 66.9542 59.0876 65.5317C65.7407 64.1157 70.0233 66.9484 70.9415 68.9628Z" fill="#AA8383"/>
<path d="M54.7803 82.509C54.3665 81.797 53.3206 77.0423 52.6719 74.7757C52.6719 74.7757 55.2566 76.5064 58.6099 77.0209C61.9685 77.5359 68.6193 73.7339 68.6193 73.7339L68.6226 75.4539C68.6233 75.7923 68.5264 76.1234 68.3441 76.4061L67.0651 78.3875C66.8182 78.7703 66.685 79.2191 66.682 79.6797L66.6761 80.6393C66.6742 80.9212 66.4676 81.1569 66.1953 81.1877L65.8594 81.2255C65.5631 81.2589 65.2968 81.0384 65.2648 80.7333L65.1251 79.4005C65.1251 79.4005 64.4547 78.3292 62.9799 79.6055L61.0657 80.3955C61.0657 80.3955 59.9008 83.9258 59.0998 84.38C58.2977 84.8349 55.195 83.2226 54.7803 82.509Z" fill="#936D6D"/>
<path d="M54.6472 82.7339C54.6472 82.7339 52.0492 84.3426 53.3442 86.6246C54.6482 88.9225 64.0655 93.0026 64.531 93.6066C64.531 93.6066 64.9024 90.1833 63.6549 89.0269C63.6549 89.0269 56.4435 87.6146 55.3235 85.7636C54.2099 83.9226 54.6472 82.7339 54.6472 82.7339Z" fill="#F0F6FF"/>
<path d="M54.6472 82.7339C54.6472 82.7339 54.2099 83.9226 55.3235 85.7636C56.1708 87.1637 60.5033 88.3127 62.564 88.7894C62.564 88.7894 61.798 89.2261 60.5169 91.4193C57.6201 89.9088 54.1049 87.9652 53.3442 86.6246C52.0492 84.3426 54.6472 82.7339 54.6472 82.7339Z" fill="#C4CCD6"/>
<path d="M52.8926 90.0361C52.8926 90.0361 57.088 92.4533 59.1321 93.5449C61.1827 94.6403 63.4187 96.0954 63.4187 96.0954L64.2037 95.3081L65.1455 97.3894C65.1455 97.3894 68.3666 99.3349 69.8742 100.956C71.3889 102.585 72.5306 104.711 72.6937 105.196C72.6937 105.196 68.6711 99.8922 65.5019 98.3166L64.6496 97.8838L64.1672 96.2356L63.389 97.0632C63.389 97.0632 54.1709 91.4749 52.8926 90.0361Z" fill="#24126A"/>
<path d="M63.7097 161.595L63.7093 161.593L63.7106 161.593C63.8425 161.215 64.0387 160.883 64.2716 160.686L81.5298 146.121C81.9839 145.737 82.4235 146.03 82.5121 146.775L84.5302 163.733C84.6232 164.515 84.3219 165.478 83.8568 165.882L69.3627 178.481L69.8644 183.385L65.5317 181.38L65.5307 181.37C65.3362 181.248 65.1927 180.965 65.1542 180.541L63.5427 162.818C63.5069 162.423 63.5743 161.985 63.7097 161.595Z" fill="#453C9E"/>
<path d="M86.2296 147.793L82.1501 146.02L82.0194 145.964C81.8704 145.928 81.7009 145.976 81.5294 146.12L64.2712 160.686C64.038 160.883 63.8409 161.214 63.709 161.593L64.3263 161.892L67.8405 163.6L82.9666 150.598L86.2296 147.793Z" fill="#453C9E"/>
<path d="M88.1049 167.782L70.4573 183.239C69.9735 183.663 69.5166 183.339 69.4373 182.517L67.7219 164.702C67.6466 163.92 67.9685 162.961 68.4405 162.56L85.6594 147.922C86.1123 147.537 86.5547 147.831 86.6478 148.579L88.7677 165.623C88.8655 166.408 88.5689 167.376 88.1049 167.782Z" fill="#24126A"/>
<path d="M88.1049 167.782L70.4573 183.239C69.9735 183.663 69.5166 183.339 69.4373 182.517L67.7219 164.702C67.6466 163.92 67.9685 162.961 68.4405 162.56L85.6594 147.922C86.1123 147.537 86.5547 147.831 86.6478 148.579L88.7677 165.623C88.8655 166.408 88.5689 167.376 88.1049 167.782Z" fill="url(#paint20_linear_234_60180)"/>
<path d="M67.2448 181.474L65.5829 163.708C65.5099 162.927 65.8342 161.971 66.3065 161.571L83.5449 146.971C83.6856 146.852 83.8251 146.799 83.9531 146.803C83.7894 146.735 83.5963 146.774 83.4008 146.939L66.1603 161.538C65.6877 161.938 65.3632 162.894 65.436 163.674L67.0944 181.439C67.1472 182.005 67.3658 182.356 67.6645 182.367C67.4402 182.268 67.2883 181.94 67.2448 181.474Z" fill="#160A5B"/>
<path d="M73.5639 155.317L72.6619 154.864C72.4576 154.762 72.264 154.727 72.0995 154.763L72.027 154.779C71.9371 154.799 71.8905 154.896 71.9049 155.035L71.9219 155.2L74.4626 156.476L74.445 156.311C74.4303 156.172 74.3565 156.014 74.2519 155.896L74.1677 155.801C73.9764 155.586 73.7685 155.419 73.5639 155.317Z" fill="#160A5B"/>
<path d="M73.2426 157.512L74.4619 156.476L71.9423 154.835L70.7402 155.846L73.2426 157.512Z" fill="#160A5B"/>
<path d="M72.3451 156.349L71.4425 155.895C71.2381 155.792 71.0442 155.757 70.8795 155.794L70.8069 155.81C70.717 155.83 70.6699 155.928 70.6841 156.067L70.7009 156.232L73.243 157.512L73.2257 157.346C73.2112 157.207 73.1375 157.048 73.0331 156.93L72.9488 156.835C72.7577 156.619 72.5497 156.452 72.3451 156.349Z" fill="url(#paint21_linear_234_60180)"/>
<path d="M71.8036 156.787L71.7266 156.038L71.8035 156.077L71.8806 156.826L71.8036 156.787Z" fill="#722318"/>
<path d="M71.7285 156.039L72.9817 155.024L73.0472 155.058L71.8054 156.077L71.7285 156.039Z" fill="#722318"/>
<path d="M79.0463 150.683L78.1466 150.236C77.9427 150.135 77.7499 150.1 77.587 150.136L77.5151 150.152C77.4258 150.172 77.3803 150.268 77.3954 150.405L77.4136 150.568L79.9477 151.828L79.929 151.664C79.9134 151.528 79.839 151.371 79.7342 151.255L79.6498 151.162C79.4582 150.949 79.2501 150.784 79.0463 150.683Z" fill="#160A5B"/>
<path d="M78.7431 152.85L79.9468 151.828L77.4311 150.208L76.2441 151.206L78.7431 152.85Z" fill="#160A5B"/>
<path d="M77.8429 151.702L76.9427 151.254C76.7389 151.153 76.5459 151.118 76.3825 151.154L76.3105 151.17C76.2211 151.189 76.1753 151.286 76.1903 151.423L76.2082 151.586L78.7439 152.85L78.7254 152.687C78.7098 152.549 78.6356 152.392 78.5309 152.276L78.4465 152.182C78.255 151.969 78.0469 151.804 77.8429 151.702Z" fill="url(#paint22_linear_234_60180)"/>
<path d="M77.3086 152.135L77.2266 151.396L77.3034 151.434L77.3856 152.173L77.3086 152.135Z" fill="#722318"/>
<path d="M77.2266 151.396L78.4644 150.395L78.5298 150.427L77.3033 151.434L77.2266 151.396Z" fill="#722318"/>
<path d="M71.242 152.487L71.5668 155.65L72.383 154.96L72.0638 151.888C72.0174 151.44 72.236 150.861 72.552 150.596L76.0658 147.643C76.3791 147.38 76.6727 147.525 76.7219 147.968L77.0588 151.008L77.8648 150.327L77.5154 147.209C77.4061 146.233 76.7587 145.913 76.0681 146.493L72.3221 149.636C71.6245 150.222 71.1403 151.497 71.242 152.487Z" fill="#453C9E"/>
<path d="M77.2957 147.43L75.8483 147.283L71.6631 151.206L71.4824 153.627L71.5663 155.65L72.5032 156.121L72.532 153.599L72.5822 151.875L73.4501 150.628C73.4501 150.628 75.0192 149.354 75.0353 149.318C75.0512 149.282 77.2957 147.43 77.2957 147.43Z" fill="#453C9E"/>
<path d="M77.9933 151.473L77.0589 151.008L76.8105 148.768L77.7027 148.839L77.9669 148.885L77.9933 151.473Z" fill="#453C9E"/>
<path d="M77.9598 146.739L76.9551 146.244C76.9551 146.244 77.2195 146.795 77.2241 146.791C77.2286 146.788 77.5549 146.908 77.5604 146.907C77.566 146.906 77.9598 146.739 77.9598 146.739Z" fill="#453C9E"/>
<path d="M72.174 152.954L72.5031 156.121L73.3191 155.43L72.9957 152.354C72.9486 151.905 73.1667 151.326 73.4826 151.06L76.9947 148.104C77.3079 147.84 77.602 147.986 77.6515 148.429L77.9926 151.473L78.7982 150.791L78.4447 147.669C78.3341 146.692 77.686 146.372 76.9958 146.952L73.2513 150.1C72.5539 150.686 72.0711 151.963 72.174 152.954Z" fill="#160A5B"/>
<path d="M76.102 144.982C76.102 144.982 76.6976 148.074 76.5295 148.851C76.361 149.629 74.8895 151.126 74.0031 151.4C73.1159 151.675 73.4779 150.612 73.2783 149.944C73.0789 149.277 73.1136 147.824 73.1136 147.824L76.102 144.982Z" fill="#FCD1C5"/>
<path d="M73.1135 147.824L76.1018 144.982C76.1018 144.982 76.2238 145.616 76.3417 146.381C76.3395 146.385 75.2308 148.683 73.203 149.591C73.0891 148.867 73.1135 147.824 73.1135 147.824Z" fill="#E2B1A6"/>
<path d="M76.3255 145.213C76.3255 145.213 75.2664 148.543 72.6113 148.859L73.5127 145.212C73.5127 145.212 75.7557 144.576 75.8242 144.567C75.8926 144.559 76.3255 145.213 76.3255 145.213Z" fill="#4846A5"/>
<path d="M109.558 95.4636C106.713 98.3835 99.2235 102.287 96.9018 100.001C94.5801 97.7152 98.3058 90.1061 101.15 87.1862C103.995 84.2662 108.183 83.7522 110.505 86.0379C112.827 88.3236 112.403 92.5437 109.558 95.4636Z" fill="url(#paint23_radial_234_60180)"/>
<path d="M109.558 95.4636C106.713 98.3835 99.2235 102.287 96.9018 100.001C94.5801 97.7152 98.3058 90.1061 101.15 87.1862C103.995 84.2662 108.183 83.7522 110.505 86.0379C112.827 88.3236 112.403 92.5437 109.558 95.4636Z" fill="url(#paint24_linear_234_60180)"/>
<path d="M109.89 87.538C109.714 87.538 109.536 87.5035 109.363 87.431C108.666 87.1382 108.338 86.333 108.63 85.6329L112.854 75.4842C113.145 74.7844 113.946 74.4539 114.643 74.7471C115.34 75.0399 115.668 75.8451 115.376 76.5455L111.152 86.6936C110.933 87.2206 110.425 87.538 109.89 87.538Z" fill="#42E8E0"/>
<path d="M163.56 83.8247L161.025 84.856L169.782 106.605L172.317 105.574L163.56 83.8247Z" fill="#42E8E0"/>
<path d="M116.904 79.3579C121.596 79.3579 125.399 75.5343 125.399 70.8176C125.399 66.101 121.596 62.2773 116.904 62.2773C112.212 62.2773 108.408 66.101 108.408 70.8176C108.408 75.5343 112.212 79.3579 116.904 79.3579Z" fill="url(#paint25_radial_234_60180)"/>
<path d="M116.904 79.3579C121.596 79.3579 125.399 75.5343 125.399 70.8176C125.399 66.101 121.596 62.2773 116.904 62.2773C112.212 62.2773 108.408 66.101 108.408 70.8176C108.408 75.5343 112.212 79.3579 116.904 79.3579Z" fill="url(#paint26_linear_234_60180)"/>
<path d="M159.269 86.3257C159.269 102.904 149.449 116.343 137.335 116.343C125.221 116.343 115.4 102.904 115.4 86.3257C115.4 69.7476 125.221 64.7798 137.335 64.7798C149.449 64.7798 159.269 69.7476 159.269 86.3257Z" fill="url(#paint27_radial_234_60180)"/>
<path d="M159.269 86.3257C159.269 102.904 149.449 116.343 137.335 116.343C125.221 116.343 115.4 102.904 115.4 86.3257C115.4 69.7476 125.221 64.7798 137.335 64.7798C149.449 64.7798 159.269 69.7476 159.269 86.3257Z" fill="url(#paint28_linear_234_60180)"/>
<path d="M137.335 82.3814C145.603 82.3814 152.305 78.4914 152.305 73.6929C152.305 68.8944 145.603 65.0044 137.335 65.0044C129.067 65.0044 122.365 68.8944 122.365 73.6929C122.365 78.4914 129.067 82.3814 137.335 82.3814Z" fill="#393091"/>
<path d="M126.749 69.8635C132.595 66.4706 142.073 66.4706 147.92 69.8637C150.334 71.2652 151.749 73.0266 152.169 74.8503C152.766 72.2588 151.351 69.5409 147.92 67.5493C142.073 64.1562 132.595 64.1561 126.749 67.5491C123.318 69.5406 121.903 72.2582 122.5 74.8499C122.92 73.0262 124.334 71.2649 126.749 69.8635Z" fill="#42E8E0"/>
<path d="M120.056 53.0463L122.765 48.3556C124.358 46.6941 125.631 44.4884 126.277 42.271L129.02 37.5205L125.076 35.244C124.949 35.1581 124.818 35.0813 124.68 35.0155L124.677 35.0142V35.0143C123.556 34.4805 122.065 34.6234 120.429 35.5729C116.942 37.5968 114.115 42.5189 114.115 46.5666C114.115 48.5893 114.821 50.0108 115.963 50.6744V50.6745L115.964 50.6755L115.965 50.6757L120.056 53.0463Z" fill="url(#paint29_radial_234_60180)"/>
<path d="M128.954 47.8472C131.42 43.5539 131.42 38.9134 128.955 37.4822C126.489 36.0511 122.491 38.3712 120.025 42.6644C117.56 46.9576 117.559 51.5982 120.025 53.0293C122.491 54.4605 126.489 52.1404 128.954 47.8472Z" fill="#BCBEFF"/>
<path d="M138.205 75.444C150.56 75.444 160.576 65.3753 160.576 52.9549C160.576 40.5345 150.56 30.4658 138.205 30.4658C125.85 30.4658 115.834 40.5345 115.834 52.9549C115.834 65.3753 125.85 75.444 138.205 75.444Z" fill="url(#paint30_radial_234_60180)"/>
<path d="M138.205 75.444C150.56 75.444 160.576 65.3753 160.576 52.9549C160.576 40.5345 150.56 30.4658 138.205 30.4658C125.85 30.4658 115.834 40.5345 115.834 52.9549C115.834 65.3753 125.85 75.444 138.205 75.444Z" fill="url(#paint31_linear_234_60180)"/>
<path d="M150.724 68.1639L153.432 63.4732C155.026 61.8118 156.299 59.606 156.945 57.3887L159.688 52.6382L155.744 50.3617C155.617 50.2757 155.485 50.199 155.348 50.1332L155.345 50.1319V50.132C154.224 49.5982 152.733 49.741 151.097 50.6906C147.61 52.7145 144.783 57.6365 144.783 61.6842C144.783 63.707 145.489 65.1285 146.631 65.7921L146.631 65.7922L146.632 65.7932C146.632 65.7932 146.633 65.7933 146.633 65.7934L150.724 68.1639Z" fill="url(#paint32_radial_234_60180)"/>
<path d="M150.724 68.1639L153.432 63.4732C155.026 61.8118 156.299 59.606 156.945 57.3887L159.688 52.6382L155.744 50.3617C155.617 50.2757 155.485 50.199 155.348 50.1332L155.345 50.1319V50.132C154.224 49.5982 152.733 49.741 151.097 50.6906C147.61 52.7145 144.783 57.6365 144.783 61.6842C144.783 63.707 145.489 65.1285 146.631 65.7921L146.631 65.7922L146.632 65.7932C146.632 65.7932 146.633 65.7933 146.633 65.7934L150.724 68.1639Z" fill="url(#paint33_linear_234_60180)"/>
<path d="M161.474 56.7086C161.474 60.7563 158.647 65.6783 155.16 67.7022C151.673 69.7261 148.846 68.0855 148.846 64.0378C148.846 59.9901 151.673 55.0681 155.16 53.0441C158.647 51.0203 161.474 52.6609 161.474 56.7086Z" fill="#BCBEFF"/>
<path d="M149.136 64.0899C149.136 60.0422 151.963 55.1203 155.45 53.0963C156.658 52.395 157.787 52.1344 158.746 52.2608C157.727 52.0342 156.492 52.2709 155.16 53.0442C151.673 55.0681 148.846 59.9902 148.846 64.0378C148.846 66.6831 150.053 68.2995 151.863 68.5378C150.216 68.1714 149.136 66.591 149.136 64.0899Z" fill="white"/>
<path d="M158.351 62.2256C160.114 59.1568 160.114 55.8398 158.351 54.8168C156.589 53.7938 153.731 55.4523 151.969 58.5211C150.206 61.5899 150.206 64.9069 151.969 65.9299C153.731 66.9529 156.589 65.2944 158.351 62.2256Z" fill="#393091"/>
<path d="M157.753 54.5815C158.22 55.1355 158.493 55.9639 158.493 57.0249C158.493 59.9181 156.472 63.4363 153.98 64.8831C153.014 65.4434 152.12 65.6092 151.387 65.436C152.193 66.3926 153.582 66.528 155.16 65.6119C157.653 64.1652 159.674 60.647 159.674 57.7537C159.674 55.9809 158.914 54.8556 157.753 54.5815Z" fill="#453C9E"/>
<path d="M128.626 67.8324C131.522 66.6206 132.177 61.5502 130.089 56.5076C128.001 51.4649 123.96 48.3594 121.064 49.5713C118.168 50.7832 117.513 55.8535 119.601 60.8962C121.689 65.9389 125.729 69.0443 128.626 67.8324Z" fill="#393091"/>
<path d="M128.315 59.7779C128.108 61.3852 126.901 61.89 125.62 60.9055C124.339 59.9211 123.469 57.82 123.677 56.2127C123.885 54.6054 125.091 54.1006 126.372 55.0851C127.653 56.0695 128.523 58.1706 128.315 59.7779Z" fill="#42E8E0"/>
<path d="M125.502 66.0646C121.978 63.3558 119.584 57.5746 120.155 53.152C120.388 51.3491 121.078 50.0507 122.053 49.3281C120.21 49.5023 118.815 51.0732 118.463 53.7966C117.892 58.2192 120.285 64.0003 123.81 66.7093C125.897 68.3138 127.913 68.4801 129.328 67.4303C128.179 67.5389 126.856 67.1054 125.502 66.0646Z" fill="#453C9E"/>
<path d="M124.113 66.5659C120.589 63.857 118.195 58.0758 118.767 53.6532C119.031 51.6059 119.885 50.2103 121.076 49.5693C119.728 50.1269 118.75 51.5799 118.463 53.7972C117.892 58.2198 120.285 64.001 123.81 66.7099C125.702 68.1642 127.533 68.4333 128.914 67.6899C127.574 68.2442 125.87 67.916 124.113 66.5659Z" fill="#42E8E0"/>
<path d="M170.626 85.9985C169.714 90.6253 165.245 93.6335 160.642 92.7174C156.039 91.8013 153.047 87.3079 153.958 82.6811C154.87 78.0542 159.339 75.0461 163.942 75.9621C168.544 76.8782 171.537 81.3716 170.626 85.9985Z" fill="url(#paint34_radial_234_60180)"/>
<path d="M170.626 85.9985C169.714 90.6253 165.245 93.6335 160.642 92.7174C156.039 91.8013 153.047 87.3079 153.958 82.6811C154.87 78.0542 159.339 75.0461 163.942 75.9621C168.544 76.8782 171.537 81.3716 170.626 85.9985Z" fill="url(#paint35_linear_234_60180)"/>
<path d="M175.843 112.636C175.361 116.694 171.796 124.38 168.569 123.993C165.343 123.606 163.676 115.292 164.158 111.234C164.64 107.176 167.646 104.2 170.873 104.587C174.099 104.974 176.325 108.578 175.843 112.636Z" fill="url(#paint36_radial_234_60180)"/>
<path d="M175.843 112.636C175.361 116.694 171.796 124.38 168.569 123.993C165.343 123.606 163.676 115.292 164.158 111.234C164.64 107.176 167.646 104.2 170.873 104.587C174.099 104.974 176.325 108.578 175.843 112.636Z" fill="url(#paint37_linear_234_60180)"/>
<g opacity="0.5">
<path d="M36.4264 164.31C35.5894 171.074 32.1007 175.098 28.4328 170.059C23.73 163.599 23.273 157.283 23 153.509V116.663C23 122.427 24.9031 127.989 28.4328 133.213C36.1851 146.104 37.105 158.826 36.4264 164.31Z" fill="#42E8E0"/>
<path d="M145.242 171.063C142.349 171.141 139.428 171.169 136.484 171.145C113.439 170.955 92.0884 167.593 74.269 161.955C56.4694 157.175 55.3939 175.898 61.6063 187.462C66.0298 195.697 72.0156 197.952 74.269 198.801C92.0884 204.439 113.439 207.802 136.484 207.991C139.428 208.016 142.349 207.988 145.242 207.909C166.157 206.36 171.634 186.167 161.859 176.742C159.131 174.112 154.034 170.991 145.242 171.063Z" fill="#42E8E0"/>
<path d="M253.982 141.685C253.881 157.619 252.95 160.519 251.772 164.192C246.873 175.811 234.169 186.075 216.384 193.742C200.815 198.36 196.515 182.096 202.847 170.038C207.155 161.834 213.86 158.246 216.384 156.896C234.169 149.229 246.873 138.964 251.772 127.345C252.131 126.574 252.638 125.552 253.118 124.85C253.237 124.834 253.397 124.814 253.516 124.798C253.818 125.65 253.942 126.002 253.982 130.352V141.685V141.685Z" fill="#42E8E0"/>
</g>
<path d="M63.7118 36.7803L30.4367 17.4675C29.8236 17.1116 29.2632 17.085 28.8295 17.326L28.8292 17.3238L27.4258 18.1349L28.1078 18.2849C28.0064 18.5895 27.9484 18.9477 27.9484 19.3585V34.9718C27.9484 36.8139 29.0624 38.9538 30.4367 39.7514L43.9204 47.5773L46.5768 55.2861L45.5965 57.5786L47.0743 56.7297L50.2282 51.2383L63.7118 59.0642C63.8027 59.117 63.8923 59.1615 63.9807 59.2001L63.9795 59.2L63.7715 60.0927L65.2402 59.248L65.2319 59.2478C65.82 58.9791 66.2003 58.247 66.2003 57.1731V41.5598C66.2003 39.7178 65.0861 37.5779 63.7118 36.7803Z" fill="#25BFEC"/>
<path d="M62.2342 37.6291L28.959 18.3163C27.5848 17.5187 26.4707 18.3653 26.4707 20.2074V35.8206C26.4707 37.6627 27.5848 39.8026 28.959 40.6002L42.4427 48.4261L45.5966 57.5785L48.7505 52.0871L62.2342 59.913C63.6085 60.7106 64.7225 59.864 64.7225 58.0219V42.4087C64.7225 40.5666 63.6085 38.4267 62.2342 37.6291Z" fill="#05A4C9"/>
<path d="M44.4156 41.8921V39.6291C46.0873 38.941 46.9233 37.8167 46.9233 36.2563C46.9233 36.193 46.9208 36.1282 46.9158 36.0619C46.9009 35.6502 46.8017 35.2875 46.6182 34.9736C46.4346 34.6598 46.2015 34.4208 45.9187 34.2567C45.6409 34.0955 45.4276 34.0782 45.2787 34.2049C45.1498 34.3143 45.0853 34.5101 45.0853 34.7922C45.0853 34.8383 45.0878 34.8858 45.0927 34.9347C45.0927 35.1766 45.1374 35.4846 45.2267 35.859L43.1357 35.1722C43.0068 34.5216 42.9422 34.058 42.9422 33.7816C42.9273 33.606 42.9199 33.4376 42.9199 33.2763C42.9249 32.4385 43.1357 31.8641 43.5524 31.5532C44.0485 31.1847 44.8249 31.307 45.8815 31.9203C46.948 32.5393 47.7678 33.3347 48.3408 34.3064C48.9137 35.2782 49.2002 36.3398 49.2002 37.4915C49.2002 38.5222 48.9472 39.3643 48.4412 40.0179C47.9352 40.6715 47.2904 41.1307 46.5065 41.3955V43.1057L44.4156 41.8921ZM44.3486 45.576V43.0107L46.6033 44.3193V46.8845L44.3486 45.576Z" fill="white"/>
<path d="M248.126 19.6119L214.851 0.29904C214.238 -0.0568118 213.677 -0.08349 213.244 0.157566L213.243 0.155273L211.84 0.96637L212.522 1.11644C212.421 1.42104 212.362 1.77919 212.362 2.19011V17.8034C212.362 19.6454 213.477 21.7853 214.851 22.5829L228.334 30.4089L230.991 38.1177L230.011 40.4101L231.488 39.5612L234.642 34.0699L248.126 41.8957C248.217 41.9485 248.306 41.9931 248.395 42.0316L248.394 42.0315L248.186 42.9243L249.654 42.0796L249.646 42.0793C250.234 41.8106 250.614 41.0785 250.614 40.0047V24.3914C250.614 22.5494 249.5 20.4095 248.126 19.6119Z" fill="#00AFA2"/>
<path d="M246.648 20.4607L213.373 1.14786C211.999 0.350198 210.885 1.19688 210.885 3.03893V18.6522C210.885 20.4942 211.999 22.6341 213.373 23.4318L226.857 31.2577L230.011 40.41L233.165 34.9187L246.648 42.7446C248.023 43.5422 249.137 42.6955 249.137 40.8535V25.2402C249.137 23.3982 248.023 21.2583 246.648 20.4607Z" fill="#42E8E0"/>
<path d="M229.549 28.2862V25.8598L231.653 27.0813V29.5078L229.549 28.2862ZM230.227 25.3339L229.577 14.5972L231.775 15.8725L230.997 25.7812L230.227 25.3339Z" fill="white"/>
<defs>
<linearGradient id="paint0_linear_234_60180" x1="173.35" y1="161.501" x2="100.775" y2="161.501" gradientUnits="userSpaceOnUse">
<stop stop-color="#5761D7"/>
<stop offset="0.0725775" stop-color="#5472D8"/>
<stop offset="0.27907" stop-color="#4E9CDB"/>
<stop offset="0.480102" stop-color="#49BDDD"/>
<stop offset="0.671509" stop-color="#45D5DF"/>
<stop offset="0.849265" stop-color="#43E3E0"/>
<stop offset="1" stop-color="#42E8E0"/>
</linearGradient>
<linearGradient id="paint1_linear_234_60180" x1="173.35" y1="155.888" x2="100.775" y2="155.888" gradientUnits="userSpaceOnUse">
<stop stop-color="#5761D7"/>
<stop offset="0.0725775" stop-color="#5472D8"/>
<stop offset="0.27907" stop-color="#4E9CDB"/>
<stop offset="0.480102" stop-color="#49BDDD"/>
<stop offset="0.671509" stop-color="#45D5DF"/>
<stop offset="0.849265" stop-color="#43E3E0"/>
<stop offset="1" stop-color="#42E8E0"/>
</linearGradient>
<linearGradient id="paint2_linear_234_60180" x1="173.35" y1="150.276" x2="100.775" y2="150.276" gradientUnits="userSpaceOnUse">
<stop stop-color="#5761D7"/>
<stop offset="0.0725775" stop-color="#5472D8"/>
<stop offset="0.27907" stop-color="#4E9CDB"/>
<stop offset="0.480102" stop-color="#49BDDD"/>
<stop offset="0.671509" stop-color="#45D5DF"/>
<stop offset="0.849265" stop-color="#43E3E0"/>
<stop offset="1" stop-color="#42E8E0"/>
</linearGradient>
<linearGradient id="paint3_linear_234_60180" x1="173.35" y1="144.664" x2="100.775" y2="144.664" gradientUnits="userSpaceOnUse">
<stop stop-color="#5761D7"/>
<stop offset="0.0725775" stop-color="#5472D8"/>
<stop offset="0.27907" stop-color="#4E9CDB"/>
<stop offset="0.480102" stop-color="#49BDDD"/>
<stop offset="0.671509" stop-color="#45D5DF"/>
<stop offset="0.849265" stop-color="#43E3E0"/>
<stop offset="1" stop-color="#42E8E0"/>
</linearGradient>
<linearGradient id="paint4_linear_234_60180" x1="173.35" y1="153.082" x2="100.775" y2="153.082" gradientUnits="userSpaceOnUse">
<stop stop-color="#5761D7"/>
<stop offset="0.0725775" stop-color="#5472D8"/>
<stop offset="0.27907" stop-color="#4E9CDB"/>
<stop offset="0.480102" stop-color="#49BDDD"/>
<stop offset="0.671509" stop-color="#45D5DF"/>
<stop offset="0.849265" stop-color="#43E3E0"/>
<stop offset="1" stop-color="#42E8E0"/>
</linearGradient>
<linearGradient id="paint5_linear_234_60180" x1="181.064" y1="135.138" x2="93.0625" y2="135.138" gradientUnits="userSpaceOnUse">
<stop stop-color="#5761D7"/>
<stop offset="0.0725775" stop-color="#5472D8"/>
<stop offset="0.27907" stop-color="#4E9CDB"/>
<stop offset="0.480102" stop-color="#49BDDD"/>
<stop offset="0.671509" stop-color="#45D5DF"/>
<stop offset="0.849265" stop-color="#43E3E0"/>
<stop offset="1" stop-color="#42E8E0"/>
</linearGradient>
<linearGradient id="paint6_linear_234_60180" x1="181.064" y1="128.332" x2="93.0625" y2="128.332" gradientUnits="userSpaceOnUse">
<stop stop-color="#5761D7"/>
<stop offset="0.0725775" stop-color="#5472D8"/>
<stop offset="0.27907" stop-color="#4E9CDB"/>
<stop offset="0.480102" stop-color="#49BDDD"/>
<stop offset="0.671509" stop-color="#45D5DF"/>
<stop offset="0.849265" stop-color="#43E3E0"/>
<stop offset="1" stop-color="#42E8E0"/>
</linearGradient>
<linearGradient id="paint7_linear_234_60180" x1="181.064" y1="121.527" x2="93.0625" y2="121.527" gradientUnits="userSpaceOnUse">
<stop stop-color="#5761D7"/>
<stop offset="0.0725775" stop-color="#5472D8"/>
<stop offset="0.27907" stop-color="#4E9CDB"/>
<stop offset="0.480102" stop-color="#49BDDD"/>
<stop offset="0.671509" stop-color="#45D5DF"/>
<stop offset="0.849265" stop-color="#43E3E0"/>
<stop offset="1" stop-color="#42E8E0"/>
</linearGradient>
<linearGradient id="paint8_linear_234_60180" x1="181.064" y1="114.722" x2="93.0625" y2="114.722" gradientUnits="userSpaceOnUse">
<stop stop-color="#5761D7"/>
<stop offset="0.0725775" stop-color="#5472D8"/>
<stop offset="0.27907" stop-color="#4E9CDB"/>
<stop offset="0.480102" stop-color="#49BDDD"/>
<stop offset="0.671509" stop-color="#45D5DF"/>
<stop offset="0.849265" stop-color="#43E3E0"/>
<stop offset="1" stop-color="#42E8E0"/>
</linearGradient>
<linearGradient id="paint9_linear_234_60180" x1="181.063" y1="124.93" x2="93.0625" y2="124.93" gradientUnits="userSpaceOnUse">
<stop stop-color="#5761D7"/>
<stop offset="0.0725775" stop-color="#5472D8"/>
<stop offset="0.27907" stop-color="#4E9CDB"/>
<stop offset="0.480102" stop-color="#49BDDD"/>
<stop offset="0.671509" stop-color="#45D5DF"/>
<stop offset="0.849265" stop-color="#43E3E0"/>
<stop offset="1" stop-color="#42E8E0"/>
</linearGradient>
<linearGradient id="paint10_linear_234_60180" x1="181.064" y1="114.722" x2="93.0625" y2="114.722" gradientUnits="userSpaceOnUse">
<stop stop-color="#5761D7"/>
<stop offset="0.0725775" stop-color="#5472D8"/>
<stop offset="0.27907" stop-color="#4E9CDB"/>
<stop offset="0.480102" stop-color="#49BDDD"/>
<stop offset="0.671509" stop-color="#45D5DF"/>
<stop offset="0.849265" stop-color="#43E3E0"/>
<stop offset="1" stop-color="#42E8E0"/>
</linearGradient>
<linearGradient id="paint11_linear_234_60180" x1="181.062" y1="126.987" x2="93.0625" y2="126.987" gradientUnits="userSpaceOnUse">
<stop stop-color="#5761D7"/>
<stop offset="0.0725775" stop-color="#5472D8"/>
<stop offset="0.27907" stop-color="#4E9CDB"/>
<stop offset="0.480102" stop-color="#49BDDD"/>
<stop offset="0.671509" stop-color="#45D5DF"/>
<stop offset="0.849265" stop-color="#43E3E0"/>
<stop offset="1" stop-color="#42E8E0"/>
</linearGradient>
<linearGradient id="paint12_linear_234_60180" x1="179.458" y1="113.148" x2="219.826" y2="123.221" gradientUnits="userSpaceOnUse">
<stop stop-color="#42E8E0"/>
<stop offset="0.0046746" stop-color="#42E6DF"/>
<stop offset="0.135768" stop-color="#40B6CB"/>
<stop offset="0.270665" stop-color="#3E8DB9"/>
<stop offset="0.407448" stop-color="#3C6BAA"/>
<stop offset="0.546675" stop-color="#3B519F"/>
<stop offset="0.68935" stop-color="#3A3F97"/>
<stop offset="0.8375" stop-color="#393493"/>
<stop offset="1" stop-color="#393091"/>
</linearGradient>
<linearGradient id="paint13_linear_234_60180" x1="178.327" y1="83.0547" x2="214.495" y2="77.1926" gradientUnits="userSpaceOnUse">
<stop stop-color="#42E8E0"/>
<stop offset="0.0046746" stop-color="#42E6DF"/>
<stop offset="0.135768" stop-color="#40B6CB"/>
<stop offset="0.270665" stop-color="#3E8DB9"/>
<stop offset="0.407448" stop-color="#3C6BAA"/>
<stop offset="0.546675" stop-color="#3B519F"/>
<stop offset="0.68935" stop-color="#3A3F97"/>
<stop offset="0.8375" stop-color="#393493"/>
<stop offset="1" stop-color="#393091"/>
</linearGradient>
<linearGradient id="paint14_linear_234_60180" x1="187.175" y1="98.6788" x2="196.446" y2="99.2137" gradientUnits="userSpaceOnUse">
<stop stop-color="#5761D7"/>
<stop offset="0.0725775" stop-color="#5472D8"/>
<stop offset="0.27907" stop-color="#4E9CDB"/>
<stop offset="0.480102" stop-color="#49BDDD"/>
<stop offset="0.671509" stop-color="#45D5DF"/>
<stop offset="0.849265" stop-color="#43E3E0"/>
<stop offset="1" stop-color="#42E8E0"/>
</linearGradient>
<linearGradient id="paint15_linear_234_60180" x1="176.264" y1="79.69" x2="193.741" y2="71.2434" gradientUnits="userSpaceOnUse">
<stop stop-color="#42E8E0"/>
<stop offset="0.0046746" stop-color="#42E6DF"/>
<stop offset="0.135768" stop-color="#40B6CB"/>
<stop offset="0.270665" stop-color="#3E8DB9"/>
<stop offset="0.407448" stop-color="#3C6BAA"/>
<stop offset="0.546675" stop-color="#3B519F"/>
<stop offset="0.68935" stop-color="#3A3F97"/>
<stop offset="0.8375" stop-color="#393493"/>
<stop offset="1" stop-color="#393091"/>
</linearGradient>
<linearGradient id="paint16_linear_234_60180" x1="186.254" y1="87.4157" x2="217.003" y2="75.2999" gradientUnits="userSpaceOnUse">
<stop stop-color="#42E8E0"/>
<stop offset="0.0046746" stop-color="#42E6DF"/>
<stop offset="0.135768" stop-color="#40B6CB"/>
<stop offset="0.270665" stop-color="#3E8DB9"/>
<stop offset="0.407448" stop-color="#3C6BAA"/>
<stop offset="0.546675" stop-color="#3B519F"/>
<stop offset="0.68935" stop-color="#3A3F97"/>
<stop offset="0.8375" stop-color="#393493"/>
<stop offset="1" stop-color="#393091"/>
</linearGradient>
<linearGradient id="paint17_linear_234_60180" x1="83.4012" y1="156.698" x2="49.4153" y2="170.453" gradientUnits="userSpaceOnUse">
<stop stop-color="#42E8E0"/>
<stop offset="0.0046746" stop-color="#42E6DF"/>
<stop offset="0.135768" stop-color="#40B6CB"/>
<stop offset="0.270665" stop-color="#3E8DB9"/>
<stop offset="0.407448" stop-color="#3C6BAA"/>
<stop offset="0.546675" stop-color="#3B519F"/>
<stop offset="0.68935" stop-color="#3A3F97"/>
<stop offset="0.8375" stop-color="#393493"/>
<stop offset="1" stop-color="#393091"/>
</linearGradient>
<linearGradient id="paint18_linear_234_60180" x1="80.8229" y1="110.339" x2="44.5144" y2="117.933" gradientUnits="userSpaceOnUse">
<stop stop-color="#42E8E0"/>
<stop offset="0.0046746" stop-color="#42E6DF"/>
<stop offset="0.135768" stop-color="#40B6CB"/>
<stop offset="0.270665" stop-color="#3E8DB9"/>
<stop offset="0.407448" stop-color="#3C6BAA"/>
<stop offset="0.546675" stop-color="#3B519F"/>
<stop offset="0.68935" stop-color="#3A3F97"/>
<stop offset="0.8375" stop-color="#393493"/>
<stop offset="1" stop-color="#393091"/>
</linearGradient>
<linearGradient id="paint19_linear_234_60180" x1="54.7091" y1="83.3213" x2="53.1874" y2="83.1887" gradientUnits="userSpaceOnUse">
<stop stop-color="#5761D7"/>
<stop offset="0.0725775" stop-color="#5472D8"/>
<stop offset="0.27907" stop-color="#4E9CDB"/>
<stop offset="0.480102" stop-color="#49BDDD"/>
<stop offset="0.671509" stop-color="#45D5DF"/>
<stop offset="0.849265" stop-color="#43E3E0"/>
<stop offset="1" stop-color="#42E8E0"/>
</linearGradient>
<linearGradient id="paint20_linear_234_60180" x1="106.626" y1="152.805" x2="71.9008" y2="168.175" gradientUnits="userSpaceOnUse">
<stop stop-color="#42E8E0"/>
<stop offset="0.106681" stop-color="#40C1CF"/>
<stop offset="0.254912" stop-color="#3E91BB"/>
<stop offset="0.396024" stop-color="#3C6CAB"/>
<stop offset="0.526294" stop-color="#3B519F"/>
<stop offset="0.641714" stop-color="#3A4198"/>
<stop offset="0.73036" stop-color="#3A3B96"/>
<stop offset="0.838916" stop-color="#393493"/>
<stop offset="1" stop-color="#393091"/>
</linearGradient>
<linearGradient id="paint21_linear_234_60180" x1="73.3096" y1="156.749" x2="70.6369" y2="156.516" gradientUnits="userSpaceOnUse">
<stop stop-color="#5761D7"/>
<stop offset="0.0725775" stop-color="#5472D8"/>
<stop offset="0.27907" stop-color="#4E9CDB"/>
<stop offset="0.480102" stop-color="#49BDDD"/>
<stop offset="0.671509" stop-color="#45D5DF"/>
<stop offset="0.849265" stop-color="#43E3E0"/>
<stop offset="1" stop-color="#42E8E0"/>
</linearGradient>
<linearGradient id="paint22_linear_234_60180" x1="78.8096" y1="152.098" x2="76.1432" y2="151.865" gradientUnits="userSpaceOnUse">
<stop stop-color="#5761D7"/>
<stop offset="0.0725775" stop-color="#5472D8"/>
<stop offset="0.27907" stop-color="#4E9CDB"/>
<stop offset="0.480102" stop-color="#49BDDD"/>
<stop offset="0.671509" stop-color="#45D5DF"/>
<stop offset="0.849265" stop-color="#43E3E0"/>
<stop offset="1" stop-color="#42E8E0"/>
</linearGradient>
<radialGradient id="paint23_radial_234_60180" cx="0" cy="0" r="1" gradientUnits="userSpaceOnUse" gradientTransform="translate(116.683 82.7049) rotate(44.5532) scale(15.1059 24.8878)">
<stop stop-color="#C0BFF6"/>
<stop offset="1" stop-color="#393091"/>
</radialGradient>
<linearGradient id="paint24_linear_234_60180" x1="111.67" y1="90.3395" x2="98.2594" y2="90.9141" gradientUnits="userSpaceOnUse">
<stop stop-color="#42E8E0"/>
<stop offset="0.0046746" stop-color="#42E6DF"/>
<stop offset="0.135768" stop-color="#40B6CB"/>
<stop offset="0.270665" stop-color="#3E8DB9"/>
<stop offset="0.407448" stop-color="#3C6BAA"/>
<stop offset="0.546675" stop-color="#3B519F"/>
<stop offset="0.68935" stop-color="#3A3F97"/>
<stop offset="0.8375" stop-color="#393493"/>
<stop offset="1" stop-color="#393091"/>
</linearGradient>
<radialGradient id="paint25_radial_234_60180" cx="0" cy="0" r="1" gradientUnits="userSpaceOnUse" gradientTransform="translate(157.537 43.5325) rotate(11.2552) scale(49.0495 49.2887)">
<stop stop-color="#C0BFF6"/>
<stop offset="1" stop-color="#393091"/>
</radialGradient>
<linearGradient id="paint26_linear_234_60180" x1="112.34" y1="78.0208" x2="121.536" y2="63.6583" gradientUnits="userSpaceOnUse">
<stop stop-color="#42E8E0"/>
<stop offset="0.0046746" stop-color="#42E6DF"/>
<stop offset="0.135768" stop-color="#40B6CB"/>
<stop offset="0.270665" stop-color="#3E8DB9"/>
<stop offset="0.407448" stop-color="#3C6BAA"/>
<stop offset="0.546675" stop-color="#3B519F"/>
<stop offset="0.68935" stop-color="#3A3F97"/>
<stop offset="0.8375" stop-color="#393493"/>
<stop offset="1" stop-color="#393091"/>
</linearGradient>
<radialGradient id="paint27_radial_234_60180" cx="0" cy="0" r="1" gradientUnits="userSpaceOnUse" gradientTransform="translate(150.277 81.8275) scale(37.6956 51.5846)">
<stop stop-color="#C0BFF6"/>
<stop offset="1" stop-color="#393091"/>
</radialGradient>
<linearGradient id="paint28_linear_234_60180" x1="137.335" y1="116.343" x2="137.335" y2="64.7798" gradientUnits="userSpaceOnUse">
<stop stop-color="#42E8E0"/>
<stop offset="0.0046746" stop-color="#42E6DF"/>
<stop offset="0.135768" stop-color="#40B6CB"/>
<stop offset="0.270665" stop-color="#3E8DB9"/>
<stop offset="0.407448" stop-color="#3C6BAA"/>
<stop offset="0.546675" stop-color="#3B519F"/>
<stop offset="0.68935" stop-color="#3A3F97"/>
<stop offset="0.8375" stop-color="#393493"/>
<stop offset="1" stop-color="#393091"/>
</linearGradient>
<radialGradient id="paint29_radial_234_60180" cx="0" cy="0" r="1" gradientUnits="userSpaceOnUse" gradientTransform="translate(115.251 18.0464) scale(26.5455 26.6857)">
<stop stop-color="#C0BFF6"/>
<stop offset="1" stop-color="#393091"/>
</radialGradient>
<radialGradient id="paint30_radial_234_60180" cx="0" cy="0" r="1" gradientUnits="userSpaceOnUse" gradientTransform="translate(152.166 49.6232) scale(37.8112 38.0108)">
<stop stop-color="#C0BFF6"/>
<stop offset="1" stop-color="#393091"/>
</radialGradient>
<linearGradient id="paint31_linear_234_60180" x1="135.091" y1="75.2279" x2="141.383" y2="30.691" gradientUnits="userSpaceOnUse">
<stop stop-color="#42E8E0"/>
<stop offset="0.0046746" stop-color="#42E6DF"/>
<stop offset="0.135768" stop-color="#40B6CB"/>
<stop offset="0.270665" stop-color="#3E8DB9"/>
<stop offset="0.407448" stop-color="#3C6BAA"/>
<stop offset="0.546675" stop-color="#3B519F"/>
<stop offset="0.68935" stop-color="#3A3F97"/>
<stop offset="0.8375" stop-color="#393493"/>
<stop offset="1" stop-color="#393091"/>
</linearGradient>
<radialGradient id="paint32_radial_234_60180" cx="0" cy="0" r="1" gradientUnits="userSpaceOnUse" gradientTransform="translate(151.864 49.2187) scale(17.9568 18.0515)">
<stop stop-color="#C0BFF6"/>
<stop offset="1" stop-color="#393091"/>
</radialGradient>
<linearGradient id="paint33_linear_234_60180" x1="148.248" y1="67.258" x2="154.617" y2="49.8515" gradientUnits="userSpaceOnUse">
<stop stop-color="#42E8E0"/>
<stop offset="0.0046746" stop-color="#42E6DF"/>
<stop offset="0.135768" stop-color="#40B6CB"/>
<stop offset="0.270665" stop-color="#3E8DB9"/>
<stop offset="0.407448" stop-color="#3C6BAA"/>
<stop offset="0.546675" stop-color="#3B519F"/>
<stop offset="0.68935" stop-color="#3A3F97"/>
<stop offset="0.8375" stop-color="#393493"/>
<stop offset="1" stop-color="#393091"/>
</linearGradient>
<radialGradient id="paint34_radial_234_60180" cx="0" cy="0" r="1" gradientUnits="userSpaceOnUse" gradientTransform="translate(167.326 78.766) rotate(11.2552) scale(17.7276 17.8141)">
<stop stop-color="#C0BFF6"/>
<stop offset="1" stop-color="#393091"/>
</radialGradient>
<linearGradient id="paint35_linear_234_60180" x1="155.419" y1="89.3598" x2="169.215" y2="79.3888" gradientUnits="userSpaceOnUse">
<stop stop-color="#42E8E0"/>
<stop offset="0.0046746" stop-color="#42E6DF"/>
<stop offset="0.135768" stop-color="#40B6CB"/>
<stop offset="0.270665" stop-color="#3E8DB9"/>
<stop offset="0.407448" stop-color="#3C6BAA"/>
<stop offset="0.546675" stop-color="#3B519F"/>
<stop offset="0.68935" stop-color="#3A3F97"/>
<stop offset="0.8375" stop-color="#393493"/>
<stop offset="1" stop-color="#393091"/>
</linearGradient>
<radialGradient id="paint36_radial_234_60180" cx="0" cy="0" r="1" gradientUnits="userSpaceOnUse" gradientTransform="translate(178.05 105.855) rotate(6.83999) scale(15.068 24.9503)">
<stop stop-color="#C0BFF6"/>
<stop offset="1" stop-color="#393091"/>
</radialGradient>
<linearGradient id="paint37_linear_234_60180" x1="163.879" y1="113.59" x2="175.565" y2="114.977" gradientUnits="userSpaceOnUse">
<stop stop-color="#42E8E0"/>
<stop offset="0.0046746" stop-color="#42E6DF"/>
<stop offset="0.135768" stop-color="#40B6CB"/>
<stop offset="0.270665" stop-color="#3E8DB9"/>
<stop offset="0.407448" stop-color="#3C6BAA"/>
<stop offset="0.546675" stop-color="#3B519F"/>
<stop offset="0.68935" stop-color="#3A3F97"/>
<stop offset="0.8375" stop-color="#393493"/>
<stop offset="1" stop-color="#393091"/>
</linearGradient>
</defs>
</svg>
