<svg width="930" height="594" viewBox="0 0 930 594" fill="none" xmlns="http://www.w3.org/2000/svg">
<path opacity="0.1" d="M948.645 153.367L922.917 168.207L922.916 216.02L694.377 347.839L677.011 337.823L794.9 269.824L794.9 257.667L815.8 245.612L815.801 217.653L856.333 194.274C858.032 194.984 860.414 194.904 861.944 194.022C863.642 193.042 863.642 191.455 861.944 190.476C860.247 189.497 857.495 189.497 855.797 190.476C854.267 191.359 854.13 192.733 855.36 193.713L814.828 217.092L814.827 245.051L794.9 256.544L794.901 211.773L794.658 211.633L783.138 204.989L852.246 165.127L852.247 120.3L901.341 91.9837C903.039 92.6932 905.421 92.6144 906.952 91.7313C908.649 90.7524 908.649 89.1647 906.952 88.1855C905.255 87.2066 902.503 87.2066 900.805 88.1858C899.274 89.0686 899.137 90.4424 900.367 91.4221L851.273 119.739L851.272 164.567L782.165 204.427L669.812 139.622L669.813 89.4774C670.757 89.4163 671.675 89.1881 672.4 88.77C674.097 87.7911 674.097 86.2039 672.4 85.2245C670.702 84.2453 667.95 84.2456 666.253 85.2245C664.555 86.2039 664.555 87.7911 666.253 88.77C666.977 89.1881 667.895 89.4163 668.839 89.4774L668.838 140.183L669.082 140.323L736.661 179.303L687.412 179.304L647.589 156.334C648.818 155.354 648.682 153.98 647.151 153.097C645.453 152.118 642.701 152.118 641.004 153.097C639.306 154.076 639.306 155.664 641.004 156.643C642.535 157.526 644.916 157.605 646.615 156.895L687.15 180.276L738.324 180.276V180.262L793.927 212.334L793.927 269.263L676.037 337.261L660.229 328.143L743.655 280.022C745.354 280.731 747.736 280.653 749.266 279.77C750.964 278.791 750.964 277.203 749.267 276.224C747.569 275.245 744.817 275.245 743.12 276.224C741.589 277.107 741.452 278.48 742.682 279.46L659.254 327.581L643.992 318.778L743.787 261.217L770.909 261.216C771.07 261.687 771.465 262.137 772.099 262.503C773.796 263.482 776.548 263.482 778.246 262.503C779.943 261.524 779.943 259.936 778.246 258.957C776.549 257.978 773.796 257.978 772.099 258.957C771.466 259.322 771.07 259.772 770.909 260.244L743.526 260.244L743.413 260.309L643.017 318.216L636.857 314.663L636.613 314.802L632.115 317.396L608.205 303.606L608.206 284.414L627.961 273.019V273.07L658.958 273.069L693.084 253.385C694.783 254.095 697.165 254.016 698.695 253.133C700.393 252.154 700.393 250.566 698.696 249.587C696.998 248.608 694.246 248.609 692.549 249.587C691.018 250.47 690.881 251.844 692.111 252.824L658.697 272.097L629.558 272.098L687.629 238.602C689.334 239.369 691.793 239.311 693.361 238.406C695.059 237.427 695.059 235.84 693.361 234.861C691.664 233.881 688.912 233.881 687.214 234.861C685.721 235.722 685.544 237.053 686.678 238.027L614.243 279.808V270.572L657.339 245.714V228.164L692.427 207.926C694.126 208.635 696.507 208.556 698.038 207.673C699.736 206.694 699.736 205.107 698.038 204.128C696.341 203.149 693.589 203.149 691.891 204.128C690.36 205.011 690.223 206.384 691.454 207.365L656.365 227.603V245.153L613.269 270.011V280.369L607.233 283.851L607.232 304.168L631.14 317.959L615.43 327.02L566.23 298.641L566.231 266.381L599.638 247.112C601.344 247.879 603.802 247.821 605.371 246.916C607.068 245.937 607.068 244.35 605.371 243.37C603.673 242.392 600.921 242.392 599.224 243.37C597.731 244.232 597.554 245.563 598.687 246.538L566.231 265.258L566.231 239.197L591.874 224.407L591.875 175.383C592.819 175.321 593.737 175.093 594.462 174.675C596.159 173.696 596.159 172.108 594.462 171.13C592.764 170.151 590.012 170.151 588.315 171.13C586.617 172.109 586.617 173.696 588.314 174.675C589.039 175.093 589.957 175.321 590.901 175.383L590.9 223.846L566.231 238.075L566.233 151.629H565.26L565.257 299.203L614.455 327.582L596.813 337.758L532.509 300.667L532.511 212.333L501.601 194.504L501.602 161.277L474.309 145.534C475.539 144.554 475.402 143.181 473.871 142.298C472.174 141.318 469.422 141.318 467.724 142.298C466.027 143.277 466.027 144.864 467.724 145.843C469.255 146.726 471.637 146.805 473.336 146.095L500.628 161.838L500.628 195.065L531.537 212.894L531.536 301.23L595.838 338.32L582.762 345.863L495.978 295.805L495.98 220.437L495.736 220.297L418.918 175.989C420.149 175.009 420.012 173.635 418.481 172.752C416.784 171.773 414.031 171.773 412.334 172.752C410.637 173.731 410.636 175.318 412.334 176.298C413.865 177.18 416.246 177.259 417.945 176.55L495.006 220.998L495.005 296.367L495.248 296.508L581.787 346.425L560.596 358.648L416.206 275.365V237.862L415.962 237.721L295.081 167.998C296.312 167.017 296.175 165.644 294.644 164.761C292.947 163.782 290.194 163.782 288.497 164.761C286.799 165.74 286.799 167.328 288.497 168.306C290.028 169.19 292.409 169.268 294.108 168.559L415.232 238.423V275.926L415.477 276.067L496.446 322.77L432.219 322.772L357.866 279.886C359.096 278.905 358.959 277.532 357.429 276.648C355.731 275.67 352.979 275.67 351.282 276.649C349.584 277.628 349.584 279.215 351.282 280.194C352.812 281.077 355.194 281.156 356.893 280.446L431.958 323.744L498.132 323.743L559.621 359.21L534.99 373.417L482.136 342.931H397.269L300.743 287.255L247.195 287.257L225.363 274.664C226.593 273.684 226.456 272.311 224.926 271.428C223.228 270.449 220.476 270.449 218.779 271.428C217.081 272.407 217.081 273.994 218.778 274.973C220.309 275.856 222.69 275.935 224.39 275.226L246.933 288.229L300.482 288.228L373.42 330.298H310.42L280.08 312.798C281.31 311.818 281.173 310.445 279.643 309.562C277.945 308.583 275.193 308.583 273.496 309.562C271.798 310.541 271.798 312.128 273.496 313.108C275.026 313.99 277.407 314.069 279.106 313.36L310.159 331.271H375.106L397.008 343.903H481.875L496.664 352.434H460.585L460.472 352.499L442.375 362.938L366.972 362.939L345.701 350.671H303.048C302.887 350.2 302.492 349.749 301.859 349.384C300.161 348.405 297.409 348.405 295.712 349.385C294.014 350.364 294.014 351.951 295.712 352.93C297.409 353.909 300.161 353.909 301.859 352.93C302.492 352.565 302.888 352.115 303.048 351.643H345.44L366.711 363.912L440.689 363.91L420.314 375.663C418.615 374.954 416.233 375.032 414.702 375.915C413.005 376.894 413.005 378.482 414.702 379.46C416.4 380.44 419.152 380.44 420.849 379.46C422.379 378.578 422.517 377.205 421.288 376.225L460.846 353.407H498.35L534.015 373.979L520.837 381.58L521.567 382.002L529.316 386.472L504.665 386.474L472.438 367.885C473.668 366.905 473.531 365.531 472 364.649C470.303 363.669 467.551 363.669 465.853 364.649C464.156 365.627 464.156 367.215 465.853 368.194C467.383 369.077 469.764 369.156 471.463 368.447L504.404 387.446L531.002 387.445L549.04 397.849L537.947 404.247H518.273L518.16 404.312L500.975 414.224H488.067L458.916 397.409C460.223 396.426 460.115 395.018 458.555 394.118C456.858 393.139 454.106 393.139 452.408 394.118C450.711 395.097 450.711 396.685 452.408 397.664C453.909 398.529 456.232 398.626 457.924 397.961L487.806 415.196H501.236L501.349 415.132L518.534 405.22H536.261L500.802 425.672H481.657L441.745 402.653H321.388L246.735 359.594C248.027 358.611 247.914 357.21 246.36 356.313C244.662 355.334 241.91 355.334 240.213 356.313C238.515 357.292 238.515 358.88 240.213 359.859C241.719 360.728 244.053 360.821 245.747 360.148L321.127 403.625H441.483L481.395 426.645H501.064L501.176 426.58L550.015 398.411L562.827 405.801L507.642 437.633H468.72L436.607 419.11L354.193 419.112C354.033 418.64 353.637 418.19 353.003 417.825C351.306 416.846 348.554 416.846 346.856 417.825C345.159 418.804 345.159 420.391 346.856 421.37C348.554 422.35 351.306 422.35 353.003 421.37C353.636 421.005 354.032 420.556 354.193 420.084L436.346 420.082L466.771 437.633H350.638L350.526 437.697L239.854 501.533C238.154 500.824 235.773 500.903 234.242 501.786C232.545 502.765 232.545 504.352 234.242 505.332C235.94 506.311 238.692 506.311 240.389 505.332C241.92 504.449 242.057 503.076 240.828 502.096L350.899 438.605H507.903L508.016 438.541L563.801 406.363L578.358 414.759L501.404 459.147H365.902L365.79 459.212L247.134 527.652L108.88 527.654L28.2539 481.147C29.4822 480.167 29.3447 478.794 27.8147 477.912C26.1173 476.933 23.3652 476.933 21.6676 477.912C19.9702 478.891 19.9702 480.478 21.6676 481.458C23.1981 482.341 25.5791 482.419 27.2784 481.71L108.619 528.627L247.395 528.625L247.508 528.561L366.163 460.12H464.866L319.935 543.715L319.933 565.721L262.119 599.067C260.421 598.358 258.04 598.437 256.509 599.32C254.812 600.299 254.812 601.886 256.509 602.865C258.207 603.844 260.959 603.844 262.656 602.865C264.187 601.982 264.324 600.609 263.094 599.628L320.906 566.284L320.908 544.277L466.816 460.12H500.693L427.733 502.204V511.478L392.821 531.616C391.122 530.907 388.741 530.986 387.21 531.869C385.512 532.848 385.512 534.435 387.21 535.414C388.907 536.394 391.659 536.393 393.357 535.414C394.887 534.532 395.025 533.158 393.795 532.178L412.804 521.214V546.631L302.984 609.974C301.285 609.265 298.904 609.344 297.373 610.227C295.676 611.206 295.676 612.793 297.373 613.773C299.071 614.752 301.823 614.752 303.52 613.773C305.051 612.89 305.188 611.516 303.958 610.536L413.777 547.193V520.652L428.707 512.041V502.766L502.267 460.337L502.023 459.914L579.333 415.321L593.386 423.427L513.968 469.235L513.966 544.604L367.898 628.855H369.846L490.783 559.101L490.781 627.266L488.025 628.855H489.974L491.754 627.828L491.756 558.539L514.94 545.167L514.942 469.798L594.36 423.989L606.734 431.126L545.494 466.448L545.493 507.766L545.736 507.907L615.366 548.068L615.365 562.078L575.986 584.79C574.287 584.081 571.907 584.161 570.376 585.044C568.679 586.022 568.679 587.61 570.376 588.589C572.074 589.568 574.826 589.568 576.523 588.589C578.054 587.706 578.191 586.332 576.961 585.352L616.338 562.641L616.339 547.505L616.096 547.365L546.466 507.204L546.467 467.011L592.739 440.322L592.738 457.534L571.525 469.769C569.826 469.06 567.445 469.139 565.914 470.022C564.217 471.001 564.217 472.589 565.914 473.568C567.612 474.547 570.364 474.547 572.061 473.568C573.592 472.685 573.729 471.312 572.5 470.332L593.711 458.097L593.712 439.76L607.709 431.688L624.257 441.232L624.256 471.209L593.041 489.213V509.938L593.284 510.079L658.995 547.98C657.765 548.961 657.902 550.333 659.433 551.217C661.13 552.195 663.882 552.195 665.58 551.216C667.277 550.237 667.277 548.65 665.58 547.671C664.049 546.788 661.669 546.709 659.97 547.418L594.014 509.376V489.776L624.255 472.334L624.255 492.995L664.701 516.325C663.472 517.305 663.609 518.678 665.14 519.56C666.837 520.54 669.589 520.539 671.287 519.56C672.984 518.582 672.984 516.994 671.287 516.015C669.756 515.132 667.375 515.053 665.675 515.763L625.228 492.432L625.23 441.794L636.853 448.498L637.097 448.359L656.006 437.452L673.352 447.458L673.351 471.772L719.453 498.363L719.453 521.281C718.508 521.343 717.591 521.571 716.866 521.989C715.169 522.968 715.169 524.556 716.866 525.535C718.564 526.513 721.316 526.513 723.013 525.535C724.711 524.556 724.711 522.968 723.013 521.989C722.289 521.571 721.371 521.343 720.426 521.281L720.427 497.8L674.325 471.209L674.326 448.02L748.96 491.068L748.958 536.7L708.48 560.048H671.335L671.222 560.113L607.482 596.878C605.784 596.169 603.402 596.248 601.871 597.131C600.174 598.11 600.174 599.698 601.871 600.677C603.568 601.656 606.321 601.656 608.018 600.676C609.548 599.794 609.686 598.421 608.457 597.441L671.596 561.021H706.794L589.699 628.561C588 627.851 585.619 627.931 584.088 628.813C584.065 628.826 584.051 628.842 584.029 628.855H591.139L749.932 537.263L749.933 490.506L749.69 490.365L656.981 436.89L675.638 426.129L833.926 517.429L833.925 571.907L887.997 603.097C886.768 604.077 886.905 605.45 888.435 606.333C890.133 607.311 892.885 607.311 894.582 606.333C896.28 605.354 896.28 603.766 894.582 602.787C893.052 601.904 890.671 601.825 888.972 602.534L834.899 571.344L834.899 516.866L834.656 516.726L676.613 425.567L694.376 415.321L850.913 505.609H944.264L948.645 508.136V507.013L944.525 504.637H851.174L719.034 428.419H745.61L790.71 454.432L825.45 454.43L825.562 454.366L873.743 426.577C875.442 427.286 877.823 427.206 879.353 426.324C881.051 425.344 881.051 423.757 879.354 422.778C877.656 421.799 874.904 421.799 873.207 422.778C871.676 423.661 871.539 425.034 872.768 426.014L825.188 453.458L790.971 453.459L745.872 427.446H717.348L695.351 414.758L742.767 387.409L756.251 395.186L756.25 415.599L790.501 435.356C789.272 436.335 789.41 437.709 790.94 438.591C792.638 439.57 795.39 439.57 797.087 438.591C798.785 437.612 798.785 436.025 797.087 435.046C795.557 434.163 793.175 434.084 791.476 434.793L757.224 415.037L757.224 395.747L793.752 416.816H811.049L811.162 416.751L831.785 404.857C833.484 405.566 835.865 405.487 837.395 404.604C839.092 403.625 839.092 402.037 837.395 401.059C835.697 400.079 832.945 400.079 831.248 401.059C829.717 401.941 829.58 403.315 830.81 404.295L810.788 415.843H794.013L743.742 386.846L752.874 381.579L752.144 381.157L723.728 364.768L737.376 356.896H758.013L772.78 365.414C771.604 366.392 771.763 367.742 773.273 368.612C774.97 369.592 777.722 369.592 779.42 368.612C781.117 367.634 781.117 366.046 779.42 365.067C777.869 364.172 775.446 364.105 773.743 364.845L758.274 355.923H739.062L773.863 335.85L855.75 383.082H914.671L914.784 383.017L947.959 363.882C948.17 363.97 948.416 364.009 948.645 364.073V359.598C948.205 359.718 947.787 359.874 947.423 360.084C945.893 360.966 945.755 362.339 946.984 363.319L914.41 382.109H856.011L792.858 345.683L819.888 345.681L846.31 360.923C845.081 361.903 845.218 363.276 846.748 364.159C848.446 365.138 851.198 365.138 852.895 364.159C854.593 363.18 854.593 361.592 852.895 360.613C851.365 359.731 848.984 359.652 847.285 360.36L820.149 344.708L791.173 344.71L774.838 335.288L816.41 311.31L948.645 311.308V310.335L818.096 310.337L834.586 300.825L932.939 300.823L933.052 300.759L948.645 291.764V290.641L932.678 299.851L834.325 299.853L834.213 299.917L722.754 364.205L710.381 357.069L827.562 289.48L913.261 289.478L913.373 289.414L948.645 269.069V267.945L912.999 288.505L827.301 288.507L827.188 288.572L709.406 356.507L695.352 348.401L923.889 216.581L923.891 168.768L948.645 154.489V153.367ZM750.927 381.579L636.853 447.377L522.784 381.58L636.857 315.784L750.927 381.579Z" fill="#42E8E0"/>
<path d="M800.41 524.056C798.09 524.056 795.77 523.546 794.003 522.527L760.009 502.919C758.243 501.9 757.271 500.526 757.271 499.051C757.271 497.577 758.243 496.202 760.009 495.184L794.003 475.577C797.532 473.537 803.281 473.537 806.817 475.577L840.811 495.186C842.577 496.202 843.549 497.577 843.549 499.052C843.549 500.528 842.577 501.902 840.811 502.919L806.819 522.527C805.052 523.546 802.732 524.056 800.41 524.056ZM794.301 522.012C797.669 523.954 803.152 523.956 806.521 522.012L840.513 502.404C842.087 501.497 842.953 500.306 842.953 499.052C842.953 497.799 842.087 496.607 840.513 495.701L806.519 476.092C803.151 474.151 797.669 474.152 794.301 476.092L760.307 495.699C758.733 496.607 757.867 497.797 757.867 499.051C757.867 500.306 758.733 501.496 760.307 502.404L794.301 522.012Z" fill="#42E8E0"/>
<path opacity="0.4" d="M844.608 491.526V479.897L842.477 478.713C841.876 482.345 837.598 484.737 834.021 485.234L809.663 499.465L799.032 503.3L765.101 485.806L765.885 485.354C762.985 484.001 761.423 480.905 759.854 478.081L757.57 479.442L756.213 479.823V491.649V491.649C756.213 493.157 757.208 494.665 759.198 495.812L793.193 515.42C797.173 517.716 803.649 517.716 807.629 515.42L841.623 495.813C843.58 494.684 844.575 493.206 844.607 491.723C844.608 491.657 844.605 491.591 844.603 491.524L844.608 491.526Z" fill="#42E8E0"/>
<path d="M844.608 481.189V473.495L842.477 472.311C841.876 475.943 837.598 478.335 834.021 478.833L809.663 493.063L799.032 496.898L765.101 479.405L765.885 478.952C762.985 477.599 761.423 474.503 759.854 471.679L757.57 473.04L756.213 473.421V481.312V481.312C756.213 482.82 757.208 484.328 759.198 485.475L793.193 505.083C797.173 507.379 803.649 507.379 807.629 505.083L841.623 485.476C843.58 484.347 844.575 482.869 844.607 481.386C844.608 481.32 844.605 481.254 844.603 481.187L844.608 481.189Z" fill="url(#paint0_linear_407_6846)"/>
<path opacity="0.3" d="M834.021 478.832L809.662 493.063L800.41 496.401V506.805C803.025 506.805 805.639 506.231 807.629 505.083L841.623 485.476C843.58 484.347 844.575 482.869 844.607 481.386C844.608 481.32 844.605 481.253 844.603 481.187L844.607 481.189V473.494L842.661 472.413H842.457C841.793 475.987 837.564 478.34 834.021 478.832Z" fill="#0F054C"/>
<path d="M793.193 497.265L759.198 477.658C755.218 475.362 755.218 471.626 759.198 469.33L793.191 449.723C797.172 447.428 803.648 447.428 807.628 449.723L841.623 469.331C845.603 471.627 845.603 475.363 841.623 477.658L807.629 497.266C803.649 499.561 797.173 499.561 793.193 497.265Z" fill="url(#paint1_linear_407_6846)"/>
<path d="M841.622 477.659L807.629 497.266C803.649 499.562 797.172 499.561 793.192 497.266L759.198 477.658C757.419 476.632 756.437 475.318 756.249 473.974C756.015 475.637 756.996 477.347 759.198 478.617L793.192 498.225C797.172 500.52 803.649 500.52 807.629 498.225L841.622 478.617C843.823 477.348 844.805 475.638 844.571 473.975C844.382 475.319 843.401 476.633 841.622 477.659Z" fill="white"/>
<path d="M427.645 510.103C425.324 510.103 423.004 509.594 421.237 508.574L387.243 488.966C385.478 487.948 384.506 486.573 384.506 485.098C384.506 483.624 385.478 482.249 387.243 481.231L421.235 461.624C424.772 459.584 430.519 459.584 434.052 461.624L468.046 481.233C469.81 482.249 470.783 483.624 470.783 485.099C470.783 486.575 469.811 487.949 468.046 488.967L434.052 508.574C432.286 509.594 429.966 510.103 427.645 510.103ZM427.643 460.682C425.431 460.682 423.218 461.168 421.534 462.139L387.542 481.746C385.968 482.654 385.101 483.844 385.101 485.098C385.101 486.353 385.968 487.543 387.542 488.451L421.536 508.059C424.905 510.003 430.387 510.001 433.753 508.059L467.747 488.452C469.321 487.544 470.188 486.353 470.188 485.099C470.186 483.845 469.321 482.654 467.747 481.748L433.753 462.139C432.069 461.168 429.856 460.682 427.643 460.682Z" fill="#42E8E0"/>
<path opacity="0.4" d="M471.842 477.573L471.842 465.944L469.712 464.76C469.11 468.392 464.832 470.785 461.256 471.282L436.897 485.513L426.267 489.348L392.335 471.854L393.12 471.401C390.219 470.048 388.657 466.952 387.089 464.128L384.804 465.489L383.447 465.87V477.696C383.448 479.204 384.443 480.712 386.433 481.86L420.427 501.468C424.407 503.763 430.884 503.763 434.864 501.468L468.857 481.86C470.815 480.731 471.81 479.253 471.841 477.77C471.843 477.704 471.84 477.638 471.837 477.572L471.842 477.573Z" fill="#42E8E0"/>
<path d="M471.842 467.236L471.842 459.542L469.712 458.358C469.11 461.99 464.832 464.382 461.256 464.879L436.897 479.11L426.267 482.945L392.335 465.451L393.12 464.999C390.219 463.646 388.657 460.55 387.089 457.726L384.804 459.087L383.447 459.468V467.359C383.448 468.867 384.443 470.375 386.433 471.522L420.427 491.13C424.407 493.426 430.884 493.426 434.864 491.13L468.857 471.523C470.815 470.394 471.81 468.916 471.841 467.433C471.843 467.367 471.84 467.301 471.837 467.234L471.842 467.236Z" fill="url(#paint2_linear_407_6846)"/>
<path opacity="0.3" d="M461.255 464.88L436.897 479.11L427.645 482.448V492.852C430.259 492.852 432.873 492.278 434.864 491.13L468.857 471.523C470.815 470.394 471.809 468.916 471.841 467.433C471.843 467.367 471.84 467.301 471.837 467.235L471.842 467.236L471.842 459.542L469.895 458.46H469.691C469.027 462.034 464.798 464.387 461.255 464.88Z" fill="#0F054C"/>
<path d="M420.427 483.313L386.433 463.705C382.452 461.409 382.452 457.673 386.432 455.378L420.426 435.77C424.406 433.475 430.882 433.475 434.863 435.771L468.857 455.379C472.837 457.674 472.837 461.41 468.857 463.706L434.864 483.313C430.884 485.609 424.407 485.609 420.427 483.313Z" fill="url(#paint3_linear_407_6846)"/>
<path d="M427.645 479.75C425.548 479.75 423.452 479.291 421.856 478.371L395.298 463.053C393.697 462.129 392.816 460.882 392.816 459.54C392.816 458.2 393.698 456.953 395.298 456.031L421.855 440.713C425.05 438.871 430.245 438.871 433.433 440.713L459.992 456.031C461.591 456.955 462.471 458.202 462.471 459.542C462.471 460.882 461.591 462.129 459.992 463.053L433.435 478.371C431.839 479.291 429.743 479.75 427.645 479.75ZM422.155 477.856C425.179 479.601 430.109 479.601 433.136 477.856L459.693 462.538C461.101 461.724 461.876 460.662 461.876 459.542C461.876 458.422 461.101 457.36 459.693 456.546L433.135 441.228C430.111 439.484 425.18 439.481 422.153 441.228L395.596 456.546C394.188 457.358 393.412 458.422 393.412 459.54C393.412 460.66 394.187 461.724 395.596 462.538L422.155 477.856Z" fill="#5351AF"/>
<path d="M468.857 463.705L434.863 483.313C430.883 485.608 424.407 485.608 420.427 483.313L386.432 463.705C384.653 462.679 383.672 461.365 383.483 460.021C383.249 461.684 384.231 463.394 386.432 464.664L420.427 484.271C424.407 486.567 430.883 486.567 434.863 484.271L468.857 464.664C471.058 463.395 472.039 461.685 471.806 460.021C471.617 461.366 470.636 462.679 468.857 463.705Z" fill="white"/>
<path d="M823.869 294.927C821.547 294.927 819.227 294.417 817.462 293.399L783.466 273.79C781.702 272.773 780.73 271.399 780.73 269.924C780.73 268.447 781.702 267.074 783.466 266.056L817.46 246.449C820.996 244.409 826.742 244.411 830.275 246.449L864.27 266.056C866.034 267.074 867.006 268.447 867.006 269.923C867.006 271.399 866.034 272.773 864.27 273.791L830.276 293.399C828.509 294.417 826.189 294.927 823.869 294.927ZM817.76 292.883C821.128 294.825 826.61 294.827 829.978 292.883L863.972 273.276C865.544 272.368 866.41 271.177 866.41 269.923C866.41 268.669 865.544 267.479 863.972 266.571L829.976 246.964C826.61 245.021 821.128 245.021 817.758 246.964L783.765 266.57C782.192 267.478 781.326 268.669 781.326 269.924C781.326 271.177 782.192 272.368 783.765 273.275L817.76 292.883Z" fill="#42E8E0"/>
<path opacity="0.4" d="M868.065 262.398V250.768L865.935 249.584C865.333 253.216 861.055 255.609 857.478 256.106L833.12 270.337L822.49 274.172L788.558 256.678L789.342 256.225C786.442 254.872 784.88 251.776 783.312 248.952L781.027 250.313L779.67 250.694V262.521H779.67C779.67 264.028 780.665 265.536 782.655 266.684L816.65 286.292C820.63 288.587 827.106 288.588 831.087 286.292L865.08 266.684C867.038 265.555 868.032 264.078 868.064 262.594C868.066 262.528 868.062 262.462 868.06 262.396L868.065 262.398Z" fill="#42E8E0"/>
<path d="M868.065 252.06V244.366L865.935 243.182C865.333 246.814 861.055 249.206 857.478 249.704L833.12 263.934L822.49 267.769L788.558 250.276L789.342 249.823C786.442 248.47 784.88 245.374 783.312 242.55L781.027 243.911L779.67 244.292V252.183H779.67C779.67 253.691 780.665 255.199 782.655 256.347L816.65 275.954C820.63 278.25 827.106 278.25 831.087 275.954L865.08 256.347C867.038 255.218 868.032 253.741 868.064 252.257C868.066 252.191 868.062 252.125 868.06 252.059L868.065 252.06Z" fill="url(#paint4_linear_407_6846)"/>
<path opacity="0.3" d="M857.478 249.704L833.12 263.935L823.867 267.272V277.676C826.482 277.677 829.096 277.103 831.086 275.955L865.08 256.347C867.037 255.218 868.032 253.741 868.064 252.257C868.065 252.191 868.062 252.125 868.06 252.059L868.065 252.061V244.366L866.118 243.284H865.914C865.25 246.858 861.021 249.211 857.478 249.704Z" fill="#0F054C"/>
<path d="M816.65 268.137L782.655 248.529C778.675 246.233 778.675 242.498 782.655 240.202L816.648 220.595C820.628 218.299 827.105 218.299 831.085 220.595L865.08 240.203C869.06 242.499 869.06 246.234 865.08 248.53L831.086 268.137C827.106 270.433 820.63 270.433 816.65 268.137Z" fill="url(#paint5_linear_407_6846)"/>
<path d="M823.867 264.576C821.771 264.576 819.675 264.116 818.079 263.195L791.52 247.876C789.919 246.953 789.039 245.706 789.039 244.365C789.039 243.024 789.919 241.778 791.519 240.855L818.077 225.537C821.269 223.695 826.462 223.695 829.654 225.537L856.213 240.856C857.812 241.779 858.694 243.025 858.694 244.367C858.694 245.707 857.814 246.954 856.215 247.876L829.656 263.195C828.06 264.115 825.962 264.576 823.867 264.576ZM823.866 224.742C821.878 224.742 819.889 225.178 818.376 226.052L791.817 241.37C790.409 242.183 789.634 243.246 789.634 244.365C789.634 245.485 790.409 246.549 791.819 247.361L818.378 262.68C821.403 264.424 826.328 264.426 829.357 262.68L855.916 247.361C857.324 246.549 858.099 245.486 858.099 244.367C858.099 243.247 857.324 242.183 855.914 241.371L829.356 226.052C827.843 225.178 825.853 224.742 823.866 224.742Z" fill="#5351AF"/>
<path d="M865.079 248.53L831.086 268.137C827.106 270.433 820.629 270.433 816.649 268.137L782.655 248.529C780.876 247.503 779.894 246.189 779.706 244.845C779.472 246.508 780.454 248.218 782.655 249.488L816.649 269.096C820.629 271.391 827.106 271.391 831.086 269.096L865.079 249.488C867.28 248.219 868.262 246.509 868.028 244.846C867.84 246.19 866.858 247.504 865.079 248.53Z" fill="white"/>
<path d="M638.86 493.376C637.28 493.376 635.618 492.993 634.324 492.248L425.927 372.045C424.614 371.289 423.861 370.261 423.861 369.224C423.861 368.343 424.397 367.55 425.373 366.987L549.731 295.258C551.802 294.063 555.419 294.209 557.792 295.576L766.188 415.779C767.501 416.535 768.252 417.563 768.252 418.6C768.252 419.481 767.716 420.276 766.741 420.837L642.383 492.566C641.442 493.11 640.18 493.376 638.86 493.376ZM553.255 295.144C552.063 295.144 550.93 295.383 550.083 295.871L425.725 367.601C424.981 368.031 424.57 368.607 424.57 369.224C424.57 370.002 425.194 370.805 426.28 371.432L634.676 491.635C636.861 492.89 640.156 493.036 642.03 491.953L766.388 420.223C767.133 419.793 767.545 419.217 767.545 418.6C767.545 417.822 766.921 417.019 765.835 416.392L557.439 296.189C556.24 295.498 554.705 295.144 553.255 295.144Z" fill="#42E8E0"/>
<path d="M767.898 397.817L756.421 396.168L557.614 281.497C555.333 280.181 551.882 280.038 549.907 281.177L431.502 349.473L424.215 348.425V358.089L424.237 358.092C424.25 358.958 424.867 359.866 426.102 360.578L634.499 480.781C636.78 482.096 640.23 482.239 642.206 481.1L766.564 409.37C767.472 408.847 767.889 408.141 767.875 407.405L767.898 407.408V397.817Z" fill="url(#paint6_linear_407_6846)"/>
<path d="M426.102 350.972L634.499 471.175C636.78 472.49 640.23 472.633 642.206 471.494L766.564 399.765C768.539 398.625 768.292 396.635 766.01 395.319L557.614 275.117C555.333 273.801 551.882 273.658 549.907 274.798L425.548 346.527C423.573 347.666 423.821 349.657 426.102 350.972Z" fill="url(#paint7_linear_407_6846)"/>
<path opacity="0.3" d="M444.148 353.327L630.416 460.766C632.455 461.942 635.54 462.07 637.305 461.051L748.459 396.938C750.224 395.92 750.003 394.141 747.964 392.965L561.695 285.526C559.657 284.35 556.572 284.222 554.807 285.24L443.653 349.353C441.887 350.372 442.109 352.151 444.148 353.327Z" fill="#24126A"/>
<path d="M766.563 398.719L642.205 470.449C640.229 471.588 636.779 471.445 634.498 470.129L426.101 349.927C425.1 349.35 424.516 348.643 424.314 347.935C423.999 348.95 424.599 350.106 426.101 350.972L634.498 471.174C636.779 472.49 640.229 472.633 642.205 471.494L766.563 399.764C767.672 399.125 768.056 398.217 767.797 397.311C767.634 397.838 767.238 398.33 766.563 398.719Z" fill="white"/>
<path d="M557.237 237.642L583.581 81.4997L581.463 80.6086L584.645 78.7856L584.64 78.8042C585.258 78.3934 586.131 78.4185 587.093 78.9732L797.631 200.411C799.36 201.408 800.669 203.966 800.365 205.754L773.812 363.137C773.672 363.957 773.267 364.501 772.703 364.739L772.706 364.74L769.591 366.537L769.056 363.633L769.234 363.687L559.971 242.985C558.242 241.988 556.934 239.43 557.237 237.642Z" fill="url(#paint8_linear_407_6846)"/>
<path d="M796.458 204.68L799.919 203.15C800.307 204.036 800.498 204.967 800.364 205.753L773.812 363.137C773.672 363.957 773.267 364.5 772.702 364.739L772.706 364.74L769.591 366.537L769.056 363.633L769.234 363.686L758.645 357.579L796.458 204.68Z" fill="url(#paint9_linear_407_6846)"/>
<path d="M556.668 244.878L767.206 366.315C768.832 367.253 770.223 366.711 770.509 365.03L797.062 207.647C797.366 205.859 796.057 203.301 794.328 202.304L583.79 80.8663C582.165 79.9287 580.773 80.4704 580.487 82.1516L553.935 239.535C553.631 241.323 554.939 243.88 556.668 244.878Z" fill="#24126A"/>
<g opacity="0.51">
<path d="M583.083 83.7939L794.609 205.746L767.896 363.53L556.506 241.657L583.083 83.7939Z" fill="#453C9E"/>
</g>
<path d="M424.324 319.389L435.814 325.384L551.025 258.93C552.953 257.818 556.32 257.958 558.545 259.242L757.252 373.855C759.154 372.793 767.824 368.627 767.824 368.627L763.618 375.457C763.618 375.457 763.604 375.445 763.601 375.443C763.427 375.93 763.053 376.385 762.425 376.747L641.085 446.735C639.157 447.847 635.79 447.708 633.564 446.424L430.224 329.138C429.31 328.611 428.75 327.973 428.518 327.326L428.503 327.337L424.324 319.389Z" fill="url(#paint10_linear_407_6846)"/>
<path d="M426.102 321.276L634.499 441.478C636.78 442.794 640.23 442.937 642.206 441.798L766.564 370.068C768.539 368.929 768.292 366.939 766.01 365.623L557.614 245.42C555.333 244.105 551.882 243.962 549.907 245.101L425.548 316.831C423.573 317.97 423.821 319.96 426.102 321.276Z" fill="url(#paint11_linear_407_6846)"/>
<path d="M426.102 321.276L634.499 441.478C636.78 442.794 640.23 442.937 642.206 441.798L766.564 370.068C768.539 368.929 768.292 366.939 766.01 365.623L557.614 245.42C555.333 244.105 551.882 243.962 549.907 245.101L425.548 316.831C423.573 317.97 423.821 319.96 426.102 321.276Z" fill="#24126A"/>
<path opacity="0.51" d="M426.102 321.276L634.499 441.478C636.78 442.794 640.23 442.937 642.206 441.798L766.564 370.068C768.539 368.929 768.292 366.939 766.01 365.623L557.614 245.42C555.333 244.105 551.882 243.962 549.907 245.101L425.548 316.831C423.573 317.97 423.821 319.96 426.102 321.276Z" fill="#453C9E"/>
<g opacity="0.3">
<path opacity="0.5" d="M426.102 316.851L634.499 437.054C636.78 438.369 640.23 438.512 642.206 437.373L766.564 365.643C768.539 364.504 768.292 362.514 766.01 361.198L557.614 240.996C555.333 239.68 551.882 239.537 549.907 240.676L425.548 312.406C423.573 313.545 423.821 315.535 426.102 316.851Z" fill="url(#paint12_radial_407_6846)"/>
</g>
<path opacity="0.8" d="M638.851 438.641C637.258 438.641 635.586 438.248 634.253 437.479L425.856 317.277C424.501 316.494 423.723 315.422 423.723 314.336C423.723 313.404 424.284 312.567 425.302 311.981L549.66 240.251C551.802 239.013 555.406 239.153 557.86 240.571L766.257 360.773C767.611 361.555 768.388 362.626 768.388 363.712C768.388 364.644 767.829 365.481 766.809 366.069L642.451 437.799C641.473 438.363 640.189 438.641 638.851 438.641ZM426.348 316.427L634.745 436.628C636.885 437.86 640.121 438.007 641.959 436.948L766.317 365.219C766.815 364.932 767.406 364.438 767.406 363.712C767.406 362.987 766.808 362.225 765.765 361.623L557.368 241.421C555.226 240.187 551.987 240.041 550.152 241.102L425.793 312.831C425.298 313.118 424.706 313.611 424.706 314.336C424.706 315.063 425.305 315.825 426.348 316.427Z" fill="url(#paint13_linear_407_6846)"/>
<path d="M426.101 320.344L634.498 440.546C636.779 441.862 640.23 442.005 642.205 440.865L766.563 369.136C767.259 368.735 767.663 368.226 767.816 367.68C768.037 368.565 767.645 369.444 766.563 370.068L642.205 441.798C640.23 442.937 636.779 442.794 634.498 441.479L426.101 321.276C424.623 320.424 424.014 319.29 424.295 318.286C424.478 319.016 425.07 319.749 426.101 320.344Z" fill="white"/>
<path d="M758.891 213.408C758.389 213.408 757.858 213.259 757.351 212.966C755.788 212.063 754.819 210.02 755.191 208.412C755.37 207.637 755.83 207.052 756.486 206.768C757.212 206.451 758.104 206.544 758.939 207.026C760.501 207.928 761.469 209.972 761.098 211.58C760.918 212.355 760.458 212.939 759.804 213.224C759.521 213.347 759.212 213.408 758.891 213.408ZM757.399 207.291C757.175 207.291 756.961 207.333 756.768 207.417C756.324 207.61 756.01 208.02 755.883 208.571C755.574 209.899 756.391 211.595 757.706 212.352C758.34 212.719 759 212.802 759.521 212.575C759.965 212.382 760.279 211.972 760.406 211.42C760.714 210.093 759.897 208.397 758.584 207.64C758.184 207.409 757.775 207.291 757.399 207.291Z" fill="#42E8E0"/>
<path d="M767.317 218.267C766.815 218.267 766.282 218.117 765.775 217.824C764.211 216.923 763.243 214.88 763.615 213.271C763.794 212.495 764.255 211.911 764.912 211.627C765.636 211.31 766.532 211.406 767.361 211.885C768.925 212.787 769.893 214.83 769.523 216.439C769.343 217.215 768.882 217.799 768.227 218.084C767.944 218.206 767.636 218.267 767.317 218.267ZM765.823 212.151C765.599 212.151 765.387 212.192 765.193 212.275C764.749 212.468 764.434 212.879 764.306 213.43C763.998 214.758 764.815 216.454 766.128 217.211C766.766 217.578 767.429 217.659 767.944 217.434C768.389 217.241 768.704 216.832 768.831 216.28C769.138 214.952 768.319 213.255 767.006 212.498C766.608 212.268 766.199 212.151 765.823 212.151Z" fill="#42E8E0"/>
<path d="M777.601 221.218C777.261 222.688 775.817 223.207 774.377 222.376C772.936 221.545 772.045 219.68 772.385 218.209C772.725 216.738 774.169 216.22 775.609 217.05C777.05 217.881 777.941 219.747 777.601 221.218Z" fill="#42E8E0"/>
<path d="M616.08 128.356L611.574 125.758L611.923 123.677L616.429 126.275L616.08 128.356Z" fill="#42E8E0"/>
<path d="M622.628 132.134L618.123 129.535L618.472 127.454L622.978 130.053L622.628 132.134Z" fill="#42E8E0"/>
<path d="M609.599 124.618L599.719 118.919L600.068 116.838L609.948 122.537L609.599 124.618Z" fill="#42E8E0"/>
<g opacity="0.5">
<path opacity="0.67" d="M604.315 391.036C645.585 391.036 679.04 371.739 679.04 347.935C679.04 324.131 645.585 304.833 604.315 304.833C563.046 304.833 529.59 324.131 529.59 347.935C529.59 371.739 563.046 391.036 604.315 391.036Z" fill="#0F054C"/>
<path opacity="0.67" d="M604.315 383.548C638.415 383.548 666.058 367.604 666.058 347.935C666.058 328.266 638.415 312.322 604.315 312.322C570.216 312.322 542.572 328.266 542.572 347.935C542.572 367.604 570.216 383.548 604.315 383.548Z" fill="#0F054C"/>
<path opacity="0.9" d="M604.315 376.104C631.287 376.104 653.153 363.492 653.153 347.935C653.153 332.377 631.287 319.765 604.315 319.765C577.342 319.765 555.477 332.377 555.477 347.935C555.477 363.492 577.342 376.104 604.315 376.104Z" fill="#080344"/>
</g>
<path opacity="0.4" d="M673.086 184.815C674.521 183.468 674.593 181.214 673.245 179.78C671.898 178.345 669.641 178.274 668.205 179.62C666.77 180.966 666.698 183.221 668.046 184.655C669.394 186.09 671.65 186.161 673.086 184.815Z" fill="#42E8E0"/>
<path d="M714.33 181.738C715.766 180.392 715.837 178.138 714.49 176.703C713.142 175.269 710.885 175.198 709.45 176.544C708.014 177.89 707.942 180.145 709.29 181.579C710.638 183.013 712.894 183.085 714.33 181.738Z" fill="#42E8E0"/>
<path opacity="0.4" d="M704.151 126.519C705.695 125.071 705.772 122.646 704.322 121.103C702.872 119.559 700.445 119.483 698.9 120.931C697.356 122.38 697.279 124.805 698.729 126.348C700.178 127.891 702.606 127.968 704.151 126.519Z" fill="#42E8E0"/>
<path opacity="0.4" d="M699.848 137.416C700.771 136.551 700.817 135.103 699.951 134.181C699.085 133.26 697.636 133.214 696.713 134.079C695.791 134.944 695.745 136.392 696.611 137.313C697.476 138.235 698.926 138.281 699.848 137.416Z" fill="#42E8E0"/>
<path opacity="0.8" d="M695.108 131.762C695.701 131.206 695.731 130.274 695.174 129.681C694.617 129.088 693.684 129.059 693.09 129.615C692.497 130.172 692.467 131.104 693.024 131.696C693.581 132.29 694.514 132.319 695.108 131.762Z" fill="#42E8E0"/>
<path opacity="0.8" d="M704.938 164.385C705.531 163.829 705.561 162.897 705.004 162.304C704.447 161.711 703.514 161.681 702.92 162.238C702.327 162.794 702.297 163.726 702.854 164.319C703.411 164.912 704.344 164.942 704.938 164.385Z" fill="#42E8E0"/>
<path opacity="0.4" d="M684.152 122.251C684.332 122.082 684.34 121.799 684.172 121.619C684.003 121.44 683.72 121.431 683.54 121.599C683.359 121.768 683.351 122.051 683.52 122.231C683.689 122.411 683.971 122.42 684.152 122.251Z" fill="#42E8E0"/>
<path opacity="0.8" d="M686.837 140.743C687.017 140.574 687.026 140.292 686.857 140.112C686.688 139.932 686.405 139.923 686.225 140.092C686.045 140.261 686.036 140.543 686.205 140.723C686.374 140.903 686.657 140.912 686.837 140.743Z" fill="#42E8E0"/>
<path opacity="0.8" d="M692.607 175.948C692.787 175.779 692.796 175.497 692.627 175.317C692.458 175.137 692.175 175.128 691.995 175.297C691.815 175.466 691.806 175.748 691.975 175.928C692.144 176.108 692.427 176.117 692.607 175.948Z" fill="#42E8E0"/>
<path opacity="0.8" d="M688.521 170.343C688.701 170.174 688.71 169.891 688.541 169.711C688.372 169.531 688.089 169.522 687.909 169.691C687.729 169.86 687.72 170.143 687.889 170.323C688.058 170.503 688.341 170.512 688.521 170.343Z" fill="#42E8E0"/>
<path opacity="0.4" d="M673.283 143.253C675.475 141.198 675.584 137.756 673.526 135.567C671.469 133.377 668.025 133.268 665.833 135.323C663.641 137.379 663.532 140.82 665.59 143.009C667.647 145.199 671.091 145.308 673.283 143.253Z" fill="#42E8E0"/>
<path d="M643.976 153.83C645.066 152.808 645.12 151.096 644.097 150.007C643.074 148.918 641.361 148.864 640.27 149.886C639.18 150.908 639.126 152.62 640.149 153.709C641.172 154.798 642.886 154.852 643.976 153.83Z" fill="#42E8E0"/>
<path opacity="0.4" d="M691.088 154.499C692.583 154.499 693.795 153.289 693.795 151.795C693.795 150.301 692.583 149.09 691.088 149.09C689.593 149.09 688.381 150.301 688.381 151.795C688.381 153.289 689.593 154.499 691.088 154.499Z" fill="#42E8E0"/>
<path opacity="0.4" d="M673.279 109.134C674.369 108.112 674.423 106.401 673.4 105.312C672.376 104.223 670.663 104.168 669.573 105.191C668.483 106.213 668.429 107.924 669.452 109.013C670.475 110.102 672.188 110.157 673.279 109.134Z" fill="#42E8E0"/>
<path opacity="0.4" d="M639.072 128.569C640.162 127.547 640.216 125.836 639.193 124.747C638.17 123.658 636.456 123.603 635.366 124.626C634.276 125.648 634.222 127.359 635.245 128.449C636.268 129.538 637.981 129.592 639.072 128.569Z" fill="#42E8E0"/>
<path opacity="0.4" d="M731.989 136.999C733.08 135.977 733.134 134.265 732.111 133.176C731.087 132.087 729.374 132.033 728.284 133.055C727.194 134.077 727.14 135.789 728.163 136.878C729.186 137.967 730.899 138.021 731.989 136.999Z" fill="#42E8E0"/>
<path opacity="0.4" d="M712.421 89.6482C713.511 88.626 713.566 86.9144 712.542 85.8253C711.519 84.7363 709.806 84.682 708.716 85.7042C707.626 86.7265 707.571 88.4381 708.595 89.5271C709.618 90.6162 711.331 90.6703 712.421 89.6482Z" fill="#42E8E0"/>
<path d="M748.073 94.7166C748.598 94.2239 748.625 93.3989 748.131 92.8739C747.638 92.3488 746.812 92.3228 746.287 92.8156C745.761 93.3083 745.735 94.1333 746.229 94.6583C746.722 95.1831 747.548 95.2093 748.073 94.7166Z" fill="#42E8E0"/>
<path opacity="0.4" d="M681.172 175.697C681.811 175.098 681.842 174.095 681.243 173.457C680.643 172.819 679.64 172.787 679.001 173.386C678.362 173.985 678.33 174.988 678.93 175.626C679.529 176.264 680.533 176.296 681.172 175.697Z" fill="#42E8E0"/>
<path d="M678.1 130.79C678.738 130.192 678.77 129.189 678.171 128.551C677.571 127.912 676.567 127.881 675.929 128.48C675.29 129.079 675.258 130.081 675.857 130.72C676.457 131.358 677.461 131.39 678.1 130.79Z" fill="#42E8E0"/>
<path d="M657.777 130.183C658.209 129.778 658.23 129.101 657.825 128.67C657.42 128.239 656.742 128.217 656.311 128.622C655.879 129.027 655.858 129.704 656.263 130.135C656.668 130.566 657.346 130.587 657.777 130.183Z" fill="#42E8E0"/>
<path d="M654.732 130.102C655.359 129.515 655.39 128.532 654.802 127.906C654.214 127.281 653.23 127.25 652.604 127.837C651.978 128.424 651.947 129.407 652.534 130.033C653.122 130.658 654.106 130.689 654.732 130.102Z" fill="#42E8E0"/>
<path d="M654.192 133.803C654.539 133.478 654.556 132.934 654.23 132.588C653.905 132.242 653.36 132.224 653.014 132.549C652.667 132.874 652.65 133.418 652.975 133.765C653.301 134.111 653.845 134.128 654.192 133.803Z" fill="#42E8E0"/>
<path opacity="0.4" d="M669.122 159.367C669.573 158.944 669.595 158.237 669.172 157.787C668.75 157.337 668.042 157.315 667.591 157.737C667.141 158.16 667.118 158.867 667.541 159.317C667.964 159.766 668.672 159.789 669.122 159.367Z" fill="#42E8E0"/>
<path opacity="0.4" d="M701.704 163.928C702.154 163.506 702.177 162.799 701.754 162.349C701.331 161.899 700.624 161.876 700.173 162.299C699.723 162.721 699.701 163.428 700.123 163.878C700.546 164.328 701.254 164.35 701.704 163.928Z" fill="#42E8E0"/>
<path d="M676.06 161.099C677.168 160.059 677.224 158.318 676.183 157.211C675.142 156.103 673.4 156.048 672.291 157.087C671.182 158.127 671.127 159.868 672.168 160.975C673.208 162.083 674.951 162.138 676.06 161.099Z" fill="#42E8E0"/>
<path d="M524.555 278.014C522.034 286.377 508.496 302.634 500.125 300.116C491.753 297.598 491.718 277.259 494.239 268.895C496.759 260.532 505.589 255.793 513.96 258.311C522.332 260.829 527.075 269.651 524.555 278.014Z" fill="url(#paint14_radial_407_6846)"/>
<path d="M524.555 278.014C522.034 286.377 508.496 302.634 500.125 300.116C491.753 297.598 491.718 277.259 494.239 268.895C496.759 260.532 505.589 255.793 513.96 258.311C522.332 260.829 527.075 269.651 524.555 278.014Z" fill="url(#paint15_linear_407_6846)"/>
<path d="M508.439 258.409C512.837 258.017 518.46 260.624 520.999 264.233C523.539 267.842 522.032 271.086 517.634 271.478C513.236 271.871 507.613 269.263 505.073 265.654C502.534 262.045 504.041 258.801 508.439 258.409Z" fill="#251C72"/>
<path opacity="0.5" d="M508.439 258.409C512.837 258.017 518.46 260.624 520.999 264.233C523.539 267.842 522.032 271.086 517.634 271.478C513.236 271.871 507.613 269.263 505.073 265.654C502.534 262.045 504.041 258.801 508.439 258.409Z" fill="url(#paint16_radial_407_6846)"/>
<path d="M503.849 262.504C504.629 261.849 505.754 261.408 507.197 261.28C511.595 260.887 517.219 263.495 519.758 267.104C520.538 268.212 520.933 269.286 520.983 270.254C522.578 268.913 522.706 266.658 521 264.233C518.461 260.624 512.837 258.017 508.44 258.409C505.393 258.681 503.737 260.322 503.849 262.504Z" fill="#42E8E0"/>
<path opacity="0.6" d="M523.191 254.134C522.503 254.118 521.933 254.662 521.916 255.35C521.9 256.037 522.445 256.607 523.133 256.623C523.821 256.639 524.392 256.095 524.408 255.407C524.424 254.72 523.879 254.15 523.191 254.134Z" fill="#42E8E0"/>
<path d="M511.427 245.449C509.687 245.408 508.244 246.784 508.204 248.522C508.164 250.259 509.541 251.701 511.28 251.741C513.019 251.781 514.462 250.406 514.502 248.668C514.543 246.931 513.166 245.489 511.427 245.449Z" fill="#42E8E0"/>
<path opacity="0.6" d="M529.453 238.365C528.479 238.342 527.672 239.112 527.649 240.085C527.626 241.058 528.397 241.865 529.371 241.888C530.345 241.91 531.152 241.14 531.175 240.167C531.198 239.194 530.427 238.387 529.453 238.365Z" fill="#42E8E0"/>
<path d="M522.403 239.762C521.737 239.747 521.184 240.274 521.168 240.94C521.153 241.605 521.68 242.158 522.347 242.173C523.013 242.188 523.566 241.661 523.581 240.996C523.597 240.33 523.069 239.778 522.403 239.762Z" fill="#42E8E0"/>
<path d="M523.74 237.056C523.284 237.045 522.905 237.406 522.895 237.862C522.884 238.317 523.245 238.695 523.701 238.706C524.157 238.716 524.536 238.356 524.546 237.9C524.557 237.444 524.196 237.066 523.74 237.056Z" fill="#42E8E0"/>
<path opacity="0.6" d="M513.575 260.258C512.611 260.235 511.81 260.999 511.788 261.963C511.765 262.927 512.529 263.727 513.494 263.749C514.459 263.771 515.26 263.008 515.282 262.044C515.305 261.08 514.541 260.28 513.575 260.258Z" fill="#42E8E0"/>
<path d="M518.872 259.678C517.429 259.645 516.231 260.787 516.198 262.228C516.164 263.67 517.307 264.866 518.75 264.899C520.193 264.933 521.39 263.791 521.424 262.35C521.457 260.908 520.315 259.712 518.872 259.678Z" fill="#42E8E0"/>
<path d="M546.976 249.203C560.144 249.203 570.818 238.539 570.818 225.384C570.818 212.229 560.144 201.565 546.976 201.565C533.809 201.565 523.135 212.229 523.135 225.384C523.135 238.539 533.809 249.203 546.976 249.203Z" fill="url(#paint17_radial_407_6846)"/>
<path d="M546.977 249.203C560.144 249.203 570.818 238.539 570.818 225.384C570.818 212.23 560.144 201.565 546.977 201.565C533.809 201.565 523.135 212.23 523.135 225.384C523.135 238.539 533.809 249.203 546.977 249.203Z" fill="url(#paint18_linear_407_6846)"/>
<path d="M665.874 268.636C665.874 314.873 638.314 352.355 604.317 352.355C570.32 352.355 542.76 314.873 542.76 268.636C542.76 222.4 570.32 208.545 604.317 208.545C638.314 208.545 665.874 222.4 665.874 268.636Z" fill="url(#paint19_radial_407_6846)"/>
<path d="M665.874 268.636C665.874 314.873 638.314 352.355 604.317 352.355C570.32 352.355 542.76 314.873 542.76 268.636C542.76 222.4 570.32 208.545 604.317 208.545C638.314 208.545 665.874 222.4 665.874 268.636Z" fill="url(#paint20_linear_407_6846)"/>
<path d="M604.317 257.635C627.519 257.635 646.328 246.786 646.328 233.403C646.328 220.02 627.519 209.171 604.317 209.171C581.114 209.171 562.305 220.02 562.305 233.403C562.305 246.786 581.114 257.635 604.317 257.635Z" fill="#251C72"/>
<path opacity="0.5" d="M604.317 257.635C627.519 257.635 646.328 246.786 646.328 233.403C646.328 220.02 627.519 209.171 604.317 209.171C581.114 209.171 562.305 220.02 562.305 233.403C562.305 246.786 581.114 257.635 604.317 257.635Z" fill="url(#paint21_radial_407_6846)"/>
<path d="M574.609 222.723C591.016 213.26 617.616 213.26 634.023 222.724C640.8 226.632 644.769 231.545 645.948 236.631C647.623 229.403 643.653 221.823 634.023 216.269C617.616 206.805 591.016 206.805 574.609 216.268C564.98 221.822 561.01 229.402 562.685 236.63C563.864 231.544 567.833 226.631 574.609 222.723Z" fill="#42E8E0"/>
<path d="M580.797 161.319C587.718 149.345 587.718 136.403 580.798 132.411C573.878 128.42 562.659 134.891 555.739 146.864C548.819 158.838 548.819 171.781 555.738 175.772C562.658 179.764 573.877 173.293 580.797 161.319Z" fill="#BCBEFF"/>
<path d="M606.757 238.287C641.431 238.287 669.539 210.205 669.539 175.565C669.539 140.924 641.431 112.843 606.757 112.843C572.083 112.843 543.975 140.924 543.975 175.565C543.975 210.205 572.083 238.287 606.757 238.287Z" fill="url(#paint22_radial_407_6846)"/>
<path d="M606.757 238.287C641.431 238.287 669.539 210.205 669.539 175.565C669.539 140.924 641.431 112.843 606.757 112.843C572.083 112.843 543.975 140.924 543.975 175.565C543.975 210.205 572.083 238.287 606.757 238.287Z" fill="url(#paint23_linear_407_6846)"/>
<path d="M587.171 205.273C585.567 217.607 576.249 221.482 566.358 213.927C556.468 206.372 549.75 190.248 551.354 177.914C552.958 165.579 562.276 161.705 572.166 169.26C582.057 176.815 588.775 192.938 587.171 205.273Z" fill="#251C72"/>
<path opacity="0.5" d="M587.171 205.273C585.567 217.607 576.249 221.482 566.358 213.927C556.468 206.372 549.75 190.248 551.354 177.914C552.958 165.579 562.276 161.705 572.166 169.26C582.057 176.815 588.775 192.938 587.171 205.273Z" fill="url(#paint24_radial_407_6846)"/>
<path d="M579.003 194.594C578.42 199.076 575.034 200.485 571.439 197.739C567.845 194.993 565.404 189.133 565.986 184.651C566.569 180.168 569.956 178.76 573.55 181.506C577.145 184.251 579.586 190.111 579.003 194.594Z" fill="#42E8E0"/>
<path d="M571.107 212.129C561.217 204.574 554.499 188.45 556.103 176.115C556.757 171.087 558.693 167.466 561.427 165.451C556.257 165.936 552.341 170.318 551.354 177.913C549.75 190.248 556.468 206.371 566.358 213.927C572.217 218.402 577.874 218.865 581.846 215.937C578.621 216.241 574.907 215.031 571.107 212.129Z" fill="#42E8E0"/>
<path d="M567.21 213.525C557.319 205.97 550.601 189.846 552.205 177.512C552.948 171.802 555.345 167.91 558.686 166.122C554.903 167.677 552.158 171.729 551.354 177.914C549.75 190.248 556.468 206.372 566.358 213.927C571.668 217.983 576.808 218.734 580.683 216.66C576.922 218.206 572.139 217.291 567.21 213.525Z" fill="#42E8E0"/>
<path d="M671.976 308.366C685.144 308.366 695.818 297.702 695.818 284.547C695.818 271.393 685.144 260.729 671.976 260.729C658.809 260.729 648.135 271.393 648.135 284.547C648.135 297.702 658.809 308.366 671.976 308.366Z" fill="url(#paint25_radial_407_6846)"/>
<path d="M671.976 308.366C685.144 308.366 695.818 297.702 695.818 284.547C695.818 271.393 685.144 260.729 671.976 260.729C658.809 260.729 648.135 271.393 648.135 284.547C648.135 297.702 658.809 308.366 671.976 308.366Z" fill="url(#paint26_linear_407_6846)"/>
<path d="M694.89 285.009C694.89 291.723 690.171 299.888 684.35 303.246C678.529 306.603 673.811 303.882 673.811 297.167C673.811 290.452 678.529 282.287 684.35 278.93C690.171 275.572 694.89 278.294 694.89 285.009Z" fill="#251C72"/>
<path opacity="0.5" d="M694.89 285.009C694.89 291.723 690.171 299.888 684.35 303.246C678.529 306.603 673.811 303.882 673.811 297.167C673.811 290.452 678.529 282.287 684.35 278.93C690.171 275.572 694.89 278.294 694.89 285.009Z" fill="url(#paint27_radial_407_6846)"/>
<path d="M689.296 277.501C690.185 278.77 690.701 280.534 690.701 282.738C690.701 289.453 685.982 297.618 680.161 300.976C678.373 302.007 676.69 302.46 675.215 302.404C677.034 305.003 680.439 305.501 684.349 303.246C690.17 299.888 694.889 291.723 694.889 285.009C694.889 280.357 692.623 277.626 689.296 277.501Z" fill="#42E8E0"/>
<path d="M659.746 198.509L637.004 211.626V185.392L659.746 172.274V198.509Z" fill="#251C72"/>
<path opacity="0.8" d="M656.367 174.224V196.679L637.004 207.847V211.626L659.746 198.509V172.274L656.367 174.224Z" fill="url(#paint28_radial_407_6846)"/>
<path d="M641.348 192.56L639.311 193.735V191.385L641.348 190.209V192.56Z" fill="#42E8E0"/>
<path d="M645.672 187.053L643.635 188.228V185.878L645.672 184.703V187.053Z" fill="#42E8E0"/>
<path d="M649.994 187.572L647.957 188.747V186.397L649.994 185.222V187.572Z" fill="#42E8E0"/>
<path d="M649.994 193.735L647.957 194.91V192.559L649.994 191.384V193.735Z" fill="#42E8E0"/>
<path d="M647.393 198.474L645.355 199.649V197.299L647.393 196.124V198.474Z" fill="#42E8E0"/>
<path d="M654.455 191.162L652.418 192.337V189.987L654.455 188.812V191.162Z" fill="#42E8E0"/>
<path d="M678.074 191.593L680.565 187.283L678.074 185.852L655.332 198.969V225.203L657.823 226.635L660.309 222.333L678.074 212.086V191.593Z" fill="url(#paint29_linear_407_6846)"/>
<path d="M680.564 213.517L657.822 226.635V200.401L680.564 187.283V213.517Z" fill="url(#paint30_linear_407_6846)"/>
<path d="M680.564 213.517L657.822 226.635V200.401L680.564 187.283V213.517Z" fill="url(#paint31_linear_407_6846)"/>
<path d="M653.861 190.78L653.424 190.37L678.566 163.53H750.109L776.502 137.162V29.7153H777.102V137.411L750.357 164.13H678.828L653.861 190.78Z" fill="#42E8E0"/>
<path d="M776.591 110.431L764.18 98.0313V53.8135H764.78V97.7824L777.015 110.005L776.591 110.431Z" fill="#42E8E0"/>
<path d="M700.278 164.042L699.854 163.617L713.927 149.559H744.515L759.197 134.89L759.621 135.316L744.763 150.159H714.174L700.278 164.042Z" fill="#42E8E0"/>
<path d="M759.41 137.14C758.284 137.14 757.371 136.228 757.371 135.103C757.371 133.978 758.284 133.065 759.41 133.065C760.537 133.065 761.45 133.978 761.45 135.103C761.45 136.228 760.537 137.14 759.41 137.14Z" fill="#42E8E0"/>
<path d="M738.813 123.429C737.686 123.429 736.773 122.517 736.773 121.392C736.773 120.267 737.686 119.354 738.813 119.354C739.939 119.354 740.852 120.267 740.852 121.392C740.852 122.517 739.939 123.429 738.813 123.429Z" fill="#42E8E0"/>
<path d="M755.127 103.349C754.001 103.349 753.088 102.436 753.088 101.311C753.088 100.186 754.001 99.2739 755.127 99.2739C756.253 99.2739 757.166 100.186 757.166 101.311C757.166 102.436 756.253 103.349 755.127 103.349Z" fill="#42E8E0"/>
<path d="M747.078 52.3583C745.952 52.3583 745.039 51.4462 745.039 50.3211C745.039 49.1958 745.952 48.2837 747.078 48.2837C748.204 48.2837 749.118 49.1958 749.118 50.3211C749.118 51.4462 748.204 52.3583 747.078 52.3583Z" fill="#42E8E0"/>
<path d="M764.479 55.851C763.353 55.851 762.439 54.9389 762.439 53.8138C762.439 52.6885 763.353 51.7764 764.479 51.7764C765.605 51.7764 766.518 52.6885 766.518 53.8138C766.518 54.9389 765.605 55.851 764.479 55.851Z" fill="#42E8E0"/>
<path d="M776.803 31.7524C775.677 31.7524 774.764 30.8403 774.764 29.7151C774.764 28.5898 775.677 27.6777 776.803 27.6777C777.929 27.6777 778.842 28.5898 778.842 29.7151C778.842 30.8403 777.929 31.7524 776.803 31.7524Z" fill="#42E8E0"/>
<path d="M679.442 116.971C678.315 116.971 677.402 116.059 677.402 114.933C677.402 113.808 678.315 112.896 679.442 112.896C680.568 112.896 681.481 113.808 681.481 114.933C681.481 116.059 680.568 116.971 679.442 116.971Z" fill="#42E8E0"/>
<path d="M640.63 191.971H640.029V180.081L640.116 179.993L668.594 151.1V110.094L692.213 86.5008H738.573L746.778 78.3027V50.3208H747.379V78.5519L738.821 87.1005H692.46L669.195 110.343V151.346L669.108 151.434L640.63 180.326V191.971Z" fill="#42E8E0"/>
<path d="M669.106 141.748L668.682 141.323L679.141 130.875V114.934H679.741V131.124L669.106 141.748Z" fill="#42E8E0"/>
<path d="M644.866 186.859L644.441 186.434L709.846 121.092H738.349V121.692H710.094L644.866 186.859Z" fill="#42E8E0"/>
<path d="M698.063 133.587H697.463V112.772L709.235 101.011H755.127V101.611H709.482L698.063 113.021V133.587Z" fill="#42E8E0"/>
<path d="M688.345 351.424C685.825 359.788 672.287 376.044 663.916 373.526C655.544 371.008 655.509 350.669 658.03 342.306C660.551 333.942 669.38 329.204 677.751 331.722C686.123 334.24 690.866 343.061 688.345 351.424Z" fill="url(#paint32_radial_407_6846)"/>
<path d="M688.345 351.424C685.825 359.788 672.287 376.044 663.916 373.526C655.544 371.008 655.509 350.669 658.03 342.306C660.551 333.942 669.38 329.204 677.751 331.722C686.123 334.24 690.866 343.061 688.345 351.424Z" fill="url(#paint33_linear_407_6846)"/>
<path d="M672.23 331.819C676.628 331.427 682.251 334.035 684.79 337.643C687.33 341.252 685.823 344.496 681.425 344.888C677.027 345.281 671.403 342.673 668.864 339.064C666.325 335.455 667.832 332.212 672.23 331.819Z" fill="#251C72"/>
<path opacity="0.5" d="M672.23 331.819C676.628 331.427 682.251 334.035 684.79 337.643C687.33 341.252 685.823 344.496 681.425 344.888C677.027 345.281 671.403 342.673 668.864 339.064C666.325 335.455 667.832 332.212 672.23 331.819Z" fill="url(#paint34_radial_407_6846)"/>
<path d="M667.64 335.914C668.42 335.259 669.545 334.818 670.988 334.69C675.386 334.297 681.01 336.905 683.549 340.514C684.329 341.623 684.724 342.696 684.774 343.664C686.369 342.323 686.497 340.068 684.791 337.643C682.252 334.035 676.628 331.427 672.231 331.819C669.184 332.091 667.528 333.732 667.64 335.914Z" fill="#42E8E0"/>
<path opacity="0.6" d="M684.659 321.777C685.161 321.307 685.186 320.519 684.715 320.018C684.244 319.517 683.456 319.492 682.954 319.962C682.452 320.433 682.427 321.22 682.898 321.722C683.369 322.223 684.157 322.248 684.659 321.777Z" fill="#42E8E0"/>
<path d="M699.142 319.73C700.41 318.54 700.473 316.549 699.283 315.281C698.092 314.014 696.099 313.951 694.83 315.141C693.562 316.33 693.499 318.322 694.689 319.589C695.88 320.856 697.873 320.919 699.142 319.73Z" fill="#42E8E0"/>
<path opacity="0.6" d="M691.259 337.408C691.97 336.742 692.005 335.627 691.338 334.918C690.672 334.208 689.556 334.173 688.846 334.839C688.135 335.505 688.1 336.62 688.767 337.329C689.433 338.039 690.549 338.074 691.259 337.408Z" fill="#42E8E0"/>
<path d="M695.308 331.472C695.794 331.017 695.819 330.254 695.362 329.768C694.906 329.283 694.142 329.259 693.656 329.714C693.17 330.17 693.146 330.933 693.602 331.419C694.058 331.904 694.822 331.928 695.308 331.472Z" fill="#42E8E0"/>
<path d="M696.254 334.338C696.587 334.027 696.604 333.504 696.291 333.172C695.979 332.84 695.457 332.823 695.124 333.135C694.791 333.447 694.775 333.969 695.087 334.301C695.399 334.634 695.922 334.65 696.254 334.338Z" fill="#42E8E0"/>
<path opacity="0.6" d="M687.217 310.676C687.921 310.016 687.956 308.91 687.296 308.207C686.635 307.504 685.529 307.469 684.825 308.129C684.121 308.789 684.086 309.894 684.747 310.597C685.407 311.3 686.513 311.335 687.217 310.676Z" fill="#42E8E0"/>
<path d="M683.848 314.799C684.9 313.812 684.952 312.159 683.965 311.108C682.977 310.056 681.323 310.004 680.27 310.991C679.218 311.978 679.165 313.63 680.153 314.682C681.141 315.733 682.795 315.786 683.848 314.799Z" fill="#42E8E0"/>
<path d="M632.097 152.099L502.426 77.8462C500.303 76.6214 498.372 76.576 496.903 77.4718L496.907 77.4527L488.904 82.0843L494.108 85.8555V90.0769L491.163 91.3148L491.32 249.403L500.093 257.855L530.174 275.101L622.149 326.311C622.149 326.311 625.596 326.311 626.066 326.311C626.225 326.311 626.456 325.84 626.674 325.217L630.618 327.491L629.363 333.492L637.498 328.807L637.486 328.805C639.276 327.805 640.414 325.441 640.414 322.063V167.975C640.414 161.856 636.69 154.748 632.097 152.099ZM628.532 317.524L503.606 246.008C502.557 245.403 501.707 243.78 501.707 242.383V90.3286L528.216 107.358L624.342 163.997L627.163 168.38L628.729 237.25L628.532 317.524Z" fill="url(#paint35_linear_407_6846)"/>
<path opacity="0.6" d="M637.777 158.377L625.342 165.55L627.163 168.38L628.729 237.25L628.532 317.524L626.225 316.193C626.225 318.673 629.364 330.914 629.364 333.492L635.975 329.684L637.498 328.807L637.486 328.805C639.276 327.805 640.414 325.442 640.414 322.063V167.975C640.414 164.786 639.397 161.333 637.777 158.377Z" fill="#0F054C"/>
<path d="M623.721 156.93L494.05 82.6779C489.456 80.0282 485.732 82.8408 485.732 88.9598V243.047C485.732 249.166 489.456 256.275 494.05 258.924L623.721 333.177C628.314 335.826 632.038 333.014 632.038 326.895V172.807C632.038 166.688 628.314 159.58 623.721 156.93ZM624.44 322.297C624.44 323.694 623.59 324.336 622.541 323.731L495.23 250.84C494.181 250.235 493.33 248.612 493.33 247.215V93.5577C493.33 92.1605 494.181 91.5186 495.23 92.1232L622.541 165.015C623.59 165.62 624.44 167.243 624.44 168.64V322.297Z" fill="url(#paint36_linear_407_6846)"/>
<path d="M623.721 156.93L494.05 82.6779C489.456 80.0282 485.732 82.8408 485.732 88.9598V243.047C485.732 249.166 489.456 256.275 494.05 258.924L623.721 333.177C628.314 335.826 632.038 333.014 632.038 326.895V172.807C632.038 166.688 628.314 159.58 623.721 156.93ZM624.44 322.297C624.44 323.694 623.59 324.336 622.541 323.731L495.23 250.84C494.181 250.235 493.33 248.612 493.33 247.215V93.5577C493.33 92.1605 494.181 91.5186 495.23 92.1232L622.541 165.015C623.59 165.62 624.44 167.243 624.44 168.64V322.297Z" fill="url(#paint37_linear_407_6846)"/>
<path d="M503.605 246.007C502.556 245.403 501.706 243.78 501.706 242.383V95.8588L495.229 92.123C494.18 91.5184 493.33 92.1603 493.33 93.5575V247.215C493.33 248.612 494.18 250.235 495.229 250.839L622.541 323.731C623.589 324.336 624.44 323.694 624.44 322.297V315.163L503.605 246.007Z" fill="#251C72"/>
<path opacity="0.4" d="M624.44 322.297C624.44 323.694 623.589 324.336 622.541 323.731L495.229 250.839C494.18 250.235 493.33 248.612 493.33 247.215V93.5575C493.33 92.1603 494.18 91.5184 495.229 92.123L622.541 165.015C623.589 165.62 624.44 167.242 624.44 168.639V322.297Z" fill="#42E8E0"/>
<g opacity="0.4">
<path d="M532.6 160.699L520.217 153.556V150.441L532.6 157.584V160.699Z" fill="#42E8E0"/>
<path d="M543.168 166.795L536.977 163.223V160.108L543.168 163.68V166.795Z" fill="#42E8E0"/>
<path d="M536.255 170.111L530.979 167.067V163.953L536.255 166.996V170.111Z" fill="#42E8E0"/>
<path d="M545.092 175.209L538.9 171.637V168.522L545.092 172.094V175.209Z" fill="#42E8E0"/>
<path d="M555.311 188.406L530.979 174.371V171.256L555.311 185.291V188.406Z" fill="#42E8E0"/>
<path d="M536.255 184.719L530.979 181.675V178.561L536.255 181.604V184.719Z" fill="#42E8E0"/>
<path d="M545.092 189.816L538.9 186.245V183.13L545.092 186.701V189.816Z" fill="#42E8E0"/>
<path d="M544.355 196.695L530.979 188.979V185.864L544.355 193.58V196.695Z" fill="#42E8E0"/>
<path d="M553.309 201.859L547.117 198.288V195.173L553.309 198.744V201.859Z" fill="#42E8E0"/>
<path d="M562.311 207.051L556.119 203.479V200.364L562.311 203.936V207.051Z" fill="#42E8E0"/>
<path d="M576.835 215.429L565.119 208.671V205.556L576.835 212.314V215.429Z" fill="#42E8E0"/>
<path d="M569.813 225.986L563.621 222.415V219.3L569.813 222.871V225.986Z" fill="#42E8E0"/>
<path d="M584.339 234.364L572.623 227.606V224.491L584.339 231.249V234.364Z" fill="#42E8E0"/>
<path d="M537.17 207.158L530.979 203.587V200.472L537.17 204.043V207.158Z" fill="#42E8E0"/>
<path d="M546.17 212.349L539.979 208.778V205.663L546.17 209.234V212.349Z" fill="#42E8E0"/>
<path d="M560.697 220.727L548.98 213.969V210.854L560.697 217.612V220.727Z" fill="#42E8E0"/>
<path d="M578.604 223.753L572.412 220.182V217.067L578.604 220.638V223.753Z" fill="#42E8E0"/>
<path d="M587.606 228.945L581.414 225.374V222.259L587.606 225.83V228.945Z" fill="#42E8E0"/>
<path d="M602.131 237.323L590.414 230.565V227.45L602.131 234.208V237.323Z" fill="#42E8E0"/>
<path d="M537.17 221.765L530.979 218.194V215.079L537.17 218.651V221.765Z" fill="#42E8E0"/>
<path d="M551.695 230.143L539.979 223.385V220.271L551.695 227.028V230.143Z" fill="#42E8E0"/>
<path d="M573.821 199.083L567.629 195.511V192.396L573.821 195.968V199.083Z" fill="#42E8E0"/>
<path d="M564.459 193.683L558.268 190.111V186.997L564.459 190.568V193.683Z" fill="#42E8E0"/>
<path d="M588.347 207.461L576.631 200.703V197.588L588.347 204.346V207.461Z" fill="#42E8E0"/>
<path d="M536.565 199.505L530.979 196.283V193.168L536.565 196.39V199.505Z" fill="#42E8E0"/>
<path d="M553.131 209.06L539.553 201.228V198.113L553.131 205.945V209.06Z" fill="#42E8E0"/>
<path d="M569.698 218.615L556.119 210.783V207.668L569.698 215.5V218.615Z" fill="#42E8E0"/>
<path d="M596.952 212.424L591.365 209.202V206.087L596.952 209.309V212.424Z" fill="#42E8E0"/>
<path d="M544.678 218.792L531.1 210.96V207.845L544.678 215.677V218.792Z" fill="#42E8E0"/>
<path d="M551.835 222.92L547.664 220.514V217.399L551.835 219.805V222.92Z" fill="#42E8E0"/>
<path d="M559.009 227.058L554.838 224.652V221.537L559.009 223.943V227.058Z" fill="#42E8E0"/>
<path d="M572.271 234.707L562.012 228.79V225.675L572.271 231.593V234.707Z" fill="#42E8E0"/>
<path d="M575.058 236.315L564.799 230.398V227.283L575.058 233.2V236.315Z" fill="#42E8E0"/>
<path d="M583.76 219.423L579.59 217.018V213.903L583.76 216.308V219.423Z" fill="#42E8E0"/>
<path d="M597.023 227.073L586.764 221.155V218.041L597.023 223.958V227.073Z" fill="#42E8E0"/>
<path d="M524.508 221.766L520.338 219.36V216.245L524.508 218.651V221.766Z" fill="#42E8E0"/>
<path d="M537.769 229.415L527.51 223.497V220.382L537.769 226.3V229.415Z" fill="#42E8E0"/>
<path d="M551.32 237.23L541.061 231.313V228.198L551.32 234.115V237.23Z" fill="#42E8E0"/>
</g>
<defs>
<linearGradient id="paint0_linear_407_6846" x1="765.007" y1="458.204" x2="835.107" y2="498.715" gradientUnits="userSpaceOnUse">
<stop stop-color="#BCBEFF"/>
<stop offset="0.22713" stop-color="#AAADF8"/>
<stop offset="0.680178" stop-color="#7C83E5"/>
<stop offset="1" stop-color="#5761D7"/>
</linearGradient>
<linearGradient id="paint1_linear_407_6846" x1="756.213" y1="473.494" x2="844.608" y2="473.494" gradientUnits="userSpaceOnUse">
<stop stop-color="#E9E9FD"/>
<stop offset="0.360081" stop-color="#D3D2F9"/>
<stop offset="0.706239" stop-color="#C5C4F7"/>
<stop offset="1" stop-color="#C0BFF6"/>
</linearGradient>
<linearGradient id="paint2_linear_407_6846" x1="392.241" y1="444.251" x2="462.341" y2="484.762" gradientUnits="userSpaceOnUse">
<stop stop-color="#BCBEFF"/>
<stop offset="0.22713" stop-color="#AAADF8"/>
<stop offset="0.680178" stop-color="#7C83E5"/>
<stop offset="1" stop-color="#5761D7"/>
</linearGradient>
<linearGradient id="paint3_linear_407_6846" x1="383.447" y1="459.542" x2="471.842" y2="459.542" gradientUnits="userSpaceOnUse">
<stop stop-color="#E9E9FD"/>
<stop offset="0.360081" stop-color="#D3D2F9"/>
<stop offset="0.706239" stop-color="#C5C4F7"/>
<stop offset="1" stop-color="#C0BFF6"/>
</linearGradient>
<linearGradient id="paint4_linear_407_6846" x1="788.464" y1="229.075" x2="858.564" y2="269.586" gradientUnits="userSpaceOnUse">
<stop stop-color="#BCBEFF"/>
<stop offset="0.22713" stop-color="#AAADF8"/>
<stop offset="0.680178" stop-color="#7C83E5"/>
<stop offset="1" stop-color="#5761D7"/>
</linearGradient>
<linearGradient id="paint5_linear_407_6846" x1="779.67" y1="244.366" x2="868.065" y2="244.366" gradientUnits="userSpaceOnUse">
<stop stop-color="#E9E9FD"/>
<stop offset="0.360081" stop-color="#D3D2F9"/>
<stop offset="0.706239" stop-color="#C5C4F7"/>
<stop offset="1" stop-color="#C0BFF6"/>
</linearGradient>
<linearGradient id="paint6_linear_407_6846" x1="761.445" y1="381.139" x2="417.762" y2="381.139" gradientUnits="userSpaceOnUse">
<stop stop-color="#5761D7"/>
<stop offset="0.177894" stop-color="#5C66D9"/>
<stop offset="0.387598" stop-color="#6A73DF"/>
<stop offset="0.6134" stop-color="#8289E8"/>
<stop offset="0.84896" stop-color="#A3A7F5"/>
<stop offset="1" stop-color="#BCBEFF"/>
</linearGradient>
<linearGradient id="paint7_linear_407_6846" x1="652.408" y1="373.146" x2="308.725" y2="373.146" gradientUnits="userSpaceOnUse">
<stop stop-color="#C0BFF6"/>
<stop offset="0.293761" stop-color="#C5C4F7"/>
<stop offset="0.639919" stop-color="#D3D2F9"/>
<stop offset="1" stop-color="#E9E9FD"/>
</linearGradient>
<linearGradient id="paint8_linear_407_6846" x1="800.409" y1="222.53" x2="557.193" y2="222.53" gradientUnits="userSpaceOnUse">
<stop stop-color="#C0BFF6"/>
<stop offset="0.293761" stop-color="#C5C4F7"/>
<stop offset="0.639919" stop-color="#D3D2F9"/>
<stop offset="1" stop-color="#E9E9FD"/>
</linearGradient>
<linearGradient id="paint9_linear_407_6846" x1="800.407" y1="284.844" x2="758.645" y2="284.844" gradientUnits="userSpaceOnUse">
<stop stop-color="#5761D7"/>
<stop offset="0.177894" stop-color="#5C66D9"/>
<stop offset="0.387598" stop-color="#6A73DF"/>
<stop offset="0.6134" stop-color="#8289E8"/>
<stop offset="0.84896" stop-color="#A3A7F5"/>
<stop offset="1" stop-color="#BCBEFF"/>
</linearGradient>
<linearGradient id="paint10_linear_407_6846" x1="767.824" y1="352.833" x2="424.324" y2="352.833" gradientUnits="userSpaceOnUse">
<stop stop-color="#5761D7"/>
<stop offset="0.177894" stop-color="#5C66D9"/>
<stop offset="0.387598" stop-color="#6A73DF"/>
<stop offset="0.6134" stop-color="#8289E8"/>
<stop offset="0.84896" stop-color="#A3A7F5"/>
<stop offset="1" stop-color="#BCBEFF"/>
</linearGradient>
<linearGradient id="paint11_linear_407_6846" x1="652.408" y1="343.449" x2="308.725" y2="343.449" gradientUnits="userSpaceOnUse">
<stop stop-color="#C0BFF6"/>
<stop offset="0.293761" stop-color="#C5C4F7"/>
<stop offset="0.639919" stop-color="#D3D2F9"/>
<stop offset="1" stop-color="#E9E9FD"/>
</linearGradient>
<radialGradient id="paint12_radial_407_6846" cx="0" cy="0" r="1" gradientUnits="userSpaceOnUse" gradientTransform="translate(600.353 329.582) scale(217.577 217.368)">
<stop stop-color="#42E8E0"/>
<stop offset="0.105539" stop-color="#37B6BF"/>
<stop offset="0.219661" stop-color="#2C87A1"/>
<stop offset="0.337969" stop-color="#235F87"/>
<stop offset="0.458668" stop-color="#1C3F72"/>
<stop offset="0.582439" stop-color="#162561"/>
<stop offset="0.710541" stop-color="#121355"/>
<stop offset="0.845774" stop-color="#10084E"/>
<stop offset="1" stop-color="#0F054C"/>
</radialGradient>
<linearGradient id="paint13_linear_407_6846" x1="423.723" y1="339.024" x2="768.388" y2="339.024" gradientUnits="userSpaceOnUse">
<stop stop-color="#42E8E0"/>
<stop offset="0.105539" stop-color="#37B6BF"/>
<stop offset="0.219661" stop-color="#2C87A1"/>
<stop offset="0.337969" stop-color="#235F87"/>
<stop offset="0.458668" stop-color="#1C3F72"/>
<stop offset="0.582439" stop-color="#162561"/>
<stop offset="0.710541" stop-color="#121355"/>
<stop offset="0.845774" stop-color="#10084E"/>
<stop offset="1" stop-color="#0F054C"/>
</linearGradient>
<radialGradient id="paint14_radial_407_6846" cx="0" cy="0" r="1" gradientUnits="userSpaceOnUse" gradientTransform="translate(519.296 265.541) rotate(16.7417) scale(44.9648 44.9288)">
<stop stop-color="#C0BFF6"/>
<stop offset="1" stop-color="#393091"/>
</radialGradient>
<linearGradient id="paint15_linear_407_6846" x1="490.578" y1="287.4" x2="524.294" y2="267.566" gradientUnits="userSpaceOnUse">
<stop stop-color="#2FD3C7"/>
<stop offset="0.0880899" stop-color="#31B6BD"/>
<stop offset="0.22875" stop-color="#338DB0"/>
<stop offset="0.373414" stop-color="#356BA5"/>
<stop offset="0.520638" stop-color="#37519C"/>
<stop offset="0.671481" stop-color="#383F96"/>
<stop offset="0.828146" stop-color="#393492"/>
<stop offset="1" stop-color="#393091"/>
</linearGradient>
<radialGradient id="paint16_radial_407_6846" cx="0" cy="0" r="1" gradientUnits="userSpaceOnUse" gradientTransform="translate(510.838 268.077) rotate(-95.1111) scale(29.1552 29.1827)">
<stop stop-color="#42E8E0"/>
<stop offset="0.105539" stop-color="#37B6BF"/>
<stop offset="0.219661" stop-color="#2C87A1"/>
<stop offset="0.337969" stop-color="#235F87"/>
<stop offset="0.458668" stop-color="#1C3F72"/>
<stop offset="0.582439" stop-color="#162561"/>
<stop offset="0.710541" stop-color="#121355"/>
<stop offset="0.845774" stop-color="#10084E"/>
<stop offset="1" stop-color="#0F054C"/>
</radialGradient>
<radialGradient id="paint17_radial_407_6846" cx="0" cy="0" r="1" gradientUnits="userSpaceOnUse" gradientTransform="translate(661.011 149.286) rotate(11.1871) scale(137.621 137.499)">
<stop stop-color="#C0BFF6"/>
<stop offset="1" stop-color="#393091"/>
</radialGradient>
<linearGradient id="paint18_linear_407_6846" x1="534.168" y1="245.474" x2="559.75" y2="205.272" gradientUnits="userSpaceOnUse">
<stop stop-color="#706EC4"/>
<stop offset="0.0222208" stop-color="#6D6BC2"/>
<stop offset="0.250885" stop-color="#5651AC"/>
<stop offset="0.48649" stop-color="#463F9D"/>
<stop offset="0.731354" stop-color="#3C3494"/>
<stop offset="1" stop-color="#393091"/>
</linearGradient>
<radialGradient id="paint19_radial_407_6846" cx="0" cy="0" r="1" gradientUnits="userSpaceOnUse" gradientTransform="translate(640.637 256.091) scale(105.79 143.869)">
<stop stop-color="#C0BFF6"/>
<stop offset="1" stop-color="#393091"/>
</radialGradient>
<linearGradient id="paint20_linear_407_6846" x1="604.317" y1="352.355" x2="604.317" y2="208.545" gradientUnits="userSpaceOnUse">
<stop stop-color="#2FD3C7"/>
<stop offset="0.0880899" stop-color="#31B6BD"/>
<stop offset="0.22875" stop-color="#338DB0"/>
<stop offset="0.373414" stop-color="#356BA5"/>
<stop offset="0.520638" stop-color="#37519C"/>
<stop offset="0.671481" stop-color="#383F96"/>
<stop offset="0.828146" stop-color="#393492"/>
<stop offset="1" stop-color="#393091"/>
</linearGradient>
<radialGradient id="paint21_radial_407_6846" cx="0" cy="0" r="1" gradientUnits="userSpaceOnUse" gradientTransform="translate(602.685 256.687) scale(81.8834 81.8048)">
<stop stop-color="#42E8E0"/>
<stop offset="0.105539" stop-color="#37B6BF"/>
<stop offset="0.219661" stop-color="#2C87A1"/>
<stop offset="0.337969" stop-color="#235F87"/>
<stop offset="0.458668" stop-color="#1C3F72"/>
<stop offset="0.582439" stop-color="#162561"/>
<stop offset="0.710541" stop-color="#121355"/>
<stop offset="0.845774" stop-color="#10084E"/>
<stop offset="1" stop-color="#0F054C"/>
</radialGradient>
<radialGradient id="paint22_radial_407_6846" cx="0" cy="0" r="1" gradientUnits="userSpaceOnUse" gradientTransform="translate(645.938 166.273) scale(106.114 106.012)">
<stop stop-color="#C0BFF6"/>
<stop offset="1" stop-color="#393091"/>
</radialGradient>
<linearGradient id="paint23_linear_407_6846" x1="598.018" y1="237.684" x2="615.463" y2="113.441" gradientUnits="userSpaceOnUse">
<stop stop-color="#2FD3C7"/>
<stop offset="0.0880899" stop-color="#31B6BD"/>
<stop offset="0.22875" stop-color="#338DB0"/>
<stop offset="0.373414" stop-color="#356BA5"/>
<stop offset="0.520638" stop-color="#37519C"/>
<stop offset="0.671481" stop-color="#383F96"/>
<stop offset="0.828146" stop-color="#393492"/>
<stop offset="1" stop-color="#393091"/>
</linearGradient>
<radialGradient id="paint24_radial_407_6846" cx="0" cy="0" r="1" gradientUnits="userSpaceOnUse" gradientTransform="translate(587.208 181.348) scale(52.1205 52.0705)">
<stop stop-color="#42E8E0"/>
<stop offset="0.05911" stop-color="#3CCBCD"/>
<stop offset="0.178331" stop-color="#3098AC"/>
<stop offset="0.2996" stop-color="#266B8F"/>
<stop offset="0.420679" stop-color="#1E4777"/>
<stop offset="0.541432" stop-color="#172A65"/>
<stop offset="0.661927" stop-color="#131657"/>
<stop offset="0.782056" stop-color="#100A50"/>
<stop offset="0.901682" stop-color="#0F064D"/>
<stop offset="1" stop-color="#0F054C"/>
</radialGradient>
<radialGradient id="paint25_radial_407_6846" cx="0" cy="0" r="1" gradientUnits="userSpaceOnUse" gradientTransform="translate(686.103 269.002) rotate(11.1871) scale(49.7393 49.6951)">
<stop stop-color="#C0BFF6"/>
<stop offset="1" stop-color="#393091"/>
</radialGradient>
<linearGradient id="paint26_linear_407_6846" x1="652.688" y1="298.548" x2="691.239" y2="270.511" gradientUnits="userSpaceOnUse">
<stop stop-color="#2FD3C7"/>
<stop offset="0.0880899" stop-color="#31B6BD"/>
<stop offset="0.22875" stop-color="#338DB0"/>
<stop offset="0.373414" stop-color="#356BA5"/>
<stop offset="0.520638" stop-color="#37519C"/>
<stop offset="0.671481" stop-color="#383F96"/>
<stop offset="0.828146" stop-color="#393492"/>
<stop offset="1" stop-color="#393091"/>
</linearGradient>
<radialGradient id="paint27_radial_407_6846" cx="0" cy="0" r="1" gradientUnits="userSpaceOnUse" gradientTransform="translate(679.893 287.333) scale(44.4223 44.3797)">
<stop stop-color="#42E8E0"/>
<stop offset="0.105539" stop-color="#37B6BF"/>
<stop offset="0.219661" stop-color="#2C87A1"/>
<stop offset="0.337969" stop-color="#235F87"/>
<stop offset="0.458668" stop-color="#1C3F72"/>
<stop offset="0.582439" stop-color="#162561"/>
<stop offset="0.710541" stop-color="#121355"/>
<stop offset="0.845774" stop-color="#10084E"/>
<stop offset="1" stop-color="#0F054C"/>
</radialGradient>
<radialGradient id="paint28_radial_407_6846" cx="0" cy="0" r="1" gradientUnits="userSpaceOnUse" gradientTransform="translate(644.13 147.181) scale(41.8716 53.74)">
<stop stop-color="#2B237C"/>
<stop offset="0.310001" stop-color="#251C72"/>
<stop offset="1" stop-color="#0F054C"/>
</radialGradient>
<linearGradient id="paint29_linear_407_6846" x1="677.059" y1="203.475" x2="617.533" y2="221.594" gradientUnits="userSpaceOnUse">
<stop stop-color="#BCBEFF"/>
<stop offset="0.151041" stop-color="#A3A7F5"/>
<stop offset="0.386601" stop-color="#8289E8"/>
<stop offset="0.612402" stop-color="#6A73DF"/>
<stop offset="0.822106" stop-color="#5C66D9"/>
<stop offset="1" stop-color="#5761D7"/>
</linearGradient>
<linearGradient id="paint30_linear_407_6846" x1="666.754" y1="207.249" x2="585.175" y2="216.978" gradientUnits="userSpaceOnUse">
<stop stop-color="#BCBEFF"/>
<stop offset="0.151041" stop-color="#A3A7F5"/>
<stop offset="0.386601" stop-color="#8289E8"/>
<stop offset="0.612402" stop-color="#6A73DF"/>
<stop offset="0.822106" stop-color="#5C66D9"/>
<stop offset="1" stop-color="#5761D7"/>
</linearGradient>
<linearGradient id="paint31_linear_407_6846" x1="654.517" y1="231.21" x2="696.965" y2="160.934" gradientUnits="userSpaceOnUse">
<stop stop-color="#42E8E0"/>
<stop offset="0.118765" stop-color="#42E2DE"/>
<stop offset="0.269933" stop-color="#41D3D7"/>
<stop offset="0.438614" stop-color="#40B9CC"/>
<stop offset="0.620054" stop-color="#3E94BC"/>
<stop offset="0.810074" stop-color="#3C66A8"/>
<stop offset="1" stop-color="#393091"/>
</linearGradient>
<radialGradient id="paint32_radial_407_6846" cx="0" cy="0" r="1" gradientUnits="userSpaceOnUse" gradientTransform="translate(683.087 338.951) rotate(16.7417) scale(44.9648 44.9288)">
<stop stop-color="#C0BFF6"/>
<stop offset="1" stop-color="#393091"/>
</radialGradient>
<linearGradient id="paint33_linear_407_6846" x1="654.369" y1="360.81" x2="688.085" y2="340.976" gradientUnits="userSpaceOnUse">
<stop stop-color="#2FD3C7"/>
<stop offset="0.0880899" stop-color="#31B6BD"/>
<stop offset="0.22875" stop-color="#338DB0"/>
<stop offset="0.373414" stop-color="#356BA5"/>
<stop offset="0.520638" stop-color="#37519C"/>
<stop offset="0.671481" stop-color="#383F96"/>
<stop offset="0.828146" stop-color="#393492"/>
<stop offset="1" stop-color="#393091"/>
</linearGradient>
<radialGradient id="paint34_radial_407_6846" cx="0" cy="0" r="1" gradientUnits="userSpaceOnUse" gradientTransform="translate(674.629 341.487) rotate(-95.1111) scale(29.1551 29.1826)">
<stop stop-color="#42E8E0"/>
<stop offset="0.105539" stop-color="#37B6BF"/>
<stop offset="0.219661" stop-color="#2C87A1"/>
<stop offset="0.337969" stop-color="#235F87"/>
<stop offset="0.458668" stop-color="#1C3F72"/>
<stop offset="0.582439" stop-color="#162561"/>
<stop offset="0.710541" stop-color="#121355"/>
<stop offset="0.845774" stop-color="#10084E"/>
<stop offset="1" stop-color="#0F054C"/>
</radialGradient>
<linearGradient id="paint35_linear_407_6846" x1="518.727" y1="205.174" x2="641.591" y2="205.174" gradientUnits="userSpaceOnUse">
<stop stop-color="#BCBEFF"/>
<stop offset="0.165912" stop-color="#B6B8FC"/>
<stop offset="0.39559" stop-color="#A4A8F5"/>
<stop offset="0.66249" stop-color="#868DEA"/>
<stop offset="0.955395" stop-color="#5E67DA"/>
<stop offset="1" stop-color="#5761D7"/>
</linearGradient>
<linearGradient id="paint36_linear_407_6846" x1="485.732" y1="207.927" x2="632.038" y2="207.927" gradientUnits="userSpaceOnUse">
<stop stop-color="#BCBEFF"/>
<stop offset="0.165912" stop-color="#B6B8FC"/>
<stop offset="0.39559" stop-color="#A4A8F5"/>
<stop offset="0.66249" stop-color="#868DEA"/>
<stop offset="0.955395" stop-color="#5E67DA"/>
<stop offset="1" stop-color="#5761D7"/>
</linearGradient>
<linearGradient id="paint37_linear_407_6846" x1="465.525" y1="207.927" x2="729.484" y2="207.927" gradientUnits="userSpaceOnUse">
<stop stop-color="#706EC4"/>
<stop offset="0.0222208" stop-color="#6D6BC2"/>
<stop offset="0.250885" stop-color="#5651AC"/>
<stop offset="0.48649" stop-color="#463F9D"/>
<stop offset="0.731354" stop-color="#3C3494"/>
<stop offset="1" stop-color="#393091"/>
</linearGradient>
</defs>
</svg>
