<svg width="176" height="33" viewBox="0 0 176 33" fill="none" xmlns="http://www.w3.org/2000/svg">
<path d="M11.2265 19.6597H7.02871V31.8717H4.21767V19.6597H0V17.1683H11.2287V19.6597H11.2265Z" fill="white"/>
<path d="M18.1023 31.8717H15.2891V17.1903H18.1023V31.8717Z" fill="white"/>
<path d="M36.9703 17.1903V31.8717H34.1593V24.4395L29.5602 29.9624L24.981 24.4395V31.8717H22.1699V17.1903H22.3507L29.5602 25.6653L36.7918 17.1903H36.9703Z" fill="white"/>
<path d="M43.8521 19.6597V23.335H50.9623V25.8859H43.8521V29.3407H51.8663V31.8717H41.041V17.1705H51.8663V19.6619H43.8521V19.6597Z" fill="white"/>
<path d="M55.752 29.9448L57.2776 27.696C58.014 28.2052 58.7747 28.644 59.5573 29.0122C60.34 29.3804 61.1602 29.5656 62.0178 29.5656C62.472 29.5656 62.8755 29.5083 63.2238 29.3958C63.5722 29.2812 63.8676 29.1357 64.1079 28.9549C64.3482 28.7741 64.529 28.5668 64.6503 28.3331C64.7715 28.0994 64.8311 27.8679 64.8311 27.6408C64.8311 27.3454 64.7407 27.0963 64.5599 26.8868C64.3791 26.6796 64.1388 26.5076 63.8367 26.3753C63.5347 26.2408 63.1797 26.1284 62.7718 26.0336C62.364 25.941 61.9385 25.8528 61.4953 25.7734C61.1999 25.7205 60.8603 25.6566 60.4701 25.5816C60.0821 25.5089 59.6808 25.4074 59.2641 25.2796C58.8496 25.1517 58.4395 24.9841 58.0383 24.7769C57.637 24.5696 57.2754 24.3073 56.9535 23.9942C56.6316 23.6789 56.3737 23.3041 56.1797 22.8698C55.9857 22.4354 55.8886 21.9217 55.8886 21.3331C55.8886 20.4754 56.0628 19.7633 56.4112 19.1945C56.7595 18.6257 57.2049 18.1781 57.7472 17.8496C58.2896 17.5211 58.8915 17.2896 59.5551 17.1573C60.2188 17.0228 60.8581 16.9567 61.4733 16.9567C62.0884 16.9567 62.6374 16.9964 63.1202 17.0779C63.603 17.1573 64.0506 17.2764 64.4651 17.4285C64.8796 17.5828 65.2852 17.7768 65.6799 18.0105C66.0745 18.2442 66.5001 18.522 66.9542 18.8439L65.3867 21.0531C64.69 20.5702 64.0219 20.202 63.3781 19.9485C62.7344 19.695 62.0597 19.5671 61.3498 19.5671C61.1095 19.5671 60.8339 19.5979 60.5252 19.6575C60.2166 19.717 59.9255 19.814 59.6521 19.9485C59.3765 20.083 59.1495 20.2528 58.9687 20.46C58.7879 20.6672 58.6975 20.9186 58.6975 21.214C58.6975 21.5095 58.8033 21.7564 59.0194 21.957C59.2332 22.1576 59.5088 22.3252 59.844 22.4597C60.1791 22.5942 60.5473 22.7066 60.9485 22.8014C61.3498 22.8962 61.7378 22.9888 62.1126 23.0836C62.3948 23.1498 62.7256 23.2181 63.107 23.2843C63.4884 23.3504 63.883 23.4452 64.2931 23.5665C64.701 23.6877 65.1067 23.8487 65.5079 24.0493C65.9092 24.2499 66.2686 24.5079 66.5816 24.8232C66.8969 25.1385 67.1505 25.5265 67.3445 25.9873C67.5385 26.4503 67.6355 27.0081 67.6355 27.6651C67.6355 28.4279 67.501 29.0916 67.2342 29.6538C66.9653 30.216 66.5838 30.6812 66.09 31.0494C65.5939 31.4176 65.0052 31.6954 64.3218 31.8828C63.6383 32.0702 62.8821 32.165 62.0531 32.165C61.2903 32.165 60.6178 32.1076 60.0336 31.9952C59.4515 31.8806 58.918 31.7284 58.4373 31.5322C57.9545 31.3382 57.5003 31.1067 57.0726 30.8399C56.6493 30.5599 56.2061 30.2645 55.752 29.9448Z" fill="white"/>
<path d="M81.2207 19.6597H77.0229V31.8717H74.2118V19.6597H69.9941V17.1683H81.2229V19.6597H81.2207Z" fill="white"/>
<path d="M87.5142 31.8717H84.7031V17.1705H91.3835C92.1353 17.1705 92.8232 17.294 93.4449 17.5431C94.0689 17.7901 94.6024 18.1384 95.0434 18.5882C95.4865 19.0379 95.8305 19.5715 96.0796 20.1954C96.3265 20.8172 96.4522 21.4984 96.4522 22.2348C96.4522 23.346 96.1744 24.3161 95.6166 25.1473C95.0588 25.9785 94.318 26.5737 93.3942 26.9353C94.6289 28.569 95.8503 30.216 97.0541 31.8762H93.7007C93.1142 31.1133 92.5388 30.3439 91.9788 29.5656C91.4188 28.7895 90.8566 27.998 90.2966 27.1955H87.5142V31.8717ZM87.5142 24.7019H91.3769C91.6304 24.7019 91.8928 24.6512 92.1684 24.552C92.4418 24.4506 92.6843 24.2985 92.8981 24.089C93.112 23.8818 93.2884 23.6238 93.4295 23.3151C93.5706 23.0065 93.6389 22.6449 93.6389 22.2304C93.6389 22.0166 93.6125 21.7608 93.5596 21.4676C93.5066 21.1721 93.3986 20.8921 93.2399 20.6232C93.0789 20.3564 92.8518 20.1271 92.5586 19.9397C92.2654 19.7523 91.8707 19.6575 91.3769 19.6575H87.5142V24.7019Z" fill="white"/>
<path d="M103.067 19.6597V23.335H110.177V25.8859H103.067V29.3407H111.081V31.8717H100.256V17.1705H111.081V19.6619H103.067V19.6597Z" fill="white"/>
<path d="M120.714 17.1903H120.434L112.92 31.8717H115.973L120.573 22.6735L125.174 31.8717H128.225L120.714 17.1903Z" fill="white"/>
<path d="M145.154 17.1705V31.8519H142.343V24.4197L137.744 29.9426L133.165 24.4197V31.8519H130.354V17.1705H130.534L137.744 25.6456L144.975 17.1705H145.154Z" fill="white"/>
<path d="M159.141 0V6.7443L165.813 11.9695L159.104 17.2653V23.8994L176.001 11.9497L159.141 0Z" fill="url(#paint0_linear_601_305)"/>
<path d="M156.711 3.80762V8.4023L152.167 11.963L156.738 15.5699V20.0896L145.225 11.9497L156.711 3.80762Z" fill="url(#paint1_linear_601_305)"/>
<path d="M159.141 0V6.7443L165.812 11.9695L176 11.9497L159.141 0Z" fill="url(#paint2_linear_601_305)"/>
<path d="M156.711 3.80762V8.4023L152.167 11.963L145.225 11.9497L156.711 3.80762Z" fill="url(#paint3_linear_601_305)"/>
<defs>
<linearGradient id="paint0_linear_601_305" x1="167.581" y1="0.0249058" x2="167.581" y2="23.9226" gradientUnits="userSpaceOnUse">
<stop stop-color="#0986FD"/>
<stop offset="1" stop-color="#00D3FF"/>
</linearGradient>
<linearGradient id="paint1_linear_601_305" x1="150.991" y1="3.83298" x2="150.991" y2="20.1151" gradientUnits="userSpaceOnUse">
<stop stop-color="#02F5BF"/>
<stop offset="1" stop-color="#00AF86"/>
</linearGradient>
<linearGradient id="paint2_linear_601_305" x1="167.598" y1="0.0249058" x2="167.598" y2="11.9945" gradientUnits="userSpaceOnUse">
<stop stop-color="#0986FD"/>
<stop offset="1" stop-color="#00D3FF"/>
</linearGradient>
<linearGradient id="paint3_linear_601_305" x1="150.978" y1="3.83298" x2="150.978" y2="11.9878" gradientUnits="userSpaceOnUse">
<stop stop-color="#02F5BF"/>
<stop offset="1" stop-color="#00AF86"/>
</linearGradient>
</defs>
</svg>
