<svg width="118" height="133" viewBox="0 0 118 133" fill="none" xmlns="http://www.w3.org/2000/svg">
<g opacity="0.5">
<path d="M114.057 33.7809L65.1467 5.46659C64.366 5.01573 63.6559 4.99898 63.1154 5.32873L63.117 5.32174L60.1738 7.02666L62.0878 8.41494V9.96901L61.0045 10.4247L61.0621 68.6207L64.2888 71.7322L75.3518 78.0808L110.399 97.9127C110.399 97.9127 111.666 97.9127 111.839 97.9127C111.898 97.9127 111.983 97.7395 112.063 97.51L113.513 98.3474L113.052 100.556L116.043 98.8317L116.039 98.8308C116.697 98.4626 117.116 97.5927 117.116 96.349V39.6255C117.116 37.373 115.747 34.7563 114.057 33.7809ZM112.746 94.678L65.5805 67.3709C65.1949 67.1483 64.8822 66.5508 64.8822 66.0367V10.0616L74.6315 16.3307L111.205 38.161L112.242 39.7744L112.819 65.1271L112.746 94.678Z" fill="url(#paint0_linear_602_1441)"/>
<path opacity="0.6" d="M116.144 36.092L111.57 38.7325L112.24 39.7744L112.816 65.1272L112.744 94.678L111.895 94.1881C111.895 95.1009 113.049 99.6072 113.049 100.556L115.481 99.1544L116.041 98.8316L116.037 98.8307C116.695 98.4627 117.114 97.5927 117.114 96.3489V39.6254C117.114 38.4513 116.739 37.18 116.144 36.092Z" fill="#0F054C"/>
<path d="M110.975 35.5597L62.0647 7.24523C60.3754 6.26989 59.0059 7.30526 59.0059 9.55783V66.2813C59.0059 68.5339 60.3754 71.1505 62.0647 72.1259L110.975 100.44C112.665 101.416 114.034 100.38 114.034 98.1279V41.4043C114.034 39.1518 112.665 36.535 110.975 35.5597ZM111.24 96.4353C111.24 96.9496 110.927 97.1859 110.541 96.9632L62.4986 69.1497C62.1129 68.9271 61.8002 68.3297 61.8002 67.8154V11.2504C61.8002 10.7361 62.1129 10.4997 62.4986 10.7223L110.541 38.5358C110.927 38.7585 111.24 39.3559 111.24 39.8702V96.4353Z" fill="url(#paint1_linear_602_1441)"/>
<path d="M110.975 35.5597L62.0647 7.24523C60.3754 6.26989 59.0059 7.30526 59.0059 9.55783V66.2813C59.0059 68.5339 60.3754 71.1505 62.0647 72.1259L110.975 100.44C112.665 101.416 114.034 100.38 114.034 98.1279V41.4043C114.034 39.1518 112.665 36.535 110.975 35.5597ZM111.24 96.4353C111.24 96.9496 110.927 97.1859 110.541 96.9632L62.4986 69.1497C62.1129 68.9271 61.8002 68.3297 61.8002 67.8154V11.2504C61.8002 10.7361 62.1129 10.4997 62.4986 10.7223L110.541 38.5358C110.927 38.7585 111.24 39.3559 111.24 39.8702V96.4353Z" fill="url(#paint2_linear_602_1441)"/>
<path d="M65.5794 67.3708C65.1938 67.1482 64.8811 66.5507 64.8811 66.0366V12.0974L62.4992 10.7222C62.1134 10.4996 61.8008 10.7359 61.8008 11.2502V67.8153C61.8008 68.3296 62.1134 68.927 62.4992 69.1496L110.542 96.963C110.928 97.1858 111.24 96.9494 111.24 96.4351V93.8092L65.5794 67.3708Z" fill="#251C72"/>
<path opacity="0.4" d="M111.24 96.4351C111.24 96.9494 110.928 97.1858 110.542 96.963L62.4992 69.1496C62.1134 68.927 61.8008 68.3296 61.8008 67.8153V11.2502C61.8008 10.7359 62.1134 10.4996 62.4992 10.7222L110.542 38.5356C110.928 38.7584 111.24 39.3557 111.24 39.87V96.4351Z" fill="#42E8E0"/>
</g>
<g opacity="0.5">
<path d="M0.898438 39.6255V96.349C0.898438 97.5927 1.31723 98.4626 1.97548 98.8308L1.97115 98.8317L4.96263 100.556L4.50139 98.3474L5.95187 97.51C6.03201 97.7395 6.11681 97.9127 6.17537 97.9127C6.34828 97.9127 7.61588 97.9127 7.61588 97.9127L42.6628 78.0808L53.7258 71.7322L56.9525 68.6207L57.0101 10.4247L55.9268 9.96901V8.41494L57.8407 7.02666L54.8975 5.32174L54.8991 5.32873C54.3587 4.99898 53.6486 5.01573 52.8679 5.46659L3.95736 33.7809C2.26793 34.7563 0.898438 37.373 0.898438 39.6255ZM5.19585 65.1271L5.77206 39.7744L6.80918 38.161L43.383 16.3307L53.1324 10.0616V66.0367C53.1324 66.5508 52.8197 67.1483 52.434 67.3709L5.26851 94.678L5.19585 65.1271Z" fill="url(#paint3_linear_602_1441)"/>
<path opacity="0.6" d="M1.86833 36.092L6.44181 38.7325L5.77206 39.7744L5.19585 65.1272L5.26851 94.678L6.11709 94.1881C6.11709 95.1009 4.96263 99.6072 4.96263 100.556L2.53116 99.1544L1.97115 98.8316L1.97548 98.8307C1.31717 98.4627 0.898438 97.5927 0.898438 96.3489V39.6254C0.898437 38.4513 1.27271 37.18 1.86833 36.092Z" fill="#0F054C"/>
<path d="M3.97852 41.4043V98.1279C3.97852 100.38 5.34803 101.416 7.03737 100.44L55.9479 72.1259C57.6373 71.1505 59.0068 68.5339 59.0068 66.2813V9.55783C59.0068 7.30526 57.6373 6.26989 55.9479 7.24523L7.03737 35.5597C5.34803 36.535 3.97852 39.1518 3.97852 41.4043ZM6.77289 39.8702C6.77289 39.3559 7.08554 38.7585 7.47127 38.5358L55.514 10.7223C55.8998 10.4997 56.2124 10.7361 56.2124 11.2504V67.8154C56.2124 68.3297 55.8998 68.9271 55.514 69.1497L7.47127 96.9632C7.08554 97.1859 6.77289 96.9496 6.77289 96.4353V39.8702Z" fill="url(#paint4_linear_602_1441)"/>
<path d="M3.97852 41.4043V98.1279C3.97852 100.38 5.34803 101.416 7.03737 100.44L55.9479 72.1259C57.6373 71.1505 59.0068 68.5339 59.0068 66.2813V9.55783C59.0068 7.30526 57.6373 6.26989 55.9479 7.24523L7.03737 35.5597C5.34803 36.535 3.97852 39.1518 3.97852 41.4043ZM6.77289 39.8702C6.77289 39.3559 7.08554 38.7585 7.47127 38.5358L55.514 10.7223C55.8998 10.4997 56.2124 10.7361 56.2124 11.2504V67.8154C56.2124 68.3297 55.8998 68.9271 55.514 69.1497L7.47127 96.9632C7.08554 97.1859 6.77289 96.9496 6.77289 96.4353V39.8702Z" fill="url(#paint5_linear_602_1441)"/>
<path d="M52.4343 67.3708C52.8199 67.1482 53.1327 66.5507 53.1327 66.0366V12.0974L55.5146 10.7222C55.9003 10.4996 56.2129 10.7359 56.2129 11.2502V67.8153C56.2129 68.3296 55.9003 68.927 55.5146 69.1496L7.47182 96.963C7.08608 97.1858 6.77344 96.9494 6.77344 96.4351V93.8092L52.4343 67.3708Z" fill="#251C72"/>
<path opacity="0.4" d="M6.77344 96.4351C6.77344 96.9494 7.08608 97.1858 7.47182 96.963L55.5146 69.1496C55.9003 68.927 56.2129 68.3296 56.2129 67.8153V11.2502C56.2129 10.7359 55.9003 10.4996 55.5146 10.7222L7.47182 38.5356C7.08608 38.7584 6.77344 39.3557 6.77344 39.87V96.4351Z" fill="#42E8E0"/>
</g>
<path d="M59.0074 71.907L45.582 64.1558V79.6577L59.0074 87.4088L72.4329 79.6577V64.1558L59.0074 71.907Z" fill="#42E8E0"/>
<path d="M59.0075 87.4089L45.582 79.6577V64.1558L59.0075 71.907V87.4089Z" fill="#42E8E0"/>
<path d="M72.4332 79.6577L59.0078 87.4089V71.907L72.4332 64.1558V79.6577Z" fill="#2FD3C7"/>
<path d="M59.0075 71.9072L45.582 64.156L59.0071 56.405L72.4326 64.1562L59.0075 71.9072Z" fill="#42E8E0"/>
<path d="M59.0074 71.9072L46.1642 64.4922L45.582 64.8284L59.0074 72.5796L72.4326 64.8286L71.8503 64.4924L59.0074 71.9072Z" fill="white"/>
<path d="M76.4449 81.857L63.0195 74.1057V89.6076L76.4449 97.3588L89.8704 89.6076V74.1057L76.4449 81.857Z" fill="#42E8E0"/>
<path d="M76.445 97.3589L63.0195 89.6076V74.1057L76.445 81.8569V97.3589Z" fill="#42E8E0"/>
<path d="M89.8707 89.6076L76.4453 97.3589V81.8569L89.8707 74.1057V89.6076Z" fill="#2FD3C7"/>
<path d="M76.445 81.8571L63.0195 74.1059L76.4446 66.355L89.8701 74.1062L76.445 81.8571Z" fill="#42E8E0"/>
<path d="M76.4449 81.8572L63.6018 74.4421L63.0195 74.7783L76.4449 82.5296L89.8701 74.7785L89.2878 74.4423L76.4449 81.8572Z" fill="white"/>
<path d="M93.8844 91.8074L80.459 84.0562V99.5581L93.8844 107.309L107.31 99.5581V84.0562L93.8844 91.8074Z" fill="#42E8E0"/>
<path d="M93.8844 107.309L80.459 99.5583V84.0564L93.8844 91.8075V107.309Z" fill="#42E8E0"/>
<path d="M107.31 99.5583L93.8848 107.309V91.8075L107.31 84.0564V99.5583Z" fill="#2FD3C7"/>
<path d="M93.8845 91.8073L80.459 84.0562L93.884 76.3052L107.31 84.0564L93.8845 91.8073Z" fill="#42E8E0"/>
<path d="M93.8844 91.8074L81.0412 84.3923L80.459 84.7285L93.8844 92.4798L107.309 84.7288L107.31 84.0562L93.8844 91.8074Z" fill="white"/>
<path d="M41.5699 82.5296L28.1445 74.7783V90.2803L41.5699 98.0314L54.9954 90.2803V74.7783L41.5699 82.5296Z" fill="#42E8E0"/>
<path d="M41.57 98.0315L28.1445 90.2803V74.7783L41.57 82.5295V98.0315Z" fill="#42E8E0"/>
<path d="M54.9957 90.2803L41.5703 98.0315V82.5295L54.9957 74.7783V90.2803Z" fill="#2FD3C7"/>
<path d="M41.57 82.5297L28.1445 74.7785L41.5696 67.0276L54.995 74.7788L41.57 82.5297Z" fill="#42E8E0"/>
<path d="M41.5699 82.5299L28.7268 75.1147L28.1445 75.4509L41.5699 83.2022L54.995 75.4511L54.4128 75.115L41.5699 82.5299Z" fill="white"/>
<path d="M59.0074 92.4798L45.582 84.7285V100.23L59.0074 107.982L72.4329 100.23V84.7285L59.0074 92.4798Z" fill="#42E8E0"/>
<path d="M59.0075 107.982L45.582 100.231V84.729L59.0075 92.4802V107.982Z" fill="#42E8E0"/>
<path d="M72.4332 100.231L59.0078 107.982V92.4802L72.4332 84.729V100.231Z" fill="#2FD3C7"/>
<path d="M59.0075 92.4799L45.582 84.7288L59.0071 76.9778L72.4326 84.729L59.0075 92.4799Z" fill="#42E8E0"/>
<path d="M59.0074 92.4801L46.1642 85.0649L45.582 85.4011L59.0074 93.1524L72.4326 85.4014L71.8503 85.0652L59.0074 92.4801Z" fill="white"/>
<path d="M76.4449 102.43L63.0195 94.6792V110.181L76.4449 117.932L89.8704 110.181V94.6792L76.4449 102.43Z" fill="#42E8E0"/>
<path d="M76.445 117.932L63.0195 110.181V94.6792L76.445 102.43V117.932Z" fill="#42E8E0"/>
<path d="M89.8707 110.181L76.4453 117.932V102.43L89.8707 94.6792V110.181Z" fill="#2FD3C7"/>
<path d="M76.445 102.43L63.0195 94.679L76.4446 86.928L89.8701 94.6792L76.445 102.43Z" fill="#42E8E0"/>
<path d="M76.4449 102.43L63.6018 95.0154L63.0195 95.3515L76.4449 103.103L89.8701 95.3517L89.8704 94.6792L76.4449 102.43Z" fill="white"/>
<path d="M24.1285 93.1528L10.7031 85.4016V100.903L24.1285 108.655L37.554 100.903V85.4016L24.1285 93.1528Z" fill="#42E8E0"/>
<path d="M24.1286 108.655L10.7031 100.904V85.4016L24.1286 93.1527V108.655Z" fill="#42E8E0"/>
<path d="M37.5543 100.904L24.1289 108.655V93.1527L37.5543 85.4016V100.904Z" fill="#2FD3C7"/>
<path d="M24.1286 93.1525L10.7031 85.4014L24.1282 77.6504L37.5536 85.4016L24.1286 93.1525Z" fill="#42E8E0"/>
<path d="M24.1286 93.1525L10.7031 85.4011L10.7032 86.0735L24.1286 93.8248L37.5537 86.0738L36.9714 85.7376L24.1286 93.1525Z" fill="white"/>
<path d="M41.5699 103.102L28.1445 95.3511V110.853L41.5699 118.604L54.9954 110.853V95.3511L41.5699 103.102Z" fill="#42E8E0"/>
<path d="M41.57 118.604L28.1445 110.853V95.3511L41.57 103.102V118.604Z" fill="#42E8E0"/>
<path d="M54.9957 110.853L41.5703 118.604V103.102L54.9957 95.3511V110.853Z" fill="#2FD3C7"/>
<path d="M41.57 103.102L28.1445 95.3513L41.5696 87.6003L54.995 95.3515L41.57 103.102Z" fill="#42E8E0"/>
<path d="M41.5699 103.102L28.1445 95.3511V96.0235L41.5699 103.775L54.995 96.0238L54.4128 95.6876L41.5699 103.102Z" fill="white"/>
<path d="M59.0074 113.052L45.582 105.301V120.803L59.0074 128.554L72.4329 120.803V105.301L59.0074 113.052Z" fill="#42E8E0"/>
<path d="M59.0075 128.554L45.582 120.803V105.301L59.0075 113.052V128.554Z" fill="#42E8E0"/>
<path d="M72.4332 120.803L59.0078 128.554V113.052L72.4332 105.301V120.803Z" fill="#2FD3C7"/>
<path d="M59.0075 113.052L45.582 105.301L59.0071 97.5503L72.4326 105.302L59.0075 113.052Z" fill="#42E8E0"/>
<path d="M59.0074 113.052L45.582 105.301V105.973L59.0074 113.725L72.4326 105.974L72.4329 105.301L59.0074 113.052Z" fill="white"/>
<path d="M59.0074 51.334L45.582 43.5828V59.0847L59.0074 66.8358L72.4329 59.0847V43.5828L59.0074 51.334Z" fill="#42E8E0"/>
<path d="M59.0075 66.8359L45.582 59.0847V43.5828L59.0075 51.334V66.8359Z" fill="#42E8E0"/>
<path d="M72.4332 59.0847L59.0078 66.8359V51.334L72.4332 43.5828V59.0847Z" fill="#2FD3C7"/>
<path d="M59.0075 51.3342L45.582 43.583L59.0071 35.832L72.4326 43.5832L59.0075 51.3342Z" fill="#42E8E0"/>
<path d="M59.0074 51.3342L46.1642 43.9192L45.582 44.2554L59.0074 52.0066L72.4326 44.2556L71.8503 43.9194L59.0074 51.3342Z" fill="white"/>
<path opacity="0.7" d="M59.006 110.528L49.8477 105.24L59.0057 99.9531L68.164 105.241L59.006 110.528Z" fill="#18B2A3"/>
<path opacity="0.7" d="M41.5685 100.578L32.4102 95.2903L41.5682 90.0029L50.7265 95.2905L41.5685 100.578Z" fill="#18B2A3"/>
<path opacity="0.7" d="M76.4455 99.9051L67.2871 94.6175L76.4452 89.3301L85.6035 94.6176L76.4455 99.9051Z" fill="#18B2A3"/>
<path opacity="0.7" d="M93.9181 89.4046L84.7598 84.117L93.9178 78.8296L103.076 84.1172L93.9181 89.4046Z" fill="#18B2A3"/>
<path opacity="0.7" d="M24.1291 90.6277L14.9707 85.3402L24.1288 80.0527L33.2871 85.3403L24.1291 90.6277Z" fill="#18B2A3"/>
<path d="M76.4449 61.2842L63.0195 53.533V69.0349L76.4449 76.786L89.8704 69.0349V53.533L76.4449 61.2842Z" fill="#42E8E0"/>
<path d="M76.445 76.7861L63.0195 69.0349V53.533L76.445 61.2842V76.7861Z" fill="#42E8E0"/>
<path d="M89.8707 69.0349L76.4453 76.7861V61.2842L89.8707 53.533V69.0349Z" fill="#2FD3C7"/>
<path d="M76.445 61.2844L63.0195 53.5332L76.4446 45.7822L89.8701 53.5334L76.445 61.2844Z" fill="#42E8E0"/>
<path d="M76.4449 61.2845L63.6018 53.8694L63.0195 54.2055L76.4449 61.9568L89.8701 54.2058L89.2878 53.8696L76.4449 61.2845Z" fill="white"/>
<path d="M93.8844 71.2344L80.459 63.4832V78.9851L93.8844 86.7362L107.31 78.9851V63.4832L93.8844 71.2344Z" fill="#42E8E0"/>
<path d="M93.8844 86.7367L80.459 78.9855V63.4836L93.8844 71.2348V86.7367Z" fill="#42E8E0"/>
<path d="M107.31 78.9855L93.8848 86.7367V71.2348L107.31 63.4836V78.9855Z" fill="#2FD3C7"/>
<path d="M93.8845 71.2346L80.459 63.4834L93.884 55.7324L107.31 63.4836L93.8845 71.2346Z" fill="#42E8E0"/>
<path d="M93.8844 71.2344L81.0412 63.8193L80.459 64.1555L93.8844 71.9068L107.309 64.1558L107.31 63.4832L93.8844 71.2344Z" fill="white"/>
<path d="M41.5699 61.9566L28.1445 54.2053V69.7073L41.5699 77.4584L54.9954 69.7073V54.2053L41.5699 61.9566Z" fill="#42E8E0"/>
<path d="M41.57 77.4585L28.1445 69.7073V54.2053L41.57 61.9565V77.4585Z" fill="#42E8E0"/>
<path d="M54.9957 69.7073L41.5703 77.4585V61.9565L54.9957 54.2053V69.7073Z" fill="#2FD3C7"/>
<path d="M41.57 61.9567L28.1445 54.2055L41.5696 46.4546L54.995 54.2058L41.57 61.9567Z" fill="#42E8E0"/>
<path d="M41.5699 61.9569L28.7268 54.5417L28.1445 54.8779L41.5699 62.6292L54.995 54.8781L54.4128 54.542L41.5699 61.9569Z" fill="white"/>
<path d="M59.0074 71.907L45.582 64.1558V79.6577L59.0074 87.4088L72.4329 79.6577V64.1558L59.0074 71.907Z" fill="#42E8E0"/>
<path d="M59.0075 87.4093L45.582 79.6582V64.1562L59.0075 71.9074V87.4093Z" fill="#42E8E0"/>
<path d="M72.4332 79.6582L59.0078 87.4093V71.9074L72.4332 64.1562V79.6582Z" fill="#2FD3C7"/>
<path d="M59.0075 71.9072L45.582 64.156L59.0071 56.405L72.4326 64.1562L59.0075 71.9072Z" fill="#42E8E0"/>
<path d="M59.0074 71.9073L46.1642 64.4922L45.582 64.8284L59.0074 72.5796L72.4326 64.8286L71.8503 64.4925L59.0074 71.9073Z" fill="white"/>
<path d="M76.4449 81.8574L63.0195 74.1062V89.6081L76.4449 97.3592L89.8704 89.6081V74.1062L76.4449 81.8574Z" fill="#42E8E0"/>
<path d="M76.445 97.3593L63.0195 89.6081V74.1062L76.445 81.8574V97.3593Z" fill="#42E8E0"/>
<path d="M89.8707 89.6081L76.4453 97.3593V81.8574L89.8707 74.1062V89.6081Z" fill="#2FD3C7"/>
<path d="M76.445 81.8572L63.0195 74.106L76.4446 66.355L89.8701 74.1062L76.445 81.8572Z" fill="#42E8E0"/>
<path d="M76.4449 81.8574L63.6018 74.4424L63.0195 74.7785L76.4449 82.5297L89.8701 74.7787L89.8704 74.1062L76.4449 81.8574Z" fill="white"/>
<path d="M24.1285 72.5798L10.7031 64.8286V80.3305L24.1285 88.0816L37.554 80.3305V64.8286L24.1285 72.5798Z" fill="#42E8E0"/>
<path d="M24.1286 88.0817L10.7031 80.3305V64.8286L24.1286 72.5798V88.0817Z" fill="#42E8E0"/>
<path d="M37.5543 80.3305L24.1289 88.0817V72.5798L37.5543 64.8286V80.3305Z" fill="#2FD3C7"/>
<path d="M24.1286 72.5796L10.7031 64.8284L24.1282 57.0774L37.5536 64.8286L24.1286 72.5796Z" fill="#42E8E0"/>
<path d="M24.1285 72.5797L11.2853 65.1646L10.7031 65.5007L24.1285 73.252L37.5536 65.501L36.9714 65.1648L24.1285 72.5797Z" fill="white"/>
<path d="M41.5699 82.5295L28.1445 74.7783V90.2802L41.5699 98.0313L54.9954 90.2802V74.7783L41.5699 82.5295Z" fill="#42E8E0"/>
<path d="M41.57 98.0315L28.1445 90.2803V74.7783L41.57 82.5295V98.0315Z" fill="#42E8E0"/>
<path d="M54.9957 90.2803L41.5703 98.0315V82.5295L54.9957 74.7783V90.2803Z" fill="#2FD3C7"/>
<path d="M41.57 82.5297L28.1445 74.7785L41.5696 67.0276L54.995 74.7787L41.57 82.5297Z" fill="#42E8E0"/>
<path d="M41.5699 82.5297L28.1445 74.7783V75.4508L41.5699 83.202L54.995 75.451L54.4128 75.1148L41.5699 82.5297Z" fill="white"/>
<path d="M59.0074 92.4798L45.582 84.7285V100.23L59.0074 107.982L72.4329 100.23V84.7285L59.0074 92.4798Z" fill="#42E8E0"/>
<path d="M59.0075 107.982L45.582 100.23V84.7285L59.0075 92.4797V107.982Z" fill="#42E8E0"/>
<path d="M72.4332 100.23L59.0078 107.982V92.4797L72.4332 84.7285V100.23Z" fill="#2FD3C7"/>
<path d="M59.0075 92.4799L45.582 84.7287L59.0071 76.9778L72.4326 84.729L59.0075 92.4799Z" fill="#42E8E0"/>
<path d="M59.0074 92.4799L45.582 84.7285V85.401L59.0074 93.1522L72.4326 85.4012L72.4329 84.7287L59.0074 92.4799Z" fill="white"/>
<path opacity="0.7" d="M93.9181 68.9229L84.7598 63.6353L93.9178 58.3479L103.076 63.6354L93.9181 68.9229Z" fill="#18B2A3"/>
<path opacity="0.7" d="M24.1291 70.146L14.9707 64.8585L24.1288 59.571L33.2871 64.8586L24.1291 70.146Z" fill="#18B2A3"/>
<path d="M59.0074 30.7615L45.582 23.0103V38.5122L59.0074 46.2633L72.4329 38.5122V23.0103L59.0074 30.7615Z" fill="#42E8E0"/>
<path d="M59.0075 46.2634L45.582 38.5122V23.0103L59.0075 30.7615V46.2634Z" fill="#42E8E0"/>
<path d="M72.4332 38.5122L59.0078 46.2634V30.7615L72.4332 23.0103V38.5122Z" fill="#2FD3C7"/>
<path d="M59.0075 30.7617L45.582 23.0105L59.0071 15.2595L72.4326 23.0107L59.0075 30.7617Z" fill="#42E8E0"/>
<path d="M59.0074 30.7615L45.582 23.0103V23.6826L59.0074 31.4338L72.4326 23.6828L72.4329 23.0103L59.0074 30.7615Z" fill="white"/>
<path d="M76.4449 40.712L63.0195 32.9607V48.4626L76.4449 56.2138L89.8704 48.4626V32.9607L76.4449 40.712Z" fill="#42E8E0"/>
<path d="M76.445 56.2138L63.0195 48.4626V32.9607L76.445 40.7119V56.2138Z" fill="#42E8E0"/>
<path d="M89.8707 48.4626L76.4453 56.2138V40.7119L89.8707 32.9607V48.4626Z" fill="#2FD3C7"/>
<path d="M76.445 40.7121L63.0195 32.9609L76.4446 25.21L89.8701 32.9612L76.445 40.7121Z" fill="#42E8E0"/>
<path d="M76.4449 40.7121L63.0195 32.9607V33.6332L76.4449 41.3845L89.8701 33.6334L89.8704 32.9608L76.4449 40.7121Z" fill="white"/>
<path d="M93.8844 50.6622L80.459 42.9109V58.4128L93.8844 66.164L107.31 58.4128V42.9109L93.8844 50.6622Z" fill="#42E8E0"/>
<path d="M93.8844 66.1642L80.459 58.413V42.9111L93.8844 50.6623V66.1642Z" fill="#42E8E0"/>
<path d="M107.31 58.413L93.8848 66.1642V50.6623L107.31 42.9111V58.413Z" fill="#2FD3C7"/>
<path d="M93.8845 50.6623L80.459 42.9112L93.884 35.1602L107.31 42.9114L93.8845 50.6623Z" fill="#42E8E0"/>
<path d="M93.8844 50.6622L80.459 42.9109V43.5833L93.8844 51.3346L107.309 43.5836L107.31 42.911L93.8844 50.6622Z" fill="white"/>
<path d="M41.5699 41.3843L28.1445 33.6331V49.135L41.5699 56.8861L54.9954 49.135V33.6331L41.5699 41.3843Z" fill="#42E8E0"/>
<path d="M41.57 56.8862L28.1445 49.135V33.6331L41.57 41.3843V56.8862Z" fill="#42E8E0"/>
<path d="M54.9957 49.135L41.5703 56.8862V41.3843L54.9957 33.6331V49.135Z" fill="#2FD3C7"/>
<path d="M41.57 41.3845L28.1445 33.6333L41.5696 25.8823L54.995 33.6335L41.57 41.3845Z" fill="#42E8E0"/>
<path d="M41.5699 41.3843L28.1445 33.6331V34.3054L41.5699 42.0567L54.9951 34.3056L54.9954 33.6331L41.5699 41.3843Z" fill="white"/>
<path d="M24.1285 52.0073L10.7031 44.2561V59.758L24.1285 67.5091L37.554 59.758V44.2561L24.1285 52.0073Z" fill="#42E8E0"/>
<path d="M24.1286 67.5092L10.7031 59.758V44.2561L24.1286 52.0073V67.5092Z" fill="#42E8E0"/>
<path d="M37.5543 59.758L24.1289 67.5092V52.0073L37.5543 44.2561V59.758Z" fill="#2FD3C7"/>
<path d="M24.1286 52.0071L10.7031 44.2559L24.1282 36.5049L37.5536 44.2561L24.1286 52.0071Z" fill="#42E8E0"/>
<path d="M24.1285 52.0073L10.7031 44.2561V44.9284L24.1285 52.6796L37.5536 44.9286L37.554 44.2561L24.1285 52.0073Z" fill="white"/>
<path opacity="0.7" d="M59.006 90.2027L49.8477 84.9151L59.0057 79.6277L68.164 84.9152L59.006 90.2027Z" fill="#18B2A3"/>
<path opacity="0.7" d="M41.5685 80.2525L32.4102 74.9649L41.5682 69.6775L50.7265 74.965L41.5685 80.2525Z" fill="#18B2A3"/>
<path opacity="0.7" d="M76.4455 79.5801L67.2871 74.2925L76.4452 69.0051L85.6035 74.2927L76.4455 79.5801Z" fill="#18B2A3"/>
<path d="M59.0074 51.5821L45.582 43.8308V59.3327L59.0074 67.0839L72.4329 59.3327V43.8308L59.0074 51.5821Z" fill="#42E8E0"/>
<path d="M59.0075 67.084L45.582 59.3327V43.8308L59.0075 51.582V67.084Z" fill="#42E8E0"/>
<path d="M72.4332 59.3327L59.0078 67.084V51.582L72.4332 43.8308V59.3327Z" fill="#2FD3C7"/>
<path d="M59.0075 51.5822L45.582 43.831L59.0071 36.0801L72.4326 43.8312L59.0075 51.5822Z" fill="#42E8E0"/>
<path d="M59.0074 51.5824L46.1642 44.1672L45.582 44.5034L59.0074 52.2546L72.4326 44.5036L71.8503 44.1674L59.0074 51.5824Z" fill="white"/>
<path d="M76.4449 61.532L63.0195 53.7808V69.2827L76.4449 77.0339L89.8704 69.2827V53.7808L76.4449 61.532Z" fill="#42E8E0"/>
<path d="M76.445 77.0339L63.0195 69.2827V53.7808L76.445 61.532V77.0339Z" fill="#42E8E0"/>
<path d="M89.8707 69.2827L76.4453 77.0339V61.532L89.8707 53.7808V69.2827Z" fill="#2FD3C7"/>
<path d="M76.445 61.5322L63.0195 53.781L76.4446 46.03L89.8701 53.7812L76.445 61.5322Z" fill="#42E8E0"/>
<path d="M76.4449 61.532L63.6018 54.1169L63.0195 54.4531L76.4449 62.2044L89.8701 54.4533L89.8704 53.7808L76.4449 61.532Z" fill="white"/>
<path d="M41.5699 62.2047L28.1445 54.4534V69.9553L41.5699 77.7065L54.9954 69.9553V54.4534L41.5699 62.2047Z" fill="#42E8E0"/>
<path d="M41.57 77.7069L28.1445 69.9557V54.4539L41.57 62.205V77.7069Z" fill="#42E8E0"/>
<path d="M54.9957 69.9557L41.5703 77.7069V62.205L54.9957 54.4539V69.9557Z" fill="#2FD3C7"/>
<path d="M41.57 62.2048L28.1445 54.4536L41.5696 46.7026L54.995 54.4539L41.57 62.2048Z" fill="#42E8E0"/>
<path d="M41.5699 62.2047L28.1445 54.4534V55.1258L41.5699 62.877L54.995 55.126L54.4128 54.7899L41.5699 62.2047Z" fill="white"/>
<path d="M59.0074 72.1548L45.582 64.4036V79.9054L59.0074 87.6566L72.4329 79.9054V64.4036L59.0074 72.1548Z" fill="#42E8E0"/>
<path d="M59.0075 87.6566L45.582 79.9055V64.4036L59.0075 72.1548V87.6566Z" fill="#42E8E0"/>
<path d="M72.4332 79.9055L59.0078 87.6566V72.1548L72.4332 64.4036V79.9055Z" fill="#2FD3C7"/>
<path d="M59.0075 72.1546L45.582 64.4033L59.0071 56.6523L72.4326 64.4036L59.0075 72.1546Z" fill="#42E8E0"/>
<path d="M59.0074 72.1544L45.582 64.4031V65.0755L59.0074 72.8268L72.4326 65.0758L72.4329 64.4032L59.0074 72.1544Z" fill="white"/>
<path d="M55.3639 65.3232L6.45336 37.0088C5.67271 36.558 4.96261 36.5412 4.42212 36.871L4.42374 36.864L1.48047 38.569L3.39444 39.9572V41.5112L2.31111 41.9669L2.36878 100.163L5.59549 103.274L16.6585 109.623L51.7054 129.455C51.7054 129.455 52.973 129.455 53.1459 129.455C53.2044 129.455 53.2893 129.282 53.3694 129.052L54.8199 129.89L54.3586 132.099L57.3501 130.374L57.3458 130.373C58.004 130.005 58.4228 129.135 58.4228 127.891V71.1677C58.4228 68.9153 57.0533 66.2985 55.3639 65.3232ZM54.0527 126.22L6.88725 98.9132C6.50152 98.6906 6.1889 98.0931 6.1889 97.5789V41.6039L15.9383 47.873L52.512 69.7033L53.5492 71.3166L54.1254 96.6693L54.0527 126.22Z" fill="url(#paint6_linear_602_1441)"/>
<path opacity="0.6" d="M57.4524 67.6343L52.8789 70.2748L53.5486 71.3167L54.1248 96.6694L54.0522 126.22L53.2036 125.73C53.2036 126.643 54.3581 131.149 54.3581 132.099L56.7895 130.697L57.3496 130.374L57.3452 130.373C58.0035 130.005 58.4223 129.135 58.4223 127.891V71.1677C58.4223 69.9936 58.048 68.7224 57.4524 67.6343Z" fill="#0F054C"/>
<path d="M52.2819 67.1019L3.37142 38.7875C1.68202 37.8121 0.3125 38.8475 0.3125 41.1V97.8235C0.3125 100.076 1.68202 102.693 3.37142 103.668L52.2819 131.983C53.9713 132.958 55.3408 131.923 55.3408 129.67V72.9466C55.3408 70.694 53.9713 68.0773 52.2819 67.1019ZM52.5465 127.978C52.5465 128.492 52.2338 128.728 51.8481 128.505L3.80532 100.692C3.41958 100.469 3.10696 99.8719 3.10696 99.3576V42.7927C3.10696 42.2783 3.41958 42.042 3.80532 42.2646L51.8481 70.0781C52.2338 70.3007 52.5465 70.8981 52.5465 71.4124V127.978Z" fill="url(#paint7_linear_602_1441)"/>
<path d="M52.2819 67.1019L3.37142 38.7875C1.68202 37.8121 0.3125 38.8475 0.3125 41.1V97.8235C0.3125 100.076 1.68202 102.693 3.37142 103.668L52.2819 131.983C53.9713 132.958 55.3408 131.923 55.3408 129.67V72.9466C55.3408 70.694 53.9713 68.0773 52.2819 67.1019ZM52.5465 127.978C52.5465 128.492 52.2338 128.728 51.8481 128.505L3.80532 100.692C3.41958 100.469 3.10696 99.8719 3.10696 99.3576V42.7927C3.10696 42.2783 3.41958 42.042 3.80532 42.2646L51.8481 70.0781C52.2338 70.3007 52.5465 70.8981 52.5465 71.4124V127.978Z" fill="url(#paint8_linear_602_1441)"/>
<path d="M6.88607 98.913C6.50033 98.6904 6.18771 98.093 6.18771 97.5787V43.6397L3.80578 42.2644C3.42005 42.0418 3.10742 42.2781 3.10742 42.7925V99.3574C3.10742 99.8717 3.42005 100.469 3.80578 100.692L51.8486 128.505C52.2342 128.728 52.5469 128.492 52.5469 127.977V125.351L6.88607 98.913Z" fill="#251C72"/>
<path opacity="0.7" d="M52.5469 127.977C52.5469 128.492 52.2342 128.728 51.8486 128.505L3.80578 100.692C3.42005 100.469 3.10742 99.8717 3.10742 99.3574V42.7925C3.10742 42.2781 3.42005 42.0418 3.80578 42.2644L51.8486 70.0779C52.2342 70.3005 52.5469 70.8979 52.5469 71.4122V127.977Z" fill="#42E8E0"/>
<path d="M58.4082 71.1677V127.891C58.4082 129.135 58.827 130.005 59.4852 130.373L59.4809 130.374L62.4724 132.099L62.0112 129.89L63.4616 129.052C63.5418 129.282 63.6266 129.455 63.6851 129.455C63.858 129.455 65.1256 129.455 65.1256 129.455L100.172 109.623L111.236 103.274L114.462 100.163L114.52 41.9669L113.437 41.5112V39.9572L115.35 38.569L112.407 36.864L112.409 36.871C111.868 36.5412 111.158 36.558 110.378 37.0088L61.4671 65.3232C59.7777 66.2985 58.4082 68.9153 58.4082 71.1677ZM62.7056 96.6693L63.2818 71.3166L64.3189 69.7033L100.893 47.873L110.642 41.6039V97.5789C110.642 98.0931 110.329 98.6906 109.944 98.9132L62.7783 126.22L62.7056 96.6693Z" fill="url(#paint9_linear_602_1441)"/>
<path opacity="0.6" d="M58.4082 71.1677V127.891C58.4082 129.135 58.827 130.005 59.4852 130.373L59.4809 130.374L62.4724 132.099L62.0112 129.89L63.4616 129.052C63.5418 129.282 63.6266 129.455 63.6851 129.455C63.858 129.455 65.1256 129.455 65.1256 129.455L100.172 109.623L111.236 103.274L114.462 100.163L114.52 41.9669L113.437 41.5112V39.9572L115.35 38.569L112.407 36.864L112.409 36.871C111.868 36.5412 111.158 36.558 110.378 37.0088L61.4671 65.3232C59.7777 66.2985 58.4082 68.9153 58.4082 71.1677ZM62.7056 96.6693L63.2818 71.3166L64.3189 69.7033L100.893 47.873L110.642 41.6039V97.5789C110.642 98.0931 110.329 98.6906 109.944 98.9132L62.7783 126.22L62.7056 96.6693Z" fill="#0F054C"/>
<path d="M61.4883 72.9466V129.67C61.4883 131.923 62.8578 132.958 64.5472 131.983L113.458 103.668C115.147 102.693 116.517 100.076 116.517 97.8235V41.1C116.517 38.8475 115.147 37.8121 113.458 38.7875L64.5472 67.1019C62.8578 68.0773 61.4883 70.694 61.4883 72.9466ZM64.2827 71.4124C64.2827 70.8981 64.5954 70.3007 64.9811 70.0781L113.024 42.2646C113.41 42.042 113.722 42.2783 113.722 42.7927V99.3576C113.722 99.8719 113.41 100.469 113.024 100.692L64.9811 128.505C64.5954 128.728 64.2827 128.492 64.2827 127.978V71.4124Z" fill="url(#paint10_linear_602_1441)"/>
<path opacity="0.75" d="M61.4883 72.9466V129.67C61.4883 131.923 62.8578 132.958 64.5472 131.983L113.458 103.668C115.147 102.693 116.517 100.076 116.517 97.8235V41.1C116.517 38.8475 115.147 37.8121 113.458 38.7875L64.5472 67.1019C62.8578 68.0773 61.4883 70.694 61.4883 72.9466ZM64.2827 71.4124C64.2827 70.8981 64.5954 70.3007 64.9811 70.0781L113.024 42.2646C113.41 42.042 113.722 42.2783 113.722 42.7927V99.3576C113.722 99.8719 113.41 100.469 113.024 100.692L64.9811 128.505C64.5954 128.728 64.2827 128.492 64.2827 127.978V71.4124Z" fill="#0F054C"/>
<path d="M3.17871 42.4144C2.88988 42.3618 2.67773 42.5918 2.67773 43.0139V99.5791C2.67773 100.093 2.99032 100.691 3.37603 100.913L51.4188 128.727C51.695 128.886 51.9314 128.807 52.0447 128.563C51.9818 128.551 51.9164 128.531 51.8474 128.491L3.80456 100.678C3.41889 100.455 3.10626 99.8575 3.10626 99.3433V42.7783C3.10626 42.6321 3.13376 42.5116 3.17871 42.4144Z" fill="white"/>
<path d="M52.2805 67.0876L3.37006 38.7732C2.51484 38.2795 1.74256 38.3026 1.1875 38.7364C1.68434 38.5582 2.28834 38.6318 2.94147 39.009L51.8519 67.3234C53.5414 68.2988 54.9109 70.9155 54.9109 73.1679V129.892C54.9109 131.004 54.576 131.818 54.0345 132.241C54.8229 131.958 55.3394 131.037 55.3394 129.656V72.9323C55.3394 70.6798 53.9699 68.063 52.2805 67.0876Z" fill="white"/>
<path d="M113.649 42.4142C113.938 42.3615 114.15 42.5916 114.15 43.0137V99.5788C114.15 100.093 113.838 100.691 113.452 100.913L65.4092 128.727C65.1331 128.886 64.8966 128.807 64.7832 128.563C64.8462 128.551 64.9116 128.531 64.9806 128.491L113.023 100.677C113.409 100.455 113.722 99.8573 113.722 99.3431V42.778C113.722 42.6319 113.694 42.5113 113.649 42.4142Z" fill="#42E8E0"/>
<path d="M64.5472 67.0876L113.458 38.7732C114.313 38.2795 115.085 38.3026 115.64 38.7364C115.143 38.5582 114.539 38.6318 113.886 39.009L64.9758 67.3234C63.2864 68.2988 61.9169 70.9155 61.9169 73.1679V129.892C61.9169 131.004 62.2517 131.818 62.7932 132.241C62.0049 131.958 61.4883 131.037 61.4883 129.656V72.9323C61.4883 70.6798 62.8578 68.063 64.5472 67.0876Z" fill="#42E8E0"/>
<path d="M109.944 98.913C110.33 98.6904 110.642 98.093 110.642 97.5787V43.6397L113.024 42.2644C113.41 42.0418 113.723 42.2781 113.723 42.7925V99.3574C113.723 99.8717 113.41 100.469 113.024 100.692L64.9816 128.505C64.5959 128.728 64.2832 128.492 64.2832 127.977V125.351L109.944 98.913Z" fill="#251C72"/>
<path opacity="0.2" d="M64.2832 127.977C64.2832 128.492 64.5959 128.728 64.9816 128.505L113.024 100.692C113.41 100.469 113.723 99.8717 113.723 99.3574V42.7925C113.723 42.2781 113.41 42.0418 113.024 42.2644L64.9816 70.0779C64.5959 70.3005 64.2832 70.8979 64.2832 71.4122V127.977Z" fill="#42E8E0"/>
<path d="M3.17871 42.4144C2.88988 42.3618 2.67773 42.5918 2.67773 43.0139V99.5791C2.67773 100.093 2.99032 100.691 3.37603 100.913L51.4188 128.727C51.695 128.886 51.9314 128.807 52.0447 128.563C51.9818 128.551 51.9164 128.531 51.8474 128.491L3.80456 100.678C3.41889 100.455 3.10626 99.8575 3.10626 99.3433V42.7783C3.10626 42.6321 3.13376 42.5116 3.17871 42.4144Z" fill="#42E8E0"/>
<path d="M52.2805 67.0876L3.37006 38.7732C2.51484 38.2795 1.74256 38.3026 1.1875 38.7364C1.68434 38.5582 2.28834 38.6318 2.94147 39.009L51.8519 67.3234C53.5414 68.2988 54.9109 70.9155 54.9109 73.1679V129.892C54.9109 131.004 54.576 131.818 54.0345 132.241C54.8229 131.958 55.3394 131.037 55.3394 129.656V72.9323C55.3394 70.6798 53.9699 68.063 52.2805 67.0876Z" fill="#42E8E0"/>
<path d="M61.9558 65.0493L111.109 36.7389C112.187 36.1182 112.732 35.3212 112.722 34.567L112.725 34.5703L112.727 31.1173L111.043 32.6194L109.593 31.7804C109.752 31.5965 109.86 31.4365 109.831 31.3857C109.745 31.2359 109.112 30.1375 109.112 30.1375L74.4349 9.66563L63.412 3.24756L59.1053 2.00439L8.64688 30.9997L8.79269 32.1659L7.44608 32.9415L5.2878 31.9758L5.2793 35.3772L5.28452 35.3723C5.26854 36.0052 5.63751 36.6122 6.41784 37.0637L55.3645 65.3155C57.0528 66.2927 60.0039 66.1734 61.9558 65.0493ZM81.9093 48.5977L59.6524 60.7517L57.7367 60.6582L20.566 39.8606L10.2676 34.5411L58.7728 6.60433C59.2183 6.34774 59.8921 6.32045 60.2775 6.54361L107.48 33.7861L81.9093 48.5977Z" fill="url(#paint11_linear_602_1441)"/>
<path opacity="0.6" d="M58.4082 65.9725L58.4138 60.6915L59.6509 60.7519L81.9078 48.5978L107.479 33.7862L106.631 33.2954C107.422 32.8398 111.903 31.5911 112.725 31.1174L112.724 33.9241L112.724 34.5705L112.721 34.5672C112.73 35.3212 112.186 36.1183 111.108 36.7391L61.9541 65.0494C60.9367 65.6354 59.6483 65.9455 58.4082 65.9725Z" fill="#0F054C"/>
<path d="M61.9601 61.4923L111.114 33.1819C113.066 32.0577 113.279 30.3543 111.591 29.3771L62.6443 1.1253C60.9557 0.148216 58.0048 0.267437 56.0529 1.39167L6.89928 29.702C4.94726 30.8262 4.73361 32.5297 6.42197 33.5069L55.3687 61.7586C57.0571 62.7357 60.0082 62.6165 61.9601 61.4923ZM59.236 59.8365C58.7903 60.0932 58.1166 60.1203 57.7311 59.8972L9.65162 32.1474C9.26625 31.9242 9.31497 31.5354 9.76067 31.2787L58.777 3.04751C59.2226 2.79078 59.8964 2.76355 60.2818 2.98664L108.361 30.7366C108.747 30.9597 108.698 31.3485 108.252 31.6052L59.236 59.8365Z" fill="url(#paint12_linear_602_1441)"/>
<path d="M61.9601 61.4923L111.114 33.1819C113.066 32.0577 113.279 30.3543 111.591 29.3771L62.6443 1.1253C60.9557 0.148216 58.0048 0.267437 56.0529 1.39167L6.89928 29.702C4.94726 30.8262 4.73361 32.5297 6.42197 33.5069L55.3687 61.7586C57.0571 62.7357 60.0082 62.6165 61.9601 61.4923ZM59.236 59.8365C58.7903 60.0932 58.1166 60.1203 57.7311 59.8972L9.65162 32.1474C9.26625 31.9242 9.31497 31.5354 9.76067 31.2787L58.777 3.04751C59.2226 2.79078 59.8964 2.76355 60.2818 2.98664L108.361 30.7366C108.747 30.9597 108.698 31.3485 108.252 31.6052L59.236 59.8365Z" fill="url(#paint13_linear_602_1441)"/>
<path d="M108.36 30.2541L60.2809 2.50429C59.8955 2.2812 59.2217 2.30842 58.7761 2.56515L9.75969 30.7963C9.39903 31.004 9.30334 31.2971 9.48238 31.5201C9.54407 31.4336 9.63441 31.3506 9.75969 31.2784L58.7761 3.04734C59.2217 2.79054 59.8955 2.76332 60.2809 2.9864L108.36 30.7363C108.434 30.7789 108.487 30.8287 108.529 30.8812C108.687 30.6602 108.638 30.4145 108.36 30.2541Z" fill="#42E8E0"/>
<path d="M111.112 32.6998L61.9587 61.0101C60.0068 62.1343 57.0558 62.2536 55.3674 61.2764L6.42068 33.0246C5.75415 32.6388 5.38867 32.1394 5.30491 31.6075C5.19302 32.3142 5.5553 33.006 6.42068 33.5067L55.3674 61.7585C57.0558 62.7357 60.0068 62.6164 61.9587 61.4922L111.112 33.1819C112.294 32.5015 112.834 31.6094 112.705 30.7942C112.599 31.4662 112.064 32.1517 111.112 32.6998Z" fill="#42E8E0"/>
<path d="M60.2766 6.54373C59.8912 6.32058 59.2174 6.34787 58.7719 6.60446L12.031 33.5251L9.65056 32.1475C9.26519 31.9243 9.3139 31.5354 9.7596 31.2788L58.7759 3.04757C59.2215 2.79084 59.8953 2.76362 60.2807 2.9867L108.36 30.7366C108.746 30.9597 108.697 31.3486 108.251 31.6053L105.976 32.9159L60.2766 6.54373Z" fill="#251C72"/>
<path opacity="0.7" d="M108.251 31.6053C108.697 31.3486 108.746 30.9597 108.36 30.7366L60.2807 2.9867C59.8953 2.76362 59.2215 2.79084 58.7759 3.04757L9.7596 31.2788C9.3139 31.5354 9.26519 31.9243 9.65056 32.1475L57.73 59.8973C58.1156 60.1204 58.7892 60.0933 59.2349 59.8366L108.251 31.6053Z" fill="#42E8E0"/>
<defs>
<linearGradient id="paint0_linear_602_1441" x1="71.3822" y1="52.8292" x2="117.558" y2="52.8292" gradientUnits="userSpaceOnUse">
<stop stop-color="#BCBEFF"/>
<stop offset="0.165912" stop-color="#B6B8FC"/>
<stop offset="0.39559" stop-color="#A4A8F5"/>
<stop offset="0.66249" stop-color="#868DEA"/>
<stop offset="0.955395" stop-color="#5E67DA"/>
<stop offset="1" stop-color="#5761D7"/>
</linearGradient>
<linearGradient id="paint1_linear_602_1441" x1="59.0059" y1="53.8428" x2="114.034" y2="53.8428" gradientUnits="userSpaceOnUse">
<stop stop-color="#BCBEFF"/>
<stop offset="0.165912" stop-color="#B6B8FC"/>
<stop offset="0.39559" stop-color="#A4A8F5"/>
<stop offset="0.66249" stop-color="#868DEA"/>
<stop offset="0.955395" stop-color="#5E67DA"/>
<stop offset="1" stop-color="#5761D7"/>
</linearGradient>
<linearGradient id="paint2_linear_602_1441" x1="51.4056" y1="53.8428" x2="150.685" y2="53.8428" gradientUnits="userSpaceOnUse">
<stop stop-color="#706EC4"/>
<stop offset="0.0222208" stop-color="#6D6BC2"/>
<stop offset="0.250885" stop-color="#5651AC"/>
<stop offset="0.48649" stop-color="#463F9D"/>
<stop offset="0.731354" stop-color="#3C3494"/>
<stop offset="1" stop-color="#393091"/>
</linearGradient>
<linearGradient id="paint3_linear_602_1441" x1="46.6323" y1="52.8292" x2="0.45634" y2="52.8292" gradientUnits="userSpaceOnUse">
<stop stop-color="#BCBEFF"/>
<stop offset="0.165912" stop-color="#B6B8FC"/>
<stop offset="0.39559" stop-color="#A4A8F5"/>
<stop offset="0.66249" stop-color="#868DEA"/>
<stop offset="0.955395" stop-color="#5E67DA"/>
<stop offset="1" stop-color="#5761D7"/>
</linearGradient>
<linearGradient id="paint4_linear_602_1441" x1="59.0068" y1="53.8428" x2="3.9785" y2="53.8428" gradientUnits="userSpaceOnUse">
<stop stop-color="#BCBEFF"/>
<stop offset="0.165912" stop-color="#B6B8FC"/>
<stop offset="0.39559" stop-color="#A4A8F5"/>
<stop offset="0.66249" stop-color="#868DEA"/>
<stop offset="0.955395" stop-color="#5E67DA"/>
<stop offset="1" stop-color="#5761D7"/>
</linearGradient>
<linearGradient id="paint5_linear_602_1441" x1="66.6071" y1="53.8428" x2="-32.6728" y2="53.8428" gradientUnits="userSpaceOnUse">
<stop stop-color="#706EC4"/>
<stop offset="0.0222208" stop-color="#6D6BC2"/>
<stop offset="0.250885" stop-color="#5651AC"/>
<stop offset="0.48649" stop-color="#463F9D"/>
<stop offset="0.731354" stop-color="#3C3494"/>
<stop offset="1" stop-color="#393091"/>
</linearGradient>
<linearGradient id="paint6_linear_602_1441" x1="12.6888" y1="84.3714" x2="58.8649" y2="84.3714" gradientUnits="userSpaceOnUse">
<stop stop-color="#BCBEFF"/>
<stop offset="0.165912" stop-color="#B6B8FC"/>
<stop offset="0.39559" stop-color="#A4A8F5"/>
<stop offset="0.66249" stop-color="#868DEA"/>
<stop offset="0.955395" stop-color="#5E67DA"/>
<stop offset="1" stop-color="#5761D7"/>
</linearGradient>
<linearGradient id="paint7_linear_602_1441" x1="0.3125" y1="85.385" x2="55.3408" y2="85.385" gradientUnits="userSpaceOnUse">
<stop stop-color="#BCBEFF"/>
<stop offset="0.165912" stop-color="#B6B8FC"/>
<stop offset="0.39559" stop-color="#A4A8F5"/>
<stop offset="0.66249" stop-color="#868DEA"/>
<stop offset="0.955395" stop-color="#5E67DA"/>
<stop offset="1" stop-color="#5761D7"/>
</linearGradient>
<linearGradient id="paint8_linear_602_1441" x1="-7.2878" y1="85.385" x2="91.9921" y2="85.385" gradientUnits="userSpaceOnUse">
<stop stop-color="#706EC4"/>
<stop offset="0.0222208" stop-color="#6D6BC2"/>
<stop offset="0.250885" stop-color="#5651AC"/>
<stop offset="0.48649" stop-color="#463F9D"/>
<stop offset="0.731354" stop-color="#3C3494"/>
<stop offset="1" stop-color="#393091"/>
</linearGradient>
<linearGradient id="paint9_linear_602_1441" x1="132.12" y1="104.47" x2="95.2649" y2="87.9788" gradientUnits="userSpaceOnUse">
<stop stop-color="#BCBEFF"/>
<stop offset="0.165912" stop-color="#B6B8FC"/>
<stop offset="0.39559" stop-color="#A4A8F5"/>
<stop offset="0.66249" stop-color="#868DEA"/>
<stop offset="0.955395" stop-color="#5E67DA"/>
<stop offset="1" stop-color="#5761D7"/>
</linearGradient>
<linearGradient id="paint10_linear_602_1441" x1="-47.7247" y1="94.227" x2="129.465" y2="82.7684" gradientUnits="userSpaceOnUse">
<stop stop-color="#BCBEFF"/>
<stop offset="0.165912" stop-color="#B6B8FC"/>
<stop offset="0.39559" stop-color="#A4A8F5"/>
<stop offset="0.66249" stop-color="#868DEA"/>
<stop offset="0.955395" stop-color="#5E67DA"/>
<stop offset="1" stop-color="#5761D7"/>
</linearGradient>
<linearGradient id="paint11_linear_602_1441" x1="50.5711" y1="18.8282" x2="73.6195" y2="58.8431" gradientUnits="userSpaceOnUse">
<stop stop-color="#BCBEFF"/>
<stop offset="0.165912" stop-color="#B6B8FC"/>
<stop offset="0.39559" stop-color="#A4A8F5"/>
<stop offset="0.66249" stop-color="#868DEA"/>
<stop offset="0.955395" stop-color="#5E67DA"/>
<stop offset="1" stop-color="#5761D7"/>
</linearGradient>
<linearGradient id="paint12_linear_602_1441" x1="45.273" y1="7.5989" x2="72.7399" y2="55.285" gradientUnits="userSpaceOnUse">
<stop stop-color="#BCBEFF"/>
<stop offset="0.165912" stop-color="#B6B8FC"/>
<stop offset="0.39559" stop-color="#A4A8F5"/>
<stop offset="0.66249" stop-color="#868DEA"/>
<stop offset="0.955395" stop-color="#5E67DA"/>
<stop offset="1" stop-color="#5761D7"/>
</linearGradient>
<linearGradient id="paint13_linear_602_1441" x1="41.4793" y1="1.01267" x2="91.0342" y2="87.0461" gradientUnits="userSpaceOnUse">
<stop stop-color="#706EC4"/>
<stop offset="0.0222208" stop-color="#6D6BC2"/>
<stop offset="0.250885" stop-color="#5651AC"/>
<stop offset="0.48649" stop-color="#463F9D"/>
<stop offset="0.731354" stop-color="#3C3494"/>
<stop offset="1" stop-color="#393091"/>
</linearGradient>
</defs>
</svg>
