<svg width="173" height="119" viewBox="0 0 173 119" fill="none" xmlns="http://www.w3.org/2000/svg">
<path d="M26.4446 63.6598C25.7693 63.6598 25.1052 63.4831 24.5245 63.1487L2.4108 50.4217C2.06288 50.2208 1.85547 49.8621 1.85547 49.4621C1.85547 49.0622 2.06288 48.7035 2.41055 48.5026L42.4223 25.4752C42.4915 25.4359 42.5752 25.4354 42.6443 25.4752L42.8304 25.582L66.5677 39.2436C66.9153 39.4435 67.1228 39.8022 67.1228 40.2031C67.1228 40.6036 66.9153 40.9623 66.5677 41.1622L28.3655 63.1487C27.7844 63.4831 27.12 63.6598 26.4446 63.6598ZM42.5334 25.9225L2.63283 48.886C2.42416 49.0064 2.29951 49.2219 2.29951 49.4621C2.29951 49.7024 2.42416 49.9179 2.63308 50.0383L24.7466 62.7653C25.7734 63.3564 27.1161 63.3564 28.1434 62.7653L66.3457 40.7788C66.554 40.6589 66.6787 40.4439 66.6787 40.2031C66.6787 39.9624 66.554 39.7469 66.3457 39.627L42.5334 25.9225Z" fill="#42E8E0"/>
<path d="M69.4362 33.0609L67.115 34.2693L43.8388 20.8732C43.4494 20.6491 42.7692 20.6772 42.3196 20.936L2.1748 44.0405C1.79058 43.8263 0.0390625 42.9867 0.0390625 42.9867L0.888772 45.1936C0.888772 45.1936 0.89161 45.1913 0.892158 45.1909C0.927314 45.289 1.00285 45.3806 1.12969 45.4536L25.6442 59.5623C26.0336 59.7865 26.7138 59.7584 27.1634 59.4996L68.2442 35.8564C68.4289 35.7501 68.542 35.6215 68.5889 35.4911L68.592 35.4932L69.4362 33.0609Z" fill="url(#paint0_linear_602_1665)"/>
<path d="M69.0763 33.4412L26.974 57.6724C26.5132 57.9376 25.816 57.9664 25.4169 57.7367L0.29285 43.2771C-0.106225 43.0474 -0.0561647 42.6462 0.404634 42.381L42.507 18.1498C42.9679 17.8846 43.665 17.8558 44.0641 18.0855L69.1881 32.5451C69.5873 32.7748 69.5372 33.176 69.0763 33.4412Z" fill="url(#paint1_linear_602_1665)"/>
<path d="M69.0762 33.1997L26.9738 57.4307C26.513 57.696 25.8159 57.7248 25.4168 57.4952L0.292709 43.0355C0.162081 42.9603 0.0843957 42.8659 0.0486992 42.7648C-0.0144773 42.9534 0.06126 43.1442 0.292709 43.2774L25.4168 57.7371C25.8159 57.9667 26.513 57.938 26.9738 57.6727L69.0762 33.4416C69.3862 33.2632 69.5055 33.024 69.432 32.8162C69.3863 32.9527 69.2698 33.0882 69.0762 33.1997Z" fill="white"/>
<path d="M14.2734 52.4309V51.9706C14.2734 51.927 14.3001 51.9069 14.3329 51.9258L15.9614 52.863C15.9942 52.8819 16.0208 52.9326 16.0208 52.9762V53.4366C16.0208 53.4802 15.9942 53.5002 15.9614 53.4813L14.3329 52.5441C14.3001 52.5252 14.2734 52.4745 14.2734 52.4309Z" fill="#2842A2"/>
<path d="M16.709 53.8325V53.3722C16.709 53.3286 16.7356 53.3085 16.7684 53.3274L18.3969 54.2647C18.4297 54.2835 18.4564 54.3342 18.4564 54.3778V54.8382C18.4564 54.8818 18.4297 54.9018 18.3969 54.883L16.7684 53.9457C16.7356 53.9268 16.709 53.8761 16.709 53.8325Z" fill="#2842A2"/>
<path d="M14.4566 46.5643L49.4437 26.4282C49.6769 26.294 49.9643 26.2941 50.1975 26.4286L62.6563 33.6141C62.8351 33.7173 62.8351 33.9748 62.6561 34.0778L27.6853 54.2045C27.4523 54.3386 27.1653 54.3386 26.9323 54.2046L14.4566 47.0282C14.2775 46.9251 14.2775 46.6674 14.4566 46.5643Z" fill="#ADB1F2"/>
<path d="M14.4566 47.0281L14.5819 47.1002L49.4437 27.0363C49.6769 26.902 49.9643 26.9021 50.1975 27.0366L62.5309 34.1499L62.6561 34.0778C62.8351 33.9748 62.8352 33.7173 62.6563 33.6141L50.1975 26.4286C49.9643 26.2941 49.6769 26.294 49.4437 26.4282L14.4566 46.5643C14.2775 46.6674 14.2775 46.9251 14.4566 47.0281Z" fill="#9198DB"/>
<path d="M51.1377 28.2484L18.9101 46.7963L17.3125 46.1604L49.7864 27.4707L51.1377 28.2484Z" fill="#24126A"/>
<path d="M54.4528 30.1549L25.947 46.5608L24.5957 45.7832L53.1015 29.3772L54.4528 30.1549Z" fill="#24126A"/>
<path d="M56.6091 31.3969L23.0466 50.7131L21.6953 49.9353L55.2578 30.6191L56.6091 31.3969Z" fill="#24126A"/>
<path d="M58.7673 32.6385L25.2049 51.9548L23.8535 51.177L57.416 31.8608L58.7673 32.6385Z" fill="#24126A"/>
<path d="M60.9235 33.8805L27.3611 53.1967L26.0098 52.419L59.5722 33.1028L60.9235 33.8805Z" fill="#24126A"/>
<path d="M18.9116 46.7963L17.5603 47.5739L16.209 46.7963L17.5603 46.0186L18.9116 46.7963Z" fill="#24126A"/>
<path d="M27.585 45.6175L20.8728 49.4806L19.5215 48.7029L26.2824 44.8118L27.585 45.6175Z" fill="#24126A"/>
<path d="M26.9125 37.5408L36.3462 32.1114C36.715 31.8991 36.715 31.5551 36.3462 31.3429L29.8952 27.6301C29.5265 27.4179 28.9286 27.4179 28.5599 27.6301L19.1262 33.0595C18.7575 33.2717 18.7574 33.6158 19.1261 33.828L25.5772 37.5408C25.9459 37.753 26.5437 37.753 26.9125 37.5408Z" fill="url(#paint2_linear_602_1665)"/>
<path d="M19.1266 33.374L28.5604 27.9446C28.9291 27.7324 29.5269 27.7324 29.8956 27.9445L36.3467 31.6573C36.4605 31.7229 36.5348 31.8015 36.5784 31.8843C36.6759 31.6987 36.6016 31.4896 36.3467 31.3429L29.8956 27.6301C29.5269 27.4179 28.9291 27.4179 28.5604 27.6301L19.1266 33.0595C18.8717 33.2063 18.7973 33.4154 18.8948 33.601C18.9384 33.5181 19.0128 33.4395 19.1266 33.374Z" fill="#9198DB"/>
<path d="M69.3681 32.4384L64.0459 0.962367L64.4739 0.782745L63.8308 0.415294L63.8319 0.419022C63.7072 0.336171 63.5307 0.341237 63.3363 0.453119L20.8014 24.9332C20.4521 25.1342 20.1877 25.6498 20.2491 26.0103L25.6136 57.7365C25.6417 57.9018 25.7236 58.0114 25.8377 58.0594L25.837 58.0596L26.4663 58.422L26.5743 57.8365L26.5385 57.8473L68.8158 33.5155C69.1651 33.3145 69.4294 32.7989 69.3681 32.4384Z" fill="url(#paint3_linear_602_1665)"/>
<path d="M21.0381 25.7942L20.3388 25.4858C20.2604 25.6643 20.2218 25.8521 20.2488 26.0106L25.6133 57.7369C25.6414 57.9022 25.7233 58.0118 25.8374 58.0598L25.8367 58.06L26.466 58.4224L26.574 57.8368L26.5382 57.8477L28.6775 56.6164L21.0381 25.7942Z" fill="url(#paint4_linear_602_1665)"/>
<path d="M69.4838 33.8975L26.9488 58.3776C26.6204 58.5666 26.3393 58.4574 26.2816 58.1185L20.9171 26.3922C20.8557 26.0318 21.1201 25.5162 21.4694 25.3152L64.0043 0.835061C64.3327 0.646092 64.6139 0.75524 64.6716 1.09416L70.0361 32.8204C70.0974 33.1809 69.8331 33.6964 69.4838 33.8975Z" fill="#453C9E"/>
<path d="M146.416 63.6598C145.74 63.6598 145.077 63.4831 144.496 63.1487L106.293 41.1622C105.946 40.9623 105.738 40.6036 105.738 40.2031C105.738 39.8022 105.946 39.4435 106.293 39.2436L130.217 25.4752C130.286 25.4354 130.37 25.4359 130.439 25.4752L170.45 48.5026C170.798 48.7035 171.006 49.0622 171.006 49.4621C171.006 49.8621 170.798 50.2208 170.45 50.4217L148.337 63.1487C147.756 63.4831 147.092 63.6598 146.416 63.6598ZM130.328 25.9225L130.253 25.9654L106.515 39.627C106.307 39.7469 106.182 39.9624 106.182 40.2031C106.182 40.4439 106.307 40.6589 106.515 40.7788L144.718 62.7653C145.744 63.3564 147.088 63.3564 148.114 62.7653L170.228 50.0383C170.437 49.9179 170.561 49.7024 170.561 49.4621C170.561 49.2219 170.437 49.0064 170.228 48.886L130.328 25.9225Z" fill="#42E8E0"/>
<path d="M103.428 33.0606L105.749 34.2691L129.025 20.873C129.415 20.6489 130.095 20.677 130.544 20.9358L170.689 44.0403C171.073 43.8261 172.825 42.9864 172.825 42.9864L171.975 45.1933C171.975 45.1933 171.972 45.191 171.972 45.1906C171.937 45.2888 171.861 45.3803 171.734 45.4534L147.22 59.5621C146.83 59.7863 146.15 59.7582 145.7 59.4993L104.62 35.8561C104.435 35.7498 104.322 35.6212 104.275 35.4909L104.272 35.493L103.428 33.0606Z" fill="url(#paint5_linear_602_1665)"/>
<path d="M103.785 33.441L145.888 57.6722C146.349 57.9374 147.046 57.9662 147.445 57.7365L172.569 43.2769C172.968 43.0471 172.918 42.6459 172.457 42.3807L130.355 18.1496C129.894 17.8843 129.197 17.8556 128.798 18.0852L103.674 32.5449C103.275 32.7746 103.325 33.1758 103.785 33.441Z" fill="url(#paint6_linear_602_1665)"/>
<path d="M103.785 33.1994L145.887 57.4305C146.348 57.6958 147.045 57.7246 147.444 57.4949L172.568 43.0353C172.699 42.9601 172.777 42.8657 172.813 42.7646C172.876 42.9531 172.8 43.144 172.568 43.2771L147.444 57.7368C147.045 57.9665 146.348 57.9377 145.887 57.6725L103.785 33.4414C103.475 33.2629 103.356 33.0238 103.429 32.8159C103.475 32.9525 103.591 33.088 103.785 33.1994Z" fill="white"/>
<path d="M158.587 52.4306V51.9703C158.587 51.9267 158.561 51.9067 158.528 51.9256L156.899 52.8628C156.866 52.8817 156.84 52.9324 156.84 52.976V53.4363C156.84 53.48 156.866 53.5 156.899 53.4811L158.528 52.5439C158.561 52.525 158.587 52.4743 158.587 52.4306Z" fill="#2842A2"/>
<path d="M156.152 53.8323V53.372C156.152 53.3283 156.125 53.3083 156.092 53.3272L154.464 54.2644C154.431 54.2833 154.404 54.334 154.404 54.3776V54.8379C154.404 54.8816 154.431 54.9016 154.464 54.8827L156.092 53.9455C156.125 53.9266 156.152 53.8759 156.152 53.8323Z" fill="#2842A2"/>
<path d="M158.406 46.5641L123.419 26.428C123.186 26.2937 122.898 26.2939 122.665 26.4283L110.206 33.6139C110.027 33.7171 110.028 33.9745 110.207 34.0775L145.177 54.2043C145.41 54.3383 145.697 54.3384 145.93 54.2043L158.406 47.0279C158.585 46.9249 158.585 46.6672 158.406 46.5641Z" fill="#ADB1F2"/>
<path d="M158.406 47.0279L158.281 47.1L123.419 27.036C123.186 26.9018 122.898 26.9019 122.665 27.0364L110.332 34.1496L110.207 34.0775C110.028 33.9745 110.027 33.7171 110.206 33.6139L122.665 26.4283C122.898 26.2939 123.186 26.2937 123.419 26.428L158.406 46.5641C158.585 46.6672 158.585 46.9249 158.406 47.0279Z" fill="#9198DB"/>
<path d="M121.727 28.2481L153.954 46.796L155.552 46.1601L123.078 27.4705L121.727 28.2481Z" fill="#24126A"/>
<path d="M118.414 30.1547L146.92 46.5606L148.271 45.7829L119.765 29.377L118.414 30.1547Z" fill="#24126A"/>
<path d="M116.254 31.3966L149.816 50.7128L151.168 49.9351L117.605 30.6189L116.254 31.3966Z" fill="#24126A"/>
<path d="M114.098 32.6383L147.66 51.9545L149.011 51.1768L115.449 31.8606L114.098 32.6383Z" fill="#24126A"/>
<path d="M111.939 33.8803L145.502 53.1965L146.853 52.4188L113.291 33.1025L111.939 33.8803Z" fill="#24126A"/>
<path d="M153.953 46.796L155.304 47.5737L156.656 46.796L155.304 46.0183L153.953 46.796Z" fill="#24126A"/>
<path d="M145.279 45.6172L151.992 49.4804L153.343 48.7027L146.582 44.8115L145.279 45.6172Z" fill="#24126A"/>
<path d="M145.949 37.5406L136.515 32.1111C136.146 31.8989 136.146 31.5549 136.515 31.3426L142.966 27.6299C143.335 27.4176 143.932 27.4176 144.301 27.6299L153.735 33.0593C154.104 33.2715 154.104 33.6156 153.735 33.8277L147.284 37.5406C146.915 37.7527 146.317 37.7527 145.949 37.5406Z" fill="url(#paint7_linear_602_1665)"/>
<path d="M153.735 33.3737L144.302 27.9443C143.933 27.7321 143.335 27.7321 142.966 27.9443L136.515 31.6571C136.401 31.7226 136.327 31.8012 136.283 31.8841C136.186 31.6985 136.26 31.4894 136.515 31.3426L142.966 27.6299C143.335 27.4176 143.933 27.4176 144.302 27.6299L153.735 33.0593C153.99 33.206 154.065 33.4151 153.967 33.6007C153.923 33.5179 153.849 33.4392 153.735 33.3737Z" fill="#9198DB"/>
<path d="M103.495 32.4384L108.817 0.962367L108.389 0.782745L109.032 0.415294L109.031 0.419022C109.156 0.336171 109.333 0.341237 109.527 0.453119L152.062 24.9332C152.411 25.1342 152.676 25.6498 152.614 26.0103L147.25 57.7365C147.222 57.9018 147.14 58.0114 147.026 58.0594L147.026 58.0596L146.397 58.422L146.289 57.8365L146.325 57.8473L104.048 33.5155C103.698 33.3145 103.434 32.7989 103.495 32.4384Z" fill="url(#paint8_linear_602_1665)"/>
<path d="M151.825 25.794L152.524 25.4856C152.603 25.6641 152.641 25.8519 152.614 26.0104L147.25 57.7366C147.222 57.9019 147.14 58.0115 147.026 58.0595L147.026 58.0597L146.397 58.4221L146.289 57.8366L146.325 57.8474L144.186 56.6162L151.825 25.794Z" fill="url(#paint9_linear_602_1665)"/>
<path d="M103.38 33.8972L145.914 58.3773C146.243 58.5664 146.524 58.4572 146.582 58.1182L151.946 26.392C152.008 26.0315 151.743 25.516 151.394 25.315L108.859 0.834817C108.531 0.645848 108.249 0.754996 108.192 1.09392L102.827 32.8202C102.766 33.1806 103.03 33.6962 103.38 33.8972Z" fill="#453C9E"/>
<path d="M86.4296 71.2508L46.8242 48.4567L86.4284 25.6633L126.034 48.4574L86.4296 71.2508Z" fill="#BCBEFF"/>
<path d="M86.4297 65.0266L57.6387 48.4565L86.4288 31.887L115.22 48.457L86.4297 65.0266Z" fill="#453C9E"/>
<path d="M86.4289 33.0092L114.245 49.0182L115.22 48.4571L86.4289 31.887L57.6387 48.4566L58.6136 49.0177L86.4289 33.0092Z" fill="white"/>
<path d="M126.034 48.4573V61.3776L86.4297 84.171V71.2506L126.034 48.4573Z" fill="url(#paint10_linear_602_1665)"/>
<path d="M46.8242 48.4568V61.3771L86.4296 84.1712V71.2508L46.8242 48.4568Z" fill="#24126A"/>
<g opacity="0.51">
<path d="M49.5059 54.2617V58.3304L83.7455 78.0364V73.9677L49.5059 54.2617Z" fill="#453C9E"/>
</g>
<path d="M86.4297 70.5101L47.4677 48.0864L46.8242 48.4568L86.4297 71.2509L126.034 48.4574L125.39 48.0871L86.4297 70.5101Z" fill="white"/>
<path d="M120.092 57.5115V59.8242L92.3691 75.7795V73.4668L120.092 57.5115Z" fill="#453C9E"/>
<path opacity="0.51" d="M46.8242 48.4568V61.3771L86.4296 84.1712V71.2508L46.8242 48.4568Z" fill="#453C9E"/>
<path d="M74.8681 70.5643L67.6961 66.4363L67.6953 67.2887L74.8673 71.4169L74.8681 70.5643Z" fill="#42E8E0"/>
<path d="M66.6627 65.8502L64.7196 64.7317L64.7188 65.5842L66.6618 66.7027L66.6627 65.8502Z" fill="#42E8E0"/>
<path d="M57.5586 60.6121L53.5829 58.3237L53.582 59.1762L57.5577 61.4647L57.5586 60.6121Z" fill="#42E8E0"/>
<path d="M61.1884 62.7003L58.3134 61.0454L58.3125 61.898L61.1876 63.5529L61.1884 62.7003Z" fill="#42E8E0"/>
<path d="M63.8834 64.2525L61.9403 63.134L61.9395 63.9866L63.8826 65.105L63.8834 64.2525Z" fill="#42E8E0"/>
<path d="M86.4685 37.577L85.2109 36.8532L86.4685 36.1294L87.7262 36.8532L86.4685 37.577Z" fill="#42E8E0"/>
<path opacity="0.1" d="M88.9842 39.0247L87.7266 38.3009L88.9842 37.5771L90.2418 38.3009L88.9842 39.0247Z" fill="#42E8E0"/>
<path opacity="0.4" d="M91.4998 40.4722L90.2422 39.7484L91.4998 39.0247L92.7574 39.7485L91.4998 40.4722Z" fill="#42E8E0"/>
<path d="M94.0135 41.92L92.7559 41.1962L94.0135 40.4724L95.2711 41.1962L94.0135 41.92Z" fill="#42E8E0"/>
<path opacity="0.4" d="M96.5291 43.3673L95.2715 42.6434L96.529 41.9197L97.7867 42.6435L96.5291 43.3673Z" fill="#42E8E0"/>
<path d="M99.0448 44.8148L97.7871 44.091L99.0447 43.3672L100.302 44.091L99.0448 44.8148Z" fill="#42E8E0"/>
<path d="M101.56 46.2625L100.303 45.5387L101.56 44.8149L102.818 45.5388L101.56 46.2625Z" fill="#42E8E0"/>
<path d="M104.076 47.71L102.818 46.9863L104.076 46.2625L105.334 46.9863L104.076 47.71Z" fill="#42E8E0"/>
<path opacity="0.1" d="M106.59 49.1578L105.332 48.434L106.59 47.7102L107.847 48.434L106.59 49.1578Z" fill="#42E8E0"/>
<path d="M83.9432 39.0301L82.6855 38.3063L83.9431 37.5825L85.2008 38.3063L83.9432 39.0301Z" fill="#42E8E0"/>
<path d="M86.4588 40.4774L85.2012 39.7536L86.4587 39.0298L87.7164 39.7536L86.4588 40.4774Z" fill="#42E8E0"/>
<path d="M88.9745 41.9254L87.7168 41.2016L88.9744 40.4778L90.232 41.2016L88.9745 41.9254Z" fill="#42E8E0"/>
<path d="M91.4881 43.3726L90.2305 42.6488L91.4881 41.925L92.7457 42.6489L91.4881 43.3726Z" fill="#42E8E0"/>
<path d="M94.0037 44.8206L92.7461 44.0969L94.0036 43.373L95.2613 44.0969L94.0037 44.8206Z" fill="#42E8E0"/>
<path d="M96.5194 46.2679L95.2617 45.5441L96.5193 44.8203L97.7769 45.5441L96.5194 46.2679Z" fill="#42E8E0"/>
<path d="M99.035 47.7157L97.7773 46.9918L99.035 46.2681L100.293 46.9919L99.035 47.7157Z" fill="#42E8E0"/>
<path d="M101.551 49.1631L100.293 48.4393L101.551 47.7156L102.808 48.4393L101.551 49.1631Z" fill="#42E8E0"/>
<path d="M104.064 50.6109L102.807 49.8871L104.064 49.1633L105.322 49.8871L104.064 50.6109Z" fill="#42E8E0"/>
<path d="M81.4197 40.4837L80.1621 39.7599L81.4197 39.0361L82.6773 39.7599L81.4197 40.4837Z" fill="#42E8E0"/>
<path d="M83.9353 41.931L82.6777 41.2072L83.9353 40.4834L85.1929 41.2072L83.9353 41.931Z" fill="#42E8E0"/>
<path d="M86.451 43.379L85.1934 42.6552L86.451 41.9314L87.7086 42.6552L86.451 43.379Z" fill="#42E8E0"/>
<path opacity="0.1" d="M88.9646 44.8262L87.707 44.1024L88.9646 43.3787L90.2222 44.1025L88.9646 44.8262Z" fill="#42E8E0"/>
<path opacity="0.4" d="M91.4803 46.274L90.2227 45.5502L91.4802 44.8264L92.7379 45.5502L91.4803 46.274Z" fill="#42E8E0"/>
<path opacity="0.4" d="M93.9959 47.7215L92.7383 46.9977L93.9958 46.2739L95.2535 46.9977L93.9959 47.7215Z" fill="#42E8E0"/>
<path d="M96.5116 49.1693L95.2539 48.4454L96.5115 47.7217L97.7691 48.4454L96.5116 49.1693Z" fill="#42E8E0"/>
<path d="M99.0271 50.6168L97.7695 49.8929L99.0271 49.1692L100.285 49.893L99.0271 50.6168Z" fill="#42E8E0"/>
<path d="M101.541 52.0645L100.283 51.3408L101.541 50.6169L102.798 51.3408L101.541 52.0645Z" fill="#42E8E0"/>
<path opacity="0.4" d="M78.8943 41.9368L77.6367 41.2131L78.8943 40.4893L80.1519 41.2131L78.8943 41.9368Z" fill="#42E8E0"/>
<path opacity="0.4" d="M81.41 43.3846L80.1523 42.6608L81.4099 41.937L82.6676 42.6608L81.41 43.3846Z" fill="#42E8E0"/>
<path opacity="0.1" d="M83.9256 44.8321L82.668 44.1083L83.9256 43.3845L85.1832 44.1083L83.9256 44.8321Z" fill="#42E8E0"/>
<path d="M86.4392 46.2798L85.1816 45.556L86.4392 44.8323L87.6968 45.556L86.4392 46.2798Z" fill="#42E8E0"/>
<path d="M88.9549 47.7274L87.6973 47.0036L88.9548 46.2798L90.2125 47.0036L88.9549 47.7274Z" fill="#42E8E0"/>
<path d="M91.4705 49.1746L90.2129 48.4509L91.4704 47.7271L92.7281 48.4509L91.4705 49.1746Z" fill="#42E8E0"/>
<path opacity="0.4" d="M93.9862 50.6224L92.7285 49.8986L93.9861 49.1748L95.2437 49.8986L93.9862 50.6224Z" fill="#42E8E0"/>
<path d="M96.5017 52.0699L95.2441 51.3461L96.5017 50.6223L97.7594 51.3461L96.5017 52.0699Z" fill="#42E8E0"/>
<path d="M99.0154 53.5176L97.7578 52.7938L99.0154 52.0701L100.273 52.7938L99.0154 53.5176Z" fill="#42E8E0"/>
<path d="M76.367 43.3904L75.1094 42.6666L76.367 41.9429L77.6246 42.6666L76.367 43.3904Z" fill="#42E8E0"/>
<path d="M78.8826 44.8377L77.625 44.1139L78.8826 43.3901L80.1402 44.114L78.8826 44.8377Z" fill="#42E8E0"/>
<path d="M81.3983 46.2857L80.1406 45.562L81.3982 44.8381L82.6558 45.562L81.3983 46.2857Z" fill="#42E8E0"/>
<path d="M83.912 47.733L82.6543 47.0092L83.9119 46.2854L85.1695 47.0092L83.912 47.733Z" fill="#42E8E0"/>
<path d="M86.4275 49.181L85.1699 48.4572L86.4275 47.7334L87.6851 48.4572L86.4275 49.181Z" fill="#42E8E0"/>
<path d="M88.9432 50.6283L87.6855 49.9044L88.9431 49.1807L90.2008 49.9044L88.9432 50.6283Z" fill="#42E8E0"/>
<path d="M91.4588 52.076L90.2012 51.3522L91.4588 50.6284L92.7164 51.3522L91.4588 52.076Z" fill="#42E8E0"/>
<path d="M93.9744 53.5235L92.7168 52.7997L93.9744 52.0759L95.232 52.7997L93.9744 53.5235Z" fill="#42E8E0"/>
<path d="M96.4881 54.9713L95.2305 54.2474L96.488 53.5237L97.7457 54.2475L96.4881 54.9713Z" fill="#42E8E0"/>
<path d="M73.8416 44.8441L72.584 44.1203L73.8416 43.3965L75.0992 44.1203L73.8416 44.8441Z" fill="#42E8E0"/>
<path d="M76.3572 46.2916L75.0996 45.5678L76.3572 44.844L77.6148 45.5678L76.3572 46.2916Z" fill="#42E8E0"/>
<path opacity="0.4" d="M78.8728 47.7393L77.6152 47.0155L78.8728 46.2917L80.1304 47.0155L78.8728 47.7393Z" fill="#42E8E0"/>
<path d="M81.3866 49.1868L80.1289 48.463L81.3865 47.7393L82.6441 48.4631L81.3866 49.1868Z" fill="#42E8E0"/>
<path opacity="0.1" d="M83.9021 50.6346L82.6445 49.9108L83.9021 49.187L85.1597 49.9108L83.9021 50.6346Z" fill="#42E8E0"/>
<path d="M86.4178 52.0819L85.1602 51.358L86.4177 50.6343L87.6754 51.3581L86.4178 52.0819Z" fill="#42E8E0"/>
<path d="M88.9334 53.5299L87.6758 52.806L88.9334 52.0823L90.191 52.806L88.9334 53.5299Z" fill="#42E8E0"/>
<path d="M91.4491 54.9771L90.1914 54.2533L91.449 53.5295L92.7066 54.2534L91.4491 54.9771Z" fill="#42E8E0"/>
<path d="M93.9627 56.4249L92.7051 55.7011L93.9627 54.9773L95.2203 55.7011L93.9627 56.4249Z" fill="#42E8E0"/>
<path d="M71.3182 46.2979L70.0605 45.5742L71.3182 44.8503L72.5758 45.5742L71.3182 46.2979Z" fill="#42E8E0"/>
<path d="M73.8338 47.7457L72.5762 47.0219L73.8337 46.2981L75.0914 47.0219L73.8338 47.7457Z" fill="#42E8E0"/>
<path opacity="0.4" d="M76.3494 49.1932L75.0918 48.4694L76.3493 47.7456L77.607 48.4694L76.3494 49.1932Z" fill="#42E8E0"/>
<path d="M78.8631 50.6409L77.6055 49.9171L78.8631 49.1934L80.1207 49.9171L78.8631 50.6409Z" fill="#42E8E0"/>
<path d="M81.3787 52.0882L80.1211 51.3644L81.3787 50.6406L82.6363 51.3644L81.3787 52.0882Z" fill="#42E8E0"/>
<path opacity="0.1" d="M83.8943 53.5357L82.6367 52.8119L83.8943 52.0881L85.1519 52.8119L83.8943 53.5357Z" fill="#42E8E0"/>
<path opacity="0.4" d="M86.41 54.9835L85.1523 54.2597L86.4099 53.5359L87.6675 54.2597L86.41 54.9835Z" fill="#42E8E0"/>
<path d="M88.9256 56.431L87.668 55.7072L88.9256 54.9834L90.1832 55.7072L88.9256 56.431Z" fill="#42E8E0"/>
<path opacity="0.1" d="M91.4393 57.8787L90.1816 57.1549L91.4393 56.4312L92.6969 57.1549L91.4393 57.8787Z" fill="#42E8E0"/>
<path d="M68.7909 47.751L67.5332 47.0272L68.7908 46.3035L70.0484 47.0272L68.7909 47.751Z" fill="#42E8E0"/>
<path opacity="0.4" d="M71.3064 49.1983L70.0488 48.4745L71.3064 47.7507L72.564 48.4745L71.3064 49.1983Z" fill="#42E8E0"/>
<path d="M73.8221 50.6463L72.5645 49.9225L73.822 49.1987L75.0797 49.9225L73.8221 50.6463Z" fill="#42E8E0"/>
<path d="M76.3358 52.0936L75.0781 51.3698L76.3357 50.646L77.5933 51.3698L76.3358 52.0936Z" fill="#42E8E0"/>
<path d="M78.8513 53.5413L77.5938 52.8176L78.8513 52.0938L80.109 52.8176L78.8513 53.5413Z" fill="#42E8E0"/>
<path d="M81.367 54.9888L80.1094 54.265L81.3669 53.5413L82.6246 54.265L81.367 54.9888Z" fill="#42E8E0"/>
<path d="M83.8826 56.4366L82.625 55.7128L83.8825 54.989L85.1402 55.7128L83.8826 56.4366Z" fill="#42E8E0"/>
<path opacity="0.4" d="M86.3983 57.8841L85.1406 57.1603L86.3982 56.4365L87.6558 57.1603L86.3983 57.8841Z" fill="#42E8E0"/>
<path d="M88.9119 59.3318L87.6543 58.608L88.9119 57.8843L90.1695 58.6081L88.9119 59.3318Z" fill="#42E8E0"/>
<path d="M66.2655 49.2042L65.0078 48.4804L66.2654 47.7566L67.523 48.4804L66.2655 49.2042Z" fill="#42E8E0"/>
<path opacity="0.1" d="M68.781 50.6514L67.5234 49.9277L68.781 49.2039L70.0387 49.9277L68.781 50.6514Z" fill="#42E8E0"/>
<path d="M71.2967 52.0994L70.0391 51.3756L71.2966 50.6519L72.5543 51.3756L71.2967 52.0994Z" fill="#42E8E0"/>
<path d="M73.8104 53.5467L72.5527 52.8229L73.8103 52.0991L75.0679 52.8229L73.8104 53.5467Z" fill="#42E8E0"/>
<path d="M76.326 54.9945L75.0684 54.2706L76.326 53.5469L77.5836 54.2706L76.326 54.9945Z" fill="#42E8E0"/>
<path d="M78.8416 56.442L77.584 55.7182L78.8416 54.9944L80.0992 55.7182L78.8416 56.442Z" fill="#42E8E0"/>
<path opacity="0.4" d="M81.3572 57.8897L80.0996 57.1659L81.3572 56.4421L82.6148 57.1659L81.3572 57.8897Z" fill="#42E8E0"/>
<path d="M83.8729 59.3372L82.6152 58.6134L83.8728 57.8896L85.1305 58.6135L83.8729 59.3372Z" fill="#42E8E0"/>
<path d="M86.3865 60.785L85.1289 60.0612L86.3865 59.3374L87.6441 60.0612L86.3865 60.785Z" fill="#42E8E0"/>
<path d="M86.4296 48.8802L46.8242 26.0861L86.4284 3.29272L126.034 26.0868L86.4296 48.8802Z" fill="#BCBEFF"/>
<path d="M86.4297 42.656L57.6387 26.0859L86.4288 9.51636L115.22 26.0864L86.4297 42.656Z" fill="#453C9E"/>
<path d="M86.4289 10.6386L114.245 26.6476L115.22 26.0864L86.4289 9.51636L57.6387 26.0859L58.6136 26.6471L86.4289 10.6386Z" fill="white"/>
<path d="M126.034 26.0867V39.007L86.4297 61.8004V48.8801L126.034 26.0867Z" fill="url(#paint11_linear_602_1665)"/>
<path d="M46.8242 26.0862V39.0065L86.4296 61.8006V48.8802L46.8242 26.0862Z" fill="#24126A"/>
<g opacity="0.51">
<path d="M49.5059 31.8909V35.9596L83.7455 55.6655V51.5968L49.5059 31.8909Z" fill="#453C9E"/>
</g>
<path d="M86.4297 48.1395L47.4677 25.7158L46.8242 26.0862L86.4297 48.8802L126.034 26.0868L125.39 25.7165L86.4297 48.1395Z" fill="white"/>
<path d="M120.092 35.1409V37.4536L92.3691 53.4089V51.0962L120.092 35.1409Z" fill="#453C9E"/>
<path opacity="0.51" d="M46.8242 26.0862V39.0065L86.4296 61.8006V48.8802L46.8242 26.0862Z" fill="#453C9E"/>
<path d="M74.8681 48.1937L67.6961 44.0657L67.6953 44.9182L74.8673 49.0463L74.8681 48.1937Z" fill="#42E8E0"/>
<path d="M66.6627 43.4796L64.7196 42.3611L64.7188 43.2137L66.6618 44.3321L66.6627 43.4796Z" fill="#42E8E0"/>
<path d="M57.5586 38.2415L53.5829 35.9531L53.582 36.8056L57.5577 39.0941L57.5586 38.2415Z" fill="#42E8E0"/>
<path d="M61.1884 40.3297L58.3134 38.6748L58.3125 39.5273L61.1876 41.1822L61.1884 40.3297Z" fill="#42E8E0"/>
<path d="M63.8834 41.8818L61.9403 40.7634L61.9395 41.616L63.8826 42.7344L63.8834 41.8818Z" fill="#42E8E0"/>
<path d="M86.4685 15.2061L85.2109 14.4823L86.4685 13.7585L87.7262 14.4824L86.4685 15.2061Z" fill="#42E8E0"/>
<path opacity="0.1" d="M88.9842 16.6534L87.7266 15.9296L88.9842 15.2058L90.2418 15.9296L88.9842 16.6534Z" fill="#42E8E0"/>
<path opacity="0.4" d="M91.4998 18.1014L90.2422 17.3776L91.4998 16.6538L92.7574 17.3776L91.4998 18.1014Z" fill="#42E8E0"/>
<path d="M94.0135 19.5487L92.7559 18.8249L94.0135 18.1011L95.2711 18.8249L94.0135 19.5487Z" fill="#42E8E0"/>
<path opacity="0.4" d="M96.5291 20.9964L95.2715 20.2726L96.529 19.5488L97.7867 20.2726L96.5291 20.9964Z" fill="#42E8E0"/>
<path d="M99.0448 22.4439L97.7871 21.7201L99.0447 20.9963L100.302 21.7202L99.0448 22.4439Z" fill="#42E8E0"/>
<path d="M101.56 23.8917L100.303 23.1679L101.56 22.4441L102.818 23.1679L101.56 23.8917Z" fill="#42E8E0"/>
<path d="M104.076 25.3392L102.818 24.6154L104.076 23.8916L105.334 24.6154L104.076 25.3392Z" fill="#42E8E0"/>
<path opacity="0.1" d="M106.59 26.7869L105.332 26.0632L106.59 25.3394L107.847 26.0632L106.59 26.7869Z" fill="#42E8E0"/>
<path d="M83.9432 16.6597L82.6855 15.936L83.9431 15.2122L85.2008 15.936L83.9432 16.6597Z" fill="#42E8E0"/>
<path d="M86.4588 18.1075L85.2012 17.3837L86.4587 16.6599L87.7164 17.3837L86.4588 18.1075Z" fill="#42E8E0"/>
<path d="M88.9745 19.555L87.7168 18.8312L88.9744 18.1074L90.232 18.8312L88.9745 19.555Z" fill="#42E8E0"/>
<path opacity="0.8" d="M91.4881 21.0027L90.2305 20.2789L91.4881 19.5552L92.7457 20.2789L91.4881 21.0027Z" fill="#FF2C9C"/>
<path d="M94.0037 22.45L92.7461 21.7262L94.0036 21.0024L95.2613 21.7263L94.0037 22.45Z" fill="#42E8E0"/>
<path d="M96.5194 23.8975L95.2617 23.1738L96.5193 22.45L97.7769 23.1738L96.5194 23.8975Z" fill="#42E8E0"/>
<path opacity="0.8" d="M99.035 25.3453L97.7773 24.6215L99.035 23.8977L100.293 24.6215L99.035 25.3453Z" fill="url(#paint12_radial_602_1665)"/>
<path d="M101.551 26.7928L100.293 26.069L101.551 25.3452L102.808 26.069L101.551 26.7928Z" fill="#42E8E0"/>
<path opacity="0.8" d="M104.064 28.2405L102.807 27.5167L104.064 26.793L105.322 27.5168L104.064 28.2405Z" fill="#FF2C9C"/>
<path d="M81.4197 18.1129L80.1621 17.3891L81.4197 16.6653L82.6773 17.3891L81.4197 18.1129Z" fill="#42E8E0"/>
<path opacity="0.8" d="M83.9353 19.5601L82.6777 18.8363L83.9353 18.1125L85.1929 18.8364L83.9353 19.5601Z" fill="#FF2C9C"/>
<path d="M86.451 21.0081L85.1934 20.2843L86.451 19.5605L87.7086 20.2843L86.451 21.0081Z" fill="#42E8E0"/>
<path opacity="0.1" d="M88.9646 22.4554L87.707 21.7316L88.9646 21.0078L90.2222 21.7316L88.9646 22.4554Z" fill="#42E8E0"/>
<path opacity="0.4" d="M91.4803 23.9032L90.2227 23.1794L91.4802 22.4556L92.7379 23.1794L91.4803 23.9032Z" fill="#42E8E0"/>
<path opacity="0.4" d="M93.9959 25.3507L92.7383 24.6268L93.9958 23.9031L95.2535 24.6269L93.9959 25.3507Z" fill="#42E8E0"/>
<path d="M96.5116 26.7984L95.2539 26.0746L96.5115 25.3508L97.7691 26.0746L96.5116 26.7984Z" fill="#42E8E0"/>
<path d="M99.0271 28.2459L97.7695 27.5221L99.0271 26.7983L100.285 27.5221L99.0271 28.2459Z" fill="#42E8E0"/>
<path d="M101.541 29.6937L100.283 28.9699L101.541 28.2461L102.798 28.9699L101.541 29.6937Z" fill="#42E8E0"/>
<path opacity="0.4" d="M78.8943 19.566L77.6367 18.8422L78.8943 18.1184L80.1519 18.8422L78.8943 19.566Z" fill="#42E8E0"/>
<path opacity="0.4" d="M81.41 21.0133L80.1523 20.2895L81.4099 19.5657L82.6676 20.2895L81.41 21.0133Z" fill="#42E8E0"/>
<path opacity="0.1" d="M83.9256 22.4613L82.668 21.7374L83.9256 21.0137L85.1832 21.7375L83.9256 22.4613Z" fill="#42E8E0"/>
<path d="M86.4392 23.9085L85.1816 23.1847L86.4392 22.4609L87.6968 23.1847L86.4392 23.9085Z" fill="#42E8E0"/>
<path d="M88.9549 25.3563L87.6973 24.6325L88.9548 23.9087L90.2125 24.6325L88.9549 25.3563Z" fill="#42E8E0"/>
<path opacity="0.8" d="M91.4705 26.8038L90.2129 26.08L91.4704 25.3562L92.7281 26.08L91.4705 26.8038Z" fill="#FF2C9C"/>
<path opacity="0.4" d="M93.9862 28.2515L92.7285 27.5277L93.9861 26.804L95.2437 27.5277L93.9862 28.2515Z" fill="#42E8E0"/>
<path d="M96.5017 29.699L95.2441 28.9752L96.5017 28.2515L97.7594 28.9753L96.5017 29.699Z" fill="#42E8E0"/>
<path d="M99.0154 31.1468L97.7578 30.423L99.0154 29.6992L100.273 30.423L99.0154 31.1468Z" fill="#42E8E0"/>
<path opacity="0.8" d="M76.367 21.0198L75.1094 20.2961L76.367 19.5723L77.6246 20.2961L76.367 21.0198Z" fill="#FF2C9C"/>
<path d="M78.8826 22.4676L77.625 21.7438L78.8826 21.02L80.1402 21.7438L78.8826 22.4676Z" fill="#42E8E0"/>
<path d="M81.3983 23.9149L80.1406 23.191L81.3982 22.4673L82.6558 23.1911L81.3983 23.9149Z" fill="#42E8E0"/>
<path d="M83.912 25.3629L82.6543 24.639L83.9119 23.9153L85.1695 24.639L83.912 25.3629Z" fill="#42E8E0"/>
<path opacity="0.8" d="M86.4275 26.8101L85.1699 26.0863L86.4275 25.3625L87.6851 26.0864L86.4275 26.8101Z" fill="#FF2C9C"/>
<path opacity="0.8" d="M88.9432 28.2576L87.6855 27.5339L88.9431 26.8101L90.2008 27.5339L88.9432 28.2576Z" fill="#FF2C9C"/>
<path d="M91.4588 29.7054L90.2012 28.9816L91.4588 28.2578L92.7164 28.9816L91.4588 29.7054Z" fill="#42E8E0"/>
<path d="M93.9744 31.1527L92.7168 30.4289L93.9744 29.7051L95.232 30.4289L93.9744 31.1527Z" fill="#42E8E0"/>
<path d="M96.4881 32.6007L95.2305 31.8768L96.488 31.1531L97.7457 31.8769L96.4881 32.6007Z" fill="#42E8E0"/>
<path d="M73.8416 22.4735L72.584 21.7496L73.8416 21.0259L75.0992 21.7496L73.8416 22.4735Z" fill="#42E8E0"/>
<path d="M76.3572 23.9207L75.0996 23.1969L76.3572 22.4731L77.6148 23.197L76.3572 23.9207Z" fill="#42E8E0"/>
<path opacity="0.4" d="M78.8728 25.3687L77.6152 24.6449L78.8728 23.9211L80.1304 24.6449L78.8728 25.3687Z" fill="#42E8E0"/>
<path opacity="0.8" d="M81.3866 26.816L80.1289 26.0922L81.3865 25.3684L82.6441 26.0922L81.3866 26.816Z" fill="#FF2C9C"/>
<path opacity="0.1" d="M83.9021 28.264L82.6445 27.5402L83.9021 26.8164L85.1597 27.5402L83.9021 28.264Z" fill="#42E8E0"/>
<path d="M86.4178 29.7112L85.1602 28.9874L86.4177 28.2637L87.6754 28.9875L86.4178 29.7112Z" fill="#42E8E0"/>
<path d="M88.9334 31.159L87.6758 30.4352L88.9334 29.7114L90.191 30.4352L88.9334 31.159Z" fill="#42E8E0"/>
<path opacity="0.8" d="M91.4491 32.6065L90.1914 31.8827L91.449 31.1589L92.7066 31.8827L91.4491 32.6065Z" fill="#FF2C9C"/>
<path d="M93.9627 34.0543L92.7051 33.3304L93.9627 32.6067L95.2203 33.3305L93.9627 34.0543Z" fill="#42E8E0"/>
<path d="M71.3182 23.9271L70.0605 23.2033L71.3182 22.4795L72.5758 23.2033L71.3182 23.9271Z" fill="#42E8E0"/>
<path d="M73.8338 25.3743L72.5762 24.6506L73.8337 23.9268L75.0914 24.6506L73.8338 25.3743Z" fill="#42E8E0"/>
<path opacity="0.4" d="M76.3494 26.8223L75.0918 26.0985L76.3493 25.3748L77.607 26.0986L76.3494 26.8223Z" fill="#42E8E0"/>
<path d="M78.8631 28.2696L77.6055 27.5458L78.8631 26.822L80.1207 27.5458L78.8631 28.2696Z" fill="#42E8E0"/>
<path d="M81.3787 29.7173L80.1211 28.9935L81.3787 28.2698L82.6363 28.9935L81.3787 29.7173Z" fill="#42E8E0"/>
<path opacity="0.1" d="M83.8943 31.1649L82.6367 30.4411L83.8943 29.7173L85.1519 30.4411L83.8943 31.1649Z" fill="#42E8E0"/>
<path opacity="0.4" d="M86.41 32.6126L85.1523 31.8888L86.4099 31.165L87.6675 31.8888L86.41 32.6126Z" fill="#42E8E0"/>
<path d="M88.9256 34.0601L87.668 33.3363L88.9256 32.6125L90.1832 33.3364L88.9256 34.0601Z" fill="#42E8E0"/>
<path opacity="0.1" d="M91.4393 35.5079L90.1816 34.7841L91.4393 34.0603L92.6969 34.7841L91.4393 35.5079Z" fill="#42E8E0"/>
<path d="M68.7909 25.3802L67.5332 24.6564L68.7908 23.9326L70.0484 24.6564L68.7909 25.3802Z" fill="#42E8E0"/>
<path opacity="0.4" d="M71.3064 26.828L70.0488 26.1041L71.3064 25.3804L72.564 26.1041L71.3064 26.828Z" fill="#42E8E0"/>
<path d="M73.8221 28.2755L72.5645 27.5516L73.822 26.8279L75.0797 27.5517L73.8221 28.2755Z" fill="#42E8E0"/>
<path d="M76.3358 29.7232L75.0781 28.9994L76.3357 28.2756L77.5933 28.9994L76.3358 29.7232Z" fill="#42E8E0"/>
<path d="M78.8513 31.1705L77.5938 30.4467L78.8513 29.7229L80.109 30.4467L78.8513 31.1705Z" fill="#42E8E0"/>
<path d="M81.367 32.618L80.1094 31.8942L81.3669 31.1704L82.6246 31.8942L81.367 32.618Z" fill="#42E8E0"/>
<path d="M83.8826 34.0657L82.625 33.3419L83.8825 32.6182L85.1402 33.342L83.8826 34.0657Z" fill="#42E8E0"/>
<path opacity="0.4" d="M86.3983 35.5133L85.1406 34.7895L86.3982 34.0657L87.6558 34.7895L86.3983 35.5133Z" fill="#42E8E0"/>
<path d="M88.9119 36.961L87.6543 36.2372L88.9119 35.5134L90.1695 36.2372L88.9119 36.961Z" fill="#42E8E0"/>
<path d="M66.2655 26.8338L65.0078 26.11L66.2654 25.3862L67.523 26.11L66.2655 26.8338Z" fill="#42E8E0"/>
<path opacity="0.1" d="M68.781 28.2811L67.5234 27.5573L68.781 26.8335L70.0387 27.5573L68.781 28.2811Z" fill="#42E8E0"/>
<path opacity="0.8" d="M71.2967 29.7291L70.0391 29.0053L71.2966 28.2815L72.5543 29.0053L71.2967 29.7291Z" fill="#FF2C9C"/>
<path d="M73.8104 31.1763L72.5527 30.4525L73.8103 29.7288L75.0679 30.4526L73.8104 31.1763Z" fill="#42E8E0"/>
<path d="M76.326 32.6241L75.0684 31.9003L76.326 31.1765L77.5836 31.9003L76.326 32.6241Z" fill="#42E8E0"/>
<path d="M78.8416 34.0716L77.584 33.3478L78.8416 32.624L80.0992 33.3478L78.8416 34.0716Z" fill="#42E8E0"/>
<path opacity="0.4" d="M81.3572 35.5194L80.0996 34.7956L81.3572 34.0718L82.6148 34.7956L81.3572 35.5194Z" fill="#42E8E0"/>
<path opacity="0.8" d="M83.8729 36.9669L82.6152 36.243L83.8728 35.5193L85.1305 36.243L83.8729 36.9669Z" fill="#FF2C9C"/>
<path d="M86.3865 38.4146L85.1289 37.6908L86.3865 36.967L87.6441 37.6909L86.3865 38.4146Z" fill="#42E8E0"/>
<path d="M129.065 118.422C128.38 118.422 127.704 118.242 127.113 117.902L104.608 104.95C104.255 104.746 104.045 104.382 104.045 103.976C104.045 103.571 104.255 103.207 104.608 103.004L145.328 79.5689C145.397 79.5291 145.48 79.5291 145.55 79.5689L169.895 93.5807C170.248 93.7836 170.458 94.1471 170.458 94.5539C170.458 94.9601 170.248 95.3236 169.895 95.5265L131.018 117.902C130.426 118.242 129.751 118.422 129.065 118.422ZM145.439 80.0164L104.83 103.387C104.617 103.51 104.489 103.731 104.489 103.976C104.489 104.222 104.617 104.443 104.83 104.566L127.335 117.518C128.383 118.121 129.748 118.121 130.796 117.518L169.673 95.1431C169.887 95.0203 170.014 94.7999 170.014 94.5539C170.014 94.3073 169.887 94.0869 169.673 93.9641L145.439 80.0164Z" fill="#42E8E0"/>
<path d="M145.489 70.5148L140.072 38.4822L140.508 38.2995L139.854 37.9255L139.855 37.9293C139.728 37.845 139.548 37.8501 139.35 37.9639L96.0632 62.8769C95.7078 63.0815 95.4388 63.6062 95.5012 63.973L100.961 96.2602C100.989 96.4284 101.073 96.54 101.189 96.5888L101.188 96.589L101.828 96.9578L101.938 96.3619L101.902 96.373L144.927 71.6109C145.282 71.4064 145.551 70.8817 145.489 70.5148Z" fill="url(#paint13_linear_602_1665)"/>
<path d="M96.3042 63.7526L95.5925 63.4387C95.5127 63.6204 95.4734 63.8115 95.5009 63.9727L100.96 96.2599C100.989 96.4282 101.072 96.5397 101.188 96.5886L101.188 96.5888L101.828 96.9575L101.938 96.3617L101.901 96.3727L104.079 95.1197L96.3042 63.7526Z" fill="url(#paint14_linear_602_1665)"/>
<path d="M145.606 71.9995L102.319 96.9124C101.985 97.1048 101.699 96.9937 101.64 96.6488L96.1809 64.3616C96.1184 63.9948 96.3875 63.4701 96.7429 63.2655L140.03 38.3526C140.364 38.1602 140.65 38.2713 140.709 38.6163L146.168 70.9035C146.231 71.2703 145.962 71.795 145.606 71.9995Z" fill="#24126A"/>
<g opacity="0.51">
<path d="M139.464 40.4131L97.7383 64.4272L102.913 94.8351L144.61 70.8371L139.464 40.4131Z" fill="#453C9E"/>
</g>
<path d="M172.816 87.2856L170.453 88.5155L146.766 74.8825C146.369 74.6544 145.677 74.683 145.219 74.9464L104.365 98.4594C103.974 98.2414 102.191 97.3869 102.191 97.3869L103.056 99.6329C103.056 99.6329 103.059 99.6305 103.06 99.6301C103.095 99.73 103.172 99.8232 103.301 99.8975L128.249 114.256C128.646 114.484 129.338 114.455 129.795 114.192L171.602 90.1306C171.79 90.0224 171.906 89.8915 171.953 89.7589L171.956 89.761L172.816 87.2856Z" fill="url(#paint15_linear_602_1665)"/>
<path d="M172.45 87.6728L129.603 112.332C129.134 112.602 128.424 112.632 128.018 112.398L102.45 97.6825C102.044 97.4488 102.095 97.0404 102.564 96.7706L145.411 72.111C145.88 71.8411 146.589 71.8117 146.995 72.0455L172.563 86.7608C172.97 86.9945 172.919 87.4028 172.45 87.6728Z" fill="url(#paint16_linear_602_1665)"/>
<path d="M172.449 87.4267L129.603 112.086C129.134 112.356 128.424 112.385 128.018 112.152L102.45 97.4364C102.317 97.3599 102.238 97.2638 102.201 97.1609C102.137 97.3529 102.214 97.547 102.45 97.6826L128.018 112.398C128.424 112.632 129.134 112.602 129.603 112.332L172.449 87.6729C172.765 87.4913 172.886 87.2479 172.811 87.0364C172.765 87.1754 172.646 87.3133 172.449 87.4267Z" fill="white"/>
<path d="M116.68 106.998V106.53C116.68 106.485 116.707 106.465 116.74 106.484L118.397 107.438C118.431 107.457 118.458 107.509 118.458 107.553V108.022C118.458 108.066 118.431 108.087 118.397 108.067L116.74 107.114C116.707 107.094 116.68 107.043 116.68 106.998Z" fill="#2842A2"/>
<path d="M119.156 108.424V107.956C119.156 107.911 119.183 107.891 119.217 107.91L120.874 108.864C120.907 108.883 120.935 108.935 120.935 108.979V109.448C120.935 109.492 120.907 109.512 120.874 109.493L119.217 108.539C119.183 108.52 119.156 108.469 119.156 108.424Z" fill="#2842A2"/>
<path d="M109.117 96.3042L144.723 75.8121C144.96 75.6755 145.253 75.6756 145.49 75.8124L158.169 83.125C158.351 83.23 158.351 83.4921 158.169 83.5969L122.58 104.079C122.343 104.216 122.051 104.216 121.813 104.08L109.117 96.7762C108.935 96.6714 108.935 96.4091 109.117 96.3042Z" fill="#ADB1F2"/>
<path d="M109.117 96.7762L109.245 96.8496L144.723 76.4309C144.96 76.2942 145.253 76.2944 145.49 76.4312L158.041 83.6702L158.169 83.5969C158.351 83.4921 158.351 83.2301 158.169 83.125L145.49 75.8124C145.253 75.6756 144.96 75.6755 144.723 75.8121L109.117 96.3042C108.935 96.4091 108.935 96.6714 109.117 96.7762Z" fill="#9198DB"/>
<path d="M146.446 77.6643L115.518 95.4645L114.143 94.6731L145.071 76.8728L146.446 77.6643Z" fill="#24126A"/>
<path d="M149.817 79.6045L120.807 96.3005L119.432 95.509L148.441 78.813L149.817 79.6045Z" fill="#24126A"/>
<path d="M152.014 80.8684L117.858 100.526L116.482 99.7346L150.638 80.0769L152.014 80.8684Z" fill="#24126A"/>
<path d="M154.211 82.1323L120.055 101.79L118.68 100.999L152.836 81.3408L154.211 82.1323Z" fill="#24126A"/>
<path d="M156.404 83.3959L122.248 103.054L120.873 102.262L155.029 82.6045L156.404 83.3959Z" fill="#24126A"/>
<path d="M113.649 96.54L112.274 97.3315L110.898 96.5399L112.274 95.7485L113.649 96.54Z" fill="#24126A"/>
<path d="M118.499 97.6294L115.645 99.2721L114.27 98.4806L117.124 96.8379L118.499 97.6294Z" fill="#24126A"/>
<path d="M146.092 101.263L155.693 95.7381C156.068 95.5221 156.068 95.172 155.693 94.956L149.128 91.1776C148.752 90.9616 148.144 90.9616 147.769 91.1776L138.168 96.703C137.793 96.9189 137.793 97.2691 138.168 97.4851L144.733 101.264C145.108 101.479 145.717 101.479 146.092 101.263Z" fill="url(#paint17_linear_602_1665)"/>
<path d="M138.169 97.023L147.769 91.4976C148.144 91.2816 148.753 91.2816 149.128 91.4976L155.693 95.276C155.809 95.3427 155.885 95.4227 155.929 95.5071C156.028 95.3181 155.953 95.1053 155.693 94.956L149.128 91.1776C148.753 90.9616 148.144 90.9616 147.769 91.1776L138.169 96.703C137.909 96.8523 137.833 97.0651 137.933 97.254C137.977 97.1697 138.053 97.0897 138.169 97.023Z" fill="#9198DB"/>
<g opacity="0.11">
<path d="M145.452 72.0598L102.605 96.7193C102.136 96.9892 101.426 97.0185 101.02 96.7848L75.4519 82.0695C75.0458 81.8357 75.0967 81.4274 75.5657 81.1575L118.412 56.4979C118.881 56.228 119.591 56.1987 119.997 56.4325L145.565 71.1478C145.971 71.3815 145.921 71.7898 145.452 72.0598Z" fill="url(#paint18_linear_602_1665)"/>
<path d="M102.477 76.481L112.077 70.9556C112.453 70.7396 112.453 70.3895 112.077 70.1735L105.512 66.3951C105.137 66.1792 104.529 66.1792 104.153 66.3951L94.5529 71.9205C94.1777 72.1365 94.1777 72.4866 94.5529 72.7026L101.118 76.4811C101.493 76.697 102.102 76.697 102.477 76.481Z" fill="url(#paint19_linear_602_1665)"/>
<path d="M94.5533 72.2406L104.154 66.7151C104.529 66.4992 105.137 66.4992 105.513 66.7151L112.078 70.4936C112.194 70.5602 112.269 70.6402 112.314 70.7246C112.413 70.5357 112.337 70.3228 112.078 70.1735L105.513 66.3951C105.137 66.1792 104.529 66.1792 104.154 66.3951L94.5533 71.9205C94.2939 72.0698 94.2182 72.2826 94.3174 72.4716C94.3617 72.3872 94.4375 72.3072 94.5533 72.2406Z" fill="#9198DB"/>
<path d="M90.334 85.1157L125.94 64.6236C126.177 64.487 126.47 64.4871 126.707 64.6239L139.386 71.9365C139.568 72.0416 139.568 72.3036 139.386 72.4084L103.797 92.891C103.559 93.0274 103.267 93.0275 103.03 92.8911L90.334 85.5878C90.1517 85.4829 90.1517 85.2206 90.334 85.1157Z" fill="#ADB1F2"/>
<path d="M90.334 85.5878L90.4615 85.6611L125.94 65.2424C126.177 65.1058 126.47 65.1059 126.707 65.2428L139.258 72.4817L139.386 72.4084C139.568 72.3036 139.568 72.0416 139.386 71.9366L126.707 64.624C126.47 64.4871 126.177 64.487 125.94 64.6236L90.334 85.1157C90.1517 85.2207 90.1517 85.4829 90.334 85.5878Z" fill="#9198DB"/>
<path d="M136.07 71.4377L105.051 89.2899L106.279 89.9971L137.298 72.1449L136.07 71.4377Z" fill="#24126A"/>
<path d="M132.799 69.5569L103.316 86.5251L104.545 87.2322L134.028 70.264L132.799 69.5569Z" fill="#24126A"/>
<path d="M101.117 87.792L98.3633 89.3768L99.592 90.0839L102.346 88.4992L101.117 87.792Z" fill="#24126A"/>
<path d="M103.548 90.1543L101.631 91.2578L102.86 91.965L104.777 90.8615L103.548 90.1543Z" fill="#24126A"/>
<path d="M130.752 68.3779L96.3145 88.198L97.5432 88.9052L131.981 69.0851L130.752 68.3779Z" fill="#24126A"/>
<path d="M128.705 67.1995L94.2676 87.0195L95.4963 87.7267L129.934 67.9066L128.705 67.1995Z" fill="#24126A"/>
<path d="M126.657 66.021L92.2188 85.841L93.4474 86.5482L127.885 66.7282L126.657 66.021Z" fill="#24126A"/>
</g>
<path d="M113.449 83.2421L116.825 81.2971L116.924 81.8814L113.548 83.8263L113.449 83.2421Z" fill="#42E8E0"/>
<path d="M117.367 80.9863L119.207 79.9265L119.306 80.5109L117.466 81.5706L117.367 80.9863Z" fill="#42E8E0"/>
<path d="M122.068 78.2799L123.399 77.5132L123.498 78.0975L122.167 78.8642L122.068 78.2799Z" fill="#42E8E0"/>
<path d="M121.098 78.8394L121.552 78.5774L121.651 79.1617L121.197 79.4237L121.098 78.8394Z" fill="#42E8E0"/>
<path d="M119.758 79.6119L120.584 79.136L120.683 79.7203L119.857 80.1961L119.758 79.6119Z" fill="#42E8E0"/>
<path d="M116.121 78.7724L117.452 78.0056L117.551 78.59L116.22 79.3567L116.121 78.7724Z" fill="#42E8E0"/>
<path d="M112.996 80.5722L115.604 79.0698L115.703 79.6541L113.095 81.1565L112.996 80.5722Z" fill="#42E8E0"/>
<path d="M116.734 71.1015L119.342 69.5991L119.441 70.1835L116.833 71.6858L116.734 71.1015Z" fill="#42E8E0"/>
<path d="M115.393 71.8745L116.218 71.3987L116.317 71.9829L115.492 72.4588L115.393 71.8745Z" fill="#42E8E0"/>
<path d="M117.17 73.7748L119.777 72.2725L119.876 72.8568L117.269 74.3592L117.17 73.7748Z" fill="#42E8E0"/>
<path d="M115.828 74.548L116.654 74.0723L116.753 74.6565L115.927 75.1324L115.828 74.548Z" fill="#42E8E0"/>
<path d="M114.81 59.565L109.898 62.3951L109.799 61.8108L114.711 58.9807L114.81 59.565Z" fill="#42E8E0"/>
<path d="M116.541 58.5677L115.326 59.268L115.227 58.6836L116.442 57.9834L116.541 58.5677Z" fill="#42E8E0"/>
<path d="M125.171 57.9999L120.259 60.8299L120.16 60.2457L125.072 57.4155L125.171 57.9999Z" fill="#42E8E0"/>
<path d="M126.904 57.0025L125.689 57.7027L125.59 57.1184L126.805 56.4182L126.904 57.0025Z" fill="#42E8E0"/>
<path d="M111.455 62.9632L110.124 63.73L110.025 63.1457L111.356 62.3789L111.455 62.9632Z" fill="#42E8E0"/>
<path d="M119.553 61.2322L118.222 61.999L118.123 61.4147L119.454 60.6479L119.553 61.2322Z" fill="#42E8E0"/>
<path d="M114.578 61.1639L111.97 62.6663L111.871 62.082L114.479 60.5796L114.578 61.1639Z" fill="#42E8E0"/>
<path d="M115.921 60.3907L115.095 60.8665L114.996 60.2822L115.822 59.8064L115.921 60.3907Z" fill="#42E8E0"/>
<path d="M119.068 58.5806L116.46 60.083L116.361 59.4987L118.969 57.9963L119.068 58.5806Z" fill="#42E8E0"/>
<path d="M120.409 57.8077L119.583 58.2835L119.484 57.6992L120.31 57.2234L120.409 57.8077Z" fill="#42E8E0"/>
<path d="M119.326 59.8963L117.995 60.6631L117.896 60.0788L119.227 59.312L119.326 59.8963Z" fill="#42E8E0"/>
<path d="M122.449 58.0973L119.841 59.5996L119.742 59.0153L122.35 57.5129L122.449 58.0973Z" fill="#42E8E0"/>
<path d="M123.79 57.3243L122.964 57.8001L122.865 57.2158L123.691 56.74L123.79 57.3243Z" fill="#42E8E0"/>
<path d="M113.072 63.4962L110.349 65.065L110.25 64.4808L112.973 62.9119L113.072 63.4962Z" fill="#42E8E0"/>
<path d="M115.558 62.0645L113.589 63.199L113.49 62.6147L115.459 61.4802L115.558 62.0645Z" fill="#42E8E0"/>
<path d="M117.404 61.0006L116.074 61.7673L115.975 61.183L117.305 60.4163L117.404 61.0006Z" fill="#42E8E0"/>
<path d="M130.312 55.0455L127.589 56.6143L127.49 56.0301L130.213 54.4612L130.312 55.0455Z" fill="#42E8E0"/>
<path d="M132.795 53.6139L130.826 54.7484L130.727 54.164L132.696 53.0295L132.795 53.6139Z" fill="#42E8E0"/>
<path d="M134.645 52.5499L133.314 53.3166L133.215 52.7323L134.546 51.9656L134.645 52.5499Z" fill="#42E8E0"/>
<path d="M129.248 72.6828L131.971 71.114L132.07 71.6983L129.347 73.2671L129.248 72.6828Z" fill="#42E8E0"/>
<path d="M126.764 74.1145L128.733 72.98L128.832 73.5643L126.863 74.6988L126.764 74.1145Z" fill="#42E8E0"/>
<path d="M124.918 75.1784L126.249 74.4116L126.348 74.9959L125.017 75.7627L124.918 75.1784Z" fill="#42E8E0"/>
<path d="M128.344 74.6743L131.067 73.1055L131.166 73.6898L128.443 75.2586L128.344 74.6743Z" fill="#42E8E0"/>
<path d="M125.859 76.1057L127.829 74.9712L127.928 75.5555L125.958 76.69L125.859 76.1057Z" fill="#42E8E0"/>
<path d="M124.014 77.1696L125.345 76.4028L125.444 76.9871L124.113 77.7539L124.014 77.1696Z" fill="#42E8E0"/>
<path d="M117.35 72.2054L118.269 71.6755L118.368 72.2599L117.449 72.7897L117.35 72.2054Z" fill="#42E8E0"/>
<path d="M115.619 73.2029L116.835 72.5027L116.934 73.087L115.718 73.7872L115.619 73.2029Z" fill="#42E8E0"/>
<path d="M113.316 64.8229L110.593 66.3917L110.494 65.8074L113.217 64.2385L113.316 64.8229Z" fill="#42E8E0"/>
<path d="M115.801 63.3912L113.831 64.5257L113.732 63.9414L115.702 62.8069L115.801 63.3912Z" fill="#42E8E0"/>
<path d="M117.647 62.3272L116.316 63.094L116.217 62.5097L117.548 61.7429L117.647 62.3272Z" fill="#42E8E0"/>
<path d="M111.741 67.1966L110.822 67.7265L110.723 67.1422L111.642 66.6123L111.741 67.1966Z" fill="#42E8E0"/>
<path d="M113.471 66.1994L112.255 66.8996L112.156 66.3153L113.372 65.615L113.471 66.1994Z" fill="#42E8E0"/>
<path d="M115.944 64.7738L113.986 65.902L113.887 65.3177L115.845 64.1895L115.944 64.7738Z" fill="#42E8E0"/>
<path d="M118.602 75.8858L119.521 75.356L119.62 75.9403L118.701 76.4701L118.602 75.8858Z" fill="#42E8E0"/>
<path d="M116.869 76.8834L118.085 76.1831L118.184 76.7674L116.968 77.4677L116.869 76.8834Z" fill="#42E8E0"/>
<path d="M114.395 78.3087L116.353 77.1804L116.452 77.7647L114.493 78.893L114.395 78.3087Z" fill="#42E8E0"/>
<path d="M120 73.7188L121.958 72.5906L122.057 73.1749L120.099 74.3031L120 73.7188Z" fill="#42E8E0"/>
<path d="M116.799 75.4596L119.438 73.9387L119.537 74.5231L116.898 76.0438L116.799 75.4596Z" fill="#42E8E0"/>
<path d="M115.457 76.2322L116.283 75.7563L116.382 76.3406L115.556 76.8165L115.457 76.2322Z" fill="#42E8E0"/>
<path d="M114.17 76.9742L114.996 76.4983L115.095 77.0825L114.269 77.5585L114.17 76.9742Z" fill="#42E8E0"/>
<path d="M114.348 69.4311L116.955 67.9287L117.054 68.5131L114.447 70.0154L114.348 69.4311Z" fill="#42E8E0"/>
<path d="M113.004 70.2043L113.83 69.7285L113.929 70.3128L113.103 70.7887L113.004 70.2043Z" fill="#42E8E0"/>
<path d="M114.525 67.8616L115.445 67.3318L115.544 67.9161L114.624 68.446L114.525 67.8616Z" fill="#42E8E0"/>
<path d="M117.771 68.931L118.691 68.4011L118.79 68.9854L117.871 69.5153L117.771 68.931Z" fill="#42E8E0"/>
<path d="M119.084 68.1769L121.291 66.9062L121.39 67.4906L119.183 68.7612L119.084 68.1769Z" fill="#42E8E0"/>
<path d="M121.684 66.6815L122.996 65.9255L123.095 66.5098L121.783 67.2659L121.684 66.6815Z" fill="#42E8E0"/>
<path d="M112.795 68.8592L114.01 68.1589L114.109 68.7432L112.894 69.4435L112.795 68.8592Z" fill="#42E8E0"/>
<path d="M112.682 67.4874L113.601 66.9575L113.7 67.5418L112.781 68.0717L112.682 67.4874Z" fill="#42E8E0"/>
<path d="M110.949 68.4849L112.165 67.7847L112.264 68.369L111.048 69.0692L110.949 68.4849Z" fill="#42E8E0"/>
<path d="M116.439 69.6989L117.265 69.2231L117.364 69.8074L116.538 70.2833L116.439 69.6989Z" fill="#42E8E0"/>
<path d="M115.15 70.4407L115.976 69.9648L116.075 70.5491L115.249 71.025L115.15 70.4407Z" fill="#42E8E0"/>
<path d="M121.494 77.1497L124.311 75.5266L124.41 76.111L121.593 77.734L121.494 77.1497Z" fill="#42E8E0"/>
<path d="M118.338 78.9679L120.977 77.447L121.076 78.0313L118.437 79.5521L118.338 78.9679Z" fill="#42E8E0"/>
<path d="M116.998 79.7404L117.824 79.2646L117.923 79.8489L117.097 80.3248L116.998 79.7404Z" fill="#42E8E0"/>
<path d="M115.711 80.4825L116.537 80.0066L116.636 80.5909L115.81 81.0668L115.711 80.4825Z" fill="#42E8E0"/>
<path d="M115.007 80.8879L113.225 81.9146L113.324 82.499L115.106 81.4723L115.007 80.8879Z" fill="#42E8E0"/>
<g opacity="0.8">
<path d="M43.796 118.5C43.0963 118.5 42.4078 118.316 41.8045 117.97L41.8041 117.969L2.92633 95.5942C2.54919 95.3773 2.32422 94.9884 2.32422 94.554C2.32422 94.1196 2.54919 93.7304 2.92608 93.5134L27.4227 79.4148L27.5729 79.5017L68.2919 102.936C68.6688 103.153 68.8942 103.542 68.8942 103.977C68.8942 104.411 68.6688 104.8 68.2919 105.017L45.7875 117.969C45.1842 118.316 44.4957 118.5 43.796 118.5ZM42.105 117.451C43.1299 118.04 44.4631 118.04 45.487 117.451L67.991 104.499C68.1804 104.39 68.2934 104.195 68.2934 103.977C68.2934 103.759 68.1804 103.564 67.991 103.455L27.4227 80.1069L27.384 80.1288L3.22673 94.0318C3.03806 94.141 2.92508 94.3361 2.92508 94.554C2.92508 94.772 3.03806 94.9666 3.22698 95.0758L42.105 117.451Z" fill="url(#paint20_linear_602_1665)"/>
</g>
<path d="M27.3743 70.5151L32.7905 38.4825L32.355 38.2997L33.0094 37.9257L33.0084 37.9295C33.1353 37.8453 33.3149 37.8504 33.5127 37.9642L76.7997 62.8771C77.1551 63.0817 77.4241 63.6064 77.3617 63.9732L71.9024 96.2604C71.8737 96.4287 71.7904 96.5402 71.6743 96.5891L71.675 96.5893L71.0346 96.9581L70.9246 96.3622L70.9612 96.3732L27.9363 71.6112C27.5808 71.4066 27.3118 70.8819 27.3743 70.5151Z" fill="url(#paint21_linear_602_1665)"/>
<path d="M76.5577 63.7528L77.2693 63.439C77.3492 63.6206 77.3883 63.8117 77.3609 63.973L71.9016 96.2602C71.8729 96.4284 71.7896 96.54 71.6736 96.5889L71.6742 96.5891L71.0338 96.9578L70.9238 96.3619L70.9604 96.373L68.7832 95.12L76.5577 63.7528Z" fill="url(#paint22_linear_602_1665)"/>
<path d="M27.2567 71.9996L70.5436 96.9125C70.8778 97.1049 71.164 96.9937 71.2227 96.6488L76.682 64.3616C76.7445 63.9948 76.4755 63.4701 76.12 63.2655L32.833 38.3526C32.4988 38.1602 32.2126 38.2713 32.1539 38.6163L26.6946 70.9035C26.6322 71.2703 26.9012 71.795 27.2567 71.9996Z" fill="#24126A"/>
<g opacity="0.51">
<path d="M33.3982 40.4131L75.1234 64.4272L69.9491 94.835L28.252 70.8371L33.3982 40.4131Z" fill="#453C9E"/>
</g>
<path d="M0.046875 87.2859L2.40917 88.5157L26.0968 74.8827C26.4931 74.6546 27.1854 74.6833 27.643 74.9466L68.4975 98.4596C68.8885 98.2417 70.671 97.3872 70.671 97.3872L69.8063 99.6331C69.8063 99.6331 69.8034 99.6308 69.8028 99.6304C69.7671 99.7302 69.6901 99.8234 69.5611 99.8977L44.6132 114.256C44.2169 114.484 43.5247 114.455 43.0671 114.192L1.25991 90.1308C1.07199 90.0226 0.956916 89.8917 0.909199 89.7591L0.905958 89.7612L0.046875 87.2859Z" fill="url(#paint23_linear_602_1665)"/>
<path d="M0.411424 87.6728L43.2581 112.332C43.7272 112.602 44.4366 112.632 44.8428 112.398L70.411 97.6825C70.8172 97.4488 70.7662 97.0404 70.2972 96.7706L27.4505 72.111C26.9815 71.8411 26.2721 71.8117 25.8659 72.0455L0.29764 86.7608C-0.108511 86.9945 -0.0576064 87.4028 0.411424 87.6728Z" fill="url(#paint24_linear_602_1665)"/>
<path d="M0.410854 87.4267L43.2576 112.086C43.7266 112.356 44.4361 112.385 44.8422 112.152L70.4105 97.4364C70.5434 97.3599 70.6225 97.2638 70.6588 97.1609C70.7231 97.3529 70.646 97.547 70.4105 97.6826L44.8422 112.398C44.4361 112.632 43.7266 112.602 43.2576 112.332L0.410854 87.6729C0.0953363 87.4913 -0.0260182 87.2479 0.0487224 87.0364C0.0952906 87.1754 0.213807 87.3133 0.410854 87.4267Z" fill="white"/>
<path d="M56.1825 106.998V106.53C56.1825 106.485 56.1555 106.465 56.1221 106.484L54.4648 107.438C54.4314 107.457 54.4043 107.509 54.4043 107.553V108.022C54.4043 108.066 54.4314 108.087 54.4648 108.067L56.1221 107.114C56.1555 107.094 56.1825 107.043 56.1825 106.998Z" fill="#2842A2"/>
<path d="M53.704 108.424V107.956C53.704 107.911 53.6769 107.891 53.6435 107.91L51.9863 108.864C51.9529 108.883 51.9258 108.935 51.9258 108.979V109.448C51.9258 109.492 51.9529 109.513 51.9863 109.493L53.6435 108.54C53.6769 108.52 53.704 108.469 53.704 108.424Z" fill="#2842A2"/>
<path d="M63.745 96.3042L28.1393 75.8121C27.9019 75.6755 27.6095 75.6756 27.3722 75.8124L14.6931 83.125C14.5111 83.23 14.5112 83.4921 14.6933 83.5969L50.2824 104.079C50.5195 104.216 50.8116 104.216 51.0488 104.08L63.745 96.7762C63.9273 96.6714 63.9273 96.4091 63.745 96.3042Z" fill="#ADB1F2"/>
<path d="M63.7449 96.7763L63.6174 96.8496L28.1393 76.4309C27.9019 76.2942 27.6095 76.2944 27.3722 76.4312L14.8207 83.6702L14.6933 83.5969C14.5112 83.4921 14.5111 83.2301 14.6931 83.125L27.3722 75.8124C27.6095 75.6756 27.9019 75.6755 28.1393 75.8121L63.745 96.3042C63.9273 96.4091 63.9273 96.6714 63.7449 96.7763Z" fill="#9198DB"/>
<path d="M29.3926 79.3784L59.5312 96.724L60.8332 95.8905L30.7737 78.5903L29.3926 79.3784Z" fill="#24126A"/>
<path d="M27.4355 82.1326L54.7987 97.8809L55.7362 96.8375L28.8098 81.3406L27.4355 82.1326Z" fill="#24126A"/>
<path d="M20.8477 80.8686L55.0036 100.526L56.3788 99.7349L22.2229 80.0771L20.8477 80.8686Z" fill="#24126A"/>
<path d="M18.6523 82.132L52.8083 101.79L54.1834 100.998L20.0275 81.3406L18.6523 82.132Z" fill="#24126A"/>
<path d="M16.4551 83.3959L50.611 103.054L51.9862 102.262L17.8303 82.6045L16.4551 83.3959Z" fill="#24126A"/>
<path d="M59.2129 96.5405L60.5881 97.332L61.9632 96.5404L60.5881 95.749L59.2129 96.5405Z" fill="#24126A"/>
<path d="M54.3613 97.6294L57.2156 99.2721L58.5909 98.4806L55.7366 96.8379L54.3613 97.6294Z" fill="#24126A"/>
<path d="M26.7688 101.264L17.1682 95.7383C16.7929 95.5224 16.7929 95.1722 17.1682 94.9562L23.7333 91.1778C24.1085 90.9619 24.7169 90.9619 25.0921 91.1778L34.6927 96.7032C35.068 96.9192 35.068 97.2693 34.6927 97.4853L28.1276 101.264C27.7524 101.48 27.144 101.48 26.7688 101.264Z" fill="url(#paint25_linear_602_1665)"/>
<path d="M34.693 97.0233L25.0925 91.4978C24.7172 91.2819 24.1089 91.2819 23.7336 91.4978L17.1685 95.2763C17.0527 95.3429 16.977 95.4229 16.9327 95.5073C16.8334 95.3184 16.9091 95.1056 17.1685 94.9562L23.7336 91.1778C24.1089 90.9619 24.7172 90.9619 25.0925 91.1778L34.693 96.7032C34.9525 96.8525 35.0282 97.0654 34.9289 97.2543C34.8846 97.1699 34.8089 97.0899 34.693 97.0233Z" fill="#9198DB"/>
<g opacity="0.11">
<path d="M27.4075 72.0598L70.2543 96.7193C70.7233 96.9892 71.4327 97.0185 71.8389 96.7848L97.4072 82.0695C97.8133 81.8357 97.7624 81.4274 97.2934 81.1575L54.4466 56.4979C53.9776 56.228 53.2682 56.1987 52.862 56.4325L27.2937 71.1478C26.8876 71.3815 26.9385 71.7898 27.4075 72.0598Z" fill="url(#paint26_linear_602_1665)"/>
<path d="M70.382 76.481L60.7815 70.9556C60.4062 70.7396 60.4062 70.3895 60.7814 70.1735L67.3466 66.3951C67.7218 66.1792 68.3301 66.1792 68.7054 66.3951L78.306 71.9205C78.6812 72.1365 78.6812 72.4866 78.306 72.7026L71.7409 76.481C71.3656 76.697 70.7572 76.6969 70.382 76.481Z" fill="url(#paint27_linear_602_1665)"/>
<path d="M78.3064 72.2406L68.7058 66.7151C68.3305 66.4992 67.7221 66.4992 67.3469 66.7151L60.7818 70.4936C60.666 70.5602 60.5903 70.6402 60.546 70.7246C60.4467 70.5357 60.5224 70.3228 60.7818 70.1735L67.3469 66.3951C67.7221 66.1792 68.3305 66.1792 68.7058 66.3951L78.3064 71.9205C78.5658 72.0698 78.6415 72.2826 78.5422 72.4716C78.4979 72.3872 78.4222 72.3072 78.3064 72.2406Z" fill="#9198DB"/>
<path d="M82.5263 85.1157L46.9206 64.6236C46.6832 64.487 46.3907 64.4871 46.1535 64.6239L33.4744 71.9365C33.2923 72.0416 33.2924 72.3036 33.4746 72.4084L69.0637 92.891C69.3008 93.0274 69.5929 93.0275 69.83 92.891L82.5262 85.5878C82.7085 85.4829 82.7086 85.2206 82.5263 85.1157Z" fill="#ADB1F2"/>
<path d="M82.5262 85.5878L82.3987 85.6611L46.9206 65.2424C46.6832 65.1058 46.3907 65.1059 46.1534 65.2428L33.6019 72.4817L33.4746 72.4084C33.2924 72.3036 33.2923 72.0416 33.4744 71.9366L46.1534 64.624C46.3907 64.4871 46.6832 64.487 46.9206 64.6236L82.5263 85.1157C82.7085 85.2207 82.7085 85.4829 82.5262 85.5878Z" fill="#9198DB"/>
<path d="M36.7912 71.4377L67.81 89.2899L66.5812 89.9971L35.5625 72.1449L36.7912 71.4377Z" fill="#24126A"/>
<path d="M40.0588 69.5569L69.5416 86.5251L68.3129 87.2322L38.8301 70.264L40.0588 69.5569Z" fill="#24126A"/>
<path d="M71.7443 87.792L74.4979 89.3768L73.2692 90.0839L70.5156 88.4992L71.7443 87.792Z" fill="#24126A"/>
<path d="M69.3127 90.1541L71.2301 91.2575L70.0014 91.9647L68.084 90.8612L69.3127 90.1541Z" fill="#24126A"/>
<path d="M42.1076 68.3779L76.5456 88.198L75.3169 88.9051L40.8789 69.0851L42.1076 68.3779Z" fill="#24126A"/>
<path d="M44.1565 67.1995L78.5944 87.0195L77.3657 87.7267L42.9277 67.9066L44.1565 67.1995Z" fill="#24126A"/>
<path d="M46.2033 66.021L80.6413 85.841L79.4125 86.5482L44.9746 66.7282L46.2033 66.021Z" fill="#24126A"/>
</g>
<path d="M42.7422 51.6839L46.118 53.6288L46.217 53.0446L42.8412 51.0996L42.7422 51.6839Z" fill="#42E8E0"/>
<path d="M46.6602 53.9393L48.4996 54.9991L48.5985 54.4147L46.7591 53.355L46.6602 53.9393Z" fill="#42E8E0"/>
<path d="M51.3613 56.6458L52.6921 57.4126L52.7912 56.8283L51.4603 56.0615L51.3613 56.6458Z" fill="#42E8E0"/>
<path d="M50.3906 56.0864L50.8454 56.3485L50.9444 55.7642L50.4896 55.5022L50.3906 56.0864Z" fill="#42E8E0"/>
<path d="M49.0488 55.3138L49.8747 55.7897L49.9737 55.2054L49.1478 54.7295L49.0488 55.3138Z" fill="#42E8E0"/>
<path d="M45.4141 56.1533L46.7449 56.9201L46.8439 56.3358L45.5131 55.5691L45.4141 56.1533Z" fill="#42E8E0"/>
<path d="M42.2891 54.3536L44.8966 55.8559L44.9956 55.2716L42.3881 53.7693L42.2891 54.3536Z" fill="#42E8E0"/>
<path d="M46.0293 63.8238L48.6368 65.3261L48.7358 64.7419L46.1283 63.2395L46.0293 63.8238Z" fill="#42E8E0"/>
<path d="M44.6875 63.0511L45.5134 63.5269L45.6123 62.9427L44.7865 62.4668L44.6875 63.0511Z" fill="#42E8E0"/>
<path d="M46.4629 61.151L49.0704 62.6533L49.1694 62.069L46.5619 60.5667L46.4629 61.151Z" fill="#42E8E0"/>
<path d="M45.1211 60.3775L45.947 60.8533L46.046 60.2691L45.2201 59.7932L45.1211 60.3775Z" fill="#42E8E0"/>
<path d="M44.103 75.3603L39.1908 72.5303L39.0918 73.1146L44.004 75.9447L44.103 75.3603Z" fill="#42E8E0"/>
<path d="M45.8339 76.3577L44.6185 75.6575L44.5195 76.2418L45.7349 76.942L45.8339 76.3577Z" fill="#42E8E0"/>
<path d="M54.4663 76.9257L49.554 74.0957L49.4551 74.6799L54.3672 77.51L54.4663 76.9257Z" fill="#42E8E0"/>
<path d="M56.1973 77.9229L54.9818 77.2227L54.8828 77.807L56.0982 78.5072L56.1973 77.9229Z" fill="#42E8E0"/>
<path d="M40.7482 71.9627L39.4173 71.1958L39.3184 71.7801L40.6492 72.5469L40.7482 71.9627Z" fill="#42E8E0"/>
<path d="M48.8459 73.6936L47.515 72.9268L47.416 73.5111L48.7469 74.2778L48.8459 73.6936Z" fill="#42E8E0"/>
<path d="M43.8706 73.7616L41.2631 72.2593L41.1641 72.8436L43.7716 74.3459L43.8706 73.7616Z" fill="#42E8E0"/>
<path d="M45.214 74.5349L44.388 74.0591L44.2891 74.6433L45.1149 75.1192L45.214 74.5349Z" fill="#42E8E0"/>
<path d="M48.3608 76.3451L45.7533 74.8428L45.6543 75.4271L48.2618 76.9294L48.3608 76.3451Z" fill="#42E8E0"/>
<path d="M49.7022 77.1179L48.8763 76.6421L48.7773 77.2264L49.6032 77.7022L49.7022 77.1179Z" fill="#42E8E0"/>
<path d="M48.6193 75.029L47.2884 74.2622L47.1895 74.8465L48.5203 75.6133L48.6193 75.029Z" fill="#42E8E0"/>
<path d="M51.7417 76.8285L49.1342 75.3262L49.0352 75.9105L51.6428 77.4128L51.7417 76.8285Z" fill="#42E8E0"/>
<path d="M53.083 77.6018L52.2572 77.126L52.1582 77.7103L52.9841 78.1861L53.083 77.6018Z" fill="#42E8E0"/>
<path d="M42.365 71.4296L39.6419 69.8608L39.543 70.4451L42.2659 72.014L42.365 71.4296Z" fill="#42E8E0"/>
<path d="M44.8514 72.8613L42.8822 71.7268L42.7832 72.3111L44.7524 73.4456L44.8514 72.8613Z" fill="#42E8E0"/>
<path d="M46.6974 73.9252L45.3666 73.1584L45.2676 73.7428L46.5984 74.5095L46.6974 73.9252Z" fill="#42E8E0"/>
<path d="M59.6053 79.8803L56.8822 78.3115L56.7832 78.8958L59.5062 80.4647L59.6053 79.8803Z" fill="#42E8E0"/>
<path d="M62.0877 81.312L60.1185 80.1775L60.0195 80.7618L61.9887 81.8963L62.0877 81.312Z" fill="#42E8E0"/>
<path d="M63.9376 82.3759L62.6068 81.6091L62.5078 82.1935L63.8387 82.9602L63.9376 82.3759Z" fill="#42E8E0"/>
<path d="M58.541 62.2426L61.264 63.8114L61.363 63.2271L58.64 61.6582L58.541 62.2426Z" fill="#42E8E0"/>
<path d="M56.0566 60.8109L58.0258 61.9454L58.1248 61.3611L56.1557 60.2266L56.0566 60.8109Z" fill="#42E8E0"/>
<path d="M54.209 59.7474L55.5398 60.5141L55.6388 59.9298L54.3079 59.1631L54.209 59.7474Z" fill="#42E8E0"/>
<path d="M57.6367 60.2518L60.3597 61.8206L60.4587 61.2363L57.7357 59.6675L57.6367 60.2518Z" fill="#42E8E0"/>
<path d="M55.1523 58.8202L57.1215 59.9547L57.2205 59.3704L55.2513 58.2358L55.1523 58.8202Z" fill="#42E8E0"/>
<path d="M53.3066 57.7562L54.6375 58.523L54.7365 57.9386L53.4056 57.1719L53.3066 57.7562Z" fill="#42E8E0"/>
<path d="M46.6426 62.7203L47.5622 63.2502L47.6612 62.6659L46.7416 62.136L46.6426 62.7203Z" fill="#42E8E0"/>
<path d="M44.9121 61.723L46.1275 62.4232L46.2265 61.8389L45.0111 61.1387L44.9121 61.723Z" fill="#42E8E0"/>
<path d="M42.6091 70.1025L39.8861 68.5337L39.7871 69.118L42.5101 70.6868L42.6091 70.1025Z" fill="#42E8E0"/>
<path d="M45.0936 71.5347L43.1244 70.4001L43.0254 70.9845L44.9945 72.119L45.0936 71.5347Z" fill="#42E8E0"/>
<path d="M46.9416 72.5985L45.6107 71.8318L45.5117 72.4161L46.8426 73.1828L46.9416 72.5985Z" fill="#42E8E0"/>
<path d="M41.0342 67.7293L40.1146 67.1995L40.0156 67.7838L40.9353 68.3136L41.0342 67.7293Z" fill="#42E8E0"/>
<path d="M42.7636 68.7264L41.5482 68.0261L41.4492 68.6105L42.6646 69.3107L42.7636 68.7264Z" fill="#42E8E0"/>
<path d="M45.237 70.1522L43.2787 69.0239L43.1797 69.6083L45.138 70.7365L45.237 70.1522Z" fill="#42E8E0"/>
<path d="M47.8945 59.0399L48.8142 59.5697L48.9132 58.9854L47.9936 58.4556L47.8945 59.0399Z" fill="#42E8E0"/>
<path d="M46.1621 58.0421L47.3775 58.7423L47.4766 58.158L46.2611 57.4578L46.1621 58.0421Z" fill="#42E8E0"/>
<path d="M43.6875 56.6168L45.6459 57.7451L45.7449 57.1607L43.7865 56.0325L43.6875 56.6168Z" fill="#42E8E0"/>
<path d="M49.293 61.2067L51.2513 62.3349L51.3503 61.7506L49.392 60.6223L49.293 61.2067Z" fill="#42E8E0"/>
<path d="M46.0918 59.4661L48.7314 60.987L48.8304 60.4026L46.1908 58.8818L46.0918 59.4661Z" fill="#42E8E0"/>
<path d="M44.75 58.6935L45.5759 59.1693L45.6749 58.585L44.849 58.1091L44.75 58.6935Z" fill="#42E8E0"/>
<path d="M43.4629 57.9515L44.2888 58.4274L44.3878 57.8431L43.5619 57.3672L43.4629 57.9515Z" fill="#42E8E0"/>
<path d="M43.6406 65.4938L46.2482 66.9961L46.3472 66.4118L43.7396 64.9094L43.6406 65.4938Z" fill="#42E8E0"/>
<path d="M42.2969 64.7211L43.1227 65.1968L43.2217 64.6126L42.3959 64.1367L42.2969 64.7211Z" fill="#42E8E0"/>
<path d="M43.8203 67.0631L44.74 67.5929L44.8389 67.0086L43.9193 66.4788L43.8203 67.0631Z" fill="#42E8E0"/>
<path d="M47.0645 65.994L47.9841 66.5239L48.0831 65.9395L47.1634 65.4097L47.0645 65.994Z" fill="#42E8E0"/>
<path d="M48.377 66.7486L50.5838 68.0192L50.6828 67.4349L48.4759 66.1643L48.377 66.7486Z" fill="#42E8E0"/>
<path d="M50.9766 68.2435L52.2892 68.9995L52.3882 68.4152L51.0755 67.6592L50.9766 68.2435Z" fill="#42E8E0"/>
<path d="M42.0879 66.0658L43.3034 66.766L43.4023 66.1817L42.1869 65.4814L42.0879 66.0658Z" fill="#42E8E0"/>
<path d="M41.9727 67.4374L42.8923 67.9673L42.9913 67.3829L42.0716 66.853L41.9727 67.4374Z" fill="#42E8E0"/>
<path d="M40.2422 66.4401L41.4576 67.1403L41.5566 66.556L40.3412 65.8557L40.2422 66.4401Z" fill="#42E8E0"/>
<path d="M45.7324 65.2259L46.5583 65.7017L46.6573 65.1174L45.8314 64.6416L45.7324 65.2259Z" fill="#42E8E0"/>
<path d="M44.4434 64.484L45.2693 64.9599L45.3683 64.3756L44.5423 63.8997L44.4434 64.484Z" fill="#42E8E0"/>
<path d="M50.7871 57.7761L53.6043 59.3993L53.7033 58.8149L50.8861 57.1919L50.7871 57.7761Z" fill="#42E8E0"/>
<path d="M47.6309 55.9578L50.2705 57.4786L50.3695 56.8943L47.7299 55.3735L47.6309 55.9578Z" fill="#42E8E0"/>
<path d="M46.291 55.1852L47.1169 55.6609L47.2159 55.0767L46.39 54.6008L46.291 55.1852Z" fill="#42E8E0"/>
<path d="M45.0039 54.4432L45.8298 54.9191L45.9288 54.3348L45.1029 53.8589L45.0039 54.4432Z" fill="#42E8E0"/>
<path d="M44.2996 54.0378L42.5176 53.0111L42.6166 52.4268L44.3986 53.4535L44.2996 54.0378Z" fill="#42E8E0"/>
<path d="M26.416 77.6648L27.7912 78.4562L29.1664 77.6648L27.7912 76.8733L26.416 77.6648Z" fill="#24126A"/>
<path d="M23.043 79.6052L25.8973 81.2479L27.2724 80.4565L24.4181 78.8137L23.043 79.6052Z" fill="#24126A"/>
<defs>
<linearGradient id="paint0_linear_602_1665" x1="0.0389483" y1="40.2178" x2="69.4362" y2="40.2178" gradientUnits="userSpaceOnUse">
<stop stop-color="#5761D7"/>
<stop offset="0.177894" stop-color="#5C66D9"/>
<stop offset="0.387598" stop-color="#6A73DF"/>
<stop offset="0.6134" stop-color="#8289E8"/>
<stop offset="0.84896" stop-color="#A3A7F5"/>
<stop offset="1" stop-color="#BCBEFF"/>
</linearGradient>
<linearGradient id="paint1_linear_602_1665" x1="23.3557" y1="37.9111" x2="92.7898" y2="37.9111" gradientUnits="userSpaceOnUse">
<stop stop-color="#C0BFF6"/>
<stop offset="0.293761" stop-color="#C5C4F7"/>
<stop offset="0.639919" stop-color="#D3D2F9"/>
<stop offset="1" stop-color="#E9E9FD"/>
</linearGradient>
<linearGradient id="paint2_linear_602_1665" x1="18.8496" y1="32.5854" x2="36.6228" y2="32.5854" gradientUnits="userSpaceOnUse">
<stop stop-color="#C0BFF6"/>
<stop offset="0.293761" stop-color="#C5C4F7"/>
<stop offset="0.639919" stop-color="#D3D2F9"/>
<stop offset="1" stop-color="#E9E9FD"/>
</linearGradient>
<linearGradient id="paint3_linear_602_1665" x1="20.2402" y1="29.3922" x2="69.377" y2="29.3922" gradientUnits="userSpaceOnUse">
<stop stop-color="#C0BFF6"/>
<stop offset="0.293761" stop-color="#C5C4F7"/>
<stop offset="0.639919" stop-color="#D3D2F9"/>
<stop offset="1" stop-color="#E9E9FD"/>
</linearGradient>
<linearGradient id="paint4_linear_602_1665" x1="20.2402" y1="41.9541" x2="28.6775" y2="41.9541" gradientUnits="userSpaceOnUse">
<stop stop-color="#5761D7"/>
<stop offset="0.177894" stop-color="#5C66D9"/>
<stop offset="0.387598" stop-color="#6A73DF"/>
<stop offset="0.6134" stop-color="#8289E8"/>
<stop offset="0.84896" stop-color="#A3A7F5"/>
<stop offset="1" stop-color="#BCBEFF"/>
</linearGradient>
<linearGradient id="paint5_linear_602_1665" x1="172.825" y1="40.2176" x2="103.428" y2="40.2176" gradientUnits="userSpaceOnUse">
<stop stop-color="#5761D7"/>
<stop offset="0.177894" stop-color="#5C66D9"/>
<stop offset="0.387598" stop-color="#6A73DF"/>
<stop offset="0.6134" stop-color="#8289E8"/>
<stop offset="0.84896" stop-color="#A3A7F5"/>
<stop offset="1" stop-color="#BCBEFF"/>
</linearGradient>
<linearGradient id="paint6_linear_602_1665" x1="149.506" y1="37.9109" x2="80.072" y2="37.9109" gradientUnits="userSpaceOnUse">
<stop stop-color="#C0BFF6"/>
<stop offset="0.293761" stop-color="#C5C4F7"/>
<stop offset="0.639919" stop-color="#D3D2F9"/>
<stop offset="1" stop-color="#E9E9FD"/>
</linearGradient>
<linearGradient id="paint7_linear_602_1665" x1="154.011" y1="32.5852" x2="136.238" y2="32.5852" gradientUnits="userSpaceOnUse">
<stop stop-color="#C0BFF6"/>
<stop offset="0.293761" stop-color="#C5C4F7"/>
<stop offset="0.639919" stop-color="#D3D2F9"/>
<stop offset="1" stop-color="#E9E9FD"/>
</linearGradient>
<linearGradient id="paint8_linear_602_1665" x1="152.623" y1="29.3922" x2="103.486" y2="29.3922" gradientUnits="userSpaceOnUse">
<stop stop-color="#C0BFF6"/>
<stop offset="0.293761" stop-color="#C5C4F7"/>
<stop offset="0.639919" stop-color="#D3D2F9"/>
<stop offset="1" stop-color="#E9E9FD"/>
</linearGradient>
<linearGradient id="paint9_linear_602_1665" x1="152.623" y1="41.9539" x2="144.186" y2="41.9539" gradientUnits="userSpaceOnUse">
<stop stop-color="#5761D7"/>
<stop offset="0.177894" stop-color="#5C66D9"/>
<stop offset="0.387598" stop-color="#6A73DF"/>
<stop offset="0.6134" stop-color="#8289E8"/>
<stop offset="0.84896" stop-color="#A3A7F5"/>
<stop offset="1" stop-color="#BCBEFF"/>
</linearGradient>
<linearGradient id="paint10_linear_602_1665" x1="106.232" y1="76.1938" x2="106.232" y2="49.2148" gradientUnits="userSpaceOnUse">
<stop stop-color="#C0BFF6"/>
<stop offset="0.293761" stop-color="#C5C4F7"/>
<stop offset="0.639919" stop-color="#D3D2F9"/>
<stop offset="1" stop-color="#E9E9FD"/>
</linearGradient>
<linearGradient id="paint11_linear_602_1665" x1="106.232" y1="53.8232" x2="106.232" y2="26.8442" gradientUnits="userSpaceOnUse">
<stop stop-color="#C0BFF6"/>
<stop offset="0.293761" stop-color="#C5C4F7"/>
<stop offset="0.639919" stop-color="#D3D2F9"/>
<stop offset="1" stop-color="#E9E9FD"/>
</linearGradient>
<radialGradient id="paint12_radial_602_1665" cx="0" cy="0" r="1" gradientUnits="userSpaceOnUse" gradientTransform="translate(99.035 24.6215) scale(1.02683 1.02359)">
<stop stop-color="#FF2C9C"/>
<stop offset="0.0300632" stop-color="#F62F9F"/>
<stop offset="0.202268" stop-color="#C63EB0"/>
<stop offset="0.37372" stop-color="#9E4BBE"/>
<stop offset="0.54126" stop-color="#7F54C9"/>
<stop offset="0.703866" stop-color="#695BD1"/>
<stop offset="0.85937" stop-color="#5C60D5"/>
<stop offset="1" stop-color="#5761D7"/>
</radialGradient>
<linearGradient id="paint13_linear_602_1665" x1="95.4922" y1="67.4147" x2="145.498" y2="67.4147" gradientUnits="userSpaceOnUse">
<stop stop-color="#C0BFF6"/>
<stop offset="0.293761" stop-color="#C5C4F7"/>
<stop offset="0.639919" stop-color="#D3D2F9"/>
<stop offset="1" stop-color="#E9E9FD"/>
</linearGradient>
<linearGradient id="paint14_linear_602_1665" x1="95.4922" y1="80.1981" x2="104.079" y2="80.1981" gradientUnits="userSpaceOnUse">
<stop stop-color="#5761D7"/>
<stop offset="0.177894" stop-color="#5C66D9"/>
<stop offset="0.387598" stop-color="#6A73DF"/>
<stop offset="0.6134" stop-color="#8289E8"/>
<stop offset="0.84896" stop-color="#A3A7F5"/>
<stop offset="1" stop-color="#BCBEFF"/>
</linearGradient>
<linearGradient id="paint15_linear_602_1665" x1="102.191" y1="94.5691" x2="172.816" y2="94.5691" gradientUnits="userSpaceOnUse">
<stop stop-color="#5761D7"/>
<stop offset="0.177894" stop-color="#5C66D9"/>
<stop offset="0.387598" stop-color="#6A73DF"/>
<stop offset="0.6134" stop-color="#8289E8"/>
<stop offset="0.84896" stop-color="#A3A7F5"/>
<stop offset="1" stop-color="#BCBEFF"/>
</linearGradient>
<linearGradient id="paint16_linear_602_1665" x1="125.921" y1="92.2216" x2="196.582" y2="92.2216" gradientUnits="userSpaceOnUse">
<stop stop-color="#C0BFF6"/>
<stop offset="0.293761" stop-color="#C5C4F7"/>
<stop offset="0.639919" stop-color="#D3D2F9"/>
<stop offset="1" stop-color="#E9E9FD"/>
</linearGradient>
<linearGradient id="paint17_linear_602_1665" x1="137.887" y1="96.2205" x2="155.974" y2="96.2205" gradientUnits="userSpaceOnUse">
<stop stop-color="#C0BFF6"/>
<stop offset="0.293761" stop-color="#C5C4F7"/>
<stop offset="0.639919" stop-color="#D3D2F9"/>
<stop offset="1" stop-color="#E9E9FD"/>
</linearGradient>
<linearGradient id="paint18_linear_602_1665" x1="98.9227" y1="76.6086" x2="169.584" y2="76.6086" gradientUnits="userSpaceOnUse">
<stop stop-color="#C0BFF6"/>
<stop offset="0.293761" stop-color="#C5C4F7"/>
<stop offset="0.639919" stop-color="#D3D2F9"/>
<stop offset="1" stop-color="#E9E9FD"/>
</linearGradient>
<linearGradient id="paint19_linear_602_1665" x1="94.2716" y1="71.4381" x2="112.359" y2="71.4381" gradientUnits="userSpaceOnUse">
<stop stop-color="#C0BFF6"/>
<stop offset="0.293761" stop-color="#C5C4F7"/>
<stop offset="0.639919" stop-color="#D3D2F9"/>
<stop offset="1" stop-color="#E9E9FD"/>
</linearGradient>
<linearGradient id="paint20_linear_602_1665" x1="2.32422" y1="98.9574" x2="68.8942" y2="98.9574" gradientUnits="userSpaceOnUse">
<stop stop-color="#5761D7"/>
<stop offset="0.14063" stop-color="#5C60D5"/>
<stop offset="0.296134" stop-color="#695BD1"/>
<stop offset="0.45874" stop-color="#7F54C9"/>
<stop offset="0.62628" stop-color="#9E4BBE"/>
<stop offset="0.797732" stop-color="#C63EB0"/>
<stop offset="0.969937" stop-color="#F62F9F"/>
<stop offset="1" stop-color="#FF2C9C"/>
</linearGradient>
<linearGradient id="paint21_linear_602_1665" x1="77.3708" y1="67.4149" x2="27.3652" y2="67.4149" gradientUnits="userSpaceOnUse">
<stop stop-color="#C0BFF6"/>
<stop offset="0.293761" stop-color="#C5C4F7"/>
<stop offset="0.639919" stop-color="#D3D2F9"/>
<stop offset="1" stop-color="#E9E9FD"/>
</linearGradient>
<linearGradient id="paint22_linear_602_1665" x1="77.3696" y1="80.1984" x2="68.7832" y2="80.1984" gradientUnits="userSpaceOnUse">
<stop stop-color="#5761D7"/>
<stop offset="0.177894" stop-color="#5C66D9"/>
<stop offset="0.387598" stop-color="#6A73DF"/>
<stop offset="0.6134" stop-color="#8289E8"/>
<stop offset="0.84896" stop-color="#A3A7F5"/>
<stop offset="1" stop-color="#BCBEFF"/>
</linearGradient>
<linearGradient id="paint23_linear_602_1665" x1="70.671" y1="94.5693" x2="0.046875" y2="94.5693" gradientUnits="userSpaceOnUse">
<stop stop-color="#5761D7"/>
<stop offset="0.177894" stop-color="#5C66D9"/>
<stop offset="0.387598" stop-color="#6A73DF"/>
<stop offset="0.6134" stop-color="#8289E8"/>
<stop offset="0.84896" stop-color="#A3A7F5"/>
<stop offset="1" stop-color="#BCBEFF"/>
</linearGradient>
<linearGradient id="paint24_linear_602_1665" x1="46.9404" y1="92.2216" x2="-23.7214" y2="92.2216" gradientUnits="userSpaceOnUse">
<stop stop-color="#C0BFF6"/>
<stop offset="0.293761" stop-color="#C5C4F7"/>
<stop offset="0.639919" stop-color="#D3D2F9"/>
<stop offset="1" stop-color="#E9E9FD"/>
</linearGradient>
<linearGradient id="paint25_linear_602_1665" x1="34.9742" y1="96.2208" x2="16.8867" y2="96.2208" gradientUnits="userSpaceOnUse">
<stop stop-color="#C0BFF6"/>
<stop offset="0.293761" stop-color="#C5C4F7"/>
<stop offset="0.639919" stop-color="#D3D2F9"/>
<stop offset="1" stop-color="#E9E9FD"/>
</linearGradient>
<linearGradient id="paint26_linear_602_1665" x1="73.9365" y1="76.6086" x2="3.27469" y2="76.6086" gradientUnits="userSpaceOnUse">
<stop stop-color="#C0BFF6"/>
<stop offset="0.293761" stop-color="#C5C4F7"/>
<stop offset="0.639919" stop-color="#D3D2F9"/>
<stop offset="1" stop-color="#E9E9FD"/>
</linearGradient>
<linearGradient id="paint27_linear_602_1665" x1="78.5874" y1="71.4381" x2="60.5" y2="71.4381" gradientUnits="userSpaceOnUse">
<stop stop-color="#C0BFF6"/>
<stop offset="0.293761" stop-color="#C5C4F7"/>
<stop offset="0.639919" stop-color="#D3D2F9"/>
<stop offset="1" stop-color="#E9E9FD"/>
</linearGradient>
</defs>
</svg>
