<svg width="978" height="572" viewBox="0 0 978 572" fill="none" xmlns="http://www.w3.org/2000/svg">
<g clip-path="url(#clip0_407_7122)">
<path opacity="0.1" d="M996.645 121.877L970.917 136.717L970.916 184.53L742.377 316.349L725.011 306.333L842.9 238.333L842.9 226.177L863.8 214.122L863.801 186.162L904.333 162.784C906.032 163.493 908.414 163.414 909.944 162.531C911.642 161.552 911.642 159.965 909.944 158.986C908.247 158.007 905.495 158.007 903.797 158.986C902.267 159.869 902.13 161.243 903.36 162.222L862.828 185.602L862.827 213.561L842.9 225.054L842.901 180.283L842.658 180.142L831.138 173.499L900.246 133.637L900.247 88.8101L949.341 60.4935C951.039 61.203 953.421 61.1242 954.952 60.2411C956.649 59.2622 956.649 57.6745 954.952 56.6952C953.255 55.7164 950.503 55.7164 948.805 56.6956C947.274 57.5784 947.137 58.9521 948.367 59.9319L899.273 88.2492L899.272 133.076L830.165 172.937L717.812 108.131L717.813 57.9871C718.757 57.9261 719.675 57.6979 720.4 57.2798C722.097 56.3009 722.097 54.7137 720.4 53.7343C718.702 52.7551 715.95 52.7554 714.253 53.7343C712.555 54.7137 712.555 56.3009 714.253 57.2798C714.977 57.6979 715.895 57.9261 716.839 57.9871L716.838 108.692L717.082 108.833L784.661 147.813L735.412 147.814L695.589 124.843C696.818 123.863 696.682 122.49 695.151 121.607C693.453 120.628 690.701 120.628 689.004 121.607C687.306 122.586 687.306 124.174 689.004 125.153C690.535 126.036 692.916 126.115 694.615 125.405L735.15 148.786L786.324 148.785V148.772L841.927 180.844L841.927 237.773L724.037 305.77L708.229 296.653L791.655 248.532C793.354 249.241 795.736 249.162 797.266 248.279C798.964 247.3 798.964 245.713 797.267 244.733C795.569 243.755 792.817 243.755 791.12 244.734C789.589 245.617 789.452 246.99 790.682 247.97L707.254 296.091L691.992 287.288L791.787 229.726L818.909 229.726C819.07 230.197 819.465 230.647 820.099 231.013C821.796 231.992 824.548 231.992 826.246 231.013C827.943 230.033 827.943 228.446 826.246 227.467C824.549 226.488 821.796 226.488 820.099 227.467C819.466 227.832 819.07 228.282 818.909 228.753L791.526 228.754L791.413 228.819L691.017 286.725L684.857 283.172L684.613 283.311L680.115 285.906L656.205 272.115L656.206 252.923L675.961 241.529V241.58L706.958 241.579L741.084 221.895C742.783 222.605 745.165 222.526 746.695 221.643C748.393 220.664 748.393 219.076 746.696 218.097C744.998 217.118 742.246 217.118 740.549 218.097C739.018 218.98 738.881 220.354 740.111 221.333L706.697 240.606L677.558 240.607L735.629 207.112C737.334 207.879 739.793 207.821 741.361 206.916C743.059 205.936 743.059 204.349 741.361 203.37C739.664 202.391 736.912 202.391 735.214 203.37C733.721 204.232 733.544 205.563 734.678 206.537L662.243 248.317V239.082L705.339 214.224V196.674L740.427 176.436C742.126 177.145 744.507 177.066 746.038 176.183C747.736 175.204 747.736 173.617 746.038 172.638C744.341 171.658 741.589 171.658 739.891 172.638C738.36 173.52 738.223 174.894 739.454 175.874L704.365 196.113V213.663L661.269 238.521V248.879L655.233 252.361L655.232 272.678L679.14 286.468L663.43 295.53L614.23 267.151L614.231 234.891L647.638 215.621C649.344 216.388 651.802 216.331 653.371 215.426C655.068 214.447 655.068 212.86 653.371 211.88C651.673 210.901 648.921 210.901 647.224 211.88C645.731 212.742 645.554 214.073 646.687 215.047L614.231 233.768L614.231 207.707L639.874 192.917L639.875 143.893C640.819 143.831 641.737 143.603 642.462 143.185C644.159 142.206 644.159 140.618 642.462 139.639C640.764 138.66 638.012 138.66 636.315 139.639C634.617 140.619 634.617 142.206 636.314 143.185C637.039 143.603 637.957 143.831 638.901 143.893L638.9 192.356L614.231 206.585L614.233 120.139H613.26L613.257 267.713L662.455 296.092L644.813 306.268L580.509 269.177L580.511 180.843L549.601 163.013L549.602 129.787L522.309 114.044C523.539 113.064 523.402 111.69 521.871 110.807C520.174 109.828 517.422 109.828 515.724 110.807C514.027 111.787 514.027 113.374 515.724 114.353C517.255 115.236 519.637 115.315 521.336 114.605L548.628 130.348L548.628 163.574L579.537 181.404L579.536 269.74L643.838 306.83L630.762 314.372L543.978 264.315L543.98 188.947L543.736 188.806L466.918 144.499C468.149 143.519 468.012 142.145 466.481 141.262C464.784 140.283 462.031 140.283 460.334 141.262C458.637 142.241 458.636 143.828 460.334 144.807C461.865 145.69 464.246 145.769 465.945 145.06L543.006 189.508L543.005 264.877L543.248 265.018L629.787 314.934L608.596 327.158L464.206 243.875V206.372L463.962 206.231L343.081 136.507C344.312 135.527 344.175 134.153 342.644 133.271C340.947 132.291 338.194 132.291 336.497 133.271C334.799 134.25 334.799 135.837 336.497 136.816C338.028 137.699 340.409 137.778 342.108 137.069L463.232 206.932V244.436L463.477 244.576L544.446 291.28L480.219 291.281L405.866 248.395C407.096 247.415 406.959 246.042 405.429 245.158C403.731 244.179 400.979 244.179 399.282 245.159C397.584 246.138 397.584 247.725 399.282 248.704C400.812 249.587 403.194 249.666 404.893 248.956L479.958 292.254L546.132 292.252L607.621 327.72L582.99 341.927L530.136 311.441H445.269L348.743 255.765L295.195 255.767L273.363 243.174C274.593 242.194 274.456 240.82 272.926 239.937C271.228 238.958 268.476 238.958 266.779 239.937C265.081 240.917 265.081 242.504 266.778 243.483C268.309 244.366 270.69 244.445 272.39 243.736L294.933 256.739L348.482 256.737L421.42 298.808H358.42L328.08 281.308C329.31 280.328 329.173 278.955 327.643 278.072C325.945 277.093 323.193 277.093 321.496 278.072C319.798 279.051 319.798 280.638 321.496 281.618C323.026 282.5 325.407 282.579 327.106 281.87L358.159 299.78H423.106L445.008 312.413H529.875L544.664 320.944H508.585L508.472 321.009L490.375 331.447L414.972 331.449L393.701 319.18H351.048C350.887 318.709 350.492 318.259 349.859 317.894C348.161 316.915 345.409 316.915 343.712 317.894C342.014 318.873 342.014 320.461 343.712 321.44C345.409 322.419 348.161 322.419 349.859 321.44C350.492 321.075 350.888 320.624 351.048 320.153H393.44L414.711 332.422L488.689 332.42L468.314 344.173C466.615 343.463 464.233 343.542 462.702 344.425C461.005 345.404 461.005 346.991 462.702 347.97C464.4 348.95 467.152 348.95 468.849 347.97C470.379 347.087 470.517 345.715 469.288 344.735L508.846 321.917H546.35L582.015 342.489L568.837 350.09L569.567 350.512L577.316 354.982L552.665 354.983L520.438 336.394C521.668 335.414 521.531 334.041 520 333.158C518.303 332.179 515.551 332.179 513.853 333.158C512.156 334.137 512.156 335.725 513.853 336.704C515.383 337.586 517.764 337.666 519.463 336.957L552.404 355.956L579.002 355.954L597.04 366.359L585.947 372.757H566.273L566.16 372.821L548.975 382.733H536.067L506.916 365.919C508.223 364.936 508.115 363.528 506.555 362.628C504.858 361.649 502.106 361.649 500.408 362.628C498.711 363.607 498.711 365.194 500.408 366.173C501.909 367.039 504.232 367.136 505.924 366.471L535.806 383.706H549.236L549.349 383.641L566.534 373.73H584.261L548.802 394.182H529.657L489.745 371.163H369.388L294.735 328.104C296.027 327.121 295.914 325.719 294.36 324.823C292.662 323.844 289.91 323.844 288.213 324.823C286.515 325.802 286.515 327.389 288.213 328.368C289.719 329.238 292.053 329.331 293.747 328.657L369.127 372.135H489.483L529.395 395.155H549.064L549.176 395.09L598.015 366.921L610.827 374.31L555.642 406.142H516.72L484.607 387.62L402.193 387.621C402.033 387.15 401.637 386.7 401.003 386.335C399.306 385.356 396.554 385.356 394.856 386.335C393.159 387.314 393.159 388.901 394.856 389.88C396.554 390.859 399.306 390.859 401.003 389.88C401.636 389.515 402.032 389.065 402.193 388.594L484.346 388.592L514.771 406.142H398.638L398.526 406.207L287.854 470.043C286.154 469.334 283.773 469.413 282.242 470.296C280.545 471.275 280.545 472.862 282.242 473.841C283.94 474.821 286.692 474.821 288.389 473.841C289.92 472.959 290.057 471.586 288.828 470.606L398.899 407.115H555.903L556.016 407.05L611.801 374.873L626.358 383.269L549.404 427.657H413.902L413.79 427.721L295.134 496.162L156.88 496.164L76.2539 449.657C77.4822 448.677 77.3447 447.304 75.8147 446.422C74.1173 445.443 71.3652 445.443 69.6676 446.422C67.9702 447.401 67.9702 448.988 69.6676 449.968C71.1981 450.85 73.5791 450.929 75.2784 450.22L156.619 497.137L295.395 497.135L295.508 497.07L414.163 428.629H512.866L367.935 512.225L367.933 534.231L310.119 567.576C308.421 566.867 306.04 566.947 304.509 567.829C302.812 568.809 302.812 570.396 304.509 571.375C306.207 572.354 308.959 572.354 310.656 571.375C312.187 570.492 312.324 569.118 311.094 568.138L368.906 534.793L368.908 512.787L514.816 428.629H548.693L475.733 470.713V479.988L440.821 500.126C439.122 499.417 436.741 499.496 435.21 500.379C433.512 501.358 433.512 502.945 435.21 503.924C436.907 504.903 439.659 504.903 441.357 503.924C442.887 503.041 443.025 501.668 441.795 500.688L460.804 489.724V515.141L350.984 578.484C349.285 577.775 346.904 577.854 345.373 578.737C343.676 579.716 343.676 581.303 345.373 582.282C347.071 583.261 349.823 583.261 351.52 582.282C353.051 581.399 353.188 580.026 351.958 579.046L461.777 515.703V489.162L476.707 480.551V471.276L550.267 428.846L550.023 428.424L627.333 383.831L641.386 391.936L561.968 437.745L561.966 513.114L415.898 597.365H417.846L538.783 527.611L538.781 595.776L536.025 597.365H537.974L539.754 596.338L539.756 527.049L562.94 513.677L562.942 438.307L642.36 392.499L654.734 399.635L593.494 434.958L593.493 476.276L593.736 476.417L663.366 516.577L663.365 530.588L623.986 553.3C622.287 552.591 619.907 552.671 618.376 553.553C616.679 554.532 616.679 556.119 618.376 557.099C620.074 558.078 622.826 558.078 624.523 557.099C626.054 556.216 626.191 554.842 624.961 553.862L664.338 531.15L664.339 516.015L664.096 515.874L594.466 475.713L594.467 435.52L640.739 408.832L640.738 426.044L619.525 438.279C617.826 437.57 615.445 437.649 613.914 438.532C612.217 439.511 612.217 441.099 613.914 442.078C615.612 443.057 618.364 443.057 620.061 442.077C621.592 441.195 621.729 439.822 620.5 438.842L641.711 426.606L641.712 408.27L655.709 400.198L672.257 409.742L672.256 439.719L641.041 457.723V478.448L641.284 478.589L706.995 516.49C705.765 517.47 705.902 518.843 707.433 519.726C709.13 520.705 711.882 520.705 713.58 519.726C715.277 518.747 715.277 517.16 713.58 516.181C712.049 515.298 709.669 515.218 707.97 515.928L642.014 477.886V458.285L672.255 440.843L672.255 461.505L712.701 484.834C711.472 485.815 711.609 487.188 713.14 488.07C714.837 489.049 717.589 489.049 719.287 488.07C720.984 487.091 720.984 485.504 719.287 484.525C717.756 483.642 715.375 483.563 713.675 484.272L673.228 460.942L673.23 410.304L684.853 417.008L685.097 416.869L704.006 405.962L721.352 415.968L721.351 440.281L767.453 466.872L767.453 489.791C766.508 489.853 765.591 490.081 764.866 490.499C763.169 491.478 763.169 493.065 764.866 494.044C766.564 495.023 769.316 495.023 771.013 494.044C772.711 493.065 772.711 491.478 771.013 490.499C770.289 490.081 769.371 489.853 768.426 489.791L768.427 466.31L722.325 439.719L722.326 416.529L796.96 459.578L796.958 505.21L756.48 528.558H719.335L719.222 528.622L655.482 565.388C653.784 564.679 651.402 564.758 649.871 565.641C648.174 566.62 648.174 568.207 649.871 569.186C651.568 570.165 654.321 570.165 656.018 569.186C657.548 568.304 657.686 566.93 656.457 565.951L719.596 529.531H754.794L637.699 597.071C636 596.361 633.619 596.44 632.088 597.323C632.065 597.336 632.051 597.352 632.029 597.365H639.139L797.932 505.773L797.933 459.016L797.69 458.875L704.981 405.4L723.638 394.639L881.926 485.939L881.925 540.417L935.997 571.607C934.768 572.587 934.905 573.959 936.435 574.842C938.133 575.821 940.885 575.821 942.582 574.842C944.28 573.863 944.28 572.276 942.582 571.296C941.052 570.414 938.671 570.335 936.972 571.044L882.899 539.854L882.899 485.376L882.656 485.236L724.613 394.076L742.376 383.83L898.913 474.119H992.264L996.645 476.646V475.523L992.525 473.146H899.174L767.034 396.928H793.61L838.71 422.942L873.45 422.94L873.562 422.876L921.743 395.086C923.442 395.795 925.823 395.716 927.353 394.833C929.051 393.854 929.051 392.267 927.354 391.288C925.656 390.309 922.904 390.309 921.207 391.288C919.676 392.17 919.539 393.544 920.768 394.524L873.188 421.967L838.971 421.969L793.872 395.956H765.348L743.351 383.268L790.767 355.918L804.251 363.695L804.25 384.109L838.501 403.865C837.272 404.845 837.41 406.218 838.94 407.101C840.638 408.08 843.39 408.08 845.087 407.101C846.785 406.122 846.785 404.535 845.087 403.555C843.557 402.673 841.175 402.594 839.476 403.303L805.224 383.547L805.224 364.257L841.752 385.326H859.049L859.162 385.261L879.785 373.367C881.484 374.076 883.865 373.996 885.395 373.114C887.092 372.135 887.092 370.547 885.395 369.568C883.697 368.589 880.945 368.589 879.248 369.568C877.717 370.451 877.58 371.825 878.81 372.805L858.788 384.353H842.013L791.742 355.356L800.874 350.089L800.144 349.667L771.728 333.278L785.376 325.405H806.013L820.78 333.924C819.604 334.902 819.763 336.251 821.273 337.122C822.97 338.102 825.722 338.102 827.42 337.122C829.117 336.143 829.117 334.556 827.42 333.577C825.869 332.682 823.446 332.615 821.743 333.355L806.274 324.433H787.062L821.863 304.36L903.75 351.591H962.671L962.784 351.527L995.959 332.392C996.17 332.48 996.416 332.519 996.645 332.583V328.108C996.205 328.228 995.787 328.384 995.423 328.593C993.893 329.476 993.755 330.849 994.984 331.829L962.41 350.619H904.011L840.858 314.192L867.888 314.191L894.31 329.432C893.081 330.413 893.218 331.786 894.748 332.669C896.446 333.648 899.198 333.648 900.895 332.669C902.593 331.69 902.593 330.102 900.895 329.123C899.365 328.24 896.984 328.161 895.285 328.87L868.149 313.218L839.173 313.22L822.838 303.798L864.41 279.819L996.645 279.818V278.845L866.096 278.847L882.586 269.335L980.939 269.333L981.052 269.269L996.645 260.274V259.151L980.678 268.361L882.325 268.362L882.213 268.427L770.754 332.715L758.381 325.579L875.562 257.989L961.261 257.988L961.373 257.924L996.645 237.579V236.455L960.999 257.015L875.301 257.017L875.188 257.081L757.406 325.017L743.352 316.911L971.889 185.091L971.891 137.277L996.645 122.999V121.877ZM798.927 350.089L684.853 415.886L570.784 350.09L684.857 284.294L798.927 350.089Z" fill="#42E8E0"/>
<path d="M568.776 464.802C564.464 464.802 560.347 463.934 557.275 462.161L406.753 375.295C403.734 373.553 402.072 371.129 402.072 368.468C402.072 365.277 404.462 362.067 408.628 359.663L695.703 193.993C703.508 189.489 715.367 189.002 722.14 192.911L872.662 279.777C875.681 281.519 877.344 283.942 877.343 286.603C877.343 289.795 874.954 293.004 870.788 295.408L583.712 461.079C579.447 463.54 573.971 464.802 568.776 464.802ZM557.599 461.599C564.194 465.404 575.762 464.922 583.388 460.517L870.464 294.846C874.424 292.562 876.695 289.557 876.695 286.603C876.695 284.185 875.148 281.96 872.338 280.338L721.816 193.472C715.223 189.671 703.655 190.153 696.027 194.554L408.952 360.225C404.993 362.511 402.721 365.514 402.72 368.468C402.72 370.886 404.268 373.111 407.077 374.733L557.599 461.599Z" fill="#42E8E0"/>
<path d="M877.019 246.478L855.397 250.2L721.978 173.204C715.285 169.341 703.594 169.826 695.865 174.286L440.621 321.587L402.399 328.165L402.396 341.711L402.414 341.708C402.396 344.177 403.864 346.538 406.915 348.299L557.437 435.165C564.13 439.027 575.821 438.543 583.55 434.083L870.626 268.412C874.786 266.011 876.93 262.948 876.997 260.028L877.019 260.025V246.478Z" fill="url(#paint0_linear_407_7122)"/>
<path d="M557.437 421.528L406.915 334.662C400.222 330.799 401.061 324.052 408.79 319.592L695.866 153.921C703.594 149.461 715.285 148.976 721.978 152.839L872.501 239.705C879.194 243.568 878.354 250.315 870.626 254.775L583.55 420.446C575.822 424.906 564.13 425.39 557.437 421.528Z" fill="#352885"/>
<path d="M870.625 254.775L583.55 420.445C575.821 424.906 564.13 425.39 557.437 421.527L406.915 334.661C404.23 333.112 402.778 331.097 402.475 328.954C402.061 331.735 403.505 334.451 406.915 336.419L557.437 423.285C564.13 427.148 575.821 426.663 583.55 422.203L870.625 256.532C875.255 253.861 877.391 250.371 876.939 247.17C876.54 249.848 874.417 252.587 870.625 254.775Z" fill="white"/>
<path opacity="0.8" d="M568.705 417.399C564.505 417.399 560.493 416.553 557.5 414.826L412.343 331.033C409.372 329.319 407.736 326.925 407.736 324.294C407.736 321.149 410.076 317.995 414.157 315.639L695.907 153.085C703.501 148.703 715.046 148.232 721.644 152.039L866.801 235.832C869.771 237.547 871.406 239.94 871.406 242.571C871.407 245.715 869.067 248.87 864.986 251.226L583.236 413.78C579.087 416.174 573.76 417.399 568.705 417.399ZM557.968 414.016C564.306 417.675 575.431 417.204 582.768 412.969L864.518 250.415C868.302 248.231 870.472 245.371 870.472 242.571C870.471 240.288 869.002 238.183 866.333 236.643L721.176 152.849C714.838 149.19 703.711 149.661 696.375 153.896L414.624 316.45C410.842 318.634 408.672 321.492 408.672 324.294C408.672 326.577 410.142 328.682 412.811 330.222L557.968 414.016Z" fill="url(#paint1_linear_407_7122)"/>
<g opacity="0.1">
<path opacity="0.5" d="M557.733 414.421L412.576 330.628C406.099 326.89 406.911 320.361 414.39 316.045L696.14 153.491C703.618 149.175 714.932 148.707 721.408 152.444L866.566 236.238C873.042 239.976 872.23 246.504 864.751 250.82L583.001 413.374C575.523 417.69 564.21 418.159 557.733 414.421Z" fill="url(#paint2_radial_407_7122)"/>
<mask id="mask0_407_7122" style="mask-type:alpha" maskUnits="userSpaceOnUse" x="408" y="153" width="463" height="268">
<path opacity="0.51" d="M557.735 418.161L412.578 334.368C406.101 330.63 406.913 324.101 414.392 319.785L696.142 157.231C703.62 152.915 714.933 152.447 721.41 156.185L866.568 239.978C873.044 243.716 872.232 250.245 864.753 254.561L583.003 417.115C575.525 421.43 564.212 421.899 557.735 418.161Z" fill="#453C9E"/>
</mask>
<g mask="url(#mask0_407_7122)">
<path d="M557.735 418.161L412.578 334.368C406.101 330.63 406.913 324.101 414.392 319.785L696.142 157.231C703.62 152.915 714.933 152.447 721.41 156.185L866.568 239.978C873.044 243.716 872.232 250.245 864.753 254.561L583.003 417.115C575.525 421.43 564.212 421.899 557.735 418.161Z" fill="#453C9E"/>
<path d="M718.067 382.958C718.067 364.734 705.267 342.573 689.477 333.461C681.567 328.896 674.408 328.473 669.232 331.477V331.476L663.826 334.637L665.397 334.784C662.546 338.271 660.887 343.411 660.887 349.959C660.887 368.183 673.687 390.344 689.477 399.456C694.902 402.587 699.975 403.77 704.297 403.235L704.176 404.683L709.663 401.474C709.686 401.46 709.708 401.447 709.731 401.434L709.953 401.304L709.941 401.301C714.966 398.254 718.067 391.921 718.067 382.958Z" fill="#9FFFF8"/>
<path d="M704.228 404.654C715.392 398.21 715.392 377.317 704.226 357.988C693.061 338.658 674.958 328.212 663.794 334.656C652.629 341.099 652.63 361.992 663.795 381.322C674.961 400.651 693.063 411.097 704.228 404.654Z" fill="#42E8E0"/>
</g>
</g>
<path opacity="0.4" d="M835.564 250.146C833.349 251.425 829.756 251.425 827.541 250.146C825.325 248.867 825.325 246.794 827.541 245.516C829.756 244.237 833.348 244.237 835.564 245.516C837.78 246.794 837.78 248.867 835.564 250.146Z" fill="#24126A"/>
<path opacity="0.4" d="M804.938 227.841L820.645 236.906C822.564 238.013 822.323 239.947 820.107 241.226C817.892 242.504 814.54 242.643 812.621 241.536L796.915 232.472C794.996 231.364 795.236 229.43 797.452 228.152H797.452C799.668 226.873 803.019 226.734 804.938 227.841Z" fill="#24126A"/>
<path opacity="0.4" d="M715.34 173.474L731.047 182.538C732.966 183.646 732.725 185.58 730.51 186.859C728.294 188.137 724.942 188.276 723.024 187.169L707.317 178.105C705.398 176.997 705.639 175.063 707.854 173.784C710.07 172.506 713.421 172.367 715.34 173.474Z" fill="#24126A"/>
<path d="M835.564 244.518C833.349 245.797 829.756 245.797 827.541 244.518C825.325 243.239 825.325 241.166 827.541 239.888C829.756 238.609 833.348 238.609 835.564 239.888C837.78 241.166 837.78 243.239 835.564 244.518Z" fill="#42E8E0"/>
<path d="M804.938 222.213L820.645 231.277C822.564 232.385 822.323 234.319 820.107 235.597C817.892 236.876 814.54 237.015 812.621 235.908L796.915 226.843C794.996 225.736 795.236 223.802 797.452 222.523H797.452C799.668 221.244 803.019 221.106 804.938 222.213Z" fill="#42E8E0"/>
<path d="M715.34 167.846L731.047 176.91C732.966 178.018 732.725 179.952 730.51 181.231C728.294 182.509 724.942 182.648 723.024 181.541L707.317 172.477C705.398 171.369 705.639 169.435 707.854 168.156C710.07 166.878 713.421 166.739 715.34 167.846Z" fill="#42E8E0"/>
<g opacity="0.3">
<path opacity="0.3" d="M913.514 440.159L890.34 453.705L881.537 456.882V466.785C884.024 466.785 886.512 466.239 888.405 465.146L920.746 446.482C922.608 445.408 923.555 444.001 923.585 442.589C923.586 442.526 923.583 442.463 923.581 442.4L923.586 442.402V435.078L921.733 434.048H921.54C920.908 437.45 916.884 439.69 913.514 440.159Z" fill="#0F054C"/>
</g>
<path d="M881.538 434.115C879.33 434.115 877.123 433.629 875.443 432.661L843.101 413.997C841.42 413.027 840.496 411.72 840.496 410.314C840.497 408.909 841.421 407.602 843.101 406.633L875.44 387.968C878.802 386.032 884.271 386.029 887.632 387.968L919.974 406.633C921.654 407.602 922.578 408.911 922.578 410.315C922.578 411.72 921.654 413.028 919.974 413.997L887.633 432.661C885.953 433.629 883.745 434.115 881.538 434.115ZM881.537 387.073C879.431 387.073 877.327 387.534 875.724 388.46L843.384 407.125C841.888 407.988 841.063 409.12 841.063 410.314C841.063 411.507 841.887 412.642 843.384 413.506L875.725 432.169C878.931 434.02 884.144 434.02 887.351 432.169L919.691 413.506C921.187 412.642 922.011 411.509 922.011 410.315C922.011 409.121 921.187 407.988 919.691 407.125L887.35 388.46C885.747 387.534 883.641 387.073 881.537 387.073Z" fill="#42E8E0"/>
<path opacity="0.4" d="M923.586 403.151V392.081L921.559 390.954C920.987 394.411 916.916 396.689 913.514 397.162L890.34 410.708L880.226 414.358L847.944 397.707L848.69 397.276C845.931 395.988 844.445 393.041 842.953 390.353L840.78 391.648L839.488 392.011V403.268H839.488C839.489 404.703 840.435 406.138 842.329 407.231L874.67 425.895C878.457 428.081 884.618 428.081 888.405 425.895L920.746 407.232C922.608 406.157 923.555 404.75 923.585 403.338C923.586 403.275 923.583 403.212 923.581 403.149L923.586 403.151Z" fill="#42E8E0"/>
<path d="M923.586 393.311V385.987L921.559 384.86C920.987 388.317 916.916 390.595 913.514 391.068L890.34 404.614L880.226 408.264L847.944 391.612L848.69 391.182C845.931 389.894 844.445 386.947 842.953 384.258L840.78 385.554L839.488 385.917V393.428H839.488C839.489 394.864 840.435 396.299 842.329 397.391L874.67 416.056C878.457 418.241 884.618 418.241 888.405 416.056L920.746 397.392C922.608 396.317 923.555 394.911 923.585 393.499C923.586 393.436 923.583 393.373 923.581 393.31L923.586 393.311Z" fill="url(#paint3_linear_407_7122)"/>
<path opacity="0.3" d="M913.514 391.068L890.34 404.614L881.537 407.791V417.694C884.024 417.694 886.512 417.148 888.405 416.055L920.746 397.392C922.609 396.317 923.555 394.91 923.585 393.498C923.586 393.435 923.583 393.372 923.581 393.309L923.586 393.311V385.987L921.733 384.957H921.54C920.908 388.359 916.884 390.599 913.514 391.068Z" fill="#0F054C"/>
<path d="M874.67 408.614L842.329 389.95C838.542 387.764 838.541 384.209 842.328 382.023L874.669 363.36C878.455 361.174 884.617 361.174 888.404 363.36L920.746 382.024C924.532 384.209 924.532 387.765 920.746 389.95L888.405 408.614C884.618 410.799 878.457 410.799 874.67 408.614Z" fill="url(#paint4_linear_407_7122)"/>
<path d="M920.745 389.951L888.405 408.614C884.618 410.8 878.457 410.799 874.67 408.614L842.328 389.95C840.636 388.973 839.702 387.723 839.522 386.443C839.3 388.026 840.234 389.654 842.328 390.862L874.67 409.527C878.457 411.712 884.618 411.712 888.405 409.527L920.745 390.863C922.84 389.655 923.773 388.027 923.551 386.444C923.371 387.723 922.438 388.974 920.745 389.951Z" fill="white"/>
<g opacity="0.3">
<path opacity="0.3" d="M769.521 483.716L746.347 497.262L737.545 500.439V510.342C740.032 510.343 742.519 509.796 744.413 508.703L776.754 490.04C778.616 488.965 779.562 487.558 779.593 486.146C779.594 486.083 779.591 486.02 779.589 485.957L779.594 485.959L779.593 478.635L777.741 477.605H777.547C776.916 481.007 772.892 483.247 769.521 483.716Z" fill="#0F054C"/>
</g>
<path d="M737.544 474.11C735.337 474.11 733.13 473.624 731.45 472.656L699.109 453.991C697.429 453.022 696.504 451.713 696.504 450.309C696.504 448.904 697.428 447.595 699.108 446.627L731.449 427.963C734.81 426.026 740.278 426.026 743.639 427.963L775.982 446.627C777.662 447.597 778.586 448.904 778.586 450.31C778.586 451.715 777.661 453.022 775.982 453.991L743.641 472.654C741.961 473.624 739.752 474.11 737.544 474.11ZM731.733 472.164C734.938 474.014 740.153 474.012 743.358 472.163L775.699 453.499C777.195 452.636 778.019 451.504 778.019 450.31C778.019 449.117 777.195 447.982 775.698 447.118L743.357 428.455C740.151 426.604 734.938 426.604 731.731 428.455L699.391 447.118C697.895 447.982 697.071 449.115 697.071 450.309C697.071 451.502 697.895 452.636 699.392 453.499L731.733 472.164Z" fill="#42E8E0"/>
<path opacity="0.4" d="M779.593 443.145V432.075L777.567 430.949C776.994 434.405 772.924 436.683 769.521 437.156L746.347 450.702L736.234 454.353L703.952 437.701L704.698 437.27C701.939 435.982 700.453 433.035 698.961 430.347L696.787 431.642L695.496 432.005V443.262H695.496C695.496 444.697 696.443 446.133 698.336 447.225L730.678 465.889C734.465 468.075 740.626 468.075 744.413 465.889L776.754 447.226C778.616 446.151 779.563 444.744 779.593 443.333C779.594 443.269 779.591 443.207 779.589 443.143L779.593 443.145Z" fill="#42E8E0"/>
<path d="M779.593 433.305V425.981L777.567 424.854C776.994 428.311 772.924 430.589 769.521 431.062L746.347 444.608L736.234 448.258L703.952 431.606L704.698 431.176C701.939 429.888 700.453 426.941 698.961 424.252L696.787 425.548L695.496 425.911V433.422H695.496C695.496 434.857 696.443 436.293 698.336 437.385L730.678 456.05C734.465 458.235 740.626 458.235 744.413 456.05L776.754 437.386C778.616 436.311 779.563 434.905 779.593 433.493C779.594 433.43 779.591 433.367 779.589 433.304L779.593 433.305Z" fill="url(#paint5_linear_407_7122)"/>
<path opacity="0.3" d="M769.521 431.062L746.347 444.608L737.545 447.785V457.689C740.032 457.689 742.519 457.142 744.413 456.05L776.754 437.386C778.616 436.311 779.563 434.904 779.593 433.493C779.594 433.43 779.591 433.367 779.589 433.304L779.594 433.305V425.981L777.741 424.951H777.547C776.916 428.353 772.892 430.593 769.521 431.062Z" fill="#0F054C"/>
<path d="M730.678 448.608L698.336 429.944C694.549 427.759 694.549 424.203 698.336 422.017L730.677 403.354C734.463 401.169 740.625 401.169 744.412 403.354L776.753 422.018C780.54 424.203 780.54 427.759 776.754 429.945L744.413 448.608C740.626 450.794 734.465 450.794 730.678 448.608Z" fill="url(#paint6_linear_407_7122)"/>
<path d="M737.545 445.219C735.55 445.219 733.556 444.78 732.038 443.905L706.771 429.323C705.248 428.444 704.41 427.258 704.41 425.981C704.41 424.704 705.248 423.518 706.771 422.639L732.038 408.056C735.074 406.306 740.015 406.307 743.051 408.058L768.318 422.639C769.841 423.518 770.68 424.706 770.679 425.982C770.679 427.258 769.841 428.445 768.318 429.323L743.051 443.905C741.534 444.78 739.54 445.219 737.545 445.219ZM732.321 443.414C735.202 445.077 739.889 445.077 742.769 443.414L768.035 428.831C769.374 428.059 770.112 427.047 770.113 425.982C770.113 424.916 769.375 423.903 768.035 423.13L742.768 408.55C739.888 406.888 735.202 406.886 732.32 408.548L707.053 423.13C705.715 423.903 704.976 424.916 704.976 425.981C704.976 427.045 705.715 428.059 707.054 428.831L732.321 443.414Z" fill="#5351AF"/>
<path d="M776.753 429.945L744.413 448.608C740.626 450.794 734.464 450.794 730.678 448.608L698.336 429.944C696.643 428.967 695.71 427.717 695.53 426.437C695.308 428.02 696.242 429.648 698.336 430.857L730.678 449.521C734.464 451.706 740.626 451.706 744.413 449.521L776.753 430.857C778.847 429.649 779.781 428.021 779.559 426.438C779.379 427.717 778.446 428.968 776.753 429.945Z" fill="white"/>
<g opacity="0.3">
<path opacity="0.3" d="M492.934 223.889L469.76 237.435L460.957 240.612V250.516C463.444 250.516 465.931 249.97 467.825 248.877L500.166 230.213C502.028 229.138 502.975 227.732 503.005 226.32C503.006 226.257 503.003 226.194 503.001 226.131L503.006 226.132V218.808L501.153 217.778H500.96C500.328 221.18 496.304 223.42 492.934 223.889Z" fill="#0F054C"/>
</g>
<path d="M460.958 219.073C458.75 219.073 456.543 218.588 454.862 217.618L422.52 198.955C420.84 197.986 419.916 196.677 419.916 195.273C419.916 193.868 420.84 192.559 422.52 191.591L454.861 172.927C458.222 170.99 463.691 170.99 467.052 172.927L499.393 191.591C501.073 192.559 501.998 193.868 501.998 195.273C501.998 196.677 501.074 197.986 499.394 198.955L467.053 217.618C465.373 218.588 463.165 219.073 460.958 219.073ZM460.956 172.032C458.851 172.032 456.747 172.493 455.144 173.419L422.803 192.082C421.307 192.946 420.483 194.079 420.483 195.273C420.483 196.466 421.307 197.6 422.803 198.463L455.146 217.126C458.349 218.978 463.565 218.978 466.77 217.126L499.111 198.463C500.608 197.6 501.431 196.466 501.431 195.273C501.431 194.079 500.607 192.946 499.11 192.082L466.769 173.419C465.166 172.493 463.062 172.032 460.956 172.032Z" fill="#42E8E0"/>
<path opacity="0.4" d="M503.005 188.109V177.039L500.979 175.912C500.407 179.369 496.336 181.647 492.933 182.12L469.759 195.666L459.646 199.316L427.364 182.665L428.11 182.234C425.351 180.946 423.865 177.999 422.373 175.311L420.199 176.606L418.908 176.969V188.226C418.908 189.661 419.855 191.096 421.748 192.189L454.09 210.853C457.877 213.039 464.038 213.039 467.825 210.853L500.166 192.19C502.028 191.115 502.974 189.708 503.005 188.296C503.006 188.233 503.003 188.17 503.001 188.107L503.005 188.109Z" fill="#42E8E0"/>
<path d="M503.005 178.269V170.945L500.979 169.818C500.407 173.275 496.336 175.552 492.933 176.026L469.759 189.572L459.646 193.222L427.364 176.57L428.11 176.14C425.351 174.851 423.865 171.905 422.373 169.216L420.199 170.512L418.908 170.875V178.386C418.908 179.821 419.855 181.257 421.748 182.349L454.09 201.013C457.877 203.199 464.038 203.199 467.825 201.013L500.166 182.35C502.028 181.275 502.974 179.868 503.005 178.457C503.006 178.393 503.003 178.33 503.001 178.267L503.005 178.269Z" fill="url(#paint7_linear_407_7122)"/>
<path opacity="0.3" d="M492.934 176.026L469.76 189.572L460.957 192.749V202.652C463.444 202.652 465.931 202.106 467.825 201.013L500.166 182.35C502.028 181.275 502.975 179.868 503.005 178.456C503.006 178.393 503.003 178.33 503.001 178.267L503.006 178.269V170.945L501.153 169.915H500.96C500.328 173.317 496.304 175.557 492.934 176.026Z" fill="#0F054C"/>
<path d="M428.11 176.14L458.758 158.454C459.97 157.754 461.943 157.754 463.156 158.454L493.268 175.831L492.934 176.026C496.337 175.553 500.407 173.275 500.979 169.819L467.185 151.031L457.352 148.434L449.345 153.137L422.373 169.217C423.865 171.905 425.352 174.852 428.11 176.14Z" fill="url(#paint8_linear_407_7122)"/>
<path opacity="0.3" d="M460.957 149.386L457.352 148.434L449.345 153.137L422.373 169.217C423.865 171.905 425.352 174.852 428.11 176.14L458.758 158.454C459.364 158.103 460.161 157.929 460.957 157.929V149.386Z" fill="#0F054C"/>
<path d="M454.09 193.572L421.748 174.908C417.962 172.722 417.961 169.167 421.748 166.981L454.089 148.318C457.875 146.132 464.037 146.132 467.824 148.318L500.165 166.982C503.952 169.167 503.952 172.723 500.166 174.908L467.825 193.572C464.038 195.757 457.877 195.757 454.09 193.572ZM463.155 151.012C461.943 150.312 459.97 150.312 458.757 151.012L426.417 169.676C425.204 170.375 425.204 171.514 426.417 172.214L458.758 190.878C459.971 191.578 461.944 191.578 463.156 190.878L495.497 172.214C496.71 171.514 496.71 170.376 495.497 169.676L463.155 151.012Z" fill="url(#paint9_linear_407_7122)"/>
<path d="M495.497 169.676L463.155 151.012C461.942 150.312 459.97 150.312 458.757 151.012L426.417 169.676C425.608 170.143 425.342 170.804 425.612 171.401C425.747 171.103 426.013 170.821 426.417 170.588L458.757 151.925C459.97 151.225 461.942 151.225 463.155 151.925L495.497 170.589C495.9 170.822 496.166 171.104 496.301 171.402C496.572 170.805 496.306 170.143 495.497 169.676Z" fill="white"/>
<path d="M500.165 174.909L467.825 193.572C464.038 195.758 457.876 195.757 454.09 193.572L421.748 174.908C420.056 173.931 419.122 172.681 418.942 171.401C418.72 172.984 419.654 174.612 421.748 175.821L454.09 194.485C457.876 196.67 464.038 196.67 467.825 194.485L500.165 175.821C502.259 174.613 503.193 172.985 502.971 171.402C502.791 172.681 501.858 173.932 500.165 174.909Z" fill="white"/>
<path d="M455.003 193.045L422.662 174.381C419.379 172.486 419.378 169.403 422.661 167.508L455.002 148.845C458.285 146.95 463.627 146.95 466.91 148.845L499.252 167.509C502.535 169.404 502.535 172.487 499.252 174.381L466.911 193.045C463.628 194.94 458.286 194.939 455.003 193.045ZM464.069 150.485C462.352 149.494 459.56 149.494 457.844 150.485L425.503 169.148C423.787 170.139 423.787 171.75 425.503 172.741L457.845 191.405C459.561 192.395 462.354 192.395 464.07 191.405L496.41 172.741C498.127 171.751 498.127 170.14 496.41 169.149L464.069 150.485Z" fill="url(#paint10_linear_407_7122)"/>
<path opacity="0.4" d="M463.156 151.012C461.943 150.312 459.97 150.312 458.758 151.012L426.417 169.676C425.205 170.375 425.205 171.514 426.417 172.214L458.759 190.878C459.971 191.578 461.944 191.578 463.157 190.878L495.497 172.214C496.71 171.515 496.71 170.376 495.497 169.676L463.156 151.012Z" fill="#42E8E0"/>
<path d="M718.067 262.732C718.067 244.508 705.267 222.347 689.477 213.235C681.567 208.67 674.408 208.247 669.232 211.251V211.25L663.826 214.411L665.397 214.558C662.546 218.045 660.887 223.185 660.887 229.733C660.887 247.957 673.687 270.118 689.477 279.23C694.902 282.361 699.975 283.544 704.297 283.009L704.176 284.457L709.663 281.247C709.686 281.234 709.708 281.221 709.731 281.208L709.953 281.078L709.941 281.075C714.966 278.028 718.067 271.695 718.067 262.732Z" fill="#9FFFF8"/>
<path d="M704.227 284.427C715.392 277.984 715.392 257.091 704.226 237.761C693.061 218.432 674.958 207.986 663.794 214.429C652.629 220.873 652.63 241.766 663.795 261.095C674.96 280.425 693.063 290.871 704.227 284.427Z" fill="#42E8E0"/>
<path d="M651.273 183.97C661.858 169.132 664.306 143.66 656.742 127.078C652.953 118.771 647.37 114.272 641.41 113.715L641.411 113.714L635.174 113.151L636.367 114.182C632.021 115.367 627.684 118.589 623.881 123.921C613.297 138.759 610.848 164.231 618.412 180.813C621.011 186.511 624.455 190.418 628.284 192.49L627.345 193.599L633.677 194.17C633.703 194.172 633.729 194.175 633.755 194.177L634.011 194.2L634.003 194.191C639.864 194.626 646.067 191.268 651.273 183.97Z" fill="#9FFFF8"/>
<path d="M654.511 155.604C656.649 133.386 647.978 114.377 635.145 113.146C622.312 111.915 610.176 128.928 608.038 151.146C605.901 173.363 614.571 192.372 627.404 193.603C640.238 194.834 652.374 177.821 654.511 155.604Z" fill="#42E8E0"/>
<g opacity="0.1">
<path d="M660.887 303.938C660.887 285.714 648.087 263.554 632.297 254.441C624.387 249.877 617.228 249.453 612.052 252.458V252.456L606.647 255.617L608.217 255.765C605.367 259.252 603.707 264.391 603.707 270.94C603.707 289.164 616.507 311.324 632.297 320.436C637.723 323.568 642.795 324.75 647.117 324.215L646.996 325.664L652.484 322.454C652.506 322.441 652.529 322.428 652.551 322.414L652.773 322.285L652.761 322.282C657.786 319.235 660.887 312.901 660.887 303.938Z" fill="#9FFFF8"/>
<path d="M647.047 325.634C658.212 319.191 658.212 298.297 647.046 278.968C635.881 259.638 617.779 249.192 606.614 255.636C595.449 262.079 595.45 282.972 606.615 302.302C617.781 321.631 635.883 332.078 647.047 325.634Z" fill="#42E8E0"/>
</g>
<path opacity="0.4" d="M628.679 333.677C608.956 333.677 589.233 329.344 574.217 320.68C559.616 312.253 551.574 301.032 551.574 289.084C551.574 277.138 559.615 265.918 574.216 257.493C604.245 240.161 653.107 240.162 683.137 257.493C697.739 265.92 705.781 277.14 705.78 289.087C705.78 301.035 697.74 312.255 683.139 320.68L682.998 320.434L683.139 320.68C668.125 329.344 648.402 333.677 628.679 333.677ZM628.676 245.054C609.056 245.054 589.435 249.363 574.499 257.985C560.081 266.305 552.141 277.349 552.141 289.084C552.141 300.821 560.081 311.868 574.5 320.188C604.376 337.433 652.982 337.433 682.856 320.188C697.274 311.868 705.213 300.824 705.214 289.087C705.214 277.352 697.273 266.305 682.855 257.985C667.917 249.363 648.297 245.054 628.676 245.054Z" fill="#42E8E0"/>
<path opacity="0.2" d="M628.681 345.628C603.649 345.628 578.624 340.132 559.568 329.134C541.054 318.449 530.857 304.227 530.857 289.086C530.857 273.945 541.053 259.722 559.567 249.038C597.674 227.045 659.681 227.047 697.789 249.04C716.303 259.725 726.499 273.947 726.499 289.088C726.499 304.229 716.304 318.452 697.79 329.136C678.739 340.13 653.707 345.628 628.681 345.628ZM628.676 233.104C603.749 233.104 578.826 238.578 559.849 249.53C541.519 260.108 531.423 274.156 531.424 289.086C531.424 304.016 541.519 318.064 559.851 328.642C597.804 350.547 659.555 350.549 697.508 328.644C715.838 318.066 725.933 304.018 725.933 289.088C725.933 274.157 715.838 260.109 697.506 249.531C678.53 238.58 653.601 233.104 628.676 233.104Z" fill="#42E8E0"/>
<path d="M628.678 324.263C613.135 324.263 597.591 320.849 585.759 314.02C574.24 307.373 567.896 298.518 567.896 289.086C567.896 279.655 574.239 270.801 585.757 264.153C609.424 250.498 647.932 250.498 671.597 264.153C683.115 270.801 689.459 279.655 689.459 289.088C689.459 298.518 683.116 307.373 671.598 314.02L671.456 313.774L671.598 314.02C659.765 320.849 644.222 324.263 628.678 324.263ZM628.676 254.469C613.236 254.469 597.795 257.86 586.04 264.645C574.706 271.185 568.463 279.866 568.463 289.086C568.463 298.306 574.706 306.986 586.041 313.528C609.552 327.099 647.805 327.096 671.315 313.528C682.65 306.988 688.892 298.308 688.892 289.088C688.892 279.868 682.649 271.187 671.314 264.645C659.559 257.86 644.118 254.469 628.676 254.469Z" fill="#42E8E0"/>
<path d="M660.887 303.938C660.887 285.714 648.087 263.554 632.297 254.441C624.387 249.877 617.228 249.453 612.052 252.458V252.456L606.647 255.617L608.217 255.765C605.367 259.252 603.707 264.391 603.707 270.94C603.707 289.164 616.507 311.324 632.297 320.436C637.723 323.568 642.795 324.75 647.117 324.215L646.996 325.664L652.484 322.454C652.506 322.441 652.529 322.428 652.551 322.414L652.773 322.285L652.761 322.282C657.786 319.235 660.887 312.901 660.887 303.938Z" fill="#9FFFF8"/>
<path d="M647.047 325.634C658.212 319.191 658.212 298.297 647.046 278.968C635.881 259.638 617.779 249.192 606.614 255.636C595.449 262.079 595.45 282.972 606.615 302.302C617.781 321.631 635.883 332.078 647.047 325.634Z" fill="#42E8E0"/>
<path opacity="0.4" d="M551.894 382.778L462.102 330.959C459.453 329.431 459.453 325.609 462.102 324.081L475.81 316.102C480.392 313.458 486.037 313.458 490.619 316.102L580.411 367.92C583.06 369.449 583.06 373.27 580.411 374.799L566.703 382.778C562.121 385.422 556.476 385.422 551.894 382.778Z" fill="#24126A"/>
<path d="M506.942 329.812L492.57 321.518L495.428 319.869L509.8 328.163L506.942 329.812Z" fill="#42E8E0"/>
<path d="M547.457 353.776L543.043 351.228L545.901 349.579L550.315 352.127L547.457 353.776Z" fill="#42E8E0"/>
<path d="M515.268 334.743L510.854 332.195L513.711 330.546L518.126 333.093L515.268 334.743Z" fill="#42E8E0"/>
<path d="M559.298 372.457C556.682 372.457 554.065 371.783 551.732 370.436L461.939 318.618C460.594 317.84 459.791 316.45 459.791 314.897C459.791 313.344 460.594 311.955 461.939 311.177L475.647 303.197C480.316 300.503 486.115 300.503 490.782 303.197L580.573 355.017C581.919 355.793 582.722 357.183 582.722 358.737C582.722 360.29 581.919 361.68 580.573 362.456L566.866 370.436C564.532 371.783 561.915 372.457 559.298 372.457ZM483.215 301.825C480.71 301.825 478.206 302.469 475.972 303.759L462.264 311.739C461.122 312.398 460.439 313.579 460.439 314.897C460.439 316.216 461.122 317.397 462.263 318.056L552.056 369.874C556.524 372.453 562.074 372.453 566.541 369.874L580.249 361.894C581.391 361.235 582.073 360.056 582.073 358.737C582.073 357.418 581.391 356.238 580.249 355.579L490.458 303.759C488.224 302.469 485.719 301.825 483.215 301.825Z" fill="#42E8E0"/>
</g>
<defs>
<linearGradient id="paint0_linear_407_7122" x1="402.396" y1="304.184" x2="877.019" y2="304.184" gradientUnits="userSpaceOnUse">
<stop stop-color="#BCBEFF"/>
<stop offset="0.151041" stop-color="#A3A7F5"/>
<stop offset="0.386601" stop-color="#8289E8"/>
<stop offset="0.612402" stop-color="#6A73DF"/>
<stop offset="0.822106" stop-color="#5C66D9"/>
<stop offset="1" stop-color="#5761D7"/>
</linearGradient>
<linearGradient id="paint1_linear_407_7122" x1="705.815" y1="371.302" x2="573.402" y2="195.507" gradientUnits="userSpaceOnUse">
<stop stop-color="#42E8E0"/>
<stop offset="0.105539" stop-color="#37B6BF"/>
<stop offset="0.219661" stop-color="#2C87A1"/>
<stop offset="0.337969" stop-color="#235F87"/>
<stop offset="0.458668" stop-color="#1C3F72"/>
<stop offset="0.582439" stop-color="#162561"/>
<stop offset="0.710541" stop-color="#121355"/>
<stop offset="0.845774" stop-color="#10084E"/>
<stop offset="1" stop-color="#0F054C"/>
</linearGradient>
<radialGradient id="paint2_radial_407_7122" cx="0" cy="0" r="1" gradientUnits="userSpaceOnUse" gradientTransform="translate(627.928 287.92) scale(371.489 371.327)">
<stop stop-color="#42E8E0"/>
<stop offset="0.105539" stop-color="#37B6BF"/>
<stop offset="0.219661" stop-color="#2C87A1"/>
<stop offset="0.337969" stop-color="#235F87"/>
<stop offset="0.458668" stop-color="#1C3F72"/>
<stop offset="0.582439" stop-color="#162561"/>
<stop offset="0.710541" stop-color="#121355"/>
<stop offset="0.845774" stop-color="#10084E"/>
<stop offset="1" stop-color="#0F054C"/>
</radialGradient>
<linearGradient id="paint3_linear_407_7122" x1="847.855" y1="371.432" x2="914.564" y2="409.963" gradientUnits="userSpaceOnUse">
<stop stop-color="#BCBEFF"/>
<stop offset="0.22713" stop-color="#AAADF8"/>
<stop offset="0.680178" stop-color="#7C83E5"/>
<stop offset="1" stop-color="#5761D7"/>
</linearGradient>
<linearGradient id="paint4_linear_407_7122" x1="839.488" y1="385.987" x2="923.586" y2="385.987" gradientUnits="userSpaceOnUse">
<stop stop-color="#E9E9FD"/>
<stop offset="0.360081" stop-color="#D3D2F9"/>
<stop offset="0.706239" stop-color="#C5C4F7"/>
<stop offset="1" stop-color="#C0BFF6"/>
</linearGradient>
<linearGradient id="paint5_linear_407_7122" x1="703.863" y1="411.426" x2="770.572" y2="449.957" gradientUnits="userSpaceOnUse">
<stop stop-color="#BCBEFF"/>
<stop offset="0.22713" stop-color="#AAADF8"/>
<stop offset="0.680178" stop-color="#7C83E5"/>
<stop offset="1" stop-color="#5761D7"/>
</linearGradient>
<linearGradient id="paint6_linear_407_7122" x1="695.496" y1="425.981" x2="779.593" y2="425.981" gradientUnits="userSpaceOnUse">
<stop stop-color="#E9E9FD"/>
<stop offset="0.360081" stop-color="#D3D2F9"/>
<stop offset="0.706239" stop-color="#C5C4F7"/>
<stop offset="1" stop-color="#C0BFF6"/>
</linearGradient>
<linearGradient id="paint7_linear_407_7122" x1="427.275" y1="156.39" x2="493.984" y2="194.921" gradientUnits="userSpaceOnUse">
<stop stop-color="#BCBEFF"/>
<stop offset="0.22713" stop-color="#AAADF8"/>
<stop offset="0.680178" stop-color="#7C83E5"/>
<stop offset="1" stop-color="#5761D7"/>
</linearGradient>
<linearGradient id="paint8_linear_407_7122" x1="431.28" y1="153.797" x2="490.771" y2="188.159" gradientUnits="userSpaceOnUse">
<stop offset="0.242063" stop-color="#5761D7"/>
<stop offset="0.392294" stop-color="#7A82E5"/>
<stop offset="0.546272" stop-color="#979CF0"/>
<stop offset="0.699995" stop-color="#ACAFF8"/>
<stop offset="0.851927" stop-color="#B8BAFD"/>
<stop offset="1" stop-color="#BCBEFF"/>
</linearGradient>
<linearGradient id="paint9_linear_407_7122" x1="418.908" y1="170.945" x2="503.005" y2="170.945" gradientUnits="userSpaceOnUse">
<stop stop-color="#E9E9FD"/>
<stop offset="0.360081" stop-color="#D3D2F9"/>
<stop offset="0.706239" stop-color="#C5C4F7"/>
<stop offset="1" stop-color="#C0BFF6"/>
</linearGradient>
<linearGradient id="paint10_linear_407_7122" x1="420.199" y1="170.945" x2="501.714" y2="170.945" gradientUnits="userSpaceOnUse">
<stop stop-color="#E9E9FD"/>
<stop offset="0.360081" stop-color="#D3D2F9"/>
<stop offset="0.706239" stop-color="#C5C4F7"/>
<stop offset="1" stop-color="#C0BFF6"/>
</linearGradient>
<clipPath id="clip0_407_7122">
<rect width="981" height="572" fill="white"/>
</clipPath>
</defs>
</svg>
