<svg width="277" height="209" viewBox="0 0 277 209" fill="none" xmlns="http://www.w3.org/2000/svg">
<path d="M150.18 202.177C149.495 202.177 148.774 202.012 148.213 201.689L57.8876 149.666C57.3186 149.339 56.9922 148.893 56.9922 148.445C56.9922 148.063 57.2245 147.72 57.6472 147.477L111.548 116.432C112.446 115.915 114.014 115.978 115.042 116.57L205.368 168.594C205.937 168.921 206.262 169.366 206.262 169.815C206.262 170.196 206.03 170.54 205.607 170.783L151.706 201.827C151.299 202.062 150.752 202.177 150.18 202.177ZM113.076 116.383C112.559 116.383 112.068 116.487 111.701 116.698L57.8001 147.742C57.4774 147.928 57.2995 148.178 57.2995 148.445C57.2995 148.781 57.57 149.129 58.0404 149.4L148.366 201.424C149.313 201.967 150.741 202.03 151.554 201.562L205.454 170.517C205.777 170.331 205.956 170.082 205.956 169.815C205.956 169.478 205.685 169.13 205.215 168.859L114.889 116.836C114.369 116.536 113.704 116.383 113.076 116.383Z" fill="#42E8E0"/>
<path d="M206.11 160.82L201.136 160.106L114.966 110.476C113.977 109.907 112.482 109.845 111.625 110.338L60.3051 139.896L57.1465 139.443V143.625L57.1562 143.627C57.1618 144.001 57.4291 144.394 57.9643 144.703L148.29 196.726C149.279 197.295 150.774 197.357 151.631 196.864L205.532 165.82C205.925 165.593 206.106 165.288 206.1 164.969L206.11 164.971V160.82Z" fill="url(#paint0_linear_602_1223)"/>
<path d="M57.9643 140.545L148.29 192.568C149.279 193.138 150.774 193.2 151.631 192.707L205.532 161.662C206.388 161.169 206.28 160.308 205.292 159.738L114.966 107.715C113.977 107.146 112.482 107.084 111.625 107.577L57.7245 138.621C56.8683 139.114 56.9757 139.976 57.9643 140.545Z" fill="url(#paint1_linear_602_1223)"/>
<path opacity="0.3" d="M65.7857 141.564L146.521 188.063C147.404 188.572 148.741 188.628 149.506 188.187L197.684 160.439C198.449 159.998 198.353 159.228 197.47 158.719L116.735 112.22C115.851 111.711 114.514 111.656 113.749 112.096L65.5713 139.844C64.806 140.285 64.902 141.055 65.7857 141.564Z" fill="#24126A"/>
<path d="M205.531 161.21L151.631 192.255C150.774 192.748 149.279 192.686 148.29 192.117L57.9642 140.093C57.5305 139.843 57.2771 139.537 57.1896 139.231C57.053 139.671 57.3133 140.171 57.9642 140.545L148.29 192.569C149.279 193.138 150.774 193.2 151.631 192.707L205.531 161.663C206.012 161.386 206.178 160.993 206.066 160.601C205.995 160.829 205.824 161.042 205.531 161.21Z" fill="white"/>
<path d="M114.804 91.496L126.222 23.9182L125.304 23.5325L126.684 22.7436L126.682 22.7516C126.949 22.5738 127.328 22.5847 127.745 22.8247L218.999 75.3826C219.748 75.8141 220.315 76.921 220.183 77.6949L208.675 145.81C208.614 146.165 208.438 146.4 208.194 146.503L208.195 146.504L206.845 147.282L206.613 146.025L206.69 146.048L115.989 93.8084C115.24 93.3768 114.673 92.2699 114.804 91.496Z" fill="url(#paint2_linear_602_1223)"/>
<path d="M218.489 77.2305L219.989 76.5684C220.158 76.9515 220.24 77.3548 220.182 77.6949L208.674 145.81C208.613 146.165 208.437 146.4 208.193 146.503L208.194 146.504L206.844 147.282L206.612 146.025L206.689 146.048L202.1 143.404L218.489 77.2305Z" fill="url(#paint3_linear_602_1223)"/>
<path d="M114.557 94.6278L205.811 147.185C206.516 147.591 207.119 147.357 207.243 146.629L218.752 78.5142C218.883 77.7404 218.316 76.6335 217.567 76.2019L126.313 23.6441C125.608 23.2384 125.005 23.4728 124.881 24.2004L113.373 92.3154C113.241 93.0893 113.808 94.1962 114.557 94.6278Z" fill="#24126A"/>
<g opacity="0.51">
<path d="M126.006 24.9111L217.688 77.6917L206.11 145.98L114.486 93.2336L126.006 24.9111Z" fill="#453C9E"/>
</g>
<path d="M57.1953 126.876L62.1754 129.47L112.112 100.709C112.947 100.228 114.406 100.288 115.371 100.844L201.497 150.448C202.321 149.989 206.079 148.186 206.079 148.186L204.256 151.141C204.256 151.141 204.25 151.136 204.249 151.136C204.173 151.346 204.011 151.543 203.739 151.7L151.146 181.991C150.311 182.472 148.851 182.412 147.887 181.856L59.7526 131.095C59.3564 130.867 59.1138 130.591 59.0132 130.311L59.0064 130.315L57.1953 126.876Z" fill="url(#paint4_linear_602_1223)"/>
<path d="M57.9643 127.693L148.29 179.716C149.279 180.285 150.774 180.347 151.631 179.854L205.532 148.81C206.388 148.317 206.28 147.455 205.292 146.886L114.966 94.8627C113.977 94.2932 112.482 94.2314 111.625 94.7245L57.7245 125.769C56.8683 126.262 56.9757 127.123 57.9643 127.693Z" fill="url(#paint5_linear_602_1223)"/>
<path d="M57.9643 127.693L148.29 179.716C149.279 180.285 150.774 180.347 151.631 179.854L205.532 148.81C206.388 148.317 206.28 147.455 205.292 146.886L114.966 94.8627C113.977 94.2932 112.482 94.2314 111.625 94.7245L57.7245 125.769C56.8683 126.262 56.9757 127.123 57.9643 127.693Z" fill="#24126A"/>
<path opacity="0.51" d="M57.9643 127.693L148.29 179.716C149.279 180.285 150.774 180.347 151.631 179.854L205.532 148.81C206.388 148.317 206.28 147.455 205.292 146.886L114.966 94.8627C113.977 94.2932 112.482 94.2314 111.625 94.7245L57.7245 125.769C56.8683 126.262 56.9757 127.123 57.9643 127.693Z" fill="#453C9E"/>
<g opacity="0.3">
<path opacity="0.5" d="M57.9643 125.778L148.29 177.801C149.279 178.37 150.774 178.432 151.631 177.939L205.532 146.895C206.388 146.402 206.28 145.54 205.292 144.971L114.966 92.9477C113.977 92.3782 112.482 92.3164 111.625 92.8095L57.7245 123.854C56.8683 124.347 56.9757 125.208 57.9643 125.778Z" fill="url(#paint6_radial_602_1223)"/>
</g>
<path opacity="0.8" d="M150.177 178.488C149.487 178.488 148.762 178.318 148.184 177.985L57.8584 125.962C57.271 125.623 56.9336 125.159 56.9336 124.689C56.9336 124.286 57.1769 123.923 57.618 123.67L111.519 92.6253C112.447 92.0896 114.009 92.1501 115.073 92.7635L205.399 144.787C205.986 145.125 206.323 145.589 206.323 146.059C206.323 146.462 206.08 146.824 205.638 147.079L151.738 178.123C151.313 178.368 150.757 178.488 150.177 178.488ZM58.0716 125.594L148.397 177.617C149.325 178.15 150.728 178.214 151.524 177.755L205.425 146.711C205.641 146.587 205.897 146.373 205.897 146.059C205.897 145.745 205.638 145.415 205.186 145.155L114.86 93.1316C113.931 92.5974 112.527 92.5343 111.732 92.9934L57.8311 124.038C57.6165 124.162 57.36 124.375 57.36 124.689C57.36 125.004 57.6195 125.334 58.0716 125.594Z" fill="url(#paint7_linear_602_1223)"/>
<path d="M57.9641 127.289L148.29 179.312C149.279 179.882 150.774 179.943 151.63 179.45L205.531 148.406C205.833 148.232 206.008 148.012 206.074 147.776C206.17 148.159 206 148.539 205.531 148.81L151.63 179.854C150.774 180.347 149.279 180.285 148.29 179.716L57.9641 127.692C57.3234 127.324 57.0594 126.833 57.1812 126.398C57.2603 126.714 57.517 127.031 57.9641 127.289Z" fill="white"/>
<path d="M202.207 81.0075C201.989 81.0075 201.759 80.943 201.539 80.8161C200.862 80.4256 200.442 79.5413 200.603 78.8453C200.681 78.5099 200.88 78.2569 201.164 78.1337C201.479 77.9966 201.866 78.0369 202.227 78.2455C202.904 78.636 203.324 79.5204 203.163 80.2163C203.085 80.5518 202.886 80.8047 202.602 80.928C202.479 80.9811 202.346 81.0075 202.207 81.0075ZM201.56 78.3603C201.463 78.3603 201.37 78.3783 201.286 78.4146C201.094 78.4981 200.958 78.6756 200.903 78.9143C200.769 79.4889 201.123 80.2229 201.693 80.5506C201.968 80.7095 202.254 80.7454 202.479 80.6471C202.672 80.5635 202.808 80.3861 202.863 80.1473C202.997 79.5728 202.643 78.8387 202.074 78.511C201.9 78.4112 201.723 78.3603 201.56 78.3603Z" fill="#42E8E0"/>
<path d="M205.86 83.11C205.642 83.11 205.411 83.0455 205.192 82.9186C204.514 82.5285 204.094 81.6442 204.255 80.9478C204.333 80.612 204.533 80.3594 204.817 80.2362C205.131 80.0994 205.519 80.1409 205.879 80.348C206.557 80.7385 206.976 81.6225 206.816 82.3191C206.738 82.655 206.538 82.9076 206.254 83.0308C206.132 83.084 205.998 83.11 205.86 83.11ZM205.212 80.4631C205.115 80.4631 205.023 80.4808 204.939 80.517C204.747 80.6006 204.61 80.7781 204.555 81.0168C204.421 81.5914 204.776 82.3258 205.345 82.6531C205.621 82.8119 205.908 82.8471 206.132 82.7496C206.324 82.6664 206.461 82.4889 206.516 82.2502C206.649 81.6753 206.294 80.9412 205.725 80.6135C205.552 80.5137 205.375 80.4631 205.212 80.4631Z" fill="#42E8E0"/>
<path d="M210.316 84.3876C210.168 85.0242 209.542 85.2487 208.918 84.8891C208.294 84.5295 207.907 83.722 208.055 83.0855C208.202 82.4489 208.828 82.2244 209.452 82.584C210.077 82.9436 210.463 83.7511 210.316 84.3876Z" fill="#42E8E0"/>
<path d="M140.308 44.1977L138.355 43.0729L138.507 42.1724L140.46 43.2971L140.308 44.1977Z" fill="#42E8E0"/>
<path d="M143.146 45.8325L141.193 44.7078L141.345 43.8071L143.298 44.9319L143.146 45.8325Z" fill="#42E8E0"/>
<path d="M137.499 42.5795L133.217 40.113L133.368 39.2124L137.651 41.679L137.499 42.5795Z" fill="#42E8E0"/>
<g opacity="0.5">
<path opacity="0.67" d="M135.207 157.885C153.094 157.885 167.595 149.533 167.595 139.231C167.595 128.928 153.094 120.577 135.207 120.577C117.319 120.577 102.818 128.928 102.818 139.231C102.818 149.533 117.319 157.885 135.207 157.885Z" fill="#0F054C"/>
<path opacity="0.67" d="M135.207 154.644C149.987 154.644 161.968 147.743 161.968 139.231C161.968 130.718 149.987 123.817 135.207 123.817C120.427 123.817 108.445 130.718 108.445 139.231C108.445 147.743 120.427 154.644 135.207 154.644Z" fill="#0F054C"/>
<path opacity="0.9" d="M135.207 151.422C146.898 151.422 156.375 145.964 156.375 139.231C156.375 132.497 146.898 127.039 135.207 127.039C123.516 127.039 114.039 132.497 114.039 139.231C114.039 145.964 123.516 151.422 135.207 151.422Z" fill="#080344"/>
</g>
<path opacity="0.4" d="M165.015 68.633C165.637 68.0504 165.668 67.0747 165.084 66.4539C164.5 65.8331 163.522 65.8022 162.9 66.3849C162.278 66.9676 162.247 67.9432 162.831 68.564C163.415 69.1848 164.393 69.2157 165.015 68.633Z" fill="#42E8E0"/>
<path d="M182.89 67.3015C183.512 66.7188 183.543 65.7431 182.959 65.1224C182.375 64.5015 181.397 64.4706 180.775 65.0533C180.153 65.636 180.122 66.6117 180.706 67.2325C181.29 67.8533 182.268 67.8842 182.89 67.3015Z" fill="#42E8E0"/>
<path opacity="0.4" d="M178.478 43.403C179.148 42.7762 179.181 41.7266 178.553 41.0586C177.924 40.3908 176.872 40.3575 176.202 40.9844C175.533 41.6113 175.5 42.6609 176.128 43.3288C176.756 43.9967 177.809 44.03 178.478 43.403Z" fill="#42E8E0"/>
<path opacity="0.4" d="M176.614 48.1192C177.013 47.7449 177.033 47.1181 176.658 46.7193C176.283 46.3205 175.655 46.3007 175.255 46.675C174.855 47.0493 174.835 47.676 175.21 48.0748C175.586 48.4736 176.214 48.4935 176.614 48.1192Z" fill="#42E8E0"/>
<path opacity="0.8" d="M174.559 45.6723C174.816 45.4314 174.829 45.0281 174.587 44.7715C174.346 44.5148 173.941 44.5021 173.684 44.7429C173.427 44.9838 173.414 45.3871 173.655 45.6437C173.897 45.9004 174.301 45.9132 174.559 45.6723Z" fill="#42E8E0"/>
<path opacity="0.8" d="M178.82 59.791C179.077 59.5501 179.09 59.1468 178.849 58.8901C178.607 58.6335 178.203 58.6207 177.946 58.8616C177.689 59.1025 177.676 59.5058 177.917 59.7625C178.159 60.0191 178.563 60.0319 178.82 59.791Z" fill="#42E8E0"/>
<path opacity="0.4" d="M169.809 41.556C169.887 41.4829 169.891 41.3605 169.818 41.2827C169.744 41.2049 169.622 41.201 169.544 41.274C169.466 41.3471 169.462 41.4695 169.535 41.5473C169.608 41.6252 169.731 41.6291 169.809 41.556Z" fill="#42E8E0"/>
<path opacity="0.8" d="M170.975 49.5589C171.053 49.4858 171.057 49.3635 170.984 49.2856C170.91 49.2078 170.788 49.2039 170.71 49.277C170.632 49.35 170.628 49.4724 170.701 49.5502C170.774 49.6281 170.897 49.632 170.975 49.5589Z" fill="#42E8E0"/>
<path opacity="0.8" d="M173.475 64.7958C173.553 64.7226 173.557 64.6003 173.484 64.5224C173.41 64.4446 173.288 64.4407 173.21 64.5138C173.132 64.5869 173.128 64.7092 173.201 64.7871C173.274 64.8649 173.397 64.8688 173.475 64.7958Z" fill="#42E8E0"/>
<path opacity="0.8" d="M171.705 62.3695C171.783 62.2964 171.787 62.174 171.714 62.0962C171.641 62.0183 171.518 62.0144 171.44 62.0875C171.362 62.1606 171.358 62.283 171.431 62.3608C171.505 62.4386 171.627 62.4425 171.705 62.3695Z" fill="#42E8E0"/>
<path opacity="0.4" d="M165.099 50.6454C166.049 49.7559 166.096 48.2666 165.204 47.319C164.313 46.3713 162.82 46.3241 161.87 47.2136C160.92 48.1031 160.872 49.5924 161.764 50.54C162.656 51.4878 164.149 51.5349 165.099 50.6454Z" fill="#42E8E0"/>
<path d="M152.396 55.2227C152.869 54.7803 152.892 54.0395 152.449 53.5682C152.005 53.0968 151.263 53.0734 150.79 53.5158C150.318 53.9582 150.294 54.6989 150.738 55.1703C151.181 55.6416 151.924 55.6651 152.396 55.2227Z" fill="#42E8E0"/>
<path opacity="0.4" d="M172.816 55.5129C173.464 55.5129 173.989 54.9889 173.989 54.3424C173.989 53.6959 173.464 53.1719 172.816 53.1719C172.168 53.1719 171.643 53.6959 171.643 54.3424C171.643 54.9889 172.168 55.5129 172.816 55.5129Z" fill="#42E8E0"/>
<path opacity="0.4" d="M165.097 35.8789C165.57 35.4365 165.593 34.6958 165.15 34.2244C164.706 33.7531 163.964 33.7296 163.491 34.1721C163.019 34.6144 162.995 35.3552 163.439 35.8265C163.882 36.2979 164.625 36.3214 165.097 35.8789Z" fill="#42E8E0"/>
<path opacity="0.4" d="M150.271 44.2905C150.744 43.8482 150.767 43.1074 150.324 42.6361C149.88 42.1647 149.138 42.1412 148.665 42.5837C148.193 43.0261 148.169 43.7668 148.613 44.2382C149.056 44.7095 149.799 44.733 150.271 44.2905Z" fill="#42E8E0"/>
<path opacity="0.4" d="M190.545 47.9385C191.017 47.4961 191.041 46.7553 190.597 46.284C190.154 45.8126 189.411 45.7892 188.939 46.2316C188.466 46.674 188.443 47.4148 188.886 47.8861C189.33 48.3575 190.072 48.3809 190.545 47.9385Z" fill="#42E8E0"/>
<path opacity="0.4" d="M182.064 27.4454C182.537 27.003 182.56 26.2622 182.117 25.7909C181.673 25.3195 180.931 25.296 180.458 25.7384C179.986 26.1809 179.962 26.9216 180.406 27.393C180.849 27.8643 181.592 27.8877 182.064 27.4454Z" fill="#42E8E0"/>
<path d="M197.517 29.6387C197.745 29.4254 197.756 29.0684 197.542 28.8412C197.329 28.6139 196.971 28.6027 196.743 28.8159C196.515 29.0292 196.504 29.3862 196.718 29.6135C196.931 29.8406 197.289 29.852 197.517 29.6387Z" fill="#42E8E0"/>
<path opacity="0.4" d="M168.519 64.6865C168.796 64.4272 168.81 63.9931 168.55 63.717C168.29 63.4408 167.855 63.427 167.578 63.6863C167.301 63.9455 167.288 64.3796 167.548 64.6557C167.807 64.9319 168.243 64.9457 168.519 64.6865Z" fill="#42E8E0"/>
<path d="M167.187 45.2514C167.464 44.9922 167.478 44.5581 167.218 44.282C166.958 44.0057 166.523 43.992 166.246 44.2512C165.969 44.5105 165.956 44.9445 166.216 45.2207C166.475 45.4969 166.91 45.5107 167.187 45.2514Z" fill="#42E8E0"/>
<path d="M158.378 44.9885C158.565 44.8134 158.574 44.5203 158.399 44.3337C158.223 44.1472 157.929 44.1379 157.742 44.313C157.555 44.4881 157.546 44.7812 157.721 44.9677C157.897 45.1543 158.191 45.1636 158.378 44.9885Z" fill="#42E8E0"/>
<path d="M157.059 44.9536C157.33 44.6995 157.344 44.274 157.089 44.0032C156.834 43.7325 156.408 43.719 156.137 43.9731C155.865 44.2272 155.852 44.6528 156.106 44.9235C156.361 45.1942 156.788 45.2077 157.059 44.9536Z" fill="#42E8E0"/>
<path d="M156.824 46.5556C156.974 46.415 156.981 46.1794 156.84 46.0296C156.699 45.8797 156.463 45.8722 156.313 46.0129C156.163 46.1536 156.155 46.3891 156.296 46.5389C156.437 46.6888 156.673 46.6963 156.824 46.5556Z" fill="#42E8E0"/>
<path opacity="0.4" d="M163.295 57.6189C163.49 57.4361 163.5 57.13 163.317 56.9353C163.134 56.7406 162.827 56.7309 162.632 56.9137C162.436 57.0965 162.427 57.4025 162.61 57.5972C162.793 57.792 163.1 57.8016 163.295 57.6189Z" fill="#42E8E0"/>
<path opacity="0.4" d="M177.418 59.593C177.613 59.4102 177.623 59.1042 177.44 58.9095C177.257 58.7147 176.95 58.7051 176.755 58.8878C176.559 59.0706 176.55 59.3767 176.733 59.5714C176.916 59.7661 177.223 59.7758 177.418 59.593Z" fill="#42E8E0"/>
<path d="M166.303 58.3691C166.784 57.9192 166.808 57.1657 166.357 56.6863C165.905 56.2069 165.15 56.1831 164.67 56.633C164.189 57.083 164.165 57.8364 164.616 58.3158C165.067 58.7952 165.823 58.8191 166.303 58.3691Z" fill="#42E8E0"/>
<path d="M100.636 108.969C99.5432 112.589 93.6755 119.624 90.0471 118.535C86.4186 117.445 86.4034 108.642 87.496 105.023C88.5884 101.403 92.4154 99.352 96.0438 100.442C99.6723 101.532 101.728 105.349 100.636 108.969Z" fill="url(#paint8_radial_602_1223)"/>
<path d="M100.636 108.969C99.5432 112.589 93.6755 119.624 90.0471 118.535C86.4186 117.445 86.4034 108.642 87.496 105.023C88.5884 101.403 92.4154 99.352 96.0438 100.442C99.6723 101.532 101.728 105.349 100.636 108.969Z" fill="url(#paint9_linear_602_1223)"/>
<path d="M93.6516 100.484C95.5578 100.314 97.9952 101.443 99.0957 103.005C100.196 104.567 99.5432 105.971 97.637 106.14C95.7308 106.31 93.2934 105.182 92.1928 103.62C91.0923 102.058 91.7454 100.654 93.6516 100.484Z" fill="#251C72"/>
<path opacity="0.5" d="M93.6516 100.484C95.5578 100.314 97.9952 101.443 99.0957 103.005C100.196 104.567 99.5432 105.971 97.637 106.14C95.7308 106.31 93.2934 105.182 92.1928 103.62C91.0923 102.058 91.7454 100.654 93.6516 100.484Z" fill="url(#paint10_radial_602_1223)"/>
<path d="M91.6625 102.256C92.0004 101.973 92.4881 101.782 93.1137 101.726C95.0198 101.557 97.4573 102.685 98.5578 104.247C98.896 104.727 99.0671 105.192 99.0887 105.611C99.7803 105.03 99.8355 104.054 99.0963 103.005C97.9957 101.443 95.5582 100.314 93.6522 100.484C92.3317 100.602 91.6138 101.312 91.6625 102.256Z" fill="#42E8E0"/>
<path opacity="0.6" d="M100.045 98.6339C99.7467 98.627 99.4993 98.8625 99.4923 99.1599C99.4854 99.4574 99.7215 99.7041 100.02 99.711C100.318 99.718 100.565 99.4825 100.572 99.185C100.579 98.8876 100.343 98.6408 100.045 98.6339Z" fill="#42E8E0"/>
<path d="M94.946 94.8749C94.1921 94.8574 93.5667 95.4529 93.5492 96.2049C93.5317 96.9569 94.1286 97.5807 94.8824 97.5982C95.6363 97.6157 96.2616 97.0202 96.2791 96.2683C96.2967 95.5162 95.6997 94.8924 94.946 94.8749Z" fill="#42E8E0"/>
<path opacity="0.6" d="M102.759 91.8093C102.337 91.7995 101.987 92.1328 101.977 92.5539C101.967 92.9748 102.301 93.3241 102.723 93.3339C103.145 93.3437 103.495 93.0104 103.505 92.5893C103.515 92.1683 103.181 91.8191 102.759 91.8093Z" fill="#42E8E0"/>
<path d="M99.7032 92.4137C99.4144 92.407 99.1748 92.6352 99.1681 92.9234C99.1613 93.2115 99.3901 93.4505 99.6789 93.4572C99.9677 93.4639 100.207 93.2357 100.214 92.9476C100.221 92.6595 99.9921 92.4205 99.7032 92.4137Z" fill="#42E8E0"/>
<path d="M100.282 91.2428C100.085 91.2382 99.9207 91.3943 99.9161 91.5915C99.9115 91.7887 100.068 91.9522 100.266 91.9568C100.463 91.9614 100.627 91.8053 100.632 91.6081C100.636 91.4109 100.48 91.2474 100.282 91.2428Z" fill="#42E8E0"/>
<path opacity="0.6" d="M95.8786 101.284C95.4604 101.275 95.1134 101.605 95.1037 102.022C95.094 102.44 95.4252 102.786 95.8434 102.795C96.2617 102.805 96.6087 102.475 96.6184 102.057C96.6282 101.64 96.297 101.294 95.8786 101.284Z" fill="#42E8E0"/>
<path d="M98.1728 101.034C97.5474 101.019 97.0285 101.513 97.014 102.137C96.9994 102.761 97.4947 103.279 98.1201 103.293C98.7456 103.308 99.2645 102.814 99.279 102.19C99.2935 101.566 98.7983 101.048 98.1728 101.034Z" fill="#42E8E0"/>
<path d="M110.355 96.5002C116.062 96.5002 120.689 91.8848 120.689 86.1915C120.689 80.4982 116.062 75.8828 110.355 75.8828C104.648 75.8828 100.021 80.4982 100.021 86.1915C100.021 91.8848 104.648 96.5002 110.355 96.5002Z" fill="url(#paint11_radial_602_1223)"/>
<path d="M110.355 96.5003C116.062 96.5003 120.689 91.8849 120.689 86.1916C120.689 80.4982 116.062 75.8828 110.355 75.8828C104.648 75.8828 100.021 80.4982 100.021 86.1916C100.021 91.8849 104.648 96.5003 110.355 96.5003Z" fill="url(#paint12_linear_602_1223)"/>
<path d="M161.889 104.911C161.889 124.922 149.944 141.144 135.208 141.144C120.473 141.144 108.527 124.922 108.527 104.911C108.527 84.8998 120.473 78.9033 135.208 78.9033C149.944 78.9033 161.889 84.8998 161.889 104.911Z" fill="url(#paint13_radial_602_1223)"/>
<path d="M161.889 104.911C161.889 124.922 149.944 141.144 135.208 141.144C120.473 141.144 108.527 124.922 108.527 104.911C108.527 84.8998 120.473 78.9033 135.208 78.9033C149.944 78.9033 161.889 84.8998 161.889 104.911Z" fill="url(#paint14_linear_602_1223)"/>
<path d="M135.207 100.15C145.264 100.15 153.417 95.4541 153.417 89.662C153.417 83.8698 145.264 79.1743 135.207 79.1743C125.151 79.1743 116.998 83.8698 116.998 89.662C116.998 95.4541 125.151 100.15 135.207 100.15Z" fill="#251C72"/>
<path opacity="0.5" d="M135.207 100.15C145.264 100.15 153.417 95.4541 153.417 89.662C153.417 83.8698 145.264 79.1743 135.207 79.1743C125.151 79.1743 116.998 83.8698 116.998 89.662C116.998 95.4541 125.151 100.15 135.207 100.15Z" fill="url(#paint15_radial_602_1223)"/>
<path d="M122.332 85.0397C129.443 80.944 140.972 80.9442 148.084 85.0399C151.021 86.7316 152.741 88.8577 153.252 91.0591C153.978 87.9308 152.258 84.6502 148.084 82.2462C140.972 78.1504 129.443 78.1504 122.332 82.2459C118.158 84.6498 116.438 87.9302 117.163 91.0585C117.674 88.8573 119.395 86.7312 122.332 85.0397Z" fill="#42E8E0"/>
<path d="M125.015 58.4644C128.014 53.2822 128.014 47.6808 125.015 45.9532C122.016 44.2257 117.153 47.0263 114.154 52.2086C111.154 57.3908 111.154 62.9922 114.153 64.7197C117.152 66.4472 122.015 63.6466 125.015 58.4644Z" fill="#BCBEFF"/>
<path d="M136.267 91.7756C151.295 91.7756 163.478 79.622 163.478 64.6298C163.478 49.6375 151.295 37.4839 136.267 37.4839C121.238 37.4839 109.055 49.6375 109.055 64.6298C109.055 79.622 121.238 91.7756 136.267 91.7756Z" fill="url(#paint16_radial_602_1223)"/>
<path d="M136.267 91.7756C151.295 91.7756 163.478 79.622 163.478 64.6298C163.478 49.6375 151.295 37.4839 136.267 37.4839C121.238 37.4839 109.055 49.6375 109.055 64.6298C109.055 79.622 121.238 91.7756 136.267 91.7756Z" fill="url(#paint17_linear_602_1223)"/>
<path d="M127.777 77.4871C127.082 82.8254 123.043 84.5023 118.756 81.2325C114.47 77.9626 111.558 70.9844 112.253 65.646C112.948 60.3077 116.987 58.6309 121.274 61.9007C125.561 65.1705 128.472 72.1488 127.777 77.4871Z" fill="#251C72"/>
<path opacity="0.5" d="M127.777 77.4871C127.082 82.8254 123.043 84.5023 118.756 81.2325C114.47 77.9626 111.558 70.9844 112.253 65.646C112.948 60.3077 116.987 58.6309 121.274 61.9007C125.561 65.1705 128.472 72.1488 127.777 77.4871Z" fill="url(#paint18_radial_602_1223)"/>
<path d="M124.236 72.865C123.983 74.8051 122.515 75.4145 120.957 74.2261C119.399 73.0378 118.341 70.5017 118.594 68.5616C118.847 66.6215 120.314 66.0121 121.872 67.2005C123.43 68.3888 124.489 70.9249 124.236 72.865Z" fill="#42E8E0"/>
<path d="M120.815 80.4545C116.528 77.1847 113.616 70.2064 114.311 64.8681C114.595 62.6918 115.434 61.1245 116.619 60.2524C114.378 60.4626 112.681 62.3589 112.253 65.6463C111.558 70.9846 114.47 77.9628 118.756 81.2327C121.296 83.1695 123.748 83.3702 125.469 82.103C124.071 82.2341 122.462 81.7108 120.815 80.4545Z" fill="#42E8E0"/>
<path d="M119.125 81.0584C114.839 77.7886 111.927 70.8103 112.622 65.472C112.944 63.0007 113.983 61.3161 115.431 60.5425C113.791 61.2154 112.602 62.9693 112.253 65.6458C111.558 70.9842 114.47 77.9624 118.756 81.2323C121.058 82.9877 123.286 83.3126 124.965 82.4153C123.335 83.0843 121.262 82.6882 119.125 81.0584Z" fill="#42E8E0"/>
<path d="M164.535 122.106C170.242 122.106 174.869 117.49 174.869 111.797C174.869 106.104 170.242 101.488 164.535 101.488C158.828 101.488 154.201 106.104 154.201 111.797C154.201 117.49 158.828 122.106 164.535 122.106Z" fill="url(#paint19_radial_602_1223)"/>
<path d="M164.535 122.106C170.242 122.106 174.869 117.49 174.869 111.797C174.869 106.104 170.242 101.488 164.535 101.488C158.828 101.488 154.201 106.104 154.201 111.797C154.201 117.49 158.828 122.106 164.535 122.106Z" fill="url(#paint20_linear_602_1223)"/>
<path d="M174.466 111.997C174.466 114.903 172.421 118.437 169.898 119.89C167.375 121.343 165.33 120.165 165.33 117.259C165.33 114.353 167.375 110.819 169.898 109.366C172.421 107.913 174.466 109.091 174.466 111.997Z" fill="#251C72"/>
<path opacity="0.5" d="M174.466 111.997C174.466 114.903 172.421 118.437 169.898 119.89C167.375 121.343 165.33 120.165 165.33 117.259C165.33 114.353 167.375 110.819 169.898 109.366C172.421 107.913 174.466 109.091 174.466 111.997Z" fill="url(#paint21_radial_602_1223)"/>
<path d="M172.043 108.748C172.428 109.297 172.652 110.06 172.652 111.014C172.652 113.92 170.606 117.454 168.083 118.907C167.308 119.354 166.579 119.55 165.939 119.525C166.728 120.65 168.204 120.866 169.899 119.89C172.422 118.437 174.467 114.903 174.467 111.997C174.467 109.984 173.485 108.802 172.043 108.748Z" fill="#42E8E0"/>
<path d="M159.234 74.5597L149.377 80.2369V68.8828L159.234 63.2056V74.5597Z" fill="#251C72"/>
<path opacity="0.8" d="M157.769 64.0491V73.7676L149.377 78.6012V80.2369L159.234 74.5597V63.2056L157.769 64.0491Z" fill="url(#paint22_radial_602_1223)"/>
<path d="M151.258 71.9854L150.375 72.494V71.4768L151.258 70.9683V71.9854Z" fill="#42E8E0"/>
<path d="M153.133 69.6021L152.25 70.1107V69.0935L153.133 68.585V69.6021Z" fill="#42E8E0"/>
<path d="M155.006 69.8267L154.123 70.3353V69.3182L155.006 68.8096V69.8267Z" fill="#42E8E0"/>
<path d="M155.006 72.4937L154.123 73.0023V71.9851L155.006 71.4766V72.4937Z" fill="#42E8E0"/>
<path d="M153.877 74.545L152.994 75.0536V74.0364L153.877 73.5278V74.545Z" fill="#42E8E0"/>
<path d="M156.94 71.3804L156.057 71.889V70.8719L156.94 70.3633V71.3804Z" fill="#42E8E0"/>
<path d="M167.177 71.5667L168.257 69.7015L167.177 69.082L157.32 74.7592V86.1133L158.4 86.7328L159.477 84.8709L167.177 80.4361V71.5667Z" fill="url(#paint23_linear_602_1223)"/>
<path d="M168.258 81.0558L158.4 86.733V75.3789L168.258 69.7017V81.0558Z" fill="url(#paint24_linear_602_1223)"/>
<path d="M168.258 81.0558L158.4 86.733V75.3789L168.258 69.7017V81.0558Z" fill="url(#paint25_linear_602_1223)"/>
<path d="M156.682 71.2145L156.492 71.0371L167.39 59.4208H198.399L209.838 48.0088V1.50635H210.098V48.1166L198.506 59.6804H167.503L156.682 71.2145Z" fill="#42E8E0"/>
<path d="M209.875 36.4397L204.496 31.0734V11.936H204.756V30.9656L210.059 36.2557L209.875 36.4397Z" fill="#42E8E0"/>
<path d="M176.799 59.6428L176.615 59.4587L182.715 53.3745H195.973L202.337 47.0259L202.52 47.21L196.08 53.634H182.822L176.799 59.6428Z" fill="#42E8E0"/>
<path d="M202.429 47.9993C201.941 47.9993 201.545 47.6046 201.545 47.1176C201.545 46.6306 201.941 46.2358 202.429 46.2358C202.917 46.2358 203.313 46.6306 203.313 47.1176C203.313 47.6046 202.917 47.9993 202.429 47.9993Z" fill="#42E8E0"/>
<path d="M193.501 42.0657C193.013 42.0657 192.617 41.6709 192.617 41.184C192.617 40.697 193.013 40.3022 193.501 40.3022C193.989 40.3022 194.385 40.697 194.385 41.184C194.385 41.6709 193.989 42.0657 193.501 42.0657Z" fill="#42E8E0"/>
<path d="M200.573 33.3743C200.085 33.3743 199.689 32.9795 199.689 32.4926C199.689 32.0056 200.085 31.6108 200.573 31.6108C201.061 31.6108 201.457 32.0056 201.457 32.4926C201.457 32.9795 201.061 33.3743 200.573 33.3743Z" fill="#42E8E0"/>
<path d="M197.085 11.306C196.597 11.306 196.201 10.9112 196.201 10.4243C196.201 9.93723 196.597 9.54248 197.085 9.54248C197.573 9.54248 197.969 9.93723 197.969 10.4243C197.969 10.9112 197.573 11.306 197.085 11.306Z" fill="#42E8E0"/>
<path d="M204.626 12.8177C204.138 12.8177 203.742 12.4229 203.742 11.936C203.742 11.4489 204.138 11.0542 204.626 11.0542C205.114 11.0542 205.51 11.4489 205.51 11.936C205.51 12.4229 205.114 12.8177 204.626 12.8177Z" fill="#42E8E0"/>
<path d="M209.968 2.38801C209.48 2.38801 209.084 1.99326 209.084 1.5063C209.084 1.01926 209.48 0.624512 209.968 0.624512C210.456 0.624512 210.852 1.01926 210.852 1.5063C210.852 1.99326 210.456 2.38801 209.968 2.38801Z" fill="#42E8E0"/>
<path d="M167.769 39.2703C167.28 39.2703 166.885 38.8756 166.885 38.3886C166.885 37.9017 167.28 37.5068 167.769 37.5068C168.257 37.5068 168.653 37.9017 168.653 38.3886C168.653 38.8756 168.257 39.2703 167.769 39.2703Z" fill="#42E8E0"/>
<path d="M150.946 71.7303H150.686V66.5839L150.723 66.5459L163.067 54.0412V36.2938L173.303 26.0829H193.398L196.954 22.5348V10.4243H197.214V22.6426L193.505 26.3425H173.411L163.327 36.4016V54.1475L163.289 54.1856L150.946 66.6903V71.7303Z" fill="#42E8E0"/>
<path d="M163.287 49.9939L163.104 49.8099L167.637 45.288V38.3887H167.897V45.3957L163.287 49.9939Z" fill="#42E8E0"/>
<path d="M152.781 69.5178L152.598 69.3337L180.946 41.0542H193.3V41.3138H181.054L152.781 69.5178Z" fill="#42E8E0"/>
<path d="M175.84 46.4617H175.58V37.4526L180.682 32.3628H200.574V32.6224H180.79L175.84 37.5605V46.4617Z" fill="#42E8E0"/>
<path d="M171.628 140.741C170.535 144.36 164.668 151.396 161.039 150.306C157.411 149.216 157.396 140.414 158.488 136.794C159.581 133.174 163.408 131.124 167.036 132.213C170.665 133.303 172.72 137.121 171.628 140.741Z" fill="url(#paint26_radial_602_1223)"/>
<path d="M171.628 140.741C170.535 144.36 164.668 151.396 161.039 150.306C157.411 149.216 157.396 140.414 158.488 136.794C159.581 133.174 163.408 131.124 167.036 132.213C170.665 133.303 172.72 137.121 171.628 140.741Z" fill="url(#paint27_linear_602_1223)"/>
<path d="M164.644 132.256C166.55 132.086 168.987 133.214 170.088 134.776C171.188 136.338 170.535 137.742 168.629 137.912C166.723 138.082 164.286 136.953 163.185 135.391C162.084 133.829 162.738 132.426 164.644 132.256Z" fill="#251C72"/>
<path opacity="0.5" d="M164.644 132.256C166.55 132.086 168.987 133.214 170.088 134.776C171.188 136.338 170.535 137.742 168.629 137.912C166.723 138.082 164.286 136.953 163.185 135.391C162.084 133.829 162.738 132.426 164.644 132.256Z" fill="url(#paint28_radial_602_1223)"/>
<path d="M162.655 134.028C162.992 133.744 163.48 133.554 164.106 133.498C166.012 133.328 168.449 134.457 169.55 136.019C169.888 136.498 170.059 136.963 170.081 137.382C170.773 136.802 170.828 135.826 170.088 134.776C168.988 133.214 166.55 132.086 164.644 132.256C163.324 132.373 162.606 133.084 162.655 134.028Z" fill="#42E8E0"/>
<path opacity="0.6" d="M170.031 127.91C170.248 127.706 170.259 127.365 170.055 127.148C169.851 126.931 169.509 126.92 169.292 127.124C169.074 127.328 169.063 127.669 169.267 127.885C169.471 128.102 169.813 128.113 170.031 127.91Z" fill="#42E8E0"/>
<path d="M176.31 127.024C176.859 126.509 176.887 125.647 176.371 125.098C175.855 124.55 174.99 124.523 174.441 125.037C173.891 125.552 173.864 126.414 174.38 126.963C174.896 127.511 175.76 127.538 176.31 127.024Z" fill="#42E8E0"/>
<path opacity="0.6" d="M172.893 134.674C173.201 134.386 173.216 133.904 172.927 133.597C172.638 133.29 172.155 133.274 171.847 133.563C171.539 133.851 171.524 134.333 171.813 134.64C172.101 134.947 172.585 134.963 172.893 134.674Z" fill="#42E8E0"/>
<path d="M174.647 132.106C174.857 131.909 174.868 131.578 174.67 131.368C174.472 131.158 174.141 131.148 173.931 131.345C173.72 131.542 173.71 131.872 173.907 132.083C174.105 132.293 174.436 132.303 174.647 132.106Z" fill="#42E8E0"/>
<path d="M175.056 133.346C175.2 133.211 175.207 132.985 175.072 132.841C174.937 132.697 174.71 132.69 174.566 132.825C174.422 132.96 174.415 133.186 174.55 133.33C174.685 133.474 174.912 133.481 175.056 133.346Z" fill="#42E8E0"/>
<path opacity="0.6" d="M171.139 123.105C171.444 122.819 171.459 122.341 171.173 122.037C170.887 121.733 170.407 121.717 170.102 122.003C169.797 122.289 169.782 122.767 170.068 123.071C170.355 123.376 170.834 123.391 171.139 123.105Z" fill="#42E8E0"/>
<path d="M169.68 124.89C170.136 124.462 170.158 123.747 169.73 123.292C169.302 122.837 168.585 122.815 168.129 123.242C167.673 123.669 167.65 124.384 168.078 124.839C168.506 125.294 169.223 125.317 169.68 124.89Z" fill="#42E8E0"/>
<path d="M147.25 54.4735L91.0462 22.3373C90.1261 21.8072 89.2893 21.7875 88.6523 22.1752L88.6542 22.167L85.1855 24.1715L87.4412 25.8036V27.6307L86.1645 28.1664L86.2324 96.5863L90.0352 100.244L103.073 107.708L142.938 129.872C142.938 129.872 144.432 129.872 144.636 129.872C144.705 129.872 144.805 129.668 144.899 129.398L146.609 130.383L146.065 132.98L149.591 130.952L149.586 130.951C150.361 130.519 150.855 129.496 150.855 128.034V61.3448C150.855 58.6966 149.241 55.6202 147.25 54.4735ZM145.705 126.069L91.5576 95.117C91.103 94.8553 90.7345 94.1529 90.7345 93.5484V27.7396L102.225 35.11L143.889 59.6231L145.111 61.5199L145.79 91.3266L145.705 126.069Z" fill="url(#paint29_linear_602_1223)"/>
<path opacity="0.6" d="M149.712 57.1904L144.322 60.2948L145.112 61.5198L145.791 91.3264L145.705 126.069L144.705 125.493C144.705 126.566 146.065 131.864 146.065 132.98L148.931 131.332L149.591 130.952L149.586 130.951C150.362 130.518 150.855 129.496 150.855 128.033V61.3446C150.855 59.9642 150.414 58.4696 149.712 57.1904Z" fill="#0F054C"/>
<path d="M143.619 56.565L87.4156 24.4287C85.4246 23.2819 83.8105 24.4992 83.8105 27.1474V93.8361C83.8105 96.4844 85.4246 99.5607 87.4156 100.708L143.619 132.844C145.61 133.991 147.224 132.773 147.224 130.125V63.4363C147.224 60.7881 145.61 57.7117 143.619 56.565ZM143.931 128.135C143.931 128.74 143.562 129.018 143.108 128.756L87.9269 97.2085C87.4724 96.9468 87.1038 96.2444 87.1038 95.6398V29.1374C87.1038 28.5327 87.4724 28.2549 87.9269 28.5166L143.108 60.0639C143.562 60.3257 143.931 61.028 143.931 61.6327V128.135Z" fill="url(#paint30_linear_602_1223)"/>
<path d="M143.619 56.565L87.4156 24.4287C85.4246 23.2819 83.8105 24.4992 83.8105 27.1474V93.8361C83.8105 96.4844 85.4246 99.5607 87.4156 100.708L143.619 132.844C145.61 133.991 147.224 132.773 147.224 130.125V63.4363C147.224 60.7881 145.61 57.7117 143.619 56.565ZM143.931 128.135C143.931 128.74 143.562 129.018 143.108 128.756L87.9269 97.2085C87.4724 96.9468 87.1038 96.2444 87.1038 95.6398V29.1374C87.1038 28.5327 87.4724 28.2549 87.9269 28.5166L143.108 60.0639C143.562 60.3257 143.931 61.028 143.931 61.6327V128.135Z" fill="url(#paint31_linear_602_1223)"/>
<path d="M91.5569 95.1171C91.1023 94.8554 90.7338 94.153 90.7338 93.5484V30.1333L87.9266 28.5164C87.472 28.2547 87.1035 28.5326 87.1035 29.1373V95.6396C87.1035 96.2442 87.472 96.9466 87.9266 97.2084L143.107 128.756C143.562 129.018 143.931 128.74 143.931 128.135V125.048L91.5569 95.1171Z" fill="#251C72"/>
<path opacity="0.4" d="M143.931 128.135C143.931 128.74 143.562 129.018 143.107 128.756L87.9266 97.2084C87.472 96.9466 87.1035 96.2442 87.1035 95.6396V29.1373C87.1035 28.5326 87.472 28.2547 87.9266 28.5164L143.107 60.0637C143.562 60.3256 143.931 61.0279 143.931 61.6325V128.135Z" fill="#42E8E0"/>
<g opacity="0.4">
<path d="M104.125 58.1953L98.7578 55.104V53.7559L104.125 56.8472V58.1953Z" fill="#42E8E0"/>
<path d="M108.705 60.8337L106.021 59.288V57.9399L108.705 59.4856V60.8337Z" fill="#42E8E0"/>
<path d="M105.709 62.2687L103.422 60.9516V59.6035L105.709 60.9206V62.2687Z" fill="#42E8E0"/>
<path d="M109.539 64.4753L106.855 62.9296V61.5815L109.539 63.1272V64.4753Z" fill="#42E8E0"/>
<path d="M113.969 70.1871L103.422 64.1127V62.7646L113.969 68.839V70.1871Z" fill="#42E8E0"/>
<path d="M105.709 68.591L103.422 67.2739V65.9258L105.709 67.2429V68.591Z" fill="#42E8E0"/>
<path d="M109.539 70.7971L106.855 69.2514V67.9033L109.539 69.4491V70.7971Z" fill="#42E8E0"/>
<path d="M109.22 73.7739L103.422 70.4345V69.0864L109.22 72.4258V73.7739Z" fill="#42E8E0"/>
<path d="M113.102 76.0095L110.418 74.4638V73.1157L113.102 74.6614V76.0095Z" fill="#42E8E0"/>
<path d="M117.002 78.2561L114.318 76.7104V75.3623L117.002 76.908V78.2561Z" fill="#42E8E0"/>
<path d="M123.299 81.8823L118.221 78.9575V77.6094L123.299 80.5342V81.8823Z" fill="#42E8E0"/>
<path d="M120.256 86.4514L117.572 84.9057V83.5576L120.256 85.1033V86.4514Z" fill="#42E8E0"/>
<path d="M126.551 90.0776L121.473 87.1528V85.8047L126.551 88.7295V90.0776Z" fill="#42E8E0"/>
<path d="M106.106 78.3025L103.422 76.7568V75.4087L106.106 76.9544V78.3025Z" fill="#42E8E0"/>
<path d="M110.006 80.5495L107.322 79.0039V77.6558L110.006 79.2014V80.5495Z" fill="#42E8E0"/>
<path d="M116.303 84.1753L111.225 81.2504V79.9023L116.303 82.8272V84.1753Z" fill="#42E8E0"/>
<path d="M124.065 85.4851L121.381 83.9394V82.5913L124.065 84.137V85.4851Z" fill="#42E8E0"/>
<path d="M127.967 87.7316L125.283 86.186V84.8379L127.967 86.3835V87.7316Z" fill="#42E8E0"/>
<path d="M134.262 91.3579L129.184 88.4331V87.085L134.262 90.0098V91.3579Z" fill="#42E8E0"/>
<path d="M106.106 84.6243L103.422 83.0786V81.7305L106.106 83.2762V84.6243Z" fill="#42E8E0"/>
<path d="M112.401 88.251L107.322 85.3261V83.978L112.401 86.9029V88.251Z" fill="#42E8E0"/>
<path d="M121.992 74.8074L119.309 73.2617V71.9136L121.992 73.4593V74.8074Z" fill="#42E8E0"/>
<path d="M117.934 72.4705L115.25 70.9248V69.5767L117.934 71.1224V72.4705Z" fill="#42E8E0"/>
<path d="M128.287 78.4336L123.209 75.5087V74.1606L128.287 77.0855V78.4336Z" fill="#42E8E0"/>
<path d="M105.843 74.9903L103.422 73.5957V72.2476L105.843 73.6422V74.9903Z" fill="#42E8E0"/>
<path d="M113.024 79.126L107.139 75.7363V74.3882L113.024 77.7779V79.126Z" fill="#42E8E0"/>
<path d="M120.204 83.2613L114.318 79.8715V78.5234L120.204 81.9132V83.2613Z" fill="#42E8E0"/>
<path d="M132.017 80.5816L129.596 79.187V77.8389L132.017 79.2335V80.5816Z" fill="#42E8E0"/>
<path d="M109.36 83.3374L103.475 79.9477V78.5996L109.36 81.9893V83.3374Z" fill="#42E8E0"/>
<path d="M112.462 85.1246L110.654 84.0834V82.7354L112.462 83.7765V85.1246Z" fill="#42E8E0"/>
<path d="M115.571 86.9151L113.764 85.874V84.5259L115.571 85.567V86.9151Z" fill="#42E8E0"/>
<path d="M121.32 90.2262L116.873 87.665V86.3169L121.32 88.8781V90.2262Z" fill="#42E8E0"/>
<path d="M122.529 90.922L118.082 88.3608V87.0127L122.529 89.5739V90.922Z" fill="#42E8E0"/>
<path d="M126.3 83.6109L124.492 82.5698V81.2217L126.3 82.2628V83.6109Z" fill="#42E8E0"/>
<path d="M132.048 86.9219L127.602 84.3608V83.0127L132.048 85.5738V86.9219Z" fill="#42E8E0"/>
<path d="M100.616 84.6246L98.8086 83.5834V82.2354L100.616 83.2765V84.6246Z" fill="#42E8E0"/>
<path d="M106.365 87.9356L101.918 85.3745V84.0264L106.365 86.5875V87.9356Z" fill="#42E8E0"/>
<path d="M112.238 91.3179L107.791 88.7568V87.4087L112.238 89.9698V91.3179Z" fill="#42E8E0"/>
</g>
<defs>
<linearGradient id="paint0_linear_602_1223" x1="203.313" y1="153.601" x2="54.3496" y2="153.601" gradientUnits="userSpaceOnUse">
<stop stop-color="#5761D7"/>
<stop offset="0.177894" stop-color="#5C66D9"/>
<stop offset="0.387598" stop-color="#6A73DF"/>
<stop offset="0.6134" stop-color="#8289E8"/>
<stop offset="0.84896" stop-color="#A3A7F5"/>
<stop offset="1" stop-color="#BCBEFF"/>
</linearGradient>
<linearGradient id="paint1_linear_602_1223" x1="156.053" y1="150.142" x2="7.08968" y2="150.142" gradientUnits="userSpaceOnUse">
<stop stop-color="#C0BFF6"/>
<stop offset="0.293761" stop-color="#C5C4F7"/>
<stop offset="0.639919" stop-color="#D3D2F9"/>
<stop offset="1" stop-color="#E9E9FD"/>
</linearGradient>
<linearGradient id="paint2_linear_602_1223" x1="220.202" y1="84.9558" x2="114.785" y2="84.9558" gradientUnits="userSpaceOnUse">
<stop stop-color="#C0BFF6"/>
<stop offset="0.293761" stop-color="#C5C4F7"/>
<stop offset="0.639919" stop-color="#D3D2F9"/>
<stop offset="1" stop-color="#E9E9FD"/>
</linearGradient>
<linearGradient id="paint3_linear_602_1223" x1="220.201" y1="111.925" x2="202.1" y2="111.925" gradientUnits="userSpaceOnUse">
<stop stop-color="#5761D7"/>
<stop offset="0.177894" stop-color="#5C66D9"/>
<stop offset="0.387598" stop-color="#6A73DF"/>
<stop offset="0.6134" stop-color="#8289E8"/>
<stop offset="0.84896" stop-color="#A3A7F5"/>
<stop offset="1" stop-color="#BCBEFF"/>
</linearGradient>
<linearGradient id="paint4_linear_602_1223" x1="206.079" y1="141.35" x2="57.1953" y2="141.35" gradientUnits="userSpaceOnUse">
<stop stop-color="#5761D7"/>
<stop offset="0.177894" stop-color="#5C66D9"/>
<stop offset="0.387598" stop-color="#6A73DF"/>
<stop offset="0.6134" stop-color="#8289E8"/>
<stop offset="0.84896" stop-color="#A3A7F5"/>
<stop offset="1" stop-color="#BCBEFF"/>
</linearGradient>
<linearGradient id="paint5_linear_602_1223" x1="156.053" y1="137.289" x2="7.08968" y2="137.289" gradientUnits="userSpaceOnUse">
<stop stop-color="#C0BFF6"/>
<stop offset="0.293761" stop-color="#C5C4F7"/>
<stop offset="0.639919" stop-color="#D3D2F9"/>
<stop offset="1" stop-color="#E9E9FD"/>
</linearGradient>
<radialGradient id="paint6_radial_602_1223" cx="0" cy="0" r="1" gradientUnits="userSpaceOnUse" gradientTransform="translate(133.49 131.287) scale(94.305 94.0764)">
<stop stop-color="#42E8E0"/>
<stop offset="0.105539" stop-color="#37B6BF"/>
<stop offset="0.219661" stop-color="#2C87A1"/>
<stop offset="0.337969" stop-color="#235F87"/>
<stop offset="0.458668" stop-color="#1C3F72"/>
<stop offset="0.582439" stop-color="#162561"/>
<stop offset="0.710541" stop-color="#121355"/>
<stop offset="0.845774" stop-color="#10084E"/>
<stop offset="1" stop-color="#0F054C"/>
</radialGradient>
<linearGradient id="paint7_linear_602_1223" x1="56.9336" y1="135.374" x2="206.323" y2="135.374" gradientUnits="userSpaceOnUse">
<stop stop-color="#42E8E0"/>
<stop offset="0.105539" stop-color="#37B6BF"/>
<stop offset="0.219661" stop-color="#2C87A1"/>
<stop offset="0.337969" stop-color="#235F87"/>
<stop offset="0.458668" stop-color="#1C3F72"/>
<stop offset="0.582439" stop-color="#162561"/>
<stop offset="0.710541" stop-color="#121355"/>
<stop offset="0.845774" stop-color="#10084E"/>
<stop offset="1" stop-color="#0F054C"/>
</linearGradient>
<radialGradient id="paint8_radial_602_1223" cx="0" cy="0" r="1" gradientUnits="userSpaceOnUse" gradientTransform="translate(98.3564 103.571) rotate(16.7185) scale(19.4868 19.4474)">
<stop stop-color="#C0BFF6"/>
<stop offset="1" stop-color="#393091"/>
</radialGradient>
<linearGradient id="paint9_linear_602_1223" x1="85.9091" y1="113.031" x2="100.512" y2="104.428" gradientUnits="userSpaceOnUse">
<stop stop-color="#2FD3C7"/>
<stop offset="0.0880899" stop-color="#31B6BD"/>
<stop offset="0.22875" stop-color="#338DB0"/>
<stop offset="0.373414" stop-color="#356BA5"/>
<stop offset="0.520638" stop-color="#37519C"/>
<stop offset="0.671481" stop-color="#383F96"/>
<stop offset="0.828146" stop-color="#393492"/>
<stop offset="1" stop-color="#393091"/>
</linearGradient>
<radialGradient id="paint10_radial_602_1223" cx="0" cy="0" r="1" gradientUnits="userSpaceOnUse" gradientTransform="translate(94.6914 104.668) rotate(-95.1186) scale(12.6184 12.6486)">
<stop stop-color="#42E8E0"/>
<stop offset="0.105539" stop-color="#37B6BF"/>
<stop offset="0.219661" stop-color="#2C87A1"/>
<stop offset="0.337969" stop-color="#235F87"/>
<stop offset="0.458668" stop-color="#1C3F72"/>
<stop offset="0.582439" stop-color="#162561"/>
<stop offset="0.710541" stop-color="#121355"/>
<stop offset="0.845774" stop-color="#10084E"/>
<stop offset="1" stop-color="#0F054C"/>
</radialGradient>
<radialGradient id="paint11_radial_602_1223" cx="0" cy="0" r="1" gradientUnits="userSpaceOnUse" gradientTransform="translate(159.782 53.2565) rotate(11.1711) scale(59.6461 59.5123)">
<stop stop-color="#C0BFF6"/>
<stop offset="1" stop-color="#393091"/>
</radialGradient>
<linearGradient id="paint12_linear_602_1223" x1="104.804" y1="94.8864" x2="115.869" y2="77.4725" gradientUnits="userSpaceOnUse">
<stop stop-color="#706EC4"/>
<stop offset="0.0222208" stop-color="#6D6BC2"/>
<stop offset="0.250885" stop-color="#5651AC"/>
<stop offset="0.48649" stop-color="#463F9D"/>
<stop offset="0.731354" stop-color="#3C3494"/>
<stop offset="1" stop-color="#393091"/>
</linearGradient>
<radialGradient id="paint13_radial_602_1223" cx="0" cy="0" r="1" gradientUnits="userSpaceOnUse" gradientTransform="translate(150.951 99.481) scale(45.8526 62.2662)">
<stop stop-color="#C0BFF6"/>
<stop offset="1" stop-color="#393091"/>
</radialGradient>
<linearGradient id="paint14_linear_602_1223" x1="135.208" y1="141.144" x2="135.208" y2="78.9033" gradientUnits="userSpaceOnUse">
<stop stop-color="#2FD3C7"/>
<stop offset="0.0880899" stop-color="#31B6BD"/>
<stop offset="0.22875" stop-color="#338DB0"/>
<stop offset="0.373414" stop-color="#356BA5"/>
<stop offset="0.520638" stop-color="#37519C"/>
<stop offset="0.671481" stop-color="#383F96"/>
<stop offset="0.828146" stop-color="#393492"/>
<stop offset="1" stop-color="#393091"/>
</linearGradient>
<radialGradient id="paint15_radial_602_1223" cx="0" cy="0" r="1" gradientUnits="userSpaceOnUse" gradientTransform="translate(134.5 99.739) scale(35.4909 35.4049)">
<stop stop-color="#42E8E0"/>
<stop offset="0.105539" stop-color="#37B6BF"/>
<stop offset="0.219661" stop-color="#2C87A1"/>
<stop offset="0.337969" stop-color="#235F87"/>
<stop offset="0.458668" stop-color="#1C3F72"/>
<stop offset="0.582439" stop-color="#162561"/>
<stop offset="0.710541" stop-color="#121355"/>
<stop offset="0.845774" stop-color="#10084E"/>
<stop offset="1" stop-color="#0F054C"/>
</radialGradient>
<radialGradient id="paint16_radial_602_1223" cx="0" cy="0" r="1" gradientUnits="userSpaceOnUse" gradientTransform="translate(153.249 60.6082) scale(45.9931 45.8816)">
<stop stop-color="#C0BFF6"/>
<stop offset="1" stop-color="#393091"/>
</radialGradient>
<linearGradient id="paint17_linear_602_1223" x1="132.479" y1="91.5148" x2="140.018" y2="37.7397" gradientUnits="userSpaceOnUse">
<stop stop-color="#2FD3C7"/>
<stop offset="0.0880899" stop-color="#31B6BD"/>
<stop offset="0.22875" stop-color="#338DB0"/>
<stop offset="0.373414" stop-color="#356BA5"/>
<stop offset="0.520638" stop-color="#37519C"/>
<stop offset="0.671481" stop-color="#383F96"/>
<stop offset="0.828146" stop-color="#393492"/>
<stop offset="1" stop-color="#393091"/>
</linearGradient>
<radialGradient id="paint18_radial_602_1223" cx="0" cy="0" r="1" gradientUnits="userSpaceOnUse" gradientTransform="translate(127.793 67.1326) scale(22.5907 22.5359)">
<stop stop-color="#42E8E0"/>
<stop offset="0.05911" stop-color="#3CCBCD"/>
<stop offset="0.178331" stop-color="#3098AC"/>
<stop offset="0.2996" stop-color="#266B8F"/>
<stop offset="0.420679" stop-color="#1E4777"/>
<stop offset="0.541432" stop-color="#172A65"/>
<stop offset="0.661927" stop-color="#131657"/>
<stop offset="0.782056" stop-color="#100A50"/>
<stop offset="0.901682" stop-color="#0F064D"/>
<stop offset="1" stop-color="#0F054C"/>
</radialGradient>
<radialGradient id="paint19_radial_602_1223" cx="0" cy="0" r="1" gradientUnits="userSpaceOnUse" gradientTransform="translate(170.658 105.069) rotate(11.1711) scale(21.5574 21.5091)">
<stop stop-color="#C0BFF6"/>
<stop offset="1" stop-color="#393091"/>
</radialGradient>
<linearGradient id="paint20_linear_602_1223" x1="156.175" y1="117.857" x2="172.867" y2="105.699" gradientUnits="userSpaceOnUse">
<stop stop-color="#2FD3C7"/>
<stop offset="0.0880899" stop-color="#31B6BD"/>
<stop offset="0.22875" stop-color="#338DB0"/>
<stop offset="0.373414" stop-color="#356BA5"/>
<stop offset="0.520638" stop-color="#37519C"/>
<stop offset="0.671481" stop-color="#383F96"/>
<stop offset="0.828146" stop-color="#393492"/>
<stop offset="1" stop-color="#393091"/>
</linearGradient>
<radialGradient id="paint21_radial_602_1223" cx="0" cy="0" r="1" gradientUnits="userSpaceOnUse" gradientTransform="translate(167.966 113.003) scale(19.2541 19.2074)">
<stop stop-color="#42E8E0"/>
<stop offset="0.105539" stop-color="#37B6BF"/>
<stop offset="0.219661" stop-color="#2C87A1"/>
<stop offset="0.337969" stop-color="#235F87"/>
<stop offset="0.458668" stop-color="#1C3F72"/>
<stop offset="0.582439" stop-color="#162561"/>
<stop offset="0.710541" stop-color="#121355"/>
<stop offset="0.845774" stop-color="#10084E"/>
<stop offset="1" stop-color="#0F054C"/>
</radialGradient>
<radialGradient id="paint22_radial_602_1223" cx="0" cy="0" r="1" gradientUnits="userSpaceOnUse" gradientTransform="translate(152.466 52.3451) scale(18.1485 23.2585)">
<stop stop-color="#2B237C"/>
<stop offset="0.310001" stop-color="#251C72"/>
<stop offset="1" stop-color="#0F054C"/>
</radialGradient>
<linearGradient id="paint23_linear_602_1223" x1="166.738" y1="76.7095" x2="140.944" y2="84.5723" gradientUnits="userSpaceOnUse">
<stop stop-color="#BCBEFF"/>
<stop offset="0.151041" stop-color="#A3A7F5"/>
<stop offset="0.386601" stop-color="#8289E8"/>
<stop offset="0.612402" stop-color="#6A73DF"/>
<stop offset="0.822106" stop-color="#5C66D9"/>
<stop offset="1" stop-color="#5761D7"/>
</linearGradient>
<linearGradient id="paint24_linear_602_1223" x1="162.272" y1="78.343" x2="126.914" y2="82.5656" gradientUnits="userSpaceOnUse">
<stop stop-color="#BCBEFF"/>
<stop offset="0.151041" stop-color="#A3A7F5"/>
<stop offset="0.386601" stop-color="#8289E8"/>
<stop offset="0.612402" stop-color="#6A73DF"/>
<stop offset="0.822106" stop-color="#5C66D9"/>
<stop offset="1" stop-color="#5761D7"/>
</linearGradient>
<linearGradient id="paint25_linear_602_1223" x1="156.968" y1="88.7129" x2="175.327" y2="58.2741" gradientUnits="userSpaceOnUse">
<stop stop-color="#42E8E0"/>
<stop offset="0.118765" stop-color="#42E2DE"/>
<stop offset="0.269933" stop-color="#41D3D7"/>
<stop offset="0.438614" stop-color="#40B9CC"/>
<stop offset="0.620054" stop-color="#3E94BC"/>
<stop offset="0.810074" stop-color="#3C66A8"/>
<stop offset="1" stop-color="#393091"/>
</linearGradient>
<radialGradient id="paint26_radial_602_1223" cx="0" cy="0" r="1" gradientUnits="userSpaceOnUse" gradientTransform="translate(169.349 135.342) rotate(16.7185) scale(19.4868 19.4474)">
<stop stop-color="#C0BFF6"/>
<stop offset="1" stop-color="#393091"/>
</radialGradient>
<linearGradient id="paint27_linear_602_1223" x1="156.901" y1="144.803" x2="171.504" y2="136.2" gradientUnits="userSpaceOnUse">
<stop stop-color="#2FD3C7"/>
<stop offset="0.0880899" stop-color="#31B6BD"/>
<stop offset="0.22875" stop-color="#338DB0"/>
<stop offset="0.373414" stop-color="#356BA5"/>
<stop offset="0.520638" stop-color="#37519C"/>
<stop offset="0.671481" stop-color="#383F96"/>
<stop offset="0.828146" stop-color="#393492"/>
<stop offset="1" stop-color="#393091"/>
</linearGradient>
<radialGradient id="paint28_radial_602_1223" cx="0" cy="0" r="1" gradientUnits="userSpaceOnUse" gradientTransform="translate(165.684 136.44) rotate(-95.1186) scale(12.6184 12.6485)">
<stop stop-color="#42E8E0"/>
<stop offset="0.105539" stop-color="#37B6BF"/>
<stop offset="0.219661" stop-color="#2C87A1"/>
<stop offset="0.337969" stop-color="#235F87"/>
<stop offset="0.458668" stop-color="#1C3F72"/>
<stop offset="0.582439" stop-color="#162561"/>
<stop offset="0.710541" stop-color="#121355"/>
<stop offset="0.845774" stop-color="#10084E"/>
<stop offset="1" stop-color="#0F054C"/>
</radialGradient>
<linearGradient id="paint29_linear_602_1223" x1="98.1117" y1="77.4443" x2="151.365" y2="77.4443" gradientUnits="userSpaceOnUse">
<stop stop-color="#BCBEFF"/>
<stop offset="0.165912" stop-color="#B6B8FC"/>
<stop offset="0.39559" stop-color="#A4A8F5"/>
<stop offset="0.66249" stop-color="#868DEA"/>
<stop offset="0.955395" stop-color="#5E67DA"/>
<stop offset="1" stop-color="#5761D7"/>
</linearGradient>
<linearGradient id="paint30_linear_602_1223" x1="83.8105" y1="78.6362" x2="147.224" y2="78.6362" gradientUnits="userSpaceOnUse">
<stop stop-color="#BCBEFF"/>
<stop offset="0.165912" stop-color="#B6B8FC"/>
<stop offset="0.39559" stop-color="#A4A8F5"/>
<stop offset="0.66249" stop-color="#868DEA"/>
<stop offset="0.955395" stop-color="#5E67DA"/>
<stop offset="1" stop-color="#5761D7"/>
</linearGradient>
<linearGradient id="paint31_linear_602_1223" x1="75.0521" y1="78.6362" x2="189.46" y2="78.6362" gradientUnits="userSpaceOnUse">
<stop stop-color="#706EC4"/>
<stop offset="0.0222208" stop-color="#6D6BC2"/>
<stop offset="0.250885" stop-color="#5651AC"/>
<stop offset="0.48649" stop-color="#463F9D"/>
<stop offset="0.731354" stop-color="#3C3494"/>
<stop offset="1" stop-color="#393091"/>
</linearGradient>
</defs>
</svg>
