<svg width="131" height="148" viewBox="0 0 131 148" fill="none" xmlns="http://www.w3.org/2000/svg">
<path d="M74.3051 147.423C73.7599 147.423 73.1865 147.288 72.7401 147.024L0.877381 104.513C0.425122 104.245 0.166016 103.881 0.166016 103.515C0.166016 103.203 0.351187 102.922 0.687068 102.723L43.5701 77.355C44.2839 76.9333 45.5306 76.9848 46.3501 77.4679L118.212 119.979C118.665 120.247 118.924 120.611 118.924 120.977C118.924 121.289 118.739 121.57 118.403 121.769L75.5201 147.137C75.1956 147.329 74.7601 147.423 74.3051 147.423ZM0.99961 104.296L72.8623 146.807C73.6147 147.253 74.7523 147.304 75.3979 146.92L118.281 121.551C118.538 121.4 118.68 121.196 118.68 120.977C118.68 120.703 118.465 120.418 118.09 120.196L46.2279 77.6851C45.4748 77.2394 44.3376 77.1879 43.6923 77.5723L0.808931 102.941C0.551804 103.092 0.410322 103.296 0.410322 103.515C0.410322 103.789 0.625115 104.074 0.999976 104.296H0.99961V104.296Z" fill="#42E8E0"/>
<path d="M118.801 113.627L114.844 113.044L46.2877 72.4884C45.5011 72.0231 44.3112 71.9726 43.6301 72.3756L2.80005 96.5294L0.287109 96.159V99.5766L0.294811 99.5778C0.299242 99.8839 0.51197 100.205 0.937812 100.457L72.8003 142.969C73.5869 143.434 74.7768 143.485 75.458 143.082L118.341 117.713C118.654 117.528 118.798 117.278 118.793 117.018L118.801 117.019V113.627Z" fill="url(#paint0_linear_602_2194)"/>
<path d="M0.937816 97.0595L72.8003 139.571C73.5869 140.037 74.7767 140.087 75.4579 139.684L118.341 114.316C119.022 113.913 118.937 113.209 118.15 112.744L46.2877 70.2318C45.5011 69.7665 44.3112 69.716 43.6301 70.119L0.746987 95.4873C0.0657809 95.8903 0.151225 96.5942 0.937816 97.0595Z" fill="url(#paint1_linear_602_2194)"/>
<path opacity="0.3" d="M7.15971 97.892L71.3917 135.89C72.0949 136.306 73.1584 136.351 73.7672 135.991L112.097 113.316C112.706 112.956 112.629 112.327 111.926 111.911L47.6943 73.9129C46.9912 73.497 45.9277 73.4518 45.3189 73.812L6.98919 96.4867C6.38031 96.8469 6.45665 97.4761 7.15971 97.892Z" fill="#24126A"/>
<path d="M118.343 113.946L75.4595 139.315C74.7783 139.718 73.5884 139.667 72.8018 139.202L0.939372 96.69C0.594241 96.4858 0.392721 96.2358 0.323002 95.9854C0.214304 96.3445 0.421482 96.7532 0.939372 97.0595L72.8018 139.571C73.5884 140.037 74.7783 140.087 75.4595 139.684L118.343 114.316C118.725 114.09 118.857 113.769 118.768 113.448C118.712 113.635 118.575 113.809 118.343 113.946Z" fill="white"/>
<path d="M46.1597 56.9781L55.2439 1.75566L54.5135 1.44047L55.611 0.795789L55.6092 0.802363C55.8221 0.657044 56.1233 0.665927 56.4551 0.862162L129.056 43.8107C129.652 44.1634 130.103 45.0679 129.999 45.7003L120.842 101.362C120.794 101.652 120.654 101.844 120.46 101.928L120.461 101.929L119.387 102.564L119.202 101.537L119.264 101.556L47.1024 58.8677C46.5062 58.515 46.055 57.6105 46.1597 56.9781Z" fill="url(#paint2_linear_602_2194)"/>
<path d="M128.651 45.3207L129.844 44.7795C129.978 45.0927 130.044 45.4222 129.998 45.7001L120.842 101.362C120.793 101.652 120.654 101.844 120.459 101.928L120.46 101.928L119.386 102.564L119.202 101.537L119.263 101.556L115.611 99.3958L128.651 45.3207Z" fill="url(#paint3_linear_602_2194)"/>
<path d="M45.9637 59.5376L118.565 102.486C119.125 102.818 119.605 102.626 119.703 102.032L128.86 46.3702C128.965 45.7378 128.513 44.8332 127.917 44.4806L55.3163 1.53204C54.7558 1.20045 54.2759 1.39199 54.1773 1.98663L45.021 57.648C44.9163 58.2804 45.3675 59.1849 45.9637 59.5376Z" fill="#24126A"/>
<g opacity="0.51">
<path d="M55.0709 2.56714L128.013 45.6977L118.801 101.501L45.9062 58.398L55.0709 2.56714Z" fill="#453C9E"/>
</g>
<path d="M0.326172 85.8897L4.28823 88.0098L44.0171 64.5074C44.6818 64.1142 45.8427 64.1635 46.6103 64.6175L115.131 105.153C115.787 104.777 118.777 103.304 118.777 103.304L117.327 105.719C117.327 105.719 117.322 105.715 117.321 105.714C117.261 105.887 117.132 106.047 116.915 106.175L75.0727 130.928C74.4081 131.321 73.247 131.272 72.4796 130.818L2.36069 89.3377C2.04548 89.1512 1.85248 88.9255 1.77248 88.6969L1.76704 88.7005L0.326172 85.8897Z" fill="url(#paint4_linear_602_2194)"/>
<path d="M0.937816 86.5571L72.8003 129.069C73.5869 129.534 74.7767 129.585 75.4579 129.182L118.341 103.813C119.022 103.41 118.937 102.706 118.15 102.241L46.2877 59.7294C45.5011 59.2641 44.3112 59.2135 43.6301 59.6166L0.746987 84.9849C0.0657809 85.3879 0.151225 86.0918 0.937816 86.5571Z" fill="url(#paint5_linear_602_2194)"/>
<path d="M0.938797 86.2274L72.8013 128.739C73.5879 129.204 74.7777 129.255 75.459 128.852L118.342 103.484C118.582 103.342 118.721 103.162 118.774 102.969C118.85 103.282 118.715 103.593 118.342 103.813L75.459 129.182C74.7777 129.585 73.5879 129.534 72.8013 129.069L0.938797 86.5572C0.429081 86.2557 0.219021 85.8549 0.315952 85.4998C0.378895 85.7579 0.583104 86.017 0.938797 86.2274Z" fill="white"/>
<path d="M49.4343 86.3803L47.153 85.0307C46.9698 84.9223 46.9928 84.733 47.2043 84.6079L49.4647 83.2708C49.6762 83.1456 49.9961 83.132 50.1793 83.2404L52.4606 84.59C52.6438 84.6983 52.6208 84.8876 52.4093 85.0127L50.1489 86.3499C49.9374 86.475 49.6174 86.4886 49.4343 86.3803Z" fill="#24126A"/>
<path d="M52.9577 88.4642L50.6764 87.1147C50.4932 87.0063 50.5162 86.817 50.7277 86.6919L52.9881 85.3548C53.1996 85.2296 53.5195 85.216 53.7027 85.3244L55.984 86.674C56.1672 86.7823 56.1443 86.9716 55.9327 87.0967L53.6723 88.4339C53.4608 88.559 53.1409 88.5726 52.9577 88.4642Z" fill="#24126A"/>
<path d="M56.4811 90.5487L54.1998 89.1991C54.0167 89.0908 54.0396 88.9015 54.2511 88.7764L56.5116 87.4392C56.723 87.3141 57.043 87.3005 57.2262 87.4088L59.5075 88.7584C59.6906 88.8668 59.6677 89.0561 59.4562 89.1812L57.1958 90.5184C56.9843 90.6434 56.6643 90.6571 56.4811 90.5487Z" fill="#24126A"/>
<path d="M60.0046 92.6327L57.7232 91.2831C57.5401 91.1748 57.5631 90.9855 57.7746 90.8604L60.035 89.5232C60.2465 89.3981 60.5664 89.3845 60.7496 89.4928L63.0309 90.8424C63.2141 90.9508 63.1911 91.14 62.9796 91.2652L60.7192 92.6023C60.5077 92.7274 60.1877 92.7411 60.0046 92.6327Z" fill="#24126A"/>
<path d="M63.528 94.7166L61.2467 93.3671C61.0635 93.2587 61.0865 93.0695 61.298 92.9444L63.5584 91.6071C63.7699 91.482 64.0898 91.4685 64.2731 91.5768L66.5544 92.9264C66.7375 93.0347 66.7145 93.224 66.5031 93.3491L64.2426 94.6863C64.0311 94.8114 63.7112 94.825 63.528 94.7166Z" fill="#24126A"/>
<path d="M67.0514 96.8006L64.7701 95.4511C64.587 95.3427 64.6099 95.1535 64.8215 95.0283L67.0818 93.6911C67.2934 93.566 67.6133 93.5524 67.7964 93.6608L70.0777 95.0103C70.261 95.1187 70.238 95.308 70.0265 95.4331L67.7661 96.7703C67.5546 96.8954 67.2346 96.909 67.0514 96.8006Z" fill="#24126A"/>
<path d="M70.573 98.8851L68.2917 97.5356C68.1084 97.4272 68.1314 97.2379 68.343 97.1128L70.6033 95.7756C70.8149 95.6505 71.1348 95.6369 71.3179 95.7453L73.5993 97.0948C73.7825 97.2032 73.7595 97.3924 73.5479 97.5176L71.2876 98.8548C71.076 98.9799 70.7562 98.9935 70.573 98.8851Z" fill="#24126A"/>
<path d="M74.0964 100.969L71.8151 99.6195C71.6319 99.5111 71.6549 99.3219 71.8664 99.1968L74.1268 97.8596C74.3383 97.7345 74.6583 97.7209 74.8414 97.8292L77.1227 99.1788C77.3059 99.2872 77.2829 99.4764 77.0714 99.6015L74.811 100.939C74.5995 101.064 74.2795 101.077 74.0964 100.969Z" fill="#24126A"/>
<path d="M77.6198 103.053L75.3385 101.704C75.1553 101.595 75.1783 101.406 75.3898 101.281L77.6502 99.9436C77.8618 99.8185 78.1817 99.8048 78.3648 99.9133L80.6461 101.263C80.8293 101.371 80.8064 101.56 80.5948 101.686L78.3345 103.023C78.1229 103.148 77.803 103.161 77.6198 103.053Z" fill="#24126A"/>
<path d="M51.1042 83.3094L48.8229 81.9599C48.6397 81.8516 48.6627 81.6622 48.8742 81.5372L51.1346 80.1999C51.3461 80.0748 51.6661 80.0612 51.8492 80.1696L54.1305 81.5192C54.3137 81.6275 54.2907 81.8167 54.0793 81.9419L51.8188 83.2791C51.6074 83.4042 51.2874 83.4178 51.1042 83.3094Z" fill="#24126A"/>
<path d="M54.6276 85.3934L52.3463 84.0439C52.1631 83.9355 52.1861 83.7462 52.3977 83.6211L54.658 82.2839C54.8695 82.1588 55.1895 82.1452 55.3726 82.2536L57.6539 83.6032C57.8371 83.7115 57.8142 83.9007 57.6026 84.0259L55.3423 85.3631C55.1307 85.4882 54.8108 85.5017 54.6276 85.3934Z" fill="#24126A"/>
<path d="M58.1491 87.4776L55.8678 86.1281C55.6846 86.0197 55.7076 85.8305 55.9191 85.7053L58.1795 84.3681C58.3911 84.243 58.711 84.2295 58.8941 84.3378L61.1754 85.6873C61.3586 85.7957 61.3357 85.985 61.1241 86.1101L58.8637 87.4473C58.6522 87.5724 58.3323 87.586 58.1491 87.4776Z" fill="#24126A"/>
<path d="M61.6726 89.5619L59.3913 88.2123C59.2081 88.1039 59.231 87.9147 59.4426 87.7895L61.7029 86.4524C61.9145 86.3273 62.2344 86.3137 62.4176 86.422L64.6989 87.7715C64.8821 87.88 64.8591 88.0692 64.6476 88.1943L62.3872 89.5315C62.1756 89.6566 61.8557 89.6702 61.6726 89.5619Z" fill="#24126A"/>
<path d="M65.1941 91.6459L62.9128 90.2963C62.7295 90.1879 62.7525 89.9987 62.964 89.8735L65.2244 88.5363C65.4359 88.4112 65.7559 88.3977 65.939 88.506L68.2204 89.8555C68.4035 89.9639 68.3806 90.1532 68.169 90.2783L65.9087 91.6155C65.6971 91.7406 65.3772 91.7542 65.1941 91.6459Z" fill="#24126A"/>
<path d="M68.7174 93.7304L66.4361 92.3808C66.253 92.2724 66.276 92.0831 66.4874 91.958L68.7479 90.6208C68.9593 90.4957 69.2793 90.4821 69.4625 90.5905L71.7438 91.94C71.9269 92.0484 71.904 92.2377 71.6925 92.3628L69.4321 93.7C69.2206 93.8251 68.9006 93.8387 68.7174 93.7304Z" fill="#24126A"/>
<path d="M72.2409 95.8139L69.9596 94.4643C69.7764 94.3559 69.7994 94.1666 70.0109 94.0415L72.2713 92.7044C72.4828 92.5792 72.8027 92.5656 72.9859 92.674L75.2673 94.0236C75.4504 94.1319 75.4274 94.3212 75.2159 94.4463L72.9555 95.7835C72.744 95.9086 72.4241 95.9222 72.2409 95.8139Z" fill="#24126A"/>
<path d="M75.7643 97.8983L73.483 96.5488C73.2999 96.4404 73.3228 96.2511 73.5343 96.126L75.7947 94.7888C76.0062 94.6637 76.3262 94.6501 76.5094 94.7584L78.7907 96.108C78.9738 96.2164 78.9509 96.4057 78.7394 96.5308L76.4789 97.8679C76.2675 97.9931 75.9475 98.0067 75.7643 97.8983Z" fill="#24126A"/>
<path d="M79.2878 99.9823L77.0065 98.6327C76.8233 98.5244 76.8463 98.3351 77.0578 98.21L79.3182 96.8728C79.5297 96.7477 79.8497 96.7341 80.0328 96.8424L82.3141 98.192C82.4973 98.3004 82.4743 98.4897 82.2629 98.6148L80.0024 99.9519C79.7909 100.077 79.471 100.091 79.2878 99.9823Z" fill="#24126A"/>
<path d="M82.8093 102.067L80.528 100.717C80.3448 100.609 80.3677 100.419 80.5793 100.294L82.8397 98.9571C83.0512 98.8319 83.3712 98.8183 83.5543 98.9267L85.8356 100.276C86.0188 100.385 85.9958 100.574 85.7843 100.699L83.5239 102.036C83.3124 102.161 82.9925 102.175 82.8093 102.067Z" fill="#24126A"/>
<path d="M89.0739 105.772L84.0963 102.827C83.9132 102.719 83.9361 102.529 84.1476 102.404L86.408 101.067C86.6195 100.942 86.9395 100.928 87.1227 101.037L92.1002 103.981C92.2834 104.09 92.2605 104.279 92.049 104.404L89.7886 105.741C89.5771 105.866 89.2571 105.88 89.0739 105.772Z" fill="#24126A"/>
<path d="M95.9324 101.714L91.731 99.2286C91.5479 99.1203 91.5709 98.9311 91.7824 98.8059L94.0428 97.4687C94.2543 97.3436 94.5742 97.33 94.7574 97.4384L98.9587 99.9237C99.1419 100.032 99.1189 100.221 98.9074 100.346L96.647 101.684C96.4355 101.809 96.1156 101.822 95.9324 101.714Z" fill="#24126A"/>
<path d="M60.7956 84.9859L58.5142 83.6364C58.3311 83.528 58.3541 83.3388 58.5656 83.2137L60.826 81.8764C61.0375 81.7513 61.3574 81.7378 61.5406 81.8461L63.8219 83.1957C64.0051 83.304 63.9822 83.4933 63.7706 83.6184L61.5103 84.9556C61.2987 85.0807 60.9788 85.0943 60.7956 84.9859Z" fill="#24126A"/>
<path d="M57.1842 82.8499L54.9029 81.5004C54.7198 81.3921 54.7428 81.2028 54.9542 81.0777L57.2147 79.7405C57.4262 79.6153 57.7461 79.6018 57.9293 79.7101L60.2106 81.0597C60.3937 81.168 60.3708 81.3573 60.1593 81.4824L57.8988 82.8196C57.6874 82.9448 57.3674 82.9584 57.1842 82.8499Z" fill="#24126A"/>
<path d="M53.5749 80.714L51.2936 79.3644C51.1104 79.2561 51.1334 79.0668 51.3449 78.9417L53.6053 77.6045C53.8168 77.4794 54.1367 77.4657 54.3199 77.5741L56.6012 78.9237C56.7844 79.032 56.7614 79.2213 56.5499 79.3464L54.2895 80.6837C54.078 80.8088 53.7581 80.8223 53.5749 80.714Z" fill="#24126A"/>
<path d="M49.9636 78.5777L47.6823 77.2282C47.4991 77.1198 47.522 76.9306 47.7336 76.8054L49.994 75.4682C50.2055 75.3431 50.5254 75.3296 50.7086 75.4379L52.9899 76.7874C53.1731 76.8958 53.1501 77.0851 52.9386 77.2102L50.6782 78.5474C50.4667 78.6725 50.1468 78.6861 49.9636 78.5777Z" fill="#24126A"/>
<path d="M64.319 87.0699L62.0377 85.7204C61.8545 85.612 61.8775 85.4228 62.089 85.2976L64.3494 83.9604C64.5609 83.8353 64.8809 83.8217 65.0641 83.9301L67.3454 85.2796C67.5285 85.388 67.5055 85.5772 67.2941 85.7024L65.0336 87.0396C64.8222 87.1647 64.5022 87.1783 64.319 87.0699Z" fill="#24126A"/>
<path d="M67.8424 89.1539L65.5611 87.8044C65.378 87.696 65.401 87.5068 65.6124 87.3816L67.8728 86.0444C68.0843 85.9193 68.4043 85.9057 68.5875 86.0141L70.8688 87.3636C71.052 87.472 71.029 87.6612 70.8175 87.7864L68.5571 89.1236C68.3456 89.2487 68.0256 89.2623 67.8424 89.1539Z" fill="#24126A"/>
<path d="M71.3659 91.2384L69.0846 89.8888C68.9015 89.7804 68.9244 89.5912 69.1359 89.466L71.3963 88.1289C71.6078 88.0038 71.9278 87.9902 72.1109 88.0985L74.3922 89.4481C74.5754 89.5565 74.5524 89.7457 74.341 89.8708L72.0805 91.208C71.8691 91.3331 71.5491 91.3467 71.3659 91.2384Z" fill="#24126A"/>
<path d="M74.8874 93.3221L72.6061 91.9726C72.4229 91.8642 72.4459 91.675 72.6574 91.5498L74.9178 90.2126C75.1293 90.0875 75.4493 90.0739 75.6324 90.1823L77.9137 91.5318C78.0969 91.6402 78.0739 91.8295 77.8624 91.9546L75.602 93.2918C75.3905 93.4169 75.0706 93.4305 74.8874 93.3221Z" fill="#24126A"/>
<path d="M78.4109 95.4064L76.1295 94.0568C75.9463 93.9484 75.9693 93.7591 76.1809 93.634L78.4412 92.2969C78.6528 92.1718 78.9727 92.1581 79.1558 92.2665L81.4372 93.6161C81.6204 93.7244 81.5974 93.9137 81.3858 94.0388L79.1255 95.376C78.9139 95.5011 78.594 95.5147 78.4109 95.4064Z" fill="#24126A"/>
<path d="M81.9343 97.4904L79.653 96.1408C79.4698 96.0325 79.4928 95.8431 79.7043 95.7181L81.9647 94.3809C82.1762 94.2557 82.4961 94.2421 82.6793 94.3505L84.9606 95.7001C85.1438 95.8084 85.1208 95.9977 84.9093 96.1228L82.6489 97.46C82.4374 97.5851 82.1174 97.5987 81.9343 97.4904Z" fill="#24126A"/>
<path d="M85.4577 99.5746L83.1764 98.225C82.9932 98.1167 83.0162 97.9274 83.2277 97.8023L85.4881 96.4651C85.6996 96.3399 86.0195 96.3264 86.2027 96.4347L88.484 97.7843C88.6672 97.8926 88.6443 98.0819 88.4327 98.207L86.1723 99.5442C85.9608 99.6694 85.6409 99.683 85.4577 99.5746Z" fill="#24126A"/>
<path d="M88.9812 101.659L86.6998 100.309C86.5167 100.201 86.5397 100.011 86.7511 99.8863L89.0116 98.5491C89.223 98.4239 89.543 98.4104 89.7262 98.5187L92.0075 99.8683C92.1906 99.9766 92.1677 100.166 91.9562 100.291L89.6958 101.628C89.4843 101.753 89.1643 101.767 88.9812 101.659Z" fill="#24126A"/>
<path d="M92.5045 103.743L90.2232 102.393C90.0401 102.285 90.0631 102.096 90.2745 101.971L92.535 100.633C92.7465 100.508 93.0664 100.495 93.2496 100.603L95.5309 101.953C95.7141 102.061 95.6911 102.25 95.4796 102.375L93.2192 103.712C93.0077 103.838 92.6877 103.851 92.5045 103.743Z" fill="#24126A"/>
<path d="M58.9401 79.8307L56.6588 78.4811C56.4756 78.3727 56.4986 78.1835 56.7102 78.0583L58.9705 76.7212C59.1821 76.5961 59.502 76.5825 59.6851 76.6908L61.9665 78.0403C62.1496 78.1488 62.1267 78.338 61.9151 78.4632L59.6548 79.8003C59.4432 79.9254 59.1233 79.939 58.9401 79.8307Z" fill="#24126A"/>
<path d="M55.4343 77.757L53.153 76.4074C52.9698 76.2991 52.9928 76.1098 53.2043 75.9847L55.4647 74.6475C55.6762 74.5223 55.9961 74.5087 56.1793 74.6171L58.4606 75.9667C58.6438 76.075 58.6208 76.2643 58.4093 76.3894L56.1489 77.7266C55.9374 77.8517 55.6174 77.8653 55.4343 77.757Z" fill="#24126A"/>
<path d="M51.9304 75.6832L49.649 74.3337C49.4659 74.2253 49.4889 74.036 49.7003 73.9109L51.9608 72.5737C52.1722 72.4486 52.4922 72.435 52.6754 72.5434L54.9567 73.893C55.1398 74.0013 55.1169 74.1905 54.9054 74.3157L52.645 75.6529C52.4335 75.778 52.1135 75.7916 51.9304 75.6832Z" fill="#24126A"/>
<path d="M48.4245 73.6095L46.1432 72.2599C45.96 72.1515 45.983 71.9623 46.1945 71.8371L48.4549 70.5C48.6664 70.3749 48.9863 70.3613 49.1695 70.4696L51.4508 71.8192C51.634 71.9276 51.611 72.1168 51.3995 72.242L49.1391 73.5791C48.9276 73.7042 48.6077 73.7178 48.4245 73.6095Z" fill="#24126A"/>
<path d="M52.028 71.477L49.7467 70.1275C49.5635 70.0191 49.5865 69.8299 49.798 69.7047L50.5453 69.2627C50.7568 69.1376 51.0767 69.1239 51.2599 69.2324L53.5412 70.5819C53.7243 70.6902 53.7014 70.8795 53.4899 71.0046L52.7426 71.4467C52.5312 71.5718 52.2112 71.5854 52.028 71.477Z" fill="#24126A"/>
<path d="M56.6041 74.1834L54.3228 72.8338C54.1397 72.7254 54.1627 72.5361 54.3742 72.411L55.1214 71.969C55.3329 71.8439 55.6528 71.8303 55.836 71.9386L58.1173 73.2882C58.3005 73.3966 58.2776 73.5859 58.066 73.7109L57.3188 74.153C57.1073 74.2781 56.7874 74.2917 56.6041 74.1834Z" fill="#24126A"/>
<path d="M60.0944 76.2485L57.8131 74.899C57.6299 74.7906 57.6529 74.6013 57.8644 74.4762L58.6117 74.0341C58.8231 73.909 59.1431 73.8955 59.3263 74.0038L61.6076 75.3533C61.7908 75.4618 61.7678 75.651 61.5563 75.7761L60.809 76.2182C60.5975 76.3433 60.2776 76.3568 60.0944 76.2485Z" fill="#24126A"/>
<path d="M63.5846 78.3135L61.3033 76.9639C61.1202 76.8555 61.1432 76.6663 61.3546 76.5411L62.1019 76.0991C62.3134 75.974 62.6333 75.9604 62.8165 76.0688L65.0978 77.4183C65.281 77.5266 65.258 77.7159 65.0465 77.841L64.2992 78.2831C64.0878 78.4082 63.7678 78.4218 63.5846 78.3135Z" fill="#24126A"/>
<path d="M67.0768 80.3787L64.7955 79.0291C64.6124 78.9207 64.6353 78.7314 64.8468 78.6063L65.5941 78.1643C65.8055 78.0392 66.1255 78.0256 66.3087 78.1339L68.59 79.4835C68.7732 79.5919 68.7502 79.7812 68.5387 79.9063L67.7914 80.3483C67.58 80.4735 67.26 80.487 67.0768 80.3787Z" fill="#24126A"/>
<path d="M86.5651 91.9079L84.2838 90.5584C84.1007 90.4501 84.1236 90.2607 84.3351 90.1357L85.0824 89.6936C85.2938 89.5685 85.6138 89.5549 85.797 89.6632L88.0783 91.0128C88.2614 91.1212 88.2385 91.3104 88.027 91.4356L87.2797 91.8776C87.0683 92.0027 86.7483 92.0163 86.5651 91.9079Z" fill="#24126A"/>
<path d="M90.0553 93.9729L87.774 92.6234C87.5909 92.5149 87.6138 92.3257 87.8253 92.2006L88.5726 91.7585C88.7841 91.6334 89.104 91.6198 89.2872 91.7282L91.5685 93.0777C91.7517 93.1861 91.7288 93.3754 91.5172 93.5005L90.77 93.9426C90.5585 94.0677 90.2385 94.0812 90.0553 93.9729Z" fill="#24126A"/>
<path d="M93.5475 96.0381L91.2662 94.6885C91.0831 94.5802 91.106 94.3909 91.3176 94.2658L92.0648 93.8238C92.2763 93.6986 92.5962 93.685 92.7794 93.7934L95.0607 95.143C95.2439 95.2513 95.2209 95.4406 95.0094 95.5657L94.2622 96.0077C94.0507 96.1329 93.7307 96.1465 93.5475 96.0381Z" fill="#24126A"/>
<path d="M97.0378 98.1032L94.7565 96.7537C94.5733 96.6454 94.5962 96.4561 94.8078 96.331L95.555 95.8889C95.7665 95.7638 96.0865 95.7502 96.2697 95.8585L98.551 97.2081C98.7341 97.3165 98.7112 97.5057 98.4996 97.6309L97.7524 98.0729C97.5409 98.198 97.221 98.2116 97.0378 98.1032Z" fill="#24126A"/>
<path d="M62.4636 81.9147L60.1823 80.5651C59.9991 80.4567 60.0221 80.2675 60.2336 80.1423L62.494 78.8051C62.7055 78.68 63.0255 78.6665 63.2086 78.7748L65.4899 80.1243C65.6731 80.2327 65.6501 80.422 65.4386 80.5471L63.1782 81.8843C62.9667 82.0094 62.6467 82.023 62.4636 81.9147Z" fill="#24126A"/>
<path d="M65.987 83.9992L63.7057 82.6495C63.5225 82.5412 63.5455 82.3519 63.757 82.2268L66.0174 80.8896C66.2289 80.7645 66.5488 80.7509 66.732 80.8593L69.0133 82.2088C69.1965 82.3172 69.1736 82.5065 68.962 82.6316L66.7016 83.9687C66.4901 84.0939 66.1702 84.1075 65.987 83.9992Z" fill="#24126A"/>
<path d="M69.5085 86.0832L67.2272 84.7336C67.044 84.6252 67.067 84.4359 67.2784 84.3108L69.5389 82.9737C69.7504 82.8485 70.0703 82.8349 70.2535 82.9433L72.5348 84.2928C72.7179 84.4012 72.695 84.5905 72.4835 84.7156L70.2231 86.0528C70.0116 86.1779 69.6916 86.1915 69.5085 86.0832Z" fill="#24126A"/>
<path d="M73.0319 88.1671L70.7506 86.8176C70.5674 86.7092 70.5904 86.5199 70.8019 86.3948L73.0623 85.0576C73.2738 84.9325 73.5938 84.9189 73.777 85.0272L76.0583 86.3768C76.2414 86.4852 76.2184 86.6745 76.007 86.7996L73.7465 88.1367C73.535 88.2619 73.2151 88.2755 73.0319 88.1671Z" fill="#24126A"/>
<path d="M76.5553 90.2516L74.274 88.902C74.0909 88.7937 74.1139 88.6044 74.3253 88.4793L76.5858 87.1421C76.7972 87.017 77.1172 87.0034 77.3004 87.1117L79.5817 88.4613C79.7648 88.5697 79.7418 88.759 79.5304 88.884L77.2699 90.2212C77.0585 90.3464 76.7385 90.36 76.5553 90.2516Z" fill="#24126A"/>
<path d="M80.0788 92.3353L77.7975 90.9858C77.6143 90.8774 77.6373 90.6881 77.8488 90.563L80.1092 89.2259C80.3207 89.1007 80.6407 89.0871 80.8239 89.1955L83.1052 90.5451C83.2883 90.6534 83.2653 90.8427 83.0538 90.9678L80.7934 92.305C80.5819 92.4301 80.262 92.4437 80.0788 92.3353Z" fill="#24126A"/>
<path d="M83.6023 94.4195L81.3209 93.07C81.1377 92.9617 81.1607 92.7724 81.3723 92.6473L83.6326 91.31C83.8442 91.1849 84.1641 91.1713 84.3472 91.2797L86.6286 92.6293C86.8118 92.7376 86.7888 92.9269 86.5773 93.052L84.3169 94.3892C84.1054 94.5143 83.7854 94.5279 83.6023 94.4195Z" fill="#24126A"/>
<path d="M87.1257 96.5038L84.8444 95.1542C84.6612 95.0458 84.6842 94.8566 84.8957 94.7314L87.1561 93.3942C87.3676 93.2692 87.6876 93.2556 87.8707 93.3639L90.152 94.7134C90.3352 94.8219 90.3122 95.0111 90.1007 95.1363L87.8403 96.4734C87.6288 96.5985 87.3089 96.6121 87.1257 96.5038Z" fill="#24126A"/>
<path d="M90.6472 98.588L88.3659 97.2385C88.1827 97.13 88.2056 96.9408 88.4172 96.8156L90.6776 95.4785C90.8891 95.3534 91.209 95.3398 91.3922 95.4481L93.6735 96.7977C93.8567 96.9061 93.8337 97.0953 93.6222 97.2205L91.3618 98.5577C91.1503 98.6828 90.8303 98.6963 90.6472 98.588Z" fill="#24126A"/>
<path d="M85.6041 107.776L78.8854 103.801C78.7022 103.693 78.7251 103.504 78.9367 103.379L81.1971 102.041C81.4086 101.916 81.7285 101.903 81.9117 102.011L88.6304 105.986C88.8136 106.094 88.7906 106.283 88.5791 106.408L86.3187 107.746C86.1072 107.871 85.7872 107.884 85.6041 107.776Z" fill="#24126A"/>
<path d="M71.5143 104.045L69.233 102.696C69.0499 102.587 69.0728 102.398 69.2843 102.273L71.9771 100.68C72.1886 100.555 72.5085 100.541 72.6917 100.65L74.973 101.999C75.1561 102.107 75.1332 102.297 74.9217 102.422L72.2289 104.015C72.0175 104.14 71.6975 104.154 71.5143 104.045Z" fill="#24126A"/>
<path d="M68.1198 102.037L64.4714 99.8785C64.2881 99.7701 64.3111 99.5809 64.5226 99.4557L67.2153 97.8628C67.4269 97.7377 67.7468 97.7241 67.93 97.8324L71.5784 99.9907C71.7616 100.099 71.7386 100.288 71.5272 100.413L68.8344 102.006C68.6229 102.132 68.3029 102.145 68.1198 102.037Z" fill="#24126A"/>
<path d="M51.0123 91.9169L47.3639 89.7586C47.1807 89.6502 47.2037 89.461 47.4152 89.3358L50.1079 87.7429C50.3194 87.6178 50.6394 87.6042 50.8225 87.7126L54.471 89.8709C54.6542 89.9792 54.6312 90.1685 54.4197 90.2936L51.7269 91.8865C51.5155 92.0117 51.1955 92.0253 51.0123 91.9169Z" fill="#24126A"/>
<path d="M50.8474 87.7273L66.7098 97.1111C66.9066 97.2275 66.9066 97.4163 66.7098 97.5327L63.9639 99.1571C63.767 99.2735 63.4479 99.2735 63.2511 99.1571L47.3887 89.7734L50.8474 87.7273Z" fill="#24126A"/>
<path d="M81.36 107.824L83.9011 109.327C84.0513 109.416 84.0324 109.571 83.8591 109.673L82.7576 110.325C82.5842 110.428 82.322 110.439 82.1718 110.35L79.6306 108.847C79.4805 108.758 79.4994 108.603 79.6727 108.5L80.7742 107.848C80.9476 107.746 81.2099 107.735 81.36 107.824Z" fill="#24126A"/>
<path d="M77.8092 105.722L80.3504 107.226C80.5005 107.314 80.4817 107.47 80.3083 107.572L79.2068 108.224C79.0334 108.326 78.7712 108.337 78.621 108.249L76.0799 106.745C75.9297 106.656 75.9486 106.501 76.122 106.399L77.2235 105.747C77.3968 105.645 77.6591 105.634 77.8092 105.722Z" fill="#24126A"/>
<path d="M74.2858 103.638L76.8269 105.142C76.9771 105.23 76.9583 105.386 76.7849 105.488L75.6833 106.14C75.51 106.242 75.2477 106.253 75.0976 106.165L72.5564 104.661C72.4063 104.573 72.4251 104.417 72.5985 104.315L73.7 103.663C73.8734 103.561 74.1357 103.55 74.2858 103.638Z" fill="#24126A"/>
<path d="M79.7546 104.571L82.2957 106.075C82.4458 106.164 82.427 106.319 82.2536 106.421L81.1521 107.073C80.9787 107.175 80.7165 107.187 80.5663 107.098L78.0252 105.594C77.875 105.506 77.8939 105.35 78.0673 105.248L79.1688 104.596C79.3421 104.494 79.6044 104.483 79.7546 104.571Z" fill="#24126A"/>
<path d="M115.695 48.4073C115.522 48.4073 115.339 48.3545 115.164 48.2507C114.616 47.9256 114.289 47.2182 114.419 46.6398C114.481 46.3654 114.64 46.1595 114.866 46.0586C115.116 45.9465 115.425 45.9803 115.711 46.1496C116.251 46.4692 116.584 47.1914 116.456 47.7605C116.394 48.0349 116.236 48.2416 116.009 48.3425C115.912 48.3855 115.806 48.4073 115.695 48.4073ZM115.181 46.2441C115.103 46.2441 115.03 46.2583 114.963 46.2886C114.81 46.3563 114.701 46.5016 114.657 46.6962C114.551 47.166 114.834 47.7655 115.287 48.0336C115.506 48.164 115.733 48.1922 115.912 48.1125C116.065 48.0441 116.174 47.8995 116.218 47.7041C116.324 47.2344 116.042 46.6348 115.589 46.3668C115.452 46.2857 115.311 46.2441 115.181 46.2441Z" fill="#42E8E0"/>
<path d="M118.601 50.1255C118.428 50.1255 118.245 50.0725 118.069 49.9689C117.53 49.65 117.196 48.9278 117.324 48.3586C117.386 48.0843 117.545 47.8775 117.771 47.7767C118.021 47.666 118.329 47.6984 118.617 47.8684C119.156 48.1872 119.49 48.9095 119.361 49.4786C119.299 49.753 119.141 49.9597 118.914 50.0606C118.817 50.1036 118.711 50.1255 118.601 50.1255ZM118.085 47.9622C118.008 47.9622 117.935 47.977 117.868 48.0067C117.715 48.0744 117.607 48.2197 117.562 48.415C117.456 48.8848 117.739 49.4843 118.191 49.7516C118.411 49.8821 118.638 49.9103 118.817 49.8306C118.97 49.7629 119.079 49.6176 119.123 49.4222C119.229 48.9525 118.947 48.3529 118.495 48.0856C118.357 48.0039 118.215 47.9622 118.085 47.9622Z" fill="#42E8E0"/>
<path d="M122.146 51.1693C122.029 51.6895 121.531 51.8729 121.034 51.5791C120.537 51.2853 120.23 50.6255 120.347 50.1053C120.465 49.5851 120.962 49.4017 121.459 49.6955C121.956 49.9893 122.263 50.6492 122.146 51.1693Z" fill="#42E8E0"/>
<path d="M66.4482 18.3271L64.8945 17.408L65.015 16.6721L66.5686 17.5912L66.4482 18.3271Z" fill="#42E8E0"/>
<path d="M68.7079 19.663L67.1543 18.744L67.2747 18.0081L68.8283 18.9271L68.7079 19.663Z" fill="#42E8E0"/>
<path d="M64.3696 24.2397L60.6562 22.043L60.8001 21.1636L64.5135 23.3602L64.3696 24.2397Z" fill="#42E8E0"/>
<path d="M67.5383 26.1145L65.6816 25.0162L65.8255 24.1367L67.6822 25.235L67.5383 26.1145Z" fill="#42E8E0"/>
<path d="M65.129 26.9501L63.5469 26.0143L63.6908 25.1348L65.2729 26.0707L65.129 26.9501Z" fill="#42E8E0"/>
<path d="M67.7786 28.5176L65.9219 27.4193L66.0658 26.5398L67.9224 27.6381L67.7786 28.5176Z" fill="#42E8E0"/>
<path d="M70.5052 32.3925L63.209 28.0763L63.3529 27.1968L70.6492 31.5131L70.5052 32.3925Z" fill="#42E8E0"/>
<path d="M64.1811 49.6557L56.8848 45.3395L57.0287 44.46L64.325 48.7763L64.1811 49.6557Z" fill="#42E8E0"/>
<path d="M66.9856 51.3156L65.1289 50.2173L65.2728 49.3379L67.1295 50.4362L66.9856 51.3156Z" fill="#42E8E0"/>
<path d="M64.4532 31.0742L62.8711 30.1382L63.015 29.2588L64.5972 30.1947L64.4532 31.0742Z" fill="#42E8E0"/>
<path d="M67.1028 32.6423L65.2461 31.544L65.39 30.6646L67.2466 31.7629L67.1028 32.6423Z" fill="#42E8E0"/>
<path d="M66.5463 34.5733L62.5352 32.2005L62.679 31.321L66.6901 33.6939L66.5463 34.5733Z" fill="#42E8E0"/>
<path d="M69.2297 36.1619L67.373 35.0636L67.517 34.1841L69.3736 35.2825L69.2297 36.1619Z" fill="#42E8E0"/>
<path d="M71.9289 37.7586L70.0723 36.6602L70.2162 35.7808L72.0728 36.8791L71.9289 37.7586Z" fill="#42E8E0"/>
<path d="M76.2847 40.335L72.7715 38.2566L72.9154 37.3772L76.4287 39.4555L76.2847 40.335Z" fill="#42E8E0"/>
<path d="M73.5031 43.2136L71.6465 42.1153L71.7904 41.2358L73.647 42.3342L73.5031 43.2136Z" fill="#42E8E0"/>
<path d="M77.859 45.7903L74.3457 43.712L74.4896 42.8325L78.0028 44.9109L77.859 45.7903Z" fill="#42E8E0"/>
<path d="M63.716 37.4234L61.8594 36.325L62.0033 35.4456L63.8599 36.544L63.716 37.4234Z" fill="#42E8E0"/>
<path d="M66.4152 39.0201L64.5586 37.9217L64.7025 37.0422L66.5591 38.1406L66.4152 39.0201Z" fill="#42E8E0"/>
<path d="M70.769 41.5967L67.2559 39.5183L67.3998 38.6389L70.913 40.7172L70.769 41.5967Z" fill="#42E8E0"/>
<path d="M76.4778 42.7109L74.6211 41.6126L74.765 40.7332L76.6217 41.8315L76.4778 42.7109Z" fill="#42E8E0"/>
<path d="M79.1751 44.3074L77.3184 43.2091L77.4623 42.3296L79.319 43.428L79.1751 44.3074Z" fill="#42E8E0"/>
<path d="M83.5327 46.8843L80.0195 44.806L80.1634 43.9265L83.6767 46.0048L83.5327 46.8843Z" fill="#42E8E0"/>
<path d="M69.8918 53.0342L68.0352 51.9358L68.179 51.0564L70.0357 52.1547L69.8918 53.0342Z" fill="#42E8E0"/>
<path d="M74.2456 55.6104L70.7324 53.5321L70.8763 52.6526L74.3895 54.731L74.2456 55.6104Z" fill="#42E8E0"/>
<path d="M63.0403 41.5476L61.1836 40.4493L61.3275 39.5698L63.1841 40.6681L63.0403 41.5476Z" fill="#42E8E0"/>
<path d="M67.3961 44.1243L63.8828 42.0459L64.0267 41.1665L67.5399 43.2448L67.3961 44.1243Z" fill="#42E8E0"/>
<path d="M71.9133 56.4922L70.0566 55.3938L70.2005 54.5144L72.0572 55.6127L71.9133 56.4922Z" fill="#42E8E0"/>
<path d="M76.269 59.0689L72.7559 56.9905L72.8998 56.1111L76.413 58.1894L76.269 59.0689Z" fill="#42E8E0"/>
<path d="M76.0539 35.6758L74.1973 34.5774L74.3412 33.698L76.1978 34.7963L76.0539 35.6758Z" fill="#42E8E0"/>
<path d="M73.2473 34.0152L71.3906 32.9168L71.5346 32.0374L73.3912 33.1357L73.2473 34.0152Z" fill="#42E8E0"/>
<path d="M80.4116 38.2524L76.8984 36.1741L77.0424 35.2947L80.5556 37.373L80.4116 38.2524Z" fill="#42E8E0"/>
<path d="M63.8724 35.2535L62.1973 34.2625L62.3412 33.3831L64.0164 34.374L63.8724 35.2535Z" fill="#42E8E0"/>
<path d="M68.8392 38.1922L64.7676 35.7835L64.9115 34.9041L68.9831 37.3127L68.8392 38.1922Z" fill="#42E8E0"/>
<path d="M73.806 41.1308L69.7344 38.7222L69.8783 37.8428L73.9499 40.2514L73.806 41.1308Z" fill="#42E8E0"/>
<path d="M82.9916 39.7789L81.3164 38.7879L81.4603 37.9084L83.1355 38.8994L82.9916 39.7789Z" fill="#42E8E0"/>
<path d="M87.9583 42.7175L83.8867 40.3089L84.0307 39.4294L88.1022 41.8381L87.9583 42.7175Z" fill="#42E8E0"/>
<path d="M92.9251 45.6558L88.8535 43.2472L88.9974 42.3677L93.069 44.7763L92.9251 45.6558Z" fill="#42E8E0"/>
<path d="M65.6282 40.8174L61.5566 38.4087L61.7006 37.5293L65.7722 39.9379L65.6282 40.8174Z" fill="#42E8E0"/>
<path d="M67.7759 42.0868L66.5254 41.347L66.6693 40.4675L67.9199 41.2073L67.7759 42.0868Z" fill="#42E8E0"/>
<path d="M69.9263 43.3593L68.6758 42.6195L68.8197 41.74L70.0703 42.4798L69.9263 43.3593Z" fill="#42E8E0"/>
<path d="M73.9025 45.7118L70.8262 43.8919L70.97 43.0125L74.0465 44.8324L73.9025 45.7118Z" fill="#42E8E0"/>
<path d="M78.36 41.5636L77.1094 40.8238L77.2533 39.9443L78.5039 40.6841L78.36 41.5636Z" fill="#42E8E0"/>
<path d="M82.3381 43.9161L79.2617 42.0963L79.4057 41.2168L82.482 43.0367L82.3381 43.9161Z" fill="#42E8E0"/>
<path d="M83.174 44.4105L80.0977 42.5907L80.2416 41.7112L83.318 43.5311L83.174 44.4105Z" fill="#42E8E0"/>
<path d="M66.7943 55.7264L62.7832 53.3535L62.9271 52.4741L66.9382 54.8469L66.7943 55.7264Z" fill="#42E8E0"/>
<path d="M69.4817 57.3147L67.625 56.2163L67.7689 55.3369L69.6256 56.4352L69.4817 57.3147Z" fill="#42E8E0"/>
<path d="M72.179 58.9112L70.3223 57.8128L70.4662 56.9333L72.3228 58.0317L72.179 58.9112Z" fill="#42E8E0"/>
<path d="M76.5347 61.488L73.0215 59.4097L73.1654 58.5303L76.6786 60.6086L76.5347 61.488Z" fill="#42E8E0"/>
<path d="M79.3196 63.136L77.4629 62.0377L77.6068 61.1582L79.4634 62.2566L79.3196 63.136Z" fill="#42E8E0"/>
<path d="M83.6773 65.7126L80.1641 63.6344L80.308 62.7549L83.8212 64.8332L83.6773 65.7126Z" fill="#42E8E0"/>
<path d="M70.3156 62.3323L68.459 61.2339L68.6028 60.3545L70.4595 61.4528L70.3156 62.3323Z" fill="#42E8E0"/>
<path d="M74.6694 64.9089L71.1562 62.8307L71.3002 61.9512L74.8134 64.0295L74.6694 64.9089Z" fill="#42E8E0"/>
<path d="M60.6183 56.5957L58.7617 55.4973L58.9056 54.6179L60.7623 55.7163L60.6183 56.5957Z" fill="#42E8E0"/>
<path d="M63.3176 58.1921L61.4609 57.0938L61.6049 56.2144L63.4615 57.3127L63.3176 58.1921Z" fill="#42E8E0"/>
<path d="M67.6714 60.7688L64.1582 58.6905L64.3021 57.811L67.8153 59.8894L67.6714 60.7688Z" fill="#42E8E0"/>
<path d="M64.1224 56.4068L62.4473 55.4158L62.5912 54.5364L64.2664 55.5273L64.1224 56.4068Z" fill="#42E8E0"/>
<path d="M69.0892 59.3453L65.0176 56.9366L65.1615 56.0571L69.2331 58.4658L69.0892 59.3453Z" fill="#42E8E0"/>
<path d="M74.0579 62.2837L69.9863 59.8751L70.1302 58.9956L74.2019 61.4042L74.0579 62.2837Z" fill="#42E8E0"/>
<path d="M59.2474 58.0464L55.1758 55.6377L55.3197 54.7583L59.3913 57.1669L59.2474 58.0464Z" fill="#42E8E0"/>
<path d="M61.3931 59.3162L60.1426 58.5764L60.2864 57.697L61.537 58.4368L61.3931 59.3162Z" fill="#42E8E0"/>
<path d="M63.5436 60.5885L62.293 59.8487L62.4369 58.9692L63.6875 59.709L63.5436 60.5885Z" fill="#42E8E0"/>
<path d="M67.5217 62.9413L64.4453 61.1214L64.5892 60.2419L67.6656 62.0619L67.5217 62.9413Z" fill="#42E8E0"/>
<path d="M68.3577 63.4359L65.2812 61.6161L65.4252 60.7366L68.5015 62.5565L68.3577 63.4359Z" fill="#42E8E0"/>
<path d="M61.0806 50.0844L59.8301 49.3446L59.9739 48.4651L61.2246 49.2049L61.0806 50.0844Z" fill="#42E8E0"/>
<path d="M65.0568 52.4369L61.9805 50.617L62.1243 49.7375L65.2008 51.5575L65.0568 52.4369Z" fill="#42E8E0"/>
<path d="M69.1194 54.84L66.043 53.02L66.1869 52.1406L69.2633 53.9605L69.1194 54.84Z" fill="#42E8E0"/>
<path d="M84.7785 68.626L82.9219 67.5277L83.0658 66.6482L84.9225 67.7466L84.7785 68.626Z" fill="#42E8E0"/>
<path d="M89.1324 71.2024L85.6191 69.1241L85.7631 68.2446L89.2763 70.3229L89.1324 71.2024Z" fill="#42E8E0"/>
<path d="M77.922 64.5704L74.8457 62.7505L74.9896 61.8711L78.066 63.691L77.922 64.5704Z" fill="#42E8E0"/>
<path d="M81.9846 66.9738L78.9082 65.1539L79.0521 64.2744L82.1285 66.0943L81.9846 66.9738Z" fill="#42E8E0"/>
<path d="M58.9068 41.3636L57.6562 40.6238L57.8001 39.7444L59.0507 40.4842L58.9068 41.3636Z" fill="#42E8E0"/>
<path d="M62.883 43.7162L59.8066 41.8963L59.9506 41.0168L63.0269 42.8367L62.883 43.7162Z" fill="#42E8E0"/>
<path d="M66.9455 46.1198L63.8691 44.2999L64.0131 43.4204L67.0894 45.2403L66.9455 46.1198Z" fill="#42E8E0"/>
<path d="M114.441 69.0109C114.243 69.0109 114.039 68.9516 113.838 68.8331L96.8201 58.766C96.1172 58.3499 95.6622 57.2975 95.8057 56.4201L96.8947 49.7668C96.9698 49.3062 97.2028 48.95 97.5332 48.7899C97.8405 48.6418 98.1988 48.6728 98.5423 48.8753L115.56 58.9424C116.263 59.3585 116.718 60.4109 116.575 61.2882L115.486 67.9416C115.411 68.4029 115.178 68.7591 114.847 68.9185C114.719 68.9805 114.582 69.0109 114.441 69.0109ZM97.9401 48.9973C97.8409 48.9973 97.7456 49.0184 97.6578 49.0607C97.4152 49.1779 97.242 49.4536 97.1825 49.8161L96.0935 56.4695C95.9686 57.234 96.3599 58.1482 96.966 58.5065L113.984 68.5735C114.242 68.7273 114.505 68.752 114.723 68.6476C114.966 68.5306 115.139 68.2555 115.198 67.8922L116.287 61.2389C116.412 60.4743 116.02 59.5603 115.414 59.2019L98.3964 49.1348C98.2423 49.0431 98.0867 48.9973 97.9401 48.9973Z" fill="#42E8E0"/>
<path d="M112.569 80.4433C112.372 80.4433 112.167 80.3841 111.967 80.2656L94.9491 70.1985C94.2462 69.7824 93.7909 68.73 93.9348 67.8526L95.0234 61.2C95.0988 60.7387 95.3318 60.3825 95.6626 60.2223C95.9692 60.0736 96.3278 60.106 96.671 60.3077L113.689 70.3756C114.392 70.7916 114.847 71.844 114.703 72.7207L113.615 79.374C113.539 79.8353 113.306 80.1915 112.976 80.3509C112.848 80.413 112.71 80.4433 112.569 80.4433ZM96.0687 60.4298C95.9696 60.4298 95.8746 60.4509 95.7869 60.4932C95.5442 60.6103 95.3707 60.8861 95.3111 61.2493L94.2225 67.902C94.0976 68.6665 94.4889 69.5806 95.095 69.9389L112.113 80.006C112.371 80.1598 112.634 80.1852 112.851 80.0801C113.094 79.963 113.267 79.6879 113.327 79.3247L114.415 72.6714C114.54 71.9068 114.149 70.9934 113.543 70.6351L96.5251 60.5673C96.3709 60.4756 96.2153 60.4298 96.0687 60.4298Z" fill="#42E8E0"/>
<path opacity="0.5" d="M98.3613 58.0252C98.6628 58.2035 98.9312 58.1367 99.0306 57.8587L101.015 52.3028C101.242 51.6683 102.168 52.2419 102.364 53.1382L103.585 58.7297C103.675 59.1384 103.951 59.5459 104.265 59.7316L104.557 59.9042C104.84 60.0719 105.097 60.0236 105.208 59.7812L105.612 58.9034C105.863 58.3594 106.698 58.8726 106.926 59.7105C107.031 60.0971 107.294 60.467 107.588 60.6406L107.843 60.7915C108.152 60.9743 108.425 60.8991 108.518 60.6055L108.887 59.4455C109.095 58.7907 110.024 59.336 110.237 60.2378L111.459 65.4141C111.555 65.8209 111.833 66.2201 112.144 66.3985L98.3613 58.0252Z" fill="url(#paint6_linear_602_2194)"/>
<path d="M109.978 77.8091C109.632 77.6109 109.328 77.1771 109.222 76.7299L108 71.5536C107.862 70.9703 107.414 70.5979 107.155 70.5872C107.083 70.5887 106.985 70.6007 106.93 70.7721L106.562 71.9323C106.508 72.103 106.398 72.2286 106.254 72.2857C106.085 72.352 105.878 72.3217 105.675 72.2018L105.42 72.0508C105.093 71.8575 104.806 71.4569 104.69 71.0309C104.549 70.5104 104.154 70.1345 103.873 70.1098C103.764 70.1034 103.697 70.1443 103.649 70.248L103.245 71.1254C103.18 71.2672 103.073 71.3653 102.938 71.409C102.772 71.4619 102.583 71.4287 102.389 71.3145L102.097 71.1417C101.747 70.9343 101.446 70.4934 101.348 70.0427L100.126 64.4509C100.008 63.9107 99.5846 63.4846 99.2851 63.4649C99.1726 63.4522 99.1014 63.5108 99.057 63.6349L97.0724 69.1907C97.0143 69.3544 96.9076 69.4686 96.7644 69.5222C96.5974 69.585 96.395 69.5533 96.1934 69.4355L96.3393 69.1759C96.4635 69.2493 96.5799 69.2733 96.6646 69.2408C96.7251 69.2182 96.7703 69.1667 96.7984 69.0878L98.783 63.5319C98.8718 63.2836 99.0687 63.163 99.3041 63.1658C99.7161 63.1933 100.259 63.6906 100.411 64.3861L101.633 69.9779C101.713 70.3454 101.964 70.717 102.243 70.8821L102.535 71.0549C102.655 71.1261 102.767 71.1515 102.851 71.1233C102.907 71.1057 102.951 71.0626 102.981 70.9971L103.385 70.1197C103.484 69.9038 103.669 69.7945 103.898 69.8114C104.337 69.8502 104.808 70.3503 104.971 70.9505C105.066 71.2997 105.305 71.6375 105.566 71.7912L105.821 71.9422C105.947 72.0177 106.064 72.0396 106.149 72.0064C106.212 71.9817 106.257 71.9253 106.285 71.8399L106.653 70.679C106.734 70.4208 106.931 70.2861 107.166 70.2882C107.573 70.3044 108.119 70.7883 108.283 71.4831L109.506 76.6594C109.592 77.0248 109.845 77.3901 110.12 77.5481L109.978 77.8091Z" fill="#42E8E0"/>
<defs>
<linearGradient id="paint0_linear_602_2194" x1="116.576" y1="107.729" x2="-1.93809" y2="107.729" gradientUnits="userSpaceOnUse">
<stop stop-color="#5761D7"/>
<stop offset="0.177894" stop-color="#5C66D9"/>
<stop offset="0.387598" stop-color="#6A73DF"/>
<stop offset="0.6134" stop-color="#8289E8"/>
<stop offset="0.84896" stop-color="#A3A7F5"/>
<stop offset="1" stop-color="#BCBEFF"/>
</linearGradient>
<linearGradient id="paint1_linear_602_2194" x1="78.9761" y1="104.902" x2="-39.5377" y2="104.902" gradientUnits="userSpaceOnUse">
<stop stop-color="#C0BFF6"/>
<stop offset="0.293761" stop-color="#C5C4F7"/>
<stop offset="0.639919" stop-color="#D3D2F9"/>
<stop offset="1" stop-color="#E9E9FD"/>
</linearGradient>
<linearGradient id="paint2_linear_602_2194" x1="130.014" y1="51.6336" x2="46.1445" y2="51.6336" gradientUnits="userSpaceOnUse">
<stop stop-color="#C0BFF6"/>
<stop offset="0.293761" stop-color="#C5C4F7"/>
<stop offset="0.639919" stop-color="#D3D2F9"/>
<stop offset="1" stop-color="#E9E9FD"/>
</linearGradient>
<linearGradient id="paint3_linear_602_2194" x1="130.013" y1="73.6719" x2="115.611" y2="73.6719" gradientUnits="userSpaceOnUse">
<stop stop-color="#5761D7"/>
<stop offset="0.177894" stop-color="#5C66D9"/>
<stop offset="0.387598" stop-color="#6A73DF"/>
<stop offset="0.6134" stop-color="#8289E8"/>
<stop offset="0.84896" stop-color="#A3A7F5"/>
<stop offset="1" stop-color="#BCBEFF"/>
</linearGradient>
<linearGradient id="paint4_linear_602_2194" x1="118.777" y1="97.7177" x2="0.326172" y2="97.7177" gradientUnits="userSpaceOnUse">
<stop stop-color="#5761D7"/>
<stop offset="0.177894" stop-color="#5C66D9"/>
<stop offset="0.387598" stop-color="#6A73DF"/>
<stop offset="0.6134" stop-color="#8289E8"/>
<stop offset="0.84896" stop-color="#A3A7F5"/>
<stop offset="1" stop-color="#BCBEFF"/>
</linearGradient>
<linearGradient id="paint5_linear_602_2194" x1="78.9761" y1="94.3991" x2="-39.5377" y2="94.3991" gradientUnits="userSpaceOnUse">
<stop stop-color="#C0BFF6"/>
<stop offset="0.293761" stop-color="#C5C4F7"/>
<stop offset="0.639919" stop-color="#D3D2F9"/>
<stop offset="1" stop-color="#E9E9FD"/>
</linearGradient>
<linearGradient id="paint6_linear_602_2194" x1="99.6678" y1="56.0872" x2="124.3" y2="66.3722" gradientUnits="userSpaceOnUse">
<stop stop-color="#42E8E0"/>
<stop offset="0.105539" stop-color="#37B6BF"/>
<stop offset="0.219661" stop-color="#2C87A1"/>
<stop offset="0.337969" stop-color="#235F87"/>
<stop offset="0.458668" stop-color="#1C3F72"/>
<stop offset="0.582439" stop-color="#162561"/>
<stop offset="0.710541" stop-color="#121355"/>
<stop offset="0.845774" stop-color="#10084E"/>
<stop offset="1" stop-color="#0F054C"/>
</linearGradient>
</defs>
</svg>
